<?xml version="1.0" encoding="utf-8"?>
<!-- Generator: Adobe Illustrator 25.2.1, SVG Export Plug-In . SVG Version: 6.00 Build 0)  -->
<svg version="1.1" id="Camada_1" xmlns="http://www.w3.org/2000/svg" xmlns:xlink="http://www.w3.org/1999/xlink" x="0px" y="0px"
	 viewBox="0 0 162.8 222.6" style="enable-background:new 0 0 162.8 222.6;" xml:space="preserve">
<style type="text/css">
	.st0{fill:#D8DEE8;}
	.st1{fill:url(#SVGID_1_);}
	.st2{fill:url(#SVGID_2_);}
	.st3{fill:url(#SVGID_3_);}
	.st4{fill:#26274F;}
	.st5{fill:url(#SVGID_4_);}
	.st6{fill:url(#SVGID_5_);}
	.st7{fill:url(#SVGID_6_);}
	.st8{opacity:0.25;fill:url(#SVGID_7_);}
	.st9{fill:#444C8D;}
	.st10{fill:url(#SVGID_8_);}
	.st11{fill:url(#SVGID_9_);}
	.st12{fill:url(#SVGID_10_);}
	.st13{fill:url(#SVGID_11_);}
	.st14{fill:url(#SVGID_12_);}
	.st15{fill:url(#SVGID_13_);}
	.st16{fill:url(#SVGID_14_);}
	.st17{opacity:0.3;fill:url(#SVGID_15_);}
</style>
<g>
	<path class="st0" d="M134.42,195.78c-20.39-2.48-24.6,2.31-45.35,1.37c-20.41-0.92-21.81-5.81-38.48-4.81
		c-14.99,0.9-34.29,6.07-34.35,11.68c-0.08,6.17,23.12,14.85,45.35,11.68c12.37-1.76,11.51-5.36,23.36-6.87
		c21.46-2.75,27.77,8.59,49.47,6.18c12.55-1.39,25.66-6.87,25.42-10.99C159.54,198.83,138.05,196.22,134.42,195.78z"/>
	<g>
		<g>
			
				<linearGradient id="SVGID_1_" gradientUnits="userSpaceOnUse" x1="887.179" y1="7.1667" x2="882.5697" y2="14.623" gradientTransform="matrix(-1 0 0 1 1015.8797 0)">
				<stop  offset="0" style="stop-color:#FCC345"/>
				<stop  offset="0.9964" style="stop-color:#EE7058"/>
			</linearGradient>
			<path class="st1" d="M128.94,14.78c-0.47-0.73-1.32-2.27-1.38-4.34c-0.11-4.03,2.88-7.17,3.28-6.99c0.22,0.1-0.06,1.28-0.21,1.8
				c-0.32,1.09-0.66,1.19-0.64,1.69c0.06,1.03,1.55,1.07,2.33,2.44c0.56,0.98,0.61,2.39,0,3.49
				C131.32,14.71,129.04,14.77,128.94,14.78z"/>
			
				<linearGradient id="SVGID_2_" gradientUnits="userSpaceOnUse" x1="952.8329" y1="95.4166" x2="954.6942" y2="99.244" gradientTransform="matrix(-1 0 0 1 1015.8797 0)">
				<stop  offset="0" style="stop-color:#FCC345"/>
				<stop  offset="0.9964" style="stop-color:#EE7058"/>
			</linearGradient>
			<polygon class="st2" points="65.14,102.25 66.28,98.3 61.49,94.75 58.5,93.63 60.27,99.16 			"/>
			
				<linearGradient id="SVGID_3_" gradientUnits="userSpaceOnUse" x1="-301.4688" y1="192.8847" x2="-301.4688" y2="180.8773" gradientTransform="matrix(-1 0 0 1 -233.6833 0)">
				<stop  offset="0" style="stop-color:#FCC345"/>
				<stop  offset="0.9964" style="stop-color:#EE7058"/>
			</linearGradient>
			<path class="st3" d="M71.07,181.82c0,0-2.62,6.6-1.93,9.52c-2.81-0.06-4.64-0.41-4.64-0.41s1.13-3.01,1.35-4.5
				c0.3-2.01,0.28-5.27,0.28-5.27L71.07,181.82z"/>
			<path class="st4" d="M99.97,197.24c-0.17,0.2-0.47,0.63-0.5,1.21c-0.01,0.31,0.06,0.57,0.15,0.81c0.45,1.18,1.15,1.33,1.91,2.58
				c0.46,0.76,0.38,0.99,0.8,1.34c0.56,0.45,1.24,0.48,1.82,0.49c0.99,0.01,2.42-0.02,4.21-0.24c-0.94-1.21-1.94-2.44-3.01-3.69
				c-0.47-0.55-0.93-1.08-1.4-1.6l-2.77-0.93C100.78,197.22,100.38,197.23,99.97,197.24z"/>
			
				<linearGradient id="SVGID_4_" gradientUnits="userSpaceOnUse" x1="-338.0674" y1="196.3068" x2="-338.0674" y2="181.8359" gradientTransform="matrix(-1 0 0 1 -233.6833 0)">
				<stop  offset="0" style="stop-color:#FCC345"/>
				<stop  offset="0.9964" style="stop-color:#EE7058"/>
			</linearGradient>
			<path class="st5" d="M102.27,183.81c0,0,1.58,8.25-0.43,10.56c-1.71,2.31,0.83,0.66,0.83,0.66l3.04,2.65l1.82,3.15
				c0,0-1.68-8.08-1.23-11.28c0.45-3.2,0.67-5.37,0.67-5.37L102.27,183.81z"/>
			
				<linearGradient id="SVGID_5_" gradientUnits="userSpaceOnUse" x1="-346.1629" y1="139.4628" x2="-298.8195" y2="139.4628" gradientTransform="matrix(-1 0 0 1 -233.6833 0)">
				<stop  offset="0" style="stop-color:#311B44"/>
				<stop  offset="1" style="stop-color:#8A3977"/>
			</linearGradient>
			<path class="st6" d="M108.23,93.56c0,0,4.25,3.8,4.25,19.45s-2.01,49.63-2.01,49.63l-3.22,24.33c0,0-3.34,0.12-5.57-0.55
				c-2.01-9.17-5.29-24.67-3.73-37.64c0.67-14.09-5.59-31.75-5.59-31.75s-5.37,17.89-9.17,26.83c-3.8,8.94-11.04,36.96-11.71,38.97
				c-4.45,0.4-6.35-0.77-6.35-0.77s2.85-30.15,5.53-41.55c2.68-11.4,2.46-38.9,6.93-46.73C87.66,89.76,108.23,93.56,108.23,93.56z"
				/>
			
				<linearGradient id="SVGID_6_" gradientUnits="userSpaceOnUse" x1="-347.6676" y1="104.1708" x2="-313.5592" y2="161.4597" gradientTransform="matrix(-1 0 0 1 -233.6833 0)">
				<stop  offset="0" style="stop-color:#311B44"/>
				<stop  offset="1" style="stop-color:#8A3977"/>
			</linearGradient>
			<path class="st7" d="M108.23,93.56c0,0,4.25,3.8,4.25,19.45s-2.01,49.63-2.01,49.63l-3.22,24.33c0,0-3.34,0.12-5.57-0.55
				c-2.01-9.17-5.29-24.67-3.73-37.64c0.67-14.09-5.59-31.75-5.59-31.75s-5.37,17.89-9.17,26.83c-3.8,8.94-11.04,36.96-11.71,38.97
				c-4.45,0.4-6.35-0.77-6.35-0.77s2.85-30.15,5.53-41.55c2.68-11.4,2.46-38.9,6.93-46.73C87.66,89.76,108.23,93.56,108.23,93.56z"
				/>
			
				<linearGradient id="SVGID_7_" gradientUnits="userSpaceOnUse" x1="-334.2401" y1="96.1764" x2="-300.1317" y2="153.4653" gradientTransform="matrix(-1 0 0 1 -233.6833 0)">
				<stop  offset="0" style="stop-color:#311B44"/>
				<stop  offset="1" style="stop-color:#8A3977"/>
			</linearGradient>
			<path class="st8" d="M86.16,122.24c-1.32,8.61-3.97,13.25-10.6,19.21c-5.3,3.97-1.32,12.58-3.31,19.21
				c-0.66,1.99-2.65,3.97-3.31,5.96c-2.46,4.93-0.16,10.96-1.28,16.18c-1.74-0.24-2.53-0.72-2.53-0.72s2.85-30.15,5.53-41.55
				c2.68-11.4,2.46-38.9,6.93-46.73c10.06-4.02,30.63-0.22,30.63-0.22s4.25,3.8,4.25,19.45c0,1.27-0.01,2.66-0.04,4.15
				c-4.41,3.9-13.43,4.77-18.99,0.44c-0.34-0.25-0.69-0.41-1.06-0.48c-0.02-0.05-0.03-0.08-0.03-0.08s-0.01,0.03-0.02,0.08
				C89.8,116.65,86.74,119.94,86.16,122.24z"/>
			<g>
				<path class="st4" d="M69.83,193.84c0,0,0.65,0,0.6,0.84c-0.05,0.84,0.29,3.75-3.03,3.88c-3.32,0.14-3.83-0.24-3.94-0.24
					c-0.11,0,0.87-2.78,0.87-2.78l1.06-1.36l2.86-0.3L69.83,193.84z"/>
				<path class="st9" d="M62.46,196.76c0.07-0.7,0.46-1.8,0.86-2.69c0.59-1.32,0.1-1.81,0.67-3.01c0.19-0.42,0.38-0.81,0.79-1.2
					c0.09-0.09,1.01-0.94,2.35-0.89c0.26,0.01,0.67,0.03,1.1,0.26c0.51,0.27,0.77,0.69,0.99,1.05c0.35,0.57,0.27,0.74,0.8,2.37
					c0.04,0.13,0.14,0.42,0.21,0.81c0.06,0.3,0.08,0.55,0.09,0.72c-0.87,0-4.22,0.14-4.93,0.65c-0.71,0.52-1.06,1.39-1.06,2.26
					c0,0.87-0.44,1.28-0.87,1.25C63.07,198.31,62.29,197.59,62.46,196.76z"/>
			</g>
			<path class="st9" d="M102.69,193.22c-0.75,0.01-1.3,0.61-1.71,2.04c-0.41,1.44-2.4,2.7-0.08,2.4c2.32-0.3,4,2.98,4.83,4.19
				c0.83,1.21,3.05,2.29,3,1.11c-0.06-1.19-1.04-1.74-1.31-2.96C107.14,198.79,104.4,193.19,102.69,193.22z"/>
			
				<linearGradient id="SVGID_8_" gradientUnits="userSpaceOnUse" x1="-2107.5176" y1="-4827.1655" x2="-2071.395" y2="-4752.8853" gradientTransform="matrix(0.9906 -0.1367 -0.1367 -0.9906 1502.1111 -5008.939)">
				<stop  offset="0" style="stop-color:#FCC345"/>
				<stop  offset="0.9964" style="stop-color:#EE7058"/>
			</linearGradient>
			<path class="st10" d="M63.38,95.45c-0.55-1.53-3.98-11.58,1.57-20.74c4.54-7.5,12.4-9.95,13.52-10.28
				c6.82-2.01,10.24,0.57,12.39-1.81c3.65-4.04-0.48-17.81-8.49-20.57c-9.02-3.11-19.84,8.85-24.23,16.7
				c-5.75,10.3-4.34,20.54-4,22.65c0.87,5.48,2.88,9.66,4.37,12.23C60.13,94.24,61.75,94.84,63.38,95.45z"/>
			
				<linearGradient id="SVGID_9_" gradientUnits="userSpaceOnUse" x1="908.1587" y1="42.6343" x2="944.743" y2="117.8642" gradientTransform="matrix(-1 0 0 1 1015.8797 0)">
				<stop  offset="0" style="stop-color:#FCC345"/>
				<stop  offset="0.9964" style="stop-color:#EE7058"/>
			</linearGradient>
			<path class="st11" d="M86.94,40.11c8.05-0.32,14.26-0.19,17.77,3.31c3.71,3.7-0.04,7.88,0.77,17.57
				c1.23,14.83,10.68,18.45,11.39,33.5c0.24,5.07-0.62,9.21-1.28,11.71c-2.07,2.58-5.47,6.23-10.48,9.28
				c-7.29,4.44-11.52,3.66-21.99,6.53c-17.12,4.69-18.65,10.27-27.14,8.85c-8.58-1.44-16.11-8.66-15.2-12.63
				c0.54-2.38,4-1.7,7.99-5.32c5.13-4.67,3.15-9.13,7.06-14.14c5.61-7.21,13.42-2.8,18.19-9.05c4.83-6.32,2.92-18.77-1.16-25.55
				c-2.66-4.43-3.8-9.63-6.06-14.27c-0.19-0.39-0.41-1.02-0.31-1.81c0.37-3.03,5.41-4.67,9.23-5.87
				C81.54,40.36,86.27,40.14,86.94,40.11z"/>
			
				<linearGradient id="SVGID_10_" gradientUnits="userSpaceOnUse" x1="-325.4712" y1="33.2216" x2="-318.4798" y2="44.3339" gradientTransform="matrix(-1 0 0 1 -233.6833 0)">
				<stop  offset="3.597120e-03" style="stop-color:#CC90BF"/>
				<stop  offset="1" style="stop-color:#7C6FB1"/>
			</linearGradient>
			<path class="st12" d="M93.72,39.78l-1.59-0.49c0,0-0.42,2.15-5.52,2.42c-2.83,0-4.67-1.59-4.67-1.59l-1.09,0.79
				c0,0,2.38,2.97,6.17,2.9C91.91,43.72,93.72,39.78,93.72,39.78z"/>
			<g>
				
					<linearGradient id="SVGID_11_" gradientUnits="userSpaceOnUse" x1="-317.0308" y1="31.5167" x2="-324.7143" y2="43.946" gradientTransform="matrix(-1 0 0 1 -233.6833 0)">
					<stop  offset="0" style="stop-color:#FCC345"/>
					<stop  offset="0.9964" style="stop-color:#EE7058"/>
				</linearGradient>
				<path class="st13" d="M90.49,33.24c-0.31-2.36-2.17-3.87-2.58-4.2c-1.71-1.36-2.05-1.49-2.64-1.6l-0.8-0.12c0,0-0.04,0-0.09,0
					c-0.47,0.03-1.87,0.58-2.13,0.76c-0.82,0.57-0.21,4.63,2.26,9.68c0.1,0.43,0.19,0.86,0.29,1.28c-2.15,0.38-2.69,0.77-2.7,1.08
					c-0.04,0.67,2.32,1.53,4.51,1.59c2.74,0.07,5.65-1.11,5.6-1.99c-0.02-0.36-0.54-0.8-2.53-1.23c-0.31-0.44-0.62-0.87-0.93-1.31
					C89.02,36.83,90.71,34.98,90.49,33.24z"/>
				
					<linearGradient id="SVGID_12_" gradientUnits="userSpaceOnUse" x1="-908.5878" y1="-368.6212" x2="-916.0234" y2="-356.5931" gradientTransform="matrix(-0.9717 -0.2361 -0.2361 0.9717 -883.8057 173.5053)">
					<stop  offset="0" style="stop-color:#FCC345"/>
					<stop  offset="0.9964" style="stop-color:#EE7058"/>
				</linearGradient>
				<path class="st14" d="M87.1,32.35c-0.62-0.37-1.1,0.43-0.8,1.13c0.29,0.7,1.28,1.14,1.87,0.72
					C88.77,33.78,87.93,32.85,87.1,32.35z"/>
				
					<linearGradient id="SVGID_13_" gradientUnits="userSpaceOnUse" x1="927.5285" y1="-21.572" x2="991.9227" y2="80.7781" gradientTransform="matrix(-1 0 0 1 1015.8797 0)">
					<stop  offset="0" style="stop-color:#444C8D"/>
					<stop  offset="0.9964" style="stop-color:#26274F"/>
				</linearGradient>
				<path class="st15" d="M6.51,32.34c8.18-8.88,27.23-6.45,37.79,0.69c4.91,3.31,7.43,7.23,13.23,7.56
					c4.41,0.25,11.42-1.41,15.12-6.18c0.47-0.6,2.33-3.13,5.12-6.31c1.23-1.4,2.46-2.72,4.36-3.02c0.48-0.08,2.09-0.34,3.15,0.7
					c0.86,0.84,1.07,2.3,0.82,3.35c-0.15,0.63-0.35,0.7-0.32,1.11c0.08,1.16,2.19,1.66,2.07,2.25c-0.08,0.42-1.18,0.26-1.37,0.79
					c-0.21,0.57,1,1.07,1.52,2.51c0.97,0.65,1.58,2.27,1.8,4.43c0.31,3.18-0.01,5.76-0.61,7.71c-2.9,9.37-4.98,16.07-10,19.81
					c-6.65,4.95-12.63,0.38-29.54-0.34c-23.16-0.99-28.93,6.86-37.25,1.49C1.98,62.16-1.99,41.56,6.51,32.34z"/>
			</g>
			
				<linearGradient id="SVGID_14_" gradientUnits="userSpaceOnUse" x1="904.0872" y1="44.3883" x2="940.069" y2="118.3791" gradientTransform="matrix(-1 0 0 1 1015.8797 0)">
				<stop  offset="0" style="stop-color:#FCC345"/>
				<stop  offset="0.9964" style="stop-color:#EE7058"/>
			</linearGradient>
			<path class="st16" d="M127.96,14.21c0.21,1.94,0.9,10.51-5.01,17.75c-5.52,6.76-13.35,8.11-14.8,8.33
				c-7.03,1.06-10.07-1.97-12.53,0.1c-4.17,3.5-1.95,17.71,5.6,21.54c8.51,4.31,20.87-6.05,26.29-13.23
				c7.11-9.42,7.11-19.75,7.06-21.89c-0.11-5.55-1.53-9.96-2.65-12.71c-0.46-0.14-1.17-0.29-2.03-0.26
				C129.07,13.86,128.41,14.05,127.96,14.21z"/>
			
				<linearGradient id="SVGID_15_" gradientUnits="userSpaceOnUse" x1="902.8753" y1="45.2038" x2="939.4596" y2="120.4335" gradientTransform="matrix(-1 0 0 1 1015.8797 0)">
				<stop  offset="0" style="stop-color:#FCC345"/>
				<stop  offset="0.9964" style="stop-color:#EE7058"/>
			</linearGradient>
			<path class="st17" d="M55.72,125.18c2.06-2.11-0.21-6.37,2.83-9.53c2.82-2.94,6.02-0.56,10.56-3.09
				c5.83-3.24,4.22-9.18,9.79-12.37c4-2.29,5.89,0.17,12.11-1.03c6.21-1.2,13.78-5.48,17.52-13.14c1.59-3.25,2.17-6.49,2.25-9.38
				c2.79,4.99,5.69,9.78,6.08,17.85c0.24,5.07-0.62,9.21-1.28,11.71c-2.07,2.58-5.47,6.23-10.48,9.28
				c-7.29,4.44-11.52,3.66-21.99,6.53c-17.12,4.69-18.65,10.27-27.14,8.85c-5.48-0.92-10.53-4.2-13.22-7.48
				C50.67,126.89,54.23,126.71,55.72,125.18z"/>
		</g>
	</g>
</g>
</svg>
