<?xml version="1.0" encoding="utf-8"?>
<!-- Generator: Adobe Illustrator 25.2.1, SVG Export Plug-In . SVG Version: 6.00 Build 0)  -->
<svg version="1.1" id="Layer_1" xmlns="http://www.w3.org/2000/svg" xmlns:xlink="http://www.w3.org/1999/xlink" x="0px" y="0px"
	 viewBox="0 0 310.32 295.92" style="enable-background:new 0 0 310.32 295.92;" xml:space="preserve">
<style type="text/css">
	.st0{fill:url(#SVGID_1_);}
	.st1{opacity:0.28;fill:#FFFFFF;}
	.st2{opacity:0.7;clip-path:url(#SVGID_4_);fill:#FFFFFF;}
	.st3{opacity:0.5;clip-path:url(#SVGID_7_);fill:#FFFFFF;}
	.st4{fill:url(#SVGID_8_);}
	.st5{clip-path:url(#SVGID_10_);fill:#D8DEE8;}
	.st6{fill:url(#SVGID_11_);}
	.st7{clip-path:url(#SVGID_13_);fill:#D8DEE8;}
	.st8{fill:url(#SVGID_14_);}
	.st9{clip-path:url(#SVGID_16_);fill:#A2A7AE;}
</style>
<g>
	<g>
		<g>
			
				<linearGradient id="SVGID_1_" gradientUnits="userSpaceOnUse" x1="492.4213" y1="314.5964" x2="416.6072" y2="400.4446" gradientTransform="matrix(0.9895 -0.1447 0.1447 0.9895 -412.3001 -126.2755)">
				<stop  offset="3.597120e-03" style="stop-color:#E38DDD"/>
				<stop  offset="1" style="stop-color:#9571F6"/>
			</linearGradient>
			<path class="st0" d="M189.38,240.73c-62.85,10.79-82.18,2.43-87.88-7.62c-3.32-5.84-3.66-15.11-13.13-26.81
				c-7.98-9.86-12.57-9.25-15.98-16.82c-5.93-13.12,5.38-20.49,0.77-33.2c-5.04-13.91-20.91-11.46-27.79-28.08
				c-3.76-9.09,0.65-10.62-2.7-19.68C35.85,90.06,15.74,91.67,9.06,75.02c-3.89-9.69-1.89-22.23,4.51-29.62
				C26.4,30.58,57.14,36.26,74.53,50c2.24,1.77,19.1,15.48,20.73,35.78c0.98,12.25-4.29,17.96,0.06,25.41
				c6.13,10.52,20.02,4.96,26.12,14.31c8.26,12.66-11.34,31.89-1.89,46.14c3.66,5.52,7.52,4.03,11.17,10.37
				c6.01,10.42-0.99,20.4,0.39,29.07C132.59,220.39,144.31,231.77,189.38,240.73z"/>
			<path class="st1" d="M73.13,78.94c8.16,18.82-5.14,30.71,4.41,45.56c7.76,12.06,19.98,9.59,23.33,20.81
				c3.2,10.76-7.15,15.95-4.32,28.24c2.34,10.13,10.2,10.18,18.05,23.28c7.91,13.18,4.71,21.09,8.77,29.14
				c4.36,8.65,16.73,16.75,50.01,17.23c4.99-0.68,10.32-1.49,16-2.47c-45.07-8.96-56.8-20.33-58.28-29.64
				c-1.38-8.67,5.62-18.65-0.39-29.07c-3.65-6.33-7.52-4.85-11.17-10.37c-9.45-14.25,10.16-33.48,1.89-46.14
				c-6.1-9.35-19.99-3.79-26.12-14.31c-4.35-7.46,0.93-13.17-0.06-25.41C93.62,65.48,76.77,51.77,74.53,50
				C57.14,36.26,26.4,30.58,13.57,45.4c-0.06,0.07-0.12,0.15-0.18,0.22c8.58,0.3,19.11,2.05,30.01,7.25
				C51.86,56.9,66.63,63.94,73.13,78.94z"/>
		</g>
		<g>
			<g>
				<defs>
					<path id="SVGID_2_" d="M169.17,247.22c-21.26-5.41-27.29-11.96-28.23-17.46c-1.53-9,10.72-14.55,9.08-24.81
						c-1.89-11.82-19.72-14.27-19.17-22.04c0.59-8.4,21.58-7.8,25.91-19.89c3.93-10.96-11.21-17.34-11.1-33.26
						c0.14-19.01,21.82-23.47,25.63-45.11c2.6-14.78-4.93-27.34-10.84-37.2C147.17,25.26,119.85,3.7,88.94,5.88
						c-4.22,0.3-28.83,2.04-34.92,16.47c-6.18,14.63,8.57,37.79,23.66,50.06c10.94,8.9,20.11,10.49,20.59,17.49
						c0.65,9.44-15.57,12.9-17.11,26.66c-0.81,7.28,2.92,13.49,6.59,19.6c8.32,13.86,16.43,13.34,17.62,21.02
						c1.63,10.51-13.05,14.8-16.3,30.52c-2.32,11.2,2.65,20.96,5.46,26.46C105.45,235.6,134.88,247.88,169.17,247.22z"/>
				</defs>
				<linearGradient id="SVGID_3_" gradientUnits="userSpaceOnUse" x1="106.4885" y1="6.5187" x2="124.4397" y2="155.5681">
					<stop  offset="0" style="stop-color:#AA80F9"/>
					<stop  offset="0.9964" style="stop-color:#6165D7"/>
				</linearGradient>
				<use xlink:href="#SVGID_2_"  style="overflow:visible;fill:url(#SVGID_3_);"/>
				<clipPath id="SVGID_4_">
					<use xlink:href="#SVGID_2_"  style="overflow:visible;"/>
				</clipPath>
				<path class="st2" d="M46.19,15.02c13.38,6.13,26.72,12.33,40.05,18.57c6.68,3.1,13.32,6.25,19.92,9.53
					c3.3,1.63,6.59,3.28,9.86,4.99c3.27,1.71,6.51,3.46,9.67,5.38c1.58,0.97,3.14,1.98,4.63,3.1c0.75,0.55,1.47,1.16,2.18,1.78
					c0.69,0.64,1.36,1.32,1.97,2.06c0.6,0.74,1.13,1.56,1.56,2.43c0.43,0.87,0.73,1.8,0.94,2.73c0.38,1.88,0.44,3.83,0.08,5.71
					c-0.34,1.88-1.05,3.67-1.95,5.33c-0.89,1.66-1.99,3.19-3.13,4.65c-2.3,2.93-4.86,5.59-7.31,8.32c-2.45,2.72-4.83,5.51-6.79,8.57
					c-0.96,1.53-1.84,3.12-2.54,4.78c-0.68,1.67-1.21,3.39-1.51,5.16c-0.56,3.54-0.35,7.23,0.75,10.65
					c0.56,1.71,1.35,3.33,2.28,4.87c0.94,1.54,2.04,2.99,3.18,4.43c1.13,1.44,2.31,2.86,3.4,4.38c0.55,0.75,1.05,1.54,1.54,2.34
					c0.46,0.82,0.92,1.64,1.28,2.52c0.76,1.73,1.25,3.58,1.47,5.45c0.22,1.87,0.2,3.76-0.02,5.63c-0.23,1.87-0.68,3.71-1.38,5.46
					c-0.7,1.75-1.61,3.4-2.65,4.95c-2.05,3.11-4.61,5.81-6.39,8.95c-0.89,1.56-1.54,3.24-1.83,5c-0.27,1.75-0.23,3.57,0.12,5.33
					c0.35,1.76,0.98,3.45,1.87,5.01c0.9,1.56,2,3.01,3.21,4.36c2.42,2.72,5.24,5.14,7.53,8.1c1.14,1.47,2.12,3.1,2.79,4.87
					c0.65,1.77,0.98,3.66,0.98,5.54c-0.01,1.88-0.33,3.77-1.01,5.53c-0.68,1.76-1.7,3.35-2.7,4.88c-0.98,1.54-1.96,3.1-2.24,4.85
					c-0.33,1.74,0.08,3.55,0.89,5.14c0.84,1.58,2.02,2.98,3.36,4.21c1.33,1.23,2.8,2.33,4.33,3.33c3.07,1.99,6.34,3.67,9.69,5.17
					c3.35,1.5,6.77,2.84,10.23,4.08c3.46,1.24,6.95,2.39,10.47,3.45c7.03,2.15,14.15,4.02,21.3,5.77l-0.01,0.05
					c-7.16-1.69-14.3-3.5-21.36-5.58c-3.53-1.03-7.04-2.16-10.52-3.36c-3.48-1.21-6.92-2.52-10.3-4c-3.38-1.47-6.69-3.13-9.81-5.12
					c-1.55-1-3.05-2.1-4.43-3.35c-1.38-1.24-2.62-2.68-3.52-4.35c-0.87-1.67-1.33-3.63-0.98-5.53c0.13-0.95,0.49-1.85,0.9-2.7
					c0.41-0.85,0.92-1.63,1.41-2.41c0.99-1.55,1.96-3.09,2.61-4.77c0.64-1.68,0.93-3.47,0.94-5.27c-0.01-1.8-0.33-3.59-0.95-5.27
					c-0.64-1.68-1.58-3.23-2.7-4.65c-2.23-2.86-5.05-5.26-7.53-8.02c-1.25-1.37-2.4-2.86-3.34-4.49c-0.93-1.63-1.62-3.42-1.99-5.27
					c-0.37-1.85-0.44-3.77-0.15-5.65c0.3-1.88,0.99-3.68,1.92-5.32c0.91-1.65,2.03-3.14,3.14-4.61c1.12-1.47,2.24-2.91,3.24-4.42
					c1.01-1.51,1.87-3.1,2.54-4.77c0.66-1.67,1.09-3.43,1.3-5.21c0.41-3.57,0.07-7.26-1.4-10.54c-1.41-3.31-3.8-6.12-6.09-9
					c-1.14-1.45-2.28-2.93-3.26-4.53c-0.98-1.6-1.81-3.3-2.4-5.09c-1.16-3.59-1.4-7.44-0.81-11.16c0.32-1.86,0.87-3.67,1.57-5.41
					c0.72-1.74,1.63-3.38,2.62-4.96c2.01-3.15,4.43-5.98,6.89-8.72c2.46-2.75,5-5.4,7.24-8.27c1.11-1.44,2.17-2.92,3.02-4.5
					c0.85-1.58,1.5-3.25,1.82-4.99c0.33-1.74,0.27-3.52-0.08-5.25c-0.36-1.73-1.13-3.31-2.25-4.69c-0.56-0.69-1.18-1.32-1.84-1.94
					c-0.67-0.6-1.36-1.18-2.09-1.72c-1.45-1.09-2.97-2.09-4.53-3.05c-3.12-1.91-6.34-3.67-9.59-5.38c-3.25-1.71-6.53-3.37-9.82-5.01
					l-9.89-4.9c-3.29-1.64-6.62-3.21-9.93-4.81c-13.26-6.37-26.51-12.78-39.72-19.26L46.19,15.02z"/>
			</g>
		</g>
		<g>
			<g>
				<defs>
					<path id="SVGID_5_" d="M157.01,241.52c-5.14,2.67-13.5,6.6-24.32,9.69c-22.29,6.37-60.63,10.8-73.8-6.42
						c-1.62-2.12-5.9-7.71-5.33-14.62c0.59-7.18,5.89-9.4,5.1-13.89c-1.08-6.14-11.64-5.68-22.14-12.72
						c-8.92-5.99-19.65-18.64-18.61-33.52c1.14-16.32,15.75-25.6,17.33-26.58c10.8-6.62,27.44-9.02,37.84-0.65
						c9.21,7.4,10.07,20.45,10.64,29.06c1.29,19.48-6.86,28.24-0.99,35.06c5.34,6.21,14.41,1.63,20.91,9.92
						c2.78,3.54,1.98,5.48,6.32,12.41c3.28,5.24,6.83,9.07,8.29,10.43C129.52,250.19,154.77,242.25,157.01,241.52z"/>
				</defs>
				<linearGradient id="SVGID_6_" gradientUnits="userSpaceOnUse" x1="89.8396" y1="183.8344" x2="76.5315" y2="305.737">
					<stop  offset="3.597120e-03" style="stop-color:#E38DDD"/>
					<stop  offset="1" style="stop-color:#9571F6"/>
				</linearGradient>
				<use xlink:href="#SVGID_5_"  style="overflow:visible;fill:url(#SVGID_6_);"/>
				<clipPath id="SVGID_7_">
					<use xlink:href="#SVGID_5_"  style="overflow:visible;"/>
				</clipPath>
				<path class="st3" d="M143.04,247.99c-10.6,0-21.13-0.69-31.46-2.08c-31.22-4.18-34.75-11.17-35.91-13.47
					c-1.8-3.57-1.47-6.57-1.13-9.75c0.39-3.57,0.79-7.27-1.55-12.4c-2.14-4.68-4.92-6.85-7.62-8.95c-2.63-2.05-5.34-4.17-7.34-8.58
					c-2.58-5.69-1.79-10.3-0.97-15.18c0.45-2.68,0.92-5.45,0.87-8.55c-0.2-12.25-8.65-24.8-25.12-37.29l0.24-0.31
					c16.57,12.57,25.08,25.22,25.28,37.6c0.05,3.14-0.42,5.92-0.88,8.62c-0.82,4.82-1.59,9.38,0.94,14.96
					c1.96,4.32,4.52,6.32,7.23,8.43c2.73,2.13,5.56,4.33,7.73,9.1c2.39,5.23,1.96,9.15,1.58,12.6c-0.34,3.12-0.66,6.07,1.09,9.54
					c1.14,2.25,4.59,9.1,35.61,13.26c15.34,2.05,31.14,2.58,46.96,1.58l0.02,0.39C153.42,247.82,148.22,247.99,143.04,247.99z"/>
			</g>
		</g>
	</g>
	<g>
		<g>
			<linearGradient id="SVGID_8_" gradientUnits="userSpaceOnUse" x1="76.0742" y1="171.8325" x2="155.4063" y2="171.8325">
				<stop  offset="0" style="stop-color:#FF9085"/>
				<stop  offset="1" style="stop-color:#FB6FBB"/>
			</linearGradient>
			<polygon class="st4" points="155.41,289.41 76.07,283.37 76.07,60.13 155.41,54.26 			"/>
			<g>
				<defs>
					<polygon id="SVGID_9_" points="82.21,273.62 82.21,69.9 155.41,64.98 155.41,278.68 					"/>
				</defs>
				<use xlink:href="#SVGID_9_"  style="overflow:visible;fill:#FFFFFF;"/>
				<clipPath id="SVGID_10_">
					<use xlink:href="#SVGID_9_"  style="overflow:visible;"/>
				</clipPath>
				<path class="st5" d="M372.59,117.89l-78.72,2.31c-0.26-43.22-0.48-104.98-0.05-110.71c-0.02,0.29-0.17,1.83-0.92,3.58
					l-10.43-9.02c-1.12,2.6-1.15,4.77-1.24,10.58c-0.05,3.3-0.09,8.03-0.11,14.06c-0.03,10.1-0.02,24.03,0.04,41.42
					c0.1,29.58,0.29,59.33,0.29,59.63l0.06,8.99l27.01-0.5v64.75L257.58,202l-30.43-60.89l-41.8,0.74l56.14-101.62l-8.88-10.85
					L170.9,142.11l-26.56,0.47c0.04-10.22,0.1-28.4,0.14-46.49c0.03-15.99,0.04-28.78,0.02-38.04c-0.04-18.46-0.1-18.67-0.48-19.84
					l-4.96,4.38c-0.2-0.62-0.24-1.14-0.25-1.24c0.26,3.84,0.14,59.89-0.01,101.33l-27.73,0.49c-5.04-29.79-16.81-99.41-17.21-101.33
					l-9.24,5.86l-0.02-0.11c0.5,2.69,10.91,64.59,17.86,106.01l1,5.96l58.11-0.41l-36.1,65.94l-70.86-2.53v15.72l75.53,3.51
					l45.71-82.74l45.51-0.32l21.29,42.99l-56.26-1.07v122.13l5.89,0.56V209.9l55.1,1.36l55.57,112.19l10.23-10.18L262.4,211.64
					l52.94,1.31v-74.86l57.25-1.07V117.89z"/>
			</g>
		</g>
		<g>
			<linearGradient id="SVGID_11_" gradientUnits="userSpaceOnUse" x1="234.7523" y1="117.8302" x2="326.6786" y2="354.6097">
				<stop  offset="0" style="stop-color:#FF9085"/>
				<stop  offset="1" style="stop-color:#FB6FBB"/>
			</linearGradient>
			<polygon class="st6" points="209.52,276.58 302.04,276.58 302.04,67.39 209.52,67.39 			"/>
			<g>
				<defs>
					
						<rect id="SVGID_12_" x="156.92" y="129.4" transform="matrix(-1.836970e-16 1 -1 -1.836970e-16 423.9419 -80.1123)" width="190.22" height="85.02"/>
				</defs>
				<use xlink:href="#SVGID_12_"  style="overflow:visible;fill:#FFFFFF;"/>
				<clipPath id="SVGID_13_">
					<use xlink:href="#SVGID_12_"  style="overflow:visible;"/>
				</clipPath>
				<path class="st7" d="M328.18,129.58h-70.33c-0.25-35.36-0.45-85.89-0.05-90.55c-0.02,0.24-0.16,1.49-0.86,2.86l-9.82-8.22
					c-1.06,2.05-1.09,3.84-1.18,8.62c-0.05,2.71-0.08,6.61-0.1,11.58c-0.03,8.32-0.02,19.8,0.03,34.13
					c0.09,24.38,0.28,48.9,0.28,49.14l0.06,7.41h25.21v52.5h-48.22l-30.24-51.33h-43.42l57.82-84.89l-8.88-9.8l-64.49,94.69h-29.32
					c0.04-9.16,0.11-25.45,0.15-41.67c0.04-14.33,0.04-25.8,0.02-34.1c-0.04-16.55-0.12-16.74-0.54-17.82l-5.59,3.56
					c-0.22-0.57-0.27-1.04-0.28-1.13c0.29,3.47,0.16,53.89-0.01,91.16H66.46c-5.93-27.47-19.94-92.36-20.41-94.17L34.9,56.26
					l-0.03-0.11c0.61,2.55,13.16,60.61,21.44,99.01l1.19,5.5h66.29l-40.59,59.61H-2.29v14.96h90.85l50.78-74.56h47.73l21.43,36.38
					h-57.86v106.6h6.25v-98.64h56.3l53.11,90.15l9.4-8.97l-47.82-81.18h49.79v-60.46h50.51V129.58z"/>
			</g>
		</g>
		<g>
			<linearGradient id="SVGID_14_" gradientUnits="userSpaceOnUse" x1="133.2329" y1="171.6981" x2="233.6843" y2="172.3069">
				<stop  offset="0" style="stop-color:#FF9085"/>
				<stop  offset="1" style="stop-color:#FB6FBB"/>
			</linearGradient>
			<polygon class="st8" points="209.52,276.58 155.41,289.41 155.41,54.26 209.52,67.39 			"/>
			<g>
				<defs>
					<polygon id="SVGID_15_" points="155.41,278.68 155.41,64.98 209.52,76.94 209.52,267.04 					"/>
				</defs>
				<use xlink:href="#SVGID_15_"  style="overflow:visible;fill:#D8DEE8;"/>
				<clipPath id="SVGID_16_">
					<use xlink:href="#SVGID_15_"  style="overflow:visible;"/>
				</clipPath>
				<path class="st9" d="M263.59,135.08l-30.3-3.03c-0.11-33.43-0.21-81.22-0.02-85.57c-0.01,0.22-0.07,1.38-0.4,2.58l-4.63-9.25
					c-0.51,1.8-0.52,3.51-0.56,8.07c-0.02,2.59-0.04,6.32-0.05,11.07c-0.01,7.96-0.01,18.97,0.02,32.7
					c0.04,23.36,0.13,46.84,0.13,47.08l0.03,7.09l11.7,0.77v48.86l-22.99,1.26l-15.79-51.47l-24.82-1.56l32.48-83.02l-4.69-11.13
					l-37.37,93.55l-19.17-1.21c0.03-10.47,0.08-29.07,0.1-47.59c0.02-16.36,0.03-29.46,0.02-38.94c-0.03-18.9-0.08-19.14-0.37-20.45
					l-3.83,3.03c-0.15-0.7-0.19-1.25-0.19-1.36c0.2,4.06,0.11,62.1-0.01,105.03l-23.1-1.45c-4.52-33.67-15.53-115.57-15.91-117.93
					l-9.1,3.43l-0.02-0.14c0.51,3.35,10.71,77.9,17.24,125.72l0.92,6.75l46.93,1.35l-27.7,69.35l-70.08,7.57v20l73.92-10.52
					l33.7-86.12l27.85,0.8l11.47,36.73l-32.42,1.77v114.59l3.73-1.12V207.18l31.11-2.27l25.76,82.5l4.25-9.5l-22.56-73.54
					l23.44-1.71v-55.88l21.29,1.4V135.08z"/>
			</g>
		</g>
	</g>
</g>
</svg>
