<?xml version="1.0" encoding="utf-8"?>
<!-- Generator: Adobe Illustrator 25.2.1, SVG Export Plug-In . SVG Version: 6.00 Build 0)  -->
<svg version="1.1" id="Camada_1" xmlns="http://www.w3.org/2000/svg" xmlns:xlink="http://www.w3.org/1999/xlink" x="0px" y="0px"
	 viewBox="0 0 424 308.7" style="enable-background:new 0 0 424 308.7;" xml:space="preserve">
<style type="text/css">
	.st0{fill:#EBEBEB;}
	.st1{fill:#E0E0E0;}
	.st2{display:none;}
	.st3{display:inline;fill:#EBEBEB;}
	.st4{fill:#263238;}
	.st5{fill:#E8505B;}
	.st6{opacity:0.3;}
	.st7{fill:#455A64;}
	.st8{opacity:0.5;}
	.st9{fill:#FFFFFF;}
	.st10{fill:#FFBE9D;}
	.st11{fill:#EB996E;}
	.st12{opacity:0.2;}
	.st13{fill:#FAFAFA;}
</style>
<g id="Background_Complete">
	<g>
		<g>
			<g>
				<path class="st0" d="M65.6,107.9c0,0-7.3,1.3-2.6,17.1c4.6,15.8,8.4,23.9,8.4,23.9s0.7,3.6-2.3,3.6c-2.9,0-8.9-2.2-10.8,1.1
					c-2,3.3,0,7.2,4.7,11.2c4.7,3.9,14.7,13,15.7,13.8c0.9,0.8,1.6,2.6-0.4,2.9c-2,0.3-16.3-0.8-16.4,5.9
					c-0.2,6.7,14.8,15.7,16.4,16.6c1.6,1,1.9,1.8,1.6,2.7c-0.3,0.9-5.1,0.1-9.1-0.1c-4.1-0.2-8.8,0.4-8.5,4.3
					c0.2,3.9,8.2,13.6,30.9,20.2l10.7,2.3l7.6-8c15.1-18.1,16.4-30.5,14.4-34c-2-3.4-6.2-1.2-9.5,1.2c-3.3,2.4-6.7,5.7-7.6,5.1
					c-0.8-0.6-1-1.4-0.2-3.2s8.2-17.4,4.4-23c-3.9-5.6-15.1,3.3-16.9,4.2c-1.8,0.8-2.2-1-1.9-2.2c0.3-1.2,3.6-14.3,5.3-20.2
					c1.7-5.9,1.2-10.2-2.3-11.9c-3.4-1.6-7.2,3.6-9.6,5.1c-2.4,1.7-3.9-1.7-3.9-1.7s-1.4-8.8-6.4-24.6
					c-4.9-15.7-11.8-12.6-11.8-12.6"/>
			</g>
		</g>
		<g>
			<g>
				<g>
					<path class="st1" d="M103.8,236.1c-3.6-11.6-9.6-32.2-14.8-50c-5.3-17.7-10.1-33.7-13.5-45.3c-1.7-5.7-3.2-10.4-4.2-13.7
						c-0.5-1.6-0.9-2.9-1.1-3.7c-0.2-0.5-0.2-0.8-0.3-1c-0.1-0.2-0.1-0.3-0.1-0.3s0.1,0.1,0.2,0.3c0.1,0.2,0.2,0.5,0.3,1
						c0.3,0.8,0.7,2.1,1.2,3.7c1.1,3.3,2.5,7.9,4.3,13.7c3.6,11.6,8.4,27.6,13.6,45.3c5.3,17.7,11.3,38.4,14.7,50"/>
				</g>
			</g>
		</g>
		<g>
			<g>
				<g>
					<path class="st1" d="M66.5,156.9c0,0,0.2,0.1,0.7,0.4c0.5,0.2,1.1,0.6,1.9,1.1c1.6,0.9,3.7,2.3,6,3.8c2.3,1.5,4.3,2.9,5.9,3.9
						c0.7,0.5,1.3,0.8,1.8,1.2c0.5,0.3,0.7,0.5,0.7,0.5s-0.3-0.1-0.7-0.4c-0.5-0.2-1.1-0.6-1.9-1.1c-1.6-1-3.6-2.3-6-3.9
						c-2.3-1.5-4.4-2.9-6-3.9c-0.7-0.5-1.3-0.8-1.8-1.1C66.8,157.1,66.5,156.9,66.5,156.9z"/>
				</g>
			</g>
		</g>
		<g>
			<g>
				<g>
					<path class="st1" d="M84.4,167.1c-0.1-0.1,2.5-4.5,5.7-10.1c3.3-5.5,6-9.9,6-9.9c0.1,0.1-2.5,4.5-5.7,10.1
						S84.5,167.1,84.4,167.1z"/>
				</g>
			</g>
		</g>
		<g>
			<g>
				<g>
					<path class="st1" d="M91.3,194.7c0,0,0.2-0.2,0.5-0.6c0.5-0.4,1-0.9,1.6-1.5c1.4-1.3,3.2-3,5.2-5.1c2-2,3.7-3.9,5-5.3
						c0.6-0.7,1.1-1.2,1.5-1.7c0.4-0.4,0.5-0.6,0.6-0.6c0,0-0.2,0.2-0.5,0.7c-0.3,0.4-0.8,1-1.4,1.7c-1.2,1.4-2.9,3.3-4.9,5.4
						c-2,2-3.9,3.8-5.3,5c-0.7,0.6-1.3,1.1-1.7,1.4C91.5,194.5,91.3,194.7,91.3,194.7z"/>
				</g>
			</g>
		</g>
		<g>
			<g>
				<g>
					<path class="st1" d="M73,189c0,0,0.3,0,0.8,0.2c0.5,0.2,1.2,0.3,2,0.5c1.7,0.5,3.9,1.1,6.4,1.9c2.5,0.8,4.8,1.4,6.4,2
						c0.8,0.2,1.4,0.5,2,0.6c0.5,0.2,0.7,0.2,0.7,0.3c0,0-0.3,0-0.8-0.2c-0.5-0.2-1.2-0.3-2-0.5c-1.7-0.5-3.9-1.1-6.4-1.9
						c-2.5-0.8-4.8-1.4-6.4-2c-0.8-0.2-1.4-0.5-2-0.6C73.3,189.1,73,189,73,189z"/>
				</g>
			</g>
		</g>
		<g>
			<g>
				<g>
					<path class="st1" d="M76,214.1c0,0,0.3,0.1,0.9,0.2c0.7,0.2,1.5,0.4,2.5,0.7c2.1,0.6,5.1,1.4,8.2,2.3c3.3,0.9,6.1,1.8,8.2,2.4
						c1,0.3,1.8,0.6,2.5,0.8c0.6,0.2,0.9,0.3,0.9,0.3s-0.3-0.1-0.9-0.2c-0.7-0.2-1.5-0.4-2.5-0.7c-2.1-0.6-5.1-1.4-8.2-2.3
						c-3.3-0.9-6.1-1.8-8.2-2.4c-1-0.3-1.8-0.6-2.5-0.8C76.4,214.3,76,214.1,76,214.1z"/>
				</g>
			</g>
		</g>
		<g>
			<g>
				<g>
					<path class="st1" d="M98.8,220.5c0,0,0.2-0.3,0.7-0.8c0.5-0.5,1.1-1.2,2-2c1.7-1.7,3.9-4,6.4-6.7c2.4-2.6,4.6-5.1,6.1-6.9
						c0.8-0.8,1.4-1.6,1.8-2.1c0.5-0.5,0.7-0.8,0.7-0.8s-0.2,0.3-0.6,0.8c-0.4,0.5-1,1.3-1.7,2.2c-1.5,1.8-3.6,4.3-6,7
						c-2.4,2.6-4.8,4.9-6.4,6.6c-0.8,0.8-1.5,1.4-2,1.9C99.1,220.3,98.9,220.5,98.8,220.5z"/>
				</g>
			</g>
		</g>
	</g>
</g>
<g id="Background_Simple" class="st2">
	<path class="st3" d="M91.4,31.5c14.3-36.9,56.8-60.5,95.7-53.2c18.3,3.5,37.1,12.9,54.7,6.6c13.7-4.9,22.4-18.2,28.9-31.2
		s12.1-27.1,23-36.7c15-13.3,37.7-15.2,56.5-8.4c15,5.4,28.2,16.2,35.3,30.5c10.1,20.5,6.4,46.1-6.2,65.1s-33.1,31.9-54.7,39.1
		c-31.6,10.4-66.8,9.4-97.8-2.8c-18-7.1-34.6-17.9-53.3-23.2s-41.2-3.7-54.1,10.7c-3.8,4.2-6.6,9.3-10.3,13.6c-3.7,4.3-8.8,8-14.5,8
		s-11.4-5.2-10.3-10.8"/>
	<path class="st3" d="M141.2-80.6c-7.4,2.2-12.8,10.1-12,17.7c0.8,7.7,7.9,14.3,15.7,14.2c7.7,0,14.9-6.9,14.9-14.7
		C159.9-74.3,149-81,141.2-80.6z"/>
</g>
<g id="Floor">
	<g>
		<g>
			<path class="st4" d="M376.7,241.6c0,0.1-74.6,0.2-166.6,0.2s-166.6-0.1-166.6-0.2c0-0.2,74.6-0.2,166.6-0.2
				C302.1,241.5,376.7,241.6,376.7,241.6z"/>
		</g>
	</g>
</g>
<g id="Plant">
	<g>
		<g>
			<g>
				<g>
					<g>
						<g>
							<g>
								<g>
									<g>
										<g>
											<path class="st4" d="M346.5,219.9c0,0,0.1-0.2,0.2-0.4c0.2-0.2,0.3-0.6,0.5-1.1c0.5-0.9,1-2.3,1.4-4.2
												c1-3.8,1.3-9.6-0.2-16.4c-0.7-3.5-1.7-7.1-3-11c-1.3-3.9-2.8-8.1-4-12.6c-1.2-4.5-2.2-9.4-2-14.4
												c0.2-5.1,1.7-10.2,3.4-15.3c1.7-5.1,3.4-10.1,3.9-15c0.6-5-0.5-9.9-2.8-13.9c-2.2-4.1-5-7.6-7-11.1
												c-2.1-3.6-3.4-7.3-4.2-10.7c-1.6-6.9-1.1-12.7-0.3-16.6c0.8-3.9,1.7-5.8,1.7-5.8s0,0.2-0.1,0.4c-0.1,0.3-0.2,0.7-0.4,1.1
												c-0.3,1-0.7,2.5-1.1,4.4c-0.7,3.9-1.2,9.6,0.5,16.5c0.8,3.4,2.1,7,4.2,10.6c2,3.6,4.8,7,7.1,11.1
												c2.3,4.1,3.5,9.1,2.9,14.2c-0.5,5.1-2.3,10.1-3.9,15.2c-1.7,5.1-3.2,10.1-3.3,15.1c-0.2,5,0.8,9.8,2,14.3
												c1.2,4.5,2.7,8.6,3.9,12.6c1.3,3.9,2.3,7.6,3,11.1c1.4,7,1,12.8-0.1,16.6c-0.5,1.9-1.1,3.3-1.6,4.2
												c-0.2,0.5-0.4,0.8-0.5,1.1C346.6,219.9,346.5,219.9,346.5,219.9z"/>
										</g>
									</g>
								</g>
							</g>
						</g>
					</g>
				</g>
				<g>
					<g>
						<g>
							<g>
								<g>
									<g>
										<g>
											<path class="st5" d="M339.7,107.9c0,0-4.2-13.5,3.3-21.4c0.3-0.3,0.8-0.2,0.8,0.2C344.4,89,344.8,95.7,339.7,107.9z"/>
										</g>
									</g>
								</g>
							</g>
						</g>
					</g>
					<g>
						<g>
							<g>
								<g>
									<g>
										<g>
											<g>
												<path class="st4" d="M342.3,91c0.1,0-0.1,1-0.3,2.5c-0.3,1.7-0.6,3.7-1,6c-0.4,2.2-0.7,4.2-0.9,6
													c-0.2,1.5-0.4,2.5-0.5,2.5s-0.1-1,0.1-2.5c0.2-1.5,0.4-3.6,0.8-6s0.8-4.4,1.1-5.9C342,91.9,342.2,90.9,342.3,91z"/>
											</g>
										</g>
									</g>
								</g>
							</g>
						</g>
					</g>
				</g>
				<g>
					<g>
						<g>
							<g>
								<g>
									<g>
										<g>
											<path class="st5" d="M344.7,139.6c0,0,2.6-13.9,12.9-17.3c0.4-0.2,0.7,0.2,0.6,0.6C357.6,125,354.9,131.2,344.7,139.6z"
												/>
										</g>
									</g>
								</g>
							</g>
						</g>
					</g>
					<g>
						<g>
							<g>
								<g>
									<g>
										<g>
											<g>
												<path class="st4" d="M354.9,125.9c0.1,0.1-0.5,0.8-1.4,2c-1.1,1.4-2.3,3-3.6,4.8c-1.4,1.8-2.6,3.4-3.6,4.8
													c-0.9,1.2-1.5,2-1.5,2c-0.1,0,0.4-0.9,1.2-2.2c0.8-1.3,2-3,3.5-4.9s2.8-3.6,3.8-4.7
													C354.1,126.5,354.8,125.9,354.9,125.9z"/>
											</g>
										</g>
									</g>
								</g>
							</g>
						</g>
					</g>
				</g>
				<g>
					<g>
						<g>
							<g>
								<g>
									<g>
										<g>
											<path class="st5" d="M341.9,174.5c0,0-1.6-14.1,7.3-20.3c0.3-0.2,0.8,0,0.8,0.4C350,156.8,349.2,163.5,341.9,174.5z"/>
										</g>
									</g>
								</g>
							</g>
						</g>
					</g>
					<g>
						<g>
							<g>
								<g>
									<g>
										<g>
											<g>
												<path class="st4" d="M347.6,158.4c0.1,0-0.2,0.9-0.8,2.4c-0.6,1.7-1.3,3.6-2,5.7s-1.4,4-2,5.7c-0.5,1.4-0.8,2.3-0.9,2.3
													s0.2-1,0.5-2.4c0.5-1.5,1.1-3.5,1.9-5.7c0.8-2.2,1.6-4.2,2.2-5.6C347.2,159.2,347.5,158.3,347.6,158.4z"/>
											</g>
										</g>
									</g>
								</g>
							</g>
						</g>
					</g>
				</g>
				<g>
					<g>
						<g>
							<g>
								<g>
									<g>
										<g>
											<path class="st5" d="M349.7,209.5c0,0-1.1-14.1,8.1-20c0.3-0.2,0.8,0,0.8,0.4C358.4,192.1,357.4,198.8,349.7,209.5z"/>
										</g>
									</g>
								</g>
							</g>
						</g>
					</g>
					<g>
						<g>
							<g>
								<g>
									<g>
										<g>
											<g>
												<path class="st4" d="M356,193.6c0.1,0-0.3,0.9-0.8,2.3c-0.7,1.6-1.4,3.5-2.3,5.6c-0.8,2.1-1.6,4-2.3,5.6
													c-0.6,1.4-0.9,2.3-1,2.3c-0.1,0,0.2-1,0.6-2.4c0.5-1.4,1.2-3.5,2.1-5.7s1.7-4.2,2.4-5.5S355.9,193.6,356,193.6z"/>
											</g>
										</g>
									</g>
								</g>
							</g>
						</g>
					</g>
				</g>
				<g>
					<g>
						<g>
							<g>
								<g>
									<g>
										<g>
											<path class="st5" d="M333.7,96c0,0-12.6-6.5-12.8-17.5c0-0.4,0.4-0.6,0.8-0.4C323.6,79.4,328.7,83.8,333.7,96z"/>
										</g>
									</g>
								</g>
							</g>
						</g>
					</g>
					<g>
						<g>
							<g>
								<g>
									<g>
										<g>
											<g>
												<path class="st4" d="M323.6,82.3c0.1-0.1,0.7,0.7,1.6,2c1,1.4,2.2,3,3.6,4.9c1.3,1.8,2.5,3.5,3.6,4.8
													c0.9,1.2,1.5,2,1.4,2s-0.8-0.6-1.7-1.8c-1-1.2-2.3-2.9-3.7-4.8c-1.4-1.9-2.6-3.7-3.4-5
													C323.9,83.1,323.5,82.3,323.6,82.3z"/>
											</g>
										</g>
									</g>
								</g>
							</g>
						</g>
					</g>
				</g>
				<g>
					<g>
						<g>
							<g>
								<g>
									<g>
										<g>
											<path class="st5" d="M347.2,125c0,0-12.9-5.7-13.8-16.6c0-0.4,0.4-0.7,0.7-0.5C336,109,341.4,113.2,347.2,125z"/>
										</g>
									</g>
								</g>
							</g>
						</g>
					</g>
					<g>
						<g>
							<g>
								<g>
									<g>
										<g>
											<g>
												<path class="st4" d="M336.2,111.9c0.1-0.1,0.7,0.7,1.7,1.9c1.1,1.4,2.4,2.9,3.8,4.7c1.4,1.7,2.7,3.3,3.9,4.6
													c1,1.2,1.6,1.9,1.5,2c-0.1,0.1-0.8-0.6-1.8-1.7c-1.1-1.1-2.5-2.7-3.9-4.5c-1.5-1.8-2.8-3.5-3.7-4.8
													C336.6,112.7,336.1,111.9,336.2,111.9z"/>
											</g>
										</g>
									</g>
								</g>
							</g>
						</g>
					</g>
				</g>
				<g>
					<g>
						<g>
							<g>
								<g>
									<g>
										<g>
											<path class="st5" d="M339.7,157.2c0,0-8.8-11-4.7-21.1c0.2-0.4,0.6-0.4,0.8-0.1C337,138,340,144.1,339.7,157.2z"/>
										</g>
									</g>
								</g>
							</g>
						</g>
					</g>
					<g>
						<g>
							<g>
								<g>
									<g>
										<g>
											<g>
												<path class="st4" d="M335.9,140.6c0.1,0,0.3,0.9,0.7,2.4c0.4,1.7,0.8,3.7,1.3,5.9c0.5,2.2,0.9,4.2,1.3,5.9
													c0.4,1.5,0.5,2.4,0.5,2.4s-0.4-0.9-0.8-2.3c-0.5-1.5-1-3.6-1.4-5.8c-0.5-2.3-0.9-4.4-1.1-5.9
													C336,141.6,335.8,140.6,335.9,140.6z"/>
											</g>
										</g>
									</g>
								</g>
							</g>
						</g>
					</g>
				</g>
				<g>
					<g>
						<g>
							<g>
								<g>
									<g>
										<g>
											<path class="st5" d="M348.5,195.2c0,0-12.8-6-13.5-16.9c0-0.4,0.4-0.6,0.7-0.5C337.6,179.1,343,183.3,348.5,195.2z"/>
										</g>
									</g>
								</g>
							</g>
						</g>
					</g>
					<g>
						<g>
							<g>
								<g>
									<g>
										<g>
											<g>
												<path class="st4" d="M337.8,182c0.1-0.1,0.7,0.7,1.7,1.9c1.1,1.4,2.3,2.9,3.7,4.7c1.4,1.7,2.6,3.3,3.8,4.7
													c1,1.2,1.6,2,1.5,2c-0.1,0.1-0.8-0.6-1.8-1.7c-1.1-1.1-2.4-2.8-3.9-4.6c-1.4-1.8-2.7-3.6-3.6-4.8
													C338.2,182.8,337.7,182,337.8,182z"/>
											</g>
										</g>
									</g>
								</g>
							</g>
						</g>
					</g>
				</g>
				<g>
					<g>
						<g>
							<g>
								<g>
									<g>
										<g>
											<g>
												<path class="st4" d="M374,139.7c0,0,0,0.1,0,0.3c0,0.2,0,0.5,0,0.9c0,0.8-0.1,2-0.2,3.4c-0.2,3-0.4,7.2-0.7,12.2l0,0
													l0,0c-0.9,5.1-3.5,10.7-7,16.3c-2.6,4.1-5.2,7.7-7.6,11.2c-2.3,3.4-4.3,6.6-5.7,9.4c-1.4,2.8-2.2,5.2-2.6,6.9
													c-0.2,0.8-0.4,1.5-0.5,2c-0.1,0.5-0.2,0.7-0.2,0.7s0-0.2,0.1-0.7c0.1-0.5,0.2-1.1,0.4-2c0.4-1.7,1.1-4.2,2.5-7
													c1.4-2.9,3.3-6,5.6-9.5c2.3-3.5,5-7.1,7.6-11.2c3.5-5.4,6-11,7-16.1l0,0c0.4-5,0.7-9.2,0.8-12.2
													c0.2-1.4,0.2-2.6,0.3-3.4c0-0.4,0.1-0.7,0.1-0.9C373.9,139.8,374,139.7,374,139.7z"/>
											</g>
										</g>
									</g>
								</g>
							</g>
						</g>
					</g>
					<g>
						<g>
							<g>
								<g>
									<g>
										<g>
											<g>
												<path class="st5" d="M366.4,171.8c0,0,5.4-13-1.4-21.6c-0.2-0.3-0.7-0.2-0.8,0.2C363.6,152.6,362.4,159.3,366.4,171.8z"
													/>
											</g>
										</g>
									</g>
								</g>
							</g>
						</g>
						<g>
							<g>
								<g>
									<g>
										<g>
											<g>
												<g>
													<path class="st4" d="M365.4,154.7c0.1,0,0.2,0.9,0.5,2.5c0.2,1.5,0.4,3.6,0.6,6c0.2,2.3,0.2,4.5,0.2,6
														c0,1.5-0.1,2.5-0.2,2.5s-0.2-1-0.2-2.5c-0.2-1.7-0.2-3.8-0.4-6c-0.2-2.3-0.3-4.3-0.5-6
														C365.4,155.7,365.3,154.7,365.4,154.7z"/>
												</g>
											</g>
										</g>
									</g>
								</g>
							</g>
						</g>
						<g class="st6">
							<g>
								<g>
									<g>
										<g>
											<g>
												<path d="M366.4,171.8c0,0,5.4-13-1.4-21.6c-0.2-0.3-0.7-0.2-0.8,0.2C363.6,152.6,362.4,159.3,366.4,171.8z"/>
											</g>
										</g>
									</g>
								</g>
							</g>
						</g>
					</g>
					<g>
						<g>
							<g>
								<g>
									<g>
										<g>
											<g>
												<path class="st5" d="M349.6,203.2c0,0,4.3-13.5-3.2-21.4c-0.2-0.3-0.8-0.2-0.8,0.2C345.2,184.3,344.7,191,349.6,203.2z"
													/>
											</g>
										</g>
									</g>
								</g>
							</g>
						</g>
						<g>
							<g>
								<g>
									<g>
										<g>
											<g>
												<g>
													<path class="st4" d="M347.2,186.4c0.1,0,0.3,0.9,0.6,2.4c0.3,1.5,0.7,3.6,1.1,6s0.6,4.5,0.8,6c0.2,1.5,0.2,2.5,0.1,2.5
														c-0.1,0-0.2-0.9-0.5-2.5c-0.2-1.7-0.5-3.7-0.9-6c-0.3-2.2-0.7-4.2-0.9-6C347.2,187.3,347.2,186.4,347.2,186.4z"/>
												</g>
											</g>
										</g>
									</g>
								</g>
							</g>
						</g>
						<g class="st6">
							<g>
								<g>
									<g>
										<g>
											<g>
												<path d="M349.6,203.2c0,0,4.3-13.5-3.2-21.4c-0.2-0.3-0.8-0.2-0.8,0.2C345.2,184.3,344.7,191,349.6,203.2z"/>
											</g>
										</g>
									</g>
								</g>
							</g>
						</g>
					</g>
					<g>
						<g>
							<g>
								<g>
									<g>
										<g>
											<g>
												<path class="st5" d="M373.2,155.9c0,0,11.6-8.1,10.4-19c-0.1-0.4-0.5-0.5-0.8-0.3C381.2,138.1,376.6,143.2,373.2,155.9z
													"/>
											</g>
										</g>
									</g>
								</g>
							</g>
						</g>
						<g class="st6">
							<g>
								<g>
									<g>
										<g>
											<g>
												<path d="M373.2,155.9c0,0,11.6-8.1,10.4-19c-0.1-0.4-0.5-0.5-0.8-0.3C381.2,138.1,376.6,143.2,373.2,155.9z"/>
											</g>
										</g>
									</g>
								</g>
							</g>
						</g>
						<g>
							<g>
								<g>
									<g>
										<g>
											<g>
												<g>
													<path class="st4" d="M381.6,141c0.1,0-0.3,0.9-1,2.3c-0.7,1.4-1.6,3.3-2.7,5.4c-1.1,2-2.2,3.9-3,5.2
														c-0.8,1.3-1.4,2-1.4,2c-0.1-0.1,0.4-0.9,1.1-2.2c0.8-1.5,1.8-3.3,2.9-5.3s2-3.8,2.9-5.3
														C381,141.7,381.5,140.9,381.6,141z"/>
												</g>
											</g>
										</g>
									</g>
								</g>
							</g>
						</g>
					</g>
					<g>
						<g>
							<g>
								<g>
									<g>
										<g>
											<g>
												<path class="st5" d="M354.3,189.9c0,0,13.9-2.2,17.7-12.5c0.2-0.4-0.2-0.8-0.5-0.6C369.2,177.5,362.9,180,354.3,189.9z"
													/>
											</g>
										</g>
									</g>
								</g>
							</g>
						</g>
						<g class="st6">
							<g>
								<g>
									<g>
										<g>
											<g>
												<path d="M354.3,189.9c0,0,13.9-2.2,17.7-12.5c0.2-0.4-0.2-0.8-0.5-0.6C369.2,177.5,362.9,180,354.3,189.9z"/>
											</g>
										</g>
									</g>
								</g>
							</g>
						</g>
						<g>
							<g>
								<g>
									<g>
										<g>
											<g>
												<g>
													<path class="st4" d="M368.2,180.2c0.1,0.1-0.7,0.7-1.9,1.7c-1.2,1-2.9,2.3-4.8,3.6c-1.9,1.4-3.7,2.6-5,3.3
														c-1.3,0.8-2.2,1.2-2.2,1.2c-0.1-0.1,0.8-0.6,2-1.5c1.4-1,3.1-2.2,4.9-3.5c1.8-1.3,3.5-2.5,4.9-3.5
														C367.4,180.7,368.2,180.2,368.2,180.2z"/>
												</g>
											</g>
										</g>
									</g>
								</g>
							</g>
						</g>
					</g>
				</g>
			</g>
			<g>
				<g>
					<g>
						<g>
							<g>
								<g>
									<polygon class="st7" points="337.8,215.6 341.7,241.9 357.7,241.8 363.1,215.6 									"/>
								</g>
							</g>
						</g>
					</g>
				</g>
			</g>
		</g>
		<g>
			<g>
				<g>
					<g>
						<path class="st4" d="M360.8,225.7c0,0-0.1,0.1-0.2,0.1c-0.1,0.1-0.2,0.2-0.5,0.2c-0.4,0.2-1,0.5-1.8,0.5s-1.8,0.1-2.9-0.3
							c-1.1-0.4-2.3-1.1-3.2-2.3c-0.4-0.6-0.7-1.4-0.8-2.2c-0.1-0.8,0.2-1.8,1.1-2.3c0.8-0.5,1.9-0.3,2.6,0.2
							c0.8,0.5,1.3,1.4,1.5,2.4c0.2,1,0.2,2,0.2,2.9c-0.1,1-0.2,2-0.7,3c-0.4,1-1,1.9-1.9,2.6c-0.8,0.7-1.9,1.2-3.1,1.3
							c-1.1,0.1-2.3-0.4-3.2-0.9c-0.9-0.6-1.7-1.4-2.4-2.2c-0.7-0.8-1.1-1.8-1.2-2.9c-0.1-1.1,0.3-2.1,1.1-2.8
							c0.8-0.7,2-0.6,2.8-0.2c0.8,0.5,1.5,1.2,1.7,2.1c0.3,1.8-0.8,3.4-2,4.2c-1.3,0.8-2.7,0.8-3.9,0.5s-2-0.7-2.7-1.1
							s-1.2-0.8-1.5-1.1c-0.3-0.2-0.5-0.4-0.5-0.5c0,0,0.2,0.1,0.5,0.4c0.4,0.2,0.8,0.6,1.6,1c0.7,0.4,1.6,0.8,2.7,1
							c1.1,0.2,2.4,0.2,3.6-0.6c1.2-0.7,2.1-2.2,1.8-3.8c-0.2-0.8-0.7-1.5-1.4-1.9s-1.7-0.4-2.4,0.2c-0.7,0.5-1,1.5-1,2.4
							c0.1,0.9,0.5,1.9,1.1,2.6c0.6,0.8,1.4,1.5,2.3,2c0.9,0.5,1.9,0.9,2.9,0.8c1.1-0.1,2-0.5,2.8-1.2c0.8-0.7,1.4-1.5,1.7-2.5
							c0.4-0.9,0.5-1.9,0.6-2.9c0.1-1,0-2-0.2-2.9c-0.2-0.9-0.7-1.7-1.4-2.2c-0.7-0.5-1.6-0.6-2.3-0.2s-1,1.2-0.9,1.9
							c0,0.8,0.3,1.4,0.7,2c0.8,1.1,2,1.9,2.9,2.3c1.1,0.4,2,0.5,2.9,0.3C360,226.2,360.8,225.7,360.8,225.7z"/>
					</g>
				</g>
			</g>
		</g>
	</g>
</g>
<g id="Puff">
	<g>
		<g>
			<g>
				<path class="st5" d="M122.3,227.1c-8.2-0.8-34.6-1.4-42.7,0.1c-8.1,1.4-17.5,8.8-20.9,15.5c-3.9,7.4-3.3,21.6,2.9,27.7
					c6.2,6,17.3,4.2,26.5,5.5c9.1,1.3,18.5,0.8,27.8,0.6c58.3-1.5,117.1,6,174.7-2c7.3-1,15.2-2.5,20.3-7.2c5.7-5.2,6.9-13,7.7-20.2
					c0.7-5.7,1.1-11.9-2.6-16.6c-2.5-3-6.5-4.8-10.7-5.6c6.7-8.2,10.1-14.3,10.4-21.3c0.6-12.4-2.6-21.6-3.4-33.9
					c-0.8-12.2-0.8-24.8,2.8-36.6c2.2-7.2,5.4-15.7,0.5-21.4c-2.8-3.3-7.4-4.2-11.7-4.9c-51-8.3-103.1-8.5-154.7-4.8
					c-6.1,0.5-13,1.3-16.9,6c-3.3,3.8-3.7,9.1-3.2,14.1c0.6,4.9,2.2,9.7,2.6,14.7C134,160.2,100.7,200.3,122.3,227.1"/>
			</g>
			<g class="st8">
				<g>
					<path class="st9" d="M122.3,227.1c-8.2-0.8-34.6-1.4-42.7,0.1c-8.1,1.4-17.5,8.8-20.9,15.5c-3.9,7.4-3.3,21.6,2.9,27.7
						c6.2,6,17.3,4.2,26.5,5.5c9.1,1.3,18.5,0.8,27.8,0.6c58.3-1.5,117.1,6,174.7-2c7.3-1,15.2-2.5,20.3-7.2
						c5.7-5.2,6.9-13,7.7-20.2c0.7-5.7,1.1-11.9-2.6-16.6c-2.5-3-6.5-4.8-10.7-5.6c6.7-8.2,10.1-14.3,10.4-21.3
						c0.6-12.4-2.6-21.6-3.4-33.9c-0.8-12.2-0.8-24.8,2.8-36.6c2.2-7.2,5.4-15.7,0.5-21.4c-2.8-3.3-7.4-4.2-11.7-4.9
						c-51-8.3-103.1-8.5-154.7-4.8c-6.1,0.5-13,1.3-16.9,6c-3.3,3.8-3.7,9.1-3.2,14.1c0.6,4.9,2.2,9.7,2.6,14.7
						C134,160.2,100.7,200.3,122.3,227.1"/>
				</g>
			</g>
		</g>
		<g>
			<g>
				<path class="st4" d="M132.9,107.6c0,0,0.9-0.5,2.6-1.3s4.4-1.8,8-2.4s8.1-0.8,13.2-1.1c5.1-0.2,11-0.5,17.5-0.8
					c13-0.5,28.5-0.7,45.7-0.5c17.2,0.2,36.1,0.8,55.9,2c2.5,0.2,4.9,0.3,7.4,0.5c2.4,0.2,4.9,0.3,7.3,0.8c2.3,0.5,4.8,1.2,6.7,2.6
					c1,0.7,1.8,1.6,2.6,2.6c0.7,1,1.2,2,1.6,3.2c0.8,2.3,0.9,4.6,0.8,7c-0.2,2.3-0.8,4.5-1.4,6.7c-0.6,2.2-1.4,4.3-1.9,6.4
					c-0.6,2.1-1.1,4.2-1.5,6.4c-1.7,8.4-2.1,16.6-1.6,24.3c0.2,3.8,0.8,7.5,1.4,11c0.7,3.5,1.5,6.8,2.3,9.9c1.7,6.3,3,12,3.5,17.2
					c0.5,5.1,0,9.7-0.9,13.2c-0.5,1.7-1.1,3.3-1.6,4.5c-0.6,1.3-1.2,2.3-1.7,3.1c-0.3,0.4-0.5,0.8-0.7,1.1c-0.2,0.3-0.4,0.5-0.6,0.7
					c-0.3,0.4-0.5,0.6-0.5,0.6s0.2-0.2,0.5-0.6c0.2-0.2,0.3-0.5,0.5-0.8c0.2-0.3,0.5-0.7,0.7-1.1c0.5-0.8,1.1-1.8,1.7-3.1
					c0.5-1.3,1.1-2.8,1.6-4.5c0.9-3.5,1.4-8,0.8-13.2c-0.5-5.1-1.9-10.9-3.6-17.2c-0.8-3.2-1.7-6.4-2.3-9.9s-1.1-7.2-1.4-11
					c-0.5-7.6-0.2-15.9,1.6-24.3c0.5-2.1,0.9-4.2,1.5-6.4c0.5-2.1,1.3-4.2,1.9-6.4c0.6-2.2,1.1-4.4,1.3-6.7c0.2-2.3,0-4.6-0.8-6.8
					c-0.4-1.1-0.9-2.1-1.5-3.1c-0.7-0.9-1.5-1.7-2.4-2.5c-1.9-1.4-4.2-2.1-6.6-2.6c-2.3-0.5-4.8-0.6-7.3-0.8
					c-2.4-0.2-4.9-0.3-7.4-0.5c-19.8-1.2-38.7-1.8-55.9-2c-17.2-0.2-32.7,0.1-45.7,0.5c-6.5,0.2-12.4,0.5-17.5,0.7
					c-5.1,0.2-9.6,0.4-13.2,1c-3.6,0.6-6.3,1.6-8,2.3c-0.9,0.4-1.5,0.7-2,0.9C133.2,107.4,132.9,107.6,132.9,107.6z"/>
			</g>
		</g>
		<g>
			<g>
				<path class="st4" d="M319.2,251.8c0,0-0.2,0.1-0.7,0.2c-0.5,0.2-1.1,0.3-2,0.5c-1.7,0.5-4.2,1.1-7.5,1.9
					c-1.7,0.4-3.5,0.8-5.4,1.4c-2,0.5-4.2,0.9-6.5,1.4c-4.7,1-10,2.3-15.9,3.3c-2.9,0.5-6,1.1-9.3,1.7c-1.6,0.3-3.3,0.5-5,0.8
					c-1.7,0.2-3.4,0.5-5.1,0.8c-1.7,0.2-3.6,0.5-5.3,0.8c-0.9,0.2-1.8,0.3-2.7,0.4s-1.8,0.2-2.8,0.3c-3.7,0.5-7.6,0.9-11.6,1.4
					c-15.8,1.6-33.3,2.7-51.6,2.9c-18.4,0.1-35.8-0.8-51.6-2.1c-3.9-0.4-7.8-0.8-11.6-1.2c-0.9-0.1-1.9-0.2-2.8-0.3
					s-1.8-0.2-2.7-0.4c-1.8-0.2-3.6-0.5-5.4-0.7c-1.7-0.2-3.5-0.5-5.1-0.7s-3.3-0.5-5-0.7c-3.3-0.5-6.4-1.1-9.3-1.5
					c-6-0.9-11.3-2.1-16-3c-2.3-0.5-4.5-0.9-6.5-1.3c-2-0.5-3.8-0.9-5.4-1.3c-3.3-0.8-5.8-1.4-7.6-1.7c-0.8-0.2-1.5-0.4-2-0.5
					c-0.5-0.1-0.7-0.2-0.7-0.2s0.2,0.1,0.7,0.2c0.5,0.1,1.1,0.2,2,0.5c1.7,0.4,4.3,1,7.6,1.7c1.7,0.4,3.5,0.8,5.4,1.2
					c2,0.5,4.2,0.8,6.5,1.3c4.7,0.9,10,2,16,2.9c2.9,0.5,6,1,9.3,1.5c1.6,0.3,3.3,0.5,5,0.7c1.7,0.2,3.4,0.5,5.1,0.7
					c1.7,0.2,3.6,0.5,5.4,0.7c0.9,0.2,1.8,0.2,2.7,0.4c0.9,0.1,1.8,0.2,2.8,0.3c3.8,0.4,7.6,0.8,11.6,1.1c15.8,1.4,33.3,2.2,51.6,2
					c18.3-0.2,35.8-1.4,51.6-2.9c3.9-0.5,7.8-0.9,11.5-1.4c0.9-0.1,1.9-0.2,2.8-0.3c0.9-0.2,1.8-0.3,2.7-0.4
					c1.8-0.3,3.6-0.5,5.3-0.8c1.7-0.2,3.5-0.5,5.1-0.8c1.7-0.2,3.3-0.5,5-0.8c3.3-0.6,6.4-1.1,9.3-1.7c5.9-1,11.2-2.2,15.9-3.2
					c2.3-0.5,4.5-0.9,6.5-1.4c2-0.5,3.8-0.9,5.4-1.4c3.3-0.8,5.8-1.4,7.5-1.8c0.8-0.2,1.5-0.4,2-0.5
					C318.9,251.8,319.2,251.8,319.2,251.8z"/>
			</g>
		</g>
		<g>
			<g>
				<path class="st4" d="M122.3,227.1c0,0,0.2,0,0.5,0c0.3,0,0.8,0.1,1.4,0.1c1.2,0.1,3,0.2,5.3,0.4c2.3,0.2,5.1,0.4,8.4,0.5
					c3.3,0.2,7,0.5,11.1,0.6c4.1,0.2,8.6,0.4,13.5,0.5c2.4,0.1,4.9,0.2,7.5,0.2c2.6,0.1,5.2,0.1,7.9,0.2c10.9,0.2,22.8,0.1,35.4-0.2
					c25.1-0.6,47.8-1.9,64.2-2.8c8.2-0.5,14.8-0.8,19.4-1.1c2.3-0.2,4.1-0.2,5.3-0.3c0.6,0,1.1-0.1,1.4-0.1s0.5,0,0.5,0
					s-0.2,0-0.5,0.1c-0.3,0-0.8,0.1-1.4,0.1c-1.2,0.1-3,0.2-5.3,0.4c-4.6,0.3-11.3,0.7-19.4,1.2c-16.4,1-39.1,2.3-64.2,2.9
					c-12.6,0.3-24.5,0.3-35.4,0.2c-2.7-0.1-5.4-0.1-7.9-0.2c-2.6-0.1-5.1-0.2-7.5-0.2c-4.8-0.2-9.3-0.4-13.5-0.5
					c-4.1-0.2-7.8-0.5-11.1-0.7c-3.3-0.2-6-0.5-8.4-0.6c-2.3-0.2-4.1-0.3-5.3-0.5c-0.6-0.1-1.1-0.1-1.4-0.2
					C122.5,227.2,122.3,227.1,122.3,227.1z"/>
			</g>
		</g>
		<g>
			<g>
				<path class="st4" d="M269,272.3c-0.2,0-0.3-2.3-1.1-4.9c-0.8-2.6-1.8-4.7-1.7-4.7s0.4,0.5,0.8,1.3c0.4,0.8,0.9,2,1.3,3.3
					c0.4,1.4,0.6,2.6,0.7,3.5C269,271.6,269,272.2,269,272.3z"/>
			</g>
		</g>
		<g>
			<g>
				<path class="st4" d="M275.7,269.1c-0.2,0-0.2-1.9-1-4.1c-0.8-2.2-2-3.6-1.9-3.7s1.4,1.4,2.3,3.6
					C275.9,267.1,275.8,269.2,275.7,269.1z"/>
			</g>
		</g>
		<g>
			<g>
				<path class="st4" d="M292.4,190.7c0-0.2,1.9,0.5,4.1-0.2c2.2-0.5,3.6-2,3.6-1.8c0,0-0.2,0.5-0.8,0.9c-0.6,0.5-1.5,1.1-2.6,1.4
					c-1.1,0.3-2.2,0.3-2.9,0.2C292.9,190.9,292.4,190.7,292.4,190.7z"/>
			</g>
		</g>
		<g>
			<g>
				<path class="st4" d="M292,181.6c0.1-0.1,1.4,0.6,3.2,1c1.7,0.5,3.3,0.5,3.3,0.6c0,0.1-1.5,0.2-3.4-0.2
					C293.2,182.5,292,181.7,292,181.6z"/>
			</g>
		</g>
	</g>
</g>
<g id="Icons">
</g>
<g id="Character">
	<g>
		<g>
			<g>
				<g>
					<path class="st9" d="M239.5,70.7c1.1-2,2.8-3.9,5-4.7s4.8-0.5,6.6,1c1.7,1.5,2.3,4.4,1,6.4c3-0.6,6.3,1.1,7.6,3.9
						c1.3,2.8,0.5,6.4-1.9,8.3c-2.3,1.9-6,2-8.5,0.2c-0.4,1.7-1.6,3.2-3.3,3.9c-1.7,0.6-3.6,0.3-5-0.8c-3.5-2.7-2.6-9.1-6.6-11.2"/>
				</g>
			</g>
			<g>
				<path class="st5" d="M236.8,80.9c2.9-2.9,4.3-7.3,3.6-11.5c-0.1-0.5-0.2-1.1,0-1.7c0.5-0.9,1.8-0.9,2.6-0.3
					c0.8,0.7,1,1.7,1.1,2.7c0.3,2.6,0.1,5.4-0.8,8c-0.4,1-0.8,2-1.5,2.9c-0.7,0.8-1.7,1.4-2.8,1.4C238,82.5,237.1,81.9,236.8,80.9"
					/>
			</g>
			<g>
				<g>
					<g>
						<g>
							<g>
								<g>
									<g>
										<g>
											<g>
												<path class="st9" d="M234.5,41.2c-1.4-4-8.3-7.4-12-9.5c-5.6-3-10.7-2.2-13.8,0.8c-5.8-4.6-13.5-8.9-20.6-6.8
													s-12.7,9.7-11.2,16.9c0.9,4.3,4,8.1,4,12.4c0,3-1.5,5.7-2.6,8.5c-1.1,2.7-2,6-0.8,8.7c1.1,2.6,3.8,4.1,5.3,6.4
													c1.2,1.9,1.6,4.2,2.3,6.4c2.9,7.9,12.5,11.9,20.7,10.3s14.9-8.1,18.5-15.7s4.7-16.1,4.8-24.5"/>
											</g>
										</g>
									</g>
								</g>
							</g>
						</g>
						<g>
							<g>
								<g>
									<g>
										<g>
											<g>
												<g>
													<g>
														<g>
															<g>
																<g>
																	<g>
																		<g>
																			<g>
																				<g>
																					<path class="st10" d="M203.6,39.6C196,38.5,189,44,188.3,51.8c-0.9,9.1-1.7,20.6-0.8,27.7
																						c1.7,13.6,12.1,15.7,12.1,15.7s-0.1,5.1-0.2,11c-0.2,7.9,6,14.5,13.8,15l0,0c8.5,0.5,15.6-6.3,15.6-14.7
																						l-0.3-59.1"/>
																				</g>
																			</g>
																		</g>
																	</g>
																</g>
															</g>
														</g>
													</g>
												</g>
											</g>
											<g>
												<g>
													<g>
														<g>
															<g>
																<g>
																	<g>
																		<g>
																			<g>
																				<g>
																					<path class="st11" d="M199.5,95.1c0,0,9.1,0.7,18.4-4.5c0,0-4.9,9.5-18.5,7.8L199.5,95.1z"/>
																				</g>
																			</g>
																		</g>
																	</g>
																</g>
															</g>
														</g>
													</g>
												</g>
											</g>
										</g>
									</g>
								</g>
								<g>
									<g>
										<g>
											<g>
												<g>
													<g>
														<g>
															<g>
																<g>
																	<g>
																		<path class="st4" d="M208.1,53.1c0.2,0.5,2,0.3,4.2,0.7c2.2,0.3,3.9,1,4.2,0.5c0.2-0.2-0.2-0.7-0.8-1.2
																			c-0.7-0.5-1.8-1-3.1-1.2c-1.3-0.2-2.5,0-3.3,0.3C208.4,52.4,208,52.9,208.1,53.1z"/>
																	</g>
																</g>
															</g>
														</g>
													</g>
												</g>
											</g>
										</g>
									</g>
								</g>
								<g>
									<g>
										<g>
											<g>
												<g>
													<g>
														<g>
															<g>
																<g>
																	<g>
																		<path class="st4" d="M190.8,54.1c0.3,0.5,1.6,0,3.2,0.1c1.6,0,2.9,0.4,3.2-0.1c0.2-0.2-0.1-0.7-0.6-1.1
																			c-0.5-0.5-1.5-0.8-2.6-0.8c-1.1,0-2,0.4-2.6,0.8C190.9,53.5,190.6,54,190.8,54.1z"/>
																	</g>
																</g>
															</g>
														</g>
													</g>
												</g>
											</g>
										</g>
									</g>
								</g>
							</g>
						</g>
						<g>
							<g>
								<g>
									<g>
										<g>
											<g>
												<path class="st11" d="M207.6,68.4c0,0.3,0.2,0.5,0.5,0.5s0.5-0.2,0.5-0.5s-0.2-0.5-0.5-0.5
													C207.8,67.9,207.6,68.1,207.6,68.4z"/>
											</g>
										</g>
									</g>
								</g>
							</g>
						</g>
						<g>
							<g>
								<g>
									<g>
										<g>
											<g>
												<path class="st11" d="M193.5,66.4c0,0.3,0.2,0.5,0.5,0.5s0.5-0.2,0.5-0.5s-0.2-0.5-0.5-0.5
													C193.7,65.9,193.5,66.1,193.5,66.4z"/>
											</g>
										</g>
									</g>
								</g>
							</g>
						</g>
						<g>
							<g>
								<g>
									<g>
										<g>
											<g>
												<path class="st11" d="M190.8,67.8c0,0.3,0.2,0.5,0.5,0.5c0.3,0,0.5-0.2,0.5-0.5s-0.2-0.5-0.5-0.5
													C191,67.3,190.8,67.6,190.8,67.8z"/>
											</g>
										</g>
									</g>
								</g>
							</g>
						</g>
						<g>
							<g>
								<g>
									<g>
										<g>
											<g>
												<path class="st11" d="M189.9,65.7c0,0.3,0.2,0.5,0.5,0.5s0.5-0.2,0.5-0.5s-0.2-0.5-0.5-0.5S189.9,65.5,189.9,65.7z"/>
											</g>
										</g>
									</g>
								</g>
							</g>
						</g>
						<g>
							<g>
								<g>
									<g>
										<g>
											<g>
												<path class="st11" d="M209.9,70.5c0,0.3,0.2,0.5,0.5,0.5s0.5-0.2,0.5-0.5c0-0.3-0.2-0.5-0.5-0.5
													C210.1,70,209.9,70.2,209.9,70.5z"/>
											</g>
										</g>
									</g>
								</g>
							</g>
						</g>
						<g>
							<g>
								<g>
									<g>
										<g>
											<g>
												<path class="st11" d="M211.7,68.5c0,0.3,0.2,0.5,0.5,0.5c0.3,0,0.5-0.2,0.5-0.5s-0.2-0.5-0.5-0.5
													C211.9,67.9,211.7,68.2,211.7,68.5z"/>
											</g>
										</g>
									</g>
								</g>
							</g>
						</g>
						<g>
							<g>
								<g>
									<g>
										<g>
											<g>
												<path class="st9" d="M204.2,37.5c1.6,10.7,9.9,20.2,20.3,23.1c-3.2,4.9-0.8,14-0.6,21.6c0.2,7.1,0.2,9.1,4.9,12.6
													c3.9,0.8,5.7-9.7,8.4-12.7c2.7-3,5.3-6.7,5-10.7c-0.2-1.9-1-3.7-1.1-5.6c-0.2-2.1,0.5-4.2,0.8-6.3
													c1.4-9.2-3.7-18.9-11.9-23.4c-8.2-4.5-18.8-3.9-26.5,1.3"/>
											</g>
										</g>
									</g>
								</g>
							</g>
						</g>
						<g>
							<g>
								<g>
									<g>
										<g>
											<g>
												<g>
													<path class="st7" d="M240.8,64.8c0,0,0.2-0.2,0.3-0.4c0.2-0.3,0.5-0.7,0.6-1.4c0.3-1.2,0.1-3.2-1-5.2
														c-0.5-1.1-1.3-2-2.3-2.9s-2-1.8-3.3-2.6c-1.3-0.8-2.7-1.5-4.3-2s-3.3-0.8-4.9-1.2c-1.7-0.4-3.3-0.8-4.9-1.2
														c-1.5-0.5-3-1.1-4.3-1.7c-2.6-1.3-4.9-2.9-6.6-4.3c-1.7-1.4-2.9-2.8-3.8-3.8c-0.4-0.5-0.7-0.8-0.9-1.1
														c-0.2-0.2-0.3-0.4-0.3-0.4s0.1,0.2,0.3,0.5c0.2,0.3,0.5,0.7,0.9,1.1c0.8,1,2,2.3,3.7,3.9s3.9,3.1,6.7,4.4
														c1.4,0.7,2.8,1.3,4.4,1.7c1.6,0.5,3.3,0.8,4.9,1.2c1.7,0.4,3.3,0.7,4.9,1.2c1.5,0.5,2.9,1.1,4.2,1.9
														c1.3,0.8,2.3,1.7,3.3,2.6s1.7,1.9,2.3,2.9c1.1,2,1.3,3.9,1.1,5.1C241.4,64.2,240.8,64.8,240.8,64.8z"/>
												</g>
											</g>
										</g>
									</g>
								</g>
							</g>
						</g>
						<g>
							<g>
								<g>
									<g>
										<g>
											<g>
												<g>
													<path class="st7" d="M205.2,36.5c0,0,0.1,0.2,0.3,0.3c0.2,0.2,0.5,0.5,0.9,0.9c0.8,0.8,2,1.8,3.6,3
														c1.6,1.1,3.6,2.5,6,3.4c1.2,0.5,2.6,0.7,4,0.9c1.4,0.2,2.9,0.4,4.3,0.6c2.9,0.3,5.8,0.7,8.3,1.4c2.5,0.8,4.5,1.9,6,3.1
														c1.5,1.2,2.5,2.5,3,3.5c0.2,0.5,0.5,0.8,0.5,1.1s0.2,0.4,0.2,0.4s0-0.2-0.2-0.5c-0.1-0.3-0.2-0.7-0.5-1.2
														c-0.5-1-1.4-2.3-2.9-3.6c-1.5-1.3-3.6-2.4-6.1-3.2c-2.5-0.8-5.4-1.1-8.3-1.5c-1.5-0.2-2.9-0.4-4.3-0.5
														c-1.4-0.2-2.7-0.5-3.9-0.9c-2.4-0.8-4.4-2.1-6-3.3c-1.6-1.1-2.8-2.2-3.6-2.9c-0.4-0.4-0.7-0.6-0.9-0.8
														C205.3,36.6,205.2,36.5,205.2,36.5z"/>
												</g>
											</g>
										</g>
									</g>
								</g>
							</g>
						</g>
						<g>
							<g>
								<g>
									<g>
										<g>
											<g>
												<g>
													<path class="st7" d="M189.6,25.2c0,0.1,1.1,0.1,3,0.5c0.5,0.1,1,0.2,1.4,0.5c0.5,0.2,1.1,0.4,1.7,0.6
														c1.1,0.5,2.3,1.2,3.5,2c1.1,0.8,2.1,1.8,2.9,2.7c0.4,0.5,0.8,0.9,1.1,1.4c0.3,0.5,0.6,0.9,0.8,1.3
														c0.9,1.6,1.3,2.7,1.4,2.7c0,0-0.1-0.3-0.2-0.8c-0.1-0.2-0.2-0.5-0.4-0.9c-0.2-0.3-0.3-0.8-0.5-1.1s-0.5-0.8-0.8-1.3
														c-0.3-0.5-0.7-0.9-1.1-1.4c-0.8-1-1.8-1.9-2.9-2.8c-1.1-0.8-2.3-1.5-3.6-2c-0.6-0.2-1.1-0.5-1.7-0.6s-1.1-0.3-1.5-0.4
														c-0.5-0.2-0.9-0.2-1.3-0.2c-0.4-0.1-0.7-0.1-1-0.1C189.9,25.1,189.6,25.1,189.6,25.2z"/>
												</g>
											</g>
										</g>
									</g>
								</g>
							</g>
						</g>
						<g>
							<g>
								<g>
									<g>
										<g>
											<g>
												<g>
													<path class="st7" d="M181.8,77c0,0,0-0.1-0.1-0.2c-0.1-0.1-0.2-0.2-0.3-0.3c-0.2-0.3-0.7-0.7-1.1-1.3
														c-0.5-0.6-1-1.3-1.3-2.3c-0.2-0.5-0.2-1.1-0.2-1.6c0.1-0.6,0.2-1.1,0.5-1.7c0.6-1.1,1.7-2.1,2.6-3.4
														c0.9-1.2,1.7-2.6,2.4-4.3c0.7-1.6,1.1-3.4,1.3-5.3c0.2-1.9,0.1-3.9-0.1-5.8c-0.1-2-0.1-3.9,0.3-5.7
														c0.5-1.8,1.4-3.4,2.4-4.7c1.1-1.3,2.4-2.3,3.8-2.9s2.8-1,4.1-1.1c2.6-0.2,4.7,0.5,6,1.1c0.7,0.3,1.1,0.6,1.4,0.8
														c0.2,0.1,0.3,0.2,0.4,0.2c0.1,0.1,0.2,0.1,0.2,0.1s-0.6-0.6-1.9-1.2c-1.3-0.7-3.4-1.4-6-1.2c-1.3,0.1-2.7,0.4-4.2,1.1
														c-1.4,0.7-2.8,1.7-3.9,3c-1.1,1.3-2,2.9-2.5,4.8c-0.5,1.9-0.5,3.9-0.4,5.8c0.1,2,0.2,3.9,0.1,5.7
														c-0.2,1.9-0.6,3.6-1.3,5.2c-0.6,1.6-1.4,3-2.3,4.2s-2,2.3-2.6,3.4c-0.3,0.6-0.5,1.2-0.5,1.8c-0.1,0.6,0.1,1.2,0.2,1.7
														c0.3,1,0.9,1.7,1.4,2.3c0.5,0.5,0.9,1,1.1,1.2c0.2,0.2,0.2,0.2,0.3,0.3C181.7,77,181.8,77,181.8,77z"/>
												</g>
											</g>
										</g>
									</g>
								</g>
							</g>
						</g>
						<g>
							<g>
								<g>
									<g>
										<g>
											<g>
												<g>
													<path class="st4" d="M240.2,65.6c0,0,0.1,0,0.2-0.1s0.2-0.2,0.4-0.2c0.4-0.2,0.8-0.5,1.4-1.1c1.1-1,2.7-2.8,3.6-5.4
														c0.9-2.6,0.9-6.3-0.8-9.6c-0.8-1.7-2.2-3.2-3.9-4.4c-1.7-1.2-3.6-2-5.7-2.6c-2-0.5-4.2-0.8-6.2-0.9
														c-2-0.2-3.9-0.2-5.8-0.2c-1.8-0.1-3.6-0.2-5.2-0.4c-1.6-0.2-3.1-0.6-4.4-1.1c-2.6-0.9-4.5-2.2-5.7-3.3
														c-0.5-0.5-1-1-1.2-1.4c-0.2-0.2-0.2-0.3-0.3-0.4c-0.1-0.1-0.1-0.2-0.1-0.2s0.4,0.8,1.5,1.9c1.1,1.1,3,2.5,5.7,3.4
														c1.3,0.5,2.8,0.8,4.5,1.1c1.7,0.2,3.4,0.4,5.2,0.5c3.7,0.2,7.8,0.1,11.9,1.1c2,0.5,4,1.4,5.6,2.5
														c1.7,1.1,2.9,2.6,3.8,4.2c1.7,3.3,1.7,6.8,0.9,9.4c-0.8,2.6-2.4,4.4-3.6,5.4c-0.6,0.5-1.1,0.9-1.4,1.1
														c-0.2,0.1-0.3,0.2-0.4,0.2C240.2,65.5,240.2,65.6,240.2,65.6z"/>
												</g>
											</g>
										</g>
									</g>
								</g>
							</g>
						</g>
					</g>
				</g>
			</g>
			<g>
				<g>
					<g>
						<g>
							<g>
								<g>
									<g>
										<g>
											<g>
												<path class="st4" d="M190.8,62.5c0.2,0.2,1.5-0.7,3.4-0.7s3.3,1,3.4,0.8c0.1-0.1-0.1-0.5-0.7-1
													c-0.6-0.5-1.6-0.9-2.7-0.9s-2.1,0.4-2.7,0.8C190.9,62,190.7,62.3,190.8,62.5z"/>
											</g>
										</g>
									</g>
								</g>
							</g>
						</g>
					</g>
				</g>
			</g>
			<g>
				<g>
					<g>
						<g>
							<g>
								<g>
									<g>
										<g>
											<g>
												<path class="st4" d="M209.8,62.8c0.2,0.2,1.5-0.7,3.4-0.7s3.3,1,3.4,0.8c0.1-0.1-0.1-0.5-0.7-1s-1.6-0.9-2.7-0.9
													s-2.1,0.4-2.7,0.8C210,62.3,209.8,62.6,209.8,62.8z"/>
											</g>
										</g>
									</g>
								</g>
							</g>
						</g>
					</g>
				</g>
			</g>
			<g>
				<g>
					<g>
						<g>
							<g>
								<g>
									<g>
										<g>
											<path class="st4" d="M202.8,74c0-0.1-1.1-0.3-3-0.6c-0.5-0.1-0.9-0.2-1-0.5c-0.1-0.4,0.1-0.8,0.4-1.4
												c0.5-1.1,1-2.3,1.5-3.6c2-5.1,3.6-9.4,3.3-9.5s-2,4-4.1,9.1c-0.5,1.3-1,2.5-1.4,3.6c-0.2,0.5-0.5,1.1-0.3,1.9
												c0.2,0.4,0.5,0.6,0.8,0.7s0.6,0.1,0.8,0.2C201.7,74.1,202.8,74.1,202.8,74z"/>
										</g>
									</g>
								</g>
							</g>
						</g>
					</g>
				</g>
			</g>
			<g>
				<g>
					<g>
						<g>
							<g>
								<g>
									<g>
										<path class="st11" d="M203.5,78.5c0.7-0.9,1.9-1.4,3-1.2c0.8,0.1,1.6,0.5,2.1,1.2c0.5,0.7,0.5,1.6,0.1,2.2
											c-0.5,0.7-1.6,0.8-2.5,0.6c-0.9-0.3-1.7-0.9-2.3-1.4c-0.2-0.2-0.4-0.3-0.5-0.5c-0.2-0.2-0.2-0.5,0-0.7"/>
									</g>
								</g>
							</g>
						</g>
					</g>
				</g>
			</g>
			<g>
				<g>
					<g>
						<g>
							<g>
								<g>
									<g>
										<g>
											<path class="st4" d="M208.2,75.4c-0.3,0-0.4,2-2.1,3.4c-1.7,1.4-3.9,1.1-3.9,1.4c0,0.2,0.5,0.4,1.4,0.5s2.2-0.2,3.3-1.1
												s1.6-2,1.7-2.9C208.6,76,208.4,75.4,208.2,75.4z"/>
										</g>
									</g>
								</g>
							</g>
						</g>
					</g>
				</g>
			</g>
		</g>
		<g>
			<g>
				<path class="st4" d="M192.5,202l-20.7,7l-1.7,5.1c0,0-57.8-20.8-61.9-23c-4.1-2.2-25.2-7-32.1,10.3
					c-5.9,14.6,5.7,29.2,24.3,37.4c18.6,8.2,54.6,11.7,54.6,11.7l23.7,4.1l52.5,0.7c15.5,0.2,30.3-6.5,40.4-18.3
					c8.2-9.6,16.8-20.6,18.5-26.2c3.2-11,0.3-25.4-16.2-26.8s-43.3,17.5-43.3,17.5l-10.1-2.8L192.5,202z"/>
			</g>
			<g>
				<g>
					<path class="st7" d="M190.9,235.7c0,0,0-0.2,0.1-0.4c0.1-0.2,0.1-0.6-0.2-1.1c-0.4-0.8-1.7-1.7-3.5-2.1l0,0l0,0
						c-3.6-1.4-8.9-3.7-15.3-6.8c-6.4-3.1-13.7-7.1-21.6-11.3c-5.7-3-11.1-6-16.2-8.4c-5.1-2.4-9.6-4.5-13.5-6
						c-1-0.4-1.9-0.8-2.8-1.1c-0.9-0.3-1.7-0.6-2.5-0.9s-1.5-0.5-2.2-0.8c-0.7-0.2-1.3-0.5-1.9-0.6c-1.1-0.4-2-0.7-2.6-0.8
						c-0.3-0.1-0.5-0.2-0.7-0.2c-0.2-0.1-0.2-0.1-0.2-0.1s0.1,0,0.2,0.1c0.2,0.1,0.4,0.1,0.7,0.2c0.6,0.2,1.5,0.5,2.6,0.8
						c0.6,0.2,1.2,0.4,1.9,0.6c0.7,0.2,1.4,0.5,2.2,0.8c0.8,0.3,1.7,0.6,2.6,0.9c0.9,0.3,1.8,0.7,2.8,1.1c3.9,1.5,8.5,3.6,13.6,6
						c5.1,2.4,10.5,5.3,16.2,8.4c7.9,4.2,15.2,8.2,21.6,11.4c6.4,3.2,11.6,5.4,15.2,7l0,0c1.8,0.5,3.1,1.3,3.5,2.3
						c0.2,0.5,0.2,0.8,0.1,1.1C190.9,235.5,190.9,235.7,190.9,235.7z"/>
				</g>
			</g>
			<g>
				<g>
					<path class="st7" d="M268.1,187.8c0,0-0.1,0-0.2,0.1c-0.2,0-0.4,0.1-0.7,0.1c-0.6,0.1-1.5,0.2-2.6,0.5c-2.3,0.5-5.4,1.6-9,3.8
						c-1.8,1.1-3.6,2.3-5.5,3.9s-3.8,3.3-5.7,5.2c-3.7,4-7.9,8.3-12.7,12.5c-2.3,2.1-4.8,4.1-7.2,5.8c-2.4,1.7-4.8,3.3-7.5,4.2
						c-2.6,0.8-5.2,1.1-7.6,1.5c-2.4,0.4-4.6,0.8-6.6,1.4c-2,0.7-3.6,1.4-5,2.3s-2.3,2-2.8,3c-0.5,1-0.7,1.9-0.8,2.5
						c0,0.3,0,0.5,0,0.7c0,0.2,0,0.2,0,0.2s0-0.1,0-0.2c0-0.2,0-0.4,0-0.7c0.1-0.6,0.2-1.5,0.7-2.6c0.5-1.1,1.4-2.2,2.8-3.1
						c1.4-1,3.1-1.8,5.1-2.5c2-0.7,4.2-1.1,6.7-1.4s5-0.7,7.6-1.6s5-2.5,7.3-4.2c2.4-1.7,4.8-3.7,7.1-5.8c4.7-4.2,9-8.4,12.7-12.5
						c1.9-2,3.9-3.7,5.7-5.2c1.9-1.5,3.8-2.8,5.6-3.9c3.6-2.1,6.8-3.3,9.1-3.6c1.1-0.3,2-0.3,2.6-0.4c0.3,0,0.5,0,0.7-0.1
						C268.1,187.8,268.1,187.8,268.1,187.8z"/>
				</g>
			</g>
			<g>
				<g>
					<path class="st7" d="M196.4,229.5c0,0-0.2-0.3-0.4-1c-0.2-0.3-0.2-0.7-0.3-1.2c-0.1-0.5-0.2-1-0.2-1.6
						c-0.2-1.2-0.2-2.6-0.2-4.2c0.1-1.6,0.2-3.3,0.5-5.1c0.5-3.6,1.4-6.7,2.3-8.9c0.2-0.5,0.5-1.1,0.7-1.4c0.2-0.4,0.5-0.8,0.6-1.1
						c0.4-0.5,0.6-0.8,0.7-0.8c0,0-0.2,0.3-0.5,0.9c-0.2,0.3-0.3,0.7-0.5,1.1c-0.2,0.4-0.4,0.9-0.6,1.4c-0.8,2.2-1.7,5.4-2.1,8.9
						c-0.2,1.7-0.4,3.5-0.5,5.1c0,1.6,0,2.9,0.1,4.1C196,228,196.4,229.4,196.4,229.5z"/>
				</g>
			</g>
			<g>
				<g>
					<g>
						<g>
							<g>
								<g>
									<g>
										<path class="st5" d="M190.9,235.7c0,0,39.1,9.8,40.7,10.4c2.3,0.8,2.2,9.4-1.5,9.3c-1.7,0-29.8,1.7-33.3,1.6
											c-3.6-0.2-13.2-3.7-13.2-3.7l5.9-14L190.9,235.7z"/>
									</g>
								</g>
							</g>
						</g>
					</g>
					<g>
						<g>
							<g>
								<g>
									<g>
										<g>
											<path class="st4" d="M207.4,250.1c0.2,0,0.4-2,1.6-4.2c1.2-2.2,2.8-3.5,2.6-3.6c-0.1-0.2-2,1-3.3,3.3
												C207.2,247.9,207.3,250.1,207.4,250.1z"/>
										</g>
									</g>
								</g>
							</g>
						</g>
					</g>
					<g>
						<g>
							<g>
								<g>
									<g>
										<g>
											<path class="st4" d="M203.3,248.4c0.2,0,0.5-1.8,1.5-3.9c1-2,2.2-3.5,2-3.6c-0.1-0.2-1.6,1.2-2.6,3.3
												C203.3,246.4,203.2,248.4,203.3,248.4z"/>
										</g>
									</g>
								</g>
							</g>
						</g>
					</g>
					<g>
						<g>
							<g>
								<g>
									<g>
										<g>
											<path class="st4" d="M199.5,247.4c0.2,0,0-2,0.8-4.2c0.8-2.2,2.2-3.6,2-3.7c-0.1-0.2-1.8,1.1-2.6,3.5
												C198.9,245.4,199.3,247.5,199.5,247.4z"/>
										</g>
									</g>
								</g>
							</g>
						</g>
					</g>
					<g>
						<g>
							<g>
								<g>
									<g>
										<g>
											<path class="st4" d="M200.1,242.4c0.1,0,0.4-1.1,0.4-2.9c0-0.9-0.2-2-0.5-3.2c-0.2-0.6-0.4-1.2-0.6-1.8
												c-0.2-0.3-0.3-0.7-0.7-0.9c-0.4-0.3-1.1-0.2-1.4,0.1c-0.4,0.3-0.5,0.8-0.5,1.1c0,0.4-0.1,0.7,0,1.1
												c0,0.7,0.2,1.3,0.3,1.9c0.3,1.2,0.8,2.2,1.3,2.9c0.9,1.6,1.7,2.3,1.8,2.3c0.1-0.1-0.6-1-1.4-2.5
												c-0.4-0.8-0.8-1.7-1.1-2.9c-0.2-0.5-0.2-1.1-0.2-1.7s0-1.4,0.3-1.7c0.2-0.2,0.4-0.2,0.5-0.1c0.2,0.2,0.3,0.4,0.5,0.7
												c0.2,0.6,0.5,1.1,0.6,1.7c0.3,1.1,0.5,2.1,0.6,3C200.2,241.3,200,242.4,200.1,242.4z"/>
										</g>
									</g>
								</g>
							</g>
						</g>
					</g>
					<g>
						<g>
							<g>
								<g>
									<g>
										<g>
											<path class="st4" d="M200,242c0-0.1-0.9-0.4-2.5-0.4c-0.8,0-1.7,0.2-2.7,0.4c-0.5,0.2-1.1,0.3-1.6,0.6s-1.1,1.1-0.8,1.8
												c0.2,0.7,0.8,1.2,1.4,1.4c0.6,0.2,1.2,0.1,1.7-0.1c1.1-0.3,1.9-0.8,2.5-1.3c1.2-1,1.8-1.7,1.7-1.8
												c-0.1-0.1-0.8,0.6-2,1.4c-0.6,0.5-1.4,0.9-2.3,1.1c-0.5,0.1-1,0.2-1.4,0c-0.5-0.2-0.8-0.5-1-0.9s0.2-0.8,0.5-1.1
												c0.4-0.3,0.9-0.5,1.4-0.6c1-0.3,1.8-0.5,2.6-0.5C199,241.9,200,242.1,200,242z"/>
										</g>
									</g>
								</g>
							</g>
						</g>
					</g>
					<g>
						<g>
							<g>
								<g>
									<g>
										<g>
											<path class="st4" d="M213.4,250.4c0.2,0,0-1.7,0.7-3.6c0.7-1.8,2-2.9,1.8-3.1c-0.1-0.2-1.7,0.8-2.4,2.9
												C212.7,248.7,213.2,250.5,213.4,250.4z"/>
										</g>
									</g>
								</g>
							</g>
						</g>
					</g>
					<g>
						<g>
							<g>
								<g>
									<g>
										<g>
											<path class="st4" d="M186.3,252.7c0,0.1,0.5,0.3,1.5,0.7c1,0.4,2.5,0.8,4.4,1.2c3.7,0.8,9.1,1.3,14.8,1.1
												c5.8-0.2,11-0.6,14.8-0.8c1.8-0.2,3.3-0.2,4.5-0.4c1.1-0.1,1.7-0.2,1.7-0.2c0-0.1-0.6-0.1-1.7-0.1
												c-1.2,0-2.7,0.1-4.5,0.2c-3.9,0.2-9.1,0.4-14.8,0.6c-5.8,0.2-11-0.2-14.7-0.8C188.6,253.6,186.4,252.7,186.3,252.7z"/>
										</g>
									</g>
								</g>
							</g>
						</g>
					</g>
					<g>
						<g>
							<g>
								<g>
									<g>
										<g>
											<path class="st4" d="M185.2,253.7c0.1,0.1,1.1-0.5,2.9-1.4c1.7-0.8,4.4-1.7,7.3-1.4c2.9,0.4,5.1,2.3,6.4,3.6
												c1.4,1.4,2.2,2.3,2.3,2.3c0.1-0.1-0.6-1.1-2-2.6c-0.7-0.8-1.5-1.6-2.6-2.3c-1.1-0.8-2.5-1.4-4.1-1.6
												c-3.2-0.4-5.9,0.7-7.6,1.6C186.1,252.8,185.2,253.7,185.2,253.7z"/>
										</g>
									</g>
								</g>
							</g>
						</g>
					</g>
				</g>
				<g>
					<g>
						<g>
							<path class="st4" d="M224.2,254.5c0.1-0.1-0.3-0.5-0.6-1.4c-0.3-0.9-0.6-2.2-0.4-3.6s0.9-2.6,1.5-3.3
								c0.6-0.8,1.1-1.1,1.1-1.2c0-0.1-0.6,0.2-1.3,1c-0.7,0.7-1.5,2-1.7,3.5s0.1,2.9,0.5,3.9C223.7,254.1,224.1,254.5,224.2,254.5z
								"/>
						</g>
					</g>
				</g>
			</g>
			<g>
				<g>
					<path class="st7" d="M282.8,219.8c0,0-0.1,0.2-0.4,0.5c-0.2,0.4-0.6,0.8-1.1,1.4c-0.5,0.6-1,1.4-1.7,2.3
						c-0.7,0.8-1.5,1.8-2.4,2.9c-0.9,1.1-2,2.2-3.1,3.4s-2.4,2.3-3.8,3.6c-2.8,2.4-6,5.1-9.5,7.3c-3.6,2.3-7.2,4.3-10.6,5.8
						c-3.4,1.5-6.6,2.6-9.2,3.4c-1.4,0.4-2.6,0.7-3.7,0.9c-1.1,0.2-2,0.4-2.8,0.5c-0.8,0.1-1.4,0.2-1.8,0.2
						c-0.4,0.1-0.6,0.1-0.6,0.1s0.2-0.1,0.6-0.2c0.5-0.1,1.1-0.2,1.8-0.2c0.8-0.2,1.7-0.4,2.8-0.5c1.1-0.3,2.3-0.5,3.6-1
						c2.7-0.8,5.8-2,9.1-3.5c3.3-1.5,7-3.5,10.5-5.8c3.6-2.3,6.7-4.9,9.5-7.3c1.4-1.3,2.6-2.4,3.8-3.6c1.1-1.2,2.2-2.3,3.1-3.3
						c0.9-1.1,1.7-2,2.4-2.9c0.7-0.8,1.3-1.7,1.7-2.3c0.5-0.6,0.8-1.1,1.1-1.4C282.6,220,282.8,219.8,282.8,219.8z"/>
				</g>
			</g>
			<g>
				<g>
					<path class="st7" d="M183.1,230.8c-0.1,0-0.7-0.9-1.7-2.4s-2.7-3.5-4.7-5.5c-2-2-4-3.6-5.5-4.7c-1.5-1.1-2.5-1.7-2.4-1.7
						c0,0,0.3,0.1,0.8,0.4c0.5,0.2,1.1,0.7,1.9,1.2c1.6,1.1,3.6,2.6,5.6,4.7c2,2,3.6,4.1,4.7,5.6c0.5,0.8,0.9,1.4,1.2,1.9
						C183,230.6,183.1,230.8,183.1,230.8z"/>
				</g>
			</g>
			<g>
				<g>
					<path class="st7" d="M230.2,209.2c0,0.1-0.8,0.6-2.2,1.7c-1.4,1.1-3.1,2.6-4.8,4.5c-1.7,2-2.9,3.9-3.8,5.4
						c-0.8,1.4-1.3,2.4-1.4,2.4c0,0,0.1-0.2,0.2-0.7c0.2-0.5,0.5-1.1,0.8-1.8c0.8-1.5,2-3.6,3.8-5.5c1.7-2,3.6-3.5,4.9-4.5
						c0.7-0.5,1.3-0.8,1.7-1.1C230,209.3,230.2,209.2,230.2,209.2z"/>
				</g>
			</g>
		</g>
		<g>
			<g>
				<path class="st5" d="M240.2,197.2c10.5-8.5,30.4-12.5,30.4-12.5s-1.1-38.5-4.1-56.2c-0.1-0.5-0.2-0.8-0.2-1.3
					c-2.7-13.6-14.8-21.9-28.6-23.7l-9.3-1.3l-27.5,1l-16.8,5.1c0,0-19.9,4.5-22.9,32.4c-3,27.4-6.6,50-6,58.1
					c0.4,5.7,5.7,9.8,8.5,10.4c2.6,0.6,6,1.1,8.8-0.5c-1,1.8-1.7,3.6-1.8,5.3h16.8l13.2-11.6l12,8.6l16.1-6.8l11.1-7.6 M182.7,196.1
					L182.7,196.1c1.9-9.4,2.1-12.1,2.1-12.1s-9.9-1.3-8.3-14.4l1.5-11.4l9.9,33.2C187.9,191.4,185.6,193.2,182.7,196.1z"/>
			</g>
			<g class="st12">
				<g>
					<path d="M217.6,183.3l3.1-7.8c-3.4-1.4-4.6-1.5-8.3-2c-9.8-1.2-20,1.5-28.1,7.3l2,5.8l0,0l0,0l0,0l0,0h0.1
						c1.3,0.5,3.4,0.4,4.6,0.1c1.3-0.3,2.6-0.7,3.9-0.3c1.7,0.5,2.9,1.9,4.4,2.7c3,1.7,7.4,0.5,9.1-2.6c0.7-1.3,1.4-3.1,2.8-3
						c0.8,0,1.3,0.5,1.9,1c1.7,1.5,3.5,3,5.2,4.6c2.1,1.8,4.2,3.7,6.4,5.4c2.6,2,5.7,3.7,8.9,3.6c3.3-0.1,3.4-3.3,3.4-3.3
						L217.6,183.3z"/>
				</g>
			</g>
			<g>
				<path class="st10" d="M199.5,102.4l-0.5,7.9c-0.2,2.7,0.2,5.5,1.2,8l9.7,25.3c0,0-1.5-14.7,4.8-20.2c6.2-5.4,14.1-4.9,14.1-13.3
					c0-1.4,0-10.6,0-10.6l-13.4-2.6L199.5,102.4z"/>
			</g>
			<g>
				<g>
					<path class="st4" d="M249,106.5c0,0-0.2,0.1-0.5,0.3c-0.4,0.2-0.8,0.5-1.4,0.8c-1.2,0.8-2.7,2.2-4.1,4.4
						c-1.4,2.2-2.5,5.1-2.6,8.5c-0.1,1.7,0.1,3.5,0.2,5.3c0.2,1.8,0.4,3.8,0.5,5.7c0.8,7.8,1.7,14.9,2.3,20c0.3,2.6,0.6,4.6,0.8,6
						c0.1,0.7,0.2,1.2,0.2,1.7c0.1,0.4,0.1,0.6,0.1,0.6s-0.1-0.2-0.2-0.5c-0.1-0.4-0.2-0.9-0.3-1.7c-0.2-1.4-0.6-3.5-1-6
						c-0.8-5.1-1.7-12.2-2.4-20c-0.2-2-0.4-3.9-0.5-5.7c-0.2-1.8-0.3-3.6-0.2-5.4c0.2-3.4,1.4-6.4,2.8-8.5c1.4-2.2,3-3.6,4.2-4.3
						c0.6-0.4,1.1-0.6,1.5-0.8C248.8,106.6,249,106.5,249,106.5z"/>
				</g>
			</g>
			<g>
				<g>
					<path class="st4" d="M245.4,199.2c0,0-0.1,0-0.2-0.1c-0.2-0.1-0.2-0.1-0.5-0.2c-0.4-0.2-0.9-0.4-1.7-0.8
						c-1.4-0.7-3.5-1.7-6-3.2c-5-2.8-11.9-6.8-19.7-11.5l-0.2-0.1l0.1-0.2c0.9-2.2,1.8-4.5,2.8-6.7c1-2.3,1.9-4.6,2.7-6.8
						c0.5-1.1,0.8-2.2,1.2-3.3c0.2-0.5,0.4-1.1,0.5-1.6c0.1-0.2,0.2-0.5,0.2-0.8c0-0.2,0.1-0.2,0.1-0.4c0-0.1,0-0.2,0-0.2v-0.1l0,0
						c0,0,0,0.1,0.1,0.1l0.2-0.4c3.4,1.5,6.4,3.1,9.1,4.6c2.6,1.5,5,2.8,7,3.9s3.6,1.8,4.6,2.3c0.5,0.2,0.9,0.5,1.2,0.6
						s0.5,0.2,0.5,0.2s-0.2-0.1-0.5-0.2c-0.3-0.2-0.8-0.3-1.3-0.5c-1.1-0.5-2.7-1.3-4.7-2.3c-2-1-4.3-2.3-7-3.8
						c-2.6-1.4-5.7-3-9.1-4.5l0.2-0.4c0.1,0,0.2,0.1,0.2,0.2v0.1c0,0.1,0,0.1,0,0.2c0,0.1,0,0.2,0,0.2c0,0.2-0.1,0.3-0.1,0.5
						c-0.1,0.3-0.2,0.5-0.2,0.8c-0.2,0.5-0.4,1.1-0.5,1.6c-0.4,1.1-0.8,2.2-1.2,3.3c-0.8,2.2-1.7,4.5-2.7,6.8
						c-1,2.3-1.9,4.5-2.8,6.7l-0.1-0.2c7.8,4.8,14.7,8.8,19.7,11.6c2.5,1.4,4.5,2.5,5.9,3.3c0.7,0.4,1.2,0.6,1.6,0.8
						c0.2,0.1,0.3,0.2,0.4,0.2C245.4,199.1,245.4,199.2,245.4,199.2z"/>
				</g>
			</g>
			<g>
				<g>
					<path class="st4" d="M177.7,158.1c0,0-0.2-0.4-0.3-1.1s-0.3-1.7-0.5-3c-0.4-2.6-0.8-6.1-0.9-10.1c-0.1-3.9,0.1-7.5,0.3-10.1
						c0.2-1.3,0.2-2.3,0.4-3c0.1-0.7,0.2-1.1,0.2-1.1c0,0,0,0.4-0.1,1.1c-0.1,0.7-0.2,1.7-0.2,3c-0.2,2.6-0.3,6.1-0.2,10.1
						c0.2,3.9,0.5,7.5,0.8,10c0.2,1.3,0.3,2.3,0.4,3C177.7,157.8,177.8,158.1,177.7,158.1z"/>
				</g>
			</g>
			<g>
				<g>
					<path class="st4" d="M176.1,164.5c0,0-0.2,0.4-0.7,1c-0.5,0.7-1.2,1.5-2,2.5c-1.7,2.2-4.2,5.1-6.7,8.2c-2.6,3.2-5,6.1-6.7,8.2
						c-0.8,1-1.5,1.8-2,2.5c-0.5,0.6-0.8,0.9-0.8,0.9s0.2-0.4,0.7-1c0.5-0.6,1.1-1.5,2-2.6c1.7-2.2,4-5.1,6.7-8.3
						c2.6-3.3,5.1-6.1,6.9-8.2c0.9-1.1,1.6-1.9,2.1-2.4C175.8,164.8,176,164.5,176.1,164.5z"/>
				</g>
			</g>
			<g>
				<g>
					<path class="st4" d="M183.7,189c0,0,0,0.4,0,1c0,0.3-0.1,0.7-0.2,1.1c-0.1,0.5-0.2,0.9-0.3,1.4c-0.2,1.1-0.6,2.3-1.1,3.7
						s-1.3,2.8-2.2,4.2c-0.9,1.4-1.9,2.6-2.9,3.7c-1,1.1-2,1.9-2.9,2.6c-0.5,0.4-0.8,0.6-1.2,0.8s-0.7,0.5-1,0.6
						c-0.5,0.3-0.8,0.5-0.8,0.5c-0.1-0.1,1.1-0.8,2.9-2.1c0.8-0.7,1.8-1.6,2.8-2.6c1-1.1,2-2.3,2.9-3.7c0.9-1.4,1.6-2.8,2.1-4.2
						c0.5-1.4,0.9-2.6,1.2-3.6C183.5,190.3,183.6,189,183.7,189z"/>
				</g>
			</g>
			<g>
				<g>
					<path class="st4" d="M230.3,101.4c0,0,0.1,0.2,0.3,0.5c0.2,0.4,0.5,0.8,0.8,1.5c0.5,1.4,1.3,3.4,1.7,6c0.5,2.6,0.6,5.7,0.1,9.2
						c-0.5,3.5-1.7,7.2-3.7,10.7c-0.4,0.6-0.8,1.1-1.1,1.7c-0.4,0.5-0.8,1.1-1.2,1.6l-0.1,0.2l-0.2-0.1c-3-1.8-6.6-1.9-9.4-0.8
						c-1.4,0.5-2.6,1.4-3.6,2.2c-1,0.8-1.8,1.8-2.3,2.7c-1.1,1.9-1.4,3.7-1.6,4.9c-0.2,1.2-0.1,1.9-0.2,1.9c0,0,0-0.2,0-0.5
						c0-0.3,0-0.8,0-1.4c0.1-1.2,0.4-3.1,1.5-5.1c0.6-1,1.4-2,2.3-2.9c1-0.9,2.2-1.7,3.6-2.3c2.8-1.1,6.6-1.1,9.7,0.8l-0.2,0.1
						c0.4-0.5,0.8-1.1,1.2-1.6c0.4-0.5,0.8-1.1,1.1-1.7c2-3.4,3.3-7.1,3.7-10.5c0.5-3.4,0.5-6.6,0-9.1c-0.4-2.6-1.1-4.6-1.6-6
						c-0.2-0.7-0.5-1.2-0.7-1.6C230.4,101.6,230.3,101.4,230.3,101.4z"/>
				</g>
			</g>
			<g>
				<g>
					<path class="st4" d="M208.3,140.2c0,0-0.1-0.2-0.2-0.5c-0.2-0.3-0.4-0.8-0.6-1.3c-0.5-1.1-1.3-2.7-2.3-4.6
						c-1.1-1.9-2.3-4.2-4.2-6.3c-1-1-2.1-2-3.6-2.7c-1.4-0.7-2.9-1.1-4.6-1.2c-0.7,0-1.3,0-1.9,0.1h-0.2v-0.2c0.5-3.1,1.3-6,2.1-8.5
						c0.8-2.6,1.7-4.8,2.6-6.6s1.7-3.3,2.2-4.2c0.3-0.5,0.5-0.8,0.8-1.1c0.2-0.2,0.3-0.4,0.3-0.4s-0.3,0.5-0.9,1.4
						c-0.5,1-1.3,2.3-2.1,4.2c-0.8,1.8-1.7,4.1-2.5,6.6c-0.8,2.5-1.6,5.4-2,8.4l-0.2-0.2c0.6,0,1.3-0.1,2-0.1
						c1.7,0.1,3.3,0.5,4.8,1.3s2.6,1.7,3.6,2.8c2,2.2,3.3,4.5,4.2,6.4c1,2,1.7,3.6,2.2,4.7c0.2,0.5,0.4,1,0.5,1.3
						C208.3,140.1,208.3,140.2,208.3,140.2z"/>
				</g>
			</g>
			<g class="st12">
				<g>
					<path d="M209.9,143.1c0.8-2.6,1.9-3.6,3.3-5c1.4-1.4,3.4-2.4,5.4-2.3c1.7,0.1,3.3,1,4.9,1c2,0.1,3.8-1.1,5.2-2.3
						c6.1-5.3,8.1-14.7,4.6-22c0.3,7.2-2,14.4-6.6,20c-3.6-2-8.2-1.9-11.6,0.3C211.8,135,209.7,139.2,209.9,143.1"/>
				</g>
			</g>
			<g>
				<g>
					<path class="st4" d="M244.4,158.9c0,0,0.1,0.4,0.2,1.1c0.1,0.8,0.2,1.7,0.4,2.9c0.3,2.4,0.8,5.8,1.2,9.5c0.1,0.7,0.2,1.4,0.2,2
						l-0.2-0.2c3.3,0.7,5.8,2,7.6,3.3c0.8,0.6,1.5,1.1,2,1.5c0.5,0.4,0.6,0.6,0.6,0.6c-0.1,0.1-1-0.8-2.7-1.9
						c-1.7-1.1-4.3-2.4-7.5-3h-0.2v-0.2c-0.1-0.7-0.2-1.4-0.2-2c-0.5-3.7-0.8-7.1-1.1-9.5c-0.2-1.1-0.2-2.1-0.3-2.9
						C244.4,159.3,244.4,158.9,244.4,158.9z"/>
				</g>
			</g>
			<g>
				<g>
					<path class="st4" d="M220.6,193.2c0,0-0.2,0.1-0.4,0.2c-0.3,0.1-0.7,0.2-1.1,0.3c-1,0.2-2.4,0.5-4.2,0.8
						c-3.6,0.5-8.7,0.7-14.3-0.1c-2.8-0.4-5.4-1-7.7-1.7c-1.1-0.4-2.3-0.7-3.3-1.1c-1-0.5-1.8-1.1-2.3-1.9c-0.5-0.8-0.8-1.6-1-2.3
						c-0.2-0.7-0.3-1.4-0.4-1.8c-0.1-0.5-0.1-0.9-0.2-1.1c0-0.3,0-0.4,0-0.4s0.1,0.5,0.3,1.6c0.1,0.5,0.2,1.1,0.5,1.8
						c0.2,0.7,0.5,1.4,1.1,2.2c0.5,0.8,1.3,1.4,2.3,1.7c1,0.4,2.1,0.7,3.3,1.1c2.3,0.7,4.9,1.2,7.6,1.6c5.5,0.8,10.6,0.6,14.2,0.2
						c1.8-0.2,3.3-0.5,4.2-0.6c0.5-0.1,0.8-0.2,1.1-0.2C220.5,193.2,220.6,193.2,220.6,193.2z"/>
				</g>
			</g>
			<g>
				<g>
					<path class="st4" d="M204.9,194.4c0,0.1-0.5,0.2-1.3,0.7c-0.8,0.5-1.7,1.2-2.4,2.3c-0.8,1.1-1.1,2.3-1.1,3.2
						c-0.1,0.9,0,1.4-0.1,1.4c0,0-0.2-0.5-0.2-1.4c0-0.9,0.3-2.2,1.1-3.4c0.8-1.2,1.8-2,2.6-2.4
						C204.3,194.4,204.8,194.4,204.9,194.4z"/>
				</g>
			</g>
			<g>
				<g>
					<path class="st4" d="M208.6,143c0,0,0.1,0.2,0.1,0.5c0.1,0.4,0.1,0.9,0.2,1.5c0.2,1.3,0.3,3.3,0.5,5.6
						c0.3,4.7,0.6,11.3,0.4,18.5c-0.1,3.6-0.2,7-0.5,10.2c-0.2,3.1-0.6,6-1.2,8.2c-0.6,2.3-1.6,4-2.3,5.1c-0.4,0.5-0.7,0.9-1,1.2
						c-0.2,0.2-0.4,0.4-0.4,0.4s0.5-0.5,1.2-1.7c0.7-1.1,1.6-2.8,2.2-5.1c0.6-2.3,1-5.1,1.1-8.2c0.2-3.1,0.4-6.6,0.5-10.1
						c0.2-7.2,0-13.8-0.3-18.5c-0.2-2.3-0.3-4.2-0.4-5.6c-0.1-0.6-0.1-1.1-0.1-1.5C208.6,143.2,208.6,143,208.6,143z"/>
				</g>
			</g>
			<g>
				<g>
					<path class="st9" d="M174.4,138.9c0,0.1-2.8,0.5-6.4,0.7c-3.5,0.3-6.4,0.4-6.4,0.3s2.8-0.5,6.4-0.7
						C171.5,138.9,174.4,138.8,174.4,138.9z"/>
				</g>
			</g>
			<g>
				<g>
					<path class="st9" d="M208.3,152.3c0,0-0.5,0.1-1.2,0.2c-0.8,0.2-2,0.3-3.4,0.4c-1.4,0.2-3.2,0.2-5.1,0.2
						c-1.9-0.1-4-0.2-6.2-0.5s-4.2-0.8-6.1-1.2c-1.8-0.5-3.5-1-4.8-1.5c-1.4-0.5-2.4-1-3.2-1.3c-0.8-0.4-1.1-0.5-1.1-0.6
						c0,0,0.5,0.2,1.2,0.5c0.8,0.3,1.8,0.7,3.2,1.2c1.4,0.5,3,1,4.8,1.4c1.8,0.5,3.9,0.9,6,1.2c2.2,0.3,4.2,0.5,6.2,0.5
						c1.9,0.1,3.6,0.1,5.1,0s2.6-0.2,3.4-0.2C207.9,152.3,208.3,152.3,208.3,152.3z"/>
				</g>
			</g>
			<g>
				<g>
					<path class="st9" d="M240.2,140.9c0,0-0.4,0.3-1.1,0.7c-0.7,0.5-1.7,1-3.1,1.7c-1.3,0.7-2.9,1.4-4.8,2c-1.8,0.7-3.9,1.4-6,1.9
						c-2.2,0.5-4.3,0.9-6.2,1.2c-2,0.2-3.7,0.4-5.1,0.5s-2.6,0.1-3.5,0c-0.8,0-1.3-0.1-1.3-0.1s0.5-0.1,1.3-0.1c0.8,0,2-0.1,3.5-0.2
						c1.4-0.1,3.2-0.2,5.1-0.5c1.9-0.3,4-0.7,6.2-1.2c2.2-0.5,4.2-1.2,6-1.8c1.8-0.7,3.4-1.4,4.8-2c1.4-0.6,2.4-1.1,3.1-1.5
						C239.8,141.1,240.2,140.9,240.2,140.9z"/>
				</g>
			</g>
			<g>
				<g>
					<path class="st9" d="M265.5,125.3c0,0-0.4,0.1-1,0.2c-0.7,0.1-1.6,0.2-2.7,0.2c-2.3,0.2-5.4,0.8-8.8,1.7
						c-3.4,1-6.4,2.2-8.5,3.2c-1.1,0.5-1.9,0.9-2.5,1.2c-0.6,0.3-0.9,0.5-0.9,0.5s0.3-0.2,0.8-0.5c0.5-0.4,1.4-0.8,2.4-1.3
						c2-1.1,5.1-2.3,8.5-3.3c3.4-1,6.7-1.4,8.9-1.6c1.1-0.1,2.1-0.2,2.7-0.2C265.1,125.2,265.5,125.2,265.5,125.3z"/>
				</g>
			</g>
			<g>
				<g>
					<path class="st9" d="M268.9,156.9c0,0-0.4,0-1-0.1s-1.6-0.2-2.6-0.2c-2.3-0.2-5.4-0.2-8.8,0c-3.5,0.2-6.6,0.8-8.8,1.2
						c-1.1,0.2-2,0.5-2.6,0.6c-0.6,0.2-1,0.2-1,0.2c0,0,0.3-0.2,0.9-0.3c0.6-0.2,1.5-0.5,2.6-0.7c2.2-0.5,5.4-1.1,8.8-1.4
						c3.5-0.2,6.7-0.2,8.9,0.1c1.1,0.1,2,0.2,2.6,0.3C268.6,156.9,268.9,156.9,268.9,156.9z"/>
				</g>
			</g>
			<g>
				<g>
					<path class="st9" d="M245,194.4c-0.1,0,0.3-1.1,0.7-2.9c0.4-1.8,0.8-4.3,0.8-7.1c0-2.8-0.5-5.3-0.8-7.1
						c-0.5-1.8-0.8-2.9-0.8-2.9c0,0,0.2,0.2,0.3,0.8c0.2,0.5,0.5,1.2,0.7,2.1c0.5,1.8,1,4.3,1,7.2c0,2.8-0.4,5.4-0.8,7.2
						c-0.2,0.9-0.5,1.6-0.6,2.1C245.1,194.1,245.1,194.4,245,194.4z"/>
				</g>
			</g>
			<g>
				<g>
					<path class="st9" d="M172.3,168.1c0,0.1-0.8,0.1-2.2,0.2c-1.4,0.1-3.2,0.3-5.2,0.6c-2,0.4-3.9,0.8-5.1,1.2
						c-1.3,0.4-2.1,0.7-2.1,0.6c0-0.1,0.8-0.4,2-0.8c1.3-0.5,3.1-1,5.1-1.4s3.9-0.5,5.3-0.5C171.4,168,172.3,168.1,172.3,168.1z"/>
				</g>
			</g>
			<g>
				<g>
					<path class="st9" d="M177.5,199.8c0,0-0.1,0-0.3,0c-0.2,0-0.5,0-0.8,0c-0.7-0.1-1.7-0.2-2.9-0.6c-2.4-0.7-5.7-2.6-8-5.8
						s-2.8-7-2.6-9.5c0.1-1.3,0.3-2.3,0.5-3c0.1-0.4,0.2-0.6,0.3-0.8c0.1-0.2,0.1-0.3,0.2-0.2c0.1,0-0.5,1.5-0.6,4.1
						c-0.2,2.5,0.5,6.1,2.6,9.3c2.2,3.2,5.4,5,7.8,5.7C176,199.8,177.5,199.7,177.5,199.8z"/>
				</g>
			</g>
			<g>
				<g>
					<path class="st9" d="M194.7,204.8c0,0.1-3.3-0.6-7.2-1.6s-7.1-1.9-7.1-2s3.3,0.6,7.2,1.6C191.6,203.8,194.8,204.7,194.7,204.8z
						"/>
				</g>
			</g>
			<g>
				<g>
					<path class="st9" d="M235.1,197.4c0,0-0.3,0.2-1,0.5c-0.6,0.3-1.6,0.8-2.7,1.3c-2.3,1.1-5.6,2.3-9.4,3.4
						c-3.7,1.1-7.2,1.8-9.8,2.3c-1.3,0.2-2.3,0.4-3,0.5c-0.7,0.1-1.1,0.1-1.1,0.1s0.4-0.1,1.1-0.2s1.7-0.3,2.9-0.5
						c2.5-0.5,5.9-1.3,9.7-2.3c3.7-1.1,7-2.3,9.4-3.3c1.2-0.5,2.1-0.9,2.8-1.1C234.7,197.5,235.1,197.3,235.1,197.4z"/>
				</g>
			</g>
			<g>
				<g>
					<path class="st9" d="M208.3,175.8c0,0-0.3,0.2-0.9,0.3s-1.4,0.4-2.4,0.5c-2,0.4-5,0.8-8.2,0.7c-3.3,0-6.1-0.4-8.2-0.8
						c-1.1-0.2-1.9-0.4-2.4-0.6c-0.6-0.2-0.9-0.2-0.9-0.3c0,0,0.3,0,0.9,0.2c0.6,0.2,1.4,0.3,2.4,0.5c2,0.4,4.9,0.7,8.2,0.7
						c3.2,0,6-0.3,8.2-0.6c1.1-0.2,1.9-0.3,2.4-0.4C207.9,175.8,208.3,175.8,208.3,175.8z"/>
				</g>
			</g>
			<g>
				<g>
					<path class="st9" d="M220.2,175.9c0,0.1-0.5,0.3-1.4,0.6c-0.9,0.3-2.1,0.6-3.6,0.7c-1.4,0.1-2.7,0-3.6-0.2
						c-0.9-0.2-1.4-0.3-1.4-0.4c0-0.2,2.3,0.4,5.1,0.2C218,176.6,220.1,175.8,220.2,175.9z"/>
				</g>
			</g>
			<g>
				<g>
					<path class="st9" d="M194,111c0,0.1-1.1,0.2-2.8,0.5s-4.1,0.8-6.7,1.6c-2.6,0.8-4.8,1.7-6.4,2.5c-1.6,0.8-2.6,1.3-2.6,1.2
						c0,0,0.2-0.2,0.6-0.5c0.5-0.2,1.1-0.6,1.8-1c1.6-0.8,3.9-1.8,6.4-2.6c2.6-0.8,5-1.3,6.7-1.5c0.9-0.1,1.6-0.2,2.1-0.2
						C193.7,110.9,194,110.9,194,111z"/>
				</g>
			</g>
			<g>
				<g>
					<path class="st9" d="M199,113.9c0.1,0-0.4,2-1.3,4.5s-1.9,4.2-2,4.2c-0.1-0.1,0.8-2,1.7-4.3C198.3,115.9,198.9,113.9,199,113.9
						z"/>
				</g>
			</g>
			<g>
				<g>
					<path class="st9" d="M222.8,119.5c0.2,0-0.4,2.6-0.8,5.7c-0.4,3.2-0.4,5.7-0.5,5.7c-0.1,0-0.1-0.7-0.1-1.7
						c0-1.1,0.1-2.5,0.2-4.1c0.2-1.6,0.5-3,0.7-4C222.5,120.1,222.7,119.5,222.8,119.5z"/>
				</g>
			</g>
			<g>
				<g>
					<path class="st9" d="M231.8,119.7c-0.2,0-0.5-1.3-1.4-2.7c-0.8-1.4-1.8-2.4-1.7-2.6c0.1-0.1,1.2,0.8,2.1,2.3
						C231.7,118.3,231.9,119.7,231.8,119.7z"/>
				</g>
			</g>
		</g>
		<g>
			<g>
				<path class="st10" d="M178.5,168.9c0.5-2.5,0.4-5-0.1-7.5c-0.3-1.4-0.5-3-0.4-4.5c0.2-1.5,1.5-3.1,3-3l2.7,10.7L178.5,168.9z"/>
			</g>
			<g>
				<g>
					<path class="st4" d="M178.4,143.5l9.6,38l18.8-2l-7.2-37.7c-0.2-1-1.1-1.7-2.1-1.7l-17.2,0.8C179,141,178.1,142.2,178.4,143.5z
						"/>
				</g>
				<g>
					<g>
						<path class="st7" d="M199.9,152.5c0,0-0.2-0.4-0.3-1.1c-0.2-0.8-0.5-1.8-0.8-3.1s-0.7-2.9-1.1-4.5c-0.1-0.2-0.1-0.5-0.2-0.6
							c-0.1-0.2-0.2-0.4-0.4-0.5c-0.2-0.2-0.4-0.2-0.5-0.2c-0.2-0.1-0.5,0-0.7,0c-1,0.1-2,0.1-2.9,0.2c-4.1,0.2-7.8,0.3-10.4,0.3
							c-1.3,0-2.3,0.1-3.2,0.1c-0.8,0-1.1,0-1.1,0s0.4-0.1,1.1-0.2c0.8-0.1,1.9-0.1,3.2-0.2c2.6-0.2,6.4-0.3,10.4-0.5
							c1,0,2-0.1,2.9-0.1c0.2,0,0.5-0.1,0.8,0c0.2,0.1,0.5,0.2,0.7,0.3c0.2,0.2,0.4,0.4,0.5,0.6c0.1,0.2,0.2,0.5,0.2,0.7
							c0.4,1.7,0.7,3.3,1,4.6c0.2,1.3,0.5,2.3,0.7,3.1C199.9,152,200,152.5,199.9,152.5z"/>
					</g>
				</g>
				<g>
					<path class="st13" d="M189.6,144.5c-0.2-0.3-0.6-0.8-1.1-0.5c-0.2,0-0.6,0.4-0.6,0.8s0.2,0.8,0.5,0.9c0.4,0.2,0.8,0.2,1.1-0.2
						C189.6,145.4,189.7,144.9,189.6,144.5z"/>
				</g>
			</g>
			<g>
				<path class="st10" d="M189.5,156.1c-0.5,0.2-10.1,5.7-10.1,5.7l-5,5.7c0,0-1.7,3.3,0,8.2c1.7,4.9,4.3,6.5,10.1,7.7l10.7-2.2
					l7.6-4.7l-2.3-8.5l-7.4,6l-4.2,0.8l-0.7-1.4l6-3.5l9.5-8l-2.9-3.3l-8.8,5.7l-7.5,3.7l1.1-3.1l8.7-7
					C194.3,157.8,194.9,154.5,189.5,156.1z"/>
			</g>
			<g>
				<g>
					<path class="st10" d="M190.2,150.8c0,0,2-1.3,5.5,0c3.5,1.3,8,3.3,8,3.3l6.7,1.6l-0.8-1.6c0,0-6.5,0.9-6.4-3.8h3.9l3.3-1.9
						l6.9,6.2l3.1,7.8l4.2,3.3l-5.2,13.2l-11-1.8l-9.4,1l-4.9-3.6l-0.8-4.8l-4.8-4.5c0,0-0.7-2.3,1.4-2.6c2.1-0.3,7.5,4.5,7.5,4.5
						l5.1-0.1c0,0,0.8-0.8,0.1-1.3s-16.3-7.3-17-8.9c-0.8-1.7-1.5-2.7,0-3.3c1.5-0.5,4,0.2,4,0.2S189.1,151.3,190.2,150.8z"/>
				</g>
				<g>
					<g>
						<path class="st11" d="M203.3,159.7c-0.1,0.1-3.2-1.2-6.9-2.9c-3.8-1.7-6.8-3.1-6.7-3.3c0.1-0.1,3.2,1.2,6.9,2.9
							C200.2,158.1,203.3,159.5,203.3,159.7z"/>
					</g>
				</g>
				<g>
					<g>
						<path class="st11" d="M206.8,171.6c0,0-0.2,0.2-0.8,0.3c-0.5,0.2-1.2,0.4-2.1,0.6c-0.9,0.2-2,0.4-3.3,0.4
							c-1.3,0-2.6-0.3-3.9-0.9c-2.6-1.2-4.5-3.2-5.7-4.6c-0.6-0.7-1.1-1.3-1.4-1.7c-0.3-0.5-0.5-0.7-0.5-0.7c0.1-0.1,0.8,0.8,2,2.2
							c1.3,1.4,3.1,3.3,5.6,4.5c1.3,0.6,2.6,0.9,3.8,0.9s2.3-0.2,3.3-0.3C205.7,171.9,206.8,171.6,206.8,171.6z"/>
					</g>
				</g>
				<g>
					<g>
						<path class="st11" d="M224.7,165.6c0,0-0.1-0.1-0.3-0.2s-0.5-0.4-0.8-0.6c-0.8-0.5-1.8-1.4-3.2-2.4l0,0l0,0
							c-0.8-2-1.9-4.6-3.1-7.8v0.1c-2-1.8-4.4-3.9-7-6.1h0.2c-1.1,0.6-2.1,1.2-3.3,1.9l0,0h-0.1c-1.2,0-2.6,0-3.9,0l0.2-0.2
							c0.1,0.7,0.1,1.4,0.5,1.9c0.4,0.5,0.9,1,1.5,1.3c1.3,0.5,2.8,0.6,4.2,0.5h0.2l0.1,0.1c0.2,0.5,0.5,1.1,0.8,1.6l0.2,0.4
							l-0.4-0.1c-2.1-0.5-4.4-1.1-6.7-1.6l0,0l0,0c-2-0.9-4.2-1.8-6.4-2.6c-1.1-0.5-2.3-0.9-3.4-1.1c-1.1-0.2-2.4-0.1-3.5,0.5l0,0
							l0,0c-0.4,0.2-0.5,0.6-0.5,1.1c0,0.5,0.2,1,0.3,1.4l0.1,0.4l-0.4-0.1c-0.8-0.2-1.5-0.3-2.3-0.4c-0.8,0-1.6,0-2.1,0.5
							c-0.3,0.2-0.3,0.5-0.2,0.9c0.1,0.4,0.3,0.8,0.5,1.1c0.2,0.4,0.3,0.8,0.5,1c0.3,0.2,0.6,0.5,1,0.7c2.8,1.7,5.7,3.1,8.6,4.5
							c1.4,0.7,2.9,1.4,4.3,2c0.7,0.3,1.4,0.7,2.1,1l0.5,0.2c0.2,0.1,0.4,0.2,0.5,0.5c0.2,0.2,0.1,0.5,0,0.7
							c-0.1,0.2-0.2,0.4-0.4,0.5L203,167h-0.1c-1.7,0-3.5,0.1-5.1,0.1h-0.1l-0.1-0.1c-1.6-1.4-3.3-2.8-5.1-3.8
							c-0.9-0.5-1.9-1-2.7-0.6c-0.5,0.2-0.8,0.5-0.8,1c-0.2,0.5-0.1,0.9,0,1.4l-0.1-0.1c1.7,1.6,3.3,3.1,4.8,4.5l0.1,0.1v0.1
							c0.2,1.7,0.5,3.3,0.8,4.8l-0.1-0.1c1.7,1.3,3.3,2.5,4.9,3.6h-0.1c3.6-0.4,6.7-0.7,9.4-0.9l0,0l0,0c3.5,0.6,6.3,1.1,8.2,1.4
							c0.9,0.2,1.6,0.3,2.1,0.4c0.2,0.1,0.4,0.1,0.5,0.1s0.2,0.1,0.2,0.1s-0.1,0-0.2,0c-0.2,0-0.3-0.1-0.5-0.1
							c-0.5-0.1-1.2-0.2-2.1-0.3c-1.9-0.3-4.6-0.8-8.2-1.3l0,0c-2.6,0.3-5.7,0.6-9.4,1h-0.1h-0.1c-1.5-1.1-3.2-2.3-4.9-3.6h-0.1
							v-0.1c-0.2-1.6-0.5-3.2-0.8-4.8l0.1,0.1c-1.5-1.4-3.2-2.9-4.8-4.5l0,0v-0.1c-0.2-0.5-0.2-1.1,0-1.6c0.1-0.2,0.2-0.5,0.4-0.8
							c0.2-0.2,0.5-0.4,0.7-0.5c0.5-0.2,1.1-0.2,1.6,0c0.5,0.2,1,0.4,1.4,0.7c1.8,1.1,3.5,2.3,5.1,3.9l-0.2-0.1
							c1.7,0,3.4-0.1,5.1-0.1l-0.2,0.1c0.2-0.2,0.5-0.6,0.3-0.8c-0.1-0.2-0.5-0.3-0.9-0.5c-0.7-0.3-1.4-0.7-2.1-1
							c-1.4-0.7-2.9-1.4-4.3-2c-2.9-1.4-5.8-2.8-8.7-4.5c-0.4-0.2-0.7-0.5-1-0.8c-0.2-0.2-0.3-0.4-0.4-0.5l-0.2-0.5
							c-0.2-0.4-0.4-0.8-0.5-1.1c-0.1-0.2-0.1-0.5-0.1-0.7c0-0.2,0.2-0.5,0.4-0.6c0.8-0.5,1.7-0.5,2.4-0.5c0.8,0.1,1.6,0.2,2.3,0.4
							l-0.3,0.2c-0.2-0.5-0.3-1.1-0.3-1.6c0-0.3,0-0.5,0.2-0.8c0.1-0.3,0.3-0.5,0.6-0.6l0,0c1.2-0.6,2.5-0.7,3.7-0.5
							c1.3,0.2,2.4,0.7,3.5,1.1c2.3,0.8,4.4,1.7,6.5,2.6l0,0c2.3,0.5,4.6,1.1,6.7,1.6l-0.2,0.2c-0.3-0.5-0.6-1.1-0.8-1.6l0.2,0.1
							c-1.5,0.2-3,0.1-4.4-0.5c-0.7-0.3-1.3-0.8-1.7-1.4c-0.5-0.6-0.5-1.4-0.5-2V150h0.2c1.4,0,2.7,0,3.9,0H207
							c1.1-0.7,2.3-1.3,3.3-1.9l0.1-0.1l0.1,0.1c2.6,2.3,4.8,4.4,6.9,6.2l0,0l0,0c1.2,3.1,2.3,5.7,3,7.8l0,0
							c1.4,1.1,2.4,1.9,3.2,2.4c0.4,0.3,0.6,0.5,0.8,0.6C224.7,165.5,224.7,165.6,224.7,165.6z"/>
					</g>
				</g>
			</g>
		</g>
	</g>
</g>
</svg>
