<?xml version="1.0" encoding="utf-8"?>
<!-- Generator: Adobe Illustrator 25.2.1, SVG Export Plug-In . SVG Version: 6.00 Build 0)  -->
<svg version="1.1" id="Camada_1" xmlns="http://www.w3.org/2000/svg" xmlns:xlink="http://www.w3.org/1999/xlink" x="0px" y="0px"
	 viewBox="0 0 44.1 42.7" style="enable-background:new 0 0 44.1 42.7;" xml:space="preserve">
<style type="text/css">
	.st0{fill:url(#SVGID_1_);}
	.st1{fill-rule:evenodd;clip-rule:evenodd;fill:#FFFFFF;}
</style>
<g>
	<g>
		
			<linearGradient id="SVGID_1_" gradientUnits="userSpaceOnUse" x1="22.8441" y1="65.7599" x2="22.7214" y2="29.0347" gradientTransform="matrix(1 0 0 -1 0 69.52)">
			<stop  offset="0" style="stop-color:#7024C4"/>
			<stop  offset="0.4155" style="stop-color:#C21975"/>
			<stop  offset="0.7022" style="stop-color:#C74C4D"/>
			<stop  offset="1" style="stop-color:#E09B3D"/>
		</linearGradient>
		<circle class="st0" cx="22.8" cy="22.1" r="18.4"/>
	</g>
	<path class="st1" d="M26,14.1h-6.5c-2.6,0-4.8,2.1-4.8,4.8v6.5c0,2.6,2.1,4.8,4.8,4.8H26c2.6,0,4.8-2.1,4.8-4.8v-6.5
		C30.8,16.3,28.6,14.1,26,14.1z M29.2,25.4c0,1.7-1.4,3.2-3.2,3.2h-6.5c-1.7,0-3.2-1.4-3.2-3.2v-6.5c0-1.7,1.4-3.2,3.2-3.2H26
		c1.7,0,3.2,1.4,3.2,3.2V25.4z M18.6,22.1c0-2.3,1.9-4.1,4.1-4.1c2.3,0,4.1,1.9,4.1,4.1s-1.9,4.1-4.1,4.1
		C20.5,26.3,18.6,24.4,18.6,22.1z M22.8,24.7c-1.4,0-2.5-1.1-2.5-2.5s1.1-2.5,2.5-2.5c1.4,0,2.5,1.1,2.5,2.5S24.2,24.7,22.8,24.7z
		 M26.9,19c0.5,0,1-0.4,1-1c0-0.5-0.4-1-1-1c-0.5,0-1,0.4-1,1C25.9,18.6,26.4,19,26.9,19z"/>
</g>
</svg>
