<svg width="85" height="85" viewBox="0 0 85 85" fill="none" xmlns="http://www.w3.org/2000/svg">
<g filter="url(#filter0_d_142:109)">
<circle cx="42.3627" cy="30.3627" r="18.3627" fill="#F52929"/>
<path fill-rule="evenodd" clip-rule="evenodd" d="M49.9902 24.7596C50.487 25.3289 50.6624 26.6173 50.6624 26.6173C50.6624 26.6173 50.8377 28.1454 50.8377 29.6734V31.0817C50.8377 32.5798 50.6624 34.1079 50.6624 34.1079C50.6624 34.1079 50.487 35.3963 49.9902 35.9656C49.3788 36.6494 48.688 36.71 48.3453 36.7401C48.3277 36.7417 48.3109 36.7431 48.2952 36.7446C45.928 36.9543 42.3626 36.9543 42.3626 36.9543C42.3626 36.9543 37.9497 36.9243 36.6055 36.7746C36.534 36.7577 36.4461 36.745 36.346 36.7306C35.9141 36.6684 35.2571 36.5738 34.7351 35.9656C34.2383 35.3963 34.0629 34.1079 34.0629 34.1079C34.0629 34.1079 33.8876 32.6098 33.8876 31.0817V29.6735C33.8876 28.1454 34.0629 26.6173 34.0629 26.6173C34.0629 26.6173 34.209 25.3289 34.7351 24.7596C35.3465 24.0758 36.0372 24.0152 36.3799 23.9851C36.3976 23.9835 36.4143 23.9821 36.4301 23.9806C38.7973 23.8008 42.3626 23.7709 42.3626 23.7709C42.3626 23.7709 45.928 23.8008 48.2952 23.9806C48.3196 23.9829 48.3464 23.985 48.3753 23.9872C48.7271 24.0149 49.3961 24.0674 49.9902 24.7596ZM40.317 33.8383V27.3365L45.8696 30.6623L40.317 33.8383Z" fill="white"/>
</g>
<defs>
<filter id="filter0_d_142:109" x="0" y="0" width="84.7253" height="84.7253" filterUnits="userSpaceOnUse" color-interpolation-filters="sRGB">
<feFlood flood-opacity="0" result="BackgroundImageFix"/>
<feColorMatrix in="SourceAlpha" type="matrix" values="0 0 0 0 0 0 0 0 0 0 0 0 0 0 0 0 0 0 127 0" result="hardAlpha"/>
<feOffset dy="12"/>
<feGaussianBlur stdDeviation="12"/>
<feColorMatrix type="matrix" values="0 0 0 0 0 0 0 0 0 0 0 0 0 0 0 0 0 0 0.1 0"/>
<feBlend mode="normal" in2="BackgroundImageFix" result="effect1_dropShadow_142:109"/>
<feBlend mode="normal" in="SourceGraphic" in2="effect1_dropShadow_142:109" result="shape"/>
</filter>
</defs>
</svg>
