<?xml version="1.0" encoding="utf-8"?>
<!-- Generator: Adobe Illustrator 25.2.1, SVG Export Plug-In . SVG Version: 6.00 Build 0)  -->
<svg version="1.1" id="Camada_1" xmlns="http://www.w3.org/2000/svg" xmlns:xlink="http://www.w3.org/1999/xlink" x="0px" y="0px"
	 viewBox="0 0 45.1 41.5" style="enable-background:new 0 0 45.1 41.5;" xml:space="preserve">
<style type="text/css">
	.st0{fill:#F52929;}
	.st1{fill-rule:evenodd;clip-rule:evenodd;fill:#FFFFFF;}
</style>
<g>
	<circle class="st0" cx="23.4" cy="21" r="18.4"/>
	<path class="st1" d="M31.1,15.4c0.5,0.6,0.7,1.9,0.7,1.9s0.2,1.5,0.2,3.1v1.4c0,1.5-0.2,3-0.2,3s-0.2,1.3-0.7,1.9
		c-0.6,0.7-1.3,0.7-1.6,0.8c0,0,0,0-0.1,0c-2.4,0.2-5.9,0.2-5.9,0.2s-4.4,0-5.8-0.2c-0.1,0-0.2,0-0.3,0c-0.4-0.1-1.1-0.2-1.6-0.8
		c-0.5-0.6-0.7-1.9-0.7-1.9s-0.2-1.5-0.2-3v-1.4c0-1.5,0.2-3.1,0.2-3.1s0.1-1.3,0.7-1.9c0.6-0.7,1.3-0.7,1.6-0.8c0,0,0,0,0.1,0
		c2.4-0.2,5.9-0.2,5.9-0.2s3.6,0,5.9,0.2c0,0,0.1,0,0.1,0C29.8,14.7,30.5,14.7,31.1,15.4z M21.4,24.5V18l5.6,3.3L21.4,24.5z"/>
</g>
</svg>
