<?xml version="1.0" encoding="utf-8"?>
<!-- Generator: Adobe Illustrator 25.2.1, SVG Export Plug-In . SVG Version: 6.00 Build 0)  -->
<svg version="1.1" id="Camada_1" xmlns="http://www.w3.org/2000/svg" xmlns:xlink="http://www.w3.org/1999/xlink" x="0px" y="0px"
	 viewBox="0 0 340 349" style="enable-background:new 0 0 340 349;" xml:space="preserve">
<style type="text/css">
	.st0{fill:#263238;}
	.st1{fill:#E3B8BE;}
	.st2{fill:none;stroke:#4F595E;stroke-width:5.000000e-02;stroke-linecap:round;stroke-linejoin:round;stroke-miterlimit:10;}
	.st3{opacity:0.2;}
	.st4{fill:#381243;}
	.st5{fill:#FFFFFF;}
	.st6{fill:#FFBF9D;}
	.st7{fill:#FF9A6C;}
	.st8{fill:#9D1853;}
	.st9{fill:#455A64;}
	.st10{fill:#FAFAFA;}
	.st11{fill:#333333;}
</style>
<g id="Background_Simple">
</g>
<g id="Speech_Bubble">
</g>
<g id="Character_1_">
	<g>
		<g>
			<g>
				<g>
					<g>
						<g>
							<g>
								<g>
									<g>
										<g>
											<g>
												<g>
													<polygon class="st0" points="102.9,272.5 96.9,311.3 103.7,311.3 115.2,272.5 													"/>
												</g>
											</g>
										</g>
									</g>
								</g>
							</g>
						</g>
					</g>
				</g>
				<g>
					<g>
						<g>
							<g>
								<g>
									<g>
										<g>
											<g>
												<g>
													<polygon class="st0" points="250.7,272.5 256.7,311.3 249.9,311.3 238.4,272.5 													"/>
												</g>
											</g>
										</g>
									</g>
								</g>
							</g>
						</g>
					</g>
				</g>
				<g>
					<g>
						<g>
							<g>
								<g>
									<g>
										<g>
											<g>
												<g>
													<path class="st1" d="M71.9,169.8c-0.5,17.4-5.1,94.6,10.8,109.3h19.6l0,0c5.1,0,4.9-2.4,4.6-7.5l-3.7-100
														c-0.1-1.9-0.8-3.7-2-5.3c-2.6-3.2-7.8-8.2-14.9-7.6c-4.9,0.3-8.4,2-10.7,3.6C73.2,163.9,72,166.8,71.9,169.8z"/>
												</g>
											</g>
										</g>
									</g>
								</g>
							</g>
						</g>
					</g>
				</g>
				<g>
					<g>
						<g>
							<g>
								<g>
									<g>
										<g>
											<g>
												<g>
													<polygon class="st1" points="249.9,280.2 102.3,279 102.3,233.5 249.9,233.5 													"/>
												</g>
											</g>
										</g>
									</g>
								</g>
							</g>
						</g>
					</g>
				</g>
				<g>
					<g>
						<g>
							<g>
								<g>
									<g>
										<g>
											<g>
												<g>
													<polygon class="st1" points="249.3,233.5 101.5,234.6 101.5,207.3 249.9,204.5 													"/>
												</g>
											</g>
										</g>
									</g>
								</g>
							</g>
						</g>
					</g>
				</g>
				<g>
					<g>
						<g>
							<g>
								<g>
									<g>
										<g>
											<g>
												<path class="st1" d="M74.7,164.7c0,0,1.1-37.9,42.9-39.9s103.7,0,103.7,0s52.4-2,53.7,31l-10.5,63.3H102.6L74.7,164.7z"
													/>
											</g>
										</g>
									</g>
								</g>
							</g>
						</g>
					</g>
				</g>
				<g>
					<g>
						<g>
							<g>
								<g>
									<g>
										<g>
											<g>
												<g>
													<path class="st1" d="M281.2,173.8c-1.1,26.2-3.5,102.9-21.7,106.3H246l4.2-112c0,0,6.2-11,16.7-10.3c0.1,0,0.2,0,0.3,0
														C275.3,158.5,281.5,165.6,281.2,173.8z"/>
												</g>
											</g>
										</g>
									</g>
								</g>
							</g>
						</g>
					</g>
				</g>
				<g>
					<g>
						<g>
							<g>
								<g>
									<g>
										<g>
											<g>
												<g>
													<g>
														<path class="st0" d="M273.7,159.5c0,0-0.2,0-0.5-0.1s-0.8-0.3-1.4-0.5c-0.3-0.1-0.7-0.2-1.1-0.3
															c-0.5-0.1-0.9-0.1-1.3-0.2c-0.5-0.1-0.9-0.2-1.4-0.2s-1.1,0-1.7,0c-2.4,0-5.4,0.5-8.4,2c-0.2,0.1-0.3,0.2-0.6,0.3
															c-0.2,0.1-0.3,0.3-0.5,0.3c-0.3,0.3-0.8,0.5-1.1,0.7c-0.7,0.5-1.4,1.1-2.2,1.7c-1.4,1.3-2.8,2.8-3.9,4.5v-0.1
															c-0.5,11.6-1.2,26.2-2,42.1c-0.9,19.3-1.4,36.8-1.8,49.5c-0.2,6.3-0.3,11.4-0.3,15c0,1.8-0.1,3.2-0.1,4.1
															c0,0.5,0,0.8,0,1.1c0,0.3,0,0.3,0,0.3s0-0.1,0-0.3c0-0.3,0-0.6,0-1.1c0-0.9,0-2.3,0-4.1c0-3.5,0.1-8.6,0.3-15
															c0.3-12.7,0.9-30.2,1.7-49.5c0.7-15.9,1.4-30.5,2-42.1l0,0v-0.1c1.2-1.8,2.6-3.4,4-4.6c0.7-0.7,1.4-1.2,2.2-1.7
															c0.5-0.3,0.8-0.5,1.1-0.7c0.2-0.1,0.3-0.3,0.6-0.3c0.2-0.1,0.5-0.2,0.6-0.3c3.1-1.5,6.1-2,8.5-2c0.6,0,1.2,0,1.7,0.1
															s1.1,0.2,1.4,0.3c0.5,0.1,0.9,0.2,1.3,0.2c0.3,0.1,0.7,0.3,1.1,0.3c0.6,0.2,1.1,0.3,1.4,0.5
															C273.5,159.3,273.7,159.5,273.7,159.5z"/>
													</g>
												</g>
											</g>
										</g>
									</g>
								</g>
							</g>
						</g>
					</g>
				</g>
				<g>
					<g>
						<g>
							<g>
								<g>
									<g>
										<g>
											<g>
												<g>
													<g>
														<path class="st0" d="M102.6,234.6c0,0,0.3,0,0.8,0s1.2,0,2.2,0c1.9,0,4.7,0,8.3,0c7.2,0,17.6,0.1,30.5,0.1
															c25.8,0.1,61.4,0.3,100.8-0.2c0.6,0,1.1,0,1.6,0l-0.2,0.2c0.2-4.7,0.3-9.3,0.5-13.9c0.1-2.3,0.2-4.5,0.2-6.8
															c0-1.1,0.1-2.2,0.1-3.4c0-0.5,0.1-1.1,0-1.6c0-0.5-0.2-1.1-0.5-1.5c-0.5-0.9-1.4-1.6-2.5-1.9
															c-0.5-0.1-1.1-0.1-1.6-0.1c-0.6,0-1.1,0-1.7,0c-2.2,0-4.5,0-6.6,0c-4.5,0-8.7,0.1-12.9,0.1c-16.8,0.2-32,0.3-44.7,0.5
															c-12.8,0.1-23,0.2-30.1,0.2c-3.6,0-6.3,0-8.2,0c-0.9,0-1.6,0-2.2,0c-0.5,0-0.7,0-0.7,0s0.3,0,0.7,0c0.5,0,1.2,0,2.2,0
															c1.9,0,4.6,0,8.2-0.1c7.1-0.1,17.4-0.2,30.1-0.3c12.8-0.2,27.9-0.3,44.7-0.5c4.2,0,8.6-0.1,12.9-0.1
															c2.2,0,4.5,0,6.6,0c0.6,0,1.1,0,1.7,0c0.5,0,1.1,0,1.7,0.1c1.2,0.3,2.2,1.1,2.8,2c0.3,0.5,0.5,1.1,0.5,1.6
															c0,0.6,0,1.1,0,1.7c0,1.1-0.1,2.2-0.1,3.4c-0.1,2.2-0.2,4.5-0.2,6.8c-0.2,4.5-0.3,9.1-0.5,13.9c0,0.1-0.1,0.2-0.2,0.2
															c-0.5,0-1.1,0-1.6,0c-39.3,0.6-75.1,0.3-100.8,0.1c-12.9-0.1-23.4-0.2-30.5-0.2c-3.6,0-6.4-0.1-8.3-0.1
															c-0.9,0-1.6,0-2.2,0C102.9,234.6,102.6,234.6,102.6,234.6z"/>
													</g>
												</g>
											</g>
										</g>
									</g>
								</g>
							</g>
						</g>
					</g>
				</g>
			</g>
			<g>
				<g>
					<g>
						<g>
							<g>
								<g>
									<g>
										<g>
											<g>
												<g>
													<path class="st2" d="M139.8,206.8"/>
												</g>
											</g>
										</g>
									</g>
								</g>
							</g>
						</g>
					</g>
				</g>
			</g>
			<g class="st3">
				<g>
					<g>
						<g>
							<g>
								<g>
									<g>
										<g>
											<g>
												<path d="M101.5,234.6c33.9,7.4,50,6.8,81.5,7.4c28.2,0.5,59.3-4.6,63.9-7.6L101.5,234.6z"/>
											</g>
										</g>
									</g>
								</g>
							</g>
						</g>
					</g>
				</g>
			</g>
		</g>
		<g>
			<g>
				<g>
					<path class="st0" d="M102.3,279c0,0,0-0.1,0-0.3c0-0.3,0-0.6,0-1.1c0-1.1,0-2.4,0-4.3c0-3.7,0.1-9.1,0.2-15.7
						c0.2-13.3,0.3-31.6,0.6-51.8c0.2-10.1,0.3-19.8,0.5-28.5c0-2.2-0.2-4.3-0.9-6.2c-0.6-2-1.5-3.7-2.8-5.3c-1.2-1.5-2.6-2.8-4-3.9
						c-1.4-1.1-3-1.8-4.6-2.2c-3.2-1.1-6.2-0.9-8.7-0.3c-2.6,0.6-4.6,1.5-6.1,2.6c-1.4,1.1-2.5,2.2-3,3c-0.6,0.8-0.9,1.2-0.9,1.2
						s0.1-0.1,0.2-0.3c0.1-0.3,0.3-0.5,0.6-0.9c0.6-0.8,1.4-2,3-3.1c1.4-1.1,3.6-2.2,6.2-2.8c2.6-0.5,5.7-0.8,8.9,0.3
						c1.6,0.5,3.2,1.3,4.7,2.3c1.4,1.1,2.9,2.4,4.1,3.9s2.2,3.4,2.8,5.4c0.7,2,0.9,4.2,0.9,6.3c-0.1,8.7-0.3,18.4-0.3,28.5
						c-0.3,20.2-0.6,38.5-0.8,51.8c-0.1,6.6-0.2,12-0.3,15.7c0,1.8-0.1,3.2-0.1,4.3c0,0.5,0,0.9,0,1.1
						C102.3,278.9,102.3,279,102.3,279z"/>
				</g>
			</g>
		</g>
		<g>
			<g>
				<path class="st4" d="M185.3,198.8c0.3-18,2-35.8,5.2-53.5c0.5-2.6,1.1-5.6,3.2-7.4c1.8-1.5,4.3-1.9,6.6-2
					c16.8-1.4,33.9,6.2,49.2,14.3c3.4,1.8,5.3,5.7,4.6,9.5c-2.6,14.6-7.7,25.7-15.3,39.6c-17,6.9-36.1,8.6-54.1,4.8"/>
			</g>
		</g>
		<g>
			<g>
				<g>
					<g>
						<g>
							<g>
								<g>
									<g>
										<g>
											<g>
												<path class="st5" d="M155.2,66.6c-1.1-7.5-1.1-7.3-2-14.5c-1.8-14-6.2-29.9-26.2-28.7c0,0-15.1,0.8-19.7,11.6
													c-2.5,5.8-3.1,25.8-3.9,43.9c0,0.3-0.1,0.6-0.2,0.9l-0.9,2.8c-1.2,3.6-2,7.3-2.2,11.1l-1.3,25.1
													c-0.1,1.7,1.2,3.2,2.9,3.2c6.8,0.3,22.1-0.5,25.1-1.6c12.3-4.5,22-14.2,26.7-26.4c0.3-0.9,4.7-1.2,5.5-1.5
													C160.4,91.9,155.3,68,155.2,66.6z"/>
											</g>
										</g>
									</g>
								</g>
							</g>
						</g>
					</g>
				</g>
				<g>
					<g>
						<g>
							<g>
								<g>
									<g>
										<g>
											<g>
												<g>
													<path class="st6" d="M123.2,29.8l1.3-1.2l13.4,5.7c2,0.2,3.5,1.7,3.5,3.7l-0.8,44c0,3,0.9,6.4-1.1,8.8l-2.2,3.1
														c-4.3,5.7-14.5,3.6-17.9-2.8c-0.3-0.5-0.5-0.9-0.5-1.1c-0.1-0.5-0.2-0.7-0.2-1.1c-0.3-3.5-0.3-6.6-0.3-6.6
														c-0.2-3.9-0.3-5.5-0.3-5.5s-8.2-1.1-10.3-11.7c-1.1-5.3-0.7-12.6-0.3-19.7C108.3,35.5,115.2,29.7,123.2,29.8z"/>
												</g>
											</g>
										</g>
									</g>
								</g>
							</g>
						</g>
					</g>
				</g>
				<g>
					<g>
						<g>
							<g>
								<g>
									<g>
										<g>
											<g>
												<g>
													<g>
														<g>
															<g>
																<g>
																	<g>
																		<g>
																			<g>
																				<g>
																					<path class="st0" d="M125.4,52.6c0,0.7,0.6,1.3,1.4,1.4c0.8,0,1.4-0.6,1.4-1.3s-0.6-1.3-1.4-1.4
																						C125.9,51.4,125.4,51.9,125.4,52.6z"/>
																				</g>
																			</g>
																		</g>
																	</g>
																</g>
															</g>
														</g>
													</g>
												</g>
											</g>
										</g>
									</g>
								</g>
							</g>
						</g>
					</g>
				</g>
				<g>
					<g>
						<g>
							<g>
								<g>
									<g>
										<g>
											<g>
												<g>
													<g>
														<g>
															<g>
																<g>
																	<g>
																		<g>
																			<g>
																				<g>
																					<path class="st0" d="M111.5,52.7c0,0.7,0.6,1.3,1.4,1.4c0.8,0,1.4-0.6,1.4-1.3s-0.6-1.3-1.4-1.4
																						C112.1,51.5,111.5,52,111.5,52.7z"/>
																				</g>
																			</g>
																		</g>
																	</g>
																</g>
															</g>
														</g>
													</g>
												</g>
											</g>
										</g>
									</g>
								</g>
							</g>
						</g>
					</g>
				</g>
				<g>
					<g>
						<g>
							<g>
								<g>
									<g>
										<g>
											<g>
												<g>
													<g>
														<g>
															<g>
																<g>
																	<g>
																		<g>
																			<g>
																				<g>
																					<g>
																						<path class="st0" d="M109.1,48.3c0.2,0.2,1.2-0.6,2.6-0.7c1.4-0.1,2.6,0.7,2.8,0.5c0.1-0.1-0.1-0.5-0.6-0.7
																							c-0.5-0.3-1.3-0.6-2.2-0.6c-0.9,0-1.7,0.5-2.2,0.8C109.2,47.8,109,48.2,109.1,48.3z"/>
																					</g>
																				</g>
																			</g>
																		</g>
																	</g>
																</g>
															</g>
														</g>
													</g>
												</g>
											</g>
										</g>
									</g>
								</g>
							</g>
						</g>
					</g>
				</g>
				<g>
					<g>
						<g>
							<g>
								<g>
									<g>
										<g>
											<g>
												<g>
													<g>
														<g>
															<g>
																<g>
																	<g>
																		<g>
																			<g>
																				<g>
																					<g>
																						<path class="st0" d="M124,48.6c0.2,0.2,1.1-0.8,2.6-0.9c1.4-0.3,2.6,0.3,2.8,0.2c0.1-0.1-0.2-0.5-0.7-0.7
																							c-0.5-0.3-1.4-0.5-2.2-0.3c-0.9,0.2-1.6,0.6-2,0.9C124,48.3,124,48.6,124,48.6z"/>
																					</g>
																				</g>
																			</g>
																		</g>
																	</g>
																</g>
															</g>
														</g>
													</g>
												</g>
											</g>
										</g>
									</g>
								</g>
							</g>
						</g>
					</g>
				</g>
				<g>
					<g>
						<g>
							<g>
								<g>
									<g>
										<g>
											<g>
												<g>
													<g>
														<g>
															<g>
																<g>
																	<g>
																		<g>
																			<g>
																				<g>
																					<path class="st0" d="M118.8,59.4c0-0.1-0.9-0.2-2.4-0.3c-0.3,0-0.8-0.1-0.8-0.3c-0.1-0.3,0.1-0.7,0.2-1.1
																						c0.3-0.9,0.7-1.9,1.1-2.9c1.4-4.1,2.4-7.5,2.2-7.6c-0.2-0.1-1.4,3.2-2.8,7.4c-0.3,1.1-0.7,2-0.9,2.9
																						c-0.1,0.5-0.3,0.9-0.2,1.4c0.1,0.3,0.5,0.5,0.6,0.5c0.3,0.1,0.5,0.1,0.7,0.1C117.8,59.5,118.8,59.4,118.8,59.4
																						z"/>
																				</g>
																			</g>
																		</g>
																	</g>
																</g>
															</g>
														</g>
													</g>
												</g>
											</g>
										</g>
									</g>
								</g>
							</g>
						</g>
					</g>
				</g>
				<g>
					<g>
						<g>
							<g>
								<g>
									<g>
										<g>
											<g>
												<g>
													<g>
														<g>
															<g>
																<g>
																	<g>
																		<g>
																			<g>
																				<path class="st7" d="M118.4,76.8c0,0,7.2,0.2,14.2-4.3c0,0-3.4,7.5-14.1,6.9L118.4,76.8z"/>
																			</g>
																		</g>
																	</g>
																</g>
															</g>
														</g>
													</g>
												</g>
											</g>
										</g>
									</g>
								</g>
							</g>
						</g>
					</g>
				</g>
				<g>
					<g>
						<g>
							<g>
								<g>
									<g>
										<g>
											<g>
												<g>
													<g>
														<g>
															<g>
																<g>
																	<g>
																		<g>
																			<g>
																				<path class="st7" d="M119.5,62.9c0.5-0.7,1.4-1.1,2.3-1.1c0.7,0.1,1.3,0.3,1.7,0.9c0.4,0.5,0.5,1.3,0.2,1.8
																					c-0.3,0.6-1.2,0.8-1.9,0.6c-0.7-0.2-1.4-0.6-2-1.1c-0.2-0.1-0.3-0.3-0.5-0.5C119.4,63.4,119.4,63.1,119.5,62.9"
																					/>
																			</g>
																		</g>
																	</g>
																</g>
															</g>
														</g>
													</g>
												</g>
											</g>
										</g>
									</g>
								</g>
							</g>
						</g>
					</g>
				</g>
				<g>
					<g>
						<g>
							<g>
								<g>
									<g>
										<g>
											<g>
												<g>
													<g>
														<g>
															<g>
																<g>
																	<g>
																		<g>
																			<g>
																				<g>
																					<path class="st0" d="M123.2,60.2c-0.3,0-0.2,1.6-1.5,2.8c-1.4,1.2-3.1,1.1-3.1,1.3c0,0.1,0.5,0.3,1.1,0.3
																						c0.7,0,1.7-0.3,2.6-1.1c0.8-0.8,1.1-1.7,1.2-2.3C123.4,60.6,123.3,60.2,123.2,60.2z"/>
																				</g>
																			</g>
																		</g>
																	</g>
																</g>
															</g>
														</g>
													</g>
												</g>
											</g>
										</g>
									</g>
								</g>
							</g>
						</g>
					</g>
				</g>
				<g>
					<g>
						<g>
							<g>
								<g>
									<g>
										<g>
											<g>
												<g>
													<g>
														<g>
															<g>
																<g>
																	<path class="st0" d="M122.8,41.5c0.2,0.3,1.6,0,3.4-0.1c1.7-0.1,3.2,0.3,3.4-0.2c0.1-0.2-0.3-0.5-0.9-0.9
																		c-0.6-0.3-1.5-0.5-2.6-0.5s-2,0.3-2.6,0.7C123,40.9,122.7,41.3,122.8,41.5z"/>
																</g>
															</g>
														</g>
													</g>
												</g>
											</g>
										</g>
									</g>
								</g>
							</g>
						</g>
					</g>
				</g>
				<g>
					<g>
						<g>
							<g>
								<g>
									<g>
										<g>
											<g>
												<g>
													<g>
														<g>
															<g>
																<g>
																	<path class="st0" d="M109.4,42c0.3,0.3,1.3-0.1,2.5-0.1c1.2-0.1,2.3,0.2,2.5-0.3c0.1-0.2-0.1-0.5-0.5-0.8
																		c-0.5-0.3-1.2-0.5-2-0.5c-0.9,0.1-1.5,0.5-2,0.8C109.4,41.5,109.2,41.8,109.4,42z"/>
																</g>
															</g>
														</g>
													</g>
												</g>
											</g>
										</g>
									</g>
								</g>
							</g>
						</g>
					</g>
				</g>
				<g>
					<g>
						<g>
							<g>
								<g>
									<g>
										<g>
											<g>
												<g>
													<path class="st5" d="M140.8,56.8c0,0-7.6,2.2-11.6-16.5c-1.4-6.4-7.2-11.6-7.2-11.6l2.4-0.7c0,0,14.9,4.5,15.1,4.6
														c0.3,0.1,3.7,7.8,3.7,7.8L140.8,56.8z"/>
												</g>
											</g>
										</g>
									</g>
								</g>
							</g>
						</g>
					</g>
				</g>
				<g>
					<g>
						<g>
							<g>
								<g>
									<g>
										<g>
											<g>
												<g>
													<path class="st6" d="M139,56c0-0.8,0.9-2.8,1.6-2.8c2-0.5,5.9-0.3,6.1,4.9c0.3,7.3-7.1,6.1-7.1,5.9
														C139.6,63.9,139.1,58.8,139,56z"/>
												</g>
											</g>
										</g>
									</g>
								</g>
							</g>
						</g>
					</g>
				</g>
				<g>
					<g>
						<g>
							<g>
								<g>
									<g>
										<g>
											<g>
												<g>
													<path class="st7" d="M141.8,61.1c0,0,0.2,0.1,0.3,0.2c0.2,0.1,0.6,0.2,0.9,0c0.8-0.3,1.4-1.5,1.4-2.9
														c0-0.7-0.2-1.3-0.5-1.8s-0.6-0.9-1.1-0.9c-0.5-0.1-0.7,0.2-0.8,0.3c-0.1,0.2,0,0.3-0.1,0.3c0,0-0.2-0.1-0.1-0.5
														c0-0.2,0.1-0.3,0.3-0.5s0.5-0.3,0.7-0.3c0.6,0,1.1,0.5,1.4,1.1c0.3,0.6,0.5,1.3,0.5,2c0,1.4-0.7,2.9-1.7,3.2
														C142.5,61.5,142.1,61.3,141.8,61.1C141.8,61.3,141.7,61.2,141.8,61.1z"/>
												</g>
											</g>
										</g>
									</g>
								</g>
							</g>
						</g>
					</g>
				</g>
				<g>
					<g>
						<g>
							<g>
								<g>
									<g>
										<g>
											<g>
												<g>
													<path class="st0" d="M135.7,53.1c0,0-0.5,0-1.1-0.3c-0.7-0.2-1.6-0.7-2.6-1.5c-0.5-0.5-0.9-0.9-1.4-1.6
														c-0.5-0.6-0.8-1.4-1.1-2.2c-0.6-1.5-1.1-3.4-1.4-5.3c-0.5-1.9-1.1-3.7-1.6-5.3c-0.6-1.6-1.2-3-1.9-4.1
														c-0.6-1.1-1.2-2-1.6-2.6c-0.2-0.3-0.5-0.5-0.5-0.7c-0.1-0.2-0.2-0.3-0.2-0.3s0.1,0.1,0.2,0.3c0.1,0.2,0.3,0.3,0.5,0.7
														c0.5,0.6,0.9,1.4,1.5,2.6c0.6,1.1,1.2,2.6,1.8,4.1c0.6,1.6,1.1,3.4,1.6,5.3s0.9,3.7,1.5,5.3c0.3,0.8,0.7,1.5,1.1,2.2
														c0.5,0.6,0.9,1.2,1.4,1.6c0.9,0.9,2,1.4,2.6,1.5C135.4,53.1,135.7,53.1,135.7,53.1z"/>
												</g>
											</g>
										</g>
									</g>
								</g>
							</g>
						</g>
					</g>
				</g>
			</g>
			<g>
				<g>
					<g>
						<g>
							<g>
								<path class="st8" d="M157.6,92.4l-16.2-6.2l-23.1-5.1l-18.7,2.5c-3.9,0.1-10.7,8.3-15.9,17.2c-4.6,8-8.3,15.9-8.3,15.9
									l21.6,8.2c1.2,9.3,3.1,21.4,4.6,26.2c2.6,8.2,3.5,19.4,3.5,19.4l51.5-6.6l0.7-35.3l17-2.2
									C174.4,125.1,167.8,95.5,157.6,92.4z"/>
							</g>
						</g>
						<g>
							<g>
								<path class="st0" d="M156.4,106.6c0,0,0,0.3,0.1,0.9s0.2,1.4,0.3,2.4c0.3,2,0.5,4.9,0.5,8s-0.3,5.9-0.5,8
									c-0.2,1.1-0.3,1.8-0.3,2.4c-0.1,0.6-0.1,0.9-0.1,0.9s0.1-0.3,0.3-0.9c0.2-0.6,0.3-1.4,0.5-2.4c0.3-2,0.6-4.9,0.6-8
									s-0.3-6-0.6-8c-0.2-1.1-0.3-1.8-0.5-2.4C156.6,106.8,156.5,106.6,156.4,106.6z"/>
							</g>
						</g>
					</g>
					<g>
						<g>
							<g>
								<g>
									<path class="st6" d="M173.8,126.8l-16.7,1.8l0.3,4.6l-3.7-5.3l-5.7,11.6c0,0,2.2,6.8,3.5,10.5c3.2,10,8.5,21.3,14.5,20.5
										c7.3-0.9,12.5-9.7,12.2-15.3C178,150.2,173.8,126.8,173.8,126.8z"/>
								</g>
							</g>
						</g>
					</g>
					<g>
						<g>
							<g>
								<polygon class="st6" points="181.5,193.4 210.5,204.8 199.5,218.1 174.9,213.8 								"/>
							</g>
						</g>
						<g>
							<g>
								<path class="st0" d="M105.4,169.9c0,0-0.8,33,2.3,38.9c3,5.7,32.4,6,32.4,6l46.2,2.3l5.4-21.6c0,0-33.6-15.6-36.8-17.4
									c-3.2-1.8-10.7-4.9-10.7-4.9l-11.3-14.5L105.4,169.9z"/>
							</g>
						</g>
						<g>
							<g>
								<path class="st9" d="M158.8,215c0,0-0.1-0.1-0.3-0.2c-0.3-0.1-0.6-0.2-1.1-0.3c-0.9-0.3-2.3-0.6-3.9-1.1
									c-3.4-0.9-8-2.2-13.3-3.5l0,0l0,0c-0.7,0-1.4,0-2.2-0.2c-0.8-0.1-1.4-0.3-2.2-0.3c-0.7-0.2-1.4-0.3-2-0.6
									c-1.3-0.5-2.5-1.1-3.6-1.7c-2.2-1.4-3.9-2.9-5.1-4.3c-1.3-1.4-2-2.8-2.6-3.9c-0.3-0.5-0.5-0.9-0.5-1.1
									c-0.1-0.3-0.2-0.5-0.2-0.5s0,0.2,0.2,0.5c0.1,0.3,0.3,0.7,0.5,1.2c0.5,1.1,1.2,2.4,2.5,3.9c1.2,1.5,3,3.2,5.2,4.5
									c1.1,0.7,2.3,1.3,3.7,1.8c0.7,0.3,1.4,0.5,2,0.6c0.7,0.2,1.4,0.3,2.2,0.3c0.8,0.1,1.5,0.1,2.3,0.2h-0.1
									c5.2,1.4,9.9,2.6,13.4,3.4c1.6,0.5,3,0.8,4,0.9c0.5,0.1,0.8,0.2,1.1,0.3C158.6,215,158.8,215,158.8,215z"/>
							</g>
						</g>
						<g>
							<g>
								<path class="st0" d="M157.5,180l7.9-48.1c0,0-1.1-34.7,18.4-32.2c19.4,2.5,17.1,33,17.1,33s-2.5,41.8-3.9,47.8
									c-1.4,6.1-2,12.8-6.1,15.1l-17.6-2.8L157.5,180z"/>
							</g>
						</g>
						<g>
							<g>
								<path class="st0" d="M172.6,108.4l-4.7,11.4l2.9,43.5c0,0,25.1,2.2,24.8,1.4c-0.3-0.7,4.5-21.6,4.5-21.6s1.5-27.8-5.9-33.1
									C186.9,104.7,172.6,108.4,172.6,108.4z"/>
							</g>
						</g>
						<g>
							<g>
								<path class="st6" d="M171.8,163.3l0.3,20.7l17.6,9.6l4.7-28.7L171.8,163.3z"/>
							</g>
						</g>
						<g>
							<g>
								<polygon class="st0" points="132.8,158.5 151.9,150.6 163.3,160.9 157,181.2 140.2,175 								"/>
							</g>
						</g>
						<g>
							<g>
								<path class="st9" d="M190.5,195.4c0,0-0.1-0.1-0.3-0.2c-0.2-0.1-0.5-0.2-0.7-0.3c-0.6-0.3-1.5-0.8-2.8-1.3
									c-2.4-1.1-5.8-2.8-10-4.8s-9.3-4.3-14.8-7c-2.8-1.3-5.7-2.8-8.7-4.2c-1.5-0.7-3.1-1.4-4.6-2.2c-0.8-0.3-1.5-0.8-2.4-1.1
									c-0.5-0.2-0.8-0.3-1.2-0.6c-0.5-0.2-0.8-0.5-1.2-0.5c-1.7-0.6-3.4-0.9-5.2-1.1c-1.7-0.1-3.5,0-5.1,0.3
									c-3.4,0.6-6.4,1.9-9,3.6c-2.6,1.6-4.8,3.7-6.6,5.7c-1.8,2.2-3.2,4.3-4.3,6.3c-2.3,4.1-3.6,7.7-4.3,10.2
									c-0.5,1.3-0.7,2.2-0.9,2.9c-0.1,0.3-0.2,0.6-0.2,0.8c-0.1,0.2-0.1,0.3-0.1,0.3s0-0.1,0.1-0.3s0.2-0.5,0.3-0.8
									c0.2-0.7,0.5-1.6,0.9-2.8c0.9-2.5,2.2-6,4.5-10.1c1.2-2,2.6-4.1,4.3-6.2c1.8-2,3.9-4.1,6.6-5.7c2.6-1.6,5.7-2.9,8.9-3.5
									c1.6-0.3,3.4-0.5,5.1-0.3c1.7,0.1,3.4,0.5,5.1,1.1c0.5,0.1,0.9,0.3,1.2,0.5c0.5,0.2,0.8,0.3,1.2,0.6
									c0.8,0.3,1.6,0.8,2.4,1.1c1.5,0.8,3.1,1.4,4.6,2.2c3,1.4,6,2.8,8.7,4.1c5.6,2.6,10.6,4.9,14.8,7c4.2,2,7.6,3.6,10,4.7
									c1.2,0.5,2,0.9,2.8,1.3c0.3,0.2,0.5,0.3,0.7,0.3H190.5z"/>
							</g>
						</g>
						<g>
							<g>
								<path class="st9" d="M154.1,178.5c0.1,0-0.2-1.2,0.3-3.2c0.3-1.9,1.3-4.5,2.8-7.1c1.4-2.6,2.8-5.1,3.2-6.9
									c0.3-0.9,0.5-1.7,0.5-2.3c0.1-0.5,0.1-0.9,0.1-0.9c-0.1,0-0.2,1.2-0.9,3.1c-0.6,1.9-2,4.2-3.4,6.8s-2.4,5.2-2.6,7.2
									c-0.2,0.9-0.2,1.8-0.1,2.3C154,178.2,154,178.5,154.1,178.5z"/>
							</g>
						</g>
						<g>
							<g>
								<path class="st9" d="M200.1,143.1c0,0,0,0.1-0.1,0.3s-0.1,0.5-0.2,0.7c-0.2,0.6-0.3,1.4-0.6,2.6c-0.5,2.2-1.3,5.5-2.2,9.5
									c-0.5,2-0.9,4.2-1.4,6.6c-0.1,0.6-0.3,1.2-0.3,1.8c0,0.1,0,0.2,0,0.3v0.1c0,0,0,0,0-0.1s0,0,0-0.1c0,0,0,0-0.1,0
									c-0.2,0-0.3,0-0.5,0c-0.3,0-0.6,0-0.9,0c-1.3,0-2.6-0.1-3.9-0.2c-5.4-0.3-11.4-0.8-17.6-1.3c-0.6-0.1-1.2-0.1-1.7-0.2
									l0.2,0.2c-0.9-12-1.5-23-2.2-30.8c-0.3-3.9-0.5-7-0.7-9.3c-0.1-1.1-0.2-1.9-0.2-2.5c0-0.3-0.1-0.5-0.1-0.7s0-0.3,0-0.3
									s0,0.1,0,0.3c0,0.2,0,0.3,0,0.7c0,0.6,0.1,1.4,0.2,2.5c0.2,2.2,0.3,5.4,0.6,9.3c0.5,7.9,1.2,18.7,2,30.8v0.2h0.2
									c0.5,0.1,1.1,0.1,1.7,0.2c6.2,0.5,12.2,0.9,17.6,1.3c1.4,0.1,2.6,0.2,3.9,0.2c0.3,0,0.7,0,0.9,0s0.3,0,0.5-0.1
									c0.1,0,0.1,0,0.2-0.1c0,0,0,0,0.1-0.1v-0.1c0,0-0.1,0,0,0l0,0v-0.2c0.1-0.6,0.2-1.2,0.3-1.8c0.5-2.4,0.9-4.5,1.3-6.6
									c0.9-4,1.5-7.2,2-9.5c0.3-1.1,0.5-2,0.5-2.6c0.1-0.3,0.1-0.5,0.2-0.7C200.1,143.2,200.1,143.1,200.1,143.1z"/>
							</g>
						</g>
						<g>
							<g>
								<path class="st9" d="M177.1,105.2c0,0-0.3,0.2-0.6,0.5s-0.9,0.9-1.4,1.4c-1.1,1.3-2.5,3.2-3.7,5.5s-2,4.5-2.4,6.2
									c-0.2,0.9-0.3,1.5-0.5,2c-0.1,0.5-0.1,0.8-0.1,0.8c0.1,0,0.3-1.1,0.8-2.6c0.5-1.6,1.3-3.9,2.4-6.1c1.2-2.3,2.6-4.2,3.6-5.5
									C176.3,106,177.1,105.2,177.1,105.2z"/>
							</g>
						</g>
						<g>
							<g>
								<path class="st9" d="M148.4,173.1c0,0,0-0.3-0.1-0.7s-0.3-1.1-0.5-1.9c-0.5-1.5-1.3-3.7-2.4-5.8c-1.1-2.2-2.4-4.1-3.4-5.4
									c-0.5-0.7-0.9-1.2-1.2-1.4c-0.3-0.3-0.5-0.5-0.5-0.5s0.6,0.9,1.4,2.2c0.9,1.3,2,3.2,3.2,5.4c1.1,2.2,2,4.3,2.5,5.7
									C148.1,172.1,148.4,173.1,148.4,173.1z"/>
							</g>
						</g>
						<g>
							<g>
								<path class="st9" d="M116.9,170.5c-0.1,0-0.3,0.8-0.9,1.9c-0.5,1.1-1.4,2.6-2.6,4.2c-1.2,1.5-2.5,2.8-3.4,3.5
									c-0.9,0.8-1.6,1.2-1.6,1.3c0,0,0.2-0.1,0.5-0.3s0.8-0.5,1.3-0.9c1.1-0.8,2.4-2,3.6-3.5s2-3.2,2.5-4.3
									c0.3-0.6,0.5-1.1,0.5-1.4C116.9,170.7,116.9,170.5,116.9,170.5z"/>
							</g>
						</g>
						<g>
							<g>
								<path class="st10" d="M210.1,218.4c10.8-0.5,13.5-0.2,24.3-0.8c2.6-0.2,12.2,0.2,14.5-1.3c2-1.3,4.6-2.6,5.1-4.9
									c0.9-3.9-0.2-8.5-3.9-10.9c-1.3-0.9-2.8-1.4-4.3-1.4c-6.3-0.5-12.2,4.1-18.5,2.8c-1.7-0.3-3.2-1.4-4.9-1.7
									c-2.5-0.6-5.1,0-7.4,1.2c-2.3,1.2-2.8,1.4-2.8,1.4l-11.4-3.9l-3.5,19.9L210.1,218.4z"/>
							</g>
						</g>
						<g>
							<g>
								<g>
									<g>
										<g>
											<g>
												<g>
													<g>
														<g>
															<g>
																<path class="st10" d="M200.5,194.2l6,2c0.9,0.3,1.4,1.2,1.3,2.2l-4.6,21.3c-0.2,0.9-1.1,1.5-2,1.4l-6.1-0.7
																	c-1.1-0.1-1.9-1.2-1.6-2.2l4.7-22.6C198.3,194.5,199.4,193.9,200.5,194.2z"/>
															</g>
														</g>
													</g>
												</g>
											</g>
										</g>
									</g>
								</g>
							</g>
						</g>
						<g>
							<g>
								<g>
									<g>
										<g>
											<g>
												<g>
													<g>
														<g>
															<g>
																<g>
																	<path class="st0" d="M203,220.4c0.1,0,0.5-1.2,1.1-3.2s1.4-4.8,2-7.9c0.7-3.1,1.1-6,1.4-8c0.1-1.1,0.2-1.9,0.3-2.5
																		c0-0.6,0-0.9,0-0.9c-0.1,0-0.3,1.3-0.6,3.4s-0.9,4.9-1.5,8s-1.4,5.9-1.9,7.9C203.2,219.2,202.8,220.4,203,220.4z"
																		/>
																</g>
															</g>
														</g>
													</g>
												</g>
											</g>
										</g>
									</g>
								</g>
							</g>
						</g>
						<g>
							<g>
								<g>
									<g>
										<g>
											<g>
												<g>
													<g>
														<g>
															<g>
																<g>
																	<path class="st0" d="M206.7,201c0.1-0.1-1.7-1.6-4.5-2s-4.9,0.5-4.9,0.5c0,0.2,2.2-0.5,4.9,0
																		C204.7,199.9,206.7,201.2,206.7,201z"/>
																</g>
															</g>
														</g>
													</g>
												</g>
											</g>
										</g>
									</g>
								</g>
							</g>
						</g>
						<g>
							<g>
								<g>
									<g>
										<g>
											<g>
												<g>
													<g>
														<g>
															<g>
																<g>
																	<path class="st0" d="M206.1,209.1c0-0.2-2.2-0.9-5.1-1.5c-2.8-0.7-5.2-0.9-5.2-0.8c0,0.2,2.3,0.6,5.1,1.3
																		C203.7,208.7,205.9,209.3,206.1,209.1z"/>
																</g>
															</g>
														</g>
													</g>
												</g>
											</g>
										</g>
									</g>
								</g>
							</g>
						</g>
						<g>
							<g>
								<g>
									<g>
										<g>
											<g>
												<g>
													<g>
														<g>
															<g>
																<g>
																	<path class="st0" d="M203.3,217.3c0-0.2-2.3,0.1-4.9-0.9c-2.6-1.1-4-2.9-4.1-2.8c-0.1,0,0.3,0.5,0.9,1.2
																		c0.7,0.7,1.7,1.4,3.1,2c1.4,0.5,2.6,0.8,3.6,0.7C202.7,217.6,203.3,217.5,203.3,217.3z"/>
																</g>
															</g>
														</g>
													</g>
												</g>
											</g>
										</g>
									</g>
								</g>
							</g>
						</g>
						<g>
							<g>
								<polygon class="st10" points="171.4,177.4 171.8,186.4 189.7,195 192.7,180 								"/>
							</g>
						</g>
						<g>
							<g>
								<g>
									<g>
										<g>
											<g>
												<g>
													<g>
														<g>
															<g>
																<path class="st10" d="M195.7,174.8l-1.4,6.2c-0.2,0.9-1.1,1.6-2,1.4l-22.1-2.4c-0.9-0.1-1.7-0.9-1.7-1.9l0.1-6.2
																	c0-1.1,0.9-2,2.2-1.9l23.4,2.4C195.1,172.6,195.9,173.7,195.7,174.8z"/>
															</g>
														</g>
													</g>
												</g>
											</g>
										</g>
									</g>
								</g>
							</g>
						</g>
						<g>
							<g>
								<g>
									<g>
										<g>
											<g>
												<g>
													<g>
														<g>
															<g>
																<g>
																	<path class="st0" d="M169.3,180c0,0.1,1.3,0.3,3.4,0.8c2,0.5,4.9,0.9,8.2,1.3c3.2,0.3,6.2,0.5,8.3,0.5
																		c1.1,0,1.9,0,2.5,0s0.9-0.1,0.9-0.1c0-0.1-1.3-0.2-3.4-0.3c-2.2-0.1-5.1-0.3-8.2-0.7s-6.1-0.8-8.2-1.1
																		C170.6,180.2,169.3,180,169.3,180z"/>
																</g>
															</g>
														</g>
													</g>
												</g>
											</g>
										</g>
									</g>
								</g>
							</g>
						</g>
						<g>
							<g>
								<g>
									<g>
										<g>
											<g>
												<g>
													<g>
														<g>
															<g>
																<g>
																	<path class="st0" d="M189.4,181.8c0.1,0.1,1.4-1.9,1.5-4.8c0.2-2.9-0.9-4.9-1.1-4.9c-0.2,0.1,0.7,2.2,0.5,4.9
																		C190.3,179.7,189.3,181.7,189.4,181.8z"/>
																</g>
															</g>
														</g>
													</g>
												</g>
											</g>
										</g>
									</g>
								</g>
							</g>
						</g>
						<g>
							<g>
								<g>
									<g>
										<g>
											<g>
												<g>
													<g>
														<g>
															<g>
																<g>
																	<path class="st0" d="M181.1,181.9c0.2,0,0.7-2.3,1.1-5.2c0.3-2.9,0.5-5.3,0.3-5.4c-0.2,0-0.5,2.4-0.8,5.3
																		C181.4,179.5,181.1,181.9,181.1,181.9z"/>
																</g>
															</g>
														</g>
													</g>
												</g>
											</g>
										</g>
									</g>
								</g>
							</g>
						</g>
						<g>
							<g>
								<g>
									<g>
										<g>
											<g>
												<g>
													<g>
														<g>
															<g>
																<g>
																	<path class="st0" d="M172.4,180c0.2,0-0.3-2.3,0.5-5.1s2.5-4.3,2.4-4.5c0-0.1-0.5,0.3-1.1,1.1s-1.3,1.9-1.7,3.2
																		c-0.5,1.4-0.5,2.8-0.3,3.7C172.1,179.5,172.4,180,172.4,180z"/>
																</g>
															</g>
														</g>
													</g>
												</g>
											</g>
										</g>
									</g>
								</g>
							</g>
						</g>
					</g>
				</g>
			</g>
			<g>
				<g>
					<path class="st6" d="M131.5,111.6c0,0,9.1,1.3,9.7,1.9s12.3,14.4,12.3,14.4l-5.7,11.6c0,0-9.3-4.8-10.3-5.3
						c-1.1-0.5-3.2-1.1-3.2-1.1s-10.3-1.4-11.1-2.6c-0.7-1.2-0.3-1.5,0.5-1.7s6.9,0.3,8.4,0.6c1.4,0.3,4.1-0.1,4.1-0.1
						s-4.3-0.9-5.3-1.2c-0.9-0.3-10.7-2.3-10.5-4c0.1-1.7,1.3-2.4,7.4-0.9s10.2,1.4,10.2,1.4l-13.4-4.3c0,0-5.4-1.6-3.7-3.2
						c1.7-1.5,13.3,1.4,13.3,1.4l5.1,1.8l-1.5-3.1c0,0-7.3-2-8.2-2.6c-1.2-0.9-1.4-1.7-0.5-2.5C129.8,111.2,131.5,111.6,131.5,111.6
						z"/>
				</g>
			</g>
			<g>
				<g>
					<g>
						<path class="st0" d="M100.3,97c0,0,0,0.3-0.1,1.1c-0.1,0.8-0.3,1.7-0.5,2.8c-0.5,2.3-0.9,5.6-1.4,9.1
							c-0.5,3.6-0.8,6.8-1.1,9.1c-0.1,1.1-0.2,2-0.3,2.8c-0.1,0.7-0.1,1.1-0.2,1.1c0,0,0-0.3,0-1.1c0-0.7,0.1-1.6,0.1-2.8
							c0.2-2.4,0.5-5.7,0.9-9.3c0.5-3.6,1.1-6.8,1.5-9.1c0.3-1.2,0.5-2.2,0.6-2.8C100.2,97.4,100.3,97,100.3,97z"/>
					</g>
				</g>
			</g>
			<g>
				<g>
					<path class="st5" d="M160.7,97.9c0-0.3-2.3-14.3-3.4-19.3l-16.8,2.6c-0.3,2-0.3,9.3-0.3,11.7c0.1,2.5,0.7,4.9,2.3,6.8
						s4.2,2.9,6.6,2.2c1.4,1.8,3.2,3.4,5.5,3.7c2.2,0.3,4.8-0.8,5.5-3C160.7,101.3,160.9,99.5,160.7,97.9z"/>
				</g>
			</g>
			<g>
				<g>
					<g>
						<g>
							<g>
								<path class="st11" d="M136.4,99.9l-2.6,25.6c-0.1,0.9-0.9,1.5-1.7,1.4l-15.9-1.3c-0.9-0.1-1.5-0.9-1.4-1.7l1.9-26.9
									c0.1-0.9,0.9-1.6,1.9-1.4l16.6,2.6C135.9,98.3,136.5,99,136.4,99.9z"/>
							</g>
						</g>
						<g>
							<g>
								<path class="st6" d="M122.9,108.4c0,0-9.3-0.3-9.9,0.3c-0.7,0.5-14.5,12.2-14.5,12.2l3.6,12.4c0,0,10-3.2,11.1-3.6
									c1.1-0.3,3.4-0.5,3.4-0.5s10.5,0.3,11.4-0.8c0.9-1.1,0.6-1.4-0.2-1.8c-0.7-0.3-6.9-0.8-8.3-0.8s-4-0.8-4-0.8
									s4.5-0.2,5.4-0.3c1.1-0.2,10.9-0.5,11.1-2.2s-0.9-2.6-7.1-2c-6.2,0.5-10.3-0.3-10.3-0.3l13.9-2.2c0,0,5.6-0.7,4.2-2.6
									c-1.4-1.8-13.4-0.9-13.4-0.9l-5.4,0.9l2-2.8c0,0,7.5-0.8,8.6-1.3c1.3-0.7,1.6-1.4,0.9-2.3
									C124.8,108.3,122.9,108.4,122.9,108.4z"/>
							</g>
						</g>
						<g>
							<g>
								<path class="st6" d="M79.1,118l15.5,5.8l-0.3,2.2l4.6-5.6l4.3,11.1c0,0-7.2,14.1-8.7,17.8C90,159.8,82,165.2,76.3,162.9
									c-6.8-2.8-10.8-10-7.6-18.1C70.6,140.2,79.1,118,79.1,118z"/>
							</g>
						</g>
					</g>
					<g>
						<g>
							<path class="st7" d="M98.6,120.8c0,0,0.1-0.1,0.3-0.3s0.7-0.6,1.1-0.9c1.1-0.9,2.5-2.2,4.3-3.7c1.9-1.6,4.3-3.6,6.9-5.9
								c0.3-0.3,0.7-0.6,1.1-0.9c0.2-0.2,0.3-0.3,0.5-0.5c0.3-0.2,0.5-0.2,0.8-0.2c0.9-0.1,1.9-0.1,2.9-0.2c2,0,4.1,0,6.3,0l0,0
								c0.6,0,1.1,0.1,1.7,0.3c0.3,0.1,0.5,0.3,0.8,0.5c0.3,0.3,0.5,0.5,0.5,0.8c0.1,0.3,0.1,0.7-0.1,0.9s-0.5,0.5-0.7,0.7
								c-0.3,0.2-0.5,0.3-0.9,0.5c-0.3,0.1-0.6,0.2-0.9,0.3c-2.4,0.5-4.9,0.8-7.4,1.1l0.1-0.1c-0.6,0.9-1.3,1.8-2,2.8l-0.2-0.3
								c1.7-0.3,3.5-0.6,5.4-0.9l0,0c2.2-0.2,4.5-0.3,6.9-0.3c1.2,0,2.4,0.1,3.6,0.2c0.6,0.1,1.2,0.2,1.8,0.3
								c0.3,0.1,0.6,0.2,0.9,0.5c0.3,0.2,0.5,0.5,0.5,0.9c0,0.5-0.3,0.8-0.5,0.9c-0.3,0.2-0.5,0.3-0.9,0.5c-0.6,0.3-1.2,0.5-1.8,0.5
								c-1.2,0.3-2.5,0.5-3.7,0.6c-2.5,0.3-5.1,0.8-7.5,1.1c-1.4,0.2-2.8,0.5-4.1,0.6v-0.5c3.2,0.5,6.4,0.5,9.5,0.3
								c1.5-0.1,3.1-0.3,4.7-0.2c0.8,0,1.5,0.1,2.3,0.5c0.3,0.2,0.8,0.5,0.9,0.9c0.2,0.5,0.2,0.8,0.2,1.2c-0.1,0.3-0.3,0.5-0.5,0.5
								c-0.2,0.1-0.3,0.3-0.5,0.3c-0.3,0.2-0.7,0.3-1.1,0.3c-0.7,0.2-1.4,0.3-2.2,0.5c-1.4,0.3-2.9,0.3-4.3,0.5
								c-0.7,0.1-1.4,0.1-2,0.2c-0.7,0.1-1.4,0.2-2,0.2c-1.4,0.1-2.8,0.2-4,0.2v-0.3c1.4,0.5,3,0.8,4.5,0.8c1.4,0.1,2.9,0.2,4.3,0.3
								c0.7,0.1,1.4,0.2,2,0.3c0.3,0.1,0.7,0.1,1.1,0.2c0.2,0,0.3,0.1,0.5,0.2s0.3,0.2,0.5,0.3c0.2,0.1,0.3,0.3,0.3,0.5
								c0,0.2-0.1,0.5-0.1,0.5c-0.1,0.2-0.2,0.3-0.3,0.5l-0.2,0.2c-0.1,0.1-0.2,0.2-0.3,0.2c-0.6,0.3-1.3,0.3-1.9,0.5
								c-2.5,0.3-4.9,0.3-7.1,0.3c-0.5,0-1.1,0-1.6,0s-1.1,0-1.5,0c-1.1,0.1-2,0.2-2.8,0.5c-3.4,1.1-6.2,2-8,2.6
								c-0.9,0.3-1.6,0.5-2.2,0.7c-0.3,0.1-0.5,0.1-0.5,0.2c-0.1,0-0.2,0.1-0.2,0.1s0.1,0,0.2-0.1c0.2-0.1,0.3-0.1,0.5-0.2
								c0.5-0.2,1.2-0.5,2.2-0.7c1.9-0.6,4.5-1.4,8-2.6c1.7-0.6,3.9-0.5,6-0.5s4.5,0,7-0.3c0.6-0.1,1.3-0.2,1.8-0.5
								c0.1,0,0.1-0.1,0.2-0.1l0.2-0.2c0.1-0.2,0.2-0.3,0.3-0.5c0.2-0.3,0.2-0.5-0.1-0.7c-0.1-0.1-0.3-0.2-0.5-0.3
								c-0.2-0.1-0.3-0.1-0.5-0.1c-0.3-0.1-0.7-0.1-1.1-0.2c-0.7-0.1-1.4-0.2-2-0.2c-1.4-0.1-2.8-0.3-4.3-0.3s-3-0.3-4.5-0.8
								c-0.1,0-0.2-0.1-0.1-0.2c0-0.1,0.1-0.1,0.2-0.1l0,0c1.3-0.1,2.6-0.2,4-0.3c0.7,0,1.4-0.2,2-0.2c0.7-0.1,1.4-0.1,2-0.2
								c1.4-0.1,2.8-0.3,4.3-0.5c0.7-0.1,1.4-0.3,2.2-0.5c0.3-0.1,0.7-0.2,1.1-0.3c0.3-0.2,0.7-0.3,0.7-0.6c0.1-0.3,0-0.7-0.1-1.1
								c-0.2-0.3-0.5-0.5-0.8-0.7c-0.7-0.3-1.4-0.3-2.2-0.5c-1.5-0.1-3.1,0.1-4.6,0.2c-3.2,0.2-6.3,0.2-9.6-0.3
								c-0.1,0-0.2-0.1-0.2-0.2s0.1-0.2,0.2-0.2l0,0c1.4-0.2,2.8-0.5,4.1-0.6c2.6-0.5,5.1-0.8,7.5-1.1c1.3-0.2,2.5-0.3,3.7-0.6
								c0.6-0.2,1.2-0.3,1.7-0.5c0.3-0.1,0.5-0.3,0.8-0.5s0.3-0.5,0.3-0.6c-0.1-0.5-0.6-0.8-1.2-0.9c-0.6-0.2-1.1-0.3-1.7-0.3
								c-1.2-0.2-2.4-0.2-3.5-0.2c-2.3,0-4.6,0.1-6.8,0.3l0,0c-1.9,0.3-3.7,0.7-5.4,0.9c-0.1,0-0.2-0.1-0.2-0.2s0-0.1,0-0.1
								c0.7-0.9,1.4-1.9,2-2.8l0.1-0.1c2.6-0.3,5.1-0.5,7.4-1.1c0.3-0.1,0.6-0.1,0.9-0.2s0.5-0.3,0.8-0.5c0.5-0.3,0.8-0.8,0.6-1.3
								c-0.2-0.5-0.6-0.9-1.1-1.1s-1.1-0.3-1.5-0.3l0,0l0,0c-2.2-0.1-4.3-0.1-6.3-0.1c-1.1,0-2,0-2.9,0.1c-0.3,0-0.5,0.1-0.6,0.2
								c-0.2,0.2-0.3,0.3-0.5,0.5c-0.3,0.3-0.7,0.6-1.1,0.9c-2.8,2.2-5.1,4.2-7,5.8c-1.9,1.6-3.4,2.8-4.5,3.7
								c-0.5,0.5-0.9,0.8-1.2,0.9C98.6,120.7,98.6,120.8,98.6,120.8z"/>
						</g>
					</g>
				</g>
				<g>
					<g>
						<g>
							<path class="st7" d="M98.6,120.8c0.1,0.1-4.3,5.6-9.7,12.3c-5.5,6.8-10,12-10.1,12c-0.1-0.1,4.3-5.6,9.7-12.3
								C93.9,126,98.5,120.7,98.6,120.8z"/>
						</g>
					</g>
				</g>
			</g>
		</g>
	</g>
</g>
</svg>
