<svg id="Camada_1" data-name="Camada 1" xmlns="http://www.w3.org/2000/svg" viewBox="0 0 300 300"><defs><style>.cls-1{fill:#1b1002;}.cls-2{fill:#291a04;}.cls-3{fill:#331c07;}.cls-4{fill:#241503;}.cls-5{fill:#460d02;}.cls-6{fill:#711706;}.cls-7{fill:#c44326;}.cls-8{fill:#7a441f;}.cls-9{fill:#604630;}.cls-10{fill:#42311d;}.cls-11{fill:#cb9456;}.cls-12{fill:#7e5f42;}.cls-13{fill:#4e2907;}.cls-14{fill:#392613;}.cls-15{fill:#5e3417;}.cls-16{fill:#e2b57a;}</style></defs><path class="cls-1" d="M10.24,299.53C1.79,301.32-.12,298,0,289.55c.56-37.91.24-75.82.24-113.74a55.54,55.54,0,0,1,18,4c-1.4,4-3.57,8.22.57,11.86,1.5,1.31,3.38.39,4.11-1.25,2.3-5.14-1-8-4.68-10.61,1.88-3.43,3.22-7.63,8.5-6.62,2.57.48,6.54,1,6.33,3.74-.84,11.21,8.41,12.77,15.08,16.89,8.11,14.72,16.74,29,30,39.87L86.53,243c-.58,4.17,1.45,7.44,3.66,10.64l-2.06,2.05c-14.08,2.8-26.4,10.13-39.38,15.65-5.83,2.49-13,3.64-16.54,10.22l-2,4.07-3.84.14c-5.4,0-8.89,2.4-10,7.84Z" transform="translate(0 0)"/><path class="cls-2" d="M.25,143.89c0-45.35.1-90.7-.13-136,0-5.76.7-8,7.41-7.84C27.06.59,46.62.22,66.17.22c-1,5.29-4.45,8.3-8.58,11.55-7.74,6.07-20.75,8.66-22.44,18.49-2.22,12.89-11.85,22-13.61,34.61C20.64,71.31,17,77.43,21,84.12c.82,1.37.51,4.16-.36,5.68-4.71,8.26,1.27,15.36,1.89,23,.91,11.13,8.09,12.07,16.41,12.46.24,0,.46.45.69.69-.23,2.1-.47,4.19-.7,6.29l-3.57-1.08c-1.1,6-5.8,12.6,3.12,16.7l1.08,3.37c-1.65,9.15,2.35,17.67,3,26.56-4.7-.88-6.46-4.41-6.86-8.5-.86-8.86-3.81-14.83-14.4-14-4.33.32-7.8-3.07-10.83-6.16C7.64,146.19,4.51,143.94.25,143.89Z" transform="translate(0 0)"/><path class="cls-3" d="M39.63,126c-.23-.24-.45-.68-.69-.69-8.32-.39-15.5-1.33-16.41-12.46-.62-7.64-6.6-14.74-1.89-23,.87-1.52,1.18-4.31.36-5.68-4-6.69-.36-12.81.54-19.25C23.3,52.28,32.93,43.15,35.15,30.26c1.69-9.83,14.7-12.42,22.44-18.49C61.72,8.52,65.22,5.51,66.17.22h40l14,20.11c-5.24,5.15-13,4.46-18.85,8C91.56,34.18,78.66,37,77.43,51.58c-8.63-.84-13.26,4.29-16.78,11.16C51.77,80.1,37.22,95.38,40.71,117.25ZM37.51,82.46c-3.76.41-5.19,2.62-4.73,6.05.33,2.43,1.61,4.55,4.37,4.26,3.35-.35,5.13-3,5.45-6C43,83.36,40.23,82.62,37.51,82.46Z" transform="translate(0 0)"/><path class="cls-4" d="M299.87,82v49.88l-12.59,1.9a180.57,180.57,0,0,0-11.56-43.74c4.32-7.66,1-13.65-8.66-15.67-1.44-1.79-2.83-3.61-4.31-5.37C246.26,49.3,227.56,32.64,201.94,25.7c1.83-6.91-2.25-10.59-8-11.28-13.16-1.59-24-11.92-38.21-9.47-2.84.49-4.71-2-5.71-4.73H232c.07,4.52,3,6.79,6.36,9.32,11.4,8.46,26.49,11.85,33.93,26,2.28,4.36,6.07,7.53,4.83,13.12A7.81,7.81,0,0,0,279.45,56c5.28,4.9,6.63,11.25,7.45,17.91C287.88,82,291.92,85.13,299.87,82Z" transform="translate(0 0)"/><path class="cls-4" d="M299.87,275.58v10c-6.65-3.52-10.71-11.29-19.15-11.8-5.74-.35-9.42-4.23-13.9-7.05-11.32-7.11-19.26-20.43-35.13-19.5a4.77,4.77,0,0,1-5.25-5c.37-7.18-4-12.47-6.59-18.47,11.06-1.54,11.46-2.06,5.23-10-4.47-5.69-1.35-9.16,2.81-12.49,3.65-2.92,7.54-5.44,7.92-10.82.81-11.57,3.13-23.05,2.32-34.73,5.35-4.93,5.46-14.38,15.06-15.88,12.43-2,13.92-4.74,11.83-17.48-.88-5.34-2.14-10.69.46-16.69,6.84,16.89,11.51,33.13,12.6,50.27.13,2.15,1.73,4.2,2.65,6.29q-1.85,10.8-3.7,21.58c-4.91,4.74-5.81,11.61-9,17.32-6.37,11.59-15.9,20.88-22.19,32.43l-1.29.76,1.37-.67,2,.08c.68,2.18.81,4.78,2.12,6.47C263.07,257.07,281.19,266.74,299.87,275.58ZM266.63,173.64c1.27-9.4,2.32-15.82,2.93-22.29.27-2.86,0-7.25-4.22-5.63s-8.78.71-13.69,1.69C260.2,153.4,260.2,153.4,266.63,173.64Z" transform="translate(0 0)"/><path class="cls-1" d="M299.87,275.58c-18.68-8.84-36.8-18.51-49.78-35.31-1.31-1.69-1.44-4.29-2.12-6.47,3.62-3.83,7.22-7.67,10.85-11.48,9.71-10.19,14.42-23.55,22.26-34.93,7.07-2,9.18-5,1.91-9.75l.79-3.8c6.74-4.36,8.58-9.54,2.64-16q.42-12,.86-24l12.59-1.9v14c-9,3.33-5.33,6.65,0,10Z" transform="translate(0 0)"/><path class="cls-2" d="M299.87,82c-7.95,3.1-12-.07-13-8.09-.82-6.66-2.17-13-7.45-17.91a7.81,7.81,0,0,1-2.37-7.33c1.24-5.59-2.55-8.76-4.83-13.12-7.44-14.19-22.53-17.58-33.93-26C234.92,7,232,4.74,232,.22c20.83,0,41.67.2,62.5-.15,4.81-.09,5.59,1.09,5.54,5.65C299.73,31.15,299.87,56.59,299.87,82Z" transform="translate(0 0)"/><path class="cls-5" d="M219.85,223.79c2.61,6,7,11.29,6.59,18.47a4.77,4.77,0,0,0,5.25,5c15.87-.93,23.81,12.39,35.13,19.5,4.48,2.82,8.16,6.7,13.9,7.05,8.44.51,12.5,8.28,19.15,11.8,0,14,0,14-14,14h-18c0-5.27.08-10.54,0-15.81,0-1.59-.22-3.62-2.27-3.87-2.68-.33-3.24,2-3.34,3.88-.29,5.26-.26,10.53-.35,15.8h-12c.06-10.87-.41-21.67-4-32.09-.26-3.21.06-6.6-.88-9.59-2.08-6.57-7.47-7-12.46-1.4l-.22,2.66,0,3,.59,3.62c-7.56-1.52-11.06-5.91-11.13-13.84-.12-13.31-7.26-22.81-17.93-30,0-1.41.05-2.82.07-4.23l7.9.18Z" transform="translate(0 0)"/><path class="cls-3" d="M192,299.53H104.12l6.06-15.86c4.81-.71,9.58-1.58,13.83-4.18l2,0c3.09,1.51,6.29,1.47,9.7,1.26,19.7-1.24,39.42-2.23,59.14-3.31Q193.41,288.5,192,299.53Z" transform="translate(0 0)"/><path class="cls-6" d="M192,299.53l2.82-22.07a9.54,9.54,0,0,0,5.32-6.75c2.43-11.73,3.55-23.65.15-35.21-1.75-5.94-1.9-10.19,3.64-13.59,10.67,7.21,17.81,16.71,17.93,30,.07,7.93,3.57,12.32,11.12,13.84l1.86,1.87c.34,10.64,2.2,21.34-.9,31.89H220c-.05-17.38-.2-34.74-5-53.54-2.27,12.41.27,23.33-3.25,33.67-3.48-10.25,1-21.78-6.06-31.35-.06,17.29-5.34,34-3.65,51.22Z" transform="translate(0 0)"/><path class="cls-2" d="M150.06.22c1,2.69,2.87,5.22,5.71,4.73,14.17-2.45,25,7.88,38.21,9.47,5.71.69,9.79,4.37,8,11.28l.08.74c-14-6.48-29.35-4.87-44-7.16-3.52-1.33-6.46-1.15-8,2.94l-9.8-.3-6.16-1.67q-2.94-6-5.94,0l-8,.11L106.12.22Z" transform="translate(0 0)"/><path class="cls-6" d="M110.18,283.67l-6.06,15.86h-6c2.62-14.08,16.43-24.9,12.4-42.14-16.21,10.53-23.09,26.49-30.38,42.14h-8c1.71-6.83,8-12.88,4.29-20.69-3.65,6.71-9.24,12.51-8.29,20.69h-8c2.24-4.62,4.31-10.2-.67-13.31-4-2.52-4.47,4.43-7.57,5.82l-5.76-8.3c11.49-7.56,26.93-6.47,37.08-17.1,7.28-7.63,19.54-8.72,25.11-18.72l5.68-.43c5.34,2.66,3.74,7.77,4.3,12.12C118,268.44,114.32,276.13,110.18,283.67Z" transform="translate(0 0)"/><path class="cls-4" d="M.25,143.89c4.26.05,7.39,2.3,10.22,5.19,3,3.09,6.5,6.48,10.83,6.16,10.59-.78,13.54,5.19,14.4,14,.4,4.09,2.16,7.62,6.86,8.5a.66.66,0,0,1-.27.93l1.48,3,4.09,8.4.28,3.73c-6.67-4.12-15.92-5.68-15.08-16.89.21-2.77-3.76-3.26-6.33-3.74-5.28-1-6.62,3.19-8.5,6.62h0a55.54,55.54,0,0,0-18-4Z" transform="translate(0 0)"/><path class="cls-7" d="M202,299.53c-1.69-17.2,3.59-33.93,3.65-51.22,7,9.57,2.58,21.1,6.06,31.35,3.52-10.34,1-21.26,3.25-33.67,4.82,18.8,5,36.16,5,53.54Z" transform="translate(0 0)"/><path class="cls-7" d="M80.15,299.53c7.29-15.65,14.17-31.61,30.38-42.14,4,17.24-9.78,28.06-12.4,42.14Z" transform="translate(0 0)"/><path class="cls-7" d="M234,299.53c3.1-10.55,1.24-21.25.9-31.89l2.7-.18,8.4,0c3.57,10.42,4,21.22,4,32.09Z" transform="translate(0 0)"/><path class="cls-6" d="M26.4,285.76l3.84-.14,15.6-.63Q44,292.25,42.2,299.53h-32l6.16-5.93C20.83,292.38,24.52,290.23,26.4,285.76Z" transform="translate(0 0)"/><path class="cls-6" d="M261.92,299.53c.09-5.27.06-10.54.35-15.8.1-1.89.66-4.21,3.34-3.88,2.05.25,2.24,2.28,2.27,3.87.11,5.27,0,10.54,0,15.81Z" transform="translate(0 0)"/><path class="cls-7" d="M51.93,292c3.1-1.39,3.53-8.34,7.57-5.82,5,3.11,2.91,8.69.67,13.31h-8Z" transform="translate(0 0)"/><path class="cls-7" d="M68.16,299.53c-1-8.18,4.64-14,8.29-20.69,3.71,7.81-2.58,13.86-4.29,20.69Z" transform="translate(0 0)"/><path class="cls-8" d="M51.93,292l.25,7.49h-10Q44,292.26,45.84,285c.13-.41.24-.83.33-1.25Z" transform="translate(0 0)"/><path class="cls-4" d="M299.87,155.86c-5.33-3.33-9-6.65,0-10Z" transform="translate(0 0)"/><path class="cls-5" d="M46.17,283.74c-.09.42-.2.84-.33,1.25l-15.6.63,2-4.07c14.18-2.45,26.81-9.19,39.67-15,5.78-2.62,12.83-4.31,16.25-10.86l2.06-2.05,4.06-2c4.89-.37,8.67-4.55,13.82-4l.29.32c-5.57,10-17.83,11.09-25.11,18.72C73.1,277.27,57.66,276.18,46.17,283.74Z" transform="translate(0 0)"/><path class="cls-4" d="M88.13,255.68c-3.42,6.55-10.47,8.24-16.25,10.86-12.86,5.82-25.49,12.56-39.67,15,3.51-6.58,10.71-7.73,16.54-10.22C61.73,265.81,74.05,258.48,88.13,255.68Z" transform="translate(0 0)"/><path class="cls-9" d="M48.14,193.81c-.09-1.24-.18-2.48-.28-3.73l4.25-.29c7.49,15.26,16.26,29.66,28.26,41.87l-2.2,2C64.88,222.85,56.25,208.53,48.14,193.81Z" transform="translate(0 0)"/><path class="cls-10" d="M78.17,233.68l2.2-2c4.86,4.48,12.85,6,13.66,14.32l-7.5-3Z" transform="translate(0 0)"/><path class="cls-4" d="M18.23,179.8c3.67,2.62,7,5.47,4.68,10.61-.73,1.64-2.61,2.56-4.11,1.25-4.14-3.64-2-7.82-.57-11.86Z" transform="translate(0 0)"/><path class="cls-4" d="M86.53,243l7.5,3c.08,1.89.15,3.78.22,5.67l-4.06,2C88,250.43,86,247.16,86.53,243Z" transform="translate(0 0)"/><path class="cls-5" d="M26.4,285.76c-1.88,4.47-5.57,6.62-10,7.84C17.51,288.16,21,285.75,26.4,285.76Z" transform="translate(0 0)"/><path class="cls-11" d="M39.63,126l1.08-8.7c2.79-8,5.49-16,8.47-23.94.67-1.79,1.3-5.5,4.69-2.12,1.33,5.13-3.48,9.45-1.92,14.61-4,.16-4.79,3.58-5.27,6.18-2.45,13.27-4.4,26.63-3.55,40.21l-3.57-1-1.08-3.37.45-15.62Z" transform="translate(0 0)"/><path class="cls-12" d="M39.56,151.23l3.57,1q1.78,11.84,3.59,23.7,2.69,6.95,5.39,13.9l-4.25.29-4.09-8.4-1.48-3a.66.66,0,0,0,.27-.93C41.91,168.9,37.91,160.38,39.56,151.23Z" transform="translate(0 0)"/><path class="cls-3" d="M38.93,132.24l-.45,15.62c-8.92-4.1-4.22-10.74-3.12-16.7Z" transform="translate(0 0)"/><path class="cls-13" d="M53.87,91.19c-3.39-3.38-4,.33-4.69,2.12-3,7.92-5.68,16-8.47,23.94C37.22,95.38,51.77,80.1,60.65,62.74c3.52-6.87,8.15-12,16.78-11.16l.69.48c-2.88,3.16-6,6.14-8.6,9.51-6.25,8.1-14.43,15.12-15.45,26.31l0,.06c-1.58.45-3,1-2.1,3.13.68,1.63,1.45,0,2.17.09Z" transform="translate(0 0)"/><path class="cls-13" d="M120.1,20.33l8-.11,5.94,0,6.16,1.67c-13.91,2.82-27.6,6.24-39.45,14.62-8.57,3.68-15.18,10.23-22.64,15.52l-.69-.48C78.66,37,91.56,34.18,101.25,28.32,107.09,24.79,114.86,25.48,120.1,20.33Z" transform="translate(0 0)"/><path class="cls-2" d="M37.51,82.46c2.72.16,5.45.9,5.09,4.31-.32,3-2.1,5.65-5.45,6-2.76.29-4-1.83-4.37-4.26C32.32,85.08,33.75,82.87,37.51,82.46Z" transform="translate(0 0)"/><path class="cls-9" d="M287.28,133.81q-.43,12-.86,24l-2.64,16c-.26,1.27-.53,2.53-.79,3.8l-2.1,6-3.86.21q1.85-10.78,3.7-21.58c4.58-28.87-.45-55.79-16.35-80.51-12.81-22.84-32-38.23-56.08-47.93L202,30c0-1.17,0-2.34,0-3.51l-.08-.74c25.62,6.94,44.32,23.6,60.81,43.33,1.48,1.76,2.87,3.58,4.31,5.37l8.66,15.67A180.57,180.57,0,0,1,287.28,133.81Z" transform="translate(0 0)"/><path class="cls-2" d="M275.72,90.07,267.06,74.4C276.72,76.42,280,82.41,275.72,90.07Z" transform="translate(0 0)"/><path class="cls-10" d="M219.85,223.79l-7.94-5.93c-2.06-4.84.42-10.26-3.11-15.26-6.58-9.35-4.1-19.17,5.34-25.7,2.16-1.49,5-2.64,4.8,1.19-.42,6.79,2.56,8.84,8.25,6.82,5.84-2.09,5.52-7.27,3.29-11.66-2.35-4.64-1.71-9-.66-13.54,1.56-6.8,3.18-13.59,4.71-20.4.68-3,1.27-6.8-3.34-6.4-6.52.58-10.46-2.85-14.68-6.87-2.92-2.78-7.65-5.45-9.62.27-1.8,5.23-6.81,7.15-9,11.59-8.12-.57-11.5-4.2-8-12.3,2.69-.35,6.8,1.71,7.54-2.13.62-3.22-3.6-2.85-5.78-3.91-1.95-1-5.76-2.65-3.76-4.23,4.8-3.77,5.23-12.85,13.94-11.79,1.53,1.46,2.93,1.29,4.22-.33l5.39.17c12.2.86,18.12,9.35,23.75,18.73,2,3.3.37,9.35,6.63,9.75.53,8.26-6.14,15.39-3.76,23.93.81,11.68-1.51,23.16-2.32,34.73-.38,5.38-4.27,7.9-7.92,10.82-4.16,3.33-7.28,6.8-2.81,12.49C231.31,221.73,230.91,222.25,219.85,223.79Z" transform="translate(0 0)"/><path class="cls-2" d="M238.13,155.79c-2.38-8.54,4.29-15.67,3.76-23.93,0-1.3,0-2.62.05-3.93a2.75,2.75,0,0,0-.22-4c-1.28-8-3.79-15.29-11-20l-.18-8c9.36-2,8.2-11,10.73-17.09,2.41-5.79,4.66-6.5,9.08-3,4.17,3.29,8.38,6.3,14,6,15.9,24.72,20.93,51.64,16.35,80.51-.92-2.09-2.52-4.14-2.65-6.29-1.09-17.14-5.76-33.38-12.6-50.27-2.6,6-1.34,11.35-.46,16.69,2.09,12.74.6,15.52-11.83,17.48C243.59,141.41,243.48,150.86,238.13,155.79Z" transform="translate(0 0)"/><path class="cls-10" d="M277,183.88l3.86-.21c.06,1.24.13,2.48.19,3.72-7.84,11.38-12.55,24.74-22.26,34.93-3.63,3.81-7.23,7.65-10.85,11.48l-2-.08-.08-.09c6.29-11.55,15.82-20.84,22.19-32.43C271.22,195.49,272.12,188.62,277,183.88Z" transform="translate(0 0)"/><path class="cls-2" d="M266.63,173.64c-6.43-20.24-6.43-20.24-15-26.23,4.91-1,9.36,0,13.69-1.69s4.49,2.77,4.22,5.63C269,157.82,267.9,164.24,266.63,173.64Z" transform="translate(0 0)"/><path class="cls-10" d="M246,233.72l-1.37.67,1.29-.76Z" transform="translate(0 0)"/><path class="cls-4" d="M283.78,173.84l2.64-16C292.36,164.3,290.52,169.48,283.78,173.84Z" transform="translate(0 0)"/><path class="cls-4" d="M281.08,187.39c-.06-1.24-.13-2.48-.19-3.72l2.1-6C290.26,182.43,288.15,185.39,281.08,187.39Z" transform="translate(0 0)"/><path class="cls-13" d="M203.94,221.91c-5.54,3.4-5.39,7.65-3.64,13.59,3.4,11.56,2.28,23.48-.15,35.21a9.54,9.54,0,0,1-5.32,6.75c-19.71,1.08-39.43,2.07-59.13,3.31-3.41.21-6.61.25-9.7-1.26q1-2.76,2.06-5.53c6.82-2,15.25,3.71,20.8-4.36l.39,0,2.88,2.05-.13-.21,1.33,1.83c6.43-1.32,12.95-2.32,19.26-4.07,5.75-1.59,12.65-7,12.34-10.52-.44-5.17-8.23-2.35-12.87-3-5.81-.82-13,2.34-16.08-5.94,4.24-1.62,10.45-.81,12.36-5.25,4.77-11.05,12.1-21.9,9.2-34.72-2-9-4.46-17.19,5.5-23.11.91-.54.63-3.08.91-4.7l11.93-10.17c.36,15.7,2.48,31.09,8.13,45.85C204,219.09,204,220.5,203.94,221.91Z" transform="translate(0 0)"/><path class="cls-14" d="M204,217.68c-5.65-14.76-7.77-30.15-8.13-45.85q1-6,2-12c9.38-6.32,4.73-13.11.69-19.88-.23-.68-.46-1.35-.68-2,2.16-4.44,7.17-6.36,9-11.59,2-5.72,6.7-3,9.62-.27,4.22,4,8.16,7.45,14.68,6.87,4.61-.4,4,3.36,3.34,6.4-1.53,6.81-3.15,13.6-4.71,20.4-1,4.56-1.69,8.9.66,13.54,2.23,4.39,2.55,9.57-3.29,11.66-5.69,2-8.67,0-8.25-6.82.23-3.83-2.64-2.68-4.8-1.19-9.44,6.53-11.92,16.35-5.34,25.7,3.53,5,1,10.42,3.11,15.26Z" transform="translate(0 0)"/><path class="cls-6" d="M246,267.44l-8.39,0c-.44-4.21-.3-8.68-4.95-11,5-5.64,10.38-5.17,12.46,1.4C246,260.84,245.69,264.23,246,267.44Z" transform="translate(0 0)"/><path class="cls-8" d="M232.61,256.45c4.65,2.33,4.51,6.8,4.95,11l-2.71.18L233,265.77c-.19-1.2-.39-2.41-.58-3.62,0-1,0-2,0-3Z" transform="translate(0 0)"/><path class="cls-6" d="M232.39,259.11c0,1,0,2,0,3C232.4,261.14,232.39,260.12,232.39,259.11Z" transform="translate(0 0)"/><path class="cls-5" d="M110.18,283.67c4.14-7.54,7.83-15.23,8.16-24.06l7.65,0a13.44,13.44,0,0,1,.76,1.69c-1.77,2.62-4.33,4.8-4.66,8.24l-1.52,1.53c-.57,3.51,1.27,6,3.44,8.44C119.76,282.09,115,283,110.18,283.67Z" transform="translate(0 0)"/><path class="cls-15" d="M124,279.49c-2.17-2.4-4-4.93-3.44-8.44,3.16-.71,5.06,1.79,7.49,2.93q-1,2.77-2.06,5.53Z" transform="translate(0 0)"/><path class="cls-13" d="M202,30l6.3,3.92c-3.53,3.73-6.12,7.4.52,10.67,2.5,1.24,4.49,3.34,4.38,6.07-.39,9-3.36,18.17,1.49,26.92l-1.79.79c-10.39-3.87-18-14.87-31-12C170,59.9,157,59.87,144.06,59.77c2.53-5.75,9.09-1.93,14.2-6.3-10.62-4.22-16.32-12.91-24.42-20.18A29,29,0,0,0,144,26.35c2.67-.41,5.1-1.17,6-4.13,1.51-4.09,4.45-4.27,8-2.93.33,4.53,3.61,4.92,7.06,4.93C177.66,24.22,189.82,27.11,202,30Z" transform="translate(0 0)"/><path class="cls-11" d="M150,22.22c-.91,3-3.34,3.72-6,4.13-13.24-.05-24.73,5.47-36.1,11.37l-4,1.27-3.13-2.45c11.85-8.38,25.54-11.8,39.45-14.62Z" transform="translate(0 0)"/><path class="cls-12" d="M202,30c-12.18-2.84-24.34-5.73-37-5.73-3.45,0-6.73-.4-7.06-4.93,14.69,2.28,30,.67,44,7.15C202,27.61,202,28.78,202,30Z" transform="translate(0 0)"/><path class="cls-3" d="M134.05,20.25l-5.94,0Q131.11,14.21,134.05,20.25Z" transform="translate(0 0)"/><path class="cls-13" d="M126,259.59l-7.65,0c-.56-4.35,1-9.46-4.3-12.12l.06-3.91,5.22-4.18c1.63,2.83,3.24,5.66,4.86,8.49C121.64,252.27,125.83,255.62,126,259.59Z" transform="translate(0 0)"/><path class="cls-5" d="M114.1,243.58l-.06,3.91-5.68.43-.29-.32C109.17,244.89,111.37,243.84,114.1,243.58Z" transform="translate(0 0)"/><path class="cls-2" d="M42.29,178.72l1.48,3Z" transform="translate(0 0)"/><path class="cls-3" d="M114.1,243.58c-2.73.26-4.93,1.31-6,4-5.15-.51-8.93,3.67-13.82,4-.07-1.89-.14-3.78-.22-5.67-.81-8.33-8.8-9.83-13.66-14.31-12-12.21-20.77-26.61-28.26-41.87q-2.7-6.94-5.39-13.91c2.48-3.41,5.15-2.24,8.57-1.14,7.33,2.35,13.34,6.74,19.57,10.87,5.66,3.76,10.29,3.82,12.75-3.64q.86,3.74,1.72,7.45c1.9,6.47-5.34,12.34-1.26,19,1.73,7.76,8.46,12.24,12.27,18.63l.29,3.91c-.16-.21-.5-.47-.45-.61a4.45,4.45,0,0,1,.63-1c-.31,2.77.4,5.22,2.56,6.89.85.66,2.77,1.13,3.38.65,1.65-1.31,0-2.78-.5-4.15l2.14-.85L119.62,228l-.3,11.4Z" transform="translate(0 0)"/><path class="cls-13" d="M87.61,182c-2.46,7.45-7.09,7.39-12.75,3.63-6.23-4.13-12.24-8.52-19.57-10.87-3.42-1.1-6.09-2.27-8.57,1.14q-1.8-11.83-3.59-23.69c-.85-13.58,1.1-26.94,3.55-40.21.48-2.6,1.31-6,5.27-6.18,4.69,2.12,2.8,6,2.6,9.48-.68,12.46,6,18.93,18,17.32a8.81,8.81,0,0,1,7.27,2.34c1.84,1.56,3.14,5.35,6.19,3.14,1.1-.8.3-4.21.37-6.43l8,.27L93.86,136l-1.47,2c-.14,3.38-3,5.21-4.45,7.89-.59,0-1.18,0-1.77,0l0,.06c.16,1,.33,1.92.5,2.88-1.4,3.77-5.24,6.56-4.51,11.18,7.69,7.13,16.22,2,24.43,1.67l1.84,1.28c-4.52,3.4-.17,4.72,1.57,6.65-4.75.89-8.31,3.2-9.62,8.15l-2.67-.22-4-3.91c-.44-3.13-1.25-5.83-4.42-1.82a8.28,8.28,0,0,0-1.33,8.31A6.47,6.47,0,0,0,87.61,182Z" transform="translate(0 0)"/><path class="cls-15" d="M86.37,131.65c-.07,2.22.73,5.63-.37,6.43-3,2.21-4.35-1.58-6.19-3.14a8.81,8.81,0,0,0-7.27-2.34c-12,1.61-18.67-4.86-18-17.32.2-3.5,2.09-7.36-2.6-9.48-1.56-5.16,3.25-9.48,1.92-14.61l.25,0a2.11,2.11,0,0,0-.07-3.22l0-.06c6.22-.38,6-7,9.7-9.9.17.28.52.6.47.85-1.95,11.28-3.87,22.43,9.86,28.47,1.34.59,1.92,4.08,4.26,2.4,4.94-3.57,7.9,1,11.69,2.26q-2.11,4-4.24,8C84,124,86.74,127.74,86.37,131.65Z" transform="translate(0 0)"/><path class="cls-16" d="M63.77,78c-3.68,2.87-3.48,9.52-9.7,9.9,1-11.19,9.2-18.21,15.45-26.31,2.61-3.37,5.72-6.35,8.6-9.51,7.46-5.29,14.07-11.84,22.64-15.52,1,.82,2.08,1.64,3.13,2.45C88.25,49.66,73.27,61,63.77,78Z" transform="translate(0 0)"/><path class="cls-16" d="M54.05,87.94a2.11,2.11,0,0,1,.07,3.22c-.72-.09-1.49,1.54-2.17-.09C51.06,89,52.47,88.39,54.05,87.94Z" transform="translate(0 0)"/><path class="cls-3" d="M212.9,78.32l1.79-.79c-4.85-8.75-1.88-17.88-1.49-26.92.11-2.73-1.88-4.83-4.38-6.07-6.64-3.27-4-6.94-.52-10.67,24.07,9.69,43.27,25.08,56.08,47.92-5.67.35-9.88-2.66-14-6-4.42-3.49-6.67-2.78-9.08,3-2.53,6.09-1.37,15.12-10.73,17.09Z" transform="translate(0 0)"/><path class="cls-12" d="M212.9,78.32l17.62,17.62.18,8c-6-2.69-10.48-9.68-18.51-6.23l-1.69-.52,1.06,1.27-.05,4.93-5.39-.16c-1.62-2.77-3-2.52-4.22.32-8.71-1.06-9.14,8-13.94,11.79-2,1.58,1.81,3.28,3.76,4.23,2.18,1.06,6.4.69,5.78,3.91-.74,3.84-4.85,1.78-7.54,2.13-3.05-2.67-8.18-3.86-6.94-9.62l-.87-2.41c-1.08-3-3.63-3.51-6.33-3.8.38-2.17.38-4.25-1.32-6l-1.64-2a1.27,1.27,0,0,0-.18-1.19,26.45,26.45,0,0,1,10.13-3.37c4.88-.79,5.46-3.92,2.81-7.82,5.15-10.4-2.74-10.6-9.28-11.84l-1.92-2c-10.59-7.33-21-4.66-23.93,6.8-2,7.74-6.23,11.29-13.93,11.31,4.6-5.51,10.32-10.77,8.77-18.84-1.75-9.09,3.06-10.22,10.4-10.86,9-.77,17.2,4.63,26.16,2.25C194.89,63.45,202.51,74.45,212.9,78.32Z" transform="translate(0 0)"/><path class="cls-9" d="M175.82,109.77c2.7.29,5.25.82,6.33,3.81L183,116c-1.24,5.76,3.89,7,6.94,9.62-3.54,8.1-.16,11.73,8,12.3.22.67.45,1.34.67,2-3.54,2.93-10.34,2.21-11.38,7.16-1.93,9.11-6.08,17-10.76,24.71-2.83,3.48-5,7.13-2.9,11.81l-5.46,12.34-10-2.13c-.35-1.57-1.36-4.29-.94-4.53,8.47-4.82,3-10.19.8-15.43.63-1.3,1.26-2.61,1.9-3.91,5.35-6.42,4.62-15,8-22.17,2,1.55,1.15,5.37,5.21,6,1.69-5.59.32-9.53-5.23-11.8-2.74-2-3.65-4.79-3.84-8-2.19-7.1-7.88-13-7.41-21,7.27.41,11.33,9.21,23,7.12-4.38-3.26-8.36-4.67-9.29-7.2C166.53,102.68,174.45,111.86,175.82,109.77Z" transform="translate(0 0)"/><path class="cls-9" d="M211.51,103.38l.05-4.93.64-.75c8-3.45,12.53,3.54,18.5,6.23,7.23,4.71,9.74,12,11,20a2.92,2.92,0,0,0,.22,4c0,1.31,0,2.63-.05,3.93-6.26-.4-4.65-6.45-6.63-9.75C229.63,112.73,223.71,104.24,211.51,103.38Z" transform="translate(0 0)"/><path class="cls-9" d="M201.9,103.54c1.2-2.84,2.6-3.09,4.22-.32C204.83,104.83,203.43,105,201.9,103.54Z" transform="translate(0 0)"/><path class="cls-10" d="M241.94,127.93a2.92,2.92,0,0,1-.22-4A2.75,2.75,0,0,1,241.94,127.93Z" transform="translate(0 0)"/><path class="cls-14" d="M168.09,195.93l5.46-12.33L184,182c-.28,1.62,0,4.16-.91,4.7-10,5.92-7.53,14.12-5.5,23.11,2.9,12.82-4.43,23.67-9.2,34.72-1.91,4.44-8.12,3.63-12.36,5.25l0-.08c-2.75-8.66-10.1-5.23-15.84-6-.14-3.3-.43-6.52-4.32-7.72-1.91-2-3.81-4.08-5.72-6.11.05-.74.09-1.48.13-2.22,3.58-5.56,9.12-7.93,15.09-10.21C155.68,213.46,166.7,209.65,168.09,195.93Z" transform="translate(0 0)"/><path class="cls-15" d="M130.19,227.64c0,.74-.08,1.48-.13,2.22-2.41,6.47.49,10.61,6.8,15.11-.49-4-.78-6.51-1.08-9,3.89,1.2,4.18,4.42,4.32,7.72,4,5.33,10.61,3.88,15.84,6l0,.08c3,8.28,10.27,5.12,16.08,5.94,4.64.65,12.43-2.17,12.87,3,.31,3.55-6.59,8.93-12.34,10.52-6.31,1.75-12.83,2.75-19.26,4.07L152,271.48l.13.21a2.64,2.64,0,0,0-2.88-2.05l-.39,0c-8.92-2.51-17.84-1.87-26.77-.1.33-3.44,2.89-5.62,4.66-8.24,2.73,2.93,5.19,3.87,4.82-1.55a13.87,13.87,0,0,0-7.39-11.84c-1.62-2.83-3.23-5.66-4.86-8.49q.15-5.7.31-11.41A11,11,0,0,1,130.19,227.64Z" transform="translate(0 0)"/><path class="cls-15" d="M184,182l-10.4,1.6c-2.1-4.69.07-8.34,2.89-11.82,13.87,1.77,16.24-8.48,18.76-21l2.71,9q-1,6-2,12Z" transform="translate(0 0)"/><path class="cls-11" d="M122.09,269.52c8.93-1.77,17.85-2.41,26.77.1-5.55,8.07-14,2.37-20.8,4.36-2.43-1.14-4.33-3.64-7.49-2.93Z" transform="translate(0 0)"/><path class="cls-11" d="M149.25,269.64a2.64,2.64,0,0,1,2.88,2.05Z" transform="translate(0 0)"/><path class="cls-11" d="M152,271.48l1.33,1.83Z" transform="translate(0 0)"/><path class="cls-13" d="M197.91,159.8l-2.71-9c-2.52,12.52-4.89,22.77-18.76,21,4.69-7.76,8.84-15.6,10.77-24.71,1-4.95,7.84-4.23,11.38-7.16C202.64,146.69,207.29,153.48,197.91,159.8Z" transform="translate(0 0)"/><path class="cls-12" d="M124.18,247.89a13.87,13.87,0,0,1,7.39,11.84c.37,5.42-2.09,4.48-4.82,1.55a13.44,13.44,0,0,0-.76-1.69C125.83,255.62,121.64,252.27,124.18,247.89Z" transform="translate(0 0)"/><path class="cls-15" d="M107.9,37.72c11.37-5.9,22.86-11.42,36.1-11.37a29,29,0,0,1-10.16,6.94c8.1,7.27,13.8,16,24.42,20.18-5.11,4.37-11.67.55-14.2,6.3L136,62l-5.29.46c-2.88-2.31-9.19-1.16-8.92-6.22C122.35,45.73,116.49,40.91,107.9,37.72Z" transform="translate(0 0)"/><path class="cls-11" d="M136,62l8.07-2.22c13,.1,25.95.13,37.83,6.52-9,2.38-17.2-3-26.16-2.25-7.34.64-12.15,1.77-10.4,10.86,1.55,8.07-4.17,13.33-8.78,18.85-.71,2.4-1.41,4.8-2.12,7.2l-3.35,1.35c-4.45-3.89-4.8-7.26.49-11,5.67-4.05,9-12,5-16.2C131.32,69.51,134.73,66.32,136,62Z" transform="translate(0 0)"/><path class="cls-8" d="M107.9,37.72c8.59,3.19,14.45,8,13.88,18.51-.27,5.06,6,3.91,8.91,6.22C117.82,68,107.1,75.75,101.35,89.26c-3.3,7.76-7.5,15.15-11.3,22.7-3.79-1.21-6.75-5.83-11.69-2.26-2.34,1.68-2.92-1.81-4.26-2.4-13.73-6-11.81-17.19-9.86-28.47.05-.25-.3-.57-.47-.85,9.5-17,24.48-28.32,40.12-39Z" transform="translate(0 0)"/><path class="cls-10" d="M130.19,227.64a11,11,0,0,0-10.56.35l-11.24,3.86c2.36-5.86,4.69-11.72,4-18.25,2.24-1.49,4.78-1.62,7.36-1.53.36,1.87-.11,4.08,1.89,5.3a1.8,1.8,0,0,0,1.66-.54c1.24-2.9-.74-4.2-2.87-5.37,1-4.8,4.59-5.55,8.64-5.66,8.53,3.95,6.26-5.31,9.54-7.78a2.3,2.3,0,0,0,1.75-.48,6.43,6.43,0,0,0,1.69-.17c1.83,3,3.68,5.4,5.93.31a6.34,6.34,0,0,1,.77-1.72c2.46-3.67,7.1,2.19,9.4-2.16l10,2.13c-1.39,13.72-12.41,17.53-22.81,21.5C139.31,219.71,133.77,222.08,130.19,227.64Z" transform="translate(0 0)"/><path class="cls-16" d="M88.07,208.38c-4.08-6.62,3.16-12.49,1.26-19q2.17,1.23,4.37,2.44c3.71,9,10.11,8.18,17.23,4.69,3.79-3.66,7.34-12.25,11.89-.59-2.78,8.34-3.87,8.75-12.32,6.42-1.81-.5-1.86,2.22-2.34,3.69-2.31-.11-4.7-.46-6.26,1.9C97.35,210,92.7,208.94,88.07,208.38Z" transform="translate(0 0)"/><path class="cls-11" d="M88.07,208.38c4.63.56,9.28,1.62,13.83-.41,2.77,5.56,5.28,11.19,4.22,17.67-2.61,0-3.43,2.57-5.3,3.63a5.4,5.4,0,0,0-.64,1c-.05.14.29.4.45.6,2.17-1.47,1.93-2.76-.29-3.9C96.53,220.62,89.8,216.14,88.07,208.38Z" transform="translate(0 0)"/><path class="cls-12" d="M106.12,225.64c1.06-6.48-1.45-12.11-4.22-17.67,1.56-2.36,3.95-2,6.26-1.9.34,3.1.45,6.32,4.19,7.53.73,6.53-1.6,12.39-4,18.25l-2.14.84Q106.19,229.17,106.12,225.64Z" transform="translate(0 0)"/><path class="cls-12" d="M93.7,191.86q-2.19-1.22-4.37-2.44-.87-3.72-1.72-7.45a6.46,6.46,0,0,1,.32-1.89l5.75-6.49,4,3.91a3.79,3.79,0,0,0-3.46,3.34c0,1.93.28,3.75,1.94,5l-.05,5.92Z" transform="translate(0 0)"/><path class="cls-10" d="M106.12,225.64q.07,3.53.13,7.05c.55,1.38,2.15,2.85.5,4.16-.61.48-2.53,0-3.38-.65-2.16-1.67-2.87-4.12-2.56-6.89C102.69,228.21,103.51,225.61,106.12,225.64Z" transform="translate(0 0)"/><path class="cls-10" d="M100.34,227c2.22,1.14,2.46,2.43.29,3.9C100.54,229.61,100.44,228.31,100.34,227Z" transform="translate(0 0)"/><path class="cls-12" d="M122.82,196c-4.55-11.66-8.1-3.07-11.89.58a19.26,19.26,0,0,0-6.84-6.7c0-1.4.08-2.81.11-4.21,2.71-3.36-.57-3.69-2.41-4.75l-1.46-3.16c1.31-4.95,4.87-7.26,9.62-8.15l3.78,3.71.45.15q2.26.82,4.52,1.68l8.35,3.87c-.93,2.87-2.75,7.11,3,4.34,4.24-2,8.22-1.73,12.41-1.47,6.82.43,12.25-1.61,15.48-8,2.23,5.24,7.67,10.61-.8,15.43-.42.24.59,3,.94,4.53-2.3,4.35-6.94-1.51-9.4,2.16-1.51-3.65,2.53-7.53-.44-11.41-2.82,1.55-5,5.15-8.66,3-5.22-3-6.25-.94-5.66,4.08.25,2.17.79,4.71-1.81,6.18C130.3,191.06,126.27,194.94,122.82,196Z" transform="translate(0 0)"/><path class="cls-7" d="M108.38,162.92l-1.84-1.28c-4.52-5.83-11.23-3.08-16.92-4.3,3.32-7.3,7.49-14,13.35-19.59,4.58,4,8.07-2.51,12.36-1.28,1.83,3,3.69,2.77,5.56,0l2.41,0c3.29,4.56,8.54,3.13,13,4.24l-2,1.18-13.79,5.53c-2.9-1.64-3.9-7.43-8.2-5.32-4.78,2.36-1.76,6.77-.81,10.34,1,3.73,2.11,7.44,3.16,11.16Z" transform="translate(0 0)"/><path class="cls-11" d="M108.38,162.92l6.21.74c2.92,1.5,5.67,2.75,5.66-2.49,0-4.57.12-9.13.19-13.69L134.23,142c-2.21,4.69-1.55,7.91,4.35,8.44-9,6.36-14.07,15.81-19.88,24.71l-4.52-1.68-.45-.14L110,169.57C108.21,167.64,103.86,166.32,108.38,162.92Z" transform="translate(0 0)"/><path class="cls-16" d="M103,137.75c-5.86,5.57-10,12.29-13.35,19.59A10.08,10.08,0,0,1,82.11,160c-.73-4.62,3.11-7.41,4.51-11.18l1.32-2.91c1.41-2.68,4.31-4.51,4.45-7.89l1.47-2,.48-4.06c3.46-.26,4-3.19,5.17-5.58l4-.22C105.75,130.11,103.19,133.87,103,137.75Z" transform="translate(0 0)"/><path class="cls-8" d="M99.51,126.34c-1.14,2.39-1.71,5.32-5.17,5.58l-8-.27c.37-3.91-2.33-7.67-.56-11.65l4.54,2.12A14.9,14.9,0,0,1,99.51,126.34Z" transform="translate(0 0)"/><path class="cls-8" d="M82.11,160a10.08,10.08,0,0,0,7.51-2.63c5.69,1.22,12.4-1.53,16.92,4.3C98.33,162,89.8,167.1,82.11,160Z" transform="translate(0 0)"/><path class="cls-16" d="M93.68,173.59l-5.75,6.49a8.28,8.28,0,0,1,1.33-8.31C92.43,167.76,93.24,170.46,93.68,173.59Z" transform="translate(0 0)"/><path class="cls-5" d="M100.33,177.72c.49,1.05,1,2.1,1.46,3.16l-6,.56a3.85,3.85,0,0,0-1.6-.6,3.79,3.79,0,0,1,3.46-3.34Z" transform="translate(0 0)"/><path class="cls-15" d="M93.86,136l-1.47,2Z" transform="translate(0 0)"/><path class="cls-15" d="M86.12,145.91l0,0Z" transform="translate(0 0)"/><path class="cls-15" d="M87.94,145.88l-1.32,2.91c-.17-1-.34-1.92-.5-2.88l0,0Z" transform="translate(0 0)"/><path class="cls-16" d="M90.35,122.12,85.81,120q2.13-4,4.24-8c3.8-7.55,8-14.94,11.3-22.7C107.1,75.75,117.82,68,130.69,62.45L136,62c-1.26,4.33-4.67,7.52.58,13.07,4,4.2.67,12.15-5,16.2-5.29,3.78-4.94,7.15-.49,11-.24,3.53-3.21,5.12-5.25,7.38-5.2.78-10.45,2.41-15.6,2.15C101.27,111.36,95,114.83,90.35,122.12Z" transform="translate(0 0)"/><path class="cls-15" d="M103,137.75c.22-3.88,2.78-7.64.55-11.63,1.36-7.35,5.46-11.19,13.25-10.69,3.61.23,7.15-.2,9.11-4,4.79-.53,8.84-2.07,10.07-7.42,2.79-3.39,5.82-6.39,10.7-6,6.72.54,9.52-3.12,10.19-9.23,1.16-10.63,7.08-15,17.58-13.17l1.92,2c1.75,6.66-3.06,9.38-7.56,11.89-2.88,1.6-6.09,2.46-6.46,6.42-2.4,5.5-8.86,9.63-5.74,17-.47,8,5.22,13.92,7.41,21-6,1.21-6.83,9.09-13,10.07-1.46-3.75-.67-7.43.34-11.11.31-4.23.51-10.67-4-10.25-5.49.51-.88,6.17-1.11,9.56a7.5,7.5,0,0,1-1.3.56c-7.33.49-14.07,4.38-21.59,3.77l-2.42,0-5.55,0C111,135.24,107.55,141.75,103,137.75Zm25.9-8.2c-.32-2.54-1.42-4.53-4.27-4.32-2.39.17-5.86-.57-5.8,3.43,0,3.07,2.24,4.63,5.23,4.73C126.61,133.48,128.41,132.31,128.87,129.55Z" transform="translate(0 0)"/><path class="cls-8" d="M174.42,75.63c-10.5-1.79-16.42,2.54-17.58,13.17-.67,6.11-3.47,9.77-10.19,9.23-4.88-.39-7.91,2.61-10.7,6L134.43,101c.71-2.4,1.41-4.8,2.12-7.2,7.71,0,11.95-3.58,13.94-11.32C153.43,71,163.83,68.3,174.42,75.63Z" transform="translate(0 0)"/><path class="cls-11" d="M156.58,112.91c-3.12-7.35,3.34-11.48,5.74-17l3,0c.81,3.6,2.22,6.54,6.7,6.12l2.47,1.71c1.7,1.72,1.7,3.8,1.32,6-1.37,2.09-9.29-7.09-5.57,3.06.93,2.53,4.91,3.94,9.29,7.2C167.91,122.12,163.85,113.32,156.58,112.91Z" transform="translate(0 0)"/><path class="cls-8" d="M165.33,96l-3,0c.37-4,3.58-4.82,6.46-6.42,4.5-2.51,9.31-5.23,7.56-11.89,6.54,1.24,14.43,1.44,9.29,11.84C178.07,89.16,171.91,93.22,165.33,96Z" transform="translate(0 0)"/><path class="cls-16" d="M165.33,96c6.58-2.75,12.74-6.81,20.3-6.51,2.64,3.9,2.06,7-2.82,7.82a26.39,26.39,0,0,0-10.11,3.36,2,2,0,0,0-.54,1.25l-.13.2C167.55,102.51,166.14,99.57,165.33,96Z" transform="translate(0 0)"/><path class="cls-9" d="M211.56,98.45l-1.06-1.27,1.69.52Z" transform="translate(0 0)"/><path class="cls-16" d="M174.5,103.8,172,102.09l.13-.2.7,0Z" transform="translate(0 0)"/><path class="cls-11" d="M172.86,101.84l-.7,0a2,2,0,0,1,.54-1.25A1.35,1.35,0,0,1,172.86,101.84Z" transform="translate(0 0)"/><path class="cls-10" d="M183,116l-.87-2.4Z" transform="translate(0 0)"/><path class="cls-13" d="M151,144c6.18-1,7-8.86,13-10.07.19,3.19,1.1,6,3.84,8,0,2,0,3.9,0,5.85-3.36,7.14-2.63,15.75-8,22.16-6.78-.67-12.86-7.59-20.57-1.68-1.88,1.44-3.29-2.31-4.1-4.42l9.09-11.34c2.12.1,3.19-1,3.5-3Z" transform="translate(0 0)"/><path class="cls-8" d="M135.2,163.82c.81,2.11,2.22,5.86,4.1,4.42,7.71-5.91,13.79,1,20.57,1.68-.64,1.31-1.27,2.62-1.9,3.92-3.23,6.4-8.66,8.44-15.48,8-4.19-.26-8.17-.57-12.41,1.47-5.78,2.77-4-1.47-3-4.33C132.31,175.32,127.12,166,135.2,163.82Z" transform="translate(0 0)"/><path class="cls-12" d="M167.85,147.76c0-1.95,0-3.9,0-5.85,5.55,2.27,6.92,6.21,5.23,11.8C169,153.13,169.86,149.31,167.85,147.76Z" transform="translate(0 0)"/><path class="cls-9" d="M135.78,236c.3,2.49.59,5,1.08,9-6.31-4.5-9.21-8.64-6.8-15.11C132,231.89,133.87,233.93,135.78,236Z" transform="translate(0 0)"/><path class="cls-13" d="M155.94,249.7c-5.23-2.13-11.83-.68-15.84-6C145.84,244.47,153.19,241,155.94,249.7Z" transform="translate(0 0)"/><path class="cls-12" d="M134.43,101,136,104c-1.23,5.35-5.28,6.89-10.07,7.43a10.62,10.62,0,0,1,0-1.78c2-2.26,5-3.85,5.25-7.38Z" transform="translate(0 0)"/><path class="cls-9" d="M122.82,196c3.45-1,7.48-4.9,9.32,1.9-1,2.65-2.07,5.29-3.11,7.94-4,.11-7.67.86-8.64,5.66l-.69.61c-2.57-.09-5.11,0-7.35,1.53-3.74-1.21-3.85-4.43-4.19-7.53.48-1.47.53-4.19,2.34-3.69C119,204.71,120,204.3,122.82,196Z" transform="translate(0 0)"/><path class="cls-16" d="M129,205.8c1-2.65,2.08-5.29,3.11-7.94,2.6-1.47,2.06-4,1.81-6.18-.59-5,.44-7.07,5.66-4.08,3.66,2.1,5.84-1.5,8.66-3,3,3.88-1.07,7.76.44,11.41a6.34,6.34,0,0,0-.77,1.72c-1.86-2.33-3.76-4-5.93-.31a6.43,6.43,0,0,1-1.69.17c-.28-.53-.57-1.52-.83-1.51-1.37.05-1.2,1-.92,2C135.29,200.49,137.56,209.75,129,205.8Z" transform="translate(0 0)"/><path class="cls-9" d="M120.39,211.46c2.13,1.17,4.11,2.47,2.87,5.37a1.8,1.8,0,0,1-1.66.54c-2-1.22-1.53-3.43-1.89-5.3Z" transform="translate(0 0)"/><path class="cls-12" d="M142,197.37c2.17-3.66,4.07-2,5.93.31C145.69,202.77,143.84,200.34,142,197.37Z" transform="translate(0 0)"/><path class="cls-12" d="M138.57,198c-.28-1-.45-1.94.92-2,.26,0,.55,1,.83,1.51A2.3,2.3,0,0,1,138.57,198Z" transform="translate(0 0)"/><path class="cls-9" d="M104.09,189.84a19.26,19.26,0,0,1,6.84,6.7c-7.12,3.5-13.52,4.32-17.23-4.68l2.4-.06Z" transform="translate(0 0)"/><path class="cls-15" d="M104.09,189.84l-8,2c0-2,0-4,.05-5.92l-.13-.67,8.18.42Z" transform="translate(0 0)"/><path class="cls-11" d="M94.21,180.84a3.85,3.85,0,0,1,1.6.6l.21,3.77.13.67C94.49,184.59,94.22,182.77,94.21,180.84Z" transform="translate(0 0)"/><path class="cls-7" d="M135.2,163.82c-8.08,2.18-2.89,11.5-8.16,15.17l-8.34-3.88c5.81-8.91,10.91-18.36,19.87-24.73a7.08,7.08,0,0,0,1.39-.66l3.65-.3.48.47.21,2.59Z" transform="translate(0 0)"/><path class="cls-16" d="M96,185.21l-.21-3.77,6-.56c1.84,1.06,5.12,1.39,2.41,4.75Z" transform="translate(0 0)"/><path class="cls-7" d="M113.73,173.28l.45.14Z" transform="translate(0 0)"/><path class="cls-16" d="M120.44,147.48c-.07,4.56-.2,9.12-.19,13.69,0,5.24-2.74,4-5.66,2.49-1-3.72-2.16-7.43-3.16-11.16-1-3.57-4-8,.81-10.34C116.54,140.05,117.54,145.84,120.44,147.48Z" transform="translate(0 0)"/><path class="cls-8" d="M123.3,136.53c7.52.61,14.26-3.28,21.59-3.78q-1.35,2.61-2.68,5.22l-5.94,2.8C131.84,139.66,126.59,141.09,123.3,136.53Z" transform="translate(0 0)"/><path class="cls-16" d="M136.27,140.77l5.94-2.8a7.78,7.78,0,0,0,.46,1.7q-1.35,5-2.71,10.05a7.08,7.08,0,0,1-1.39.66c-5.89-.52-6.55-3.74-4.34-8.43Z" transform="translate(0 0)"/><path class="cls-8" d="M115.33,136.47l5.55,0C119,139.24,117.16,139.47,115.33,136.47Z" transform="translate(0 0)"/><path class="cls-11" d="M125.83,109.68a10.62,10.62,0,0,0,0,1.78c-2,3.77-5.5,4.2-9.11,4-7.79-.5-11.89,3.34-13.25,10.69l-4,.22a14.9,14.9,0,0,0-9.16-4.22c4.63-7.29,10.92-10.76,19.88-10.29C115.38,112.09,120.63,110.46,125.83,109.68Z" transform="translate(0 0)"/><path class="cls-7" d="M142.21,138q1.33-2.61,2.68-5.22a6.76,6.76,0,0,0,1.3-.55l5.13.69c-1,3.68-1.8,7.36-.34,11.11l-3.19,5.47-3.7.42-.48-.47c.51-3.33,2.27-6.78-.94-9.75A7.78,7.78,0,0,1,142.21,138Z" transform="translate(0 0)"/><path class="cls-9" d="M128.87,129.55c-.46,2.76-2.26,3.93-4.84,3.84-3-.1-5.18-1.66-5.23-4.73-.06-4,3.41-3.26,5.8-3.43C127.45,125,128.55,127,128.87,129.55Z" transform="translate(0 0)"/><path class="cls-8" d="M151.32,132.89l-5.13-.69c.23-3.39-4.38-9,1.11-9.56C151.83,122.22,151.63,128.66,151.32,132.89Z" transform="translate(0 0)"/><path class="cls-8" d="M144.09,149.89l3.7-.42c-.31,2-1.38,3.11-3.5,3C144.23,151.62,144.16,150.76,144.09,149.89Z" transform="translate(0 0)"/><path class="cls-11" d="M142.67,139.67c3.21,3,1.45,6.42.94,9.75l-3.65.3Q141.31,144.7,142.67,139.67Z" transform="translate(0 0)"/></svg>