<?xml version="1.0" encoding="utf-8"?>
<!-- Generator: Adobe Illustrator 25.2.1, SVG Export Plug-In . SVG Version: 6.00 Build 0)  -->
<svg version="1.1" id="Camada_1" xmlns="http://www.w3.org/2000/svg" xmlns:xlink="http://www.w3.org/1999/xlink" x="0px" y="0px"
	 viewBox="0 0 300 300" style="enable-background:new 0 0 300 300;" xml:space="preserve">
<style type="text/css">
	.st0{fill:#441B09;}
	.st1{fill:#391F02;}
	.st2{fill:#281800;}
	.st3{fill:#562B04;}
	.st4{fill:#57240E;}
	.st5{fill:#4C2902;}
	.st6{fill:#572D02;}
	.st7{fill:#3E2E1B;}
	.st8{fill:#371F05;}
	.st9{fill:#302211;}
	.st10{fill:#3B1F04;}
	.st11{fill:#3D290D;}
	.st12{fill:#6E3904;}
	.st13{fill:#4B2603;}
	.st14{fill:#402303;}
	.st15{fill:#532307;}
	.st16{fill:#814A0A;}
	.st17{fill:#694E2C;}
	.st18{fill:#253320;}
	.st19{fill:#4E360D;}
	.st20{fill:#753819;}
	.st21{fill:#8E4E29;}
	.st22{fill:#7C4313;}
	.st23{fill:#DB9639;}
	.st24{fill:#E1A84F;}
	.st25{fill:#7C4C21;}
	.st26{fill:#432205;}
	.st27{fill:#321506;}
	.st28{fill:#3B1B09;}
	.st29{fill:#522E08;}
	.st30{fill:#64401A;}
	.st31{fill:#75410C;}
	.st32{fill:#683A04;}
	.st33{fill:#F7CE76;}
	.st34{fill:#A36C34;}
	.st35{fill:#542C06;}
	.st36{fill:#6B3A17;}
	.st37{fill:#C38144;}
	.st38{fill:#814B21;}
	.st39{fill:#BD5425;}
	.st40{fill:#653408;}
	.st41{fill:#A7673C;}
	.st42{fill:#875531;}
	.st43{fill:#A96938;}
	.st44{fill:#8F5424;}
	.st45{fill:#743D23;}
	.st46{fill:#7B4D1B;}
	.st47{fill:#C88F46;}
	.st48{fill:#65370B;}
	.st49{fill:#BA7A31;}
	.st50{fill:#A96A21;}
	.st51{fill:#311805;}
	.st52{fill:#4E2905;}
	.st53{fill:#220E02;}
	.st54{fill:#532805;}
	.st55{fill:#462105;}
	.st56{fill:#633C24;}
	.st57{fill:#945822;}
	.st58{fill:#643B1D;}
	.st59{fill:#8F5313;}
	.st60{fill:#4A2308;}
	.st61{fill:#B37137;}
	.st62{fill:#693A0B;}
	.st63{fill:#EEB965;}
	.st64{fill:#D18D46;}
	.st65{fill:#A8671C;}
	.st66{fill:#8A5111;}
	.st67{fill:#814609;}
	.st68{fill:#995F18;}
	.st69{fill:#9A6B35;}
	.st70{fill:#AA723D;}
	.st71{fill:#F8C472;}
	.st72{fill:#D88E4C;}
	.st73{fill:#5D3117;}
	.st74{fill:#613305;}
	.st75{fill:#733E08;}
	.st76{fill:#542807;}
	.st77{fill:#3D1E08;}
	.st78{fill:#562F1C;}
	.st79{fill:#381C09;}
	.st80{fill:#985618;}
	.st81{fill:#F1B86B;}
	.st82{fill:#925F2C;}
	.st83{fill:#B37436;}
	.st84{fill:#8B4C11;}
	.st85{fill:#B27343;}
	.st86{fill:#8D5C22;}
	.st87{fill:#6B4525;}
	.st88{fill:#ECB066;}
	.st89{fill:#582913;}
	.st90{fill:#A6774B;}
	.st91{fill:#C5822E;}
	.st92{fill:#6B3609;}
	.st93{fill:#C67827;}
	.st94{fill:#472208;}
	.st95{fill:#E6BF6B;}
	.st96{fill:#CC9A58;}
	.st97{fill:#7A3E10;}
	.st98{fill:#6E3B0D;}
	.st99{fill:#F3AC73;}
	.st100{fill:#884F25;}
	.st101{fill:#A35321;}
	.st102{fill:#F7A35D;}
	.st103{fill:#B7855D;}
	.st104{fill:#EBB571;}
	.st105{fill:#89440C;}
	.st106{fill:#BA6718;}
	.st107{fill:#BA7126;}
	.st108{fill:#813704;}
	.st109{fill:#AD6A1E;}
	.st110{fill:#A35E16;}
	.st111{fill:#D17E26;}
	.st112{fill:#783405;}
	.st113{fill:#CC884F;}
	.st114{fill:#572D0D;}
	.st115{fill:#98633F;}
	.st116{fill:#753C15;}
	.st117{fill:#E79C56;}
	.st118{fill:#90471D;}
	.st119{fill:#C9802C;}
	.st120{fill:#FACD84;}
	.st121{fill:#EDBD6E;}
	.st122{fill:#F7CC77;}
	.st123{fill:#E9AA5E;}
	.st124{fill:#7A4419;}
	.st125{fill:#9C6437;}
	.st126{fill:#6B3008;}
	.st127{fill:#A26020;}
	.st128{fill:#9F5915;}
	.st129{fill:#B86C27;}
	.st130{fill:#D7822C;}
	.st131{fill:#D38222;}
	.st132{fill:#7F4405;}
</style>
<g>
	<g>
		<path class="st0" d="M144.1,299.9c-10,0-20,0-29.9,0c-1.8-1.7-4.1-3.4-4.9-5.6c-3.3-9.1-9.8-15.9-15.9-23
			c-2.6-8.9-0.2-16.7,5.5-23.7c8.2-5.9,14.1-14.3,23.1-19.5c8.8-5.1,7.1-14.7,7.5-23.2c1.4-7.9,7.9-15.4,1.4-24
			c-1-1.3,0.9-3.6,2.8-4.6c6,0.5,11.1,3,15.4,7.2c4.6,4.5,5.9,8.8,3,15.3c-10.2,23.4-7.1,28.8,18.5,34.4c5.9,1.3,11.6,3,17.5,4.4
			c6.5,1.5,8.4,5.1,6.2,12.5c-4.4,14.7-12.3,26.8-22.1,38.3c-5.2,6.1-10.9,9.1-18.4,10.2C150.6,299.1,147.1,297.8,144.1,299.9z"/>
		<path class="st1" d="M96.2,271.9c5.2-2,8.2,0.7,10.3,4.9c3.6,7.4,7.4,14.7,7.7,23.1c-32.6,0-65.2,0-97.8,0
			c-3.7-2.7-3.8-6.4-3.4-10.7c1.7-20.2-1.6-40.3-1.1-60.5c0-2-0.7-4.1-0.2-5.9c2.3-8.1,0.2-15.4-3.2-22.6c0.6-4.2,0.8-8.4,1.5-12.5
			c0.6-4.1,2.1-7.7,7.4-6.8c4.8,2,5.9,6.9,7.4,10.9c2.8,7.7,6.5,14.9,10.6,21.9c9.7,18.6,23.6,33.5,40.4,45.8
			c2.8,7.2,5.7,13.9,15.6,9.8C93.2,268.4,94.8,270.5,96.2,271.9z"/>
		<path class="st2" d="M299.9,198c0,32-0.1,63.9,0.1,95.9c0,5-1.1,6.3-6.1,6.1c-14.6-0.4-29.3-0.1-43.9-0.1
			c-9.8-7.4-12.1-19.3-17.5-29.3c-2-3.8,1.4-7.2,3.5-10.3c7.6-11.7,19.4-19.6,27.4-30.9c7.2-10.2,14.7-20.2,21.2-30.9
			C289.1,190.6,293.2,190.3,299.9,198z"/>
		<path class="st3" d="M253.9,0.1c13.6,0,27.3,0.2,40.9-0.1c4.3-0.1,5.3,0.8,5.1,5.1c-0.4,11-0.1,22-0.1,33c-1.6,7.3-1.6,14.7,0,22
			c0,5.3,0,10.7,0,16c-3.1,15.8-1.4,32.3-5.9,48c-0.5,1.9-1.2,3.6-2.8,4.8c-1.1,0.6-2.2,0.7-3.4,0.5c-5.3-3.1-4.9-8.4-4.9-13.4
			c1.3-31.9-13-54.5-39.2-72.4c-8.9-6.1-17.3-11.1-27.3-14.2c-8.8-3.8-17.3-8.2-26.6-10.7c-2.2-0.6-3.2-2.1-3.6-4.3
			c2.2-8,8.6-7.4,14.3-6.1c9.6,2.1,19.1,5,28.4,8.3c10.8,3.8,13.6,2.6,18.5-7.8C249.1,5.4,251.4,2.7,253.9,0.1z"/>
		<path class="st4" d="M144.1,299.9c26.5-7.6,37.9-28.4,45.4-52.4c2.1-6.8-3.3-6.7-7.5-7.4c-10.7-1.8-21.7-2.1-31.6-7.8
			c-11.1-6.4-12.9-10.3-8.6-22.6c0.4-1.3,0.9-2.5,1.4-3.7c7.3-17.3,11.5-16.4-9.2-28c-7.3,0-12.5-5-11.1-11.8
			c0.7-3.4,0.7-7.4,3.3-10.2c3.3-3.2,6.7-6.3,11-8.2c5,0.9,6.8,5.2,9.1,8.9c1.1,3.4-1.3,6.1-1.9,9.2c-0.6,5.5,1.8,9.6,6.3,12.6
			c4.4,2.9,8,6.9,12.5,9.7c7,4.3,10.7,10.7,10.3,19c-0.2,5.2,1.3,9.8,3.8,14.1c3.4,5.8,6.8,11.6,15.6,8.5c3.6-1.3,7.7,1.3,11.8,0.8
			c1.6,0,3.1,0.2,4.7,0.3c4.3,0.6,9.3-1.4,12.5,3.3c0.8,4.1,0.8,8-1.3,11.7c-0.5,0.9-1.3,1.7-2.2,2.3c-1.3,0.6-2.6,1.3-3.9,2.2
			c-1.9,3.9-9.1,2.1-8.9,8.2c0.7,3.4,0.6,6.8-0.3,10.1c-2,3.7-3.3,7.9-6.1,11.1c-0.8,0.7-1.7,1.1-2.7,1.2
			c-6.5,1.3-12.3,2.4-11.4,11.7c0.6,5.6-6.6,3.9-9.4,6.9C165.4,299.9,154.8,299.9,144.1,299.9z"/>
		<path class="st5" d="M0.4,16.1c0-3.7,0.6-7.5-0.1-11c-1.3-6.3,2.8-4.9,6.1-5c6.5,5.2,5.9,13.9,10.8,20.7c2.7-2.8,3.7-7.8,8.7-8.1
			c4.9-0.4,6.7,3.8,9.8,6c2.7,2,5.7,3.3,8.9,4.3c10.4,3.4,13.3,10.5,8.5,20.6c-2,4.2-3.1,9.2-7.3,12c-5,3.4-3.8,8.8-4.7,13.5
			c-11,17.9-19,36.8-22.9,57.6c-1,5.4,2.5,12.4-4.2,16.3c-9.3-2.6-7.1-11-7.6-17.1c-0.5-7.1-0.2-14.4,0.1-21.6
			c8.1-9.5,3.9-21.2,4.7-31.8c0.8-10.4-1.1-21.2-5.5-31.1C1.9,33.4,4.6,24.1,0.4,16.1z"/>
		<path class="st6" d="M38.4,68.2c-0.3-5.2,0.9-9.8,4.4-13.8c3.8-4.3,5.7-9.8,6.9-15.3c0.8-3.7,0.7-8.1-3.3-9.5
			c-6.6-2.4-13-4.6-17.9-10.1c-2.3-2.5-4.3-0.3-5.1,2.1c-0.7,2.2-0.6,4.6-1,6.9c-0.4,2.4,1.1,6-2.6,6.5c-2.5,0.3-4-2.4-4.9-4.5
			c-4-9.8-9.8-19.1-8.5-30.3c17.3,0,34.6,0,51.9,0c12.1,12,11.6,26.2,7.3,41c-6.7,10-15.7,18.1-23.5,27.2
			C41.1,69.4,39.6,68.9,38.4,68.2z"/>
		<path class="st7" d="M10.4,104c3.3,12.4-1.4,25.6,3.2,37.9c6.9,5.4,2.5,13.6,4.9,20.1c0.3,7.3,2.9,14.7-0.5,22
			c-7.3,4-2.2,10.8-3.7,16c-0.1,4.9-0.1,9.8-1.8,14.3c-2.1,5.7-5.1,10.5-12.2,5.6c0-51.3,0-102.6,0-153.9c6.9-2.4,9.7,2.6,9.8,7.3
			C10.5,83.6,12.4,93.8,10.4,104z"/>
		<path class="st8" d="M253.9,0.1c-0.6,3.6-0.9,7.2-1.7,10.7c-3.7,14.7-8.1,16.2-22.6,11.7c-13.5-4.1-26.4-12.4-41.7-8.3
			c-5.4,6.5-11.4-0.8-17,0.8c-1.6-0.2-3.1-0.8-4.6-1.4c-4.3-1.8-8.9-1.8-13.4-2.7c-5.6-1.1-10.2-3.6-6.7-10.8
			C182.1,0.1,218,0.1,253.9,0.1z"/>
		<path class="st9" d="M0.4,219.9c10.3-2.6,10.1-12.7,14-19.9c3.9,10.9,3.2,22.6,3,33.6c-0.3,22.1,4.3,44.3-1,66.3c-16,0-16,0-16-16
			C0.4,262.6,0.4,241.2,0.4,219.9z"/>
		<path class="st10" d="M299.9,198c-4.7-1.2-9.1-1.5-12.4,3.3c-14.2,20.7-28.5,41.2-46.7,58.7c-4.6,4.4-4.9,9-1.3,14.2
			c5.4,7.8,6.4,17.4,10.4,25.7c-1.3,0-2.7,0-4,0c-1.1-0.7-2.3-1.3-3.5-1.8c-5.8-2.4-12.8-0.1-16.9-9.1c-3.5-7.8-3.8-14.5-2.6-22.1
			c0-6.8,7.6-8.8,9.2-14.7c15.7-9.4,26-23.7,35.8-38.7c4.9-7.4,7.9-15.7,11.2-23.9c0.5-0.9,1.2-1.6,1.9-2.2c5-2.5,7-7.1,9.2-11.8
			c1.9-3.9,4.8-6.7,9.6-3.6C299.9,180.6,299.9,189.3,299.9,198z"/>
		<path class="st11" d="M10.4,104c-2-8.3-4-16.5-4.2-25.1c-0.1-5.1-1.6-9.7-5.9-12.9c0-16.7,0-33.3,0-50
			C10,37.5,20.5,58.7,15.1,83.2C13.6,90.2,16.8,98.2,10.4,104z"/>
		<path class="st12" d="M62.2,42.1c3.9-14.5-1.4-28.1-3.9-42c5.3,0,10.6,0,16,0c6,4.5,0.3,12.9,6,18c2.6-3,2.3-7.8,6.4-9.5
			c1.7-0.8,3.3-0.8,5-0.2c4.7,3.1,5.2,7.4,3.6,12.3c-3.1,7.2-9.8,10.3-16,13.9c-4.4,2-7.4,6-11.8,7.9C65.5,43.3,63.7,43.8,62.2,42.1
			z"/>
		<path class="st13" d="M146.1,0.1c2.4,5.8,6.5,8.6,13,7.3c3.4-0.7,6.4,0.3,9,2.6c-1.3,2.3-3.5,3.1-5.9,2.9
			c-15.3-0.8-30.3,2-45.3,4.1c-12.1-1.8-14-6.8-6.7-16.9C122.2,0.1,134.1,0.1,146.1,0.1z"/>
		<path class="st14" d="M299.9,172c-7.6,4.3-8.6,15.2-17.8,18c-4.7-4.4-1.6-9.2-0.4-13.6c3.7-12.9,7.1-26,9.5-39.2
			c1.7-3.5,2.2-7.5,2.8-11.1c0.7-4.2,1.4-6.4,5.9-6.1C299.9,137.3,299.9,154.7,299.9,172z"/>
		<path class="st15" d="M226,266.1c0.1,3.9-0.5,8.1,0.5,11.7c2,7.4,3.5,15.6,13.6,17.1c2.1,0.3,3.9,3.2,5.8,4.9c-6.7,0-13.3,0-20,0
			c-2.9-1.9-5.9-3.8-9.3-4.7c-2-1.4-4.3-2.3-6.2-3.8c-1.6-5.2-4.1-10.2-2.6-16c0.7-1.6,1.5-3.2,2.3-4.7c0.7-0.9,1.7-1.6,2.8-2
			C217.4,268.1,220.4,260.2,226,266.1z"/>
		<path class="st16" d="M110.2,0.1c0.7,5.8-2.3,13.8,8.1,14.1c-0.5,7.4-7.1,5.1-11.1,7c-5-0.7-9.5,7.2-14.9,1
			c-0.7-4.1-1.4-8.2-2.1-12.2c-4.1-3.3-3-6.6,0.1-9.9C96.9,0.1,103.5,0.1,110.2,0.1z"/>
		<path class="st17" d="M299.9,120c-3.6,5.5-2.9,12.4-5.8,18.2c-7.7-0.9-7.6-4.9-4.1-10.3c2.9-17.4,5.2-34.9,10-51.9
			C299.9,90.7,299.9,105.4,299.9,120z"/>
		<path class="st18" d="M90.2,0.1c0,3.3,0,6.6-0.1,9.9c-0.7,0.7-1.3,1.4-2,2.1c-1.2,3.9-1.3,9.2-7.5,8c-5.6-1-4.2-5.9-4.3-9.6
			C76.2,7,75.6,3.2,78.2,0.1C82.2,0.1,86.2,0.1,90.2,0.1z"/>
		<path class="st19" d="M78.2,0.1c0,3-0.2,6,0,8.9c0.1,2.9-0.3,6.5,3.2,7.6c3.8,1.3,4.8-2.5,6.7-4.6c-0.3,2.2-0.2,4.6-1,6.7
			c-1.1,3.1-2.8,6.3-6.8,5.9c-3.9-0.4-5.4-3.6-5.6-7C74.3,11.9,74.4,6,74.3,0.1C75.6,0.1,76.9,0.1,78.2,0.1z"/>
		<path class="st20" d="M176.1,299.9c3-4.3,6.3-8.2,6.4-14.1c0.1-7.7,7-6.4,11.7-7.9c1.4,1.5,2.2,3.1,1.3,5.2
			c-7,5-2.2,11.1-1.4,16.8C188.1,299.9,182.1,299.9,176.1,299.9z"/>
		<path class="st21" d="M194,299.9c-12.6-5.3-12.6-6-2-18c3.5,5.2,2.8,13.4,10.8,15.5c0.2,1-0.1,1.8-0.8,2.5
			C199.4,299.9,196.7,299.9,194,299.9z"/>
		<path class="st22" d="M202,299.9c0-0.7-0.1-1.4-0.1-2.1c-2.3-2.2-2.2-4.6-0.9-7.2c1-4.1,2.3-8.1,4.5-11.8c1.9-3.2,4.2-4.9,8-3.1
			c1.1,4.8-2.8,9.7,0.7,14.4c1.9,8.8-7.5,5.8-10.2,9.8C203.4,299.9,202.7,299.9,202,299.9z"/>
		<path class="st23" d="M220,290c3.4,2.4,4.7,6.1,6,9.8c-4.7,0-9.3,0-14,0C210.7,293.3,215.1,291.5,220,290z"/>
		<path class="st24" d="M220,290c-3.7,2.4-6.8,5.3-8,9.8c-2.7,0-5.3,0-8,0c0-6.9,8.5-4.8,10.2-9.8C216.2,290.1,218.1,288.1,220,290z
			"/>
		<path class="st25" d="M299.9,60.1c-2.6-7.3-3.4-14.7,0-22C299.9,45.4,299.9,52.8,299.9,60.1z"/>
		<path class="st26" d="M96.2,271.9c-10.7,3.2-19.4,1.8-24-9.9c-2.8-2.5,6.4-0.2,1.4-3.8c-15.9-11.4-27.5-26.9-39.2-42.2
			c-3.1-6.7-8.3-12.5-8.9-20.3c-3.7-11.6-1.2-23.6-2.9-35.4c-1.2-7.9,9.3-21.6,17.5-24.8c7.6,3.5,8.7,9.4,5.9,16.5
			c-3.8,9.4-4.9,19.1-3.9,29c0.2,1.8,0.9,3.9,2.2,5.3c13.5,14.6,25.9,30.4,44.9,38.6c2.9,8.5,12.8,13.1,13,23.1
			C100.6,256,94.6,263,96.2,271.9z"/>
		<path class="st27" d="M102.2,248c-6.4-5.8-12.8-11.6-16.1-20c0.2-0.4,0.5-0.8,0.7-1.2c0.8-0.6,1.7-1.1,2.7-1.1
			c13.1-0.2,14.1-1.7,8.7-13.1c-4.7-9.8,1.2-28.5,11.5-36.8c5.8-0.3,6.1,5,9,8.8c2.2-3.1,4.7-7.4,8.9-4.8c4.2,2.5,7.9,6.7,8.2,11.8
			c0.2,4.7,1.4,9.9-1.6,14.3c0.5,12.6,0.9,24.9-14.5,29.8c-3.5,1.1-5.4,4.8-7.3,7.9C109.9,247.6,106.6,249,102.2,248z"/>
		<path class="st28" d="M134.2,205.9c-0.1-8.5,1.2-17.5-9.4-22.6c0.5,1.6,0.7,2.4,1,3.2c1.2,3,7,5.6,2.8,9
			c-4.2,3.4-7.9-0.8-11.1-3.6c-4.2-3.7-4.6-9.5-7.3-14c-7.7-5.5-6.9-9.8,2.9-15.8c0.2-0.3,0.7-0.4,0.9-0.7c3.4-13.7,2.1-16.6-9.6-22
			c-2.1-0.9-4.2-1.9-5.1-4.4c-1.8-7.1-2-14.5-6.3-20.9c-2.3-3.4-1.3-7.3,2.4-9.9c3.4-1.7,6.4-0.2,9.4,1.3c1.3,0.6,2.6,1.2,4,1.6
			c2.8,0.4,3.6,4.2,6.8,4.2c7.2,2.5,13.4,8.4,22,6.5c1.5-0.3,2.7,1.7,3.2,3.3c1.8,5.5-3.4,9.3-3.6,14.3c-2.5,3.9,0.7,8.4-1.1,12.4
			c-2,2.9-6,4.3-6.1,8.5c-2.6,8-5.7,16,4.2,21.6C136.3,187.3,141.3,196.6,134.2,205.9z"/>
		<path class="st29" d="M36.5,215.9C55.3,231.4,67,254,88.8,266.7c-7,1.8-10.8-4.6-16.6-4.7c-15.7-13.2-31.4-26.5-39.9-46
			C33.7,214.6,35.1,214.7,36.5,215.9z"/>
		<path class="st30" d="M36.5,215.9c-1.4,0-2.8,0-4.1,0c-6.5-9.9-10.2-21-14.3-31.9c-1.2-6.7-2.3-13.4-3.5-20.1
			c1.3-1.3,2.8-2,4.7-1.8c3.4,0.9,4.9,3.4,4.6,6.5c-0.7,9.5,1.8,18.5,4.4,27.4C29.1,203.5,33.4,209.5,36.5,215.9z"/>
		<path class="st31" d="M289.9,127.9c0.2,3.9,1.5,7.4,4.1,10.3c-1.6,17.8-8.1,34.5-12,51.8c0,0-0.4-0.1-0.4-0.1
			c-1.2,1.3-2.7,1.5-4.3,0.8c-4.9-5.3,3.6-10.5,0.1-15.8c-1.8-12-2-12.1-13.1-9.2c-6,1.6-10.5,0.2-14.1-5.7c-2.6-4.2-2.6-9.7-6.8-13
			c-8-4.6-6.1-12.3-6.2-19.4c1.6-3.3-0.1-6.6,0-10c0.6-2.5,1.5-4.8,2.4-7.2c1-1.3,2.2-2,3.8-2.2c3.8,0.3,4.6,3.2,5.4,6.2
			c1,3.6,2.9,6.6,5.7,9.1c7.3,6.6,11.1,6.3,16.5-2.3c3.2-5.1,6.2-8.9,12.2-3.7c3,9,1.8,18.8,4.7,26.7c0.3-4.7-5.6-10.7,0.2-16.4
			C288.7,127.9,289.3,127.9,289.9,127.9z"/>
		<path class="st32" d="M217.5,26.3c8.2-1.8,14.6,3.2,19.5,7.7c8.3,7.7,19.4,11.3,26.9,19.7c15.4,17.1,24.8,36.5,21.9,60.4
			c-0.8,0.6-1.8,0.8-2.7,0.4c-3-3.4-2.8-8.3-5.8-11.6c-3-14.3-10-26.5-19.6-37.3C250,52.3,237.6,44,225.5,35.2
			C222.2,32.9,217.1,32,217.5,26.3z"/>
		<path class="st33" d="M217.5,26.3c16.2,10.2,31.6,21.3,42.6,37.4c0.9,2.6-0.4,4-2.5,5c-6.2,1.5-8.5-3.9-11.9-7
			c-9.1-8.4-17.3-17.9-29.8-21.7c-5.7-5.1-10.4-12.1-19.8-10c-10.2-6.2-21.5-8.7-33.2-10.2c-1.1-0.4-2.1-0.8-3.1-1.3
			c-2.4-1.4-6.6-1.9-5.8-5.5c0.7-3.1,4.4-1.7,6.9-1.8c3.2-0.1,6.5-0.6,9.7,0.6c5.8,0.8,11.5,1.6,17.3,2.4
			C197.7,18.3,207.6,22.3,217.5,26.3z"/>
		<path class="st34" d="M284.3,113.7c0.5,0.1,1,0.3,1.5,0.5c0.8,4.6,1.5,9.2,2.3,13.8c-1.1,9.1,3.8,18.4-1.8,29.1
			c-1.5-14-1.6-26.6-5.2-38.7c0-0.4,0-0.9,0-1.3C281.3,115.1,282.2,113.8,284.3,113.7z"/>
		<path class="st35" d="M281.8,174.1c0.5,5.7-2.6,10.5-3.8,15.8c1.8,4.6-0.1,8.4-2.3,12.4c-2.3,4.2-5.1,8.2-4.1,13.4
			c-8.9,16.1-19.6,30.5-35.7,40.2c-13.4,2.2-15.9,0.8-17.9-10.1c0-3.4,0.1-6.8,2-9.9c3.4-3.8,7.4-7.3,6-13.2
			c2.5-10.5,4.6-21.1,5.2-31.9c2.2-4.7,5.7-5.1,9.8-2.8c1.4,0.8,2.7,1.9,4.2,2.6c13.4,6.8,16.5,5.8,23.3-7.4c1.5-3,2.9-6,4.9-8.7
			C276,171.4,278.8,170.6,281.8,174.1z"/>
		<path class="st36" d="M204.1,234c-15.8,6.5-38.1-4.3-34.9-28.1c0.8-6.2-1.8-10.3-6.2-13.7c-5.5-4.3-11.2-8.2-16.8-12.4
			c-4.7-3.5-9.1-7.2-6-14c6.5-0.7,7.6,6.2,11.8,8.8c6.3,3.9,13.3,6.9,18.5,12.4c7.3,7,9.9,16.8,14.3,25.3
			C189.6,221.5,195,229.1,204.1,234z"/>
		<path class="st37" d="M213.6,275.7c-3.1,5.5-6.2,11-9.3,16.5c-9.4,2.8-11.3,1.3-10-7.9c0.3-2.2,0.5-4.5,1.7-6.5
			c1.4-3.3,2.8-6.6,4.3-9.8c1.8-4.6-0.4-11,6.5-13.1c3.1-1,6.1-0.9,8,1.8c3.6,5.2,2.7,10.5-0.5,15.7
			C214,273.4,213.8,274.5,213.6,275.7z"/>
		<path class="st38" d="M204.1,234c-11,1-16.7-4.2-20.1-14.7c-3.5-10.9-9-21.2-17.5-29.4c4.7-5.4,8.6-2.1,12.5,1.2
			c3,3,5.6,6.1,6.5,10.5c0.9,4.4,3.7,7.4,7.9,9.1c3.3,8.2,8.7,14.9,15.4,20.6c0.2,1-0.1,1.9-0.8,2.6
			C206.7,233.9,205.4,233.9,204.1,234z"/>
		<path class="st39" d="M178,194.5c-3.3-2.8-7-4.8-11.5-4.6c-5.6-4.4-11-9.1-16.9-13c-4.3-2.9-7-6.7-9.3-11c0.4-2.6,0.9-5.1,1.3-7.7
			c0.4-0.3,0.8-0.6,1.2-1c5.4-0.9,6.2,4.5,9.3,6.7c4.9,4.7,10.1,8.9,16.7,11.5c7.4,2.9,9.7,10,11.3,17.1
			C179.6,193.4,178.9,194,178,194.5z"/>
		<path class="st40" d="M218,245.8c4.7,5.6,11.4,7.7,17.9,10.1c-3.3,3.4-6.6,6.8-9.9,10.2c-4.2,0.6-6.7,3.9-10.1,5.8
			c1.2-8.6-6.7-17.3,0.2-25.9C216.7,245.9,217.4,245.8,218,245.8z"/>
		<path class="st41" d="M216.1,246c-0.1,8.6-0.1,17.3-0.2,25.9c-0.5,0.2-1.1,0.3-1.6,0.4c-0.1-0.6,0-1.3-0.2-1.9
			c-0.8-4.2,1.4-10.1-4.6-11.5c-6.8-1.6-6.9,5.3-9.4,9c0-4-0.1-8-0.1-12c2.3-5.5,8-6.6,12.2-9.7C213.6,246.1,214.8,246,216.1,246z"
			/>
		<path class="st42" d="M134.8,148.2c-2.3-3.9-3.5-7.9-0.7-12.2c1.2-1.1,2.6-1.8,4.3-1.6c4.4,4.4,10.1,8,10.7,15.2
			c-0.8,3.9-3.4,6.5-6.5,8.7c-0.4-0.1-0.8-0.2-1.1-0.3c-1.7-2.8-2.4-6.4-5.5-8.4C135.4,149.5,134.9,149,134.8,148.2z"/>
		<path class="st43" d="M195.9,277.7c0.1,6.3-1.4,13.6,8.3,14.4c-0.8,1.9-1.6,3.8-2.3,5.7c-10.8-0.6-12.2-7.1-9.9-16
			c0.7-1.3,1.4-2.6,2.1-3.9C194.7,277.8,195.3,277.7,195.9,277.7z"/>
		<path class="st36" d="M208,233.9c0-0.6,0-1.3,0-1.9c6.1-6.4,13.5-8,22-6c-0.4,6.2-3.9,9.4-9.9,9.9
			C216.3,233.6,212,234.2,208,233.9z"/>
		<path class="st44" d="M134.8,148.2c0.4,0.5,0.9,1,1.3,1.5c-0.7,3.4-0.8,7.4-6.1,6.7C123.9,149.1,129.1,148.5,134.8,148.2z"/>
		<path class="st45" d="M212.3,246.1c-3,4.6-8.6,6-12.2,9.7C201.6,249.3,206.3,246.9,212.3,246.1z"/>
		<path class="st46" d="M18.2,163.9c-1.2,0-2.4,0-3.7,0c-0.3-7.3-0.6-14.6-0.9-21.9c1.5-26.8,9.8-51.4,24.7-73.7
			c7.9-8.7,15.9-17.4,23.8-26.1c1.4-0.6,2.8-1.3,4.1-1.9c2.4,0.2,4,1.4,4.7,3.7c-0.4,7.9-7.4,10.6-11.9,15.3
			C49.7,65.9,45.2,76.5,39.7,86c-6.2,10.8-11.2,22.6-13.3,35.2c-1.6,11.2-2.9,22.4-3.8,33.6C22.3,158.3,22.9,162.4,18.2,163.9z"/>
		<path class="st47" d="M170.6,11.8c-4.1,0-8.3,0-12.6,0c0.3,3.5,3.2,2.6,4.3,4c-4.7,6.5-11.8,7.5-18.6,6.2c-10.5-2-20.2-0.1-30,3.2
			c-4-0.6-7.5-1.8-7.3-7c3.9-1.3,7.9-2.7,11.8-4c16.4-4.1,33.1-4.8,49.9-4.2C168.9,10.6,169.7,11.2,170.6,11.8z"/>
		<path class="st48" d="M271.6,215.7c-4.1-2.6-1.5-5.7-0.4-8.6c2.1-5.8,4.5-11.5,6.8-17.2c1.2,0,2.5,0,3.7,0
			C280.7,199.4,275,207.1,271.6,215.7z"/>
		<path class="st49" d="M106.4,18.3c2.6,0.6,5.2,1.2,7.8,1.9c1.2,2.1,0.6,4.3-1.3,5.2C102,29.9,92.3,37.4,80.1,38.9
			c-2.9-1.2-4.8-2.9-3.5-6.4c5.2-3.4,10.4-6.8,15.7-10.2C97,20.9,101.7,19.6,106.4,18.3z"/>
		<path class="st50" d="M76.6,32.5c1.1,1.1,2.1,2.3,3.2,3.4c1.9,6.5-4.2,6.8-7.2,9.4c-1.6,0.2-3-0.3-4.3-1.4c-0.7-1.3-1.3-2.5-2-3.8
			C69.7,37.6,73.2,35.1,76.6,32.5z"/>
		<path class="st51" d="M98.2,106c-1.9,10.2,2.9,18.9,6,28c-4.9,5.8-9.1,2.6-12.1-1.8c-6-8.8-15.8-4.9-23.6-7.4
			c-1.9-0.6-4,1.5-4.3,3.5c-1.6,13.4-11.1,24.1-12.8,37.5c-0.9,7.7,0.5,14.1,5.9,20.1c8,8.9,15,18.1,26.6,23.2
			c7.8,3.4,8.1,12.5,2.2,18.7c0,0-0.1,0.1-0.1,0.1c-14.8-6.1-24.3-18.7-36-28.8c-12.1-10.4-12.9-21.4-11.4-35.7
			c0.9-8.3,7-16.8,1.6-25.5c-5.1-3.3-3.3-7.9-1.2-11.4c6.7-11.1,9.1-23.2,9.7-35.8c2.5-3.8,6.4-6,9.9-8.7c2.7-1.8,6.2-0.8,9-3.1
			c5.9-4.9,12.3-4.9,18.5-0.4c4.8,3.1,10.5,2,15.7,3.1c1.5,0.7,2.7,1.7,3.4,3.3C108.4,93.8,102.6,99.7,98.2,106z"/>
		<path class="st52" d="M54.3,92.1c-2.8,15.9-9.2,30.7-14,46c-13,14.2-16.3,30.8-12.3,49.2c0.6,3,0.9,5.9,0.3,8.8
			c-6.9-9.6-5.3-21.8-10.1-32.1c0-15.4-0.1-30.8,4.3-45.8c9.9-4,14.8-12.5,19.9-21.3C44.5,93.3,47.9,87.5,54.3,92.1z"/>
		<path class="st53" d="M86.3,227.9c0.5-8.5-2.6-14-11.2-17.6c-12-5-19.1-16.4-26.1-26.4c-8-11.4-2.6-24.5,2.7-36
			c3.2-7,6.3-13.7,6.9-21.5c0.7-9.2,5.1-11.3,13.5-7.7c0.3,0.1,0.6,0.5,0.9,0.4c13.7-2,22.4,6.6,31.2,14.9
			c15.7,2.1,17.3,4.3,16.1,21.3c-0.3,4.3-0.4,8.6-2.2,12.6c-0.7,0.7-1.3,0.6-1.7-0.4c-9.5-0.9-6.8,5.4-6.2,10.5
			c-2.5,6.5-4.8,13-7.4,19.4c-2.3,5.6-2.5,11,1.9,15.7c4.2,4.5,6.8,9.1,1.7,14.7c-4.9,5.4-10.6,6.3-16.8,2.3
			C88.5,229.3,87.4,228.6,86.3,227.9z"/>
		<path class="st54" d="M138.2,122.2c-9,0.2-16.4-4.5-24.1-8.1c-1.9-0.9-3-2.3-2.8-4.5c4.6-6.2,9-2.7,13.4,0.2
			c-5.3-2.6-8.8-8-14.7-9.6c-1.7-1.3-3.4-2.6-3.3-5.1c0.6-3.4,3.7-4,6-5.5c12.6,0,23.4,5.6,33.4,12c7.3,4.7,3.2,12.2,0.7,18.5
			C144.6,122.6,142.2,125.5,138.2,122.2z"/>
		<path class="st55" d="M114.2,94c-2,0.7-4,1.4-6,2.1c1.7,5.4,1.8,10.2-3.8,13.5c-4,2.1-5.1-0.6-6.2-3.6c-0.7-7.1,6.3-12.6,4.1-20
			c1.9-3.1,4.7-3.2,7.8-2.2C113.8,86.3,116.7,89,114.2,94z"/>
		<path class="st56" d="M138.2,122.2c2.4-0.6,4.5-1.8,6-3.9c7.8,3.2,8,5.2,1.5,15.2c-2.1,2.5-4.8,3.5-8,2.8
			c-1.2-0.1-2.4-0.2-3.6-0.3C134.6,131.1,136,126.6,138.2,122.2z"/>
		<path class="st55" d="M112.4,109.6c0.6,1.5,1.1,3,1.7,4.5c-3.2,2.7-4.6,8-10.1,8.1c-2.3-5.7,7.2-7,3.6-12.4
			c-0.6-2.4,0.4-3.9,2.7-4.5C112.9,105.8,113.8,107.2,112.4,109.6z"/>
		<path class="st57" d="M110.2,106.3c-0.8,1.1-1.7,2.3-2.5,3.4c-1.1-0.1-2.2-0.1-3.3-0.2c1.3-4.5,0.4-9.6,3.8-13.5
			c1.3,0.7,2.5,1.4,3.8,2.2C115.6,101.8,114.7,104.4,110.2,106.3z"/>
		<path class="st58" d="M116.4,167.5c0.6,0.1,1.2,0.3,1.7,0.4c0.8,2.2,4.1,3.9,1.8,6.7c-1.2,1.5-3,0.9-4.3-0.2
			C112.8,171.8,113,169.5,116.4,167.5z"/>
		<path class="st48" d="M281.8,174.1c-8.2,5.1-9.5,14.6-13.9,22.1c-3.8,6.4-6.4,11.3-14.5,3.9c-5.1-4.7-12.6-6.8-19-10
			c-7.3-2.6-7-8.6-6.4-14.7c2-7-1.5-14.3,1-21.3c2.3-2.9,4.1-6.2,7.5-8.1c1.6-0.8,3.3-1.2,5-1.2c1.5,0.3,3.1,0.4,4.3-0.8
			c5.4,2.8,5.6,9.4,9.7,13.4c2.3,2.2,4.9,5.5,7,2.1c6.4-10.5,11.7-2,16.9,0.7C285.9,163.5,283.5,169,281.8,174.1z"/>
		<path class="st59" d="M281.1,118.4c-5.5,4.7-7.4,12.5-14.5,16.2c-4.5,2.3-7.1,2.9-11-1c-6.8-6.6-12.9-13.1-11.9-23.4
			c-2.9-2.3-6.5-0.3-9.5-1.6c-2.3-1-3.5-3-4.8-4.8c-1.1-1.4-2.4-2.5-3.9-3.3c-9.7-6.1-2.8-13.2-1.1-19.9c6.5-4.7,12.2-3.6,17.5,2
			c1.4,1.4,2.8,2.8,4.4,4c6.3,5,8.8,4.4,11-3.3c1.2-4.1,2-7.8,7.4-7.5c7.6,6.6,10,16.1,13.5,25c1.7,5.7,5.8,10.8,4.1,17.3
			L281.1,118.4z"/>
		<path class="st60" d="M233.7,100c0.8,2,1.5,4,2.3,6c2,2,4.8,3.3,5.7,6.3c-0.5,1.9-1,3.7-1.5,5.6c-1,0.2-1.9,0.5-2.4,1.4
			c-0.2,0.7-0.1,1.3,0.2,2c1.9,1.9,1.8,4.9,3.8,6.7c3.3,4.9-2.5,12.1,4,16.2c-0.6,1.3-1.2,2.6-1.8,3.9c-1,1.4-2.2,2.4-4.1,2
			c-2.7,1.4-5.5,2.8-8.2,4.1c-4.2,1.8-6.1-1.1-8-3.9c-1-3-0.4-6.1-0.8-9.1c-1.1-6.7-1.4-14.1-11-14.2c-2.8-0.4-4.2-2.3-4.6-4.9
			c0.1-5.4,9.7-9.1,2.7-15.7c-0.3-0.8-0.7-1.5-1.3-2c-3.9-2.6-7.5-5.3-6.6-10.8c0.7-2.9,3.5-4.6,4.1-7.5c0.5-1.5,0.9-2.9,1.5-4.4
			c6.2-8.8,7.9-9.1,16.7-2.3c0.6,0.9,1,1.9,1.1,3.1c2.4,2.2,3,4.5,1.1,7.5c-1.4,2.1-2.5,4.7,1.2,6.1C231.5,95,232.8,97.3,233.7,100z
			"/>
		<path class="st61" d="M241.8,127.9c-2.9,1-4-4.3-7.3-2.1c-4-5-5.7-9.3,3.3-10.1c0.8,0.7,1.6,1.4,2.4,2.2
			C241.2,121.1,242.5,124.3,241.8,127.9z"/>
		<path class="st62" d="M241.7,112.3c-2.9-1.2-5-3.1-5.7-6.3c4.3-1.9,8-2.7,7.7,4.1C243,110.8,242.3,111.5,241.7,112.3z"/>
		<path class="st63" d="M276.6,101.7c-3.7-8.1-6.9-16.5-12.5-23.5c-5.6-2.1-12-3.7-7.8-12.1c1.3-0.8,2.6-1.5,3.9-2.3
			c9.4,11.4,17,23.6,20.3,38.2C279,103.3,277.7,103.2,276.6,101.7z"/>
		<path class="st64" d="M276.6,101.7c1.3,0.1,2.6,0.2,3.9,0.3c3.2,3.3,2.9,7.8,3.9,11.8c-0.8,1.4-1.5,2.8-2.3,4.3
			C280.2,112.5,278.4,107.1,276.6,101.7z"/>
		<path class="st65" d="M256.2,66c2.6,4,5.2,8.1,7.8,12.1c-1.9,2.9-2.6,6.3-1.8,9.5c1.4,5.7-2,7.6-6.2,9.4c-4.4,2-7.2,0.5-10.4-2.8
			c-5.5-5.7-10-13.8-20.1-11.8c-0.6-0.2-1.1-0.4-1.6-0.7c-4.9-5.4-11.5-9.3-12.4-17.9c-0.4-4.1-5.9-3.4-9-5
			c-1.2-0.9-2.7-1.3-4.1-1.8c-4.2-0.9-5.7-4.5-7.6-7.7c-3.6-13.1,2.8-19.8,16-17.9c4.5,0.7,8.5,2.8,13,3.1
			C234.2,42.4,245.9,53.5,256.2,66z"/>
		<path class="st66" d="M164.1,16.3c12.4,0.3,24.1,4.3,35.6,8.3c1.5,4.9-2,5.5-5.4,6c-3,0.5-5.8-0.3-8.7-1c-2.8-0.7-6.3-2.3-7.6,1.6
			c-1.1,3.4,2.1,5.2,4.7,6.6c3.7,2.1,8.1,3.5,6.9,9.2c-1.8,2.5-4.1,4.4-6.5,6.1c-6.7,1.1-11.4-3.8-16.9-6.1
			c-5.4-2.3-10.6-3.1-16.3-2.6c-9-3.9-17.4-3.1-25.2,3c-4.3,3.3-9,3.9-14,1.8c-2.7-2-5.8-3.1-9-2.2c-3.7,1.1-5.7-0.7-7.1-3.5
			c-1.6-3.1-0.2-5.7,1.8-8.2c2-2.4,4.6-3.8,7.3-5.1c17.3-8.5,35-15.1,54.8-12.8C160.4,17.4,162.4,17.9,164.1,16.3z"/>
		<path class="st67" d="M164.1,16.3c-2,3.2-5.2,2.4-8.1,2.1c-21.9-2.5-38.7,9.1-55.7,20c-0.7,0.5-1,1.6-1.9,3.1
			c4.2,2.7,10.2,0.3,13.5,4.6c1.7,2.1,0.9,4.1-1,4.9C99.9,56,90.8,65.3,78.2,67.1c-6.6-2-10.1-5.2-6.9-12.9c1.5-3.7,2-8.3-0.9-12.1
			c3.1-2.1,6.3-4.1,9.4-6.2c10.6-7.3,23.1-10.3,34.5-15.8c15.9-2.8,31.8-5.2,48.1-4.3C162.9,15.9,163.5,16,164.1,16.3z"/>
		<path class="st68" d="M188,45.8c-2.7-1.1-5.5-3.1-8.2-3c-9.9,0.4-7.7-9.8-12.6-13.8c-1.7-1.4,1.3-3.1,3.1-3.8
			c5.6-2.1,11.2-4,17.1-0.9c4,2,8.2,2.3,12.3,0.3c7.3,2.2,13.8,5.8,20.1,9.9c-4.9-0.1-9.8-0.7-14.6-0.1c-7.8,0.9-12.8,4.9-11.1,13.8
			C191,50.3,189,49.3,188,45.8z"/>
		<path class="st69" d="M233.7,173.8c0.2,5.4,0.5,10.8,0.7,16.2c-2,11.9,2.4,24.6-4.5,35.9c-7.3,2.2-14.3,5.3-22,6
			c-9.5-2.5-12.5-11.5-18.2-17.8c0.3-0.9,0.8-1.6,1.6-2.2c5.4-0.9,10.2,2.2,13,5.4c4.2,4.7,8.1,4.3,12.9,2.7
			c4.1-0.9,6.1-2.8,2.9-6.8c-0.8-3.1-2.1-5.8-4.4-8.1c-0.5-2.3-1.7-4.4-2.1-6.8c0.1-6.5,7.9-4.7,9.9-9.2c4.2-1.9,3.3-5.8,3.9-9.2
			C228,176.4,228.2,172.2,233.7,173.8z"/>
		<path class="st70" d="M192.1,213.9c-0.8,0.1-1.5,0.1-2.3,0.2c-6.6-4.9-7.1-13.6-11.8-19.7c0.2-0.9,0.3-1.8,0.5-2.8
			c3.3-3.2,5.7-0.6,7.2,1.7c2.2,3.4,5.4,5.7,8,8.7c0.5,0.8,0.9,1.7,1.1,2.6C194.8,208,194.5,211.3,192.1,213.9z"/>
		<path class="st71" d="M142.7,158.3c-0.3-3.2-0.6-6.5,3.3-8c5.9-4.1,12.1,0.8,18.1-0.5c8.2-1.8,15.1-9,24.5-5.9
			c6,2.3,8.2,6.9,8.3,13.1c0.2,6.6-1.2,13.1-1.6,19.6c-0.5,3.8,0.1,8.2-4.8,9.9c-4.8,1.7-8.9-1.5-10.5-4.3
			c-5.5-9.4-13.9-10.2-23.1-9.9c-3.6-1.3-7.7-1.4-10.6-4.5C143.6,165.3,143.8,161.5,142.7,158.3z"/>
		<path class="st72" d="M146.3,167.8c3.2,0.7,6.4,1.5,9.7,2.2c16.9-0.4,25,15.4,38.6,21.1c2.2,3.7,0.9,7.2-0.3,10.8
			c-0.6,0.9-1.4,1.5-2.4,1.8c-6.1-2.2-7.9-9.2-13.4-12.1c-5.4-8.6-12.4-14.9-22.7-17.5C152.3,173.3,148.2,171.8,146.3,167.8z"/>
		<path class="st73" d="M164.1,153.9c-6.5,1.3-13,2.1-18.2-3.5c-2-5.1-8.1-7.8-8.2-14c1.4-1.5,2.9-2.9,4.3-4.4
			c6.2-0.3,9.8-7.4,16.9-6.2c2.3,0.4,5-0.9,7.7,0.1c7.2,2.6,14,1.4,20.6-2.2c8,1.6,9.2,7.8,9.7,14.4c-0.4,5.2-2.3,8.6-8.3,7.4
			C178.1,141.5,171.7,149.3,164.1,153.9z"/>
		<path class="st74" d="M54.3,92.1c-7,5.7-14,11.2-11.6,22.1c1,4.4-2.8,5.7-6.4,5.5c-4.6-0.2-9.2-1-13.8-1.5
			C27.3,93.9,38.5,73.2,56.2,56c9.4-0.6,6.5,6.2,5.7,10.6c-0.9,5.1-3,9.9-0.4,15c-0.1,1-0.5,1.8-1.2,2.5
			C58.3,86.8,56.3,89.4,54.3,92.1z"/>
		<path class="st75" d="M60.2,82c-10.1-0.5-5.5-7.6-4.7-12c0.8-4.7,4-9,0.8-13.9c4-4,8-8.1,12.1-12.1c0.7-0.6,1.4-1.2,2-1.8
			c6.8,0.7,11.3,10,6.9,15.2c-2.4,2.9-3.3,4.1,1.1,4.9C78.8,72.2,71.8,79.8,60.2,82z"/>
		<path class="st76" d="M60.2,82c7.5-5.3,11.6-13.7,18.2-19.8c12.4-2.8,22.8-9.9,33.6-16.2c2.3-3.9,2.4-4,5.8-2.4
			c1.5,0.7,2.5,0.6,3.5-0.2c8.9-7.8,19.1-5.1,29.2-3.7c0.4,4.8-3.8,5.2-6.7,6.9c-5.3,0.9-3.9,6.2-6.1,9.2c-1.4,1.2-2.9,2.1-4.5,2.9
			c-6.2-0.1-10.5,4.5-16,6.3c-2.9,0.7-5.6,0.5-7.9-1.5c-3.1-2.6-6.1-3.2-8.9,0.4c-1.9,2.2-4.7,3.5-6.4,5.9c-0.2,0.5-0.5,1.1-0.7,1.7
			c0.1,0.5,0.2,1,0.4,1.5c0.7,0.7,1.5,1.2,2.5,1.4c5.6,1.8,13.9-2.9,16.3,6.6c0.4,1.6,0.2,3-0.8,4.3c-0.4,0.3-0.9,0.5-1.3,0.8
			c-2.6,0-5.3,0-7.9,0c-0.7-0.6-1.3-1.2-2-1.8c-5.6,1-10.7-1.1-16-2.2c-4.5-4.1-9.1-1.2-13.7-0.3c-3.4,0.7-6.9,1.5-10.3,2.3
			C60.3,83.4,60.2,82.7,60.2,82z"/>
		<path class="st55" d="M84.3,82.1c5.5-0.3,10.8,0.4,16,2.2C94.4,87.2,89.3,85.1,84.3,82.1z"/>
		<path class="st77" d="M102.1,146c8,1.9,6.7,8.2,5.2,13.3c-1.1,4-4.7,6.4-9.1,2.8C99.5,156.8,93.1,149.6,102.1,146z"/>
		<path class="st78" d="M102.1,146c-1.3,5.4-2.6,10.8-3.9,16.2c-4.5-5-5.2-10.4-1.7-16.2C98.1,143.2,100.2,142.2,102.1,146z"/>
		<path class="st79" d="M185.9,126.3c-0.6,1.1-1.3,3.1-1.9,3.1c-14-0.2-28,0.5-41.9,2.6c4.7-3.9,5.2-8.5,2.2-13.7
			c-1.5-2.9-0.5-5.8,0.2-8.7c0.8-3.3-0.2-7.3-3.4-7.1c-10.2,0.6-17.5-7.2-26.9-8.5c-2.2-2.2-3.8-4.8-4-7.9c0,0,0,0,0,0
			c3.9-9.4,5.2-9.8,14.1-5.5c5.8,2.8,12.5,0.4,18.4,2.7c4.6,2.2,9.1,4.8,12,9.2c0.9,6.4,4.5,10.1,11.1,10.2c3.6,0.1,6.3,1,6.6,5.1
			c-0.4,2.5-2.4,4.1-3.5,6.2c-6.6,8.7,3.8,3.9,5,6.4c3.4,0.9,7,0.1,10.4,1.5C185.6,123.1,186.2,124.5,185.9,126.3z"/>
		<path class="st80" d="M110.2,106.3c0.6-2.7,1.1-5.4,1.7-8.1c9,0.5,15.2,10.7,25.6,7.4c1.9-0.6,2.3,2.9,1.6,4.7
			c-1.6,4.1-4.6,6.7-9.2,5.3c-5.9-1.7-11.7-4-17.5-6.1C111.7,108.5,111,107.4,110.2,106.3z"/>
		<path class="st81" d="M233.7,173.8c-0.5,4.8-1.6,9.7-1.4,14.4c0.5,9-3.1,7.6-8.2,3.8c-1,0-2-0.1-3-0.5c-3.5-2-4.6-5.2-4.2-9
			c-0.3-2.4,1.2-4.5,1.2-6.8c0.6-3.7-0.5-6.5-4-8.2c-3.1-1.4-5.8-3.1-7.4-6.3c-0.8-4.3,1.6-8.1,1.4-12.4c-0.1-4.7,2.8-6.1,6.9-5.9
			c5-0.2,9.9-0.3,12.9,4.8c1.2,2.1,2.4,4.2,3.7,6.3C233.2,160.6,234.5,167.1,233.7,173.8z"/>
		<path class="st82" d="M239.9,150c1-1.4,2.4-2.1,4.1-2c0.9,2.8,1.7,5.8-0.9,8c-0.7,0.6-2.7,0.7-3.4,0.1
			C237.3,154.1,239.6,152,239.9,150z"/>
		<path class="st83" d="M233.7,100c-1.9-1.3-3.9-2.6-5.8-4c4.2-3.8,6.6,0,8.4,2.6C237.3,100.2,234.9,99.9,233.7,100z"/>
		<path class="st84" d="M203.9,54.3c8,1.5,12.7,5.4,13.9,14.2c0.6,4.6,4,8.8,6.2,13.2c-5.8-5.1-10.1-1.6-14.3,2.6
			c-1,1.2-0.8,2.4,0,3.6c0.1,2.8-1.8,4.6-3.3,6.6c-4,0.3-6.2-2.2-8.1-5.2c-3.2-5.1-10.8-3.1-13.8-8.5c-1.1-4.8,1.8-6.8,5.8-7.3
			c3.7-0.4,6.1-2,7.7-5.2C206.1,66.2,200.8,58.5,203.9,54.3z"/>
		<path class="st85" d="M185.9,126.3c-0.6-0.7-1.3-1.4-1.9-2.1c-0.3-8.5,7.2-8.9,11.4-8c7.2,1.5,8.6-2.5,10.7-7
			c3.1-1.1,4.4-4.9,7.9-5.2c7.8,7.7,3.3,12.5-4,16.5c-1.5,6-2,12.1-4.2,17.9c-2.8,3.6-6.2,0-9.3,0.8c-0.9-0.2-1.6-0.7-2.2-1.5
			C193,133,190.6,128.8,185.9,126.3z"/>
		<path class="st86" d="M202.5,86.1c1.3,2.8,2.7,5.6,4,8.4c0.3,1.5,0.3,3.8,2.6,2.7c6.7-3.2,5.4,1.1,4.7,4.9
			c-4.2,7.8-11.4,4.5-17.6,5c-13,1.1-13.9,0.5-13.2-8.7c1-2.3,0.9-4.9,2.6-7C190.1,86.3,195.7,84.5,202.5,86.1z"/>
		<path class="st87" d="M214.6,124.3c9.6-4.8,10.4-4.4,10.8,6.1c0.1,3.3,0.1,6.6,0.2,9.9c-6.2,2.1-11.5-1.2-17-3
			C204,129.9,210.8,127.8,214.6,124.3z"/>
		<path class="st88" d="M198.2,102.1c5.2,3.4,10.4-2.8,15.6,0.1c0.2,0.6,0.3,1.2,0.3,1.8c-0.4,3.2-0.6,6.6-4.1,8.3
			c-3.9,1.7-7.6,4.2-12.1,4.1c-1.5-0.6-2.8-1.6-3.9-2.9C192,108.5,189.7,103.3,198.2,102.1z"/>
		<path class="st89" d="M214.6,124.3c0.1,1.6,7.1,0.9,1.5,4c-3.4,1.9-5.6,4-5.9,7.8c0.1,0.5,0.1,1,0.2,1.4c-0.3,3-1.8,4.3-4.8,3.8
			c-1.4-0.8-2.3-1.7-1.5-3.4c0.3-6.5,0.7-12.9,6.2-17.5C211.1,122.4,212.6,123.6,214.6,124.3z"/>
		<path class="st90" d="M210.1,136.1c5.9-1.5,10.3,2.6,15.4,4.2c0.8,2.5,1.7,5,2.5,7.5c-4.2-2.9-9.1-1.6-13.7-2.2
			c-0.7-0.4-1.4-0.9-2-1.4c-2.6-2-4.6-4.2-2.4-7.7L210.1,136.1z"/>
		<path class="st31" d="M237.8,115.7c-5.6,1.9-3,6.4-3.3,10.1c-6.5,0.5-7.4-5.2-6.5-8.5C229.4,112,234.2,114.4,237.8,115.7z"/>
		<path class="st91" d="M209.7,87.9c-2.7-1.9-5.8-3.4-6.6-7.7c4-1.3,4.5,2.9,6.6,4.1C209.7,85.5,209.7,86.7,209.7,87.9z"/>
		<path class="st92" d="M203.9,54.3c0.7,1.1,1.3,2.3,2.1,3.3c6.2,7.7,5.3,9.6-5.6,12.5c-2.1,2.1-4.1,1.5-6-0.2c-1-1.4-1.2-3-1.3-4.7
			c1-4.4,0.5-9.7,6.4-11.3C201.1,54.1,202.5,54.2,203.9,54.3z"/>
		<path class="st93" d="M199.6,54c-2.5,3.2,2.7,8.9-3.4,11c-1.4,0-2.8,0-4.1-0.6c-7.3-2.1-11.5-6.4-10-14.6c1.2-2.4,3.3-3.5,5.8-4
			c2.1,0.8,4.1,1.5,6.2,2.3C196,50.1,197.8,52,199.6,54z"/>
		<path class="st94" d="M182.1,49.9c7,1.3,4.7,11.3,11.8,12.6c0.7,1.9,0,4.3,2,5.7c1.5,0.6,3,1.3,4.6,1.9c1.1,4.3,0.2,7.2-4.8,7.6
			c-3.3,0.3-6.7-0.1-9.4,2.5c0.6,5.2-3.7,5.2-6.8,6.5c-4.9,0.7-6.9-4.1-10.8-5.4c-2-0.1-3.7-1.2-5.4-2c-11.4-5.1-11.5-5.4-8.4-17.4
			c0.1-2.1,1.8-4.1,0.2-6.2c-2.6-5.3-8.6,0.6-11.6-3.4c-2.2-2.5-4.2-5-1.4-8.2c0.1-1.2-5-2.4-0.3-3.4c2.8-0.6,5.9,0.5,8.7-1.1
			C163.2,36.2,172.9,42.3,182.1,49.9z"/>
		<path class="st95" d="M222,212c3.3-0.1,7.6-2.2,8.5,3.4c0.6,4-1.5,6.9-5.1,8.5c-1.8,0.8-3.7,1.2-5.6,1.8
			c-12.5,0.7-14.9-2-10.6-12.3c3.3-3.4,7.2-2.6,11.2-1.9C221,211.7,221.5,211.9,222,212z"/>
		<path class="st96" d="M212.1,214.4c-4.2,8.4,1.5,10,7.7,11.3c-5.3,3.4-10.5,2.8-14.2-2c-3.6-4.7-8.6-7.2-13.5-9.8
			c-1.7-2.7-1.5-5.3,0-8C201,203.4,205.9,210.4,212.1,214.4z"/>
		<path class="st97" d="M223.7,190.5c0,0.6,0.1,1.1,0.4,1.6c0.2,6.2-6.3,2.4-8.1,5.5c-1,3.8-4.8,3.8-7.3,5.7
			c-4.8,2.2-9.7,6.4-14.1-0.8C198.9,189,209.9,184.4,223.7,190.5z"/>
		<path class="st98" d="M217.8,203.6c6.5,0.2,7.1,3.4,4.2,8.4c0,0-0.1-0.2-0.1-0.2c-3.3,2-7,1.2-10.4,0.8c-2.7-0.2-6.2-0.6-6.6-4.4
			c-0.5-3.9,2.7-4.6,5.3-5.8c1.5-0.6,3-1.2,4.7-0.9C216.1,201.9,217.1,202.6,217.8,203.6z"/>
		<path class="st99" d="M217.8,203.6c-0.7,0-1.3,0.2-1.8,0.5c-3.4,0-8.9,4.2-8-4.2c2.6-0.8,5.3-1.6,7.9-2.4c2.7,0.4,5.8-1,8.2,1.6
			C223.9,203.3,219.7,201.9,217.8,203.6z"/>
		<path class="st100" d="M208.1,200c0.1,6.2,5.2,3,8,4.2c-2.5,1.2-5,2.4-8.2,3.9c4.4,5.2,9.6,3,14.1,3.8c-2.9,2.3-6.6,1.5-9.8,2.6
			c-8.2,0.7-13.6-5.1-20-8.5c-0.1-0.7-0.1-1.4-0.2-2.1c0.2-0.4,0.4-0.9,0.5-1.4c1-1.7,2.3-1.5,3.6-0.4
			C200.6,204.9,204.2,201.5,208.1,200z"/>
		<path class="st101" d="M194.5,137.8c0.6,0.1,1.1,0.2,1.7,0.2c2.1-0.2,3.6,1,4.9,2.4c4.3,6,7.2,12.7,8.8,19.9
			c1.8,3.2,4.8,3.6,8.1,3.5c1,1.4,0.6,2.7-0.4,4c-8.3,2.5-16.7,4.8-17.6,15.8c-0.2,1.9-2.1,3.3-4.3,3.5c-5.1-1.7-1.1-6.6-3.3-9.3
			c-0.1-7.5-0.4-15-0.3-22.5c0-4.4-1.6-7.5-5.8-9.2c-0.5-0.2-1.1-0.3-1.6-0.5c0.4-0.4,0.9-0.7,1.3-1.1
			C189.6,143.2,192.9,141.6,194.5,137.8z"/>
		<path class="st102" d="M192.4,177.7c1.1,2.8,2.2,5.6,3.3,8.4c1,0.6,1.6,1.4,1.7,2.5c-0.7,4.1-2.2,7.2-7.3,5.3
			c-11.5-7.8-20.8-18.6-34.1-23.9c11.2-2.5,20.5-0.9,27.4,9.8C186.4,184.5,190.6,183.9,192.4,177.7z"/>
		<path class="st103" d="M186,144.3c0.1,0.5,0.2,1.1,0.3,1.6c-8.8-1.3-13.3,9.4-22.1,8c0.8-1.1,2.2-2.1,2.2-3.2
			c0.4-6.4,1.7-7.7,9.8-7.7C179.4,143,182.7,143.9,186,144.3z"/>
		<path class="st104" d="M190.1,193.9c1.7-2.3,3-4.9,5.8-6.1c7.4-4.4,15-8.1,24.1-5.7c0.3,3.2,1.9,5.8,3.7,8.3
			c-11.8-2.2-20.1,3.7-27.7,11.5c-1.2,0.1-2.4,0.3-3.6,0.4C191.6,199.6,190.9,196.7,190.1,193.9z"/>
		<path class="st55" d="M142.1,86c-7.2-1.1-14.8,1.2-21.7-3.4c-3.8-2.5-7.3,0.9-10.2,3.5c0-1.4,0-2.8,0-4.1
			c-0.1-4.1-0.9-7.8-5.6-9.1c-1.4-3.6-5.4-5.4-6.4-9.3c0-0.4-0.1-0.8-0.1-1.3c6.9-8,9.8-8,18.1-0.2c2.5,0.3,4.7,1.4,6.7,2.7
			c2.3,7.4,7.7,11,15,12.2c3.1,0.5,5.6,2,6.3,5.4C144.2,84,143.4,85.1,142.1,86z"/>
		<path class="st105" d="M142.2,82.2c-11,0.4-20-2.6-24.2-14c4-5.7,7.8-3,11.5,0c-0.1-0.2,0.2,0.2,0,0c-5.7-5.7-1.6-9.1,2.6-12.4
			c1.4-0.6,2.8-1.3,4.2-1.9c0.4,0.1,0.8,0.2,1.2,0.4c1.8,2.3,4,4.3,5.8,6.6c1,0.9,2,1.8,3.2,2.5c8.5,6.4,1.8,14.2,2,21.4
			C145.4,86.5,143.7,84.5,142.2,82.2z"/>
		<path class="st106" d="M127.9,71.9c-3.3-1.2-6.6-2.5-9.9-3.7c-0.6-2-1.2-4.1-1.8-6.1c1.1-12.9,10.3-4.9,16-6.2
			c-2,6.5-0.7,11.6,6.1,14.4C135.9,77.3,135.2,77.4,127.9,71.9z"/>
		<path class="st107" d="M108.2,69.8c4.9,3.4,4.7,7.5,2,12.1c-5.2-4.8-11.9-2.8-17.9-4.2c-1.3-2-0.9-3.9,0.6-5.6
			c3-2,6.1-3.7,9.7-4.4C104.6,67.9,106.6,68.4,108.2,69.8z"/>
		<path class="st108" d="M102.3,70.1c-2.6,1.2-5.1,2.5-7.7,3.7c-2.9-1-4.1-3.3-4.4-6.2c0-5.6,5.4-3.2,7.8-5.4c0,0,0.1,0,0.1,0
			C98.9,65.2,105.7,65,102.3,70.1z"/>
		<path class="st109" d="M142.1,44.2c0.2,2.8,2.9,3.8,4.2,5.8c-1.5,6-4.7,8-10.1,3.9c0,0,0.1,0.1,0.1,0.1
			C135,48.9,133.6,43.6,142.1,44.2z"/>
		<path class="st110" d="M88.3,77.9c-2.6-3.2-10.8-6.5,0.1-9.6C97,71.5,91,74.7,88.3,77.9z"/>
		<path class="st111" d="M88.3,77.9c0.4-3.2,3.8-6.4,0.1-9.6c0.6-0.2,1.2-0.4,1.8-0.6c3.3,0.8,6.3,1.7,4.4,6.2
			c-0.8,1.3-1.6,2.6-2.4,4C90.9,77.8,89.6,77.8,88.3,77.9z"/>
		<path class="st112" d="M142.2,82.2c1.8,0.7,3.6,1.3,5.3,2c2-6.2,5.3-12.2,1.1-18.8c-1.1-1.8-0.3-3.7,1.4-5.2
			c3.8-1.4,7.6-2.8,10.3,1.9c-5.7,7.4-3.3,11.5,5.2,13.6c2.2,0.5,4.2,1.6,6.2,2.5c-1,3.2-5.4,3.2-6.3,6.5c-2.8,3.6,0.9,7.3-0.4,10.9
			c-0.2,1.7-0.9,3-2.3,4c-5.2,1.4-7.8-2.3-10.7-5.4c-3.3-2.7-6.6-5.4-9.8-8.2C142.2,84.7,142.2,83.5,142.2,82.2z"/>
		<path class="st113" d="M198,113.9c3.9-1.4,7.9-1.9,12-1.6c-3.3,4.8-7.4,7.6-13.6,7.6c-4.4,0-9.1,0.3-12.4,4.2c-4-0.1-8-0.1-12-0.2
			c-4.8-2.6-11.1-4.3-6-11.9c1.2-1.5,2.5-3,3.7-4.4c0.6-0.7,1.4-1.2,2.4-1.3C179.6,112.6,188.8,113.4,198,113.9z"/>
		<path class="st114" d="M172,107.9c-0.7-0.1-1.5-0.2-2.2-0.3c-8.1-1.8-15.4-5.7-22.9-8.9c0.5-3.3,3.6-3,5.1-4.5
			c3.8,0,7,1.8,10.1,3.8c9.3-4.1,13.1-2.8,16.8,5.5c-0.2,1.6-1,2.9-2.4,3.7C175,108.1,173.5,108,172,107.9z"/>
		<path class="st115" d="M166.1,112c0.9,4.5,3.4,8.2,6,11.9c-1,0.1-2,0.5-2.9,0.4c-3.7-0.5-9.5,1.6-10.6-2.3
			C157.2,117.4,161.8,114.2,166.1,112z"/>
		<path class="st116" d="M220,182.1c-7.4,4.5-14.4,10.7-24.1,5.7c-0.1-0.6-0.2-1.2-0.3-1.8c0.1-14.1,5.9-19.7,20.2-19.8
			c3,2.9,8.2,4.3,6.3,10.2C221.5,178.3,220.8,180.2,220,182.1z"/>
		<path class="st117" d="M209.9,160.2c-4-6-9.3-11.2-11.8-18.1c3.1-3,6.3,1.2,9.4-0.2c2.5-0.1,4.9-0.1,6.3,2.4
			c0.2,0.4,0.3,0.9,0.5,1.3C211.1,149.9,214.6,156.3,209.9,160.2z"/>
		<path class="st118" d="M222.2,176.5c-4.6-1.7-10.6,2.1-13.9-3.3c-0.2-5.6,9.7,0.8,7.6-6.9c0.7-0.8,1.4-1.6,2-2.5
			C226.5,165.6,224.1,171.1,222.2,176.5z"/>
		<path class="st119" d="M179.9,83.9c1-3.3,4.3-2.3,6.4-3.7c5.8,0.7,12.1,0.3,16.2,5.9c-4.7,2.6-9.3,5.3-14,7.9
			c-4.1-0.8-7.5-2.8-10-6.3C178.3,86.2,179,85,179.9,83.9z"/>
		<path class="st120" d="M206.5,143.5c-3.4,2.9-5.7-0.4-8.4-1.4c-0.6-1.4-1.2-2.8-1.9-4.1c0.8-2-0.2-5.2,2.6-5.8
			c4.4-0.9,2.7,4.4,5.2,5.8c0.6,0.7,1.2,1.4,1.8,2.2C207.2,141,207.3,142.2,206.5,143.5z"/>
		<path class="st121" d="M174.1,106c0.6-0.9,1.2-1.7,1.8-2.6c2.6-2-0.5-4.5,0.5-6.6c0.7-1.4,1.8-2.3,3.4-2.6
			c3.9-0.1,4.6,3.4,6.1,5.8c2.3,6.9,4.6,2.5,6.5-0.2c4.9-6.9,5.6-3.1,5.8,2.2c-1.6,3.1,1,7.1-2.3,9.8c-5,5.7-12,4.6-18.1,4
			C173.4,115.4,175.1,109.5,174.1,106z"/>
		<path class="st122" d="M185.9,100c-2.8-0.4-5-1.8-6.2-4.5c-2-1.3-2.4-3.1-1.7-5.3c0.5-0.9,1.3-1.6,2.3-1.9c8.2-6,5.7,3.4,8.2,5.7
			C188.4,96.4,187.6,98.4,185.9,100z"/>
		<path class="st123" d="M174.1,106c5.4,9.9,7.5,10.4,21.8,5.8c0.7,0.7,1.4,1.3,2.1,2c-3.7,1.1-7.4,2.4-11.1,3.4
			c-8.2,2.1-14.2,0.6-14.9-9.4C172.7,107.3,173.4,106.7,174.1,106z"/>
		<path class="st124" d="M206.5,143.5c-0.2-1.1-0.5-2.2-0.7-3.4c1.4-1.2,2.8-2.5,4.2-3.7c1,4.6,6.3,3.8,9.1,7.3
			c-2.1,0.2-3.6,0.4-5.2,0.6C211.4,144,208.9,143.8,206.5,143.5z"/>
		<path class="st125" d="M195.9,68.2c-3.1-0.7-6.2-1.2-8.4-4c1.3-3.7,4.4-0.8,6.4-1.7c0.8,0.8,1.5,1.7,2.3,2.5
			C196.1,66.1,196,67.1,195.9,68.2z"/>
		<path class="st126" d="M136.2,53.9c4,0.3,6.9-2.1,10.1-3.9c6-2.1,11.5-1.6,15.8,3.6c-1.4,5.7-6.8,4.6-10.6,6.3
			c-3.9,1.7-7.4,3.8-10.9,6.1C132.8,64.4,135.2,58.9,136.2,53.9z"/>
		<path class="st127" d="M140.7,66c4.7-8.5,12.9-10.7,21.5-12.4c3.2,3.7,1.9,6.4-1.9,8.4c-3.5,0-7-0.3-10.1,2c-1.3,2.9-4.2,0.8-6,2
			C143,66.1,141.8,66,140.7,66z"/>
		<path class="st128" d="M180.3,88.3c-0.1,0.5-0.2,0.9-0.4,1.3c-10.3,2.6-14.6,0.8-17.4-7.2c1.9-4,5.7-3.9,9.2-4.3
			c2.5,2.2,4.7,5.1,8.3,5.8C180,85.4,180.1,86.9,180.3,88.3z"/>
		<path class="st76" d="M102.3,70.1c-1.4-2.6-2.8-5.3-4.1-7.9c3.8,1.9,8.1,3.2,10,7.6C106.2,69.9,104.3,70,102.3,70.1z"/>
		<path class="st129" d="M144.1,66.1c2-0.7,4-1.3,6-2c3.4,3.7,2.7,8.3,3.5,12.8c1.3,7.5,2.3,7.3-6.1,7.4c-1.1-3.2-3.2-6.2-0.9-9.9
			C148.8,70.9,146.6,68.3,144.1,66.1z"/>
		<path class="st130" d="M127.9,71.9c3.2-2.2,7.5,2.3,10.4-1.7c3,0.4,4.2,1.9,2.2,4.5c-2.1,2.7-5,4.5-8.4,3.6
			C129,77.7,125.2,76.7,127.9,71.9z"/>
		<path class="st131" d="M162.4,82.4c5.6,2.9,12.7,2.2,17.4,7.2c0,2-0.1,3.9-0.1,5.9c-0.6,0.7-1.3,1.3-1.9,2
			c-6.2,3.1-10.9-0.6-15.7-3.6C155.8,89.9,160,86.2,162.4,82.4z"/>
		<path class="st132" d="M162.1,94c5.6-0.2,10.5,2.4,15.7,3.6c-0.2,2.1,0.8,4.6-1.9,5.9c-3.3-5.2-9.2-3.7-13.8-5.5
			C162.1,96.6,162.1,95.3,162.1,94z"/>
	</g>
</g>
</svg>
