<?xml version="1.0" encoding="utf-8"?>
<!-- Generator: Adobe Illustrator 25.2.1, SVG Export Plug-In . SVG Version: 6.00 Build 0)  -->
<svg version="1.1" id="Camada_1" xmlns="http://www.w3.org/2000/svg" xmlns:xlink="http://www.w3.org/1999/xlink" x="0px" y="0px"
	 viewBox="0 0 300 300" style="enable-background:new 0 0 300 300;" xml:space="preserve">
<style type="text/css">
	.st0{fill:#251806;}
	.st1{fill:#291E04;}
	.st2{fill:#2D1C03;}
	.st3{fill:#332005;}
	.st4{fill:#231901;}
	.st5{fill:#433903;}
	.st6{fill:#332902;}
	.st7{fill:#582F12;}
	.st8{fill:#43210E;}
	.st9{fill:#55432E;}
	.st10{fill:#554A03;}
	.st11{fill:#411B02;}
	.st12{fill:#4A3A28;}
	.st13{fill:#665706;}
	.st14{fill:#351802;}
	.st15{fill:#342706;}
	.st16{fill:#522713;}
	.st17{fill:#6F5E47;}
	.st18{fill:#594732;}
	.st19{fill:#39200A;}
	.st20{fill:#864522;}
	.st21{fill:#6E650D;}
	.st22{fill:#3A1B03;}
	.st23{fill:#693416;}
	.st24{fill:#57510B;}
	.st25{fill:#362617;}
	.st26{fill:#35200E;}
	.st27{fill:#44311D;}
	.st28{fill:#523915;}
	.st29{fill:#6C4617;}
	.st30{fill:#422813;}
	.st31{fill:#3F301C;}
	.st32{fill:#6A4622;}
	.st33{fill:#F1C56A;}
	.st34{fill:#855928;}
	.st35{fill:#A37639;}
	.st36{fill:#D09F59;}
	.st37{fill:#B57D3F;}
	.st38{fill:#381B0A;}
	.st39{fill:#3B2415;}
	.st40{fill:#825727;}
	.st41{fill:#726149;}
	.st42{fill:#877357;}
	.st43{fill:#91693C;}
	.st44{fill:#83582D;}
	.st45{fill:#413020;}
	.st46{fill:#453324;}
	.st47{fill:#55422E;}
	.st48{fill:#4D3B29;}
	.st49{fill:#614D37;}
	.st50{fill:#503F2D;}
	.st51{fill:#715C4A;}
	.st52{fill:#71604D;}
	.st53{fill:#5B4A3A;}
	.st54{fill:#584631;}
	.st55{fill:#644F37;}
	.st56{fill:#65533A;}
	.st57{fill:#B2A186;}
	.st58{fill:#452B04;}
	.st59{fill:#51341C;}
	.st60{fill:#A36C2C;}
	.st61{fill:#7E5312;}
	.st62{fill:#6F4511;}
	.st63{fill:#8D5B18;}
	.st64{fill:#593607;}
	.st65{fill:#90622B;}
	.st66{fill:#6A5742;}
	.st67{fill:#BDA385;}
	.st68{fill:#52412E;}
	.st69{fill:#5D4C39;}
	.st70{fill:#756150;}
	.st71{fill:#705C47;}
	.st72{fill:#4E2614;}
	.st73{fill:#BDA68F;}
	.st74{fill:#917862;}
	.st75{fill:#887461;}
	.st76{fill:#B79D87;}
	.st77{fill:#9A8770;}
	.st78{fill:#735F49;}
	.st79{fill:#63513E;}
	.st80{fill:#7C6A58;}
	.st81{fill:#CFBDA2;}
	.st82{fill:#917F67;}
	.st83{fill:#CCBAA2;}
	.st84{fill:#C1AB90;}
	.st85{fill:#78664C;}
	.st86{fill:#7C6751;}
	.st87{fill:#AD9174;}
	.st88{fill:#9F866C;}
	.st89{fill:#A0856E;}
	.st90{fill:#996422;}
	.st91{fill:#DBBD96;}
	.st92{fill:#AE7A40;}
	.st93{fill:#997242;}
	.st94{fill:#7A5630;}
	.st95{fill:#E5AE60;}
	.st96{fill:#A96B3A;}
	.st97{fill:#523214;}
	.st98{fill:#653E21;}
	.st99{fill:#E3AA67;}
	.st100{fill:#7A4316;}
	.st101{fill:#E8CCA5;}
	.st102{fill:#816E57;}
	.st103{fill:#C8B4A0;}
	.st104{fill:#A08C74;}
	.st105{fill:#9E8D79;}
	.st106{fill:#847058;}
	.st107{fill:#715C43;}
	.st108{fill:#644A33;}
	.st109{fill:#76644D;}
	.st110{fill:#5E301A;}
	.st111{fill:#723F1B;}
	.st112{fill:#572B17;}
	.st113{fill:#6C2D12;}
	.st114{fill:#5F412C;}
	.st115{fill:#B69E82;}
	.st116{fill:#8C745B;}
	.st117{fill:#B49F8A;}
	.st118{fill:#775940;}
	.st119{fill:#6D553E;}
	.st120{fill:#664F38;}
	.st121{fill:#78654E;}
	.st122{fill:#5B3617;}
	.st123{fill:#B7A18D;}
	.st124{fill:#D5BEA5;}
	.st125{fill:#8F7C61;}
	.st126{fill:#6C5032;}
	.st127{fill:#F7D67E;}
	.st128{fill:#CCBAA3;}
	.st129{fill:#8B7557;}
	.st130{fill:#DD9753;}
	.st131{fill:#FAD480;}
	.st132{fill:#7F3D19;}
	.st133{fill:#4E2C16;}
	.st134{fill:#87512B;}
	.st135{fill:#BF7A3F;}
	.st136{fill:#9E6132;}
	.st137{fill:#ECBD82;}
	.st138{fill:#E7A669;}
	.st139{fill:#52351F;}
	.st140{fill:#CEBBA2;}
	.st141{fill:#988471;}
	.st142{fill:#94806B;}
	.st143{fill:#C3AE98;}
	.st144{fill:#BEAA92;}
	.st145{fill:#CEB7A5;}
	.st146{fill:#856853;}
	.st147{fill:#7F6A55;}
	.st148{fill:#E0CBB8;}
	.st149{fill:#7A442E;}
	.st150{fill:#BE6738;}
	.st151{fill:#EC9F5F;}
	.st152{fill:#F6C47F;}
	.st153{fill:#B68D5F;}
	.st154{fill:#683924;}
	.st155{fill:#834A2A;}
	.st156{fill:#944F29;}
	.st157{fill:#EFD1B3;}
	.st158{fill:#D1BBA1;}
	.st159{fill:#D5916F;}
	.st160{fill:#F8B864;}
	.st161{fill:#4D210B;}
	.st162{fill:#E89B5D;}
	.st163{fill:#E37A43;}
</style>
<g>
	<g>
		<path class="st0" d="M79.9,299.4c-26.6,0-53.2,0-79.8,0c0-25.9,0-51.8,0-77.7c9.9-9.3,20.5-3.6,30.4-0.6
			c5.4,1.6,10.4,5.6,14.3,10.1c5.1,5,9.7,10.5,15.1,15.3c3.4,4,7,7.7,12,9.7c9,5.7,18,11.4,26.6,17.8c6.1,8.5,5.3,12.8-3.2,18
			C90.5,295,84.6,296.1,79.9,299.4z"/>
		<path class="st1" d="M299.4,285.5c0,0.7,0,1.3,0,2c-6,6.6-12.7,5.3-19.9,2.1c-11-4.9-19.4-14.1-31.1-18.2
			c-5.6-2-12.4-1.3-16.8-6.4c-3.1-4.7,1-7.2,3.1-10.2c15.2-11,25.8-26.4,35.1-41.9c7-11.6,13.6-24.5,12.6-39.3
			c3.5-12.5,1.3-25.3,1.9-38c2.2-11.9-0.8-23.8-0.1-35.7c0.6-11.1,6.8-16.5,15.1-13.6c0,27.9,0,55.8,0,83.7c-2.9,4.1-3,8.9-2.8,13.5
			c0.4,13.3-1,26.5-2.3,39.6c-0.5,5.2-2,10.1-6.2,13.1c-7.1,5-11.3,12.8-18.8,17.5c-5.9,3.7-5.4,8.5,0.1,12.8
			c4.5,3.5,9.4,6.2,14.5,8.6C289.5,277.8,295.2,280.6,299.4,285.5z"/>
		<path class="st2" d="M44,235.7c-12-12.8-27.7-14.1-43.9-13.9c0-51.1,0-102.3,0-153.4c1.6-3,3.7-5.5,4.1-9.2c0.2-1.9,2.2-4.1,5-3.9
			c2.7,0.2,4.2,1.8,4.9,4.2c0.5,1.6,0.9,3.2,1.2,4.8c2.4,18.8,5.5,37.6,0,56.3c-1.2,4.1-1.2,8.3-0.1,12c3.5,12.2-0.4,25.4,5.3,37.3
			c1.8,3.9,2.7,8.1,4.2,12.1c3.6,17.1,12.6,31.7,20.7,46.8C46,231.3,47,233.9,44,235.7z"/>
		<path class="st3" d="M18,172c-4.4-2-5-5.7-4.5-10c1.2-9.3,0.5-18.5-1.4-27.7c-1.6-7.2-1.5-14.4-0.2-21.7c3.1-17.2-0.1-34.2-1.8-53
			c-3.6,3.9-6,7.4-9.9,8.7C0.1,47.4,0.3,26.5,0,5.6c-0.1-4.3,0.8-5.5,5.1-5.1C10.7,1,16.4,0.6,22.1,0.6c4.7,3.4,6.8,8.1,6.7,13.9
			c-0.1,11,2.6,21.7,3.3,32.6c-5.9,14.9-1,30.2-1.6,45.3c1.3,8.9-2.7,16.7-5.5,24.5c-2.3,6.3-3.7,12.5-2.6,19.1
			c-2,8.7-0.9,17.6-1.3,26.4C20.9,165.7,22,169.7,18,172z"/>
		<path class="st4" d="M299.4,285.5c-16.5-2.1-29.2-11.7-42-21.1c-4.5-3.3-3.2-7.8,1-9.6c11.3-5,16.1-17.1,26.4-23
			c2.7-1.5,3.8-4.6,4.2-7.6c1.4-13.1,6-25.7,4.6-39.2c-0.6-5.7,0.8-11.2,5.8-15.1C299.4,208.5,299.4,247,299.4,285.5z"/>
		<path class="st5" d="M259.5,0.6c4,0,8,0,12,0c3.3,2.3,6.7,4.7,10,0c2,0,4.1,0.3,6-0.1c10.3-2.1,14.2,1.8,12,12
			c-3.4,2.5-4.5,5.7-4.3,10c0.5,15-2.3,29.1-12.2,41.1c-4,4.9-5.1,9.9-2.6,16.5c2.9,7.5,5.4,15.6,4.1,24.1c-0.3,2.2-0.3,4.6-3,5.5
			c-4,0.4-4.7-2.9-6.3-5.4c-1.8-4.5-4-8.7-6.4-12.9c-1.2-4.6-3.8-8.6-6.4-12.6c-0.5-0.8-1-1.6-1.5-2.4c1.5-9.5-6-16.8-6.2-26.2
			c-0.1-4.3-1.9-8.7-0.6-13.3c2.3-8.2-1.6-15.3-4-22.7c-1.2-3-4.2-5.3-3.4-9.1C249.4-0.9,256.5,5.6,259.5,0.6z"/>
		<path class="st6" d="M281.2,108.4c0.8-10.3-4.3-19.1-7.7-28.1c-2.1-5.6-3-9.7,1.3-14.4c11.7-13,16.9-28.2,15.4-45.7
			c-0.6-6.7,2.8-9.1,9.2-7.5c0,24.6,0,49.1,0,73.7c-9.5,3.7-11.5,11.8-11.9,20.7c-0.4,9.7,2.4,19.5-0.2,29.3
			c-4.3,0.9-4.4-2.6-5.5-5.1C281.2,123.5,275.4,116.1,281.2,108.4z"/>
		<path class="st7" d="M181.7,0.6c11.3,0,22.6,0,33.9,0c6.6,9.1,3.7,23.1-6,28.9c-3.5,0.1-6.5-1.3-9.8-2.5
			c-16.2-5.9-33.1-8.6-50.3-9.3c-9.5-0.8-18.9,3.7-28.4,0.8c-1.4-6.1-10.1-10-5.2-17.9c10.6,0,21.3,0,31.9,0
			C159.1,4,170.4,5.4,181.7,0.6z"/>
		<path class="st8" d="M179.7,299.4c-19.3,0-38.6,0-57.9,0c-4.2-6.4-14.1-9.3-12.2-19.5c2.4-3.3,5.4-5.5,9.7-5.4
			c20.5,7,40.2,6.5,58.4-6.7c11.6,0.6,23.1-3.6,34.8-1.2c1.1,0.3,1.9,0.8,2.7,1.6c2,4.6,0,7.9-4,9.6
			C199.3,283.2,189.9,291.9,179.7,299.4z"/>
		<path class="st9" d="M56,0.6c14,0,27.9,0,41.9,0c3.3,2.3,7.2,3.5,11,4.6c5.2,1.6,9.1,3.8,9.1,10c-2.4,8.4-9.9,10.2-16.7,13
			c-4.9,2-8-1.4-11.2-3.9c-6.5-5.3-7.8-4.7-11.5,2.9c-2.2,4.5,0.6,9-1.2,13.3c-1.5,1.5-2.8,3.3-4.6,4.6c-4.8,2.9-8.4,9.5-15.5,4.5
			c-3.1-4.4-1.8-9.8-3.2-14.6c-3.6-8.8,1.8-18.3-2.3-27.2C50.7,5.3,53.8,2.6,56,0.6z"/>
		<path class="st10" d="M253.6,12.5c4.8,8.8,7.5,17.7,5.4,28.2c-1.6,8.2,2.5,16.4,4.2,24.5c0.8,3.8,2.2,7.5,2,11.5
			c-3.8,1.5-5.1-1.7-6.8-3.8c-4.1-5.1-8.1-10.2-11.9-15.6c1.2-8.6-4.5-13.3-10.6-17c-6-3.6-9.8-7.5-7.9-15.1
			c1.2-5.1-0.7-9.7-3.4-14.1c-2.2-3.7-3.1-7.3,0.9-10.5c4,0,8,0,12,0c3.8,2,7.6,4,9.6,8.2C248.3,11.5,250.3,13.3,253.6,12.5z"/>
		<path class="st11" d="M269.5,299.4c-16,0-31.9,0-47.9,0c-3.5-2.7-4.9-6.2-3.5-10.6c0.2-1.1,0.3-2.2,0.5-3.4
			c1.3-6.7,2.4-13.4,8.4-17.9c2.2-0.9,4.5-1.1,6.9-0.6c7.3,3,15.2,4,22.4,7.6C266.7,279.9,272.3,290,269.5,299.4z"/>
		<path class="st12" d="M26.1,46.4c-0.3-15.4-1.9-30.6-4-45.8c4,0,8,0,12,0c4,2.8,4.2,7.2,4.5,11.4c0.8,11.7,0.3,23.3,7.1,34.1
			c3.2,5,1,12.3,3.3,18.2C46.2,71.6,44,79.3,35.3,82c-5.6-3.4-5.4-9-6.1-14.5C28.4,60.5,29.8,53.1,26.1,46.4z"/>
		<path class="st13" d="M225.6,0.6c0.9,4.7,3.8,8.4,6.4,12.2c0.4,0.5,1,1.2,0.9,1.7c-2.6,15.2,6.7,24.8,16.1,34.4
			c2,2,1.5,4.9,0.5,7.6c-2.8,1.9-5.4,0.1-6.7-1.6c-7.6-9.7-18.7-14.6-28.7-20.9c-2.9-1.9-6.1-2.8-5-7.2c6.3-7.7,3.9-17.6,6.5-26.2
			C218.9,0.6,222.2,0.6,225.6,0.6z"/>
		<path class="st14" d="M269.5,299.4c-5.9-14.6-14.1-26.4-32-27.1c-1.3,0-2.6-1.8-3.9-2.8c-2.3-2.1-2-4.1,0.2-6
			c15.6,2.6,28.7,10.9,42.1,18.4c7.5,4.2,15,6.3,23.5,5.5c2.3,10.2-1.7,13.8-12,12.1C281.6,298.7,275.4,299.4,269.5,299.4z"/>
		<path class="st15" d="M111.8,281.5c4.6,5.2,12,8.9,10,17.9c-14,0-27.9,0-41.9,0c2.9-5.4,7.6-9,12.8-11.9c5.4-3,6.8-6.8,3.2-12
			C105.4,271.5,108,272.5,111.8,281.5z"/>
		<path class="st16" d="M229.5,271.6c-3.4,4.2-6.1,8.8-7.9,13.8c-7.9,4.8-18.4,5.3-24,14c-6,0-12,0-18,0c3.2-9.7,9.9-16,18.9-20.5
			c5.3-2.6,11.1-4.5,15-9.4C219.7,263.8,224.8,266.1,229.5,271.6z"/>
		<path class="st17" d="M56,0.6c0,11.4,5,22.3,4,33.9c-3.4,0.5-6.8,0.4-5.2,5.8c1,3.3,0.7,7,1.8,10.4c1.3,3.8,0.8,7-3.5,8.6
			c-1.7,0-3.4-0.2-5-1.1c-8.4-15.4-8.6-32.5-10-49.3c-0.3-3.1,1-6.3,3.9-8.3C46.7,0.6,51.3,0.6,56,0.6z"/>
		<path class="st18" d="M42,0.6c1.7,10.7,2.5,21.5,2,32.3c-0.4,8.5,1.5,16.2,6,23.4c2.7,4.5,2.8,7.9-3.8,7.9
			C41.5,43.2,29.4,23.5,34,0.6C36.7,0.6,39.4,0.6,42,0.6z"/>
		<path class="st19" d="M115.9,14.7c-4.7-6.4-14.5-6.2-18-14.1c6,0,12,0,18,0c1.5,5.4,5.9,9.8,5.9,15.8
			C118.9,19,117.2,17.8,115.9,14.7z"/>
		<path class="st20" d="M221.2,287.7c0.1,3.9,0.2,7.8,0.3,11.7c-5.3,0-10.6,0-16,0c-3-3.4-2.4-6.5,1-9
			C210.9,287.2,215.3,282.9,221.2,287.7z"/>
		<path class="st21" d="M253.6,12.5c-0.7,3,1.3,7.9-2.6,8.5c-3.9,0.7-3.5-4.7-5.1-7.2c-2.9-4.3-5.6-8.8-8.4-13.2c2.7,0,5.3,0,8,0
			c1.3,1.4,3.9,1.5,4.1,4C251,7.2,252.3,9.9,253.6,12.5z"/>
		<path class="st22" d="M181.7,0.6c-11.3,9.6-22.6,7.1-33.9,0C159.1,0.6,170.4,0.6,181.7,0.6z"/>
		<path class="st23" d="M221.2,287.7c-8.8-0.9-13.8,3.4-15.6,11.7c-2.7,0-5.3,0-8,0c4.6-12.1,12.2-16.5,24-14
			C221.5,286.2,221.4,287,221.2,287.7z"/>
		<path class="st24" d="M281.4,0.6c-1.3,4.7,5.4,11.7,0.8,13.1c-5.8,1.7-6.8-7.1-9.9-11.3c-0.4-0.5-0.6-1.2-0.9-1.7
			C274.8,0.6,278.1,0.6,281.4,0.6z"/>
		<path class="st10" d="M249.6,4.6c-1.4-1.3-2.7-2.7-4.1-4c4.7,0,9.3,0,14,0c1.6,4.1,3.9,8.1,3,13C255.9,13.2,257,2.9,249.6,4.6z"/>
		<path class="st25" d="M111.8,281.5c-5.3-2-10.6-4-15.9-6c-8.6-5.3-17.3-10.6-25.9-16c-2.8-2.4-8.2-4.3-4.5-9
			c3.2-4.2,7.3-0.8,10.6,1.2c4.7,2.8,9.3,5.7,13.9,9.1c-12.9-8.9-22.2-19.4-20.2-36.6c0.7-5.9-3.6-10.9-8-15.4
			c-5.1-5.1-8-11.4-4.3-18.8c12.3-4.8,13.6-8,7.1-19.1c-2.7-4.7-3.1-9,1-12.9c3.7-3.5,7.2-1.8,10.5,1c4.7,4,12.3,3.3,15.6,9.5
			c0.3,2.1,1.6,0.7,2.7,0.6c8.9,1.4,14.7,9.6,15.6,22c-0.8,2-2.2,3.6-3.3,5.4c-1.8,4.5-10.3-0.5-9.5,5.7c0.6,4.8,7,1.4,10.2,3.5
			c2.8,1.9,5.9,2.9,9.3,1.2c4.2-3,7.4-0.8,10.5,1.9c1.8,1.5,3.2,3.3,5,4.8c1.7,2,3.8,3.6,6.2,4.9c3.5,1.2,6.3,3.2,8.1,6.4
			c0.9,1,1.8,2.1,2.7,3.1c1.7,2.4,4.5,3.7,5.5,6.7c1.1,4,3.9,5.4,7.7,6.6c4.4,1.4,9,4.1,9.5,9c0.5,5.7-5.3,6.6-9.2,8.7
			c-4.9-0.4-8.4-3.4-11.7-6.7c-4.7-4.6-9.8-8.7-15.2-12.6c-3-2.2-6.4-3.7-10.1-1.6c-3.6,2.1-4.2,5.7-4.2,9.4c0,5.6,2.2,11,2.8,16.5
			c0.5,4.8,3,10.7-4.2,13.3C117.2,278.9,114.5,280.2,111.8,281.5z"/>
		<path class="st26" d="M60,191.8c0.7,6.9,2.5,13,9.3,16.4c2.9,1.5,4.2,4.2,4.4,7.3c0.4,5.1,1.6,9.8,4.8,13.8c0.6,0.8,1.7,2,1.4,2.5
			c-8.7,17.6,14.9,17.9,16.3,30.2c0.2,2.1,4.9,3.8,2.9,6.5c-2,2.8-5,0.2-7.1-1c-7.9-4.5-15.6-9.4-23.5-14.2
			c-1.5,3.3,0.7,4.5,1.4,6.2c-5.5-1.6-8.9-5.6-12-10c-1.6-9.7-9.2-14.4-16-19.9c-11.4-13.3-18.4-28.7-21.9-45.9
			c2.3-2.6,1.6-5.2,1-8.3c-2.1-11.1-1.2-22.4-0.7-33.5c0.3-7.4,7.7-10,13.7-5.3c3.6,2.8,7.1,6,8.9,10.4
			c4.6,11.4,12.4,20.5,20.8,29.2C64.9,182.2,65.2,187.6,60,191.8z"/>
		<path class="st25" d="M42,229.8c6.4,0.7,19,11.6,20,17.5c0.5,3.3-2.2,2.3-3.9,2.3c-4.7-4.6-9.3-9.3-14-13.9
			C43.3,233.7,42.7,231.7,42,229.8z"/>
		<path class="st27" d="M229.5,271.6c-5.7,2.2-10.8,0.1-15.9-2c0,0-0.1-0.1-0.1-0.1c-7.9-3.4-7.3-11-8.8-17.6
			c1.3-3.5,4.1-4.9,7.6-5.1c3.9-0.2,7-1.6,9-5.2c0.8-1.3,1.3-2.7,2.1-3.9c3.8-3.9,6.5-0.2,9.5,1.5c3.8,2.3,0.9,7.4,4.2,9.9
			c1.8,2.1,1.3,4.4,0.4,6.6c-1.3,2.6-2.6,5.2-3.9,7.8c-0.1,2-0.2,4-0.2,6C232.2,270.3,230.8,271,229.5,271.6z"/>
		<path class="st28" d="M237.7,255.8c-1.3-1.4-2.6-2.8-3.9-4.1c-2-5.6,1.7-8.2,5.6-10.7c5.8-2.2,9.5-6.1,13-11.4
			c9.8-14.8,17-30.6,21.8-47.6c1-3.4,1.2-7.5,6.3-7.7c1.8-0.1,3.5,0.5,4.9,1.7c-1.9,24-14.5,43.2-28.5,61.6
			C251.5,244.5,246,251.8,237.7,255.8z"/>
		<path class="st29" d="M285.3,176c-1.3,0.7-2.7,5.6-3.9,0c-3.4-1.7-4.6-4.7-4.2-8.1c1.1-10.1,0.9-20.2-0.1-30.4
			c-0.3-2.9,0.1-6,2.8-8c1.9-1.1,3.7-0.4,5.4,0.5c0.7,2.1,1.4,4.1,2.1,6.2C287.3,149.5,288.3,162.8,285.3,176z"/>
		<path class="st30" d="M60,175.9c-8.8-6.5-13.6-16.2-19.8-24.7c-2-2.7-3.9-5.4-6.1-7.9c-2-2.2-4.3-4.5-7.7-3.3
			c-3.4,1.2-4,4.3-4,7.3c0,9,0.1,17.9,0.5,26.8c0.2,3.7,1.2,7.3-2.7,9.7c-0.7-4-1.4-8-2.1-11.9c0.1-12.7,0.2-25.5,0.3-38.2
			c5.4-10.7,5.4-23.5,12.7-33.5c4.3-1.7,8.2-1.2,9.2,3.8c1.3,6.6,5.7,10.8,9.6,15.6c5.7,7.2,6.3,16,5.8,24.3
			c-0.4,7.7,1.2,13.8,5.4,20.2C63.1,167.3,68.7,172.8,60,175.9z"/>
		<path class="st31" d="M26.1,46.4c3.5,2.9,5.3,6.8,5.4,11.1c0.2,7.9,2.4,15.3,4.6,22.7c4.1,6.8-0.9,10.7-4.9,14.9
			c-1.1,0.2-2.1-0.1-3-0.8C23.9,78.5,26.9,62.4,26.1,46.4z"/>
		<path class="st32" d="M28.2,94.3c0.6-0.1,1.2-0.1,1.8-0.2c2.4,0,4.9-0.4,5.9,2.6c0.7,3.1-2.1,4-3.6,5.7
			c-4.3,6.3-5.5,13.7-7.7,20.8c-1.2,3.9-1.9,8.3-6.3,10.4C18.4,119.8,25.8,107.7,28.2,94.3z"/>
		<path class="st33" d="M209.1,26.9c14.7,8.2,28.3,18,40.4,29.7c5.2,6.7,10.5,13.4,15.7,20.1c0,0.6,0.1,1.2,0.2,1.8
			c1.8,2.2,1,3.9-0.9,5.4c-7.8,0.9-11.5-4.1-14.8-10c-1.7-3.1-3.1-6.6-6.8-8.1c-6.5-7.8-12.3-16.6-22.7-19.9
			c-4.7-2.5-9.3-5.1-14.9-5.5c-16.7-8.5-33.8-15.4-53.1-14.2c-5.7,1.5-10.6-1-15.6-3.1c-2.2-1-3.9-2.6-3.2-5.3c0.6-2.6,3-2,4.8-2.2
			c3.9-0.3,7.9,0.8,11.7-0.8c19-0.5,37.1,3.1,54.4,11.2C205.7,26.7,207.5,26.6,209.1,26.9z"/>
		<path class="st34" d="M285.2,130c-1.2,0-2.4,0-3.6,0c-2.6,0.4-4.4-0.8-5.4-3.2c-2.3-6.8-6.6-13.2-3.7-20.9c1.3-1.9,2.7-3.6,5.2-4
			c1.2,2.2,2.3,4.3,3.5,6.5C282.6,115.6,283.9,122.8,285.2,130z"/>
		<path class="st35" d="M277.8,101.9c-0.8,1.5-1.7,3-2.5,4.6c-7.6-2.1-9.7-5.8-8.2-14.6c1.3-1.6,2.9-2.2,4.9-2
			C275,93.3,276.3,97.6,277.8,101.9z"/>
		<path class="st36" d="M271.9,89.8c-1,1-1.9,1.9-2.9,2.9c-6.3,1-6.5-3.8-7.5-7.9c0.3-1.1,0.9-1.9,1.9-2.5c0.6-1.3,1.3-2.6,1.9-3.9
			C268.8,81.5,270.5,85.6,271.9,89.8z"/>
		<path class="st37" d="M149.9,14.8c-4.1,1-8.1,2.1-14.7,3.8c7.8,1.5,13.2,2.5,18.7,3.5c-0.5,2.4-1.5,4.6-4.3,4.1
			c-8.2-1.6-15.4,3.6-23.3,3.6c-8.2,1.8-15.9,5.8-24.3,6.8c-5.8,1.2-9.7,7.7-16.6,5.6c-3.4-2-5.2-4.8-4.3-8.9
			c1.7-5.9,5.5-8.6,11.7-7.6c2.4,0.4,4.6,0,6.8-0.8c6.9-1,10.5-7.3,16.3-10.1c1.9,0.5,3.9,1.1,5.8,1.6
			C131.2,16.8,140.4,12.8,149.9,14.8z"/>
		<path class="st38" d="M119.8,277.5c0.3-7-0.8-13.8-2.6-20.5c-1.3-4.8-1.7-9.8-1-14.7c1.6-11.7,10.1-15.3,20-8.7
			c9.1,6,15.4,15.5,25.5,20.1c2.3,1.5,5,1,7.5,1.4c7.7,1,11.3,8.2,8.5,16.6c-13.7,17.2-32.6,12.4-50.4,11.6
			C123.6,283,121.1,281,119.8,277.5z"/>
		<path class="st39" d="M177.7,271.6c-2.9-8.1-8.7-13.7-16-17.9c2.2-0.5,5.1-0.2,5.4-3.2c0.3-2.7-2.1-4-4.2-4.9
			c-5.2-2.3-10.2-4.7-13.2-9.8c3.6-5.1,7.6-7.5,12.7-1.8c0.7,0.6,1.5,1.3,2.2,1.9c9.4,9.1,20.4,10.7,32.5,7c5.9,0.1,12.7-1,10.5,8.8
			c4.2,5.3,3.5,12.1,5.9,18C201.6,270.5,189.9,275.4,177.7,271.6z"/>
		<path class="st40" d="M87.8,38.6c4.2-3,8.1-6.6,13.8-6.5c7.2-2.4,8.5,2.1,8.6,7.5c0.1,7.4-3.5,13.6-7.2,19.7
			c-5.3,9.2-14,15.3-21.4,22.5C79.9,83,78,83.3,76,82.9c-3.2-3.8-7.2-7.2-5.4-13.1c2.4-7.9-1.8-10.6-8.9-10.9
			c-1-0.4-1.7-1.1-2.3-2.1c-1.1-3-3.2-6.1,0.8-8.6c4.8-0.1,7.2-4.5,11.3-6C77.1,41.2,82,38,87.8,38.6z"/>
		<path class="st41" d="M99.6,24.9c-5.2,2.6-10.4,5.2-15.5,7.8c-3.4,1.6-3.3,9.5-9.8,5.7c-0.2-6.6-0.3-13.1,1.8-19.4
			c1.3-4,3.3-7.2,7.9-7.7c4.8-0.6,7.3,2.1,8.7,6.2C93.7,21,95.7,23.9,99.6,24.9z"/>
		<path class="st42" d="M60.3,48.2c0.4,2.7,0.9,5.3,1.3,8c-2.6,4.9-5.2,5.4-7.7,0c-4-9.2-4-19.2-5.5-28.9c-0.4-3-1.1-7.4,3.2-8.2
			c3.6-0.6,4.2,3.5,5.3,6.1c1.2,3,2.1,6.2,3.1,9.3C60.1,39,60.2,43.6,60.3,48.2z"/>
		<path class="st43" d="M74.2,38.4c3-2.4,5.4-5.8,9.8-5.7c0.3,2.6,1.5,4.6,3.8,6c-5.1,2.5-9.7,7.5-16.3,3.6
			C72.5,40.9,73.3,39.6,74.2,38.4z"/>
		<path class="st44" d="M53.9,56.2c2.6,1.1,5.2,0.8,7.7,0c0,0,0.7,0.3,0.7,0.3c5.9,3.9,3.6,8-0.5,11C55,72.5,50.1,79.1,45,85.4
			C40.9,88.6,41,96.3,33.7,96c-1.8,0.5-3-0.2-3.7-1.8c2-4.7,4-9.3,6.1-14c4.8-4.4,7-10.5,10.1-15.9c2.2-2.2,3.1-5,3.8-7.9
			C51.3,56.3,52.6,56.2,53.9,56.2z"/>
		<path class="st45" d="M60,175.9c0.7-2.7,0.8-5.7-1.3-7.4c-9.2-7.6-10.4-17.2-8.5-28.3c1-6.1-0.8-12.4-4.1-18
			c0.9-8.1,6.2-11.6,18.4-11.9c1,0.3,1.9,0.8,2.6,1.4c2.8,3.3,4.8,7.2,10.7,6.1c3.3-0.6,4.6,2.8,2.8,6c0.7,0.4,1.4-0.1,2.1,0.1
			c4.2,6.7,8.4,13.5,15.7,17.5c0.4,0.9,0.8,1.9,1.6,2.5c10,7.6,10,8.7,0.9,17.3c-3.7,2.9-6.1,7.4-11,8.9c-5.8-1.2-11.3-3.1-16.1-6.8
			c-1.6-1.2-3.5-2.3-5.3-0.4c-1.9,2.1-1.4,4.5,0.4,6.2c4,3.7,10.4,6.1,7.5,13.4c-2.9,7.3-9.9,8-16.4,9.3C60,186.5,60,181.2,60,175.9
			z"/>
		<path class="st46" d="M105.8,191.4c-4.5-6.5-2.8-17.3-13.7-19.3c-2.7-4.5,0.7-6.7,3.8-8.1c2.7-1.3,5.2-2.7,7.2-4.9
			c4-1.8,7.9-4,12-0.4c1.8,1.9,1.5,4.6,2.3,6.8c0.5,1.7,1.1,3.3,2.9,4.1c2.4,1.7,2.5,4.3,2.4,6.9c-0.8,4.5-0.1,8.6,3,12.1
			c0.7,5.3-2.3,9.1-4.8,13.3c-1.7,2.8-4.6,6-1.2,9.7c-5,2.9-9.9,5.8-15.1,8.9c0.2-14.2,0.2-14.2-14.6-6.6c0.8-4.8,1.5-9.2,2.1-13.6
			c1.6-10.8,2.3-11.1,11.4-4.6C106.4,195.3,105.7,193.2,105.8,191.4z"/>
		<path class="st47" d="M119.8,211.7c-4.5-3-4.7-7-2-11.1c2.3-3.4,3.2-7.2,4.4-10.9c0.3-2.6-2-4.8-1.3-7.5c1.1-4.9,1-9.7,0-14.6
			c0.2-1.2,0.8-2.2,1.6-3c6.5-3.4,9,2.2,12.6,5.5c2.6,5.8-2.6,14.1,5.8,18.1c4.5,4.7,6.6,10.2,5.6,16.8c-0.3,2.2-1.8,3.6-3.1,5.1
			c-3.5,2.6-4.3,6.6-5.5,10.4c-0.6,0.7-1.4,1.1-2.3,1.4c-2.4-1.4-4.8-2.8-6.1-5.5c-0.3-2.3-0.1-5.1-3.9-4.5
			C123.8,210.9,121.8,208.4,119.8,211.7z"/>
		<path class="st48" d="M195.7,245.8c1.4,2.9,2.9,5.8,4.3,8.8c-9.2-7.9-22-4-31.6-10.2c-2.9-1.9-5.7-3.2-6.3-7
			c0.5-0.3,1-0.5,1.6-0.7c-0.6,0.1-1.1,0.3-1.6,0.6c-4-1.3-8-2.5-12.3-1.6c-1.4-2-2.8-3.9-4.1-5.9c3.9-4.4,3.6-13.8,13.3-11.3
			c5.2,2.7,8.3,8.3,14,10.2c5.9,0.7,10.8,4,16,6.5c2.9,2.5,6.8,3.9,8,8C196.8,244.3,196.4,245.1,195.7,245.8z"/>
		<path class="st49" d="M159.8,221.8c-5.9,0.6-7.8,8.3-14.1,8.1c-0.5-0.8-1-1.5-1.5-2.3c3.6-7.4-4.3-9.9-6.3-15
			c-0.4-3-1.1-6.2,1.7-8.6c1.6,0.6,3.1,1.2,4.7,1.7c2.5-2.7,3.1-8.2,8.9-5.7c2.1,3.8,6.6,5.5,8.9,9.2c1.3,1.4,2.8,2.6,4.3,3.9
			c2.8,2.4,5.8,5.2,3,9C166.4,226,162.9,223.5,159.8,221.8z"/>
		<path class="st50" d="M105.9,166c-1.9,2.5-4.1,2.6-6.9,1.6c-4.1-1.5-6,0.9-6.9,4.5c-0.3,2.8,0.9,5.9-1.9,9
			c-3.2-3.9-0.6-7.6-0.3-11.1c1-4.6,3.6-8,7.8-10.1C102.8,158.6,105.7,160.4,105.9,166z"/>
		<path class="st51" d="M140.1,213.6c9.4,4.3,10.6,8.5,4,14c-2.8-1.9-5.6-3.8-8.4-5.8c0.2-0.8,0.3-1.6,0.5-2.4
			C138.3,218,136.8,214.2,140.1,213.6z"/>
		<path class="st52" d="M125.8,211.8c0-4.6-4.6-12.3,0.4-13c5.8-0.8,2.7,7.6,4.1,11.8c0.5,1.6-0.4,3.8-0.6,5.7
			C128.3,214.8,127.1,213.3,125.8,211.8z"/>
		<path class="st53" d="M105.8,191.4c2.5,5.1,3.2,9.8-2.9,13.2c-2.7-3.7,0.3-6.2,0.7-8.9C104.3,194.2,105,192.8,105.8,191.4z"/>
		<path class="st45" d="M68.7,202.7c-1.4-0.3-2.5-1.1-2.2-2.6c0.5-2.2,2.1-3.2,4.3-2.8c1.5,0.3,2.1,1.6,1.6,3
			C71.8,202,70.5,202.8,68.7,202.7z"/>
		<path class="st54" d="M195.7,245.8c0-0.7-0.1-1.4-0.1-2c0.1-3.6-6.8-2.8-4.9-7.4c1.6-3.8,5.1-3.7,8.5-3.6c1.4,0.1,2.8,0.6,4.1,1.1
			c4.4,1,8.9-0.5,13.3,0.8c5.9-0.2,5.6,5.9,8.7,8.5c1.1,8.6-2.9,11.2-10.9,9.3c-2.2-0.5-4.5-0.6-6.7-0.8
			C204.7,247.6,200.5,246,195.7,245.8z"/>
		<path class="st55" d="M241.3,243.5c-3,2.2-5.7,4.8-7.5,8.1c-2,1.8-3.7,1.8-3.7-1.2c0-2.8,0.9-5.7,1.4-8.5
			c-0.8-2.2-0.8-4.4,0.7-6.4c6-6.1,9-0.6,12.4,3.2C245.1,241.4,244.1,243.1,241.3,243.5z"/>
		<path class="st56" d="M233.6,238c-0.7,1.3-1.4,2.6-2.1,3.9c-1.8-1.3-3.4-2.9-6-2.1c-4.8,0.6-5.5-2.9-6.2-6.3
			c2.5-4.6,4.3-10.2,11.5-6.5C233.2,230.3,233.6,234.1,233.6,238z"/>
		<path class="st57" d="M221.6,233.7c-0.3,3,2.2,4.3,3.9,6.1c-0.1,1.1-0.1,2.2-0.2,3.3c-4.9,1.4-5.3-5.4-9.5-5.2
			c-3.6-1.6-3.6-4.4-2.7-7.6c1.6-3.4,4.3-3.7,7.4-2.6C222.5,229.5,223.3,231.4,221.6,233.7z"/>
		<path class="st58" d="M241.3,243.5c0.7-1.3,1.4-2.7,2.1-4c-3.8-4.4-0.8-8.4,0.6-12.6c1.3-3.7,1.8-7.5,2-11.4
			c0.3-2.4,0.3-4.8,0.3-7.1c-1.4-8.6-0.2-18.1-8.1-24.6c-0.9-1.1-1.7-2.3-1.7-3.9c1.7-8.2,2.4-15.9,14.3-17.1
			c8.3-0.9,11.7-9.9,13.3-17.9c1-4.9,1.2-10,3.4-14.4c2.3-4.5,5.1-10.4,11.8-4.2c0.8,1.3,1.6,2.5,2.4,3.8c1.4,15.3,2,30.7-0.3,46
			c-4.4,14.1-8.3,28.4-15.6,41.5c-4.7,8.4-10.6,15.8-17,23C246.8,242.6,244.8,245,241.3,243.5z"/>
		<path class="st59" d="M66,114.1c-7.7,0.2-14.1,3.4-20,8c-8.5-3.8-9.3-13-13.7-19.7c0.5-2.2,0.9-4.3,1.4-6.5c1.4-4.8,4-8.9,8.1-12
			c6-4.8,8.2,0.1,10.2,4.2c2.9,5.8,6.4,9.9,13.7,7.7c4.8-0.4,10.3-0.4,11,5.3C77.8,108.5,72.5,112.2,66,114.1z"/>
		<path class="st60" d="M121.5,24.2c10.6-3.6,21.7-0.6,32.5-2.2c15.2,0.3,30.1,2.5,44.4,8.1c3.7,1.5,7.5,2.6,9.4,6.5
			c4.6,3,8.8,6.4,8.7,12.7c-1.1,5.5-2.6,10.8-2.6,16.6c0.1,9-3.3,10.5-11.7,6.2c-4.7-2.6-4-9.2-8.8-11.8
			c-6.6-9.8-18.4-11.3-27.3-17.4c-5.7-6.1-11.8-9.2-19-2.2c-6,3.5-12.6,3.1-19.2,2.9c-2.3-1.1-4.4-3.9-3.3-5.2
			C129.2,32.2,123.6,28.7,121.5,24.2z"/>
		<path class="st61" d="M221.7,42.2c9.4,5,17.6,11.5,24.4,19.8c-0.8,5.8,2.6,10.1,5.2,14.7c4.5,8.1,2.9,13.7-4.5,19.2
			c-7.1,5.2-13.6,11.3-22.7,13c-1.1,0-2.2-0.1-3.2-0.5c-6.6-7.2-14.3-13.6-17-23.6c2.5-7.1,9.1-6.3,14.7-7.5
			c4.8-0.2,10.4-0.8,10.6-6.6c0.2-6.7,1-14.5-6.1-19C218.7,48.8,215.8,46.3,221.7,42.2z"/>
		<path class="st62" d="M223.4,106.4c0.8-4,2.8-5.4,7.1-6.5c13-3.1,18.5-13.5,14.7-25.7c-1.4-4.2-1.9-8.3,0.9-12.2
			c6.1,6.4,9.8,15,17.3,20.3c-0.1,0.7-0.2,1.4-0.2,2.1c-0.7,2.4,0,4.8,0.1,7.1c0.3,18.4-13.7,30-31.9,26.6c-2-0.4-3.8-1-5.9-1.1
			c-2.4,0.1-4-1.4-5.4-3.1c-0.6-0.9-0.9-1.9-0.9-3.1C219.6,108.5,221.8,107.7,223.4,106.4z"/>
		<path class="st63" d="M221.7,42.2c2.6,8.1,10.9,12.9,12.7,21.7c1,5.1,4.5,11,0.8,15c-3.7,3.9-10.2,3.4-15.6,1.4
			c-9.9-4-4.7-12.7-5.4-19.1c-0.4-4.1-0.2-8.4-0.5-12.7c-3.2-3.3-4.7-7.4-5.9-11.7C213.5,35.8,216.9,40.9,221.7,42.2z"/>
		<path class="st64" d="M225.9,114.5c2.9-2.7,6-1.4,9.3-0.9c11,1.7,20.1-4.9,22.4-15.8c1-4.9,1.6-9.8,5.7-13.3
			c1.9,2.7,3.9,5.5,5.8,8.2c2.1,4.6,4.1,9.2,6.2,13.8c0.7,6.7,4.9,12.7,4,19.8c-8.1,2.4-9.1,9.6-9.3,16c-0.3,11.4-8.1,18.5-13.6,27
			c-1.1,1.7-3.1,3.3-5,2.2c-9.2-4.8-9.6,2.8-11.8,8c-1.9,1.4-3.1,0.3-4.3-1.1c-2.9-11.8-7.4-23.3-6.2-35.8c-0.1-6.3-7.2-9.6-7-16.1
			C221.3,121.8,220.1,117,225.9,114.5z"/>
		<path class="st65" d="M121.5,24.2c5.5,0.5,11.1-0.2,16.2,2.4c3.8,2,5.3,4.1,0.2,6.4c-3.8,1.7-7.8,3.3-10.1,7.2
			c0.5,4.7-3,9.1-1.3,14c-0.3,1-0.9,1.9-1.7,2.7c-7.7,3.6-15.7,3.9-23.9,1.8c-4.3-2.6-0.1-4,0.7-6.1c2.4-6.8,7.5-13.6,0.1-20.5
			C107.6,28,115.8,29.3,121.5,24.2z"/>
		<path class="st32" d="M66,102c-8.5,4.9-14,2.9-16.6-6.9c-1.1-4.4-3.3-8.5-7.6-11c2.6-8,8.1-14,14.5-19.1c2.9-2.4,5.3-4.7,6-8.4
			c3.5-1.8,6.8-7.6,10.7-4.2c4.3,3.8,5.9,10.4,4.4,16.3c-0.9,3.8-2.3,7.4-1.7,11.4C73,87.6,71.2,95.5,66,102z"/>
		<path class="st66" d="M66,102c1.1-8.2-1.7-18.2,9.7-22c1.4-0.5,2.7-1,4.1-1.5c0.6-0.7,1.4-1,2.4-0.8c5.6,2.6-0.5,8.4,3.2,11.5
			c0.8,0.9,1.6,1.9,2.5,2.7c1.1,1.2,2.2,2.5,2.8,4c0.4,1.2,0.9,2.4,1.4,3.6c0.9,2.5,3.2,4.7,2,7.7c-1.3,2-3,3.7-5.1,4.9
			c-3.9,7.5-11.2,5.9-17.7,6.5c-3.4,0.3-4.5-1.8-5.1-4.6c0,0-0.2,0.1-0.2,0.1c1.8-2.7,3.7-5.3,5.2-8.1c0.9-1.6,1.9-3.9,0.1-5.3
			C69.5,99.3,67.8,101.4,66,102z"/>
		<path class="st67" d="M81.7,78.8c-0.6-0.2-1.3-0.3-1.9-0.3c7-6.6,14.1-13.2,21.1-19.8c6.9-4.6,15.5-0.3,22.5-4.5
			c0.8-0.6,1.6-0.8,2.6-0.6c3.2,3.8,1.1,7.4-2.1,8.6c-5.5,2.1-11.2,6.3-16.4,6.1c-7.5-0.2-9.9,4.7-14.1,8.2
			c-3.3,0.6-5.3,4.2-9.1,3.7C83.3,79.9,82.5,79.4,81.7,78.8z"/>
		<path class="st68" d="M66.2,114.1c4.1,1.1,8.3-1.3,12.4,1c1.4,0.8,2.9,0.2,2.9-2.3c0.1-5.7,4-3,6.7-2.7c2.1-1.1,4.2-2.3,6.7-2.2
			c4.8,1.2,4.5,5.2,4.3,8.7c-0.4,6.6,3,9.2,9,9.5c3.1,2.4,2.6,5.2,0.8,8.1c-1.4,2.8-3.9,4.5-6.5,6c-2.1,1.2-4.1,2.5-6.7,1.8
			c-7-3.3-17.1-4-14-16c-1.2-0.9-3.4,0-3.9-2.1c-0.2-4.9-3.2-1.4-4.8-1.5C67.7,122.1,63.8,120.7,66.2,114.1z"/>
		<path class="st69" d="M95.8,142.1c1.5-1.3,3-2.5,4.4-3.8c4,2,7.8-1,11.7-0.4c1,0.4,1.8,1.1,2.2,2.1c1.1,2.9,0.4,6.2,1.9,9
			c1.8,3.6,2.8,7.1-0.7,10.3c-0.5,0.2-1,0.4-1.5,0.6c-3.6,0.8-6.1,3-8.1,6c-2.8-2-5.5-4.1-8.3-6.1C106.3,153,98.6,147.8,95.8,142.1z
			"/>
		<path class="st68" d="M80.2,159.7c-3.2-5.7-4.5-11.2,1.8-17.1C81.4,149.4,80.8,154.6,80.2,159.7z"/>
		<path class="st70" d="M77.9,124c1.3,0.7,2.6,1.4,3.9,2.1c-2.9,1.2-4.4,4.9-8.3,5C72.7,127.1,75.9,125.9,77.9,124z"/>
		<path class="st71" d="M123.8,166.1c0,0.7,0,1.3,0,2c-2.3,3.1,0.4,7-1.8,10.1c-0.9,0.3-1.7,0.2-2.4-0.5c0.1-1.6,0.5-3.3-1.7-3.9
			c-6.2,1.5-6.4-1.4-4.3-5.9c0.2-2.6,0.3-5.3,0.5-7.9c0,0-0.1,0.1-0.1,0.1C121.2,156.8,122.7,157.7,123.8,166.1z"/>
		<path class="st50" d="M113.5,167.9c0.6,2.6,1.7,4.9,4.3,5.9c-1.8,1.9-3.9,4.5-6.4,1.5C109,172.5,111,169.9,113.5,167.9z"/>
		<path class="st71" d="M123.9,184.1c-0.6,1.9-1.1,3.7-1.7,5.6c-6.4-2.8-5.2-7.2-2.6-11.9c0.3,0.2,0.6,0.4,0.9,0.7
			C122.2,180,122.4,182.4,123.9,184.1z"/>
		<path class="st72" d="M123.8,166.1c-3.3-2-5.3-6.3-9.9-6c-0.5-3.3-1-6.6-1.5-9.9c4.4-4.3,1.2-9.2,1.3-13.9
			c1.1-2.6,2.9-4.4,5.7-5.1c7,1.1,12.9,4.1,17.7,9.3c1.9,10.9,11.6,14.9,18.8,21.1c0.5,1,0.8,2,0.9,3.1c1.2,7.6,0.4,15.5,6.4,22
			c2.9,3.2,1.2,6.7-3.4,7.9c-3.9,0.8-6.8-1.5-8.3-4.2c-3.3-6.2-8.9-7.5-15-8.5c-2.3-2.2-3.2-5.3-4.6-8.1
			C129.1,171.2,126.5,168.6,123.8,166.1z"/>
		<path class="st73" d="M151.4,201.9c-1.9,2.2-3.8,4.4-7.2,3.8c-1.7-5.5-1.6-11.6-6.3-16c-1.4-3.9,0.5-5.6,4.1-6.2
			c8.2,1.7,11.5,8,14.3,14.9C155.6,200.9,154.7,203.1,151.4,201.9z"/>
		<path class="st74" d="M141.9,185.8c-1.3,1.3-2.7,2.7-4,4c-3.2,1.8,0.9,5.8-3,8.1c-1.6-8.3-3.7-16-3.1-24.1
			c1.9,1.4,3.9,2.8,5.8,4.3C141.2,179.5,145.1,180.7,141.9,185.8z"/>
		<path class="st75" d="M140.1,213.6c-0.6,2.4-1.4,4.6-3.9,5.8c1.1-5.1-6.1-12,3.3-15.4C139.7,207.2,139.9,210.4,140.1,213.6z"/>
		<path class="st76" d="M123.9,184.1c-3.2-0.7-3.3-3.2-3.5-5.7c1.1-3.4,2.2-6.9,3.3-10.3C124.6,173.4,125,178.7,123.9,184.1z"/>
		<path class="st77" d="M159.8,221.8c2.1-0.6,4.2-1.1,7.3-2c-3-3.6-8.5-3.6-9-8.4c1.2-6.9,5.4-5.4,9.8-3.6c2.2,3.5,4.7,6.7,9.3,7.1
			c0.9,0.3,1.7,0.7,2.4,1.4c3.2,3.8,6.4,7.2,2.9,12.9c-3,4.9-7,3.6-11.1,3C166.8,229.5,161.7,227.4,159.8,221.8z"/>
		<path class="st78" d="M171.5,232.1c7.9-2.4,8.1-8,5.9-14.5c-1.3-7.1,0.9-9.9,6.5-7.8c3,1.1,5.9,2.8,8.9,4.2
			c5.8,7.1-1.2,13-1.9,19.5c-0.3,1-0.6,1.9-1,2.8c-0.5,0.8-1.3,1.4-2.3,1.8C182.3,236,176.9,234.1,171.5,232.1z"/>
		<path class="st79" d="M187.7,238c0.1-1.1,0.2-2.2,0.3-3.4c1.8-1.8,2.2-4.8,5.1-5.9c2.3-0.9,4.4-1.7,6.5,0.2
			c2.3,2.2,2.6,4.5,0.1,6.7c-9.4-1.3-0.5,6.4-4,8.1C192.6,242.3,189,241.6,187.7,238z"/>
		<path class="st80" d="M162.1,237.4c6.2-7.9,7.1,1.6,12.1,2.5C168,243,165.2,239.7,162.1,237.4
			C162.1,237.4,162.1,237.4,162.1,237.4z"/>
		<path class="st81" d="M165.8,211.8c-2.7,1.5-4.9-4.6-7.7-0.4c-8,1-7.4-4.3-6.7-9.4c0.8-1.5,1.6-2.9,2.4-4.4
			c0.7-0.8,1.5-1.3,2.6-1.3c3,1,5.7,2.4,8,4.6C166.2,204.3,170.9,207.4,165.8,211.8z"/>
		<path class="st82" d="M199.5,235.7c-2.9-10.8-7.9,1.5-11.6-1.1c0-0.4-0.1-0.8-0.1-1.2c2.9-6.1,4.6-13.5,13.7-13.1
			c0.7-0.3,1.4-0.6,1.9-1c0.7-0.9,1.1-1.9,1.5-2.9c3.2-7.2,12.1-8.1,16.1-14.4c3.2-0.7,4.8,1.6,6.5,3.6c1.6,1.5,2.4,3.4,2.7,5.6
			c0.3,2.1,0.1,4.1-1.2,5.9c-2,5-3,10.8-9.6,12.2c-1.5,0.5-3,1-4.6,1.5c-3.6,3.5-9.5,2.5-13,6.2
			C201.2,236.7,200.4,236.2,199.5,235.7z"/>
		<path class="st83" d="M202,237.2c1.4-8.3,6.9-7.8,13-6.2c0.2,2.3,0.5,4.7,0.7,7C211,240.4,206.5,238.3,202,237.2z"/>
		<path class="st84" d="M247.3,227.9c-0.3,4.2-1.9,8-3.9,11.6c-3.6,1.4-6.2-3.5-9.8-1.5c-3.2-1.9-4.4-4.6-3.6-8.2
			c2.1-4.8,6.7-4.3,10.7-5c1.1,0,2.1,0.1,3.1,0.2C245.4,225.4,246.5,226.4,247.3,227.9z"/>
		<path class="st85" d="M241.3,227.3c-3.5,2-7.3,2.7-11.4,2.5c-4.2-1.7-6.1,1.5-8.4,3.9c-0.7-1.4-1.3-2.9-2-4.3
			c2.1-4.6,4.2-9.3,6.3-13.9c3.8-0.7,7.5-2.3,11.2,0.1C238.1,219.6,246.3,221.1,241.3,227.3z"/>
		<path class="st86" d="M247.3,227.9c-1.2-0.2-2.4-0.3-3.6-0.5c-0.7-4-4.2-6.3-6.1-9.5c-1-4.3-6-5.9-7-10.2c0.1-8.6,7.8-9.6,13-13.3
			c2.4,0.3,2.8,2.3,3.5,4.1c2.3,5.5-3.6,12,2.1,17.1C249.7,219.9,249.2,224,247.3,227.9z"/>
		<path class="st87" d="M245.7,199.9c-0.7-1.3-1.5-2.6-2.2-3.9c-6.3,1.1-6.4-3.4-6.8-7.5c0-3.3,1.4-5.5,4.9-6.1
			c6.7,7.2,9.9,15.4,7.6,25.2C242.6,207.4,248.6,201.7,245.7,199.9z"/>
		<path class="st88" d="M245.7,199.9c1.1,2.6,2.3,5.2,3.4,7.7c0,2.7,0.1,5.3,0.1,8C235,213.3,247,205.1,245.7,199.9z"/>
		<path class="st89" d="M241.5,182.4c-0.8,2.1-1.6,4.2-2.4,6.3c-1.3,1.3-2.9,1.6-4.7,1.1c-3.1-2.5-6.5-4.7-7.6-8.9
			c2-8.1,3-8.4,10.9-3.6c0.6,0.7,1.2,1.5,1.9,2.2C240.2,180.5,240.9,181.4,241.5,182.4z"/>
		<path class="st90" d="M213.6,48.4c10.2,3.7,11.7,6.7,7.2,20.5c-1.3,4-1.5,7.5-1.2,11.3c-3,4.4-6.9,6.5-12.3,4.5
			c-3.4,2-5.6-0.9-8.1-2.2c-3.1-2.3-8.8-2.4-7.3-8.6c2.8-4.3,8.4-2.4,11.8-5.5c7.7,3.5,5.7-2.6,5.6-6
			C209,57.2,207.6,51.7,213.6,48.4z"/>
		<path class="st91" d="M167.7,40.2c11.3,3.4,21.5,8.7,28.8,18.4c-0.1,3.6-2.7,3.5-5.2,3.5c-8.3,4.5-14.5,0.7-20.1-5.2
			c-1.2-0.7-2.5-1.4-3.8-1.9c-2-3.8-6.3-5.7-8.3-9.5c-0.2-2.6-0.3-5.1,2.7-6.4C163.8,39.1,165.8,39.3,167.7,40.2z"/>
		<path class="st92" d="M167.7,40.2c-2,0.2-4,0.3-5.9,0.5c-3.4,3.7-7.6,3-11.8,2c-2.5-1.4-3.1-3.5-2.1-6.2c1.5-1.3,3.1-2.5,4.3-4
			c2.6-3,4.9-6.3,9.7-5.2c6.1,1.4,3,6.1,3.7,9.6C165.8,38.1,167,39.1,167.7,40.2z"/>
		<path class="st93" d="M147.9,36.5c0.6,1.2,1.2,2.3,1.7,3.5c-6.4,8.5-15.4,11.8-25.6,12.7c-4.5-5.9-2.3-9.7,3.8-12.4
			C134.8,40.8,141.6,40.1,147.9,36.5z"/>
		<path class="st94" d="M191.6,59c1.7,0.2,3.5,2.4,4.9-0.4c2.4,3.3,4.8,6.6,7.2,9.8c-1.5,4.9-5.5,5.7-9.8,6
			c-0.8,0.8-1.7,0.9-2.7,0.6c-0.8-0.5-1.4-1.3-1.9-2.1c0-3-1.3-5.5-2.5-8.2C184.9,60.4,187.5,58.8,191.6,59z"/>
		<path class="st95" d="M201.7,80.1c1.9,1.5,3.7,3.1,5.6,4.6c4.9,7.1,9.8,14.2,14.7,21.3c-4.1,9-9.5,2-14.4,1.2
			c-0.8-0.5-1.6-1.2-2.1-2c-0.9-4-3.3-4.6-7.3-4.3c-7.8,0.7-15.5,1.4-23.4,1c-3.5-0.2-7,1-8.3-3.6c1.6-5.2,6-2.1,8.5-3
			c-5.6-2.2-13.2,6.2-18.3-2.7c-2.6-4.6-3.2-9.2,0.4-13.7c0.9-0.4,1.8-0.6,2.8-0.5c7.4,7.2,22.3,9.4,32.8,4.8
			C195.5,81.9,198.2,79.7,201.7,80.1z"/>
		<path class="st96" d="M207.7,104.9c4.9-1.3,9.3,4.1,14.3,1.1c0.5,0.1,1,0.2,1.5,0.3c0.1,1.8-0.2,3.4-2,4.4
			c-5.6,2.7-10.4,6.8-16.6,8.4c-7.7-0.2-15.4-0.4-22.8,2.2c-3.4,1.2-6.6,0-9.8-0.1c-5.5-1.4-12.1,4-16.6-2.9c-0.9-3-2.1-4.5-5.9-5.4
			c-9.3-2.2-10.7-8.2-4.5-15.2c1-0.2,2.1-0.2,3.1,0.1c1,0.5,1.8,1.1,2.6,1.9c4.2,3.9,8.7,5.6,14.4,3c2.7-1.2,5.9-0.7,8.8-0.5
			c7.1,0.6,14.1,2.6,21.3-0.3C199.8,100.4,203.7,103.6,207.7,104.9z"/>
		<path class="st97" d="M203.7,116.3c5.5-3.2,10.7-7.4,17.8-5.5c0,0.5,0,1,0.1,1.5c1.4,9.6-1.1,16.9-11.1,20.2
			c-2.1-0.1-4.2,0.7-6.4,0.2c-1.8-0.4-3-1.6-3.8-3.2C200,124.8,196.5,119.1,203.7,116.3z"/>
		<path class="st98" d="M209.3,127.7c3.1-1.2,4.9-2.4,4.8-6.7c-0.1-3.8,4.7-6,7.5-8.7c1.4,0.7,2.9,1.5,4.3,2.2
			c-0.1,4.6-0.3,9.2-0.4,13.7C217.4,136.4,213.5,136.2,209.3,127.7z"/>
		<path class="st99" d="M237.7,177.3c-3.3,0.7-7.7-0.6-8.9,4.4c-4.2,1.8-6.9-0.6-9.7-3.1c-0.5-1.5-0.5-3.1-0.3-4.6
			c1.5-4.3,1.7-9,3.8-13.2c7.4-4,5.8-9,1.5-14.1c-2.2-2.6-5.9-4.3-4.9-8.7c6.5-6.4,8.1-6.1,14,2.8
			C238.4,152.4,232.5,165.5,237.7,177.3z"/>
		<path class="st100" d="M233.2,140.7c-3.8-2.8-7.4-6.6-11.7-0.7c-3.9,8.3-5.5,8.5-11.7,2.6c-1.6-1.5-2.5-3.6-4.4-4.9
			c-1.4-2.4-3.1-4.8-0.3-7.4c1.4-0.8,2.8-1.7,4.1-2.5c5.3,2.9,10.8,0.2,16.2,0.5C228.1,132.3,233,135.1,233.2,140.7z"/>
		<path class="st101" d="M124,52.7c7.5-6.3,17.3-8.1,25.6-12.7c4,0.2,8.1,0.4,12.1,0.6c-0.2,1.4-0.4,2.8-0.6,4.2
			c-1.8,2.9-5.4,4-6.8,7.2c-1.2,0.9-2.6,1.2-4,1.3c-8.3-2.7-16.1,1.9-24.2,1.5c-0.9-0.2-1.9-0.4-2.8-0.6
			C123.6,53.7,123.8,53.2,124,52.7z"/>
		<path class="st102" d="M81.7,78.8c0.8,0,1.6-0.1,2.4-0.1c2.3,0.5,4.6-1.4,6.9-0.3c1.6,1.1,2.6,2.8,3.7,4.4
			c0.8,1.3,1.5,2.6,1.5,4.1c-1.7,8.2-10.8,2.8-14.3,7.7c-5.5,2.2-3.6-1.7-3.9-4.4C77.7,85.7,79.5,82.3,81.7,78.8z"/>
		<path class="st102" d="M87.9,98.2c-0.6-1.7-1.2-3.4-1.8-5.1c2.6-5.5,10.5-3.9,12.8-9.6c3-0.2,6-0.4,9,0.4
			c4.2,2.5,2.7,6.7,2.9,10.3c-2.3,4.3-5.8,6-10.6,4.8C96.3,97.5,91.8,103,87.9,98.2z"/>
		<path class="st103" d="M87.9,98.2c5,0.1,6.9-4.5,10.2-6.9c1.6-1.1,1.6-1,2.1,3.1c0.5,3.7-0.6,6.7-4.3,8.2c-3,0.5-5.5-0.9-8-2.2
			c-0.2-0.5-0.4-1-0.5-1.5C87.3,98.7,87.7,98.4,87.9,98.2z"/>
		<path class="st104" d="M97.6,86.6c-2.3,4.9-8.3,3.3-11.5,6.6c-1.4,0.5-2.7,1-4.1,1.4c0.8-7.4,8.4-4.8,11.9-8.2
			C95.3,85.2,96.5,85.2,97.6,86.6z"/>
		<path class="st102" d="M87.9,100.4c2.6-0.1,5.2-0.2,7.8-0.3c2.6-0.1,5.5-1,6.9,2.2c1.1,2.5-0.1,4.4-2.2,5.9
			c-3.2,0.7-6.1,0.1-8.7-2.1C90.5,104.1,89.2,102.3,87.9,100.4z"/>
		<path class="st105" d="M91.8,106c2-0.6,4.1-1,6.1,0.1c1.6,4.2-2.3,3-3.9,4c-1.9,0-3.8-0.1-5.6-0.1C89.4,108.7,90.6,107.4,91.8,106
			z"/>
		<path class="st106" d="M126.1,54.8c7.1-4.7,14.3-8.8,23.1-4.2c2,6.9-6.3,3.1-7.2,6.9c-0.2,1.1,0.3,2.1,0.5,3.2
			c0.1,0.9,0.2,1.7,0.3,2.6c0.6,2.6,0.2,5-1.9,6.8c-3.6,2.5-7.1,1.5-10.8,0c-3.7-1.5-7.5-0.5-11.3,0.3c-3,0.9-6,1.7-8.7,3.3
			c-2.1,1.7-3.3,4.4-6.2,5.2c-4.1-1.5-9.4,0.2-12.3-4.6c3.9-12.8,16.6-9.9,25.4-14C120.5,58.8,123.9,57.9,126.1,54.8z"/>
		<path class="st107" d="M91.8,74.3c4.2,0,8.6-1.2,12.2,2c5.1-3.4,10.6-3.6,16.3-1.9c4.4,4.4,7.3,9.1,1.9,14.8
			c-1.2,1.4-2.7,2.2-4.6,2.2c-3.2,0.3-4.5-2.3-6.3-4.1c-1.6-1.9-3.6-3-6.1-3.1c-4.9-1.8-10.8,0.7-15.1-3.6c-2-0.6-4-1.2-6-1.8
			C86.7,77.2,89.2,75.7,91.8,74.3z"/>
		<path class="st108" d="M119.9,88.3c0-3.9,0-7.8,0-11.7c-0.3-2.3,0.7-3.9,2.5-5.1c4.6-3,8.9-7.3,15.1-3.4c0.8-1.8,1.6-3.5,2.4-5.3
			c2.6-7.1,14.9-13.1,22.9-10.2c4.1,1.5,7.5,1.1,11.3,0c1.4,1.7,2.8,3.6,4.4,5.2c1.6,1.6,2.7,5.2,4.8-0.6c1.4-3.9,5.4,1,8.3,1.8
			c-1.3,1.3-1.9,3-0.1,4.1c6.1,3.7,2.9,6.7-0.5,9.7c-5.2,4.9-11.1,6.6-17.9,3.9c-3.6-1.4-7-1.4-10.3,0.4c-2.6,0.3-4.9,1.2-7.3,2.3
			c-1.7,0.8-3.4,1.7-5.3,2.1c-1.8,0.4-3.7,0.6-4.6,2.5c-5.1,2.6-4,8.1-5.8,12.2c-7.6,2.8-3.8,10-5.7,15c-2.7,5-9.4,7.4-8.9,14.4
			c0.8,4.5-0.1,7.8-5.4,8.3c-1.3,1.4-2.7,2.9-4,4.3c-0.7,1.6-1.4,3.1-3.6,2.1l-0.7-0.3c-2.7-1.1-5.9-1.7-5.5-5.8
			c0.8-2.1,1.2-4.2-0.2-6.2c-5.3-3-4.9-6.3-0.4-9.6c3.4-2.4,7.4-4,9.5-7.9c1.3-2,2.1-4.3,4.4-5.4c2.3-1.5,4.5-3.3,2-6
			C118,95.6,119.1,92,119.9,88.3z"/>
		<path class="st66" d="M119.9,88.3c3.2,6.4,9.9,12.5,1.9,19.9c-1.1-0.1-2.3-0.4-3.4-0.2c-0.2,0.2-0.5,0.4-0.8,0.7
			c-0.6,1.1-0.3,2.2,0.2,3.2c-1.8,5.1-4.3,9.5-9.9,11.3c-2.3,0.8-2.6,2.6-2.2,4.7c-3.8,1.5-5.9,7.2-10.8,5.5c-2-0.7-4.6-5.5-4.1-6.1
			c4.2-5.3,0-11.8,3.1-17.1c1.3-1.3,2.6-2.7,3.9-4c4.2-3.7-0.8-4.3-2.1-6.1c1.5-1.9,3-3.7,4.5-5.6c3.1,1.1,5.4-0.2,7.4-2.4
			c0.8-4.6,3.6-5.4,7.6-4.1C116.8,88.1,118.3,88.2,119.9,88.3z"/>
		<path class="st109" d="M105.9,134.1c2.5,1.3,4.9,2.7,5.6,5.8c-4.1,2-8.2,4-11.2-1.6C102.1,136.9,104,135.5,105.9,134.1z"/>
		<path class="st110" d="M112.1,140.2c1.2-0.7,2.4-1.4,3.6-2.1c1.8,4.8,3.5,9.7-3.4,12C112.3,146.8,112.2,143.5,112.1,140.2z"/>
		<path class="st110" d="M119.7,133.8c0.8-3,1.5-6,2.3-9c0.1-3.2,1.3-5.2,4.6-5.4c0.3,0.3,0.7,0.5,1.2,0.4c-0.5-0.1-0.9-0.4-1.3-1
			c-1-3.6,2-5.6,3.1-8.4c0-3.9,0.3-7.9-0.1-11.8c-0.9-8,1.9-9,7.9-4.5c4.3,0.1,6.1,3.1,5.6,6.4c-1.2,8.9,3.9,12,11.2,13.6
			c2,2.3,2.6,5.8-0.1,6.9c-6.9,2.8-6.4,9.3-8.5,14.5c-5.5,0.7-7,7.2-12,8.5C130.5,138.8,123.7,138.1,119.7,133.8z"/>
		<path class="st111" d="M133.7,144.2c0.7-6.1,3.1-10.4,10.1-10.4c6.3-5.2,13-9,21.7-6.4c1.7,3.3,4.3,5.9,6.9,8.5
			c2.3,10.5-6,12.1-12.5,15.2c-1.5,1.3-4.4-1.2-5.2,1.9c-0.3,1.6-0.2,3.1,0.3,4.6c0.5,1.3,0.6,2.6-0.2,3.9c-0.4,0.3-0.7,0.5-1.1,0.8
			C144.5,158.9,137.2,153.6,133.7,144.2z"/>
		<path class="st112" d="M157.7,191.9c2.6-1.5,2.8-3.6,1.1-5.7c-5.5-6.6-5.1-14.4-5.1-22.2c4.9-1.5,5.9,2.6,7.8,5.5
			c-1.5,6.4,4.6,7.9,7.5,11.4c2.6,2,4.9,4.3,7.3,6.5c8.3,8,7.5,11.1-3.9,14.6c-0.9,0.3-1.9,0.4-2.9,0.5c-3.4,0.6-5.6-2.2-8.5-3.2
			C158.7,197.5,155.7,195.8,157.7,191.9z"/>
		<path class="st113" d="M157.8,171.7c-1.4-2.6-2.7-5.1-4.1-7.7c0-0.6-0.1-1.2-0.1-1.8c0.2-0.6,0.4-1.2,0.6-1.8
			c2.3-3.9,5.3-1.8,8.1-1c13,3.6,20.3,12.3,22.2,25.5c-5.3,12-8.9,1-13.2-1C168.3,178.3,161.2,177,157.8,171.7z"/>
		<path class="st114" d="M157.7,191.9c1.4,2,2.7,3.9,4.1,5.9c-2,2.2-4,1.4-6.1,0.1c-0.6-0.2-1.3-0.3-1.9-0.3
			c-3.1-4.8-6.6-9.2-11.9-11.8c-1.4-2.6-2.8-5.1-4.3-7.7C148.4,176.8,150.8,187.7,157.7,191.9z"/>
		<path class="st115" d="M191.7,215.7c-3.2,1.1-6.1,3.4-9.4-0.4c-3.4-3.9-3.8,0.5-4.9,2.4c-0.6,0.1-1.2,0.1-1.8,0.2
			c-5.6-0.7-4.3-5.6-5.4-9c0.6-2.6,2-4.8,3-7.1c4.7-1.8,8.1-4.9,10.5-9.3c2.8-0.9,5.1-3.5,8.4-2.9c1.4,0.6,2.5,1.6,3.5,2.8
			c2.1,4.4,0.4,8.8,0.2,13.2c-0.6,3.3,0.8,7.2-2.6,9.7C192.7,215.4,192.2,215.5,191.7,215.7z"/>
		<path class="st116" d="M173.8,208c-0.1,3.4-0.4,6.8,1.8,9.8c-6.4,3-6.4-4.2-9.8-6c-0.8-3.6-1.5-7.1-4.4-9.7
			C167.8,199.3,172.9,199.3,173.8,208z"/>
		<path class="st117" d="M202.8,223.4c-6.7,0.8-10.5,5.8-14.9,10c-3.5-6.9,6.6-10.9,3.8-17.7c0,0-0.1,0.2-0.1,0.2
			c2.9-2,5.8-4.9,9.4-1.3C203.6,217,206.6,219.6,202.8,223.4z"/>
		<path class="st118" d="M173.8,208c-3.2-4-7-6.7-12.5-5.9c-2.8-0.2-4.5-1.8-5.7-4.2c2,0,4.1-0.1,6.1-0.1c2.6,0.6,5.2,1.1,7.9,1.7
			c2.9-1.1,5.1-0.7,6.2,2.5C175.5,204.1,175.7,206.4,173.8,208z"/>
		<path class="st119" d="M193.8,194.1c-0.8-0.8-1.5-1.6-2.3-2.3c2.5-9.4,4.4-10.6,13.2-8.3c4.8,0.8,10.9-1.8,13.4,5.1
			c1.9,3.7-3.5,5.7-2.3,9.3c0,4,5.6,2.5,5.9,6.1c1.8,11.1-9.1,9.2-13.9,13.7c-0.9,0-1.8-0.2-2.6-0.4c-5.8-2.6-10.4-6.4-12.5-12.7
			C191.6,200.9,197.8,198,193.8,194.1z"/>
		<path class="st120" d="M235.8,187.7c1.1,0.3,2.2,0.6,3.3,0.9c1.4,2.4,2.9,4.9,4.3,7.3c0,6.7-3.9,10-10,11.2c1,5.2-0.8,6.7-5.7,4.4
			c-0.8-1.3-1.5-2.5-2.3-3.8c0.8-4-3.2-7.8-0.6-11.8C228.2,192.7,228.1,185.1,235.8,187.7z"/>
		<path class="st121" d="M193.6,203.6c4.3,1.6,5.7-4.3,10.7-3.7c-6.8,7.2-3.5,12.2,3.1,16.3c-3.3,5,3.6,4.8,4.1,7.8
			c-3.3,5.2-6,2.4-8.7-0.6c-0.6-7.2-6.5-6.4-11.2-7.6c0.1-3.8,0.3-7.7,0.4-11.5C192.2,203.3,192.7,203.1,193.6,203.6z"/>
		<path class="st122" d="M227.6,197.8c0.8,3.6-0.1,6.9-2.1,9.9c-1.2-1.3-2.5-2.5-3.7-3.8c-8.4,6.8-10-0.2-12.2-6
			c2.8-4.4,7.7-4.1,11.9-5.4C224.6,193,226.8,194.7,227.6,197.8z"/>
		<path class="st123" d="M227.7,211.6c3.1,0.1,4.5-2,5.7-4.4c3.2,2.9,6.1,6,6.6,10.6c-0.8,4.9-3.1,1.7-4.9,0.9
			c-3.8,1.1-6.8,0-9.2-3.2C226.5,214.2,227.1,212.9,227.7,211.6z"/>
		<path class="st124" d="M211.5,224c-3.6,0-5.9-2-6.9-5.2c-0.6-2.1,1.1-2.5,2.7-2.6c0,0.5,0.2,1,0.5,1.4c1.7,1.4,3.6,2.6,5.2,4.2
			C215.7,224.5,212.4,223.6,211.5,224z"/>
		<path class="st125" d="M235,218.7c1.6-0.3,3.3-0.6,4.9-0.9c4.1,2.2,4.9,5.5,3.7,9.7c-0.8,0-1.6-0.1-2.4-0.1
			C240.3,223.6,231.9,225.3,235,218.7z"/>
		<path class="st126" d="M227.6,197.8c-2-0.7-4-1.5-6.1-2.2c-2.1-2-0.1-4.8-1.4-6.9c-2.3-4.1-5.4-8.3,1.8-10.9
			c3.1-0.1,4.4,2.9,6.9,3.8c3,1.3,5.9,2.6,7,6.1C233,191.1,230.3,194.4,227.6,197.8z"/>
		<path class="st127" d="M201.7,80.1c-5.4,14-17.9,9.3-28.1,10.6c-7.9,1.1-12.9-1.7-13.6-10.2c3.7-6.4,10.3-6.6,16.3-7.1
			c4.8-0.4,9.9-1.3,14.7,0.8c0.9,0.1,1.9,0.1,2.9,0.2C196.4,76.4,200,77,201.7,80.1z"/>
		<path class="st128" d="M174.2,52.6c-0.7,3.7,1,9.8-6.7,6.1c-8.6-4.1-16.9-5.3-23.7,3.5c-0.6,0.7-2.5,0.4-3.8,0.5
			c-0.7-0.2-1.3-0.3-2-0.5c-7.9-2.4-4-5.1-0.3-7.9c3.4-2.7,8.4-0.6,11.6-3.7c0.8-0.7,1.6-1.4,2.4-2.1c7.2-5.3,12.1,0.9,17.7,3.6
			C171,52.3,172.6,52.4,174.2,52.6z"/>
		<path class="st129" d="M169.3,52.2c-5.9-1.2-11.8-2.4-17.7-3.6c-2.9-2.5-4.1-5.1,1-5.6c2.8-0.3,5.7,1.2,8.5,1.9
			C164.1,47.1,169.7,46.3,169.3,52.2z"/>
		<path class="st95" d="M191,74.3c-11-1.2-21,2.4-31,6.2c0,0-0.6-0.4-0.6-0.4c-2-1.9-1.2-3.7,0.4-5.4c10.1-4.8,20.7-2,31.2-2.1
			C191.1,73.3,191.1,73.8,191,74.3z"/>
		<path class="st130" d="M159.9,74.8c-0.1,1.8-0.3,3.6-0.4,5.4c-2,10-0.1,13.1,9.3,13.8c5.2,0.4,10.4,0.1,15.7,0.9
			c-5.6,1.7-11.6,0.3-16.9,3.3c0.8,5.2,5.2,4,8.1,3.9c7.8-0.3,15.7-0.2,23.4-1.3c3.5-0.5,6.5-0.7,8.4,3c0,0.4,0.1,0.8,0.1,1.2
			c-5.1,4.4-11.3,3.2-17.1,3.3c-10.9,0.2-21.9-0.1-32.8-0.1c-4.5,0-8.8-0.2-10-5.9c2.7-5.3,6.5-10,3.3-16.8
			c-1.4-2.9,0.5-6.4,2.9-8.9C155.9,75.9,157.9,75.4,159.9,74.8z"/>
		<path class="st131" d="M207.6,103.8c-12.7,2.7-25.5,2.4-38.3,2.2c-2.3,0-4.9-0.5-5.6-3.2c-0.9-3.2,1.9-3.6,4-4.5
			c12.5-0.6,25-1.5,37.4-1.6C210.8,96.5,213.4,99.1,207.6,103.8z"/>
		<path class="st132" d="M157.5,146.3c7.2,0,11.4-3.3,12.2-10.7c-1.4-2-3.1-3.8-2.5-6.5c1.5-5.7,6-5.1,11.7-4.9
			c-2.7-2.8-5.8-4.7-4.9-8.3c9.9,0.5,19.8-4.5,29.7,0.4c-0.1,3.9-0.1,7.8-0.2,11.7c-3.1,3-0.9,5.4,0.9,7.8
			c4.4,5.8,7.5,12.5,16.9,12.7c5.6,0.1,7.3,7.3,4.1,13.5c-0.3,4.3,0.2,8.8-3.5,12.1c-1.8,0.3-3.6,1-5.5,0.4
			c-4.1-2.5-8.1-3.9-12.7-0.8c-2.9,2-6.4,1.8-9.7,0.5c-1.5-1.2-2.2-3-3.2-4.5c-3.1-4.8-2.7-10.6-3.9-15.9c-0.7-3-0.9-5.9-5-5.7
			c-7.3,0.4-14.2,4.3-21.8,2.9C158.1,150,156.8,148.7,157.5,146.3z"/>
		<path class="st133" d="M174,115.9c5.4,1.6,10.7,3.4,14.5,8c1.4,1.7,3.7,3.4,2.3,6c-1.3,2.5-3.9,2-6.2,1.7
			c-5.1-0.8-10-3.8-15.3-0.8c-1.7,1.6-3.4,1.3-5-0.2c-6.9,0.5-13,6.5-20.5,3.2c-7.5-8.9-7-10.7,3.8-14.6c2.1-0.8,4.2-1.8,6.3-2.6
			c1.2-1.5,2.6-1.6,4.1-0.6C163.3,117.1,168.6,116.2,174,115.9z"/>
		<path class="st134" d="M157.9,115.8c-1.4,0.2-2.7,0.4-4.1,0.6c-7.2-0.4-11.3-3.8-12.3-11.3c-0.5-3.8-2.7-7.3-4.1-10.9
			c1-5.7-1.6-12.9,6.2-15.9c2,7.2,7.9,14,2.2,22c-1.7,15.1,10.8,7.6,16.9,10.9C161.3,112.7,159.6,114.2,157.9,115.8z"/>
		<path class="st135" d="M153.9,76.5c0.2,3.3-0.7,7.2,0.8,9.7c5.5,9.1,0.2,12.8-6.9,16c0-0.7,0-1.3,0-2c0.1-4.3,0.3-8.8-0.9-12.8
			c-1.2-4.1,0.3-6.5,2.9-9C151.1,77.8,152.5,77.1,153.9,76.5z"/>
		<path class="st136" d="M149.7,78.4c-0.5,7.3,1.1,14.8-2,21.8c-0.6,0-1.2,0.1-1.8,0.1c0.4-7.4-5.4-14.3-2.2-22
			C145.7,78.3,147.7,78.4,149.7,78.4z"/>
		<path class="st137" d="M201.4,136.1c-1.1-1.2-2.3-2.3-3.2-3.7c-1.4-2.1-3.8-4.5-1.1-6.9c3-2.6,4.4,1.2,6.4,2.4
			c0.5,0.8,1.1,1.5,1.6,2.3c0.9,1.8,1.8,3.7,2.6,5.5C206,142.4,203.5,135.8,201.4,136.1z"/>
		<path class="st138" d="M201.4,136.1c2.1-0.1,4.2-0.3,6.4-0.4c3.2,5.7,8.2,5.9,13.7,4.2c7.7,1,12.8,7.9,11.5,15.9
			c-0.6,3.8-2,7.5-3.1,11.3c-3-0.8-2.8-3.7-4.4-5.3c-1.9-5-4.3-7.4-10.5-9.1C208.5,151.1,204.9,142.7,201.4,136.1z"/>
		<path class="st139" d="M218,171.9c1.3,0.7,2.7,1.4,4,2.1c0,1.3-0.1,2.5-0.1,3.8c-1.1,4.2,2.8,6.8,3.6,10.4
			c-3.1,3-6.2,5.8-10.4,1.6c-3.4-3-8.6,1.9-11.8-2.6c-1.4-2.6-0.8-5.4-0.7-8.1c0.1-0.9,0.1-1.9,0.2-2.8
			C206,168.4,213,173.6,218,171.9z"/>
		<path class="st140" d="M90.2,80.5c5.3-0.6,11-4.1,15.6,1.8c-4,4.3-8.8,3.3-13.7,2.3C89.6,84.1,88.7,82.8,90.2,80.5z"/>
		<path class="st66" d="M92.1,84.6c4.7,0.1,9.3-0.8,13.7-2.3c2,0.7,4.1,1.3,6.1,2c-0.6,2.1-1.7,3.4-4,2c-3.4,0.1-6.8,0.2-10.2,0.3
			c-1.2-0.1-2.4-0.1-3.6-0.2C93.3,85.8,92.7,85.2,92.1,84.6z"/>
		<path class="st141" d="M107.8,86.2c1.3-0.7,2.7-1.3,4-2c1.9,0.6,3,1.9,3.4,3.8c-2.5,1.4-5,2.7-7.6,4.1
			C104.3,90,107.4,88.2,107.8,86.2z"/>
		<path class="st142" d="M137.5,68.1c-5.4,0.2-9.4,3.7-13.8,6.2c-3.7-2.8-10.6,4.6-12.5-3.9c5.2,0,4.8-4.5,6.2-7.5
			c3.4,2.2,7,3.6,11.2,2.5C132.1,64.4,135.2,65,137.5,68.1z"/>
		<path class="st143" d="M111.9,70.3c2.8,4.9,9.5-2.4,11.8,3.9c-1.3,0.8-2.5,1.6-3.8,2.4c-5.3-0.1-10.6-0.2-15.9-0.3
			c1.5-1.9,3-3.9,4.5-5.8C109.6,69.1,110.7,69.2,111.9,70.3z"/>
		<path class="st144" d="M111.9,70.3c-1.1,0-2.2,0-3.3,0.1c4.3-1,4.1-7.2,8.8-7.6C118.5,67.5,116.2,69.6,111.9,70.3z"/>
		<path class="st142" d="M137.7,54.4c-2.6,2.7-2.7,5.4,0.3,7.9c-2.4-0.3-5.9,0.8-6.3-2.8C131.3,55.8,135,55.3,137.7,54.4z"/>
		<path class="st145" d="M116,96c6.7,1.8,2.7,8.7,5.8,12.2c-1.3,1.2-2.6,2.5-4,3.7c-2.4-1.4-6.8-0.8-5.9-5.7
			C110.5,101.7,114.3,99.3,116,96z"/>
		<path class="st146" d="M129.6,110.5c-0.6,3.2-1.3,6.4-1.9,9.6l0.1-0.1c-1.9,1.6-3.8,3.2-5.8,4.8
			C120.1,117.7,125.1,114.3,129.6,110.5z"/>
		<path class="st147" d="M117,125.5c-0.2,2.6-1.4,4.1-3.5,4.6c-1.1,0.3-2-0.4-1.9-1.6c0.2-2.1,1.4-3.7,3.4-4.3
			C115.5,124.1,116.4,125.1,117,125.5z"/>
		<path class="st148" d="M116,96c-1.4,3.4-2.7,6.8-4.1,10.2c-2.5,0.3-5.1,0-3.2-3.3C110.4,100.1,112.3,97,116,96z"/>
		<path class="st149" d="M127.7,120.1c1.2,0.4,2.5,0.7,3.7,1.3c2.5,1.3,4.3,3.2,3.5,6.2c-0.2,0.7-1.3,1.8-1.9,1.8
			c-3.3-0.3-3.7-3.2-4.5-5.6c-0.4-1.2-0.4-2.6-0.5-3.9C127.8,120,127.7,120.1,127.7,120.1z"/>
		<path class="st150" d="M159.8,161.9c-1.9-0.5-3.8-1-5.6-1.6c-0.7-0.8-1.4-1.6-2.2-2.4c3-4.4,7.5-2.4,11.5-2.8
			c3.2,0.6,6.6,1.9,9.7,1.7c7.3-0.6,11.6,2.7,14.4,8.8c1.4,6.4,8.1,10.8,6.6,18.3c-0.5,1-1.2,1.8-2.1,2.4c-3.9,0.9-7.1,0.8-8.4-4.1
			C180.4,169.9,172.1,163.5,159.8,161.9z"/>
		<path class="st151" d="M163.7,158.1c-3.9-0.1-7.8-0.1-11.6-0.2c-1.4-1.3-2.9-2.5-4.3-3.8c0.8-4.3,4.1-4.6,7-3.6
			c3.5,1.3,5.3-0.1,7.2-2.5c7.9-1,14.7-4.7,21.7-8.1c2.6,4.9,4.1,10,2.8,15.6c-0.8,0.6-1.7,1-2.7,1.2
			C177,156.3,170.4,158.5,163.7,158.1z"/>
		<path class="st152" d="M162,148.1c3.1,3.8,1.3,5.6-2.7,6.8c-4,1.1-7.7-0.8-11.6-0.7c-0.9-1.7-1.9-3.3-2.8-5
			c-1.3-2.6-3.8-5.6-0.9-7.9c3.4-2.7,4.9,1.5,7,3.2c1.9,1.6,4.1,2,6.4,1.9C159,146.9,160.5,147.5,162,148.1z"/>
		<path class="st153" d="M164.2,130.5c1.7,0.1,3.4,0.1,5,0.2c1.7,1.5,3.5,3,0.4,4.9C166.3,135.5,164,134.4,164.2,130.5z"/>
		<path class="st154" d="M175.8,202c-2.1-0.8-4.1-1.7-6.2-2.5c10.4-5.1,10.3-5.9-3.8-15.6c1.4-2.8,3.7-2.5,6.1-1.9
			c3.2,1.2,5.3,7.5,9.8,2.1c4.5,0.6,6.6,3.1,6,7.7c-0.3,1.6-0.7,3.2-2.3,4.1C181.6,196.8,181.8,204.1,175.8,202z"/>
		<path class="st155" d="M172,181.9c-2,0.6-4.1,1.3-6.1,1.9c-3.2-3.7-10-5-8.1-12.1C164.7,172,170.7,173.7,172,181.9z"/>
		<path class="st156" d="M185.9,192c-1.4-2.7-2.7-5.3-4.1-8c-3.7-10.9-10.6-18.8-22-22c11.8,0.4,21.2,4.6,25.4,16.6
			c1.1,3,3.1,5,6.5,5.3C192.8,188.7,190.2,190.9,185.9,192z"/>
		<path class="st157" d="M185.9,192c1.9-2.7,3.8-5.4,5.7-8.1c0.4,0.1,0.7,0.1,1-0.2c2-5.8,5.4-8.4,11.4-4.8c2.1,3,1.7,5.8-0.8,8.5
			c-5.2-1.6-8.7,0.8-11.8,4.6c-2,1.2-2.1,5.4-6,3.8C185.6,194.4,185.8,193.2,185.9,192z"/>
		<path class="st158" d="M193.6,203.6c-0.5,0.3-1,0.5-1.5,0.7c0.6-3.4,1.2-6.8,1.8-10.2C200.5,197.5,193.4,200.5,193.6,203.6z"/>
		<path class="st159" d="M215,189.8c3.5-0.5,6.9-1.1,10.4-1.6c5,5.8-1.8,5.3-3.9,7.4c-4,0.8-8,1.6-12,2.4
			C206.2,191.8,213.3,192.6,215,189.8z"/>
		<path class="st160" d="M185.7,154c-10-3.3-8-8.4-2-14c6.3-3.6,6.2,0.8,6.4,5c0.4,7.6,0.9,15.3,3.8,22.5c0.9,1.9,1.3,3.9-1,4.7
			c-2.1,0.8-4-0.6-4.5-2.6C187.1,164.5,183.8,159.7,185.7,154z"/>
		<path class="st161" d="M218,171.9c-1.8,7.5-9.2,3.3-13.2,6.1c-10.5,1.9-10.9,1.6-9.3-6c2.5-0.8,5.6-1,7.2-2.6
			C209.3,162.9,213.7,166.1,218,171.9z"/>
		<path class="st162" d="M195.5,171.9c-1.3,8.7,5.5,5.1,9.3,6.1c-0.1,0.4-0.3,0.7-0.7,0.8c-4,1.1-8.2,2-11.4,4.8
			c-2.5-5.2-4.9-10.3-7.4-15.4c-0.6-4.7-5.4-8.9-1.7-14c0.7,0,1.4-0.1,2.1-0.1c2.4,3.4,3.7,7.2,4.3,11.4c0.3,1.9,0.5,5.3,3.9,2.1
			C194.4,169,195,170.5,195.5,171.9z"/>
		<path class="st163" d="M183.6,154.1c0.6,4.7,1.1,9.4,1.7,14c-4.2-9.9-14.3-6.9-21.6-10C169.9,154.9,176.6,153.8,183.6,154.1z"/>
	</g>
</g>
</svg>
