<?xml version="1.0" encoding="utf-8"?>
<!-- Generator: Adobe Illustrator 25.2.1, SVG Export Plug-In . SVG Version: 6.00 Build 0)  -->
<svg version="1.1" id="Camada_1" xmlns="http://www.w3.org/2000/svg" xmlns:xlink="http://www.w3.org/1999/xlink" x="0px" y="0px"
	 viewBox="0 0 300 300" style="enable-background:new 0 0 300 300;" xml:space="preserve">
<style type="text/css">
	.st0{fill:#241403;}
	.st1{fill:#1B1001;}
	.st2{fill:#251603;}
	.st3{fill:#1B0F01;}
	.st4{fill:#342006;}
	.st5{fill:#3C1503;}
	.st6{fill:#2B1A05;}
	.st7{fill:#531A05;}
	.st8{fill:#CA9230;}
	.st9{fill:#591A05;}
	.st10{fill:#69390F;}
	.st11{fill:#AB402C;}
	.st12{fill:#A34325;}
	.st13{fill:#5E1D04;}
	.st14{fill:#A72A0A;}
	.st15{fill:#8B2D1A;}
	.st16{fill:#ECAD3F;}
	.st17{fill:#6E1E05;}
	.st18{fill:#AC6F14;}
	.st19{fill:#E75330;}
	.st20{fill:#3F1D0A;}
	.st21{fill:#150701;}
	.st22{fill:#3A2005;}
	.st23{fill:#2C1A05;}
	.st24{fill:#5A2B12;}
	.st25{fill:#41270E;}
	.st26{fill:#382512;}
	.st27{fill:#4F361B;}
	.st28{fill:#573221;}
	.st29{fill:#321E05;}
	.st30{fill:#452F12;}
	.st31{fill:#8A6031;}
	.st32{fill:#6C4922;}
	.st33{fill:#6F4F2C;}
	.st34{fill:#A1733A;}
	.st35{fill:#614425;}
	.st36{fill:#885F2E;}
	.st37{fill:#E6B86B;}
	.st38{fill:#D29A52;}
	.st39{fill:#4B2705;}
	.st40{fill:#C99151;}
	.st41{fill:#B47F46;}
	.st42{fill:#963A25;}
	.st43{fill:#D0933A;}
	.st44{fill:#7C4511;}
	.st45{fill:#812A11;}
	.st46{fill:#4E250D;}
	.st47{fill:#B57038;}
	.st48{fill:#8A512A;}
	.st49{fill:#A46527;}
	.st50{fill:#63391A;}
	.st51{fill:#C64C2B;}
	.st52{fill:#2D1806;}
	.st53{fill:#572C13;}
	.st54{fill:#7E3A18;}
	.st55{fill:#4D2C09;}
	.st56{fill:#60380C;}
	.st57{fill:#472004;}
	.st58{fill:#6F3E1F;}
	.st59{fill:#52371A;}
	.st60{fill:#87421B;}
	.st61{fill:#A96233;}
	.st62{fill:#653F24;}
	.st63{fill:#F4C889;}
	.st64{fill:#402405;}
	.st65{fill:#49260E;}
	.st66{fill:#200F03;}
	.st67{fill:#533617;}
	.st68{fill:#4B3622;}
	.st69{fill:#774720;}
	.st70{fill:#5F4A2D;}
	.st71{fill:#502E0A;}
	.st72{fill:#774B14;}
	.st73{fill:#6B3F13;}
	.st74{fill:#6A4111;}
	.st75{fill:#5C360D;}
	.st76{fill:#CC864A;}
	.st77{fill:#603C1B;}
	.st78{fill:#B36E38;}
	.st79{fill:#BD6B34;}
	.st80{fill:#E07237;}
	.st81{fill:#946736;}
	.st82{fill:#BA7945;}
	.st83{fill:#7B5424;}
	.st84{fill:#E39C5A;}
	.st85{fill:#EBAD66;}
	.st86{fill:#E5BA84;}
	.st87{fill:#E29853;}
	.st88{fill:#A37245;}
	.st89{fill:#C48C61;}
	.st90{fill:#F8CB74;}
	.st91{fill:#FCE586;}
	.st92{fill:#FCCF7E;}
	.st93{fill:#F1BC8B;}
	.st94{fill:#FDE182;}
</style>
<g>
	<g>
		<path class="st0" d="M299.6,281.8c0,3.3,0,6.7,0,10c-9.3,6.9-18.2,0.5-23-4.6c-24.6-25.7-55.7-41.9-84.5-61.7
			c-1.9-2.9-2.3-6-0.6-9.2c2.8-4.3,6.9-2.7,10.7-2.4c7.2,0.6,11.6-3,12.2-10c0.9-10.4,4.5-20.8-0.3-31.3c-1.7-3.7-0.4-7.7,2-11.2
			c4.3-6.2,4.8-13.6,5.9-20.8c0.5-3.4,0.2-6.9-3.3-8.6c-3.6-1.8-6.2,0.4-8.7,2.8c-3.3,3.2-5.4,7.5-8.6,10.8c-0.8,0.5-1.7,0.9-2.7,1
			c-5.1,0.3-12-3.6-13.5,5.6c-3.6,5.4-6.2,13.4-14.8,10c-8.3-3.3-7.3-11.2-5.7-18.2c1.2-5.8,3.2-11.4-1.7-16.4
			c-2.1-3.2-4-6.5-3-10.6c2.3-6.6,7.1-8.3,13.5-6.4c5.9,1.8,8.1-1.1,8.1-6.5c0-6.8,3-13.6,0.3-20.5c0.4-3.6-2.5-5.1-4.4-7.3
			c-2-2.2-2.2-4.8-0.6-7.3c1.7-2.5,4.3-3.6,6.9-2.1c10.2,5.9,24.3,5,30.3,18.6c1.9,4.2,8.8,5.2,11.5,10.1c1.7,11.8,7.4,20.2,20,22.3
			c1,0.2,2.1,0.5,2.7,1.2c6.1,6.7,11.9,11.4,22.6,11c6.4-0.2,8.9,10,8.7,16.8c-0.1,6-0.1,11.8,1,17.7c0.1,2.8,0.1,5.6,0,8.4
			c-1.6,9.9-4.6,19.2-9.9,27.9c-3.7,6-6.2,12.5-4.8,19.8c-0.1,4-2.6,6.6-5,9.4c-6.3,7.6-6,10.1,1.5,16.4
			C275.4,257.6,286,271.3,299.6,281.8z"/>
		<path class="st1" d="M48,299.7c-14,0-28-0.3-41.9,0.1c-5,0.1-6.1-1.1-6.1-6.1C0.2,234.5,0.1,175.2,0.1,116
			c2.8-3.2,5.3-7.1,10.5-5.2c4.9,1.8,5,6.7,4.4,10.2c-1.4,8.5,5.6,15.3,4,23.6c-0.9,9.4,3.1,18.1,3.9,27.3
			c1,11.7,7.6,21.5,11.4,32.3c3.6,10.9,10,19.8,18.9,26.8c5.7,4.4,10.4,9.9,16.5,13.8c4.2,4.3,9.2,7.7,14.3,10.7
			c6.2,3.6,8.2,8.2,6.1,14.8c-4.9,6.4-12.3,8.5-19.5,10.4c-6.5,1.7-11.6,4.8-13.5,11.3C55.8,297,52,298.2,48,299.7z"/>
		<path class="st2" d="M165.8,0.1c42.6,0,85.2,0.1,127.8-0.1c5,0,6.2,1.1,6.1,6.1c-0.3,28-0.1,55.9-0.1,83.9
			c-4.3,4.5-7.9,2.9-11.8-1c-7.5-7.5-11.1-17.2-14.9-26.3c1.8,6.7,4.6,13.2,8.7,19.2c6.4,9.4,6,20.7,7.6,31.3c0.5,3.6-1,8-5.3,9.8
			c-1,0.1-2,0-2.9-0.4c-5-7.3-5.4-16.1-8.3-24.1c-2.4-6.6-6.2-12.4-9.3-18.5c-8.7-18.6-22.9-32.1-39.7-43.2
			c-11.5-7.5-23.3-14.2-36.9-17.2c-1.9-0.5-3.9-0.6-5.6-1.7c-2.2-4.3-4.2-8.1-9.8-9.2C167.9,8,163.5,5.6,165.8,0.1z"/>
		<path class="st3" d="M283.6,122c-0.1-15.9-0.7-31.3-10.8-45.1c-4.7-6.4-3.8-15.9-9.5-22.5c-1.3-1.5-1-4,1.2-5.1
			c2.5-1.3,5.2-0.3,6,1.9c2.8,7.5,9.7,12.1,12,20.2c2.4,8.5,7.3,16.2,17.2,18.6c0,63.9,0,127.8,0,191.7c-12.5-1-19.8-10.1-27-18.5
			c-5.2-6.1-10.8-11.6-17.6-15.6c-7.9-4.7-7.4-9.7-2.2-16.1c3.1-3.8,7.6-6.6,8.8-11.7c-1.2-4.5,2.1-7.5,4-10.8
			c6.8-11.9,11.6-24.4,13.9-37.9c0.6-13.3,1.3-26.6,1.1-39.9C280.6,127.8,280.8,124.5,283.6,122z"/>
		<path class="st4" d="M165.8,0.1c3.2,3,7.3,4.5,11.3,6.2c4,1.7,7.1,4.1,4.8,9.2c-5,3.1-10.3,2-15.1,0.2c-9.4-3.4-18.7-2.7-28.2-0.8
			c-9.4,0.5-18.7,1.7-27.3,5.7c-12.8,3.3-24.6,8.8-35.5,16.2c-2.8,1.5-5,3.6-7.5,5.6c-0.8,0.4-1.7,0.7-2.6,0.8
			c-16,5.9-25.8,17-28.5,34c-4.3,9-8,18.1-10.4,27.8c-3.5,4.1-1.3,11.9-8.6,13.6c-9.5-9.3-3.8-19.2-1.4-29c-9.3,4.2-13,2.1-13.4-7.9
			C3,73.9,2.2,65.9,2.5,58.1C3,45.3,9.4,35,19.7,27.2C27,21.5,34.1,15.5,41,9.4c3.4-3,6.8-5.3,11.5-5.4C56,3.8,59.4,2.8,62,0.1
			C96.6,0.1,131.2,0.1,165.8,0.1z"/>
		<path class="st5" d="M195.8,223.9c17.8,10,35.8,19.6,52.2,32c9.4,7.1,18.8,14.2,26.5,23.1c6.7,7.8,16.4,9.4,25.2,12.7
			c1.5,6.8-1.1,8.6-8,8.2c-11.9-0.7-23.9-0.2-35.9-0.2c-3.3-5.2-8.3-4.1-13.3-4c-6.8,0.2-11-2.8-11.8-10.3
			c-1.6-15.5-5.1-16.9-18.3-8c-2.3,2.9-5,5.2-8.4,6.7c-3.4,1.5-6.4,5.5-10.7,2.4c-3.9-2.9-2.3-7.2-2.3-11c0-2.3,0.7-4.5,1.4-6.7
			c6.8-7.1,6.8-7.5,2.8-12.9c-7.2,1-9.4,8.7-15.2,11.5c-2.7,2.1-4.9,5.4-9.1,4c-5.2-3.1-5.7-7.5-2.1-11.6
			c9.4-10.7,17.7-22.2,24.4-34.7C193.6,224.4,194.8,224.1,195.8,223.9z"/>
		<path class="st6" d="M62,0.1c-0.9,3.5-3.5,5.2-6.5,7C36.1,18.6,17.1,30.7,7.4,52.3c-4.6,10.3-1.9,21.6,0,31.9
			c1.4,7.4,8.1,0.5,13.7,0.3c1,11.4-6.1,22.3-3,33.7c4.3,3.8,2.6,8.8,2.6,13.5c-2.6,4.4,0.3,10.7-4.8,14.3c-2.9-6.8-3.7-14-3.9-21.3
			c-0.2-11.7-0.5-11.9-12-8.7C0.1,79.4,0.2,42.8,0,6.1c0-5,1.1-6.2,6.1-6.1C24.8,0.3,43.4,0.1,62,0.1z"/>
		<path class="st7" d="M211.5,273.3c1-0.9,1.9-1.8,2.9-2.7c7.4-6.9,16.4-6.8,22.9,0.3c2.9,3.1,0.3,5.5-1.2,7.9
			c-2.2,3.4-2.6,6.8,0.4,10c2.6,2.8,5.7,2.9,9.1,1.8c12.1-3.7,12.1-3.6,10.2,9.2c-12,0-24,0-35.9,0c-0.2-7.9-5.3-0.2-7.4-2.3
			c-3.6-0.6-6.9-1.7-7.6-6c-1.8-6.8,6.1-9.5,6.4-15.3C211.3,275.2,211.4,274.3,211.5,273.3z"/>
		<path class="st8" d="M48,299.7c1.2-1.9,4-2.8,3.8-5.5c-0.9-11,6.9-13.7,15.1-16c7.3-2,14.6-4.1,20.9-8.5c0.7-0.7,1.5-1,2.5-0.9
			c4.7,3.5,1.7,5.7-1.3,7.9c-2.8,2-6.8,2.2-8.4,5.7c2.1,3.7,7.3,1.2,9.3,4.9c0.4,0.9,0.7,1.9,0.7,2.9c-0.3,3.8-1.6,7.2-4.7,9.6
			C73.3,299.7,60.7,299.7,48,299.7z"/>
		<path class="st9" d="M197.8,269.7c-0.9,1.8-1.9,3.5-2.7,5.3c-1.2,2.8-2.5,6.3,0.3,8.3c2.9,2.1,4.6-1.4,6.3-3.2
			c2.8-2.9,6-5.2,9.7-6.8c0,0,0.4,0.7,0.4,0.7c-3.5,11.1-10.8,19.2-20.1,25.7c-4.7,0-9.3,0-14,0c-3.3-3.6-1.2-6.5,0.8-9.9
			c1.8-3,4.4-6.1,3.1-10.2c0.2-3.1-0.8-5.9-2.8-8.3c-0.9-2.5-0.3-5.2-1.1-7.6c5.3-4.7,10.7-9.3,16-14
			C201.3,255.2,196.4,263.1,197.8,269.7z"/>
		<path class="st10" d="M141.9,299.7c-8,0-16,0-24,0c-1.1-1.1-1.5-2.4-1.1-3.9c1.3-2.7,3.5-3.2,6.3-2.8c3.8,0.5,6.6-1.3,8.2-4.8
			c0.3-2.5,1.3-4.8,1.3-7.3c0.4-7.4-4.7-10.2-10.4-12.5c-2.2-1.2-4.2-2.6-5.9-4.4c-2.2-4.9-9.1-8.3-4.7-15.2c1.4-1,2.9-1.3,4.6-0.9
			c6.2,6,13.5,10.4,21,14.5c2.9,1.6,6.2,3.6,6,6.8c-0.4,8.1,5.1,12.7,9.1,18.3C152.9,295.1,147.4,297.4,141.9,299.7z"/>
		<path class="st11" d="M191.8,299.7c4.8-10.1,12.6-17.7,20.1-25.7c6.9,7.5-3.9,10-4.3,15.4c-0.2,5.2-3,8.5-7.8,10.3
			C197.1,299.7,194.4,299.7,191.8,299.7z"/>
		<path class="st12" d="M187.4,279.5c-3.2,6.8-6.4,13.5-9.6,20.3c-3.3,0-6.7,0-10,0c0.1-8.5,6.2-13.9,10.5-20.2c2.3-1.6,4.2-4,7.4-4
			C188.8,275.6,189.8,276.8,187.4,279.5z"/>
		<path class="st13" d="M141.9,299.7c3.2-3.6,6.1-7.4,7.9-11.9c-0.9-2.5,0.6-3.8,2.5-4.9c3.4-0.6,6.4-4,10.2-1.6
			c4.6,6.1-1.3,9.4-3.7,13.6c-2.4,2.7-6.4,2.5-9,4.8C147.2,299.7,144.5,299.7,141.9,299.7z"/>
		<path class="st14" d="M180,282.1c-4.1,5.9-8.1,11.8-12.2,17.6c-2,0-4,0-6,0c-0.7-0.8-1-1.6-1.1-2.7c3-8.1,7.2-15.3,14.4-20.3
			c1-0.2,1.9-0.2,2.9,0.2C179.9,278.2,179.9,280.1,180,282.1z"/>
		<path class="st15" d="M213.7,295.7c4.2-4,8.4-8,13.4-12.7c0.8,7.8-4.5,11.8-7.4,16.8c-2.7,0-5.3,0-8,0
			C210.5,297.5,212.1,296.6,213.7,295.7z"/>
		<path class="st16" d="M86,299.7c0.1-3.5,0.5-6.9,2.1-10c5-1.2,10.2-2.7,11.6,4.8c-0.2,2.5-2.2,3.7-3.8,5.2
			C92.6,299.7,89.3,299.7,86,299.7z"/>
		<path class="st17" d="M213.7,295.7c-0.7,1.4-1.3,2.7-2,4.1c-4,0-8,0-12,0c2.6-3.4,5.2-6.8,7.8-10.3
			C208.6,292.6,210.9,294.4,213.7,295.7z"/>
		<path class="st18" d="M96,299.7c0.6-1.5,1.3-2.9,1.9-4.4c6.9-1.3,14.1-7.8,20.5,1c-0.2,1.1-0.3,2.3-0.5,3.4
			C110.6,299.7,103.3,299.7,96,299.7z"/>
		<path class="st19" d="M162.4,297.9c-0.1,0.6-0.3,1.2-0.5,1.8c-4,0-8,0-12,0c1.8-2.1,3.5-4.2,5.3-6.3
			C161.1,289.4,163.1,291.4,162.4,297.9z"/>
		<path class="st20" d="M162.3,281.9c-2.8,1.2-5.6,2.5-8.4,3.7c-6.1-3.5-9.9-7.6-10.6-15.7c-0.7-7.7-9.7-9.5-15.6-12.9
			c-7.5-4.4-12.3-9.7-10.4-19c2.4-5.9,6.4-5.8,11.2-2.9c9.4,5.6,8.7,5,15.2-3.2c5.8-7.2,10.9-14.8,16.2-22.3
			c4.8-6.8,5.3-12.2,2.5-19.5c-3.6,0.9-5.3,3.8-6.2,6.9c-1.8,6.2-5.9,9.5-12.1,10.1c-6.5,0.6-7.6-5.3-10.4-9.1
			c-0.8-9.2,2.3-18.6-2.2-27.8c-2.8-5.9,2.9-10.1,5.8-14.7c1.8-2.5,4.1-4.2,7.2-4.7c7.5-2.4,13.9-5,13.4-15.3
			c-0.3-5.3,5.2-8.7,9.8-11.4c3.7,3.6,4.3,8,2.9,12.8c-0.5,1.6-0.8,3.2-1.2,4.8c-1.4,5.9-3.5,13.5,2.6,16.1c7,3,5.5-7.2,9.6-9.9
			c5.2-2.1,11-2,16.2-4c0.6,0,1.3,0,1.9,0c5.3,0.4,6.2,4.2,6.5,8.4c0.5,7.4-0.9,14.4-4.4,21.1c-6.2,11.7-13.6,23.2-6.3,37.2
			c0.9,1.8,0,3.9-1.8,5.2c0.7,2.7,1.3,5.4,2,8c0.1,15.2-11.7,23.8-19.4,34.6c-2.5,3.6-8,5.7-4.1,11.5c0.9,6.1-2.5,9.7-7.3,12.5
			C164,282.7,163.1,282.5,162.3,281.9z"/>
		<path class="st21" d="M193.8,215.9c-13.9-14.9-5-29,2.1-42.6c5.1-9.6,7.3-19,3.8-29.4c-4.5-10.6,7.6-10.6,10.8-16.5
			c1.9-3.6,7.5-5.5,12.2-1.7c2.4,2,4.1,4.4,4.4,7.5c0.3,2.6,0.8,5.6-0.1,7.9c-8.5,20.8-5.4,42.9-7.5,64.4
			C218.3,219.1,209,222.8,193.8,215.9z"/>
		<path class="st22" d="M221.7,98c-11-9.3-18.2-23.6-34.4-26.3c-2.5-0.4-5.1-3.5-7.2-1.1c-2.7,3,1.1,4.5,2.8,6.1
			c2,2,2.7,4.5,2.9,7.1c-0.5,0.8-1.1,1.5-2,2c-3.9,1.6-7.3-1.5-11.1-1.3c-4.4-2.3-7.6-5.7-9.9-10c-1.2-1.7-2.4-3.3-2.5-5.4
			c-0.4-4.1,0.5-7.5,5.5-7.6c3.9,0,6.7-2.7,10.1-3.9c3.8-0.7,6.7,2.3,10.3,2.3c8.5,2.3,15,8.2,22.5,12.3c4.7,2.7,9.9,7.6,15.3,2.8
			c5.2-4.7,4.8-11,2-17.5c-3.9-9-1.9-12.4,7.8-14.3c12.9,9.9,23.6,21.7,31.4,36.1c1.6,5,6.8,8.8,5.3,15c-1.7,1.8-4,2.4-6.3,2.1
			c-6.7-0.8-11.9,1.6-17.3,5.4C236.4,109.4,228.1,107.7,221.7,98z"/>
		<path class="st23" d="M221.7,98c8.1,5.9,17.4,5.6,23.3-1.2c8.1-9.3,15.6-6.9,24.2-2.7c3.8,1.1,5.1,4.5,5.8,7.5
			c2.2,9.9,6.7,19.4,6.6,29.8c0,8.2,0.1,16.4-0.1,24.7c-0.1,3,1.1,6.9-3.6,7.8c-3.1-4.5-2.5-9.6-2-14.5c0.6-6.1-0.8-11.6-5.8-15.1
			c-4.9-3.4-6.5,2.3-9.5,4.4c-4.1,2.9-6.6-0.7-7.6-3.5c-2.9-8.3-7.6-11.6-16.7-14C227.2,118.9,223.5,107.9,221.7,98z"/>
		<path class="st24" d="M167.7,124.1c-5.5,11.3-5.1,26.8-21.8,29.9c-0.7-0.6-1.1-1.4-1.3-2.4c2.5-6.6,7.4-13.3,0.2-20
			c-4-6-5.3-16.4-16.7-10.6c-5.2,2.1,0.4,7.6-3.3,10.2c-3.3,2.9-6.8,1.1-10.3,0.4c-5-1-9.4-0.6-10.2,5.9c-0.4,3.4-1.8,6-5.6,5
			c-4-1-6.6-4.1-5.5-8.1c1.1-3.9,0.8-7.8,1.2-11.7c0.4-0.9,0.8-1.8,1.3-2.7c4.8-10.9,13.4-14.2,24.8-13.3c6.7,0.5,14,1.6,20-3.5
			c5-5.3,8.1-11.8,12.5-17.5c6.2-8.2,7.6-8.6,16.6-2.9c2.6,10.1-3.6,18.7-4.9,28.2c-0.2,1.5-1.4,3-1.1,4.7
			C164,119.2,165.1,122,167.7,124.1z"/>
		<path class="st25" d="M163.7,115.9c-5.4-11.5,0.6-21.6,4.1-31.9c-2.7-4.5-5.8-9.1-0.3-13.8c4,2.9,3.7,8.2,6.3,11.9
			c3.2,1.4,5.7,6,9.9,1.9c0.7,0,1.4,0,2,0c0.7,10.7,4.5,21.4-1.5,32c-3,5.4-5.8,5.6-9.9,1.7C171.3,114.6,167.8,113.4,163.7,115.9z"
			/>
		<path class="st26" d="M281.5,173.9c-3.7,16.6-10.3,31.9-19.9,46c-5.5-1.4-1.5-4.5-0.7-6.2c6.5-12.8,12.9-25.7,16.7-39.7
			C278.9,173.3,280.2,172.9,281.5,173.9z"/>
		<path class="st27" d="M281.5,173.9c-1.3,0-2.6,0-3.8,0.1c0.1-3.3,0.2-6.7,0.3-10c3.8-11.2,0.8-22.8,1.8-34.1
			c2.2-2.3-0.6-6,2.2-8.2c0.6,0.1,1.1,0.2,1.7,0.4C283.9,139.4,284.5,156.7,281.5,173.9z"/>
		<path class="st28" d="M197.9,143.9c-4.4,5.6-10,6-16.2,4C185.9,141.8,191.7,142.2,197.9,143.9z"/>
		<path class="st29" d="M90,269.6c-0.7,0-1.4,0.1-2.1,0.1c0.3-4.5-2.3-6.9-5.7-9.5c-5.4-4.2-12.4-6.2-16.3-12.3
			c-4.5-7.8-12.5-12.4-17.6-19.8c-5.6-8-11.2-15.9-15.8-24.5c-0.5-1.4-0.9-2.8-0.9-4.2c3.4-8.6,8.5-6.3,13.6-1.9
			c7,6,14.3,11.2,23.6,12.9c3.4,0.6,7.9-5.5,10.1,1.8c1-1,1.6-2.5,3-3.1c3-0.7,4.5-2.8,5.2-5.7c0.6-1.5,1.5-2.5,3-3.1
			c4.7-1.2,6.5,2.6,9,5.1c1.8,3.3,2.6,6.8,1.5,10.5c-0.6,6.7-8.9,7.3-10.4,13.3c-3,5.1-0.7,8.1,4.2,9.4c3.8,1,7.5,2.1,10.3,5
			c0.7,0.7,1.3,1.5,1.7,2.5c0.2,1,0.3,2,0.3,3C106.3,259.6,100.6,266.5,90,269.6z"/>
		<path class="st30" d="M34.3,203.8c10.8,13.7,18.4,29.8,31.8,41.4c0.4,0.4-0.1,1.8-0.2,2.8c-13.8-11.9-27.1-24.2-34.1-41.7
			C32.1,204.9,32.9,204,34.3,203.8z"/>
		<path class="st31" d="M16,146c1.1-4.6-0.6-9.6,1.9-14.1c1.8-1.3,3.6-1.1,5.3,0.1c3.5,3.3,3.8,7.7,3.4,12
			c-0.6,7.3-0.1,14.4,0.6,21.6c-1.2,3.7-2,7.8-7,8.2C17,164.8,17.3,155.3,16,146z"/>
		<path class="st32" d="M20.2,173.8c0.7-2.7,1.4-5.4,2.1-8c1-0.6,2-0.6,3.1-0.2c7.1,10.4,10,21.9,8.6,34.4c0.1,1.3,0.3,2.5,0.4,3.8
			c-0.8,0.8-1.7,1.7-2.5,2.5C26.5,196,21.9,185.4,20.2,173.8z"/>
		<path class="st33" d="M263.6,80.2c-8.4-12.7-17.6-24.7-29.9-34c-3.3-2.7-10-1.1-10.3-7.9c0.2-1.7,0.9-3,2.2-4
			c17.1,11.1,30.8,25.3,40.2,43.5C266.5,80,265.5,80.6,263.6,80.2z"/>
		<path class="st34" d="M137.5,11.8c15.3-4.2,29.8,1,44.4,3.8c2,0.3,3.9,0.6,5.9,0.9c4,2.3,2.4,4.4-0.2,6.5
			c-6.7,3.3-13.5-0.1-20.2,0c-6.8-2-14-1.7-20.8-3.8C144,16.1,139.3,15.7,137.5,11.8z"/>
		<path class="st35" d="M263.6,80.2c0.8-0.8,1.5-1.5,2.3-2.3c8.8,13.3,13.9,28,16,43.8c-0.7,2.7-1.4,5.4-2.2,8.2
			c-2.2-12.3-4.9-24.4-10.4-35.7C267.4,89.5,265.5,84.8,263.6,80.2z"/>
		<path class="st36" d="M187.7,20.2c0-1.3,0.1-2.5,0.1-3.8c14,2.9,26.2,9.9,37.9,17.8c0,1.4,0,2.7,0.1,4.1c-1.9,2.5-4.5,2.8-7.1,1.5
			c-9.2-4.7-18.6-8.7-27.9-13.2C188.2,25.5,186.6,23.4,187.7,20.2z"/>
		<path class="st37" d="M73.9,34c11.4-6.2,22.3-13.7,35.5-16.2c2.7-0.8,5.3-1.6,7.4,1.2c1.2,4.4-1.4,6.5-5.1,7.8
			c-4.2,1.5-8.5,2.7-12.7,4.2c-15,7.8-27.8,18.9-41.1,29.2c-3.1,1.6-3.9,6.2-8.2,6c-2.2-0.2-3.9-1.3-5-3.3
			c1.7-12.6,11.9-17.4,21.2-23l0.1,0C66.5,35.1,71.1,35.8,73.9,34z"/>
		<path class="st38" d="M45.5,61.9c1.6,0.7,3.2,1.5,4.8,2.2c1.2,1.7,0.9,3.4,0,5.1c-1.9,2-3.4,4.2-4.3,6.7
			c-4.2,8.7-7.6,17.7-13.1,25.7c-0.9,1.8-1.7,3.8-3.7,4.7c-2.5,0.5-5.5,2-5.4-2.7c1-10,7-18,10.5-27C37,71,37,63.2,45.5,61.9z"/>
		<path class="st39" d="M45.5,61.9c-3.7,4.9-7.5,9.8-11.2,14.8c-0.3-11.8,6.6-20,14.8-26.8c4.9-4,7.5-12.9,16.7-9.9
			C59.3,47.5,50.9,53.3,45.5,61.9z"/>
		<path class="st40" d="M116,20.4c-2.2-0.9-4.5-1.7-6.7-2.6c8.9-4.3,18.4-5.5,28.1-6.1c4.1,0.4,8.2,0.8,13.3,1.3
			c-2.3,1.3-3.6,2-5,2.8c-2,6-7.8,5.2-12.1,6c-3.7,0.7-7.7,0.5-11.5,1.3C119.6,23.3,117.5,22.5,116,20.4z"/>
		<path class="st41" d="M23.7,103.6c1.3,0.1,2.7,0.2,4,0.3c4.4,2.2,3.4,5.9,2.6,9.4c-1.4,5.8-3.4,11.4-6,16.7
			c-0.6,0.9-1.5,1.5-2.5,1.8c-1.3,0-2.6,0.1-3.9,0.1c0.1-4.6,0.2-9.2,0.2-13.8C22,114.1,20.2,107.8,23.7,103.6z"/>
		<path class="st39" d="M73.9,34c-2.2,2.7-4.8,4.6-8,5.9C64,31.8,69.4,33.5,73.9,34z"/>
		<path class="st20" d="M197.8,269.7c-5.5-5.8-3.6-13.1-4-20c4.8-1.5,11.5-1.4,13.6,1.2c3.4,4.2-4.1,6.9-5.4,11.1
			C201.1,264.8,199.2,267.2,197.8,269.7z"/>
		<path class="st42" d="M163.5,281.4c1.5-4.9,6.2-7.3,8.8-11.4c1.9-2.1,3.7-4.2,5.6-6.2c3.6,0.4,8.8-0.7,6.1,6.1
			c-2.2,2.5-0.3,8.1-6.1,7.8c-0.6,0.1-1.3,0.1-1.9,0.2C171.7,278.6,169.2,285.6,163.5,281.4z"/>
		<path class="st43" d="M118.4,296.3c-6.8-1-13.8,2.7-20.5-1c-1.8-4.3-6.6-3.6-9.7-5.6c-0.1-0.5-0.1-1.1-0.2-1.6
			c6.4-4.8,13.9-2.5,20.8-3.3c10.7-0.2,21.4-0.1,30.6,6.6C132,291.4,126.4,299.1,118.4,296.3z"/>
		<path class="st44" d="M90,269.6c6.6-5.9,12.2-12.6,13.9-21.7c7.4,7.4,4.1,15.2,0.6,22.9c-6.6,7.8-15.1,12.5-24.6,15.6
			c-3.2-1.2-6.7-1.1-9.7-2.9c1.6-5.1,6.7-4.3,10.2-6.1C84.1,275.5,89.7,275.7,90,269.6z"/>
		<path class="st16" d="M70.2,283.6c3.3,0.6,6.5,1.3,9.8,1.9c7.3-2.1,14.5-6.3,22.4-1.8c2.1,1.1,4.5,1.8,5.4,4.4
			c-6.6,3.6-13.3,0.9-19.9,0.1c-6.2,0-12.2-1.3-18.1-3c-0.1,0-0.2-0.5-0.2-0.8C69.8,284,70,283.8,70.2,283.6z"/>
		<path class="st45" d="M177.9,277.6c2-2.6,4.1-5.2,6.1-7.8c-0.2,3.7,7.9,4.4,3.5,9.6c-4-3.4-4.9,1.8-7.4,2.6
			C179.3,280.6,178.6,279.1,177.9,277.6z"/>
		<path class="st46" d="M119.9,238c-0.8,7.4,3,11.3,9.3,14.7c8.9,4.9,18.6,9.6,19.3,22c0.2,4.2,7.3,5.4,5.4,10.9
			c-1.3,0.7-2.7,1.5-4,2.2c-6.2-3.1-10.7-7.1-10.2-15.1c0.3-5.2-4.3-7-8.2-8.7c-6.8-3-12.7-6.9-15.4-14.3c-2.6-3.7-9.9-4.7-6.6-11.7
			C112.9,234.5,116.3,233.9,119.9,238z"/>
		<path class="st47" d="M102.2,287.4c-7.4-0.6-14.8-1.3-22.1-1.9c6.6-5.1,13.2-10.3,19.8-15.4c3.9,0.7,5-2.4,6.4-4.9
			c3.4-6,7.7-7.8,13.5-3.1c1.4,1.3,2.7,2.6,4.1,3.8c1.7,1,3.2,2.1,3.4,4.2c-0.1,1-0.4,1.8-1,2.6c-0.7,0.6-1.5,1.3-2.5,1.4
			c-5.8,0.4-9.8,1.8-5.4,8.7c0.9,1.4,0.7,3.1-1.4,3.9C112.1,287.2,107.1,286,102.2,287.4z"/>
		<path class="st48" d="M119.8,262c-4.7-0.6-7.9,2.5-11.4,4.8c-2.6,1.7-4.7,4.9-8.6,3.2c6.9-6.4,3.2-14.7,4-22.1
			c0,0-0.1-0.3-0.1-0.3c3.5-2.1,6.1-1.4,7.9,2.3C114.4,254,117.1,258,119.8,262z"/>
		<path class="st49" d="M125.9,271.8c0.1-0.7,0.1-1.4,0.2-2.1c8.8-0.5,11.5,4.1,9.9,12.2c-1,4.1,0.4,6.1,4.9,6.3
			c2,0.1,1.9,0.8-1.5,3.3c-10.3-2.6-20.9-3.3-31.5-3.4c-1.9-0.2-3.8-0.4-5.7-0.6c5-2.7,10.5-1.2,15.8-2
			C121.8,281.5,122.8,276.1,125.9,271.8z"/>
		<path class="st50" d="M111.7,249.9c-2.6-0.8-5.3-1.5-7.9-2.3c-0.1-0.6-0.1-1.3-0.1-2c-1.2-2.8-0.5-5,2-6.8c1.6-0.5,3.1-0.3,4.3,1
			c3.1,2.6,6.1,5.3,6,9.9C114.5,249.8,113.1,249.9,111.7,249.9z"/>
		<path class="st48" d="M136,281.8c-0.6-6.2-4-10.2-9.9-12.1c-0.8-1.3-1.5-2.5-2.3-3.8C137.5,269.8,138.7,271.3,136,281.8z"/>
		<path class="st51" d="M163.5,281.4c4-1.6,7-6.8,12.4-3.6c-3.9,7.1-7.7,14.3-13.6,20.1c-1.1-3.6-3.3-5.3-7.2-4.5
			c2.4-3.8,4.7-7.7,7.1-11.5C162.7,281.8,163.1,281.6,163.5,281.4z"/>
		<path class="st52" d="M109.9,239.9c-1.3,0.1-2.6,0.1-3.9,0.2c-3.9-3.2-3.1-8.1-1.2-10.9c3.7-5.4,1.6-10.1,0.3-15.1
			c-0.1-0.9-0.1-1.8-0.1-2.8c0.2-2,1.1-3.7,1.6-5.6c0.7-2.7,1.8-5,4.9-5.3c3.2-0.3,4.4,1.9,5.7,4.4c1.4,2.8,2.1,7,6.2,6.5
			c3.6-0.4,2.9-4.6,4.1-7.1c1.4-3,3.3-5.6,6.9-6.4c0.5,0,0.9,0,1.4,0c9.2,7.3,11.1,6.7,13-3.8c0.4-2.3,1.7-3.4,3.6-4.3
			c6.3-3.1,9.5-9.8,16.9-15.2c-0.6,10.3-2.4,19.2,2.7,27c0.3,0.5-0.2,2.2-0.8,2.7c-9,7.1-11.1,19.5-20.1,26.6
			c-3.9,3.1-5.8,6-2.6,10.8c3.2,4.9,0.3,6.6-4.4,6.5c-5.8-0.2-10.9-2.1-15.3-6.2c-2.4-2.3-4.5-6.3-9.1-4
			C116.4,237.8,113,238.2,109.9,239.9z"/>
		<path class="st53" d="M139.8,157.9c-4,5.1-7.7,9.7-0.8,15.8c4.5,4,1,9.1-0.3,13.7c-1,3.4-1.8,6.9-2.7,10.4c0,0,0,0,0,0
			c-5.3,0.8-7.9,4.4-9.2,9.1c-1.1,4-2.8,7.5-7.2,7.1c-4.3-0.4-2-4.8-3-7.3c-2.8-7.1-6.1-14-7.9-21.5c0.5-2.2,1.8-3.6,4-4.1
			c8.4-0.2,8.5-8.4,11.8-13.2c2.4-3.4,4-7.4,7.1-10.3C134.3,155,137.1,154.7,139.8,157.9z"/>
		<path class="st54" d="M139.8,157.9c-7.4,1-9.3,7.1-12.7,12.5c-3.3,5.1-1.6,16.4-13.2,13.6c-2-1.9-5.6-2.4-5.4-6.3
			c4-5.7,9.4-10.6,11.8-17.4c3.3-2,5.5-5.3,8.9-7.1c4.3-1.8,8.7-3.1,13.2-3.8c1.6,0.3,2.9,1.1,3.7,2.6c-0.1,0.6-0.1,1.3-0.1,1.9
			C143.4,154.6,141.3,155.8,139.8,157.9z"/>
		<path class="st55" d="M187.7,20.2c12.9,5.5,26,10.7,38.1,18.1c2.6,2.6,5.3,5.2,7.9,7.8c-4.8,1.5-6.8,4.4-3.3,8.8
			c6.1,7.6,2.9,15.4,0,22.5c-3,7.2-9.4,7.9-15.8,4.2c-9.7-5.7-19.2-11.7-28.7-17.6c-3.4-4-6.8-7.8-7.2-13.5c-0.3-4.5-3.4-8-7.2-10
			c-5.6-3-9.2-8.4-14.4-11.9c-3.1-2.1-4.5-4.8-3.2-8.4c1.3-3.7,4.6-3.2,7.5-3.1c2.2,0.1,4.6-0.7,6.6,1
			C174.5,18.8,181.1,19.5,187.7,20.2z"/>
		<path class="st56" d="M167.9,18.1c-1.6,0-3.3,0-4.9,0.2c-2.2,0.2-5,0-5.5,2.9c-0.4,2.2,1.6,3.5,3.1,4.6c4.7,3.5,9.4,7.2,14.2,10.5
			c6.2,4.2,11.6,8.3,9.5,17.3c-0.7,3.2,0.9,7,1.5,10.5c-3.3-0.7-6.6-1.4-9.9-2.1c-4.5,0-9.2-0.3-13.4,0.9c-6.5,1.9-9.8-0.6-11.8-6.3
			c0.2-3,3.2-4.4,4.2-7c-0.4-11.5-8.4-18.3-24.3-20.5c-5.5-0.8-11.2-1.2-8.9-9.3c7.7-3,15.9-3.1,24-4
			C153,17.2,160.8,14.4,167.9,18.1z"/>
		<path class="st57" d="M151.7,56.5c3.9,3.8,8.4,4.2,13.7,3.1c3.3-0.7,7.3,0.3,10.5,2.4c-3,4.1-10.1,0.1-12.1,6.2
			c-1.4,2.2-4,3.5-5.8,2.5c-11-6-21.6-0.4-32.4,0.2c-5.8,0.4-11.6,0.3-16.7-2.9c-3-2.3-4.1-5.3-3.5-9c2.3-5.5,6.3-7.3,12.2-6.3
			c4.2,0.7,8.6,1.2,12.9,0.6c6.1-1,12,2.7,18.1,0.5C150.1,54.1,151.2,54.9,151.7,56.5z"/>
		<path class="st58" d="M125.9,68c12.7-3.4,25.3-5.4,37.9,0.2c1.2,0.7,2.5,1.4,3.7,2.1c0.5,4.6,3.2,9.1,0.3,13.8
			c-10.8-0.4-18.6,8.1-22,24.1c-5.8-0.5-4.4-5.1-4.8-8.6c-0.5-3.9,1.6-6.6,4-9.5c7.3-9,5.1-14.5-5.7-17.6
			C134.8,71.2,129,73.2,125.9,68z"/>
		<path class="st59" d="M183.8,84c0.7,4.1,1.2,9.2-4.4,9c-6.7-0.3-5-6.5-5.5-10.9C178.2,77.3,180.6,82.5,183.8,84z"/>
		<path class="st60" d="M146.1,152c-1.4,0-2.8-0.1-4.2-0.1c-2.6-3.5,4.5-9.4-2.9-11.7c-6.3,0.6-12.5,1.7-18.6-1.4
			c-7.9-4-8.9-3.2-10.2,6.1c-1.1,7.5-2,15.1-9,20c-6.4-2.6-12.8-2.4-19.3,0c-1.3,0.7-2.7,0.9-4.2,0.5c-3.4-2.1-5-5.7-7.9-8.3
			c-1.3-3.1-3.4-6.2-1-9.7c5.3-1.3,8.9-4.1,10.9-9.6c1.8-5,6.9-7.7,10.2-11.7c2.3-1.7,4.3-4.1,7.7-2.6c0.8,5.1-2,10.6,1.7,15.9
			c3.5-3.6-2.2-12.1,7.1-12.4c5.8-0.2,11.1,1.4,16.7,2.1c2.9-0.4,1.2-4.6,4.1-5c4.3-1.3,7.9,3.5,12.3,1.2c3.8-0.6,6.4,1.4,8.4,4.3
			C156.3,139.4,155.9,143.3,146.1,152z"/>
		<path class="st61" d="M143.9,98c-0.3,3.5-0.6,7.1,1.9,10.2c-1.2,3.3-3.6,3.1-6.5,2.8c-4.6-0.5-9.3-0.2-13.9-0.9
			c-11.8-2-20.7,2.1-27.1,12c-3.2-0.8-6,3-9.3,0.9c-2.9-2.8-3.9-6.6-5-10.3c-1.1-3-2.7-6,0.7-8.5c16-2.1,32.1-2.7,48.1-2.9
			C136.2,98.6,139.4,96,143.9,98z"/>
		<path class="st62" d="M147.9,129.8c-2.7-1.1-5.5-1.1-8.3,0c-4.5-2.9-9.3-5.3-11.8-10.4c0-0.5,0-0.9,0-1.4
			C141,113.9,141.4,114.1,147.9,129.8z"/>
		<path class="st62" d="M127.6,126.2c-1.5,1-3,2-4.5,3c-0.4-1.2-1.1-2.4-1.3-3.6c-0.6-3.1-7.8-1.2-5-6.2c2.7-4.7,7.1-3,11.1-1.4
			c0,0,0-0.1,0-0.1C129.8,120.8,132.6,123.6,127.6,126.2z"/>
		<path class="st63" d="M90,121.6c2.8-0.5,6-9.3,8.4,0.4c-0.3,0.5-0.5,1-0.7,1.6c-1.7,1.6-3.5,3.1-5.2,4.7c-2.2,0.8-4.2,0.4-5.9-1.3
			C84.6,123.2,84.5,120.6,90,121.6z"/>
		<path class="st64" d="M33.9,200c-5.3-10.8-8.5-22.1-9.9-34c-1.3-4.2-2.3-8.8,2.7-11c4.6-2,7.3,2,9.4,5.3
			c5.9,9.3,15.7,13.8,24,20.2c3.6,2.8,7.7,5.1,9.2,9.9c6.2,8.3,5.8,16.8,0.6,25.4c-10-2.3-19.2-6-26.6-13.7
			C40.9,199.8,38.4,194.8,33.9,200z"/>
		<path class="st65" d="M80.4,161.5c4.8-3.2,11.1-3.8,14.8-9.3c1.4-2.1,4.4-0.2,4.7,2.7c0.3,3,0,6,0,8.9c0.6,1.7,1.8,3.2,1.7,5.1
			c1.9,7.7,5.9,14.6,9.1,21.7c2.1,7.5-4.7,13.7-2.8,21.1c0.1,0.7,0.1,1.4,0.2,2.1c1.5,1.8,1,3.4-0.7,4.7c-3.7,1.1-7.3,1.9-9.3-2.8
			c-0.4-2.6-3.3-4.6-2-7.7c-4-5.6,2.6-10,1.7-15.2c-0.3-0.9-0.5-1.8-0.7-2.7c0.3-7.8-5.6-11.9-10.7-15.5
			C81.2,171.2,79.5,167.2,80.4,161.5z"/>
		<path class="st66" d="M106,217.9c0.7-1.3,1.3-2.7,2-4c7.3,9.3,1,17.6-2,26.1c-0.8,1.9-1.6,3.7-2.4,5.6c-6.1-0.9-12.3-1.7-17.8-4.9
			c-2.6-1.5-5.7-3.1-5.2-6.4c0.5-3.5,2.5-6.6,7-6.4C93.2,223.6,99.6,220.7,106,217.9z"/>
		<path class="st67" d="M69.9,215.9c-3-7.7,1.4-16.6-3.8-24c1.6-4.3,4.8-3.6,8.1-2.7c2.4,1.2,4.1,3.7,7.2,3.3
			c1.4,0.1,2.8,0.2,4.2,0.3c1.6,0.1,2.9,0.7,4,1.7c1.8,2.3,1.3,4.8,0.5,7.3c-0.1,1.3-0.2,2.7-0.3,4c-3.3,0.8-3.6,4.5-6,6.2
			c-5.1,1.3-1.3,6.4-3.8,9c-3.6-1.7-0.9-5.6-2.9-7.8C74.3,213,73.5,218.6,69.9,215.9z"/>
		<path class="st68" d="M106,217.9c-3.2,8.8-11.1,8.7-18.4,10c1.5-5.7,7.5-7.6,10.4-12.1C100.3,217.9,104.3,213.6,106,217.9z"/>
		<path class="st69" d="M90,202c-0.7-1.8-1.5-3.7-2.2-5.5c3.4-4.9,7.7-7.3,13.7-4.9c2.6,7-4.9,10.6-5.5,16.6
			C94.1,205.9,93.7,202.3,90,202z"/>
		<path class="st70" d="M83.7,212.1c-0.8-1.9-3.4-3.6-1.1-5.9c2.1-2.2,4.7-1.4,7.1-0.3C87.7,214.6,87.7,214.6,83.7,212.1z"/>
		<path class="st71" d="M73.5,191.9c-2.5,3.9-4.9-1.9-7.4,0c-5.1-5.8-11.8-9.6-18.1-13.7c-6.2-4-11.6-8.5-15.6-14.8
			c-1.3-2.1-2.4-5.7-5.4-5c-3.7,0.8-2.4,4.9-3,7.6c-0.6-0.1-1.1-0.2-1.7-0.3c-0.2-11.3-0.3-22.6-0.5-33.9c0,0,0.4,0.2,0.4,0.2
			c7.8-8.4,13.1-7.5,16.5,3.3c2.4,7.7,6.7,13.9,15.1,12.8c9.8-1.3,15.6,2.1,19.4,10.5c0.8,1.3,1.2,2.6,1,4.1c-0.8,2.3-2.9,4-3.7,6.4
			c0.7-1.5,1.5-2.8,2.9-3.8c1-0.3,1.9-0.3,2.8,0.1c2.8,2.1,3.3,5,1.7,7.9c-2.9,5.2-2,10.9-2.4,16.5
			C75.1,190.8,74.5,191.5,73.5,191.9z"/>
		<path class="st72" d="M55.8,58C67,45.1,80.3,35,96.1,28.3c3.8,1.5,7.6,1,11.5,0c7.4-1.9,14.8-1.9,22.3,0.1c4.3,1.1,8.4,2,9.7,7
			c1.2,4.8-1,8.2-4.7,11c-1,0.8-1.8,1.9-2.7,2.9c-3.2,2.5-7.4,4.4-10.7,3.7c-11.8-2.4-16.1,4.7-19.4,13.7c-0.5,1.2-1.1,2.4-1.7,3.6
			c-4.4,5.9-9.1,11.5-11.8,18.6c-2.9,7.8-27.1,19.2-35.1,17.3c-9.8-2.4-13.8-16.3-8-27.2C49.2,72,53.5,65.5,55.8,58z"/>
		<path class="st73" d="M55.8,58c3.6,7.9-1.1,14.3-4.6,20.3c-2.9,4.9-4.3,9.7-3.1,14.9c2,8.5,9.9,11.4,16.7,5.9
			c4.5-3.6,8.8-6.8,14.6-7.7c3.6-0.5,5.3-3.2,6.9-6.4c3.1-6.2,6.9-12,11.7-17.1c3.4-3.2,3.9-9.5,10.1-9.7c0.6,2.7,1.2,5.4,1.8,8.1
			c1.4,3.2-1.1,4.9-2.7,6.9c-1.4,1-2.9,1.6-4.2,2.8c-2.2,2.2-3.5,4.7-4,7.7c-0.6,6.4-4.5,11.1-8.4,15.8c-1.5,1.8-3,3.7-5.4,4.4
			c-7.1,4.8-6.4,13.8-11,20.2c-5.8,8.1-22.4,10.2-30.1,4c-9.2-7.5-10.6-18.4-14.5-28.3c3.5-9.4,7.1-18.7,14.2-26.1
			c3.4-0.5,3-3.7,4.1-5.8c0.8-1.3,1.5-2.5,2.3-3.8C52.7,62.7,52.6,58.8,55.8,58z"/>
		<path class="st74" d="M129.9,48.1c1.5-4.6,8.3-8,3.7-13.9c-3.8-4.9-9.3-3.6-14.6-2.6c-4.8,0.9-9.7,1.4-14.6,2
			c-4.2,0.5-6.7-1.8-8.4-5.3c5.7-5,13.5-4.7,19.9-7.9c1.9-0.2,3.8-0.4,5.7-0.6c5.2,8.4,14.8,5.5,22.1,8.6c16.5,7,16.7,6.6,16,23.7
			C149.5,53.2,139,56.3,129.9,48.1z"/>
		<path class="st75" d="M29.7,99.9c6.2-0.5,6.6,4.6,7.9,8.5c1.4,4.5,4,8.2,6.4,12.1c5.2,8.6,12.4,7.4,19.7,5.3
			c6-1.7,7.9-6.2,9.2-12.6c0.9-4.3,7.5-7.4,11.6-11.1c1,1.2,0.9,2.5,0,3.7c1.8,1.5,3.5,3,5.3,4.5c0.3,6.6-9.7,9.1-6.7,16.8
			c-4,7-2,17.6-12.5,20.6c0.5,2.8,1.1,5.5,1.6,8.3c1.2,1.5,1,2.8-0.4,4c-3-6.1-7.2-8.1-14.4-6.7c-13,2.4-21.1-2.7-22.7-14.5
			c-1.2-9.2-5.8-8.9-12.3-6.8c-2.4-10.2,5-18.5,5.5-28.1C28.4,102.6,29,101.2,29.7,99.9z"/>
		<path class="st72" d="M48,67.9c0.9,2.4,2.1,5.1-0.2,7.2c-1.7,1.6-2.9-0.1-3.9-1.4C44.6,71.3,45.8,69.3,48,67.9z"/>
		<path class="st76" d="M125.9,271.8c1.8,3.7,6.6,6.8,3.9,11.3c-2.6,4.4-7.7,2-11.8,2.3c-0.3-0.1-0.6-0.2-0.9-0.4
			c-3.8-2.2-10.6,0.5-11.7-5.4c-1.3-6.7,6.6-6.1,9.7-9.7C119.3,264.8,122.5,269.8,125.9,271.8z"/>
		<path class="st20" d="M107.8,211.8c-4.2-7.3,0.4-14.7,0-22c-1.1-2.3-1.1-4.1,2.2-4c6.4,7.1,7.6,16.1,9.2,25.7
			c6.7-3.6,3-19.8,16.6-13.6c-3,5.5-5.9,11-9,16.5c-1.6,2.8-2.6,4.1-7.3,3.5c-5.9-0.8-3.7-3.5-4.2-6.3c-0.4-2.5-1.3-4.9-2.5-9
			C110.7,206.5,109.3,209.2,107.8,211.8z"/>
		<path class="st77" d="M110,185.8c-0.7,1.3-1.4,2.7-2.2,4c-1,0.8-1.9,1.6-2.9,2.3c1.2-9.2-8.5-15.3-6.7-24.7
			c1.3-0.6,2.7-0.7,4.1-0.3c3.3,3,7.9,5.2,7.7,10.8c1.2,2,2.5,4,3.7,6.1C112.6,184.6,111.3,185.2,110,185.8z"/>
		<path class="st78" d="M110.1,178c-3.2-2.8-6.3-5.6-9.5-8.4c2.8-5.7,10.6-1.2,13.5-6.6c2.6-1.1,5-3.6,7.9-0.7
			C120,169,118,175.7,110.1,178z"/>
		<path class="st79" d="M139.9,136c3.1-2.2,6.3-2.6,8.6,0.7c2.4,3.3,1.9,7-0.8,10c-1.7,2-3.9,3.5-5.8,5.3c-3.9,1.2-7.8,2.5-11.7,3.7
			c-3.4-2.9-1-5.3,0.8-7.7c0.5-0.9,1.1-1.6,1.7-2.4c0.7-0.7,1.5-1.2,2.4-1.6C140.1,143.4,141.5,140.5,139.9,136z"/>
		<path class="st80" d="M134,150.2c-1.3,1.8-2.5,3.6-3.8,5.4c-2.1,2.9-4.7,5.3-8.1,6.6c-2.1,1.2-4.3,2.4-6.4,3.6
			c-3-8.3,3.5-12.2,8.2-16.5C127,146.5,131,146.1,134,150.2z"/>
		<path class="st81" d="M129.9,48.1c10.3-1.4,19.9,2.7,29.9,4c0.6,4.1,0.6,4.1-8.2,4.5c-1.2-0.2-2.5-0.4-3.7-0.7
			c-5.3,0.5-10.8-5.1-16,0.3c-4.3,2.3-8.6,2.3-13.1,0.4c-3.7-1.6-7.6-1.9-10.7,1.7c-3.4,3.2-6.8,6.5-10.1,9.7
			c2.3-11,9.7-16.4,20.2-18.4C122,48.8,126,48.6,129.9,48.1z"/>
		<path class="st82" d="M103.8,69.6c2-1.1,4.1-2.2,6.1-3.3c5.2,1.7,10.5,2.3,16,1.6c3.9,0,7.9,0.2,11.8,0c5.6-0.3,11,0.7,13.7,5.9
			c2.5,4.9,1,10.3-1.6,15.1c-1.7,3.2-5.1,5.2-5.8,9c-2.1,2.6-4.1,5.2-6.2,7.9c-5.6-5.2-5.1-10.7-0.9-16.4c2.4-3.3,4.6-6.9,2.7-11
			c-2.2-4.7-6.8-2.7-10.6-2.7C119.8,76.8,110.4,78.8,103.8,69.6z"/>
		<path class="st83" d="M131.9,56.1c4.2-7.2,8.8-7.3,16-0.3C142.8,65,137.3,58.7,131.9,56.1z"/>
		<path class="st84" d="M134,150.2c-11.1-0.7-14.5,7.8-18.3,15.6c-4.3,4.3-9.6,4.2-15.1,3.7c-0.8-0.7-1.6-1.4-2.4-2.1
			c0.5-1.2,1-2.4,1.5-3.6c5.5-5,3.5-11.6,3.6-17.6c0.3-14.5,4.3-17.3,17.4-10.9c6.5,3.1,12.7,2.5,19.1,0.6c3.1,0.3,6.3,1,5.5,5.1
			c-1,4.8-4.6,6.9-9.4,6.9c-7.1-7.8-14.9-3.2-22.5-1.7c7.6-1.5,15.4-6.2,22.4,1.8C135.3,148.7,134.6,149.5,134,150.2z"/>
		<path class="st69" d="M73.5,190.1c-5.4-8.2,2.1-16,0.6-24.1c-0.1-4,2.1-3.2,4.4-2c0.6-0.8,1.3-1.6,1.9-2.4
			c4.6,5.5,9.4,10.8,15.1,15.4c3.8,3.1,6,7.9,6.1,13.2c-6,0.8-11.9,2-17.1,5.3c-1.6,0-3.2,0.1-4.8,0.1
			C78.2,193.1,76.8,190.5,73.5,190.1z"/>
		<path class="st85" d="M70.4,147.7c5.4-6.5,1.9-16.7,9.5-22.2c2.8-4.1,5.2-1.5,7.7,0.4c1.6,0.8,3.2,1.6,4.9,2.5
			c-3.8,5.4-7.5,11-11.5,16.2C78.4,147.8,75.5,151.9,70.4,147.7z"/>
		<path class="st24" d="M127.6,126.2c1.3-2.7,0.9-5.5,0.3-8.3c5.5,2.4,9.8,6,11.8,11.8C135.1,130.5,131,129.5,127.6,126.2z"/>
		<path class="st86" d="M78.5,163.9c-1.5,0.7-2.9,1.3-4.4,2c0,0-0.1,0-0.1,0c-1.8,0.5-2.6-0.1-2.2-2c-0.1-1.3-0.1-2.7-0.2-4
			c0.1-1.3,0.3-2.6,0.4-4C77.1,156.3,76.9,160.8,78.5,163.9z"/>
		<path class="st87" d="M131.8,72.2c4.7-0.6,10.2-3,13.3,2.7c2.9,5.4,1.3,11-2.7,15.4c-4.2,4.6-4.8,9.8-4.7,15.5
			c-17.8,0-35.6,0-53.4,0c0-1.2,0-2.5,0-3.7c1.1-1.3,2.3-2.7,3.4-4c8.3-2.7,16.4-4.1,24.9-0.5c3.4,1.4,5.8,0.1,7.9-3.6
			C124.7,86.9,128.5,79.7,131.8,72.2z"/>
		<path class="st73" d="M87.6,125.8c-2.6-0.1-5.1-0.2-7.7-0.4c-4.4-9.9,0.5-13.9,9.7-15.2c3.6,3.7,0.6,7.5,0.4,11.3
			C87.6,122.1,86.2,123.2,87.6,125.8z"/>
		<path class="st88" d="M84.4,195.5c3.3-9.5,10.3-7,17.1-5.3c0,0.5,0,0.9,0,1.4c-4.5,1.8-8.6,4.7-13.7,4.9
			C86.6,196.2,85.5,195.8,84.4,195.5z"/>
		<path class="st89" d="M73.5,190.1c0.5-1.3,0.3-4.3,2.3-3c2.6,1.8,6.5,3.9,3.8,8.5c-2.8,0-5.1-0.8-6.2-3.7
			C73.7,191.3,73.7,190.7,73.5,190.1z"/>
		<path class="st69" d="M71.8,163.9c0.7,0.7,1.5,1.4,2.2,2c-1.9,3-3.7,6-5.6,9C67.1,170.3,69.6,167.2,71.8,163.9z"/>
		<path class="st90" d="M131.8,72.2c2.7,4,4.7,8.2,1.3,12.7c-3.2,4.2-9.7,6.9-4.2,14.2c1.6,2.2-2.6,4.3-5.2,4.3
			c-12.3,0.2-24.1-2.6-36-5.4c2.7-5.5,5.3-10.9,8-16.4c5.5-1.3,5.9-5.1,4.7-9.7c1.1-0.8,2.2-1.6,3.3-2.5
			C112.9,73.1,122.5,71,131.8,72.2z"/>
		<path class="st91" d="M100.5,72.1c3.6,1.7,5.9,4.5,4.2,8.4c-2,4.3-5.5,3.4-8.9,1.3C95.7,77.7,97.2,74.5,100.5,72.1z"/>
		<path class="st92" d="M135.9,148c-10-0.7-19.6-0.7-23.8,11.1c-0.4,1-1.9,2.1-2.9,2.2c-2,0.1-2.7-1.8-2.8-3.4
			c-0.2-5.3-0.4-10.6-0.2-15.9c0.2-3.8,2.9-5.3,6.4-3.8c5.8,2.4,11.8,1.8,17.7,1.8C136.1,139.9,138.3,142.2,135.9,148
			C135.9,148,135.9,148,135.9,148z"/>
		<path class="st93" d="M73.7,179.5c1.7-1,2.2-1.6,2.8-1.6c4.5-0.1,9.4-1.5,12.8,2.8c0.3,0.4-0.2,2.2-0.7,2.4
			C83.4,184.6,78.4,184.8,73.7,179.5z"/>
		<path class="st94" d="M131,80.9c-1.3,5.1-5.3,6.5-9.8,6.7c-4.3,0.1-7.1-2.1-6.6-6.6c0.6-5.4,4.4-6.9,9.2-6.7
			C128.1,74.5,130.6,76.6,131,80.9z"/>
	</g>
</g>
</svg>
