<?xml version="1.0" encoding="utf-8"?>
<!-- Generator: Adobe Illustrator 25.2.1, SVG Export Plug-In . SVG Version: 6.00 Build 0)  -->
<svg version="1.1" id="Camada_1" xmlns="http://www.w3.org/2000/svg" xmlns:xlink="http://www.w3.org/1999/xlink" x="0px" y="0px"
	 viewBox="0 0 300 300" style="enable-background:new 0 0 300 300;" xml:space="preserve">
<style type="text/css">
	.st0{fill:#2A1A02;}
	.st1{fill:#1D1201;}
	.st2{fill:#2A1904;}
	.st3{fill:#382305;}
	.st4{fill:#1E1101;}
	.st5{fill:#391F0F;}
	.st6{fill:#112C23;}
	.st7{fill:#502A16;}
	.st8{fill:#1C2014;}
	.st9{fill:#1D2418;}
	.st10{fill:#3A3829;}
	.st11{fill:#379890;}
	.st12{fill:#0B413D;}
	.st13{fill:#1A6159;}
	.st14{fill:#205E56;}
	.st15{fill:#56928F;}
	.st16{fill:#815931;}
	.st17{fill:#462E11;}
	.st18{fill:#704B25;}
	.st19{fill:#563C1A;}
	.st20{fill:#A6733F;}
	.st21{fill:#341C02;}
	.st22{fill:#281703;}
	.st23{fill:#482E15;}
	.st24{fill:#744F23;}
	.st25{fill:#EAB86A;}
	.st26{fill:#522904;}
	.st27{fill:#E2AC4A;}
	.st28{fill:#93622E;}
	.st29{fill:#AE7841;}
	.st30{fill:#C48E4B;}
	.st31{fill:#CE924D;}
	.st32{fill:#29170A;}
	.st33{fill:#2B1902;}
	.st34{fill:#483119;}
	.st35{fill:#4A3929;}
	.st36{fill:#6A5B42;}
	.st37{fill:#56422E;}
	.st38{fill:#264F43;}
	.st39{fill:#4C2A08;}
	.st40{fill:#382005;}
	.st41{fill:#5D350D;}
	.st42{fill:#442507;}
	.st43{fill:#614026;}
	.st44{fill:#522E08;}
	.st45{fill:#7D4E17;}
	.st46{fill:#734614;}
	.st47{fill:#693F10;}
	.st48{fill:#5E380E;}
	.st49{fill:#362514;}
	.st50{fill:#4A3A28;}
	.st51{fill:#64543E;}
	.st52{fill:#6E5037;}
	.st53{fill:#51280C;}
	.st54{fill:#C3AC90;}
	.st55{fill:#987F65;}
	.st56{fill:#86745D;}
	.st57{fill:#AB9278;}
	.st58{fill:#C8B094;}
	.st59{fill:#60452B;}
	.st60{fill:#55381F;}
	.st61{fill:#877258;}
	.st62{fill:#EFD9B7;}
	.st63{fill:#503B25;}
	.st64{fill:#C0957B;}
	.st65{fill:#5E361B;}
	.st66{fill:#C8B991;}
	.st67{fill:#B39D7E;}
	.st68{fill:#F4E8BC;}
	.st69{fill:#D7CAAE;}
	.st70{fill:#CBB694;}
	.st71{fill:#E0C7A5;}
	.st72{fill:#DEC79A;}
	.st73{fill:#DFC29B;}
	.st74{fill:#FAEEC2;}
	.st75{fill:#DDC9A2;}
	.st76{fill:#B8A181;}
	.st77{fill:#B49E80;}
	.st78{fill:#67543C;}
	.st79{fill:#7A6651;}
	.st80{fill:#907B64;}
	.st81{fill:#463522;}
	.st82{fill:#5E452D;}
	.st83{fill:#AB967F;}
	.st84{fill:#A48C72;}
	.st85{fill:#68341B;}
	.st86{fill:#A58C74;}
	.st87{fill:#D7A37F;}
	.st88{fill:#6C4625;}
	.st89{fill:#EBD4BA;}
	.st90{fill:#66523B;}
	.st91{fill:#CBB297;}
	.st92{fill:#835F38;}
	.st93{fill:#4E2B17;}
	.st94{fill:#DFB484;}
	.st95{fill:#9D5628;}
	.st96{fill:#6C5436;}
	.st97{fill:#4B2B11;}
	.st98{fill:#7C4A25;}
	.st99{fill:#BD582A;}
	.st100{fill:#A4977D;}
	.st101{fill:#A76F47;}
	.st102{fill:#978672;}
	.st103{fill:#867667;}
	.st104{fill:#796A4E;}
	.st105{fill:#D7C7B2;}
	.st106{fill:#985D30;}
	.st107{fill:#AE6531;}
	.st108{fill:#F8B974;}
	.st109{fill:#5C3F24;}
	.st110{fill:#EB8D54;}
	.st111{fill:#B25426;}
	.st112{fill:#773314;}
	.st113{fill:#AD6F3C;}
	.st114{fill:#965A2D;}
	.st115{fill:#F4CF80;}
	.st116{fill:#704A2C;}
	.st117{fill:#B07758;}
	.st118{fill:#F3E7C5;}
	.st119{fill:#AC9D78;}
	.st120{fill:#8E7D61;}
	.st121{fill:#F0E3C5;}
	.st122{fill:#A99A74;}
	.st123{fill:#A69A74;}
	.st124{fill:#ECE3C6;}
	.st125{fill:#897658;}
	.st126{fill:#D1C0A6;}
	.st127{fill:#B4A286;}
	.st128{fill:#B36636;}
	.st129{fill:#80633F;}
	.st130{fill:#8A4220;}
	.st131{fill:#E1CFB4;}
	.st132{fill:#C5886C;}
	.st133{fill:#714321;}
	.st134{fill:#763B15;}
	.st135{fill:#E4BA88;}
	.st136{fill:#765840;}
	.st137{fill:#D99C72;}
	.st138{fill:#F3B36A;}
	.st139{fill:#EF8F50;}
	.st140{fill:#F29E5E;}
	.st141{fill:#F5B97A;}
	.st142{fill:#F7CF7C;}
	.st143{fill:#B0713F;}
	.st144{fill:#DDCFB1;}
	.st145{fill:#AE9A7E;}
	.st146{fill:#8B5B35;}
	.st147{fill:#C2AE94;}
	.st148{fill:#EEAE67;}
	.st149{fill:#C88B52;}
	.st150{fill:#5B3312;}
	.st151{fill:#FAE68E;}
</style>
<g>
	<g>
		<path class="st0" d="M215.4,0.2c25.9,0,51.8,0.2,77.7-0.1c5-0.1,6.1,1.1,6.1,6.1c-0.2,37.2-0.1,74.4-0.1,111.6
			c-3.9,2.8-3.7,7.5-2.9,10.9c2.4,10.5,0,20.5-1.4,30.7c-1.3,10-4.7,13.2-12.7,12.6c-0.8-0.8-1.3-1.8-1.6-2.9
			c-0.2-12.7,3.5-25.3-0.1-38c-0.9-10.7-2.3-21.3-7.8-30.9c-8.6-18.7-17.6-37.1-33.2-51.2c-2.8-2.6-5.8-5-9.4-6.5
			c-5.4-4.5-11.4-8.3-16.6-13.1C206.4,19.3,213.9,9.9,215.4,0.2z"/>
		<path class="st1" d="M95.8,299.1c-29.9,0-59.8-0.1-89.7,0.1c-5,0-6.1-1.1-6.1-6.1c0.2-43.2,0.1-86.4,0.1-129.5
			c6.6-3.3,7.5,1.4,8.3,6c2,10.8,6.7,20.4,13,29.2c9.1,16.9,20,32.5,33.2,46.5c4.6,7.3,13.5,9.5,18.9,15.8c9,4.7,18.7,8,28,12
			c4.9,2.1,10.9,3.4,12.7,9.8c0.4,6.9-4.2,9.7-9.6,11.9C101.5,295.9,98.2,296.6,95.8,299.1z"/>
		<path class="st2" d="M20,201.5c-9.3-6.3-9.4-17.3-13.4-26.3c-1.8-4.1-1.5-9.3-6.5-11.6C0.1,111.7,0.2,59.8,0,7.9
			c0-5.7,0.6-8,7.4-7.9c20.2,0.6,40.4,0.2,60.5,0.2c5.7,5.2,4.2,10.5-1.2,14.1c-7.5,5-11.9,13.2-20,17.6c-3.8,2-7.2,6.1-6.7,10.5
			c1.8,14.4-7.8,24.5-13.5,35.7c-4.6,8.9-8,17.4-7.4,27.4c-2.9,15.2-6.5,30.4-5.6,45.9c0.6,11.6,0.4,23.7,5.9,34.6
			C19.6,191.2,25.7,196.1,20,201.5z"/>
		<path class="st3" d="M16.2,104.1C13.5,88.9,24,78,29.3,65.5c3-7.1,5.6-13.4,4.4-21.7c-1.3-8.9,7.6-12.8,12.6-18.7
			c7.1-8.4,20.5-11.3,21.7-24.8c49.2,0,98.3,0,147.5,0c1.8,2.8,3.6,5.5,5.4,8.3c1.3,2.1,2.2,5.3-0.4,6c-8.3,2.4-4.6,8.6-5,13.5
			c-0.9,1.5-2.2,2.1-3.8,2.3c-10.6-3.4-19.4-11.9-31.5-11.2c-8.5-1.3-16.7-3.6-25.2-5.1c-6.6-1.2-12.8-0.5-19.1,0.9
			c-9.5-0.2-18.7,2.4-27.9,4.1C95.1,17.9,72.9,29,67.3,39.4c-2.7,3.3-5.5,6.5-8.9,9.1c-10.3,6-15.7,16.3-22.3,25.5
			c-6.3,6.9-8.9,15.8-13,23.9c-1.2,2.3-2,4.8-4.2,6.5C18,104.7,17.1,104.6,16.2,104.1z"/>
		<path class="st4" d="M283.5,171.7c7.4-12.1,13.3-24.4,10.7-39.5c-0.8-4.8-5.8-12.9,5-14.4c0,51.1,0,102.3,0,153.4
			c-1,0.9-2,2.5-3.2,2.2c-13.3-3-28.7-0.4-38.6-13c-3.3-4.2-8-6.8-10.7-11.5c-0.4-1.6-0.3-3.2-0.2-4.7c2.3-7.3,7.5-12.9,11.1-19.4
			c10.6-13.4,16.4-29,20.8-45.2C279.2,176.4,279.8,173,283.5,171.7z"/>
		<path class="st5" d="M123.7,299.1c-0.7,0-1.3,0-2,0c-5.5-4.3-4.9-10.9-6.1-16.8c-2.7-16.4-6.4-32.5-13.7-47.6
			c-1.6-3.3-2.1-6.2-0.1-9.4c0.7-0.9,1.6-1.5,2.6-2c4.7-1.2,7.6,3.5,11.9,3.6c0.9,0.5,1.7,1.1,2.4,1.9c3.1,5,12.4,3.8,12.2,12.1
			c-2,12.3,5.4,23.8,16.8,27.7c18.6,6.4,33.9,1.7,46.9-12.2c7.6-8.2,16.4-10.3,26.8-6.5c4.1,8.1,4.7,16.1,0.2,24.2
			c-2.1,2.2-4,4.9-7.3,5.6c-8.4-1.7-15.2,1-22.2,5.9c-13.3,9.4-28.4,12-44.3,7.8C138.7,291.2,130,289.7,123.7,299.1z"/>
		<path class="st6" d="M299.1,281.2c0,6,2.3,14.3-0.7,17.3s-11.3,0.7-17.3,0.7c-6.6,0-13.3,0-19.9,0c-6.6-2-12-7.8-19.7-6
			c-9.9,3.3-8.6-6.8-12.6-10.5c-1.8-3.1-5.7-3.4-7.9-6c-0.9-1.4-0.9-3-0.8-4.6c-1.2-6.8,3.8-11.6,5.5-17.5c0.6-2.1,3.3-3.4,5.8-3.1
			c9.2,1.1,18.9-0.6,25.8,9c4.6,6.4,12.1,9.9,20.9,10.3C286.2,271.2,294.7,272.6,299.1,281.2z"/>
		<path class="st7" d="M123.7,299.1c0.1-3,0-6,0.3-8.9c0.5-5,3.2-6.9,8.2-5.6c4.8,1.3,9.8,1.7,14.4,3.5c17.5,6.7,32.4,1,46.5-9.1
			c2.7-1.9,5.8-3.2,8.6-4.9c5-2.9,8.8-1.8,11.7,3.2c4.8,8.4-1.6,14.8-4,21.9C180.9,299.1,152.3,299.1,123.7,299.1z"/>
		<path class="st8" d="M299.1,281.2c-8.7-2.8-17.3-5.9-26.7-6.4c-8.8-0.5-13-9.5-20.1-13.5c-14.7-8.3-28.6-7.9-30.9,11.7
			c-0.7,0.7-1.4,0.7-2.1,0c-1.3-7.3,2.4-14.5,0.2-21.8c-2.8-6.3,0.7-10.9,4.4-15.1c2.3-2.6,6.5-4.3,8.9-1.8
			c5,5.2,12.7,6.6,16.6,12.9c1.4,0.8,3.5,1.2,4.2,2.4c9.9,18.6,29.9,15.5,45.7,21.5C299.1,274.6,299.1,277.9,299.1,281.2z"/>
		<path class="st9" d="M119.7,281.2c1.8,5.9,2.2,11.9,2,18c-8.6,0-17.3,0-25.9,0c1.7-8.9,12.5-8.8,15.9-16
			C113.7,279.7,116.4,279.5,119.7,281.2z"/>
		<path class="st10" d="M219.2,273.1c0.7,0,1.4,0,2.1,0c0.7,0.8,1.3,1.5,2,2.3c3,6.2-4.8,9.2-4.4,14.7c-0.2,0.9-0.4,1.8-0.6,2.7
			c-0.3,3.2-3.1,4.5-5,6.4c-1.3,0-2.7,0-4,0c-1.3-7.8,3.1-14.5,4-21.9C215.4,275.9,217.3,274.5,219.2,273.1z"/>
		<path class="st11" d="M235.3,299.1c-3.3,0-6.6,0-10,0c-4.5-4.6-3.1-10.1-2.3-15.4c2.3-3.9,5.3-4.4,8.8-1.6
			C232.3,287.9,238.4,292.6,235.3,299.1z"/>
		<path class="st12" d="M241.1,289c10-3.1,14.6,4.4,20.1,10.1c-4.7,0-9.3,0-14,0c-2.9-2.3-5.3-4.9-5.9-8.8
			C241.3,289.9,241.2,289.4,241.1,289z"/>
		<path class="st12" d="M235.3,299.1c-1.4-5-2.9-10.1-4.3-15.1c-0.7-1.7-1.1-3.3,0.4-4.8c3,1.4,3.6,4.1,4.1,7c0.6,3.4,2.6,4,5.5,2.8
			c0,0,0.4,0.3,0.4,0.3c2.3,3.3,2.6,6.6-0.1,9.8C239.3,299.1,237.3,299.1,235.3,299.1z"/>
		<path class="st13" d="M225.5,283.3c0,5.3-0.1,10.5-0.1,15.8c-2,0-4,0-6,0c-3.1-2-1.5-5.9-3.5-8.3c0-0.5-0.1-1,0-1.5
			C219.1,287.4,220.1,281.8,225.5,283.3z"/>
		<path class="st14" d="M241.3,299.1c0-3.3,0.1-6.5,0.1-9.8c4.5,1.8,5,5.9,5.8,9.8C245.3,299.1,243.3,299.1,241.3,299.1z"/>
		<path class="st15" d="M215.9,290.8c3.7,1.7,3.2,5.2,3.5,8.3c-2,0-4,0-6,0C214.2,296.4,215.1,293.6,215.9,290.8z"/>
		<path class="st16" d="M231.5,39.8c21.2,14.4,34.3,34.9,43.7,58.1c1.5,2.4,1.8,4.6-0.9,6.4c-3.8-0.1-6.2-2.7-7.6-5.6
			c-9.9-20.1-24.7-36.5-39-53.4C227.5,42.5,229,40.8,231.5,39.8z"/>
		<path class="st17" d="M283.5,171.7c-3.2,20.2-11.5,38.3-22.3,55.4c-7.2-0.1-8.6-2.7-4.6-10.1c5.3-9.8,9.8-19.9,13.5-30.4
			c1.3-3.7,2.1-7.6,2.9-11.4c1.9-3,2.6-7,6.6-8.4c1.9-0.2,2.8,1,3.5,2.5C283.1,170.1,283.3,170.9,283.5,171.7z"/>
		<path class="st18" d="M273.6,103.9c0.5-2,1.1-4,1.6-6c5.5,9.8,7.2,20.7,8.2,31.7c0,4.1,4.1,9.6-3.5,11.4c-1.7-0.4-3.4-1.2-3.8-2.7
			c-2.4-10.6-6.7-21-5.1-32.2C271.6,105,272.5,104.3,273.6,103.9z"/>
		<path class="st19" d="M279.4,139.6c4.4-2.1,3.5-6.3,4-10c3.7,13.3,1.7,26.5-0.4,39.8c-0.6-0.6-1.3-1.2-1.9-1.8
			C273.9,158.6,274.9,149.2,279.4,139.6z"/>
		<path class="st20" d="M231.5,39.8c0.6,2,0.5,3.8-2.1,4.3c-1.8,1.4-3.8,1.1-5.8,1c-6.1-3.9-14.2-5.8-15.3-14.9
			c0.7-1.5,2-2.3,3.5-2.7c1.2,0.1,2.4,0.2,3.6,0.4C220.8,31.9,226.1,35.9,231.5,39.8z"/>
		<path class="st21" d="M69.9,263.3c-4.1-7.4-14.2-8.2-17.9-16c1.3-2.2,0-3.8-1.4-5.2c-15.9-15.3-26.1-34-32.4-54.9
			c-0.1-1.5-0.2-2.9-0.5-4.3c1.9-8.3,5.9-9.9,11.6-4.6c2.4,2.2,4.3,5,6.9,7.1c5.8,4.7,12.4,6,18.1,1.1c6.8-5.8,13.7-5.5,21.2-2.9
			c5.1,2.4,5.4,8.4,9.2,11.8c6.7,7,14.7,13.4,14,24.7c-1.7,2.5-4.3,2.9-7,2.7c-2.9-0.2-5.9,0.7-6.5,3.5c-1.4,6.9-5.8,10.5-11.7,13.7
			c-5.2,2.8-6.6,7.4-1.1,11.9c1.3,1,2.8,1.9,3.8,3.2c1.8,2.2,2.6,4.8,1.1,7.4C75.4,265.9,72.7,265.3,69.9,263.3z"/>
		<path class="st22" d="M69.9,263.3c6.9-1.5,4.2-3.9,0.8-6.8c-14.6-12.1-14.3-14.9,2.8-23.1c2.1-1,4.1-1.6,5-4.2
			C84,214,84,214,97.8,219.4c5-0.9,7.1,1,5.9,6.1c7.2,13.9,11.1,28.9,14.9,43.9c0.9,3.8,0.8,7.9,1.1,11.8c-2.7,0.7-5.3,1.3-8,2
			c-11.8-5.1-23.6-10.3-35.4-15.4C73.8,266.7,71.5,265.5,69.9,263.3z"/>
		<path class="st23" d="M20,187.5c6.8,14.2,11.5,29.5,21.9,41.7c3.2,3.8,6.6,7.3,9.8,11.1c1.8,2.1,4.9,4.4,0.3,6.9
			c-12.8-13.8-24.5-28.3-32-45.8c-1.2-4.7-2.5-9.5-3.7-14.2C17.6,186.3,18.8,186.4,20,187.5z"/>
		<path class="st24" d="M20,187.5c-1.2-0.1-2.5-0.1-3.7-0.2c-8.3-24.6-7.2-49.5-2-74.5c0.6-2.9,1.3-5.8,1.9-8.7
			c0.6-0.1,1.2-0.2,1.8-0.3c2.8,1.1,4.5,3.3,5.8,5.9c1.2,4.7-1.2,8.8-2,13.2c-3.9,20.2,0.6,40.7-1.9,61
			C19.9,185.1,20,186.3,20,187.5z"/>
		<path class="st25" d="M106,16.4c9.8-1.7,19.2-5.1,29.3-4.6c3.5-1.2,5.5-0.1,5.7,3.8c-2.1,6.3-8,6.4-13,7.2
			c-14.8,2.5-28.7,7.4-42.1,14.2c-2.3,0.6-4.5-0.1-6.7-0.1c-2.4-0.4-4.2-1.5-4.9-3.9c-0.1-1-0.3-2.3,0.4-2.8
			C84.2,23.3,94,17.3,106,16.4z"/>
		<path class="st26" d="M106,16.4c-10.1,5.2-21.4,8-30.6,15.1c-2.2,4.9-4.9,9.1-11.4,6.8c-1.4-4.2,0-6.6,4-8.6
			c10.7-5.1,21.1-10.7,31.8-16C102.6,12.4,105.8,11.3,106,16.4z"/>
		<path class="st27" d="M139.4,16.1c-0.5-2.3-2.2-3.4-4.1-4.3c15.9-3.7,31,1.3,46.3,4.1c0.9,4.6-2,6.5-5.5,8
			c-5.2,1-10.2-2.9-15.6-0.7C153.4,21.3,144.9,23.1,139.4,16.1z"/>
		<path class="st28" d="M19.7,109.6c-0.6-1.9-1.1-3.9-1.7-5.8c3.5-11.6,8.2-22.6,15.8-32.1c2.1,0.6,3.6,1.9,4.5,4c0.3,1,0.3,2,0,3.1
			c-2.7,8-6.2,15.7-9.6,23.4C27.1,106.2,24.9,109.7,19.7,109.6z"/>
		<path class="st29" d="M35.9,75.9c-0.7-1.4-1.4-2.8-2-4.2c5.5-10.1,12.8-18.6,22.3-25.2c1.9,0.2,4-0.2,5.1,2c1.3,6-2.6,9-6.6,12.2
			c-4.5,1.5-6.3,5.5-8.6,9C43.6,73.4,41.2,77,35.9,75.9z"/>
		<path class="st30" d="M175.5,19.7c2-1.3,4.1-2.5,6.1-3.8c11.1,1.1,20.8,5.9,30.1,11.7c-0.8,0.9-1.7,1.7-2.5,2.6
			c-5.1,5.1-10.1-0.1-15.1,0C188.1,26.4,179.1,27.9,175.5,19.7z"/>
		<path class="st31" d="M60.2,48.3c-1.3-0.6-2.7-1.2-4-1.8c2.6-2.7,5.2-5.5,7.9-8.2c3.8-2.3,7.6-4.5,11.4-6.8
			c1.6,0.9,3.1,1.8,4.7,2.7C76.8,44.4,68.6,50.2,60.2,48.3z"/>
		<path class="st32" d="M249.3,247.3c-3.4-1.4-7.5-2-10-4.3c-8.4-8.1-13.4-5.4-17,4.3c-0.6,1.5-1.9,2.7-2.9,4
			c-11.1,1.6-19.7,6.4-27.9,14.8c-12.1,12.5-37.9,14.3-53,5.1c-7.8-4.8-10.4-14.2-15-21.7c-2.1-3.3,2.8-5.5,4.2-8.3
			c3.8-2.5,8-3.3,12.5-2.7c4.1,0.2,7.1,2.8,10.5,4.5c10.2,5.6,20.6,0.9,30.5-0.8c5.7-1,11.6-5.1,16.9-9c9.1-6.5,10.1-17.2,15.5-25.5
			c1.1-1.1,2.4-1.7,4-1.8c4.5,0.6,6.1,3.8,6,7.6c-0.2,7.9,3.9,11.7,11.1,13.9c5.4,1.6,9,6.4,13.4,9.7c2,1.6,2.2,3.9,1.2,6.2
			C249.3,244.6,249.3,246,249.3,247.3z"/>
		<path class="st33" d="M249.3,243.3c-8.1-5.3-15-12.5-25.4-14c-5.1-0.7-6.8-4.6-5.9-9.5c0.7-4.2,2.1-8.3-0.5-12.3
			c-6.7-4.6-0.3-10.1-0.9-15.1c0.3-3.4,2.6-5.7,4.4-8.3c1-3.2,3.3-5.2,5.8-7.2c5.5-2.3,10.9-4.1,17.1-2.9c6.4,1.2,12.1-1,17.3-5.3
			c8.9-7.5,13.9-5.2,16,6.9c-1.2,15.6-8.6,29-15.5,42.6c-1.5,2.9-5.8,5.6-0.5,9C258.5,233.5,255.5,239.6,249.3,243.3z"/>
		<path class="st34" d="M103.7,225.5c-2-2-4-4.1-5.9-6.1c-5.3-7.3-10.6-14.6-16-21.8c1.7-9.7,3.2-10.6,11.5-6.7
			c1.8,0.8,3.6,1.3,5.5,1.8c1.4,0.5,2.5,1.5,3.3,2.8c0.8,4.6,3.7,8.3,5,12.7c1.4,3,5.3,3.4,6.6,6.4c0.1,0.5,0.3,0.9,0.4,1.4
			c0.1,1-0.1,2-0.5,2.9c-1.3,3.7-4.5,5.3-7.9,6.4C105.1,225.4,104.4,225.5,103.7,225.5z"/>
		<path class="st35" d="M139.7,241.3c-4,3.1-8,2-12-0.1c-1.9-5.7-9.2-5.1-11.9-9.9c2.6-6.5,8-6.6,13.7-6.2c3.8-0.9,6.7,1.4,9.9,2.8
			c1.4,0.8,2.2,2.1,2.9,3.4c0.7,1.4,1.4,2.7,1.6,4.3C144,238.6,142,240.1,139.7,241.3z"/>
		<path class="st36" d="M129.7,229.3c-4.6,1-9.5-0.5-13.9,1.9c-0.2-0.5-0.3-1.1-0.4-1.6c-4.1-3.1-4.6-7.4-4.4-12.1l0.7-0.2
			c2.8-4.9,8.4-3.8,12.5-5.9c4.6,0.8,7.2,3.7,8.2,8.1C133.3,223.4,129.8,225.9,129.7,229.3z"/>
		<path class="st37" d="M111,217.6c3.5,3.3,5.6,7.1,4.4,12.1c-3.8-0.1-7-1.6-9.7-4.3C107.5,222.8,109.3,220.2,111,217.6z"/>
		<path class="st38" d="M225.5,283.3c-2.8,2.7-5.2,5.9-9.7,5.9c0.7-5.6,4.9-9.3,7.5-13.9c4.2-1.8,6.2,0.8,8.1,3.9
			c-0.1,1.6-0.3,3.2-0.4,4.8C229.3,282.6,227.5,282.3,225.5,283.3z"/>
		<path class="st39" d="M225.9,41.6c1.2,0.8,2.4,1.7,3.6,2.5c20.1,16,35,35.7,44.2,59.7c-0.4,0-0.7,0-1.1,0
			c-1.9,2.8-2.6,5.7-2.3,9.2c1.8,20-9.9,37.4-29,43.8c-3.8,1.3-7.1,0.5-10.3-1.3c-0.8-0.6-1.5-1.3-2.1-2.1
			c-7.3-6.8-11.4-14.5-8.9-25.1c1-4-1.3-8.3-3.1-12.2c-0.4-0.8-0.7-1.7-0.8-2.7c-3-8.2-0.6-14,7.6-17.3c15.3-7.1,16.7-22.8,2.9-36.6
			c-2.8-2.9-6.2-5.2-6.1-9.7C220.4,46.1,219.8,41.5,225.9,41.6z"/>
		<path class="st40" d="M231.4,153.6c16.7-1.4,36.5-18.3,34.3-38.1c-0.6-5.7,1.2-9.7,6.8-11.7c3.8,11.6,6.9,23.3,6.9,35.7
			c3.1,9.2,1.4,18.6,1.7,28c-1.3,2.7-2.6,5.3-3.9,8c-4-6-7.8-9.8-13.9-1.6c-4.9,6.6-12.7,6.3-19.9,5.2c-5.3-0.8-10.4-0.6-15.5,0.6
			c-4.1-8.8-2.2-17.2,2.1-25.3C230.4,154.2,230.9,153.9,231.4,153.6z"/>
		<path class="st41" d="M225.9,41.6c-2.8,13.2,11.3,18.7,13.6,30c1.4,7,2.4,13.5-0.2,20.2c-2.6,6.6-6.9,9.5-13.9,6.1
			c-5.6,2.7-6.6-3.9-10.3-5.1c-3.9-4.2-9.5-6.4-12.6-11.4c-2.3-6.4-5.8-12.3-7.6-18.8c0-2.4,0.9-4.4,2.5-6.2c7.9-8.8,8-8.9-0.9-17.4
			c-4.7-4.5-6.7-8.8-1.1-13.9c4.6,1.7,9.3,3.5,13.9,5.2C214.8,34,220.3,37.8,225.9,41.6z"/>
		<path class="st42" d="M19.9,183.8c-6.3-20.5-6.9-41.2-1.7-62c2.5-5,6-5.5,10.4-2.3c2.4,1.8,4.2,4,5.9,6.5
			c7.2,11.1,12.5,11.1,21,0.6c2.5-3.1,4.2-8.1,9.9-5.3c3.2,14.3,16.2,24.4,17.5,39.6c1.2,5.2,3.4,9.8,6.3,14.4
			c5,7.6,3.4,9.8-6.4,9.8c-1.3-0.4-2.5-1.1-4-0.7c-1.7,1-3.5,1.8-4.9,3.1c-4.5-1.9-8.7-2.4-13.2,0.5c-16.4,10.6-20,10.1-33.4-4.7
			C24.5,180.3,21.9,175.7,19.9,183.8z"/>
		<path class="st43" d="M83.3,179.8c1.5,0.5,2.9,1.1,5.5,2c-3-7.4-9.1-12.5-8.9-20.1c-1.5-4.5-1.8-8,4.8-6.1
			c4.5,8.3,8.7,16.7,14.1,24.5c-1.1,5.1,1.9,10.3-0.7,15.3c-1.6,0.1-4,1-4.6,0.3c-5.1-5.8-8.1-1.3-11.5,1.9c-2.6-3.3-5.3-6.7-7.9-10
			c-3.2-13.2-2.9-13.9,6-12C79.7,178,80.4,179.8,83.3,179.8z"/>
		<path class="st44" d="M64,121.8c-1.5,2.5-3,5.1-4.5,7.6c-9.9,15.7-19.3,15.6-29.2-0.1c-2.8-4.4-5.2-9.5-12-7.4
			c0.5-4.1,1-8.1,1.6-12.2c5.6-10.5,8.4-22.4,16.3-31.6c7.2-2.1,9.4,4,9.4,8c0,10.3,6.5,12.8,14.3,14c6,0.9,8.5,4.2,9,9.8
			C67.8,114,71.7,120.2,64,121.8z"/>
		<path class="st45" d="M139.4,16.1c7.3,1.2,15-1.7,22.1,2c6.3,4.3,12.9,7.8,20.5,9.8c9.7,2.6,12.5,12.8,5.7,20
			c-3.4,3.6-6.7,7.4-11.8,8.7c-1.4,0.3-2.9,0.3-4.3,0.2c-3.7-0.9-7.4-1.8-10.9-3.2c-3.8-1.7-7.7-2.4-11.8-1.7c-3,1-6.1,0.7-9.2,0.5
			c-4.8-0.8-7.7,3.7-12,4.5c-5.7,2.2-13.1-5.6-17.8,2.9c-2.6,1.9-4.8,4.2-6.8,6.8c-1.8,1.6-3.5,3.5-6,4.1c-2.6,0.3-5.3,0.3-7.9,0.1
			C75.6,68,69,50.3,77.8,39.7c2.1-2.5,4.1-4.9,6-7.5C101.3,23.1,120,18.4,139.4,16.1z"/>
		<path class="st46" d="M83.8,32.2c-1.8,7.7-5.6,14.6-3.3,23.6c1.6,6.4,3.7,9.8,9.3,11.8c0.3,1.4,0.7,2.8,0.7,4.3
			c-1.2,7.5-7.1,11.4-12.1,16c-1,0.3-1.9,0.4-2.9,0.2c-2.6-1.7-5.6-1.6-8.6-1.6c-14.1,0.4-20.6-7.7-16.4-25c0.3-1.2,1.1-2.4,1.1-3.7
			c2.9-3.1,5.7-6.3,8.6-9.4c6.6-4.7,13.3-9.4,19.9-14.1C81.3,33.6,82.6,32.9,83.8,32.2z"/>
		<path class="st47" d="M175.3,54.3c2.9-5.7,10.9-8.7,10.8-15.4c-0.1-9.4-10.6-4.7-15.3-9.2c-3.8-3.6-9.2-5.2-9.2-11.6
			c4.7,0.5,9.3,1.1,14,1.6c6.9,0.7,13.6,2.2,19.8,5.3c1.2,4.8,2.6,8.9,7,12.4c12.1,9.6,10.9,17.1-3,23.2c-0.9,0.4-1.5,1.3-2.2,1.9
			c-1.8,1.2-3.6,0.6-5.5,0.3c-3.8-0.4-7.7-0.7-11.4-1.9C177.6,59.5,174.7,58.3,175.3,54.3z"/>
		<path class="st48" d="M51.6,57.7c0.9,5.6,4.2,10.3,3.7,16.7c-0.5,6.9,6.4,7.3,11.7,6.9c4.2-0.3,8.1-1.3,8.9,4.6
			c1.9,6.2,1.4,12.3-1.4,18.1c-0.7,1.4-1.7,2.6-2.8,3.7c-1.9,1.1-3.9,1.4-5.8,0.1c-6.8-2-13.5-4.3-20.3-5.9c-5-1.2-8.2-3.3-5.9-8.7
			c2.5-6.1,0.2-10.7-3.5-15.2c-0.1-0.7-0.1-1.4-0.2-2.1C40.2,69,45.3,62.9,51.6,57.7z"/>
		<path class="st49" d="M215.4,209.5c-9.3,34.7-32.4,37.6-58.1,39.6c-3.2,0.2-5.8-1.3-7.7-3.8c0.1-0.5,0.3-0.9,0.4-1.4
			c3-4.1,7.3-3.6,11.6-3c3.8,0.5,7.7,2.4,11.2-0.7c4.1-4.1,10.3-5.5,13.5-10.8c4-3.1,7.5-6.7,12.2-8.7c4-0.1,4.9-2.9,6.3-6
			C206.7,210.4,209,205,215.4,209.5z"/>
		<path class="st50" d="M215.4,209.5c-5.4,1-7.1,5.1-8.7,9.7c-1,2.8-1.6,8.3-7.2,4.3c-2.5-1.8-3.4-4.3-3.5-7.3
			c0.1-2,1.4-3.3,2.6-4.7c2.1-2.4,3.3-5.2,3.7-8.4c0.2-2,0.4-3.9,2-5.5c2.8-1.6,4.3-4.1,6.2-6.7c2.6-3.6,6.9-6.8,9,1
			c-0.7,5.2-1.4,10.4-2.1,15.5C216.8,208.1,216.1,208.8,215.4,209.5z"/>
		<path class="st51" d="M139.7,241.3c0.6-1.9,1.3-3.9,1.9-5.8c6.5-5.2,7.5-4.7,10.5,5.1c-0.3,1.8-1.3,3.2-2.7,4.4
			c0,0,0.2,0.3,0.2,0.3C146.3,244,143,242.7,139.7,241.3z"/>
		<path class="st52" d="M219.5,191.9c-3.3-2.5-5.3-0.9-6.7,2.3c-1.4,3.3-3.7,5.2-7.4,5.2c-1-0.5-1.7-1.2-2.2-2.1
			c-1.1-3.6-1.1-7.2,1.6-10.1c4.3-4.8,4.2-10,1.7-15.5c-0.5-1.6-0.4-3.1,0.4-4.6c3-3.5,3.9-7.7,5.1-12.1c1.1-3.6,3-8.2,8.1-9.1
			c3,0,5.5,2.5,8.6,2.3c1.4,0.8,1.9,2.1,2.3,3.5c0.1,0.6,0.3,1.3,0.4,1.9c0,0,0,0,0,0c-5.5,7-11.4,13.6-5.6,23.5
			c1.6,2.7,1.6,7-0.5,10.3C223.4,189,221.4,190.5,219.5,191.9z"/>
		<path class="st53" d="M225.3,187.5c0.4-6.5-0.1-11.9-8.9-7.2c0.3-18.5,3.5-24.1,15-26.7c0.7,8.9,0,17.7-3.6,26.1
			C227.4,182.5,227.2,185.3,225.3,187.5z"/>
		<path class="st54" d="M124.1,213.5c-1,11.2-8.1,3.1-12.3,3.9c-0.1-0.7-0.3-1.3-0.4-2c-0.8-4.3-4.4-4.7-7.6-5.8
			c-0.4-4.5-7-6.8-4.2-12.4c2-3.1,5.1-2.8,8.2-2.7c7.5,0.3,12.4,5,16.9,10.2c1.5,1.1,3.1,2.2,3.8,4.1
			C129,212.3,126.5,212.9,124.1,213.5z"/>
		<path class="st55" d="M109.5,197.7c-3.3-0.1-6.7-0.3-10-0.4c-0.5-0.6-1-1.3-1.6-1.9c-1.3-4.6-8.9-8.2-2.2-14
			c2-1.3,3.8-0.7,5.6,0.4c2.8,3.8,5.6,7.5,8.8,10.9c0.5,0.8,0.7,1.7,0.8,2.7C110.8,196.4,110.3,197.2,109.5,197.7z"/>
		<path class="st37" d="M103.7,209.7c5.2-1.5,10.3-3,7.6,5.8C110,212,98.1,222.4,103.7,209.7z"/>
		<path class="st56" d="M149.6,241.7c-1.2-4-1.7-8.9-8.1-6.1c-0.7-0.7-1.3-1.4-2-2.1c2-4.1,1.6-9.9,7.7-11.2c3.3,2,6,4.6,8.9,7
			c1.5,2.6,3.2,4.4,6.7,5c4.8,0.9,6.4,4.2,3.6,8.8C160.6,244.6,155.3,241.8,149.6,241.7z"/>
		<path class="st57" d="M129.7,229.3c-2-2.8-9.2-5.4-0.1-8.4c2.4-3.9,5.9-5.7,10.4-5.7c2.9,0.5,4.3,2.4,5.1,5c-0.5,5-3.6,8.2-7.4,11
			C134.8,231.5,132.9,227.5,129.7,229.3z"/>
		<path class="st58" d="M137.7,231.2c-4.3-7.2,3.6-6.7,6-9.6c1.1-1.3,2.4-1.4,3.8-0.7c0.6,0.8,0.6,1.7,0.1,2.5
			c-2.7,3.3-2.2,9.1-8,10C139,232.7,138.4,232,137.7,231.2z"/>
		<path class="st59" d="M139.4,217.3c-2.5,3.5-5.9,4.1-9.9,3.7c-1.8-2.5-3.6-5-5.5-7.4c0-2.5,4-1.2,3.8-4c-0.6-5.5,3.4-9.4,4.7-14.2
			c3.7-2.6,2.7-8.5,7.5-10.4c2.9-0.6,5.7-0.5,8.5,0.7c6.2,2.7,7.4,7.4,2.5,12.2c-3.2,3.1-5.6,6.4-7,10.5
			C143.3,211.7,141.9,214.8,139.4,217.3z"/>
		<path class="st60" d="M221.4,147.7c-5.1,6-5.5,14.8-11.8,20.1c-4.6,0.7-6.1-2.4-5.7-5.8c0.5-4.2-1.9-7.5-2.7-11.2
			c-0.5-1.5-0.6-3-0.6-4.5c0.7-5.1,2-10.2,0.2-16.2c-5,1.6-9.3,4.9-14.4,5.6c-3.9-0.4-7.4-1.5-10.5-3.9c-7.3-7.5-7.4-7.7,1.3-12.3
			c2.9-1.5,3.7-4.3,5.2-6.7c5.1-3.6,5.6-7.7,3.5-13.7c-1.7-4.7-7.6-9.4-2.3-15.4c1.6-2,3-4.1,5.8-4.7c7.8,0,12.1,6.4,18,9.9
			c1.3,2,0.6,4.6,2,6.4c1.4-0.2,1-1.6,1.5-2.4c1.1-2.4,3.3-2.9,5.6-2.9c4.1,1.3,6.2,4.8,8.8,7.7c-1.2,2.2,3.7,7.4-4.7,6.4
			c-5.3-0.6,0.4,6.4-1.4,9.6c-1.5,1-2.1,2.3-2,4.1c0,0.1,0,0.2,0,0.2c-0.1-1.8,0.6-3.2,2-4.2c0.8,1.4,1.9,2.8,2.4,4.3
			c3.3,11.1,1.2,23.7,9.2,33.6c-0.7-0.8-1.4-1.7-2.1-2.5C226.4,148.3,223.7,148.8,221.4,147.7z"/>
		<path class="st61" d="M206.6,91.7c-8.2,0.5-11.7-6.4-17-10.5c-2.7,0-4.7-1.2-6.2-3.4c-1.1-4.1-5.9-6.7-4.9-11.7
			c2.9-4.3,6.8-3.3,10.7-1.9c4.5,1.6,8.6,3.7,10.4,8.7c1.2,3.2,3.9,5,7.4,5.4c3.2,3.9,6.3,7.9,9.5,11.8c-1.1,1.3-2.2,2.5-3.2,3.8
			c-1.7,1.3-3.4,1-5.1-0.1C207.6,93.2,207,92.5,206.6,91.7z"/>
		<path class="st62" d="M207,78.3c-4,2.6-6.5,1-8.6-2.8c-2-3.6-5.3-5.8-8.8-7.7c-0.6-2.7-4.3-4.7-2.2-7.7c1.4-2,4-1.6,6.1-0.2
			c1.2,0.9,2.5,1.8,3.7,2.7C201.2,67.4,201,74.8,207,78.3z"/>
		<path class="st63" d="M65.9,107.8c1.3-0.7,2.6-1.3,3.9-2c1.7,0.6,3.3,1.8,3.1,3.4c-1.5,10,4.1,13.9,12.7,15.6
			c5.1,11.3,3.3,22.2-1.7,32.9c-3.5-0.7-3.8,1.7-4,4.1c-4.6-13.6-15.5-24.7-15.8-40C66.6,117.4,65.8,112.5,65.9,107.8z"/>
		<path class="st64" d="M83.3,179.8c-1.6,0.2-3.2,0.8-4.7,0.6c-1.7-0.3-4.6-0.4-4.3-2.9c0.5-3.4,3.6-1.5,5.5-1.9
			C81,177,82.1,178.4,83.3,179.8z"/>
		<path class="st65" d="M83.8,157.7c-1.3-10.6,2-21.6-2.3-32.1c-5.2-5.5-8.2-11.1-1.2-17.3c4.7-2.4,7.6,1,10.7,3.5
			c2.1,2.8,3.8,5.9,5.8,8.8c2.1,2.9,4.9,3.7,8.3,2.8c13.8-5.2,26.7-5.8,37,6.9c1.7,2.5,1.8,5.2,0.8,8c-1.6,4-5.6,3.9-8.8,5.3
			c-1.2,0.8-2.2,2-3.5,2.6c-8.6,2.9-16.9,6.7-25.4,10c-2.4,0.5-4.5-1.5-6.9-0.7c-0.5,0.4-1,0.8-1.4,1.3c-0.9,2.5,0.2,4.6,0.9,6.8
			c2.4,10.2,12.4,14.4,17.8,22.2c0.7,0.8,1.2,1.7,1.5,2.7c1.1,6.1,0.6,10.7-7.5,7.1l-0.1-0.1c-1.8-5.2-8.6-6.3-9.9-12
			c-1.3-0.7-2.7-1.4-4-2.1C90.9,174,83.3,167.9,83.8,157.7z"/>
		<path class="st66" d="M101.5,63.8c0.9-3.1,3.7-4.3,6.1-6c2.8-0.1,4.8-1.9,7-3.1c5.8-3.2,10.4-2.8,13.1,4c-0.1,2.4-1.4,4-3.3,5.3
			c-6.2,1.2-12.2,3.3-18.5,4.3C103.3,67.7,101.9,66.2,101.5,63.8z"/>
		<path class="st67" d="M161.5,50.1c3.5,1.2,6.9,2.5,10.4,3.7c4.6,3.7,8.9,7.5,2.8,13.4c-2.3,1.2-5.2,1.3-6.1-1
			c-2.4-5.9-7.2-5.1-11.8-5.3c-2.4-0.5-4.6-1.5-7-2.2c-5.7-4.5-1.7-6.4,2.2-8.3C155.1,49,158.4,51.9,161.5,50.1z"/>
		<path class="st68" d="M125.8,57.4c-2.9-3.2-5.7-3.6-9.3-0.7c-2.5,2-5.7,3.5-9,1.1c5.5-8.5,12.4-8.6,20.1-3.3
			c1.6,0.2,2.6,1,2.4,2.8C128.8,58.9,127.4,60,125.8,57.4z"/>
		<path class="st69" d="M101.5,63.8c1.6,1,3.2,2.1,4.8,3.1c2.3,1,3.6,2.9,4.1,5.3c0.1,2.9,0.5,5.8-0.3,8.7c-1.6,3.4-4.5,4.1-7.9,3.6
			c-2.6-0.8-3.9-3.2-5.8-4.8c-1.6-2.3-1-4.6-0.1-6.9c0.5-1.7,1-3.3,0.9-5.1C98,65.6,99.6,64.5,101.5,63.8z"/>
		<path class="st70" d="M153.9,52.3c-0.4,1.5-5.6,1-1.9,4.3c-2.1,6.5-6.7,3.4-10.7,2.7c-1.8-1.2-3-2.8-4.5-4.3c-4-4.5-0.6-5.9,3-7.2
			c2.7,0.2,5.3,0.4,8,0.7C150.6,48.6,153.5,48.5,153.9,52.3z"/>
		<path class="st71" d="M173.9,65.6c1.5-5.9,0.2-10.1-6.7-11.2c1.6-0.2,3.1-0.4,4.7-0.6c1.1,0.2,2.3,0.4,3.4,0.6
			c2,1.3,4.1,2.7,6.1,4c3.4,4.5,3.4,4.5-5.2,8.7C175.2,66.9,174.5,66.4,173.9,65.6z"/>
		<path class="st72" d="M139.9,47.9c-0.9,1.5-2.8,3,0.1,4.3c-1.4,7-5,8.2-10.5,3.8c-0.6-0.5-1.2-1-1.8-1.4
			C131.6,52.1,133.7,46.4,139.9,47.9z"/>
		<path class="st73" d="M153.9,52.3c-2-1.3-4-2.5-6-3.8c5.1-3.8,9.4-1.3,13.7,1.5C160.2,55,156.5,51.8,153.9,52.3z"/>
		<path class="st74" d="M97.2,67.6c2.3,0.9,4.1,2.2,4.5,4.8c-3,1.8-6.2,2.8-9.7,3.2c-3.3-0.6-3-3.4-3.6-5.7c0.5-0.8,0.9-1.6,1.4-2.4
			C92.3,67.6,94.7,67.6,97.2,67.6z"/>
		<path class="st75" d="M88.4,69.9c1.1,1.3,2.2,2.6,3.3,4c2.3,3,1,6,0.1,9.1c-3.3,3.6-6.9,6.9-12.3,6.4c-1.5-0.8-2.5-2-1.9-3.9
			C80.9,80.1,88.5,77.7,88.4,69.9z"/>
		<path class="st76" d="M77.5,85.5c0.8,0.9,1.7,1.8,2.5,2.7c1.8,2.7,2.5,6,3.9,8.9c0.2,1,0.2,2-0.2,3c-1.3,2.8-3.4,4.9-6,6.3
			c-2.7,1.4-5.8,2.3-6.1-2.7c1.4-5.9,2.8-11.8,4.3-17.8C76.5,85.8,77,85.6,77.5,85.5z"/>
		<path class="st77" d="M175.4,66.1c2.7-2,8-2.1,6-7.8c4,0.4,8.3-1.4,12,1.6c-7.7-0.4,0.7,6.9-3.8,7.9c-3.3-0.9-6.5-2.5-9.9-0.3
			c-0.2,1.5-0.9,2.6-2.3,3.1c-1,0.1-1.8-0.2-2.5-0.8C174.3,68.5,174.4,67.3,175.4,66.1z"/>
		<path class="st78" d="M71.7,103.7c6.1,2.7,7.1-3.1,9.9-5.9c-0.6-4.3,1.7-5.5,5.5-5.2c4.5,2.9,3.1,6.4,1,9.9
			c-1.7,2.7-4.5,4.6-6.1,7.4c-2.5,5.2,0.8,10.5-0.4,15.7c-2.7,2.3-5.3,4.6-8.4,7.2c-4.3-8.2-6.5-17.2-3.4-27
			C70.4,105.1,71,104.4,71.7,103.7z"/>
		<path class="st79" d="M199.1,217.5c1.5,1.9,0.4,4,0.4,6c-3.4,2.5-4.7,7.8-10,7.9c-1.2,1-2.4,2-4,2.2c-3.5,0-5.4-2.7-7.5-4.9
			c-3.1-8.9,5.7-7.3,9.2-10.4C191.1,217,195,215.5,199.1,217.5z"/>
		<path class="st80" d="M185.3,231.3c1.4,0,2.8,0,4.3,0.1c-0.4,8.8-10.9,5.9-13.9,11.9c-3.4-0.8-6.4-2.1-6.7-6.2
			C172.2,228,173.5,227.5,185.3,231.3z"/>
		<path class="st81" d="M171,237.6c1.6,1.9,3.1,3.7,4.7,5.6c-8.5,4.5-17.7-0.8-26.3,1.8c0.1-1.1,0.2-2.2,0.3-3.3
			c5.5-0.1,10.9-0.1,16.4-0.2C167.1,239.5,166.1,234.6,171,237.6z"/>
		<path class="st82" d="M205.8,205.5c2.4,4.7-1.1,6.2-4.3,8c-2.6-0.1-4.8,0.4-7,2.1c-2.6,2-5.3,1.6-7.3-1.4
			c-0.5-1.3-0.6-2.7-0.6-4.1c0.1-1.8,0.7-3.5,0.9-5.2c1.4-4.6-8.5-5.5-3.8-11.2c2-1.9,4.4-1.8,6.9-1.1
			C199,192.8,201.2,200.6,205.8,205.5z"/>
		<path class="st83" d="M189,213.6c4.2-0.4,8.3-7.2,12.5-0.1c-0.8,1.3-1.6,2.7-2.5,4c-3,1.9-5.7,4.8-9.8,3.9
			C184.1,218.9,184.2,216.3,189,213.6z"/>
		<path class="st84" d="M205.8,205.5c-1,2-3.8,3.4-4,1.2c-0.6-7.5-7.7-7.6-11.3-11.6c-0.2-1.1-0.1-2.1,0.3-3
			c2.8-3.4,6.1-3.1,9.6-1.3c3.1,1.3,2.5,5,4.4,7.1c0.2,0.6,0.3,1.1,0.5,1.7C205.6,201.4,205.7,203.5,205.8,205.5z"/>
		<path class="st85" d="M199.4,193.5c-2.4-1-4.8-2-7.1-3.1c-3.1,2-1.8-1.3-2.6-2.2c2.9-5.5,6.3-10.7,2.5-17.3
			c-2.3-4.1,1.7-6.6,3.4-9.6c1.9-3.5,3.3-7.2,5.7-10.4c0.7-0.6,1.5-1,2.4-1.2c4.1,5.3,2.5,12.5,5.9,18.1c-0.1,1.3-0.1,2.6-0.2,3.9
			C208.3,179.9,207.6,188.4,199.4,193.5z"/>
		<path class="st86" d="M199.4,193.5c5.3-6.4,3.5-16,10-21.8c3.3,5.6,4,11.1-1,16.1c-2.9,2.9-2.7,6.5-3.5,10
			C199.6,200.8,201.9,194,199.4,193.5z"/>
		<path class="st87" d="M221.4,147.7c2.9-1.6,6.3-5.3,7.4,1.6C225.7,151.6,222.7,153.4,221.4,147.7z"/>
		<path class="st88" d="M109.7,195.6c5.6-0.5,4.8-4.3,4.1-8.1c10.9-0.4,17.4,4,17.8,12.1c-0.5,5-4.3,6.4-8.2,7.5
			c-2.1-0.7-5.9,5.4-6-0.4c-0.1-6.3-4.4-6.8-7.9-9C109.6,197,109.7,196.3,109.7,195.6z"/>
		<path class="st89" d="M123.4,207.1c-0.2-4.6,6.2-3.8,6.5-8c1.2-1.4,0.3-3.8,2.4-4.6c2-0.1,3.8,0.1,3.4,2.8
			c-1.7,4.6-2.6,9.8-7.8,12.2C126.4,208.7,124.9,207.9,123.4,207.1z"/>
		<path class="st88" d="M99.8,183.6c4.6,2.9,9.1,5.9,9.9,12C106.4,191.5,97.7,192,99.8,183.6z"/>
		<path class="st90" d="M171,237.6c-1.7,1.3-3.3,2.5-5,3.8c-1.1-3.4-3.9-4.1-7-4.3c-3.6-0.2-6.7-1-5.3-5.9c1-1.6,1.6-3.5,3.5-4.4
			c6.4,0.1,10.8-8.6,18.2-4.2c1.8,0.9,2.4,2.8,3.6,4.2c2.1,1.4,4.2,2.9,6.2,4.3C180.1,232.4,173.7,231,171,237.6z"/>
		<path class="st91" d="M157.4,229.2c0.1,3.1-2,2.3-3.7,2.1c-2.4-2.3-7.7-2.4-6.1-7.8c0-0.5,0.1-1.1,0.1-1.6
			c0.6-0.8,1.4-1.3,2.3-1.5C154.3,221.8,160.7,221.4,157.4,229.2z"/>
		<path class="st92" d="M149.8,221.6c-0.7,0.1-1.4,0.1-2.2,0.2c-1.3-0.1-2.6-0.2-3.9-0.2c-1.4-1.4-2.9-2.9-4.3-4.3
			c-1.5-2.6,0-5.1,0.3-7.6c1.8-2.7,0.9-7.7,6.3-7.1c2.6,1,3.5,3.3,4.1,5.8c-0.9,4.1,0.6,8.1,0.5,12.2
			C150.4,220.9,150.1,221.3,149.8,221.6z"/>
		<path class="st93" d="M146.1,204.1c-3.5,0.3-4.2,3.8-6.4,5.6c0.2-3.9-0.1-7.9,4-10.4c3-1.9,7.3-3.7,6-7.9c-1.2-4-5.9-3.3-9.3-3.9
			c-1.7,0.1-2.7-0.9-3.4-2.3c-0.2-1-0.1-1.9,0.4-2.8c3.6-3.3,7.5-5.1,12.6-4.3c7.6,1.1,13.8-5.7,21.5-4.1c1,0.4,1.7,1.1,2.3,1.9
			c0.9,2.3,2.1,4.6,1.6,7.2c0,1.8-2.6,4.1,1.2,5.1c1.9,0.2,3.1,1.4,4.5,2.5c1.6,1.2,2.5,2.8,2.1,4.9c3.7,2.2,7.4,4.4,11,6.7
			c1.1,0.7,2.6,1.3,1.6,2.9c-1.1,1.7-3,0.9-4.6,0.8c-6.8,5.5-12.2-2.1-18.4-2.1c-3-0.7-6-1.4-9-0.1
			C157.9,204.5,152.1,205.9,146.1,204.1z"/>
		<path class="st94" d="M137.2,184c1,1.1,2,2.3,3.1,3.4c2.4,5.1,2,9-4.6,9.9c-1.2-0.6-2.4-1.2-3.6-1.8
			C127.7,186.8,129,183.9,137.2,184z"/>
		<path class="st95" d="M185.5,131.6c1.8-0.5,3.8-0.9,5.5-1.7c4-1.8,9-6.5,11.8-4.2c3.6,3,3.3,9.5,2.8,14.7
			c-0.2,1.9-1.2,3.6-1.9,5.4c-3.5-0.6-3.5-4.9-6.6-5.8c-6.8,3.5-13.4,7.4-21.5,7c-4.2-0.2-4.7,3.7-4.9,7.1
			c-2.5,4.4-1.5,9.5-2.8,14.2c-1.4,2.1-3.6,3.5-5.2,5.4c-2.7,1.6-5.3,3.4-8.6,1.6c-4.3-3.4-1.3-8.6-3.1-12.6
			c-1.5-7.8-3.7-15.5-5.1-23.4c-0.2-2.3-0.1-4.5,1.5-6.3c0.7-0.9,1.6-1.6,2.7-2c4.8-1.7,9.8-2.5,14.9-1.8
			C171.5,131.6,178.1,135.4,185.5,131.6z"/>
		<path class="st96" d="M175.5,70c0.6,0.1,1.3,0.2,1.9,0.1c4.5,0.4,7.9,2.3,10,6.5c0.7,1.5,1.5,3.1,2.2,4.6
			c-0.6,2.3-1.9,3.9-4.1,4.7c-3.6,1.7-7.1,0.8-10.7-0.2c-5.1-1.1-9.3,3.2-14.3,2.3c-1.9,0.6-3.7,1.3-5.6,1.8
			c-7.9,1.8-15.7,4.7-24.1,2.8c-3.6-2-7.7-3.4-10.3-7.1c-0.2-1-0.2-1.9,0-2.9c1.9-3.9,5.7-5.2,9.4-6.5c2.7-0.8,5.1-2.7,8.1-2.9
			c7.7-1.4,15.5-1.9,22.8-5.2C165.9,67.5,171.3,64.6,175.5,70z"/>
		<path class="st97" d="M165.7,134.1c-5.2-0.2-10.4-0.5-15.6-0.7c-5.2-4.5-3.3-8.8,0.9-12.4c4.3-3.6,9-6.7,14.5-8.3
			c3.5-1.1,7.1-0.1,10.6-0.1c4.1,0,8.7-1.3,11.3,3.6c-2.5,3.5-5.2,6.6-9.8,7.6c-6.8,1.5-0.3,3.7-0.1,5.6
			C175.6,135.8,169.6,132.3,165.7,134.1z"/>
		<path class="st98" d="M187.5,116.2c-4.1-0.2-8.2-0.5-12.2-0.7c-6.2-1.8-7.2-5.2-2.4-9.5c3.1-2.7,4.3-5.5,2.9-9.4
			c0.3-4.9-1.4-9.8-0.3-14.7c3.3,1.3,6.6,2.6,9.9,3.9c-1.2,3.9,0.9,7.1,2.5,10.1C191.7,102.9,191.6,109.5,187.5,116.2z"/>
		<path class="st99" d="M201.3,133.9c2.7,3.6,1.9,7.9,2.3,12c0,1.3,0.1,2.5,0.1,3.8c0,0-0.4-0.1-0.4-0.1
			c-3.8,9.2-10.7,16.8-13.2,26.6c-7.2,1.1-6.8-4.3-7.4-8.8c-0.1-4.9,3.6-8.1,5.9-11.7c3.2-4.8,5.1-9.9,6.1-15.5
			C196.5,137.7,198.4,135.3,201.3,133.9z"/>
		<path class="st100" d="M207.9,92c1.8,0.6,3.6,1.3,5.4,1.9c0.6,4,5.1,9.1,0.7,11.7c-3.7,2.2-7.1-3.5-10.6-5.7
			C203.7,96.6,206.5,94.7,207.9,92z"/>
		<path class="st101" d="M165.7,134.1c3-3.9,8-2.7,11.8-4.7c2.7,0.8,5.3,1.6,8,2.3C179.6,138.2,172.7,135.8,165.7,134.1z"/>
		<path class="st102" d="M215,118c-2.1-1.9-4.2-3.8-7.1-6.4c5.6-2.4,8.3,1,11.5,2.3c0,0,0,0,0,0c0,2,0,3.9,0,5.9
			C217.1,121,216,119.6,215,118z"/>
		<path class="st103" d="M215,118c1.5,0.6,2.9,1.2,4.4,1.8c0.7,3.5,1.4,7,2,10.5C218.8,126.3,213.9,123.6,215,118z"/>
		<path class="st104" d="M207.9,92c2,4.6,0.9,7.4-4.5,7.9c-4.6-4.9,2.8-5.2,3.2-8.2C207,91.8,207.4,91.9,207.9,92z"/>
		<path class="st105" d="M187.4,76.6c-3.3-2.2-6.6-4.3-10-6.5c0.8-0.8,1.6-1.7,2.4-2.5C181.9,70.9,190.2,69,187.4,76.6z"/>
		<path class="st106" d="M166,116.4c-7.5,3.6-16.2,6-15.8,17c-0.3,0.3-0.6,0.5-0.9,0.7c-4,2.5-6.3-2.6-9.8-2.2
			c-10.9-10.8-23-9.3-35.7-3.9c-0.9,0.6-1.7,0.6-2.6,0c-1.2-1.5-1.4-3.2-1.3-4.9c-0.3-0.9-0.7-1.7-1.4-2.4c-1.9-1.9-3.4-4-4.7-6.3
			c3-6.8-0.7-13.5-0.2-20.3c0.9-1.5,2.1-2.4,3.7-2.9c2.7-0.2,5.3-0.4,7.9,0.5c3.9,2.3,2.7,6.2,3,9.7c0.2,2.5-0.6,6.5,2.2,7
			c11.3,1.8,21.4,11.2,33.8,5.1c4.3-1.6,8.9-0.2,13.3-1.5C160.9,111,164.8,111.9,166,116.4z"/>
		<path class="st107" d="M137.2,184c-7.4,1.3-4.2,7.4-5.1,11.6c-0.7,1.2-1.5,2.4-2.2,3.6c-2.6-7.6-12.1-5.9-16.1-11.6
			c0,0-0.1,0-0.1,0c-0.7-0.7-1-1.5-1-2.5c1.1-6,9.5-2.9,10.8-8.7c11.2-9.1,13.6-10.6,8.5-27.4c0.4-3.2,0.1-6.4-0.5-9.6
			c2.9-6.5,5.3-0.6,7.9,0.3c2.4-0.1,4,1.1,5.1,3.1c5.1,7.6,2.3,17.3,6.9,25c0,2,0,4.1-0.3,6.1c-2.6,5.7-11.3,3.4-13.2,10L137.2,184z
			"/>
		<path class="st108" d="M131.7,139.3c2.8,2.1,4,5,4.2,8.4c0.3,3,0,5.9-0.3,8.8c-1.6,15.3-4.5,17.1-19.2,12.3
			c-2.8-0.9-5.5-1.9-8.5-2.2c-10.4-1.2-13.2-5.3-12-16.8c3.1-1.2,5.2,1.7,7.8,2.1c10.2,0.4,20,0,26-10.2
			C130.3,140.9,131,140.1,131.7,139.3z"/>
		<path class="st109" d="M97.9,93.9c-0.7,0.7-1.4,1.4-2.1,2.1c-1.1,5,1.6,10.5-1.7,15.3c-1.1,1.6-1.8,3.5-4.2,2.5
			c-2.6-1.3-5.2-2.6-7.9-3.9c-2.6-7,4.6-10.6,5.8-16.3c-1.8-4.2,1.9-6,3.7-8.7c0.7-0.7,1.5-1.2,2.4-1.5c9.1,1.4,18.5-2.6,27.5,1.2
			c2.2,1,4.5,0.6,6.8,0.3c1.7-0.3,4.3-1.9,4.5,1.4c0.1,1.2-1.9,2.5-3,3.8c-0.7,3.5-3.3,4.5-6.4,4.7C114.8,96.8,106.5,91.3,97.9,93.9
			z"/>
		<path class="st110" d="M95.8,149.8c4.8,10.9,17.2,18.4,29.3,18.1c4.2-0.1,5.6-2.7,6.6-6.1c1.4-4.7,2.8-9.5,4.2-14.2
			c4,10,2.1,19.1-3.7,27.8c-1.8,2.8-3.6,3.4-6.5,2.4c-8.5-1.8-16.7-5-24.2-9.2c-6.7-3.8-10-10.6-7.9-18.9
			C94.3,149.8,95,149.8,95.8,149.8z"/>
		<path class="st111" d="M93.6,149.8c2.1,11.1,8.1,18.3,19.9,20.1c5.1,0.8,8.7,4.4,12.2,8c0.4,2.5,0.8,5,1.4,8.7
			c-4.4-1.6-8.4-4.3-12.5-1.1c-5.2-8.9-15.5-13-20.7-21.9C89.4,153.5,89.4,153.5,93.6,149.8z"/>
		<path class="st112" d="M93.9,163.6c5.4,3.7,10,9,16.6,10.5c7.9,1.8,8.2,5.7,4,11.4c-0.3,0.7-0.6,1.3-0.8,2
			C104.9,181.4,97.7,174,93.9,163.6z"/>
		<path class="st113" d="M129.6,141.7c-4.7,15.7-8,17-26,10.2C112.8,149.9,121.5,146.4,129.6,141.7z"/>
		<path class="st114" d="M89.8,113.8c1.4-6.1,2.5-12.4,6-17.8c3.9,5.9,5.2,11.9,0,17.8c1.9,3.6,1.1,6.6-1.7,9.3
			c-0.8,0.5-1.7,0.9-2.7,1.1C90.9,120.7,90.3,117.2,89.8,113.8z"/>
		<path class="st115" d="M141.9,143.7c-0.8-1.4-1.6-2.8-2.3-4.1c0-2.6-0.1-5.1-0.1-7.7c5-7.1,7.2-1.4,9.8,2.2
			c0.3,1.8,0.6,3.6,0.9,5.4C150.4,146.7,146.6,146.1,141.9,143.7z"/>
		<path class="st116" d="M118,138.2c-2.7-1-5.4-2.1-8.6-3.3c2.2-3.6,6.3-4.6,9.1-3.4C121.5,132.8,117.1,135.8,118,138.2L118,138.2z"
			/>
		<path class="st117" d="M118,138.3c2.1,0.2,4.1,0.5,6.9,0.8c-3.2,4.1-6.8,5.4-11.5,5.9C112.7,140.7,117.2,140.7,118,138.3
			C118,138.2,118,138.3,118,138.3z"/>
		<path class="st114" d="M101.7,127.6c0.7,0.1,1.4,0.2,2.2,0.3c-6.5,6.5-9.8,2.5-12.4-3.8c0.4-0.3,0.7-0.6,1.1-0.8
			C97.3,121,98.6,126.2,101.7,127.6z"/>
		<path class="st118" d="M108.2,72.4c-1.6-1.5-2.1-3.4-1.8-5.5c4.9-4.8,11.2-5,17.5-5.1c2.8-1.6,5.9-2.5,9.2-2.2
			c1,0.3,1.8,0.8,2.5,1.6c3.3,5.8,1.5,9.9-4,13c-2.4,3-6.6,3.6-8.8,6.9c-9.1,5.7-10.8,5.1-14.1-5.3C108.6,74.6,109,73.4,108.2,72.4z
			"/>
		<path class="st119" d="M133.6,61.6c-3.2,0.1-6.5,0.1-9.7,0.2c0.7-1.5,1.3-2.9,2-4.4c1.5,0.3,3.1,0.6,3.6-1.5
			c4.2,0.8,7.9,0,10.5-3.8c0.5,1.2,1,2.4,1.6,3.7C141.5,61.4,138.5,62.9,133.6,61.6z"/>
		<path class="st120" d="M175.5,70c-5.1-2.7-9.5,1.3-14.3,1.7c-3-2.3-6-1.4-9.4-0.6c-4,1-8.3,2.5-12-1.1c-0.8-1.4-0.9-3-0.8-4.5
			c3.5-9,12.2-4.6,18.2-7.2c8.3-3.8,12.1,2.4,16.6,7.3c0.5,0.2,1,0.3,1.5,0.6C175.4,67.4,175.5,68.7,175.5,70z"/>
		<path class="st121" d="M157.3,58.3c-4.3,4.3-11.6,2.7-15.5,7.9c-3.7,5-5.5,0.4-7.8-1.5c-0.1-1-0.3-2-0.4-3c2.7-1.9,5.3-3.8,8-5.8
			c3.5,0.1,6.8,2.7,10.4,0.8C153.7,57.2,155.5,57.7,157.3,58.3z"/>
		<path class="st96" d="M109.7,76.5c3,4.7,6.5,7.5,12,3.5c1.2,1,1.1,2.2,0.4,3.5c-0.2,0.4-0.5,0.8-0.7,1.2
			c-8.8,4.6-18.1-0.4-27.1,1.4c-0.3-5.9,0.5-6.3,7.6-4.1c2.8-0.5,6.2,0.1,7-4C108.7,77.2,109,76.7,109.7,76.5z"/>
		<path class="st122" d="M109.7,76.5c-0.3,0.5-0.6,1-0.9,1.5c-5.1-1.3-1.5-3.6-0.6-5.5c4.3-3.2,8.7-4.1,13.8-0.7
			C118.7,76.3,112.4,71.8,109.7,76.5z"/>
		<path class="st123" d="M89.8,81.5c0.6-2.5,1.3-5.1,1.9-7.6c3.1-2.1,6.5-2.3,10-1.5c-0.1,2.8-2.5,3.8-4.3,5.2
			c-2.3,2.6-3.1,7.1-8,6.5C89,83.1,89.1,82.2,89.8,81.5z"/>
		<path class="st124" d="M89.8,83.9c2.7-1.9,4-5.4,7.6-6.4c2.2,0.7,3.8,2,4.4,4.4c-0.9,4.4-7.1-1.1-7.6,4.1c0,0-0.5-0.2-0.5-0.2
			c-1.1,1.2-2.4,1.3-3.8,0.6C89.3,85.6,89.3,84.8,89.8,83.9z"/>
		<path class="st125" d="M89.8,83.9c-0.1,0.7-0.2,1.3-0.2,2c-1.7,5.4-7.7,7.1-10.1,12c-4.5-3.5-1.6-6.6,0.5-9.7
			c3.2-2.2,6.5-4.5,9.7-6.7C89.8,82.3,89.8,83.1,89.8,83.9z"/>
		<path class="st126" d="M79.5,97.9c1.3-5.7,4.6-9.8,10.1-12c1.3,0,2.7,0,4,0c0.5,4.5-5.3,4.2-6,7.7c-2.8,0.3-4.6,2.1-6.2,4.1
			C80.9,97.8,80.2,97.8,79.5,97.9z"/>
		<path class="st127" d="M179,227c-1.4-0.1-2.8,0-3.5-1.6c-1.8-3.3-5.6-4.7-7.3-8.1c-0.3-2.1,0.6-3.7,2.3-5c4.1-1,8.8,0.8,12.2-3.6
			c1.5-2,4.7-1.8,6.8,0.7c-0.2,1.4-0.3,2.7-0.5,4.1c-1.7,2.7-1.5,5.2,0.3,7.8C188.4,227.7,180.4,221.3,179,227z"/>
		<path class="st128" d="M185.3,167.6c2.1,2.2,0.8,6.1,3.6,7.9c6.4,2.7,3.2,7.7,2.9,11.9c0.1,1,0.3,2,0.4,2.9
			c-0.6,1.5-1.1,3.1-1.7,4.6c-2.5,0.1-5,0.3-7.5,0.4c-0.9-0.8-1.7-1.7-2.6-2.5c-3.4-5.5-3.1-12.9-9-17.1l-0.7,0.2
			c-3.4-1.1-8.2,1.5-9.8-4c1-2.4,2.6-4,5-4.7C171.8,161.5,177.3,161.5,185.3,167.6z"/>
		<path class="st129" d="M189.5,209.5c-5.3,3.3-9,13.1-17.4,4.6c-0.9-0.2-1.6-0.7-2.3-1.3c-1.1-2.5-3-4.7-2.4-7.7
			c0.6-3.3,4.2-3.4,6-5.5c5.9,2.1,11.8,4.2,17.6,6.2C190.6,207,190.1,208.2,189.5,209.5z"/>
		<path class="st130" d="M191.9,187.5c-3.3-3.4-2.2-7.9-2.9-11.9c0.9-10.8,8.4-18,14.4-26c0.2,4.5-1.8,8.2-4,11.9
			c-2.3,3.9-6.7,7.1,1.6,10.3C205.5,173.6,200.5,182.8,191.9,187.5z"/>
		<path class="st131" d="M169.9,217.7c5.6-0.1,7.9,2.2,5.7,7.8c-2.7-0.6-5.3-1.9-7.7,1.3c-2.6,3.4-6.5,3.8-10.4,2.5
			c-0.4-4.7-5.7-4.4-7.6-7.5c0,0,0.2-0.6,0.2-0.6l-0.6-0.2c1.4-2,2.8-4,5.5-4.2C159.9,216.3,164.7,219.6,169.9,217.7z"/>
		<path class="st132" d="M146.1,204.1c5-5,12.2-0.4,17.5-4c2,1.7,2.4,3.8,1.6,6.2c-1.7,3.5-5.2,4.2-8.4,5.4
			c-3.3,0.2-6.7,1.1-9.3-2.1C147.1,207.8,146.6,205.9,146.1,204.1z"/>
		<path class="st133" d="M147.6,209.6c2.7-0.7,5.3-1.3,8-2c2.3,2.2,2.8,4.9,2.4,8c-0.4,1.5-1.4,2.5-2.6,3.4c-1.8,1.2-3.4,3.2-6,1.9
			C143,218.1,145.9,213.7,147.6,209.6z"/>
		<path class="st134" d="M161,172.2c2.8,2.4,7.4,0.6,9.8,4c-9.9,6.9-21.6,6.1-32.8,7.6c-1.3-9.5,4.8-10.5,11.9-10.4
			c1.2-0.9,2.4-0.9,3.5,0.2C156,173.1,158.5,172.6,161,172.2z"/>
		<path class="st135" d="M171.6,175.9c9.9,1.9,12.6,6.9,8.9,17.1c-1.6-0.5-3.3-0.9-4.9-1.4c-4.1-1.3-6.9-3.3-4.4-8.2
			C171.3,180.9,171.5,178.4,171.6,175.9z"/>
		<path class="st136" d="M171.2,183.4c1.5,2.7,2.9,5.5,4.4,8.2c-3.1,2.5-6.4,2.5-8.5-0.9C164.8,186.7,167.9,184.8,171.2,183.4z"/>
		<path class="st137" d="M163.6,205.4c0-1.8,0-3.6,0.1-5.4c3.3-0.2,6.6-0.3,9.9-0.5c0.7,3.3-2.1,4.1-4.1,5.5
			C167.6,207.2,165.6,207.1,163.6,205.4z"/>
		<path class="st138" d="M201.3,133.9c-0.3,2.7,0,5.5-2.1,7.8c-2.7,8.5-9.8,13.8-15.3,20.1c-4.8,5.5-14.6,0.9-18.8-8
			c-4.2-11.3-3.2-13.2,8-12.3c8.5,0.7,16.1,1.6,20.3-8.5C195.6,127.9,198.7,132.9,201.3,133.9z"/>
		<path class="st139" d="M165.2,153.8c11,8.3,14.6,8,23.7-1.8c3.3-3.6,6.9-6.9,10.4-10.3c-0.1,11.1-11.3,16.2-13.9,25.9
			c-6.5,5.1-12.8-4.3-19.2-0.2C164.4,163,165.1,158.4,165.2,153.8z"/>
		<path class="st140" d="M141.9,143.7c3.5,0,6.5-0.8,8.3-4.2c1.9,8,3.9,16,5.8,24.1c-1.6,3.8-4.8,5.4-8.6,6.2
			C142.5,161.7,144.2,152.3,141.9,143.7z"/>
		<path class="st141" d="M147.4,169.8c-0.1-6.1,0.4-11.5,8.6-6.2c3.3,4.4,0.2,7.1-2.6,9.9c-1.2-0.1-2.3-0.1-3.5-0.2
			C149.1,172.1,148.2,171,147.4,169.8z"/>
		<path class="st142" d="M124,92.3c2.3,0.3,4-1,5.7-2.2c8.6-1.4,17.2-2.9,25.9-4.3c7.9,0.3,11.3,7,15.4,11.9
			c3.4,4.1,0.7,8.5-3.3,11.6c-15.8,1.3-31,8.1-47.3,5.7c-4.7-0.7-10.7-0.1-10.2-6.3c0.4-5.6-2-14.3,8.3-15.2
			C120.2,92.7,122.2,93.1,124,92.3z"/>
		<path class="st143" d="M165.6,105.8c2-2.3,4.4-6.8,1.1-7.1c-8.9-0.7-7.1-9.1-11.1-12.9c1.3-0.6,2.7-1.3,4-1.9
			c12.8-2.7,16.7-0.5,21.9,11.9c4.9,6.7,3.6,11.4-4.6,13.6c-4.3,1.2-4.2,3.2-1.7,6.1c-3.1,0.3-6.2,0.6-9.3,0.9
			c-7.5-2.9-13.4,3.6-20.4,3.3c-2.9-8.5,4.8-7.9,8.9-9.4C158.2,108.8,163,110.2,165.6,105.8z"/>
		<path class="st144" d="M141.7,69.7c4.7-1.3,9.4-2.6,14.1-4c2.8-0.9,5.8-3.4,8.3-1c3.8,3.7-5.9,3-2.8,7c-6.4,4.6-13.5,7-21.4,6
			C134.3,73.6,137,71.4,141.7,69.7z"/>
		<path class="st145" d="M141.7,69.7c-1.5,2.5-3.5,4.8-1.9,8c-2.7,0.6-5.5,1.1-8.2,1.7c-2.9-1.7-0.6-5.2-2.5-7.2
			c-3.4-0.1-5.2-2.3-6.9-5.1c3.2-2.4,5.4,0.5,7.8,1.4c4.6,1.8,4-1.4,4-4c2.8-0.3,4.8,3.1,7.8,1.5C141.8,67.4,141.7,68.5,141.7,69.7z
			"/>
		<path class="st146" d="M181.5,95.8c-5.7-6.9-11.8-13.1-21.9-11.9c4.9-3.8,10.3-3.8,15.9-1.9C178.6,86.1,182.1,90,181.5,95.8z"/>
		<path class="st147" d="M129.1,72.3c4.3,1.2,2.5,4.5,2.5,7.2c-3.2,1.3-6.4,2.7-9.5,4c-0.1-1.2-0.2-2.3-0.4-3.5
			C122.3,75.7,127.1,75.3,129.1,72.3z"/>
		<path class="st148" d="M165.6,105.8c-1.3,5.2-6.2,5-10,6.7c-3.8,1.7-8.3,2.6-10.1,7.2c-10.9,0.2-21.5-2.1-31.9-4.7
			c-10.6-2.6-13.5-11.8-7.3-20.9c4.4-2,8.8-1.8,13.2-0.1c-7,4.7-4.1,7.5,1.8,9.8c-0.1,0.4-0.1,0.7-0.2,1c-2.7,8.7-2.6,8.9,10.2,7.1
			C142.8,110.2,154.2,107.9,165.6,105.8z"/>
		<path class="st149" d="M101.7,127.6c-4.6,1.8-6.5-2.1-9.2-4.3c-0.4-3.7,1.3-6.7,3.3-9.5c2,1.2,4,2.5,6,3.7
			c2.7,1.5,4.1,3.3,1.8,6.2C103,125,102.3,126.3,101.7,127.6z"/>
		<path class="st114" d="M103.6,123.7c-0.6-2.1-1.2-4.1-1.8-6.2c3.3-4.8,7.5-1.9,8.4,0.8C112.2,123.8,106.3,122.3,103.6,123.7z"/>
		<path class="st114" d="M119.6,94c-4.4,0-8.8,0.1-13.2,0.1c-2.8-0.1-5.6-0.2-8.4-0.3c8.5-3.3,17.3-2.1,26.1-1.6
			C122.5,92.9,121.1,93.5,119.6,94z"/>
		<path class="st129" d="M155.5,218.9c0.1-1,0.3-2,0.4-2.9c4.1-6.6,9.3-7.2,15.4-2.9c0.3,0.3,0.5,0.6,0.8,1
			c-0.7,1.2-1.5,2.4-2.2,3.6C165.6,224,160.4,219.9,155.5,218.9z"/>
		<path class="st150" d="M171.3,213.1c-5.1,1-10.3,1.9-15.4,2.9c-3.7-2.7-2.5-5.5-0.3-8.4c2.6-0.7,5.3-1.5,7.9-2.2
			c1.9-0.1,3.9-0.2,5.8-0.3C175.7,206.4,176.6,209.1,171.3,213.1z"/>
		<path class="st151" d="M136.5,107.8c-6,0.2-9.6-3.1-10.6-8.5c-1.1-6,4.6-5.3,7.9-6.8c0.9-0.4,1.9-0.6,2.9-0.7
			c3.8-0.5,8.2-3.5,11.1,0.5c2.3,3.1-0.6,7-1.5,10.4C145,107.1,140.6,107.6,136.5,107.8z"/>
	</g>
</g>
</svg>
