<?xml version="1.0" encoding="utf-8"?>
<!-- Generator: Adobe Illustrator 25.2.1, SVG Export Plug-In . SVG Version: 6.00 Build 0)  -->
<svg version="1.1" id="Camada_1" xmlns="http://www.w3.org/2000/svg" xmlns:xlink="http://www.w3.org/1999/xlink" x="0px" y="0px"
	 viewBox="0 0 300 300" style="enable-background:new 0 0 300 300;" xml:space="preserve">
<style type="text/css">
	.st0{fill:#1C1102;}
	.st1{fill:#241603;}
	.st2{fill:#261503;}
	.st3{fill:#180F01;}
	.st4{fill:#241503;}
	.st5{fill:#2B1B02;}
	.st6{fill:#331F06;}
	.st7{fill:#3E2104;}
	.st8{fill:#4F2B0A;}
	.st9{fill:#713C09;}
	.st10{fill:#562D02;}
	.st11{fill:#663908;}
	.st12{fill:#794205;}
	.st13{fill:#E19D35;}
	.st14{fill:#834C0E;}
	.st15{fill:#703D06;}
	.st16{fill:#F7A635;}
	.st17{fill:#99530E;}
	.st18{fill:#7B470B;}
	.st19{fill:#DB8B24;}
	.st20{fill:#A36519;}
	.st21{fill:#D18416;}
	.st22{fill:#281703;}
	.st23{fill:#371D06;}
	.st24{fill:#391D0C;}
	.st25{fill:#6D4E2C;}
	.st26{fill:#503315;}
	.st27{fill:#A47741;}
	.st28{fill:#896641;}
	.st29{fill:#371E05;}
	.st30{fill:#1C0E06;}
	.st31{fill:#2A150A;}
	.st32{fill:#46240C;}
	.st33{fill:#5D3119;}
	.st34{fill:#372511;}
	.st35{fill:#674420;}
	.st36{fill:#7F572D;}
	.st37{fill:#B6824E;}
	.st38{fill:#9A693A;}
	.st39{fill:#DFB25E;}
	.st40{fill:#D09B5B;}
	.st41{fill:#804E1D;}
	.st42{fill:#5C3016;}
	.st43{fill:#9B6712;}
	.st44{fill:#E3B848;}
	.st45{fill:#A67618;}
	.st46{fill:#713F20;}
	.st47{fill:#6A391C;}
	.st48{fill:#80482B;}
	.st49{fill:#AD691F;}
	.st50{fill:#EDC059;}
	.st51{fill:#E8B959;}
	.st52{fill:#E6B84E;}
	.st53{fill:#FAD36E;}
	.st54{fill:#EDBB5F;}
	.st55{fill:#5D2914;}
	.st56{fill:#77402A;}
	.st57{fill:#422606;}
	.st58{fill:#522C0D;}
	.st59{fill:#4B2909;}
	.st60{fill:#2E1B0A;}
	.st61{fill:#3F210F;}
	.st62{fill:#B8703C;}
	.st63{fill:#5F3519;}
	.st64{fill:#794824;}
	.st65{fill:#6D4A2E;}
	.st66{fill:#F5BD92;}
	.st67{fill:#754C2E;}
	.st68{fill:#432609;}
	.st69{fill:#5E350E;}
	.st70{fill:#683D21;}
	.st71{fill:#8B5836;}
	.st72{fill:#8D5D46;}
	.st73{fill:#402D13;}
	.st74{fill:#443214;}
	.st75{fill:#45210B;}
	.st76{fill:#966A39;}
	.st77{fill:#915730;}
	.st78{fill:#EABA83;}
	.st79{fill:#704B34;}
	.st80{fill:#704927;}
	.st81{fill:#9D653D;}
	.st82{fill:#622F11;}
	.st83{fill:#896949;}
	.st84{fill:#973E1B;}
	.st85{fill:#B26938;}
	.st86{fill:#683709;}
	.st87{fill:#714315;}
	.st88{fill:#F8C872;}
	.st89{fill:#D2884C;}
	.st90{fill:#884E29;}
	.st91{fill:#AB6B40;}
	.st92{fill:#F1AE62;}
	.st93{fill:#D9894B;}
	.st94{fill:#A46836;}
	.st95{fill:#A97950;}
	.st96{fill:#7E4416;}
	.st97{fill:#C58B60;}
	.st98{fill:#AD753C;}
	.st99{fill:#814823;}
	.st100{fill:#876635;}
	.st101{fill:#57361B;}
	.st102{fill:#683118;}
	.st103{fill:#925B34;}
	.st104{fill:#56321B;}
	.st105{fill:#93552C;}
	.st106{fill:#2D1504;}
	.st107{fill:#6E3E17;}
	.st108{fill:#331904;}
	.st109{fill:#F4AA64;}
	.st110{fill:#8F3A1A;}
	.st111{fill:#A36532;}
	.st112{fill:#EDBB79;}
	.st113{fill:#582D0D;}
	.st114{fill:#E8CE8C;}
	.st115{fill:#C07243;}
	.st116{fill:#D66A39;}
	.st117{fill:#F6BD76;}
	.st118{fill:#F48848;}
	.st119{fill:#D78E4D;}
	.st120{fill:#FAEB8C;}
	.st121{fill:#F9DD84;}
	.st122{fill:#BF5F2E;}
	.st123{fill:#7C491D;}
	.st124{fill:#4D2B16;}
	.st125{fill:#F9C578;}
	.st126{fill:#BE7441;}
	.st127{fill:#ECC280;}
	.st128{fill:#956C4A;}
	.st129{fill:#B2622E;}
	.st130{fill:#FBB062;}
	.st131{fill:#F7924D;}
	.st132{fill:#F3AD6B;}
</style>
<g>
	<g>
		<path class="st0" d="M38.1,299.8c-10.7,0-21.3-0.3-32,0.1c-5,0.2-6.2-1.1-6.1-6.1c0.2-46,0.1-91.9,0.1-137.9
			c2.9-3.5,5.2-8.5,11.1-6c5.2,2.3,3.5,7,3.7,11.4c0.3,10.4-1.4,21.9,11.4,27c7.6,14,12.4,29.7,23.9,41.5c1.4,1.4,2.7,2.9,4.1,4.3
			c5.9,7.3,13.9,11.9,21.3,17.4c10.9,8.1,10.9,8.5,4.3,20.8c-2.8,1.7-6.2,2.7-7.4,6.2c-6,3.2-11.7,6.8-16.6,11.6
			C51.1,295.5,45.3,298.9,38.1,299.8z"/>
		<path class="st1" d="M213.9,0.1c26.6,0,53.3,0.2,79.9-0.1c5-0.1,6.2,1.1,6.1,6.1c-0.3,32.6-0.1,65.3-0.1,97.9
			c-8.1,5.2-12,3.9-14-4.8c-0.4-1.8-0.9-3.5-0.9-5.4c0-1.6-0.2-3.2-1-5.5c-0.1-0.5-1.2,1.1,0,0.6c0.2-0.1,0.4,0.2,0.4,0.9
			c1.2,11.5,5.5,22.4,6.1,34c0.5,9.7-1.6,12.4-9.9,12.5c-4.5-6.5-3.1-14.6-6.3-21.5c-5-18.2-11.4-35.7-24-50.3
			c-4.2-5.6-9.4-10.1-14.6-14.6c-4.5-6-11.8-8.9-16.8-14.4C216.3,28,209.9,24,204,19.7c-3.3-2.4-6.8-4.4-5.8-9.2
			c1-4.5,4.7-6.2,8.7-7.4C209.4,2.5,211.9,1.8,213.9,0.1z"/>
		<path class="st2" d="M299.9,277.9c0,1.3,0,2.7,0,4c-2.1,2.3-4.5,1.5-7.1,0.9c-8.9-1.9-17.6-4.8-25.6-9c-12.4-6.5-26.5-7.7-39.3-13
			c-4.9-2-10.1,2.3-15.5,2c-7.1,0.2-9.3-4.2-9.5-10.3c1.3-11.7-1-23.5,1.8-35.1c-1.4-4.7-3.6-8.8-8.7-10.5c-4.9-6.8-3.9-12.7,3.9-16
			c5.4-2.3,6.3-11,14-9.5c7.5,4,7.2-2,8.3-6.4c1.2-4.7-2-11.2,5.2-13.6c5-0.5,9.7-2,14.7-2.4c8.3-0.7,13.9-5.5,18.4-12.2
			c7.7-11.6,8.6-11.6,16.8-1c1,1.3,2.3,2.4,2.9,4c0.6,2.5,0.4,5,0.7,7.5c2.6,16.2-5.2,30-10.6,44.2c-2.7,7-6,13.8-6.8,21.4
			c-2.2,5.2-5.1,10-8.9,14.3c-5.4,6-4.9,9.1,2.1,12c12.4,5.2,22.6,13.9,34.7,19.5C295.9,270.5,297.6,274.4,299.9,277.9z"/>
		<path class="st3" d="M299.9,277.9c-18.7-7.2-33.9-20.9-52.8-27.5c-6.8-2.4-6.6-6.2-1.7-11c5.2-5,11.2-9.6,12.6-17.4
			c7.4-13.5,14.6-27,18.6-42c2.1-7.9,4.2-15.7,3.3-24c1.2-6.6-4.5-13.9,2.3-19.8c3.6-4.5,4.1-9.6,2.9-15.1
			c-2.8-12.7-1.1-26.6-10.7-37.5c-1.7-2-3.1-5.8,0.2-8c3.2-2.1,5.5,0.6,7.5,3c3.7,4.6,7.8,8.6,7.1,15.6c-0.6,6.8,3.7,10.2,10.7,10
			C299.9,162,299.9,219.9,299.9,277.9z"/>
		<path class="st4" d="M24,192c-9-6.7-14.6-14.5-12.4-27c2-11.4-0.1-12.5-11.6-9c0-31.3,0-62.6,0-93.9c1-1.3,1.9-2.8,2.1-4.5
			C3.3,49.5,6,42.5,14.7,40c7.5-2.2,15-5.9,23.2-2.4c2.8,1.2,5.9,1.7,8.8,1c9.3-2.2,12.8,2.7,14,10.8c0,1.6-0.6,2.9-1.6,4.1
			c-9.3,8.9-17,19-23,30.4c-7.5,12.3-12.3,25.5-13.4,39.9c-2,16.9-3.4,33.8,1.4,50.5C26.1,180.3,30.9,186.2,24,192z"/>
		<path class="st5" d="M58,49.9c-2.5-4-4.2-9.6-11-5.2c-1.3,0.9-3.9,0.2-5.7-0.2c-19.8-5.1-25.8-2.9-37,13.5c-1.1,1.6-2.8,2.7-4.3,4
			c0-19,0.2-38-0.1-56.9C-0.1,0.8,0.8,0,5.1,0c28.3,0.2,56.6,0.1,84.9,0.1c2.3,6.1-2.7,7.1-6.3,9.2c-8.8,5.3-9,6.7-1.2,13.6
			c2.3,2.1,4.4,4.1,4,7.5C78.5,39.1,69.6,46.4,58,49.9z"/>
		<path class="st6" d="M84,30c-4.2-4.3-9.5-5.7-15.2-6.5c-2.3-0.3-4.4-1.7-5-4.3c-0.6-3,1.8-3.7,3.8-5c7.5-4.6,15-9.4,22.4-14.1
			c41.3,0,82.6,0,123.9,0c-2.4,5.3-11.3,6.3-10.7,11.8c0.4,3.9,8.1,5.7,10.5,10.6c2.1,4.3,8.7,5.4,8.2,11.5
			c-2.2,1.9-4.7,0.9-7.1,0.8c-8.7-2.3-15-9.6-23.9-11.5c-3.5-0.8-6.9-2.3-10.6-2.1c-9.4-0.2-18.3-3.3-27.6-4
			c-20.7-1.6-39.9,3-58.1,12.5c-2,1.1-3.9,2.5-6.4,2.6C86.5,32.3,85.1,31.4,84,30z"/>
		<path class="st7" d="M213.9,259.9c6.5-7.5,12.6-3.4,20.7-1.9c23.3,4.5,43.2,16.8,65.2,23.8c0,2,0,4,0,6
			c-9.2,5.4-18.2,1.6-26.8-1.2c-8.6-2.8-17.2-5-26.1-5.5c-10.1-0.6-17.2-5.5-23-13.2c-2.5-5-6.7-1.5-10.2-2
			c-0.9-0.4-1.6-0.9-2.2-1.6C210.6,262,212.3,261,213.9,259.9z"/>
		<path class="st8" d="M53.9,287.7c4-5.8,10.6-8.1,16.3-11.8c4.6-1.6,9.5-2.5,13.2-6.4c3.1-3.3,6.8-3,10.9-1.1
			c7.2,3.4,14.8,4.5,22.6,2.2c4.4,1,4.3,5.1,5.7,8.1c0.9,2.4-0.1,4.6-0.5,6.9c1,4.1,3.8,1.6,5.9,1.6c2-0.1,3.7,0.8,5.4,1.5
			c2.1,1,3.7,2.8,5.9,3.7c7.9,3.2,15.8,0.9,23.7,0.3c1,0,1.9,0,2.9-0.1c5.2,1.1,10.4,1.9,15.6,0.2c1,0,2,0.1,3.1,0.2
			c3.6,1,5.9,2.7,3.5,6.8c-27.3,0-54.6,0-81.9,0c-2.9-6.8-6.6-11.4-15.5-9.4c-4.4,1-9-5.6-14.3-1.2c-1,0.3-2,0.3-2.9,0.2
			c-3.9-0.6-7.9-1-11.7,0.3C58.5,290.7,55.7,291.3,53.9,287.7z"/>
		<path class="st9" d="M188,299.8c-1.1-2.8-3.5-3.7-6.2-4.2c-0.4-1.1-0.6-2.3-0.7-3.5c0.1,1.2,0.3,2.4,0.8,3.5
			c-5.2,3.2-10.5,2.9-15.9,0.4c0,0,0-0.8,0-0.8c0,0-0.5-0.5-0.6-0.5c0,0.1-0.8,0.1-0.8,0.2c0,0.1-0.6,0.7-0.6,0.7
			c0,0,0.2,0.9,0.2,0.9c-9.4,2.1-18.8,2.3-28.1-0.4c0.4-2.2,2.1-2.9,3.9-3.4c0.9-0.3,1.8-0.6,2.5-1.1c-0.1,0,0-0.5-0.1-0.5
			s-0.5-0.4-0.6-0.4c-1.4-0.5-2.7-0.7-4.1-0.9c-3-0.7-6.1-0.1-9-0.6c-7.8,2.9-10.3,1.8-12.5-5.6c1.3-1.3,2.7-2.5,4-3.8
			c-0.7-1.1-0.6-2.1,0.2-3c2.1-2.2,4.7-2.6,7.5-2.2c5,0.2,9.7,1.7,14.1,3.7c3.3,1.6,6.1,1.9,9.2,0.5c10.4,1.1,20.7,0.1,31.1-0.1
			c5.4-0.1,9-3.9,13.2-6.4c4.6-0.9,8.9-2.4,11.8-6.4c1.3-1.4,2.9-2.3,4.9-1.9c0.7,0.1,1.4,0.1,2.1,0.2c0.8,0.6,1.5,1.3,2.1,2.1
			c2.3,5.1-0.8,8.4-4.4,10.8c-3.2,2.2-5.2,4.9-6.9,8.1c-3,6.9-8.4,11.4-15,14.7C189.3,299.8,188.6,299.8,188,299.8z"/>
		<path class="st10" d="M226.3,263.8c4.2,9,11.7,13.4,21.2,13.9c18,1,34.9,6.9,52.4,10.2c0,12,0,12-14,12c-2.1-2-4.4-3-7.6-2.7
			c-9.1,0.9-16.6-2.4-22.6-9.2c-4.6-0.7-9-5-13.9-0.8c-1.1,1-2.3,1.6-3.8,1.8c-8.2-2.1-15.5-5.5-19.7-13.5
			c-1.1-4.2,2.4-6.8,3.7-10.1C223.2,264.2,224.6,263.7,226.3,263.8z"/>
		<path class="st11" d="M74.2,286c4.1-5.1,8.3-8.1,13.3-0.9c1.5,2.2,4,2.4,6.3,1.1c3.7-2,7.3-5.8,11.4-1.3c4.2,4.6,2.8,9.8,0.8,15
			c-2,0-4,0-6,0c-1.9-1.2-4.2-3.6-6.1-2.7C82,302.6,78.7,293.4,74.2,286z"/>
		<path class="st12" d="M221.9,275.8c6.8,0.9,10.4,6.8,15.9,9.9c4,8.9-3.2,10.4-8.7,12.9c-5.1-1-10.4-4.1-15.1,1.2c-2,0-4,0-6,0
			c-1.9-4.1-1.2-8,0.6-11.9C212.9,283.7,211.6,273.4,221.9,275.8z"/>
		<path class="st13" d="M228.4,298.2c3.4-3.9,7.2-7.5,9.3-12.4c0.7-0.7,1.4-1.4,2.2-2.1c5.9-4.1,12-4.1,16.6,1.2
			c4,4.6,3.4,10.2-0.6,15c-3.3,0-6.7,0-10,0c-2-2.6-4-1.6-6,0c-4,0-8,0-12,0C226.8,298.9,226.9,298.4,228.4,298.2z"/>
		<path class="st14" d="M74.2,286c6.9-0.6,8,3.4,10.1,9.1c1.6,4.3,8.7-6.3,13.1,0.6c0.9,1.4,1.8,2.8,2.7,4.2c-6.7,0-13.3,0-20,0
			c-3.8-5.8-10.3-0.1-14.6-3.6C62.7,288.1,70.5,288.8,74.2,286L74.2,286z"/>
		<path class="st15" d="M257.9,281.9c5.4,7.6,11.6,13.5,22,12.4c3.2-0.3,5.1,2.4,5.9,5.5c-8,0-16,0-24,0
			C255.3,295,257.8,288.2,257.9,281.9z"/>
		<path class="st11" d="M74.1,286c-2.7,3.3-5.3,6.6-8,9.9c0.5,0.5,0.6,1.1,0.5,1.6c-0.1,0.5-0.3,0.8-0.4,0.8
			c-6.8-0.6-13.8-3.8-20.1,1.5c-2.7,0-5.3,0-8,0c6.1-3,10.6-7.9,15.8-12.1C60.6,286.7,67.1,282.9,74.1,286z"/>
		<path class="st16" d="M190,299.8c2.4-6.6,8.5-10.2,12.1-15.9c1-0.8,2.1-1.1,3.4-0.7c5.5,5.4,2.5,11,0.5,16.6
			C200.6,299.8,195.3,299.8,190,299.8z"/>
		<path class="st12" d="M257.9,281.9c1.3,6,2.7,12,4,17.9c-2,0-4,0-6,0c1.5-16.3-1.2-19-16-16.2
			C245.4,277.5,251.7,280.3,257.9,281.9z"/>
		<path class="st17" d="M228.4,298.2c0,0.6-0.2,1.1-0.5,1.6c-4.7,0-9.3,0-14,0c0.3-0.6,0.5-1.2,0.8-1.8c2.1-3.7,4.1-8.9,8.3-9
			C228,288.9,225,295.9,228.4,298.2z"/>
		<path class="st18" d="M46.1,299.8c9-9.4,11.5-9.7,19.6-2.2c0.7,0.4,0.9,0.8,0.8,1.3c-0.1,0.6-0.2,0.8-0.4,0.8
			C59.4,299.8,52.8,299.8,46.1,299.8z"/>
		<path class="st19" d="M205.9,299.8c-0.6-5.4,1.3-11.1-2.1-16.1c0.9-4.3,3.7-4.2,6.6-2.6c3.5,2.1,3.2,5.3,1.5,8.6
			c-1.3,3.3-2.7,6.7-4,10C207.3,299.8,206.6,299.8,205.9,299.8z"/>
		<path class="st20" d="M66.1,299.8c-0.1-0.7-0.3-1.4-0.4-2.2c0.2-0.6,0.4-1.2,0.5-1.8c5.2-0.6,11.6-5.8,13.9,3.9
			C75.4,299.8,70.7,299.8,66.1,299.8z"/>
		<path class="st21" d="M239.9,299.8c1.7-3.4,3.4-6.7,5.5-11c3.4,4.6,1.4,7.8,0.5,11C243.9,299.8,241.9,299.8,239.9,299.8z"/>
		<path class="st22" d="M76,269.8c5.7-5.6,4.2-9.4-2.1-13.8c-8.1-5.6-18.3-9.4-21.9-20.1c-7.1-11.8-14.8-23.3-20.4-36
			c-4-9.1,0.1-16.5,9.9-15.4c11.2,1.3,20.2-0.2,26.3-11.1c2.6-4.7,7.5-5.2,11.9-1.2c1.6,2.5,1.9,5.5,3.2,8.1
			c3.3,6.6,6.2,13.3,14,16.2c2.4,0.9,3.5,3.7,4.4,6.2c5.8,13.2,10,26.8,12.5,41c1.3,7.8,2.3,15.4-3.5,22.4
			c-3.5,4.2-7.7,6.4-11.9,3.9c-6.1-3.6-11.1-2.7-16.4,0.8C79.9,272.3,77.7,272.2,76,269.8z"/>
		<path class="st23" d="M77.7,174.1c-3.1-1.1-5.5,0.1-6.5,2.8c-4.5,11.8-13.8,13.8-25,13c-13.2-0.9-13.7,0.5-8.9,12.9
			c4,10.3,8.7,20,15.6,28.8c1.2,1.5,4.1,3.7-0.8,4.3c-13.5-12-20-28.5-28-44c-1.3-5.4-2.5-10.8-3.8-16.2c0.7-11.7-0.9-23.4,0-35.1
			c6.6-9.4,13.4-9.2,18.3,0.7c2.4,4.7,5,9.3,7.1,14.2c2.5,5.7,6.4,5.4,9.6,0.4c4.2-6.5,5.9-14.1,7.4-21.5c1.1-5.6,3.1-10.6,6.7-15
			c0.6-0.8,2.3-1.7,2.2-1.8c-6-9.6,4.2-11.6,7.7-16.6c0.9-1.4,0.9-2.9,0.1-4.5c-2.5-4.4-1.7-8.8,0.1-13.2c0.5-1.4,0.8-2.9,1.7-4.2
			c5.2-4.5,13.2-0.2,18-5.7c1.8-1.6,3.5-3.3,5.5-4.7c3.2-1.8,6-6,10.3-3.2c5.8,3.8,0.6,9,1.2,13.4c-0.4,2.1-1.6,3.7-3,5.2
			c-6.1,4.5-9.9,10.7-13.1,17.3c-2.9,10.3-1.9,21-3.5,31.4c-7.1,6.9-1.4,13.6,0.9,19.9c1.5,4.1,3.8,7.6,0.9,11.9
			c-2.2,2.9-5.8,2.7-8.7,3.9c-0.8,0.2-1.7,0.4-2.5,0.6c-1.6,0.3-3.2,1-4.7,1.7C80.8,171.6,80.1,174.2,77.7,174.1z"/>
		<path class="st24" d="M76,269.8c6-1.1,11.1-3.8,15.4-8.2c1.9-2,4.5-4.8,7.4-1.1c1.5,2-0.2,7.2,4.8,5.5c3.8-1.3,6.4-4.6,7.7-8.6
			c1.2-3.9,0-7.1-3.2-9.6c-0.4-0.5-1-1.2-0.8-1.7c1.4-6.6-0.1-15.7,7.4-18c6.7-2.1,12.5,3.7,17.6,8.8c15.1,15.1,42.9,15.9,58.5,2.4
			c3.1-2.7,6.5-7,11.3-4.3c5.9,3.3,4.3,9.4,3.9,14.9c-0.1,5.5,1.6,9.6,8,10.1c-0.7,1.4-1.3,2.7-2,4.1c-0.7,1.2-1.5,2.4-2.2,3.6
			c-7.4,2.6-8.2-3.7-10.2-7.8c-2.7-5.4-6.3-6.9-9.1-1.1c-5.8,12.2-15.9,13.2-27.2,11.9c-3.8-0.5-7.7-0.5-11.5-1.3
			c-7.1-5.2-12.7-12.3-20.9-16c-0.9-0.3-1.7-0.6-2.6-0.8c-6.3-1.4-8.8,2.6-10.3,7.6c-1,3.4-0.4,7.1-1.5,10.5
			c-0.1,0.4-0.2,0.9-0.4,1.3c-0.7,1.5-1.3,4.1-2.1,4.2c-7.4,0.7-15.5,1.9-21.8-2.2c-4.1-2.6-6.2-2.8-9.2,0.1
			c-3.8,3.7-8.1,4.1-12.8,1.9C72.1,273.9,74.1,271.9,76,269.8z"/>
		<path class="st25" d="M251.9,62.1c13.2,14.4,20.8,31.6,25.6,50.3c2,3.5,2.3,6.9-0.4,10.2c-4.8,0.8-6.7-2.5-7.6-6.1
			c-3.9-16.1-11.3-30.4-20.9-43.8c-1.8-2.4-3.5-5-2.2-8.3C247.7,62.3,249.7,62,251.9,62.1z"/>
		<path class="st26" d="M276.2,121.7c1.7-2.9,1.5-6.1,1.3-9.3c4,7.4,2.7,15.9,4.7,23.7c-0.1,7.3-0.3,14.5-0.4,21.8
			c-1.2,1.3-2.5,1.3-3.7,0c-0.1-2.6-0.1-5.3-0.2-7.9c-3.6-6.2-4-13.3-5.3-20.1C271.9,126.3,272.8,123.5,276.2,121.7z"/>
		<path class="st27" d="M215.8,32.4c2.1,0.5,4.1,1.1,6.2,1.6c5.4,4.6,10.7,9.2,16.1,13.8c1,1.4,1.2,2.8,0.6,4.4
			c-4.6,4-8.3,0.7-11.3-2.1c-5-4.6-10.6-8.3-15.9-12.3c-0.5-0.9-0.7-1.9-0.5-2.9C211.6,32.4,213.9,32.8,215.8,32.4z"/>
		<path class="st28" d="M237.9,52.3c0.1-1.5,0.1-3,0.2-4.5c5.5,3.9,9.9,8.9,13.9,14.2c-1.2,0.6-2.5,1.2-3.7,1.9
			c-1.4,0.3-2.9,0.3-4.2-0.3C240.7,60.5,234.3,59.1,237.9,52.3z"/>
		<path class="st29" d="M245.9,62.1c0.7,0.6,1.5,1.2,2.2,1.9c13.6,17.2,23.6,36.1,28.1,57.8c1.2,9.4,2.3,18.8,1.6,28.3
			c-2.7-2.4-5.4-4.7-9.1-8c-6.9,18.9-21.4,25.4-40.9,21.9c-5-0.9-2.8-6.5-5.9-8.7c-2-1.2-4.2-2-6.5-2.5c-2.8-1.1-4.7-3.3-4.2-6
			c1.8-8.6-1.9-15.8-4.7-23.3c-1.5-2.3-1.7-5-1.9-7.6c-0.5-3.8,0.1-7.8-2.9-11c-2.6-2.9-1.4-6-0.1-9.1c0.6-0.9,1.4-1.6,2.4-2.1
			c1-0.3,2-0.5,3-0.5c15.5,1.4,15.5,1.4,19.8,16.6c0.8,2.9,2.1,5.6,3.6,8.2c2.7,4.7,5.7,9.7,12.2,8c6.3-1.7,7.2-7.6,7.4-12.9
			c0.4-11.2-6.2-20.1-10.7-29.6c-2.8-5.9-5.1-11.5-2-18C239.3,61.6,241.5,59.2,245.9,62.1z"/>
		<path class="st30" d="M197.9,205.8c2.7-2.5,5.3-3.4,8.4-0.4c3.2,3.2,3.6,6.6,1.7,10.5c-11.1,25.4-26.8,38.2-57.9,29.7
			c-16-4.4-27.9-15.2-40.5-24.8c-5.3-4-5.8-10.9-7.9-16.8c0-1,0.3-2,0.8-2.9c7.9-6.3,14.7-1.6,20.6,3c6.7,5.2,12.3,7.4,19.1,0.9
			c2.5-2.4,5.5-1.5,8.4-0.1c2.6,1.8,1.8,5.6,4.5,7.3c1.8,1.3,3.8,1.1,5.8,1.1c8.9-4.2,18.5-2.5,27.8-3.4c3-0.4,5.4-2.1,7.8-3.7
			C197.1,206,197.5,205.9,197.9,205.8z"/>
		<path class="st31" d="M103.9,201.8c9.7,22.1,25.8,36,50.1,39.7c5.9,0.9,11.8,1.5,17.7,1.9c12,0.9,18.5-7.5,24.9-15.4
			c3.6-4.4,6.6-9,11.4-12.2c2.3,0.5,5.9,1.6,3.8,4c-6.4,7.2-4.2,15.3-4,23.4c0,2.2-1.2,4.4-1.8,6.6c-3.8-14-4.9-14.4-15.4-5.1
			c-15.8,13.8-21.3,14.6-40.3,5.2c-8.6-4.2-17.5-7.3-24.7-14.5c-7.6-7.6-12.5-5.5-15.5,4.7c-0.7,2.6-1.3,5.2-2,7.7
			c-0.6-2.2-2.1-4.6-1.6-6.5c3.1-13.8-5.1-25-8.4-37.3C99.5,202.1,101.1,200.5,103.9,201.8z"/>
		<path class="st32" d="M213.7,184.1c-3.8,0.9-5.2,3.6-5.8,7.1c-0.4,2.7-1.2,5.5-4.7,5.1c-9.7-1.2-5.7,5.1-5.3,9.5c0,0,0,0,0,0
			c-1.1,1.2-2.5,1.6-4.1,1.2c-4.1-2.8-4.5-7.2-4.7-11.5c-0.3-7.6-4.2-10.7-11.5-10.4c-7.1-0.4-13.8,1-20.2,3.9
			c-4,1.5-7.5,5.3-12.5,2.8c-4.3-3.9-4-7.7,0.1-11.4c4.4-2.2,9.2-3.6,13.7-5.7c5-5.2,13.1-0.3,18.2-5.5c4.3-3.3,8.7-0.2,13.1,0
			c3.7,1.4,7,3.5,9.9,6.2c1,0.9,2,2.2,3.6,0.7c3.5-5.2,3.5-11.3,5.1-17c1.4-5.1,4.5-7.3,9.3-6.5c4.6,0.7,6.9,4.4,6,8.7
			c-0.8,4,0.1,7.7,0,11.6C223.6,179.3,222.1,184.9,213.7,184.1z"/>
		<path class="st33" d="M213.7,184.1c12.5-6.3,2.6-17.4,5.3-25.8c0.4-1.1-1.3-2.3-2.8-2c-2.7,0.6-3.8,2.8-4.2,5.1
			c-1.3,6.5-1.7,13.2-5.8,18.8c-3.5-1.2-3.5-4.9-5.3-7.3c-0.7-3.8-1-7.7-3.4-10.9c1.4-10,9-18,8.8-28.5c0.9-2.5,0.6-5.2,1.1-7.8
			c0.4-1.7,1.2-2.9,2.8-3.7c4,6.8,4.7,14.4,5.3,21.9c0.2,2.3-0.3,4.7,2.3,6c3-0.4,6-0.6,8.3,2.1c2.6,3.7,1.6,7.9,1.9,11.9
			c-2.7,7.4-1.3,15.7-5.5,22.7c-1.7,2.7-2.9,6.9-6.8,5.9C210.9,191.3,214,187,213.7,184.1z"/>
		<path class="st34" d="M278,157.9c1.2,0,2.5,0,3.7,0c-1.2,23.9-8.8,45.3-23.8,64.1c0.8-11.2,9.4-19.1,12.4-29.5
			C273.7,181.1,278.6,170.1,278,157.9z"/>
		<path class="st35" d="M22.4,140c-0.1,10.5-1.2,20.9,0.9,31.3c0.4,2.2,0.9,5-3,4.4c-3.1-18-4.2-36-0.3-54c2.9-1.4,5.4-1.3,7.3,1.6
			C30.4,130.3,24.8,134.7,22.4,140z"/>
		<path class="st36" d="M23.8,121.9c-0.8,0.9-1.5,1.8-2.3,2.7c-0.5-1-1.1-1.9-1.6-2.9c1.4-14.4,6.4-27.6,14.1-39.8
			c2.3,0.5,3.9,2.1,5.1,4c-0.3,12.4-6.3,23.1-11,34.1C27.7,121.6,25.5,121.8,23.8,121.9z"/>
		<path class="st37" d="M84,30c1.3-0.1,2.5-0.1,3.8-0.2c0.8,0.7,1.5,1.4,2.1,2.3c2.5,6.2-4.3,7.2-6.1,11.1c-1.1,2.5-3.6,3.1-5.9,4.1
			c-4.6,2.1-8.8,4.8-12.4,8.4c-0.7,0.7-1.5,1.1-2.4,1.4c-1.8,0.8-3.6,1.4-5.5,0.3c-1.6-1.3-2.3-2.9-1.4-4.9c0.6-0.8,1.2-1.7,1.7-2.5
			C66.7,43.3,75.4,36.6,84,30z"/>
		<path class="st38" d="M56.3,52.4c0.6,1.3,1.2,2.6,1.8,3.9c2.2,5.3-3.9,8.2-3.6,13c-2.9,4.8-7.1,8.6-10.3,13.2
			c-2.1,3.1-4.9,4.2-8.5,3.4c-0.6-1.3-1.1-2.6-1.7-3.9C38.9,70.2,47.6,61.3,56.3,52.4z"/>
		<path class="st39" d="M88.1,32.1c-0.1-0.8-0.2-1.6-0.2-2.4c23.9-14.1,49.4-19.4,76.8-14.4c5.7,1,11.5,2,17.2,3
			c-0.1,5.4-4.4,4.2-7.5,4.8c-2.3-0.2-4.6,0.2-6.9,0c-10.9-2.2-21.8-2.8-32.7,0c-12.2,2.3-24.4,4.2-35.8,9.4
			C95.3,34.2,91.5,36,88.1,32.1z"/>
		<path class="st40" d="M173.5,20.4c2.8-0.7,5.5-1.4,8.3-2.1c13,0.7,23.1,8.2,33.9,14.1c-1.2,0.5-2.5,1.1-3.7,1.6
			c-6.6,4.8-12.1-1.1-18.2-2c-3.4-3.7-8.1-5.1-12.8-6C177.4,25.4,173.9,25.3,173.5,20.4z"/>
		<path class="st41" d="M226.3,263.8c-0.8,0.7-1.6,1.4-2.4,2.1c-3.1,2.9-6.2,3.4-9.5,0.4c-0.1-0.7-0.2-1.4-0.3-2.1
			C218.1,262.9,221.8,251.5,226.3,263.8z"/>
		<path class="st42" d="M152,265.8c5.9-0.1,11.8,0.8,17.7,0.6c8.7-0.3,15.4-2.5,18.8-11.3c1.3-3.3,4-5.3,7.9-4.7
			c3.4,0.5,4.9,3.1,5.7,6.1c1.3,4.6,3.2,8.7,7.6,11.1c-2.2,5.3-7.3,6.3-11.8,8.3c-3.4-1.7-6.9-5.4-9.9,0.7c-0.6,1.2-2.4,2-4.1,2.2
			c-13.8,1.3-27.6,3.2-39.5-6.5c-0.5-0.4-1-0.9-1.4-1.4c-10.7-12.2-11.9-12-19.2,2.6c-0.9,1.8-2.5,3-3.6,4.5
			c-0.1,0.6-0.1,1.2-0.2,1.8c-1.3-2.6-2.6-5.3-3.9-7.9c0,0,0-0.1,0-0.1c-2.2-5.9-0.6-11.8,1.2-17.3c1.9-6.1,6.3-9.4,12.9-4.8
			c0.7,0.1,1.3,0.1,2,0.2C138.8,255.1,144.5,261.5,152,265.8z"/>
		<path class="st43" d="M116,283.6c4.1,1.5,8.2,3,12.3,4.4c0.6,0.5,0.8,0.9,0.5,1.3c-0.2,0.4-0.5,0.6-0.7,0.6
			c-2.1,6.1-6.6,4.6-10.4,2.8C113.7,290.7,113.3,287.2,116,283.6z"/>
		<path class="st44" d="M128.1,289.9c0.1-0.6,0.1-1.2,0.1-1.8c3.2,0.1,5.8-3.3,9.3-1.8c2.6,2.3,3.2,5,0.6,7.5
			c-2.6,2.4-4.7,0-6.7-1.4C130.3,291.4,129.2,290.6,128.1,289.9z"/>
		<path class="st43" d="M131.4,292.2c5.6,1.6,8.1,0,6.1-6c2.9,0.2,6-0.6,8.4,1.7c-2,2.1-3.2,4.7-3.9,7.6c-2.1,0.2-4.1,0.4-6.2,0.6
			C133.9,295.4,132.2,294.3,131.4,292.2z"/>
		<path class="st45" d="M163.7,288.1c2.2,0,4.4,0,6.6,0c2.1,2.5,2,5-0.1,7.5c-1.4,0.1-2.9,0.3-4.3,0.4c-0.6,0.2-1.3,0.4-1.9,0.6
			c-0.1-0.3-0.1-0.7,0-1C161.8,293.1,161.6,290.6,163.7,288.1z"/>
		<path class="st46" d="M146,269.9c9.3,6,20.4,4.3,30.4,7.4c4.1,1.3,7.2-2,9.1-6c2.2-4.7,2.8-13.3,9.8-11.1
			c7.7,2.4,2.6,10.2,2.6,15.7c-3.8,4.9-6.9,8.9-15,6.6c-5.9-1.7-13.1,0.6-19.6,1.9c-4.1,0.9-7.8,1.2-11.6-0.7
			c-5.2-3.5-14.2-4.3-10-14.3C143.2,268.5,144.6,268.8,146,269.9z"/>
		<path class="st47" d="M146,269.9c-1.3,0-2.6,0-3.9,0c-3.9,4.1-9.9,4.4-14,8.1c-2.6,0-5.2,0-7.8,0c0.7-5.6,1.2-11.2,2.1-16.7
			c1.3-8.2,4.5-9.4,11.4-4.2C138.3,260.7,142.6,264.9,146,269.9z"/>
		<path class="st48" d="M128,277.9c2.2-10.9,4.8-12.4,14-8.1c3.2,4.6,6.4,9.2,9.6,13.8C143.5,283,135,283.5,128,277.9z"/>
		<path class="st49" d="M214.3,266.3c3.2-0.1,6.3-0.2,9.5-0.4c-0.7,3.3-1.3,6.6-2,9.9c-5,3.5-5.4,10.2-9.9,14
			c-0.6-4.8-1.6-9.1-8.1-6c-0.6,0.1-1.2,0.1-1.8,0.2C203.9,276.5,211.6,273.1,214.3,266.3z"/>
		<path class="st50" d="M147.8,289.4c2.6-2.4,5.2-2.4,7.4,0.3c1.1,1.3,1.1,3.2,0,4.5c-2.3,2.5-4.9,2.7-7.4,0.2
			C146.8,292.7,146.6,291.1,147.8,289.4z"/>
		<path class="st51" d="M163.7,288.1c0.9,2.5,1.1,4.9,0.4,7.5c-2.8,0.8-5.4,0.5-5.8-2.9C157.8,288.8,160.2,287.6,163.7,288.1z"/>
		<path class="st52" d="M147.8,289.4c0,1.7,0,3.3,0,5c-2.1-0.9-3.8,0.5-5.7,1.1c-3.2-4.8-2.8-7.8,3.9-7.6
			C146.6,288.4,147.2,288.9,147.8,289.4z"/>
		<path class="st53" d="M170.2,295.5c-1-2.5-0.9-5,0.1-7.5c3-0.7,5.2,0.1,5.2,3.6C175.5,295.1,173,295.6,170.2,295.5z"/>
		<path class="st54" d="M181.8,295.6c-3.1-1.2-4.9-3.3-3.2-6.7c0.4-0.7,2.7-1.4,3.3-0.9C185.3,290.4,182.7,293,181.8,295.6
			C181.8,295.6,181.8,295.6,181.8,295.6z"/>
		<path class="st55" d="M77.7,174.1c0.1-2.7-1.8-5.5,0.4-8.2c3.3-0.7,6.5,1.5,9.8,0.4c0-0.4,0.1-0.8,0.3-1.1c3-1.1,5.5,0.1,6.7,2.5
			c3.6,7.5,8.7,14.5,8.2,23.5c-6.7,6.2-12.9,5.3-16.9-2.8c-1.4-2.9-1.5-6.7-6.1-6.4C79.2,179.4,78.5,176.7,77.7,174.1z"/>
		<path class="st56" d="M80,182c0.8-2.1-1-6.4,3.1-5.4c1.9,0.5,7.4-0.8,6.1,4.2c-2.7,10.6,3.8,10.9,11.1,10.7
			c7.1,1.3,7.3,5.1,3.6,10.2c0,0,0,0.1,0,0.1c-1.9,0.7-3.9,1.5-5.8,2.2C90.8,197.7,83.6,191.3,80,182z"/>
		<path class="st57" d="M35.8,85.9c5-6.6,10-13.2,15-19.8c5.4-2.6,9.2-6.6,11.3-12.1l0,0c3.4-2.3,6.8-3.1,9.5,0.8
			c2.4,3.4-0.1,5.9-1.7,8.9c-6.6,12.1-14.4,23.4-21.6,35.1c-2.5,4-3.6,8.6-3.4,13.3c0.1,3.3,0.2,7,3.9,8.4c4,1.5,7.2-0.7,9.7-3.5
			c3.8-4.3,5.2-9.9,8.2-14.8c5.3-8.8,9.5-9.1,16.6-1.3c0.1,1-0.1,1.9-0.6,2.7c-3.2,2.8-6.4,5.6-9.5,8.3c0.8,0.8,1.1,1.5,1.6,1.7
			c3.5,1.2,8.9-4.7,10.2,0.3c1.3,5-4.8,6.1-9.1,6.7c-5.6,0.9-6.3,5.5-7.1,9.6c-2,10.5-4.7,20.7-9.6,30.2c-1.7,3.3-1.8,8.9-7.1,8.1
			c-5-0.7-9.5-3.8-11-9c-1.4-5.2-4-9.7-6-14.6c-2.5-6.3-6.5-7.9-12.5-5c0.5-6,1-12.1,1.4-18.1C27.8,109.9,31.8,97.9,35.8,85.9z"/>
		<path class="st58" d="M76.1,43.7c1.4-1.1,2.9-2.2,4.3-3.3c10.4-1.1,10.9-0.7,9.7,9.9c-1,8.9,2.4,11.5,11.1,8.6
			c3.3-5.5,10,0.6,13.5-4c0.7-1.1,1.3-2.3,1.8-3.5c1.2-4.2,4.3-5.5,8.2-5.8c3.9-0.3,8-0.2,11.6-1.8c9.8-4.1,17.1-0.6,23.4,6.8
			c0.9,1,1.6,2.1,2.6,3c3,2.6,6.3,1.8,9.6,0.7c4.7-2,8.4-1.1,10.7,3.7c1,1.9,2.2,3.5,4.5,3.8c2.7,0.5,5.3-0.9,7.9-0.1
			c5.9,1.7,8.7,6.4,11.4,11.4c1.1,10-4.9,11.6-12.8,10.9c-2.1-0.2-3.7-1.6-5.6-2.1c-4.8-5.4-12.2-4.6-18-7.7
			c-7.9-2.2-15.5-0.2-23.1,1.8c-4,0.8-7.7-1.5-11.7-0.8c-2.5,0.1-4.5,1.5-6.8,2.3c-1.4,0.5-2.7,0.9-4,1.7c-4.2,0.1-8.7,2.2-12.6-1.2
			c0.7-3.1,1.3-6.1,2.1-9.6c-3.2,1.4-5.8,2.4-8.3,3.5c-2.7-1.4-4.8,0.2-6.9,1.5c-4,4.2-11.1,1.6-14.8,6.7c0,1.3,0,2.6-0.1,3.9
			c-0.8,0.5-1.7,1.1-2.5,1.5c-5.6,2.8-11.2,2-15.9-1.4c-5.6-3.9-2.6-10.7,0-13.4C73.2,63,69.7,51.6,76.1,43.7z"/>
		<path class="st59" d="M76.1,43.7c0.1,7.5,0.6,14.9-4,21.8c-8.4,12.5-7.2,15.1,7,17.8c1.6,0.3,3.3,0.5,4.9,0.7
			c-1.7,4.1-2.7,8.2,0.2,12.2c1.2,2.6,0.4,4.5-2.1,5.8c-10.6-6.3-12.5,3.3-14.1,9c-2.8,9.7-9.4,13.8-17.8,16.9
			c-6.4,2.4-8.8,0.2-10.2-6.3C35.6,102.1,47.9,89,58,75.3c3.3-4.5,5.9-9.5,9.2-14c4.1-5.5-1-6.5-5.1-7.2
			C66,49.6,69.9,45.1,76.1,43.7z"/>
		<path class="st60" d="M103.9,201.8c0.3-3.9-0.2-7.6-3.6-10.2c-6.2-7.8-3.8-19.5-12.1-26.3c2.1-3.5,5.1-1.6,7.9-1.3
			c8.2-1,10.2,5.4,13.9,10.7c4.2,6,5.4,15.1,15,16.2c1.5,0.1,2.9,0.6,4.1,1.6c3.3,5.4,7.3,8.3,13.6,4.5c2.7-0.2,4.7,1.2,6.6,2.8
			c1.1,1.1,1.7,2.4,1.8,4c-0.1,1.1-0.6,1.9-1.5,2.5c-3.9,0.5-7.1,2.5-8.7,5.8c-4.5,9-9.7,6-14.5,0.9
			C120.1,206.4,112.6,202.9,103.9,201.8z"/>
		<path class="st61" d="M124,194c-4.3-0.1-7.3-2.3-9.7-5.7c-6-8.2-12.1-16.2-18.2-24.3c-1.3-9-1.5-18.5-11.5-23.4
			c-2.7-1.4-4.9-4.2-3.1-7.3c2.2-3.8,4.4,0.4,6.6,0.7c1.9,0.2,3.9,0,5.9,0c3.2,0.7,5,3,6.6,5.6c1.3,6.7,4.3,12.2,9.1,17.2
			c4.2,4.4,9,8.9,8.9,15.9c0,3.8,3.8,5.2,5.4,8C125.4,185.1,129.5,189.5,124,194z"/>
		<path class="st62" d="M112,78c3.8-1.9,7.6-3.8,12-3.8c-0.6,6.4,3,12.5,0.9,19c-0.7,2.2,1.5,3.3,3.2,4.2c1.4,0.4,2.8,0.9,4.2,0.9
			c13.6-0.6,26.9,2.6,40.4,3.1c0.9,0.8,1.5,1.7,1.9,2.9c-0.1,2-1.3,3.2-3.1,4c-17.7,1.2-35.3,2.7-53.1,0.6c-2.7-0.3-5.2-0.8-7.3-2.6
			c-3.6-7.9-4.9-15.9-1.1-24.2C110.8,80.8,111.4,79.4,112,78z"/>
		<path class="st63" d="M98,140c-2.1-1.5-3.5-3.5-4.1-6.1c0.1-8.5,0.1-17.1,0.2-25.6c0-3.9-0.4-8,3.7-10.5c3.9,0.1,8.8-3.7,11.5,1.8
			c2.4,4.9,5.5,10.1,1,15.6c-5.6,3.7-2.5,8.8-2.1,13.5c-0.6,3.6-5.4,4.2-5.6,8C101.6,138.5,100.1,139.6,98,140z"/>
		<path class="st64" d="M108.1,114c1.5-6.2,5.5-13.7-6.9-12.1c-2.5,0.3-2.8-2.1-3.3-4c0.6-7.9,7-11.4,12.2-15.7
			c3.5,7,3,14.4,1.9,21.9c5,6.4,12.2,2.9,18.3,4c3.3,0.6,8.9-1.9,7.6,5.4c-8.4,5.7-17.9,4.6-27.3,4.6
			C108.9,117.2,107.5,116.2,108.1,114z"/>
		<path class="st59" d="M84.1,80.1c-0.3-10.4,9.1-6.9,14.1-9.8c2.5,1,2.6,3.6,3.6,5.6C98.5,88,90.6,81.2,84.1,80.1z"/>
		<path class="st65" d="M82.2,102c0.7-1.9,1.4-3.8,2.1-5.8c3.5,1,8,2.1,6.7,6.6c-1.4,4.6-5.6,0-8.4,0.9
			C82.4,103.2,82.3,102.6,82.2,102z"/>
		<path class="st66" d="M87.8,166.4c-3.4,4.3-6.7,3.6-9.8-0.4C81.5,162.5,84.6,164.6,87.8,166.4z"/>
		<path class="st67" d="M101.8,75.9c-2.8-0.9-3.5-3-3.6-5.6c3-1.7,5.7-1.9,7.6,1.6C104.5,73.2,103.1,74.6,101.8,75.9z"/>
		<path class="st8" d="M130.1,249.8c-8.3-0.7-11.8,3.7-12.5,11.5c-0.3,3.6-1,7.1-1.5,10.6c-3.5-7.8-2.7-15.2,2.2-22.2
			C122.2,244.2,126.2,242.7,130.1,249.8z"/>
		<path class="st8" d="M152,265.8c-9.3-2-14.4-9.2-19.9-15.9C139.9,253.7,146.6,259,152,265.8z"/>
		<path class="st68" d="M193.6,80.1c4-1,9-0.4,10.3-6.1c-1.3-5.6-2.8-10.7,6.4-11.1c7.5-0.3,8.8-4.7,4.9-11.7
			c-2.7-4.9-8.1-9.3-3.1-15.7c10,3.5,17.1,11.3,25.8,16.8c2.7,3.2,5.4,6.5,8.1,9.7c-6.7,5-6.2,11.5-2.5,17.6
			c4.2,6.9,6.5,14.4,10.1,21.5c4,8.1,2.3,16.4-0.5,24.2c-3.6,9.9-17.4,10.7-23.3,1.2c-4-6.5-9.1-12.8-9.2-21.5c0-7.9-8.4-5.9-12.6-9
			c-0.6-0.7-1.2-0.7-1.9-0.1c-0.6,0.1-1.2,0.1-1.8,0.1c-3,1.5-4.4-0.4-4.9-2.8c-0.6-2.8-2.5-4.6-4.4-6.3
			C192.9,85,192.4,82.7,193.6,80.1z"/>
		<path class="st69" d="M212.1,35.5c3,5.5,5.1,11.6,10.1,15.9c3.2,2.7,4.3,5.3,1.3,9.3c-3.3,4.4-6,12.4-12,9.4
			c-6.7-3.4-5.2,2.6-7.5,3.9c-3.3-3.3-6.7-6.5-10-9.8c-0.6-1.3-1.6-1.8-2.9-1.9c-3.7-1-7.4,2.4-11-0.2c-1-4.7-3.9-5.8-8.1-4.1
			c-6.9-0.7-5.2-6-3.1-8.4c5.7-6.5,10.1-13.4,11.9-21.8c5.2-1.4,10.5,0.4,15.7,0.2c5.9,0.3,10.4,4.3,15.7,6.1
			C212.1,34.5,212.1,35,212.1,35.5z"/>
		<path class="st70" d="M197.7,84.4c5.1,2.3,3.6,8.2,6.6,11.7c-1,7,5,12.9,3.5,20c-3.6,1.9-5.4-2.1-8.4-2.4
			c-1.3-0.4-2.5-0.8-3.7-1.3c-1.6-0.9-3-2-4.1-3.5C187.2,98.5,189.1,90.8,197.7,84.4z"/>
		<path class="st71" d="M199.5,107.8c3.9,1.6,5.8,5.2,8.3,8.3c0.8,2,1.5,3.9,2.3,5.9c-0.1,1.4-0.1,2.8-0.2,4.2
			c-2.9,2.9-6.3,3.2-10,1.6C195.3,121.2,198,114.5,199.5,107.8z"/>
		<path class="st70" d="M206,96c-1-2.8-1.4-5.4,2.8-5.4c1.7,0,3.6,0.5,3.6,2.5c-0.1,2.6-2.6,2.5-4.5,3C207.3,96,206.7,96,206,96z"/>
		<path class="st72" d="M225.9,152c-3,0.2-5.9,0.2-8.3-2.1C221.8,145.4,224.5,146.1,225.9,152z"/>
		<path class="st73" d="M190,217.8c-8.6-0.3-17.4-7.9-25.9,0.6c-1.7,1.7-2.9,0.8-4-0.7c-3.6-3.8,0-6.9,1.1-10.2
			c2.9-2.6,5.7-5.3,9.6-6.3c7.4,0.2,15.1-1.1,21.6,4.1C194.9,210.1,194,214.3,190,217.8z"/>
		<path class="st60" d="M154,215.7c-1.4,1.8-2.9,3.9-5.5,2.2c-1.9-1.2-1.4-3.3-0.8-5.2c0.6-2.1,1.2-4.3,1.8-6.4
			c0.3-0.2,0.6-0.5,0.9-0.7c4.4-0.3,5.5,2.6,6.1,6.1C156.3,213.4,155.5,214.8,154,215.7z"/>
		<path class="st2" d="M190,217.8c1.8-3.6,2.1-7.5,2.1-11.5l0.3-0.9l1,0.1c1.5,0.1,3,0.3,4.5,0.4C195.2,209.8,196.9,216.7,190,217.8
			z"/>
		<path class="st74" d="M154,215.7c0-1.4,0.1-2.7,0.1-4.1c2.4-5.3,5.8-4.9,9.8-1.9c-1.3,2.7-2.6,5.3-3.9,8
			C158,217,156,216.4,154,215.7z"/>
		<path class="st75" d="M148.3,201.9c-2.1-0.7-4.2-1.3-6.3-2c-5.1-0.9-5.2-5.6-7-9c-0.5-2.3,0.4-4.3,1.4-6.2
			c1.9-6.6,8.2-9.2,12.4-13.7c2.1-1.9,3.2-4.5,4.6-6.9c4.3-3.5,8.2-7.9,14.5-7.8c1,0.2,1.9,0.5,2.9,0.7c2.7,1.5,6.1,0.1,8.6,2.1
			c0.7,0.8,1.2,1.7,1.5,2.7c0.4,1.6,0.2,3.1-0.6,4.5c-1.7,1.9-3.8,3.3-5.2,5.4c-3.7,2.3-8.8,0.1-12.2,3.5c-5.5,1-9,6.2-14.6,6.8
			c-3.4,2.1-3.5,5-2,8.2c2.4,2.1,4.6,4.3,4.4,7.8C150.4,199.7,149.7,201,148.3,201.9z"/>
		<path class="st76" d="M193.4,205.5c-0.5,0.2-0.9,0.5-1.3,0.9c-7.4,1.3-14.4-1.9-21.7-1.6c-0.8-0.5-1.2-1.2-1.3-2.1
			c0.1-3.8,5.9-3.3,5.6-7.4c0.3-2.5,0.5-4.9,0.4-7.4c-0.1-2.5,1.7-4.1,3-5.9C193.9,183.5,194.7,184.6,193.4,205.5z"/>
		<path class="st77" d="M200.3,162c8.8-2.2,7.6,2.7,5.7,8.1c-2.4,3-0.8,9.9-8.1,8c-2.8-2.1-5.5-4.1-8.3-6.2
			c-0.5-0.8-0.6-1.7-0.4-2.7c4.4-2.5,2.4-8.7,6.5-11.5C199.4,156.8,198.4,161,200.3,162z"/>
		<path class="st78" d="M178.1,181.9c1.5,2.1,1.3,4-0.3,5.9c-6.3,6.8-13.5,7.6-21.5,3.4c-1.4-1.7-1.6-3.3,0.3-4.9
			C163.1,181.9,170.7,182.5,178.1,181.9z"/>
		<path class="st79" d="M162,173.6c4-1.2,8-2.4,12.1-3.7c1.7-0.1,3,0.6,4.1,1.9c1.8,1.4,3.6,2.8,6.8,5.5c-9.4,0.7-17.5-5.1-25,0.4
			C158.9,175.5,161.1,174.9,162,173.6z"/>
		<path class="st80" d="M197.9,178.1c2.7-2.7,5.4-5.3,8.1-8c0.1,3.4,0.1,6.7,0.2,10.1c-1,2.8-0.2,7.9-4.6,7.1
			C197.3,186.5,198.4,181.5,197.9,178.1z"/>
		<path class="st81" d="M156.5,186.3c-0.1,1.1-0.3,2.3-0.4,3.4c0.7,0.8,1.1,1.7,1.3,2.7c-1.7,4-1.1,11.7-9,5.6
			c-0.8-2.6-1.5-5.2-2.3-7.8C149.6,188.9,153.1,187.6,156.5,186.3z"/>
		<path class="st82" d="M178.1,171.8c-1.4-0.6-2.7-1.2-4.1-1.9c1.2-1.3,2.4-2.6,3.6-3.9c2.4-0.5,4.6-2.3,7.3-1.2
			c2.3,1.3,4.1,2.9,4.7,5.6c0,0.5,0,1,0,1.4C185.8,172.4,181.9,169.8,178.1,171.8z"/>
		<path class="st83" d="M162,173.6c-0.7,1.4-1.3,2.7-2,4.1c-4.1,0.9-6.4,7-11.8,4.3C152.6,179,156.6,175.1,162,173.6z"/>
		<path class="st84" d="M200.3,162c-1.3-1.3-2.7-2.5-4-3.8c-0.5-0.2-0.9-0.5-1.4-0.7c-4.4-6.7,2.9-9.8,4.5-14.7
			c4.2-2,4-9.3,10.4-8.7C211,144.9,201.7,152.1,200.3,162z"/>
		<path class="st85" d="M209.9,134.1c-2.4,3.4-3.8,7.7-7.7,10c-1-0.3-1.8-0.8-2.5-1.7c-0.7-1.3-1.2-2.7-1.8-4.1
			c-0.5-3.4,1.1-6.7,0.5-10.1c0.3-1,0.9-1.7,1.7-2.2c3.2,0,6.4,0,9.7,0.1C209.8,128.8,209.8,131.5,209.9,134.1z"/>
		<path class="st86" d="M196.4,27.9c-5.2,2.5-10.8,2.2-16.4,2.2c-2.5,3.8-5.6,3.3-9.6,2.3c-7.3-1.8-14.6-7.2-22-4.9
			c-13.7,4.3-28.3,4.6-41.7,9.4c-6.5,2.3-7.4,8.4-5.1,14.1c1.5,3.8,2.7,7.4,2.6,11.4c-5,5.9-12.1,4.3-17.1,2.2
			c-4.8-2-3.1-8.9-1.3-13.3c2.6-6.2,0.6-9.3-5.3-10.9c1.5-3.7,7.3-3.5,7.6-8.3c9.4-0.2,16.8-6.8,25.8-8.2c6.8-1.1,13.5-2.7,20.2-4.1
			c11.3-1.2,22.6-1.2,33.9,0c1.9,0.2,3.7,0.4,5.6,0.6C181.1,23.2,189.3,23.6,196.4,27.9z"/>
		<path class="st59" d="M62.1,54.1c0.2,7.8-2.7,12.6-11.3,12.1c2.5-3.3,5-6.5,7.4-9.8C59.4,55.6,60.7,54.8,62.1,54.1z"/>
		<path class="st40" d="M168,19.8c-11.3,0-22.6,0-33.9,0C145.4,17,156.7,17,168,19.8z"/>
		<path class="st87" d="M104.2,62.4c-5.3-5.1-11.2-8.8-9.8-18.6c1-7,4-10.4,9.4-12.1c5.9-1.8,12-3.7,18-4.9
			c19.5-3.7,39.4-7.7,58.3,3.3c1.9,2.3,4,4.5,5.5,7c3.1,5.3,3.6,9.7-4.6,9.8c-7.5,0.1-8.9,5-9,11.1c-5.5,1.1-11.4,6.4-15.8-1.9
			c0.9-0.6,2-1,1.7-2.4c-8.8-6.4-30.1-6.1-38.1,0.6c-1,0.2-1.9,0.5-1.6,1.8c1.4,1.8,4.7,2.8,3.9,5.3c-1.1,3.6-4.6,0.8-6.9,1.5
			C111.3,64.2,108,57.9,104.2,62.4z"/>
		<path class="st88" d="M133.9,72c3.6-3.1,8.2-1.3,12.2-2.4c0.9-0.4,1.8-0.2,2.5,0.5c0.4,0.9,0.4,1.9,0.5,2.8
			c0.2,2.2-3.5,5.3,0.9,6.4c3.1,0.8,4.4-2,5.2-4.7c0.6-2.2,0.8-4.6,3.5-5.5c8.8-0.7,14.6,3.3,17.3,11.6c0.7,2.3,1.7,4.1,3.9,5.4
			c3.6,2.2,8.1,4.6,6,9.9c-2.1,5.2-6.7,7.1-12.3,6.1c-0.7-0.1-1.3-0.1-2-0.2c-6.7-0.6-13.3,0.6-20,1.1c-4.8-6.3-13.4-3.2-18.8-7.7
			C132.8,87.5,128,79.5,133.9,72z"/>
		<path class="st89" d="M147.6,70.3c-0.5-0.2-1-0.4-1.5-0.7c8.7-3.9,17.3-2.2,25.8,0.4c9.7,2.2,13.9,10.4,17.9,17.9
			c4,7.5-1.1,13.9-12.8,17.5c-1.1,0-2.1-0.4-2.9-1.1c-0.9-0.4-1.8-0.8-2.8-1.2c-0.5-1.1-0.7-2.2,0.7-2.8c2.2-0.6,4.5-1.1,6.5-1.9
			c1.8-0.7,3.6-2,3.6-4.2c0-2.9-2.4-4.1-4.7-4c-7.1,0-8-2.7-7.2-9.7c0.9-7.5-5-10.7-12.4-10.1C154.5,73.9,151,73.8,147.6,70.3z"/>
		<path class="st90" d="M174.2,104.3c0.6-0.1,1.2-0.3,1.8-0.5c2.4-1.1,5.1-1.4,7.6-2.3c4.6-1.6,6-3.9,4.5-9
			c-1.3-4.6-4.7-10.3,1.8-14.2c1.3,0.6,2.6,1.2,3.9,1.7c1.3,1.4,2.7,2.9,4,4.3c1.5,8.2-7.6,14.8-3.8,23.4
			c-6.6,5.6-13.9,3.4-21.1,1.7c-1.1-0.9-1.3-2-0.7-3.2C172.8,105.6,173.5,104.9,174.2,104.3z"/>
		<path class="st91" d="M189.8,78.3c-0.4,3.6-1.3,7.2-1.2,10.8c0.4,13.7,0.5,13.7-12.7,14.7c14.4-8.4,13-20.4-4-33.8
			C178.9,70.8,184.6,74,189.8,78.3z"/>
		<path class="st92" d="M133.9,72c0.3,5.4-0.6,11,2.9,15.9c2.3,3.3-1.1,4.4-2.9,6c0.8,2.8-0.7,5-2.1,7.2c-0.6,0.6-1.3,1.1-2.2,1.3
			c-1.2-0.1-2.5-0.3-3.7-0.4c-1.4-0.9-3.8-2.3-3.3-3.3c4.2-7.8-1-17.6,5.1-24.9C129.4,71.6,131.7,72,133.9,72z"/>
		<path class="st93" d="M127.8,73.9c1.5,9.5-0.8,18.8-1.8,28.2c-6.5-0.7-8.9-3.3-5.3-9.7c3.1-5.6-3.2-13,3.3-18.1
			C125.3,74.1,126.6,74,127.8,73.9z"/>
		<path class="st94" d="M180,62.1c4.4-3.1,8.2-10.8,14.2-2c-2,3.1-3,7.5-8.3,6.4C183.5,65.7,180.6,65.4,180,62.1z"/>
		<path class="st95" d="M136,54.1c2.4,0.1,4.5,0.4,4.5,2.9c0,1.9-2,2.2-3.6,2.3c-1.9,0.1-3-1.2-3.4-2.8
			C132.7,53.8,135.2,54.7,136,54.1z"/>
		<path class="st96" d="M185.9,66.5c2.9-1.9,2.4-8.3,8.3-6.4c0.9,1.4,0.7,2.8-0.3,4.1C191.6,66.1,189.5,68.8,185.9,66.5z"/>
		<path class="st97" d="M157.8,53.8c2.7,0.4,5.8-0.7,8.2,2.3c-3.4,4.3-6.7,1.4-10,0.1C156.6,55.4,157.2,54.6,157.8,53.8z"/>
		<path class="st98" d="M118.1,56.2c-2.1-0.4-4.3,1.9-6.2-0.2c-0.4-0.5-0.4-2.1,0-2.4c2.8-2.3,5.3-0.4,7.8,0.8
			C119.2,55,118.7,55.6,118.1,56.2z"/>
		<path class="st99" d="M139.7,183.9c0,2,0.1,3.9,0.1,5.9c-1.7,11.1-4.1,12.1-13.8,6.2c-0.7-0.7-1.4-1.3-2.1-2
			c-1.4-4-2.7-7.9-4.1-11.9c-5-8.1,1.6-12.6,5.5-17.9c1-0.5,2-0.7,3.1-0.6c2.8,0.4,4.5,2.4,6,4.5
			C135.2,173.7,134.9,179.6,139.7,183.9z"/>
		<path class="st100" d="M148.4,198c4.8,0.9,4.7-3.9,6.8-6c4,1.2,8.4,1.2,11.7,4.3c1.8,2.1,1,5.2,2.8,7.2c0.2,0.4,0.4,0.8,0.6,1.2
			c-2.1,1.7-4.3,3.3-6.4,5c-3.3,0.6-6.5,1.3-9.8,1.9c-1.2-2-2.5-4-3.7-6c-0.7-1.2-1.4-2.5-2.1-3.7
			C148.3,200.6,148.4,199.3,148.4,198z"/>
		<path class="st101" d="M126,196c5.6,0.2,11.9,1.8,13.8-6.2c0.7,3.4,1.4,6.7,2.1,10.1C134.8,206.1,130.2,202,126,196z"/>
		<path class="st102" d="M126.1,166c5,8.1-6.3,9.9-6.2,16.1c-3.2-2.2-5.2-5.1-5.8-8.9c-1.1-7.2-4.6-13.2-9.9-18
			c-4.5-4.1-6.7-9-6.1-15.1c0-2.1,0.1-4.1,0.1-6.2c2.9-0.9,4.5,0.6,5.1,3.1c2.4,9.6,8.9,15.7,17,20.6
			C123.3,159.4,126.2,161.7,126.1,166z"/>
		<path class="st103" d="M172.1,106.2c0,0.5-0.1,1.1-0.1,1.6c0.1,1.6-0.4,3-1.6,4.1c-0.9,0.6-1.9,0.9-2.9,1
			c-7.3-0.8-14.3,1.1-21.3,2.3c-1.6,0.4-3.1,0-4.7-0.4c-1.6-0.5-2.8-1.4-3.4-3c-5.8-3.1-12.3-1.5-18.5-2.3c-3.8-0.5-7.4-0.3-7.6-5.5
			c15.6,3.5,31.4,2.8,47.2,2.2C163.5,106,167.8,106.2,172.1,106.2z"/>
		<path class="st92" d="M172.2,100.3c-0.2,0.9-0.5,1.9-0.7,2.8c-13.9,0.2-27.9,3.4-41.7-0.6c0.2-0.3,0.5-0.7,0.7-1
			c6.6-4.7,13.1-5,19.5,0.3C157.3,101,164.6,99.2,172.2,100.3z"/>
		<path class="st104" d="M141.8,112.4c1.4,0,2.7-0.1,4.1-0.1c6,0.8,8.6,4.7,8.1,10.2c-0.6,6.5-5.4,9.7-11.4,10
			c-4.9,0.3-8.1,1.9-9.4,6.7c-5.9,5.4-12.9,5.7-20.2,4.2c-7-3-9.5-7.8-6.5-15.1c-2.4-5.1-8.5-10.6,1.7-14.3c0.7,0.7,1.4,1.5,2.1,2.2
			C121.4,120.4,131.6,116.8,141.8,112.4z"/>
		<path class="st105" d="M106.4,128.3c4.3,2.5,0.9,8.9,5.6,11.3c0,1.4,0.3,2.7,1.1,3.8c1.7,6,5.5,10.3,10.4,14
			c2.7,2.1,6.7,3.7,4.5,8.5c-0.6,0.1-1.3,0.1-1.9,0.2c-12.7-7.7-25-15.9-27.9-32.1C96.7,125.8,103.1,129.3,106.4,128.3z"/>
		<path class="st106" d="M141.8,112.4c-5.6,8.8-16.1,7.6-24.1,11.3c-3,1.4-8.5-1.4-7.5-7.5c8.8-4.4,19,0,27.9-4.3
			C139.3,112,140.6,112.2,141.8,112.4z"/>
		<path class="st107" d="M200.2,126.1c0,0.7,0,1.5,0,2.2c-0.3,7.8-5.7,9.6-12,9.3c-4.2-0.2-8.5-0.6-12.6-1.4
			c-5.8-1.3-10.2-4.5-13.1-9.8c-0.2-1-0.1-2.1,0.3-3c3.8-4.8,8.4-5.7,13.8-3c3.5,2.9,6.8,3.4,9.7-0.9c2.6-3.1,6.1-5.3,9.2-7.8
			c0.8-0.4,1.6-0.8,2.4-1.2c0.6-0.9,1.2-1.8,1.8-2.7C201.2,113.9,202.3,119.9,200.2,126.1z"/>
		<path class="st108" d="M197.7,110.5c0,0.5,0.1,0.9,0.1,1.4c-4.1,2.9-8.8,4.6-13.6,5.8c-7.5,1.8-12.7-1.3-14.7-8
			c0.8-0.6,1.6-1.2,2.4-1.9c7.3,0,14.6,0,21.9,0C195.2,108.7,196.5,109.6,197.7,110.5z"/>
		<path class="st109" d="M183.8,168.1c-2.2-0.3-4.7,0.3-6.2-2.1c0.3-1.4,0.6-2.7,0.8-4.1c-0.2-5.1-6.3-7.8-5.4-13.3
			c0.1-1.6,0.6-3.2,1.7-4.4c4.6-3,8.6-8.3,15.2-4.2c4.1,6.7-1.5,14.8,2.9,21.5C192.5,167.3,189.6,169.7,183.8,168.1z"/>
		<path class="st110" d="M175.7,150c1.5,3.8,5.8,7,2.8,11.9c-0.3-0.5-0.6-1-0.8-1.6c-2.6-1.2-5.1-2.6-7.9-0.5
			c-0.6,0.1-1.3,0.2-1.9,0.3c-4.4-2.6-10.8,2.7-14.4-3.4c0.1-10.5,1.4-11.9,13.3-13.7C171.9,142.7,174.2,146,175.7,150z"/>
		<path class="st111" d="M139.7,183.9c-9-1.1-6.9-8-7.3-13.7c3.8-2.8,7.1,2.7,10.8,0.8c0.9,0,1.7-0.1,2.6-0.1c2.1,0.1,4.5-1,5.9,1.6
			C150.7,179.4,142.1,178.4,139.7,183.9z"/>
		<path class="st112" d="M151.7,172.4c-2,0.5-4,0.9-6,1.4c-3.1-6.4-5.9-12.7,2.7-17.2c4.5,0.2,5.3,3.7,6.3,7
			c0.2,0.9,0.6,1.8,1.1,2.6C156.2,169.5,153.2,170.5,151.7,172.4z"/>
		<path class="st82" d="M155.8,166.3c-0.6-0.3-1.2-0.6-1.9-0.9c-3.1-7.7-3.1-7.7,2.2-7.4c4.6-2.4,8.2-0.1,11.9,2.2
			C163.6,161.5,158.9,162.3,155.8,166.3z"/>
		<path class="st82" d="M169.9,159.8c0.5-1.9,0.6-4.3,3.3-4.2c2.7,0.1,3.7,2.5,4.6,4.7C175,161.4,172.4,161.3,169.9,159.8z"/>
		<path class="st113" d="M166.2,198.1c-4.3-0.8-9-1.1-10.9-6.1c0.3-0.7,0.6-1.5,0.8-2.2c7.2-0.7,14.4-1.3,21.7-2
			c2.2,0.5,4.9,0.8,5.2,3.6c0.4,3.5-3.1,3.7-5.2,5C174.3,199.4,170.5,200.9,166.2,198.1z"/>
		<path class="st114" d="M166.2,198.1c3.9-0.6,7.7-1.2,11.6-1.8c1.5,1.7,5.8,1.7,4.1,5.3c-1.3,2.8-3.9,0.7-6,0.3
			c-2.3-0.5-4.5-0.4-6.2,1.6c-2.1,0.5-4.8,1.7-6.1-0.6C162.6,200.9,165.1,199.6,166.2,198.1z"/>
		<path class="st115" d="M183.8,168.1c4-1.2,6-3.9,6.2-8.1c0.7-1.5,1.4-3,3.3-3.2c0.9,0.1,1.5,0.5,1.9,1.2c0,0,0.9,0,0.9,0
			c-1.8,4.3,2.8,12.1-6.7,12.3C187.6,169.9,185.3,170.1,183.8,168.1z"/>
		<path class="st116" d="M195.3,158.1c-0.6-0.1-1.2-0.2-1.8-0.3c-5.4-9.7-2.5-15.3,8.2-15.9c0.1,0.8,0.3,1.5,0.4,2.3
			C200.5,149.2,195.9,152.6,195.3,158.1z"/>
		<path class="st117" d="M190,142.1c-4.9,1.4-9.7,2.7-14.6,4.1c-8-5.8-8.2-7.7-1.5-14.2c8.7-1.6,18.5,4.7,26.2-3.7
			c7.6,1.9,2,6.2,1.7,9.5C199,142.3,196,146.2,190,142.1z"/>
		<path class="st118" d="M190,142.1c4.5,0,8.4-1.4,11.8-4.3c0,1.4,0,2.7-0.1,4.1c-6.3,3.5-7.7,9.5-8.2,15.9
			c-1.2,0.7-2.4,1.5-3.5,2.2C186.4,154.1,184.6,148.1,190,142.1z"/>
		<path class="st119" d="M164.2,47.1c-0.6,2.1-2.3,2.1-4,2c-1.7-0.1-3.5-0.7-3.4-2.7c0.1-2.3,2.1-2.2,3.7-2.1
			C162.2,44.4,163.7,45.2,164.2,47.1z"/>
		<path class="st120" d="M147.6,70.3c3.5,0.1,7,0.1,10.5,0.2c3,4.3,5.9,9,0.5,13.1c-5.2,3.9-11.5,4-16.9,0.7
			C135.7,80.6,138.2,74.9,147.6,70.3z"/>
		<path class="st121" d="M149.9,101.7c-6.5-0.1-13-0.2-19.5-0.2c-2.9-4.4,0.6-5.9,3.5-7.5c4,0.1,7.9,0,11.9,0.3
			C150.8,94.6,152,97.4,149.9,101.7z"/>
		<path class="st122" d="M143.8,173.9c-5.5,4-7.8-1.7-11.3-3.7c-1.5-1.5-2.9-2.9-4.4-4.4c-4.6-6.2-11.9-9.2-17.3-14.5
			c-3.2-3.2-6-6.3-3-11.1c2.6,2,5.3,3.6,8.6,4.2c9.2,9.4,23.1,13.9,28.4,27.4C145,172.7,144.6,173.4,143.8,173.9z"/>
		<path class="st123" d="M131.8,136c-2.5-2.3-7.5-1.1-8.6-6c3.7-2.8,7.5-0.9,11.3-0.7c5.2,0.2,11,0.9,14.5-4.4
			c3.4-5.2-1.6-8.5-3.2-12.6c7.2-2.7,14.5-3.9,22.1-2.3c2.1,4.6,0.3,8.5-2.6,12c-4.2,1.4-5.7,4.7-6.2,8.7c-0.8,4.2-3.1,6.8-7.5,7.2
			C145,137.8,137.6,144.9,131.8,136z"/>
		<path class="st124" d="M163.6,122.6c0.2-4.6,1.5-8.9,4.4-12.6c0.5-0.2,1.1-0.3,1.6-0.3c9,6.4,19,0.4,28.3,2.2
			c-2.5,3.8-5.4,7.4-4.1,12.5c-6.3,2-12.9,1.6-19.4,1.8c-3.2-1.6-6-4.4-10-2.3l-0.9-0.4L163.6,122.6z"/>
		<path class="st125" d="M131.8,136c6.1,1.4,11.6-3.5,17.8-1.8c2.6,2,4.6,4.3,3.9,7.9c-1.6,5.5-5.2,8.5-11,7.5
			c-6.2-1-10.9,5.3-17.2,3c-4.7-0.3-8.7-2.9-13.1-4.3c-2.6-2.1-4.3-4.7-4.5-8.1c1.4-0.2,2.9-0.4,4.3-0.6
			C119.1,140.8,125.8,140.2,131.8,136z"/>
		<path class="st126" d="M173.9,132.1c-4,5.2-1.1,9.7,1.5,14.2c0.1,1.3,0.2,2.5,0.3,3.8c-2.4-1.6-4.3-4.3-7.7-3.7
			c-0.4-0.3-0.9-0.6-1.3-0.9c-2.9-5.1-5.2-10.4-5.2-16.4c0.5-1.6,1.3-2.8,3-3.2C167.6,127.9,170.8,130,173.9,132.1z"/>
		<path class="st127" d="M164.5,125.8c-0.1,1.4-0.2,2.7-0.3,4.1c-1.3,2-3.2,2.3-5.4,1.6c-1.4-0.8-2-2.3-2.9-3.4
			c-1.2-3.5-4.3-7.4,0.3-10.3c5.1-3.2,5.1,2.8,7.4,4.8c0.1,0.6,0.3,1,0.7,1.3C164.3,124.6,164.3,125.2,164.5,125.8z"/>
		<path class="st128" d="M174.4,126.2c6.2-3.4,12.8-2.4,19.4-1.8C187.6,128.8,181.2,129.5,174.4,126.2z"/>
		<path class="st129" d="M155.9,128.1c0.8,0.6,1.5,1.2,2.3,1.8c5.1,4,4.7,11.3,9.6,15.4c0.1,0.3,0.2,0.7,0.2,1
			c-6.4,1.4-12.6,3-12,11.6c-3.5,1.7-1.8,4.9-2.2,7.4c-2.9-1.6-3.4-4.5-4-7.3c-3.5-2.6-4.2-5.7-1.6-9.2c1.6-2.1,3.5-4,1.8-6.9
			c-0.2-2.6-0.4-5.1-0.6-7.7C153.4,133.9,155.7,132.1,155.9,128.1z"/>
		<path class="st130" d="M150.1,141.9c2.2,5.4-0.3,10.8-0.2,16.2c-4.9,4.3-2.5,10.6-4.2,15.8c-0.7,0.1-1.3,0.1-2,0.1
			c0-0.7,0.1-1.5,0.1-2.2c-5.5-8.2-11.2-16.3-19.9-21.7c4.7-3.4,10.2-4.1,15.8-4C143.9,146.1,147.8,146,150.1,141.9z"/>
		<path class="st131" d="M124,150c10.1-1.2,17,1.3,16.7,13.4c-0.1,2.7,2,5.5,3.1,8.3c-10-8.6-20.5-16.4-31.7-23.5
			C116.2,148.9,120.1,149.4,124,150z"/>
		<path class="st132" d="M167.8,145.3c-11.7,0.2-7.7-9.4-9.6-15.4c2,0,4,0,6,0C166.3,134.8,170.2,139.3,167.8,145.3z"/>
	</g>
</g>
</svg>
