<?xml version="1.0" encoding="utf-8"?>
<!-- Generator: Adobe Illustrator 25.2.1, SVG Export Plug-In . SVG Version: 6.00 Build 0)  -->
<svg version="1.1" id="Camada_1" xmlns="http://www.w3.org/2000/svg" xmlns:xlink="http://www.w3.org/1999/xlink" x="0px" y="0px"
	 viewBox="0 0 300 300" style="enable-background:new 0 0 300 300;" xml:space="preserve">
<style type="text/css">
	.st0{fill:#181001;}
	.st1{fill:#261002;}
	.st2{fill:#251804;}
	.st3{fill:#201504;}
	.st4{fill:#380801;}
	.st5{fill:#200902;}
	.st6{fill:#4A2B0C;}
	.st7{fill:#8C5519;}
	.st8{fill:#643717;}
	.st9{fill:#3C2109;}
	.st10{fill:#352303;}
	.st11{fill:#331806;}
	.st12{fill:#C2873A;}
	.st13{fill:#EDC261;}
	.st14{fill:#463C14;}
	.st15{fill:#513518;}
	.st16{fill:#331202;}
	.st17{fill:#5B361C;}
	.st18{fill:#6D4124;}
	.st19{fill:#2E1F06;}
	.st20{fill:#6B431E;}
	.st21{fill:#B88B56;}
	.st22{fill:#EBC375;}
	.st23{fill:#864C29;}
	.st24{fill:#9B622B;}
	.st25{fill:#C0864E;}
	.st26{fill:#53260F;}
	.st27{fill:#D38C56;}
	.st28{fill:#6F3410;}
	.st29{fill:#632E0F;}
	.st30{fill:#392104;}
	.st31{fill:#3F1B06;}
	.st32{fill:#351A09;}
	.st33{fill:#5E311A;}
	.st34{fill:#532508;}
	.st35{fill:#F2D37B;}
	.st36{fill:#D09954;}
	.st37{fill:#4A2B09;}
	.st38{fill:#8D561A;}
	.st39{fill:#68340A;}
	.st40{fill:#7C4315;}
	.st41{fill:#602F14;}
	.st42{fill:#461B09;}
	.st43{fill:#421605;}
	.st44{fill:#8E5C35;}
	.st45{fill:#9C5220;}
	.st46{fill:#83571F;}
	.st47{fill:#8E441F;}
	.st48{fill:#A66E36;}
	.st49{fill:#E8BA73;}
	.st50{fill:#563214;}
	.st51{fill:#8C5722;}
	.st52{fill:#7A4515;}
	.st53{fill:#77481C;}
	.st54{fill:#945D23;}
	.st55{fill:#5F3710;}
	.st56{fill:#754615;}
	.st57{fill:#F1C886;}
	.st58{fill:#F9B87E;}
	.st59{fill:#BA7B3E;}
	.st60{fill:#D69C5A;}
	.st61{fill:#B36A37;}
	.st62{fill:#946F4A;}
	.st63{fill:#A36623;}
	.st64{fill:#8A5725;}
	.st65{fill:#EAB45D;}
	.st66{fill:#ECB96B;}
	.st67{fill:#703F21;}
	.st68{fill:#A76D3A;}
	.st69{fill:#F5B26A;}
	.st70{fill:#C7592C;}
	.st71{fill:#824A1C;}
	.st72{fill:#663311;}
	.st73{fill:#D2975E;}
	.st74{fill:#DDA95C;}
	.st75{fill:#6A390B;}
	.st76{fill:#C78232;}
	.st77{fill:#C48442;}
	.st78{fill:#BA7D3D;}
	.st79{fill:#813D17;}
	.st80{fill:#A75928;}
	.st81{fill:#F5C072;}
	.st82{fill:#DC9C5D;}
	.st83{fill:#633615;}
	.st84{fill:#84451E;}
	.st85{fill:#F8C782;}
	.st86{fill:#804F16;}
	.st87{fill:#EBB968;}
	.st88{fill:#EEB365;}
	.st89{fill:#F5CA77;}
	.st90{fill:#F4D37E;}
	.st91{fill:#FCCF7D;}
	.st92{fill:#392822;}
	.st93{fill:#CBB09D;}
	.st94{fill:#462108;}
	.st95{fill:#EAA64D;}
</style>
<g>
	<g>
		<path class="st0" d="M94,299.8c-29.3,0-58.6-0.1-87.9,0.1c-5,0-6.2-1.1-6.1-6.1c0.3-30,0.1-59.9,0.1-89.9c2.9-3.8,7-4.8,11.5-4.8
			c7.1,0.1,11.3-3.2,12.2-10.4c0.1-1,0.5-1.9,0.8-2.9c1.4-4.8,2.3-10.6,9-9.9c6.8,0.7,5.1,6.6,5.5,11c1.6,17.2,12.1,29.9,22.1,42.5
			c6.8,8.5,13.7,18.4,26.5,19.4c10.2,4.9,20.3,10.2,30.1,15.9c4.8,4,6.8,9.1,0.9,13C109.4,284,104.1,294.6,94,299.8z"/>
		<path class="st1" d="M299.8,44.1c0,82.9-0.1,165.8,0.2,248.7c0,6-1.2,7.5-7.2,7.2c-11-0.6-22-0.2-33-0.2c-1.6-2.7-4.6-3.8-6.6-6
			c-3-2.7-6.8-4.8-8.5-8.8c-5.6-19.9-6.1-38.7,11.8-53.5c4.4-3.7,6.6-9,9.9-13.5c11-9.9,14.5-23.7,18.5-36.8
			c6.3-20.8,6.6-42.1,1.7-63.4c-0.5-2.3-2.1-4.1-3-6.2c-6.2-21.4-17.7-39.5-33.9-54.7c-2.6-2.4-5.8-4.5-6.8-8.3
			c-0.1-2.9-0.9-5.4-2.5-8.1c-4.6-7.5-2-12.5,7.1-15.5c1.3,0.4,2.9,1,3.1,2.2c1.9,13,13,19.2,20.6,28.1c6.1,7.1,10,6.6,15.3-1.3
			C289.7,49,290.7,40.9,299.8,44.1z"/>
		<path class="st2" d="M0.1,116C0.1,79.4,0.2,42.8,0,6.1C0,1.1,1.1,0,6.1,0C46.1,0.2,86,0.1,126,0.1c4.6,5.6,5.7,11.8,3,18.6
			c-7.8,7.7-19,6.8-28.2,11.2c-1.7,0.8-4.3,0.2-5.7-1.2c-7.8-7.5-18-6.2-27.3-7.5C49.5,18.8,34.5,24,25.4,41.8
			c-3.3,6.4-7.5,12.5-11.4,18.7c-7.2,11.4,1.6,28.3,15.3,30.9c14.8,2.8,14.8,2.8,10.3,16.8c-0.8,2.5,0,5.4-2.2,7.5
			c-3.1,1.7-4.5,4.2-5.7,7.6c-2.3,6.6-8.1,8.6-13.6,5C12.1,124.2,5.3,121.3,0.1,116z"/>
		<path class="st3" d="M0.1,116c6.9-0.7,12.7,1.2,17.7,6.4c4.3,4.4,8.9,5,10.3-2.9c0.8-4.7,4-5.5,7.9-5.5c3.9,2.3,4.6,6.1,5,10.2
			c0.2,12.1-0.7,24.3,0.1,36.4c-1.4,20,8.1,36.3,17.4,52.7c5.8,12.6,15.5,22,25.8,30.8c2.4,2.1,6.1,3.4,3.7,7.7
			c-6,0.3-10.5-2.6-15.3-6.1c-14.6-10.6-23.1-26-33.3-40.1c-4.4-6.1-3.4-14-3.5-21.3c0-2-0.3-4.5-2.7-4.7c-2.5-0.3-2.6,2.4-3.3,4.2
			c-2.6,6,1,14.7-5.4,18.4c-7.3,4.2-16.3,1.1-24.5,1.7C0.1,174.6,0.1,145.3,0.1,116z"/>
		<path class="st4" d="M125.9,18.1c1.1-6-2.3-12,0.1-18c41.3,0,82.6,0,123.9,0c4.6,8.8,3.8,19.2-2,26c-4.9,3.9-7.5,8.4-2.8,14.2
			c2.2,2.7,2,5.4,0.6,8.3c-2.4,1.6-4.7,0.5-7.1-0.1c-12.8-7.7-24.9-16.9-40.1-19.7c-7.5-1.5-14.9-4-22.7-3.7
			c-7.8-1.9-15.6-1.8-23.4,0.6c-7.6,1.2-15,4-22.9,2.6C126.5,25.5,123.2,22.8,125.9,18.1z"/>
		<path class="st5" d="M247.9,26.1c0.2-8.7-0.8-17.5,2-26c15,0,30,0.2,45-0.1c4.3-0.1,5.3,0.8,5.1,5.1c-0.4,13-0.1,26-0.1,39
			c-5.6,3.1-7.1,9.3-10.3,14.2c-7,10.9-13.2,11.4-20.9,1.5c-2.8-3.7-5.8-7-9.6-9.8C251.1,44.1,246.6,36.4,247.9,26.1z"/>
		<path class="st6" d="M227.9,299.8c-6,0-12,0-18,0c-3.4-4.9-2.9-9.5,0.1-14.6c2.7-4.5,3.1-9.2-2.7-12.1c-4.4-12,0.8-21.9,7-31.7
			c11.1-0.6,22.5,9.3,22.8,19.9c0.1,3,0.6,5.9,1.8,8.7C238.9,281.3,241.2,293.4,227.9,299.8z"/>
		<path class="st7" d="M164,299.8c-8.7,0-17.3,0-26,0c-4.7-6.1-9.3-5.1-14,0c-4,0-8,0-12,0c-1.8-1.8-2.9-4.4-1.1-6.1
			c5.2-5,5.7-12.3,9.5-17.9c1-1.2,2.2-2.1,3.7-2.5c1.5-0.2,3-0.2,4.5,0.3c2,0.6,3.1,2.4,4.7,3.7c1.1-3.7,0-8.2,4.4-10.4
			c4.3-1.2,6.4,2.1,9,4.4c4,6.8,11.4,9.7,17,14.8C168.9,290.7,169.9,295,164,299.8z"/>
		<path class="st8" d="M164,299.8c2.1-4.8,0.8-7.9-3.9-10.4c-6.9-3.6-12.1-9.2-16.1-15.9c-1.4-2.5-2.1-5-0.9-7.8c1-1.3,2.4-2,4-2.1
			c10.4,4.8,19.4,12.4,31.1,14.6c2.3,0.4,4.4,2.6,4.5,4.9c0.3,5.5,5.1,8.3,6.9,12.8c0.1,1.5-0.6,2.8-1.6,3.9
			C180,299.8,172,299.8,164,299.8z"/>
		<path class="st9" d="M187.9,299.8c0-1.3-0.1-2.6-0.1-4c-3.9-6.4-2.2-11.1,4.9-12.8c6.7-1.6,10.7-7.7,17.2-9.2
			c1.6-0.9,3.3-1.8,4.9-2.8c0.3,1.5,1.2,3.2,0.9,4.6c-1.8,8.1-3.9,16.1-5.8,24.1C202.6,299.8,195.3,299.8,187.9,299.8z"/>
		<path class="st10" d="M227.9,299.8c3.9-9,13-17.2,4-28c6.1-3.8,9.5-0.5,10.8,5c0.8,3.4,0.5,6.7,5.1,7c3.3,2,6,4.7,8,7.9
			c0.6,4.7-3.8,5.5-6,8.1C242.6,299.8,235.2,299.8,227.9,299.8z"/>
		<path class="st11" d="M123.9,275.6c-0.6,0.7-1.2,1.3-1.7,2c-3.6,10.2-12,16.1-20.1,22.2c-2.7,0-5.3,0-8,0
			c4.3-9.6,12.7-15.3,20.2-21.9c3.7-3.3,6.3-5.8,2-10.3c3.7-3.4,7.2-2.1,9.9,1.2C128.4,271.6,127,274.1,123.9,275.6z"/>
		<path class="st12" d="M102,299.8c4-9.9,14-14.3,20.1-22.2c3.8,1.4,1.7,3.3,0.4,5.1c-3.9,5.5-8.2,10.7-10.5,17.1
			C108.7,299.8,105.4,299.8,102,299.8z"/>
		<path class="st13" d="M124,299.8c0.6-3.8-1.5-10,5.3-9c4,0.6,12.2-0.1,8.7,9C133.3,299.8,128.7,299.8,124,299.8z"/>
		<path class="st14" d="M249.9,299.8c0.6-3.7,2.9-6.2,6-8.1c3.2,1.7,6.2,3.6,4,8.1C256.5,299.8,253.2,299.8,249.9,299.8z"/>
		<path class="st15" d="M123.9,275.6c2.9-7.9-3.6-6.8-7.7-8c-9.4-5.3-18.8-10.5-28.2-15.8c-11.5-11.3-25.1-20.6-31.8-36.1
			c0.5-1.4,1.2-2.6,2.7-3.1c2.9-0.4,5.3,0.6,6.9,2.9c15.9,23.3,38.7,37.4,64.1,48.2c2.7,4.6,3,8.7-2,11.9
			C126.5,275.7,125.2,275.6,123.9,275.6z"/>
		<path class="st3" d="M32.9,207.8c3.3,0.4,4.6,2.7,4.7,5.5c0.2,3.6-1.2,6.8-5.2,7c-3.5,0.2-3.9-3-3.9-5.7
			C28.4,211.5,29.4,208.8,32.9,207.8z"/>
		<path class="st16" d="M247.9,283.8c-2.5,1.8-4.7,5.6-8.1,3.9c-2.7-1.4-0.3-4.7-0.3-7.2c-0.1-5-3-7.6-7.5-8.7
			c1.7-10.9-0.1-19.9-11.7-24.7c-1.8-0.8-2.9-3.5-4.3-5.4c-2-0.8-3.6-2.3-3.8-4.3c-1.2-12.7-3.1-25.5,1.4-38.1
			c4.3-7.1,12.6-10.8,15.8-18.9c1.6-1.8,2.8-4,4.9-5.5c8.9-5.7,10.9-15.3,13.5-24.5c-0.9-3.1-0.4-6,1.1-8.7
			c3.3-5.6,7.9-7.9,14.2-5.2c2.3,1,4.7,1,6.6-0.5c8.3-6.4,14.7-3.5,20.2,4c2.4,25.5-2.7,49.4-15.6,71.6c-1.8,3.1-4.2,5.9-4.5,9.8
			c-1.7,5.2-5.4,8.9-9.1,12.7c-6,6.1-11.4,12.6-14.1,21.1c-1.2,3.7-2.8,6.6,1.6,9.2c3.6,2.1,1.6,5.1,0.7,7.9
			C247.4,276.1,245.9,279.8,247.9,283.8z"/>
		<path class="st17" d="M269.8,221.5c-2.1-3.7,0.5-6.5,2.1-9.1c13.9-22.3,17.7-46.7,15.9-72.4c-5.4-7.8-9.3-16-6.8-25.8
			c1.2-2.1,2.6-3.9,5.1-4.5c6.9,11.6,7.2,24.9,7.1,37.5C293.1,174.1,286.2,199.5,269.8,221.5z"/>
		<path class="st18" d="M286.1,109.7c-0.7,1.4-1.5,2.9-2.2,4.3c-3.9,1.4-5.5-1.3-6.5-4.2c-7.2-20.7-19.8-37.7-35.9-52.4
			c-1.9-1.7-3.8-3.7-4.9-6.2c-0.2-1-0.2-2,0.1-2.9c0.7-1.4,1.9-2.2,3.5-2.5c1.9,0.9,3.7,1.8,5.6,2.7c15.8,14.9,29.8,31,37.8,51.7
			C284.7,103.3,286,106.3,286.1,109.7z"/>
		<path class="st19" d="M125.9,18.1c1.3,2.5,2.6,4.9,3.9,7.4c-1.8,5.1-6.9,5.8-10.9,7.1c-6.9,2.2-13.1,5.5-18.9,9.7
			c-24,14.6-41.7,34.5-51.5,61.1c-3.8,6.4-3.6,14.2-7.4,20.6c-0.9,0.6-1.8,0.7-2.8,0.4c-0.8-3.5-1.5-7-2.3-10.5c0-1-0.1-2.1,0.2-3
			c2.6-8.6,6.3-17-9.6-14.2C19.7,98,9,84.7,8.1,77.2c-0.5-3.9-1.1-7.9-1.9-11.8c-0.6-2.7-1.2-5.7,1.4-7.3
			c7.3-4.5,10.2-12.4,13.7-19.3c10.1-20.4,27.4-25.1,47.5-22.2c9.7,1.4,21.1-1.5,28.8,8c0.7,0.9,3.6,1.2,4.6,0.5
			C109.4,19.9,118.2,21,125.9,18.1z"/>
		<path class="st20" d="M58.3,213.8c-0.7,0.7-1.4,1.3-2.1,2C46,199.2,37.2,182.3,38,162c2-4.4,0.8-8.9,0.4-13.4
			c-0.3-4-1.6-8.6,3.2-11.2c5.3,1.9,5,6.7,5,10.8c-0.3,16.4,3.8,32,8.5,47.5C55.9,201.8,64.8,206.5,58.3,213.8z"/>
		<path class="st21" d="M41.8,137.6c-3.4,7.8,0.9,16.8-3.8,24.4c-1.7-12.5-0.9-25,0.4-37.5c0.5-0.2,1-0.4,1.4-0.8
			c2.6,0.6,4,2.4,5.1,4.6C46.4,132.3,45.8,135.5,41.8,137.6z"/>
		<path class="st22" d="M98,40.1c9-8.5,21-10.4,31.9-14.6c7.3-1.1,14.7-2.2,22-3.4c1.2,1.2,1.5,2.7,1,4.3
			c-5.3,4.6-11.6,6.8-18.4,7.6c-5.5,0.7-10.8,2-15.2,5.8c-3.2,1.3-6.7,1.6-9.7,3.6c-3,1.7-5.8,4.1-9.6,2
			C98.1,44.1,97.9,42.1,98,40.1z"/>
		<path class="st23" d="M240.1,45.8c-0.8,0.8-1.6,1.6-2.4,2.4c-3.2,1.5-6.2,1.6-9.4-0.3c-9.5-5.5-19.7-9.3-30.1-12.6
			c-3.4-1.1-7.2-2.3-6.8-7.2c2.3-3.1,5.7-1.8,8.7-2.3C215,29.4,228,36.7,240.1,45.8z"/>
		<path class="st24" d="M200.1,25.9c-2.4,2.1-5.4,2.1-8.3,2.3c-2.3,3.6-5.6,4.2-9.5,3.5c-8-1.3-16.5-0.6-24-4.8
			c-1.5-3.9,1.3-4.4,3.9-4.7c4.6-0.6,9.2,0.4,13.8-0.3C184.3,21.6,192.2,23.7,200.1,25.9z"/>
		<path class="st25" d="M176.1,21.9c-5.4,4.4-12.6,0.7-18.3,3.9c-0.6,0.8-1.3,1.4-2.3,1.7c-1.6,0.1-2.9-0.3-3.7-1.8
			c0-1.2,0.1-2.4,0.1-3.6C159.9,19.9,168,20,176.1,21.9z"/>
		<path class="st26" d="M236,178c-1.3,1.3-2.7,2.7-4,4c-4.5,1.1-7.8,8.8-13.7,2.9c-0.4-0.1-0.3-1-1-0.6c10.8,4.2,2.8,9,0.6,13.6
			c-4.2,14.5-1,29.2-1.9,43.8c-0.6,11-8.2,20.6-6.1,32.1c-0.9,8.1-5.4,12.3-13.7,13c-5.2,0.4-8.8,3-8.5,9c-4.3-1.8-10.5-1.2-8.6-9.5
			c1-4.1-4.2-3.9-7.2-5.1c-9-3.5-19.3-5.1-24.1-15.4c-8.8-3.4-11.4-10.3-10.9-19c0.3-4.9,1.2-9.7-2.1-14.2c-1.9-2.6-0.3-5.7,1.7-8.2
			c1.7-2,3.7-3.8,5.3-5.9c8.7-11.6,8.7-11.6,20.5-2.9c5.7,4.2,14.4,4.1,20.4-0.8c5.5-4.5,8.8-10.9,10.8-17.6c1.8-6-2.5-10.3-9.1-9.3
			c-7,1-13.5,3.5-19,8.1c-3.5,2.9-7.2,5.3-11.6,1.9c-4.3-3.5-2.8-7.7-0.7-11.7c3.1-5.8,4.4-12.5,8.7-17.8c5.3-2.5,8.9-6.8,12.6-11.1
			c3.2-3.8,6.2-7.7,11.9-8.2c4.6-0.4,6.5-4.6,7.9-8.2c1.7-4.6,4.5-8.1,8-11.2c0.5-0.2,0.9-0.4,1.4-0.6c1.1-0.1,2.1,0.1,3,0.7
			c1.3,13.9,8.2,18.3,22.7,17.9C242.7,147.4,246.1,165.5,236,178z"/>
		<path class="st27" d="M127.9,275.7c0.2-4.2,0.5-8.4-1.7-12.2c-7.7-2.3-6.8-7.8-5-13.6c2.3-4.2,5.7-3.9,9.4-2.4
			c3.8,6.3,11.2,11.2,7.4,20.3c-1.1,5,0.3,9.7,2.1,14.3c1.1,2.8,2.4,5.9-2,7c-3.5,0.9-6.6-0.1-7.8-3.9
			C129.4,282.1,128.7,278.9,127.9,275.7z"/>
		<path class="st28" d="M138,267.9c-1.1-6.7-6.1-11.5-8.3-17.6c-4-9.2-11-10.2-19.5-7.3c-6.3-1.5-11.8-3.8-10.8-11.9
			c7.4-7.4,16.5-3.6,25-3.7c10.9,4.2,16.2,11.7,14.7,23.7c-0.7,5.6,3.8,9.6,4.9,14.7c0,2.6,0,5.1,0,7.7
			C142,271.6,140,269.7,138,267.9z"/>
		<path class="st29" d="M144,265.8c-2.9-2.8-6.1-5.6-5.8-10c0.8-10.3-3-18-12.3-22.9c-1-0.5-1.3-2.2-2-3.3c-2-5.6,3.5-6.4,6-9.2
			c7.5-4.1,11.9-10.3,13.3-18.7c1.1-7.2,6-13.4,5.3-21.1c2.4-5,5.7-9.5,9-14c1.8-2.5,3.8-4.7,7.2-2.7c1.3,2.1,1,4.1-0.6,6
			c-2.7,6.1-5.4,12.1-8.1,18.2c-1,2.4-2.7,5.4,0,7.2c2.9,2,4.7-1.3,6.5-3c6.5-6.4,15-8.5,23.4-10c8-1.4,13.8,4,13.9,11.7
			c0.1,11.9-14.3,28.2-26.1,29.6c-6.6,0.8-12.7-0.1-16.6-6.3c-3.5-5.5-6.6-5.1-10.7-0.2c-9.7,11.8-9.2,31.9,1.6,48.7
			C146.6,265.8,145.3,265.8,144,265.8z"/>
		<path class="st30" d="M99.9,232c3.9,2.8,7.1,6.7,12,8c7.2-0.4,12,2,12.1,10.1c0.6,4.5-1.3,9.4,2.2,13.4c-3.5,4.9-6.6,0.4-9.3-0.7
			c-24.9-9.8-43.1-27.8-58.6-49c-2.1-5.3-4.2-10.5-6.3-15.8c1-7.5,5.9-6.3,10.9-4.8c7.8,2.5,13,8.7,19.4,13.3
			c3.8,2.7,7.3,5.6,12.1,5.9c0.9,0.5,1.6,1.2,2.2,2.1c1.8,3,2.9,6.1,2.6,9.6C99.3,226.7,100.4,229.3,99.9,232z"/>
		<path class="st31" d="M236,178c1.2-5.1,2.5-10.2,1.8-15.6c-1.3-9.3-6.5-13.3-15.6-12c-14,2-15.1,1.1-16.2-12.9
			c-0.2-2.6-0.9-5.1-1.4-7.7c-2.2-1.1-2.2-3-1.6-5c1.5-2.5,3.4-4.6,5.5-6.7c5.4-5.1-2-3.1-2.8-4.8c-2.3-1.2-3.9-3.1-4.5-5.6
			c0.4-4.7-3-11.5,2.8-13.4c9.2-2.9,19.5-7.6,27.7,4.7c1.4-6.5-4.4-7.8-4.5-11.8c2.7-11,5-22.1,6.4-33.4c0.3-2.2,1.3-4.5,4.5-3.8
			c23.1,15.7,37.4,37.7,45.9,63.9c0.9,8.7,4.4,17.1,3.9,26c-6.3-3.1-12.1-5.3-16.9,2.8c-2.2,3.7-6.5,4-9.1,0.1
			c-3.2-4.8-6.3-3.6-9.9-0.9c-6.8,1.5-7.5-3.5-8.5-8c-1-4.2-1.6-10.5-6.5-9.6c-6.7,1.2-15-0.5-20,6.1c-3.4,4.6-0.9,10.1,5.4,10.5
			c8.1,0.5,15.2,4.4,22.9,5.8c3.4,0.6,5.1,2.6,6.7,5.2C249.9,162.7,245.8,172,236,178z"/>
		<path class="st32" d="M251.9,151.9c-12.3,1.2-23-7.3-35.8-5.8c-6,0.7-6.3-7.5-5.9-12.7c0.6-6.9,4.6-11.7,11.8-12.6
			c2.8-0.3,5.7,0.7,8.6-0.8c9.4-4.6,14.2-2.3,16.7,8.1c1.1,4.8,0.6,10,4.6,13.8C251.9,145.3,251.9,148.6,251.9,151.9z"/>
		<path class="st33" d="M219.8,183.7c3.3,1.6,5.5-0.2,7.7-2.3c1.6-1.6,3.3-2.2,4.4,0.6c-3.4,6.5-8,11.8-14.1,15.9
			c-1.9-0.3-3.7-0.5-6.2-0.8c1.5-4.5,7.1-2.8,8.1-6.6c-2.2-4.2-9.9,4.1-9.8-4.7C212.5,181.7,215.9,181.4,219.8,183.7z"/>
		<path class="st34" d="M238,50.1c0.2,13.2-2.5,25.8-8,37.8c-0.4,0.2-0.8,0.4-1.2,0.7c-3.8-0.4-3.8-3.9-5.3-6.2
			c-4.3-6.6-9-12.8-17.2-14.9c-8.7,0-13.5-7.3-20.4-10.6c-6.1-3.4-12.5-4.2-19.2-1.6c-7.4-1.2-13.4-3.7-12.5-13
			c0.2-2.4-0.7-4.4-2.4-6.2c-6.2-6.5-2.5-8.7,4.2-9.5c0.6-0.2,1.2-0.4,1.8-0.6c11.4,0.5,22.8,0.2,34,2.4c16.1,4.9,31.9,10.4,45.9,20
			C237.8,48.9,237.9,49.5,238,50.1z"/>
		<path class="st35" d="M98,40.1c0.7,1.2,1.3,2.4,2,3.6c0.9,6.3-4.6,8.4-8,11.7c-8.4,8.1-16.8,16.1-24.5,24.8
			c-3.6,4.4-3.7,10.7-7.8,14.9c-2.3,2.2-4,4.8-5,7.9c-1.2,3.5-3.2,6.3-7.6,5.8c-2.8-1.9-2.3-4.4-1.1-7C56.4,75.4,72.8,54.1,98,40.1z
			"/>
		<path class="st36" d="M45.9,101.7c0.7,2,1.4,4.1,2,6.1c7.9,6.9,0,12.1-1.8,18c-1.1,1.5-2.5,2.2-4.3,2.1c-0.7-1.4-1.4-2.8-2.1-4.3
			C40.4,116,41.9,108.5,45.9,101.7z"/>
		<path class="st37" d="M41.9,128c0.5-0.8,1.1-1.5,1.6-2.3c8.7-7.2,9.9-7.1,17.7,1.1c5.7,6,13,6.8,20.6,1.3c4.1-2.9,8-4.6,12.9-3.3
			c3.2,0.2,6.2-1.8,9.4-0.7c4.4,2.4,6.6,6,6.2,11.1c-6.1,6.1-11.5,12.6-12,21.8c-1.1,2.2-2.9,4-3.4,6.5c-1.7,4.8-1.7,9.9-1.6,14.9
			c0.1,11,0.3,22.1,2.4,32.9c-0.3,1.1-1,1.9-2,2.4c-4.7,2.8-8.6,1.7-12.5-1.7c-4.9-4.3-10.1-8.5-15.5-12.1c-4-2.7-8.5-5.5-13.7-1.9
			c-6.9-13.7-9.2-28.5-9.7-43.6c-0.2-5.6-0.3-11.1-0.4-16.7C41.8,134.4,41.9,131.2,41.9,128z"/>
		<path class="st38" d="M64.5,78.2c9.3-14.1,21.3-25.4,35.4-34.5c2.7-1.1,5.5-2.3,8.2-3.4c8.5,0.1,16.3,2,22,8.9
			c4.9,5.9,10.2,2,15.4,0.7c4.9-0.9,9.4,0.7,13.9,2.4c5.4,2.8,6.6,7,4.1,12.4c-11.8,8.4-24,1.3-35.9,0.3c-3.8-0.3-7.5-5.5-11.6-2.2
			c-4.4,3.6,0.6,7.8,0.8,11.8c0,0.7,0.1,1.3,0.1,2c0.1,2.6-0.9,4.7-2.5,6.7c-2.4,2.8-5.6,3.6-9,4c-6.5,1-5.3,6-5.4,10.3
			c-0.4,0.9-1,1.7-1.7,2.4C81.8,104.3,66.5,94.5,64.5,78.2z"/>
		<path class="st39" d="M159.9,54.2c-5.3,0-10.6,0-15.9,0c-4.3,1.8-7.7-0.2-8.5-4c-1.4-6.5-5.8-7-11-7.6c-3.6-0.4-8.4-0.1-8.3-6
			c11.1-5.9,23.3-8.5,35.6-10.8c1.4,0.2,2.8,0.5,4.2,0.7c-1.2,1.5-5,1.8-4,3.5c2.2,4.1,6.4,1,10.7,1.2c-3,5.6-4.9,11.2-3,17
			c0.8,2.3,4,1.8,6.3,2C166.3,54.9,163,54.4,159.9,54.2z"/>
		<path class="st40" d="M116.2,36.6c4.4,2.3,9.1,1.4,13.7,1.5c7.1,0.2,13.2,0.9,10.1,10.7c-1.1,3.5,1.3,4.7,4.1,5.5
			c-7.5,2.8-14.6,5.8-19.7-4.2c-3.1-6.1-12.9-2.8-16.1-9.7C110.9,39,113.5,37.8,116.2,36.6z"/>
		<path class="st41" d="M205.9,125.9c-0.5,1.3-1,2.6-1.4,3.9c0,0-0.8,0.2-0.8,0.2c-0.6,0.4-0.7,0.7-0.5,1.1c0.2,0.3,0.4,0.5,0.6,0.5
			c-1.8,4.2-3.8,8.4-5.4,12.8c-2.2,6.2-3.6,12.8-13.1,10.3c-3.2-0.9-5.6,2.9-8.1,5.1c-4.1,3.7-7.2,8.9-13.1,10.2c0-2,0-3.9,0-5.9
			c-2.5-3.5,0.5-5.9,2.4-7.7c6.4-6,4.4-10.8-1.3-15.6c-2.9-2.9-3.9-6.7-1.9-10c5.2-8.2,8.4-16.3,6.9-26.7c-1.1-7.1,2.5-14.3,12-14.7
			c8,1,12.6,7.1,18.2,11.8c1.1,3.4,0.4,7.1,2.1,10.3c0.5,4.3,1.1,8.6,4.2,12C206.8,124.5,206.6,125.3,205.9,125.9z"/>
		<path class="st42" d="M189.7,239.7c-1.9,8.5-3.8,16.4-13.4,21.4c-9.7,5.1-17.3,2.7-25-2.1c-4.4-2.8-6.6-7.5-5.5-13
			c1.1-5.1,3.5-9.7,8.9-11c8.1-1.9,16.2-3.7,24.5-4.7C185.4,229.4,189.3,232.7,189.7,239.7z"/>
		<path class="st43" d="M219.8,183.7c-3.1,1.7-6.4,2.2-9.8,2.1c-3.3-6.4,3.1-9.2,5.4-13.4c1.4-2.6,4,0.1,5.2,2.1
			C222.4,177.7,221.4,180.8,219.8,183.7z"/>
		<path class="st44" d="M203.7,131.6c-4.4,0.4-7.7-0.7-8.6-5.8c4.7-1.3,5.9,2.9,8.6,4.2C203.7,130.6,203.7,131.1,203.7,131.6z"/>
		<path class="st45" d="M124,250.1c-4-3.4-8.1-6.7-12.1-10.1c4.8-7.1,10-0.8,14.6,0c6.2,1,4.4,6.1,3.1,10.3
			C127.8,250.2,125.9,250.2,124,250.1z"/>
		<path class="st46" d="M99.9,232c-2.3-1.4-3.4-3.5-4.1-6c5.6-3.3,11.6-0.4,17.4-1.1c4.7-0.6,7.5-1.4,9.3-6.7
			c2-5.6,5.7-11.5,13.5-11c0.9,0.6,1.6,1.4,2.1,2.4c0.9,6.1-3.7,9.7-6.3,14.2c-2.9,1.6-6,3-7.9,5.9C116,231.5,107.7,229.2,99.9,232z
			"/>
		<path class="st47" d="M136.1,210.1c-0.1-0.8-0.2-1.6-0.3-2.4c-3.7-2.6-3.6-5.9-1.9-9.5c1.7-3.6,2.5-7.4,2.9-11.3
			c-0.2-8.1,5.4-13.3,10.4-18.1c3.8-3.7,6.9-7.6,9.7-12c4.7-2.9,6.7-6.9,4.6-12.4c0.9-3.3,2.6-5.4,6.5-4.5
			c8.3,9.3,8.1,10.7-4.1,24.2c-5.6,4.9-9.4,11-12,17.9c-2.7,7.8-6,15.3-9,23C141.7,208.2,140.7,211.4,136.1,210.1z"/>
		<path class="st28" d="M136.1,210.1c4.8-5.6,8-12.1,10.4-18.9c1.2-3.4,2-7.1,5.4-9.2c-3.4,15.6-5.8,31.6-20.1,41.8
			C133.3,219.2,134.7,214.6,136.1,210.1z"/>
		<path class="st48" d="M140,186c0.8,7.7-3.3,14.3-4.2,21.7c-3.4,5.1-8.1,9.3-10.9,15c-3.5,7.1-10.7,4.9-16.7,5.2
			c-4.3,0.2-8.5-0.1-12.5-1.9c-2.2-3.1-2.2-6.6-1.4-10.1c4-1.5,5.4,5.7,9.3,2.7c1.7,0.8,1.4-1.1,1.1,0.2c-0.1,0.3-0.4,0.1-1,0
			c-3-0.5-4.9-1.9-4.5-5.3c1.7-2.9,4.5-3.6,7.5-3.7c4.6-0.2,7.1-3.1,8.4-7c1.5-4.4-2.6-5.2-5-7.1c-1.1-0.8-1.5-2.1-1.7-3.4
			c0-1.6,0.7-2.9,1.7-4.1c1.9-1.7,4-3.1,6.7-3.1c1.5,0,2.9,0.4,4.3,0.8c1.8,0.3,3.5,1,5,2c4.6,2.3,6.7-2.5,10.1-3.5
			C137.8,184.4,139,184.9,140,186z"/>
		<path class="st49" d="M100.3,213.8c3.8,3.4,9,1.1,13.2,3.1c2.7,1.3,5.5,4.1,1.9,5.3c-5,1.6-10.9,0.7-16.3,0.4
			c-4.1-0.2-2.6-4.8-4.7-6.7c-0.3-0.7-0.5-1.4-0.8-2.1c0,0,0.9,0.2,0.9,0.2c0.9-1.4,1.7-2.8,3.5-3.2c0.8,0,1.6,0.2,2.3,0.7
			C100.8,212.3,100.8,213,100.3,213.8z"/>
		<path class="st50" d="M198.1,102.2c-7.6,0.1-10.6-7.2-16.4-10.1c-1.8,0.5-3.1-0.4-4.2-1.8c-1.4-3-3.1-6.1-0.8-9.4
			c5.8-4.7,11.3-4.1,16.4,1.1c2.5,2.6,5.5,4.5,8.5,6.3c2.9,1.1,5.8,1.4,8.1-1.4c0.4-0.8,0.9-1.5,1.3-2.3c1.5-2.4,3.3-4.5,6.3-4.9
			c3.8-0.1,5.9,2.1,7.2,5.4c0.9,2.2,2.1,4.1,5,3.3c0,0,0.3-0.5,0.3-0.5c8,7,10.5,10.7,12.6,18.3c-6.9-0.7-12.9-2.8-17.3-8.1
			c-5.1-6.1-11.2-1.9-16.7-1.5c-5.5,0.4-4.5,5.5-4.7,9.4C200,107.8,200,103.5,198.1,102.2z"/>
		<path class="st51" d="M198.1,102.2c2.7,0.1,3.9,2.4,5.8,3.7c1.4,1.3,2.8,2.7,4.2,4c7.3,6,7.2,6.3-1.5,11.1c-5.1,0.5-7-3-8.6-6.9
			C198,110.2,198.1,106.2,198.1,102.2z"/>
		<path class="st26" d="M205.7,120.1c4.5-2.5,6.3-5.6,2.4-10.1c5.1,0.4,9.1,3.3,14.7,6c-6.7,3-13.4,4.2-17,10c0-0.7,0-1.4,0-2
			C204.8,122.7,204.7,121.4,205.7,120.1z"/>
		<path class="st52" d="M202,92c-7.8-3.7-13.8-11.9-24-9.9c-2.7,2.4-5.5,2.5-8.4,0.6c-3.6-3.7-3-9.8-7.4-13.2
			c-1.1-1.8-0.6-3.6-0.2-5.5c-0.7-3.3-1.4-6.6-2-9.8c2-1.4,4-2.7,6-4.1c7.4,1.1,15.6-3.6,22.1,3.2c0,0.9-0.4,1.7-1.2,2.2
			c-1.7,1.7-4.1-1-5.6,1c6.2,4.5,14.4,4.9,19.6,10.8c1.3,1.9,2.7,4,4.6,5c6.6,3.3,8.3,9,8.5,15.6l0,0c1.9,3.6,0.2,5.3-3.2,4.7
			C207.8,92.1,204.8,92.7,202,92z"/>
		<path class="st53" d="M229.7,88.4c-0.5,3.9-1.8,6.1-5.2,2.1c-2.4-2.7-4.3-5.7-6.4-8.6c-6.1-2.9-11.1-7.2-15.5-12.3
			c-0.8-4.5,3.4-4.1,5.5-5.7C220.5,67.5,226,77.1,229.7,88.4z"/>
		<path class="st54" d="M208.1,64c-1.4,2-2.7,4-4.1,6c-1.9,1.9-3.8,1.7-5.9,0.3c-6.3-6.4-17.7-5-22-14.4c3.5-3.8,8.2,2.2,11.7-1.5
			c0.1-0.3,0.2-0.7,0.2-1C194.2,57.9,199.9,63.3,208.1,64z"/>
		<path class="st55" d="M95.8,128.1c-3.8-0.2-7,0.9-10.1,3.3c-12.3,9.4-20.5,8.2-30.2-4.3c-3.7-4.8-8-1.1-12-1.3
			c1.5-6,3-11.9,4.5-17.9c2.7-5.2,5.5-10.5,8.2-15.7c4.9-1.2,6.2,2.4,7.6,5.8c4.1,9.5,7.8,11,17.6,7.3c10.3-3.9,12.3-3,17,7.8
			c0.7,3.1,0.5,6.2-0.3,9.3C97.6,124.3,98.2,126.8,95.8,128.1z"/>
		<path class="st56" d="M95.8,114.1c-2.4-4.4-4-9-11.1-5.4c-15.2,7.7-22.8,3.5-26.5-13.2c-0.3-1.2-1.4-2.2-2.1-3.3
			c1.6-5.3,5.1-9.6,8.3-13.9C72.2,90.8,83.8,96.6,98,98.1C104.9,102.7,104.4,106.6,95.8,114.1z"/>
		<path class="st57" d="M98.4,211.4c-1.3,0.9-2.5,1.7-3.8,2.6c-4.2-11.7-6.2-23.8-4.3-36.2c1.1-1.9,0.8-5,4.3-4.7
			c5.1,1.9,5.7,7.3,8.5,10.9c0.8,1.1,1.3,2.3,1.5,3.6c0.2,1.9-0.9,3.8-0.4,5.8c3.8,3.6,14.5,3.6,7,13.2
			C107.5,209.9,102.2,208.8,98.4,211.4z"/>
		<path class="st58" d="M91.8,162c0.8-2,1.7-4,2.5-6c6-14.3,7.5-15.2,17.4-10.3c3.7,9.1-2.7,13.6-8.5,18.3
			C98.9,165.8,94.5,168.5,91.8,162z"/>
		<path class="st59" d="M107.9,135.5c-0.9-3.9-2.6-7.3-6-9.7c-0.5-1-0.4-2,0.3-2.9c10.1-1.3,20-3.4,29.7-6.7c1.4,0.7,2.9,1.3,4,2.4
			c1.8,3,0.4,5-2.1,6.4c-2.6,1.4-5,3-6.5,5.6c-2.8,1.8-5.5,3.5-8.1,5.6c-3.1,0.4-6.2,0.5-9.3,1C109,136.9,108.3,136.3,107.9,135.5z"
			/>
		<path class="st60" d="M110,146.1c-7.9-0.8-12.3,3.8-15.8,9.9c1-9.2,5-16.4,13.7-20.4c0.1,0.5,0.2,1,0.4,1.4
			c2.6,1.2,5.9,1.7,6.7,5.2C114.6,145,113.4,146.9,110,146.1z"/>
		<path class="st61" d="M91.8,162c3.4,1.6,6.7,0.6,10-0.4c0.8,0.6,1.3,1.5,1.4,2.5c-1.3,5.2-4.6,8.4-9.6,10.2
			c-1.1,1.2-2.3,2.4-3.4,3.6C90.9,172.5,87.9,166.9,91.8,162z"/>
		<path class="st62" d="M102.1,123.9c0,0.6-0.1,1.3-0.2,1.9c-1,2.9,0.2,7.6-3.9,8c-2.7,0.3-1.5-3.7-2.3-5.7c-0.6-2-1.2-4-1.7-6
			c0.7-0.7,1.5-1,2.4-1C98.8,121.1,101,121.3,102.1,123.9z"/>
		<path class="st63" d="M162,64c0.7,1.2,1.5,2.4,2.2,3.6c-2.4,6.3-7.6,5.1-12.5,4.7c-2.7-0.7-5.2-1.1-6.8,2c-1.3,2.3-1.6,5-3.1,7.2
			c-0.7,0.6-1.4,1.1-2.2,1.5c-7.7,4.7-11.3-0.7-14.9-6c-2.7-2.3-5.4-1.2-8.1,0.1c-0.9,0-1.7-0.3-2.4-0.8c-0.5-4.3-7.5-4.2-6.5-10.1
			c1.5-8.3,6.6-11,16.2-8.1C136.3,61.8,148.6,66.2,162,64z"/>
		<path class="st64" d="M95.9,121.9c-0.6,0-1.2,0-1.8,0.1c0.6-2.6,1.2-5.3,1.8-7.9c0.6-5.3,6.5-10,2.1-16c0-0.7,0-1.3,0.1-2
			c2.3-4.5,0.6-10.6,5.8-14c2.7,0,5.5-0.1,8.2-0.1c1.8-1.7,3.3-1.2,4.8,0.4c1.6,3.3-1.4,6.1-1,9.3c-0.8,4.7,5,7.9,3.1,12.8
			c-0.5,0.8-1.1,1.5-1.9,2.1c-10.3,0.5-13.1,9.8-18.6,15.9C97.3,122.9,96.5,122.6,95.9,121.9z"/>
		<path class="st65" d="M114.9,84.4c-1-0.8-1.9-1.5-2.9-2.3c0.7-1.9,1.4-3.9,2.1-5.8c0.6-0.1,1.3-0.1,1.9-0.2
			c4.2-0.5,6.7-6.2,11.9-4c3.8,1.1,5,3.4,4.2,7.4c-0.4,1.8,0.3,1.9,5,0.8c3,7.3,2.4,8.2-7.7,10.9C124.4,89.4,115.9,94.9,114.9,84.4z
			"/>
		<path class="st66" d="M103.8,82.2c4.9,7.5-0.2,10.8-5.8,14C93.3,88.7,96.1,84.4,103.8,82.2z"/>
		<path class="st67" d="M179.9,90.1c0.6,0.7,1.3,1.3,1.9,2c-6.4,3.3-9.4,8.7-8.6,15.7c1.1,8.6,0,16.5-5.2,23.6
			c-2.1,2.8-1.4,5.6,0.1,8.4c-2.3,1.5-3.7,3.5-4.1,6.2c-4.1,8.2-12.4,10.9-20.9,6.1c-3.8-2.1-7.5-3.7-11.7-4.4
			c-2.3-0.9-3.8-2.5-4.6-4.8c-0.2-1.1-0.2-2.2,0.2-3.2c1.7-3,5.2-3.1,7.7-4.9c2-1.1,4-2,6.3-2.3c0.8-0.4,1.6-0.8,2-1.8
			c0.4-1.5,0.8-2.9,1.5-4.2c1.4-2,3.3-3.6,4.1-6c1.4-2.7,3.8-3.4,6.6-3.7c6.1-0.5,7.7-5,7.4-9.8c-0.5-6.6-5.5-3.8-9.1-3.5
			c-3.1,0.2-6.8,2-8.4-2.6C150.2,85.9,169.7,79.8,179.9,90.1z"/>
		<path class="st68" d="M205.7,120.1c0.1,1.3,0.1,2.5,0.2,3.8c-5.1-1.3-9.9-2.7-7.9-9.7C200.6,116.1,203.1,118.1,205.7,120.1z"/>
		<path class="st69" d="M131.9,143.9c10.6,2.6,20.8,9.9,32.1,2.1c8.5,6.2,1.5,9.7-2.3,13.8c-10.4,5-19.3,11.6-24.9,22
			c-1.8,1.7-2.6,4.1-4,6.1c-3.9,3-8.1,4.5-13,2.2c-0.5-0.7-1-1.3-1.5-2c-1-3.3-1-6.6-0.1-9.9c1.3-5.7-2.5-10.9-1.7-16.5
			c0.5-3.5,0.9-7.3,3.9-9.9C125.4,151.1,130.5,150.3,131.9,143.9z"/>
		<path class="st70" d="M134.1,180.1c3.4-14.7,15.3-17.7,27.5-20.3c-8.5,7.7-15.8,16.3-21.7,26.2c-1.3,0-2.6,0.1-4,0.1
			C133.9,184.6,133.3,182.6,134.1,180.1z"/>
		<path class="st71" d="M109.9,204.2c-0.5-5.4-0.5-5.7-8.1-5.4c-5.2,0.2-8.8-0.1-5.5-6.6c4.6-1.3,9.1-4.9,13.8-0.2
			c5.3,2.4,10.6,4.9,16.5,7.6c-9.1,5-13.2,17.6-26.2,14.1c-0.3-0.5-0.5-1-0.5-1.6C96.5,201,106.4,206.7,109.9,204.2z"/>
		<path class="st72" d="M122.1,179.8c-0.9,3-1.6,6-4,8.3c-2.1,0.7-4.2,1.4-6.4,2.1c-3.4-0.3-7.1,0.3-10.1-2
			c-0.6-0.7-1.2-1.5-1.7-2.2c-1.4-2.8-1.7-5.6,0-8.3c0.9-0.5,1.8-0.8,2.8-0.5c1.4,0.4,2.4,1.4,3.8,2c-1.5-0.8-2.4-2.2-3.4-3.6
			c-3.1-8.7,4.4-8.5,9-10.6C121,166.2,123.1,172,122.1,179.8z"/>
		<path class="st73" d="M134.1,180.1c0.6,2,1.3,4,1.9,6c-0.7,8.7-5.5,9-11.9,5.8c2.7-2,5.9-3.2,7.8-6.1
			C132.6,183.9,133.4,182,134.1,180.1z"/>
		<path class="st73" d="M101.8,188.2c3.6-0.7,6.9,0.3,10.1,2c-0.6,0.6-1.2,1.2-1.8,1.8c-4.6,0.1-9.2,0.2-13.8,0.2
			C98.1,190.9,99.9,189.5,101.8,188.2z"/>
		<path class="st74" d="M131.9,185.8c-0.7,4.5-3.8,5.8-7.8,6.1c-1.4-0.6-2.9-1.2-4.3-1.8C124.3,190.1,127.8,187,131.9,185.8z"/>
		<path class="st48" d="M109.9,204.2c-3.5,2.5-10.3,0.7-10.1,7.9c-0.5-0.2-1-0.5-1.4-0.7C96.8,200.4,105.4,205.5,109.9,204.2z"/>
		<path class="st41" d="M179.9,90.1c-14.5-4.7-24.5,2.7-33.7,12.4c-0.8,5-4.8,7.1-8.7,9.4c-7.9,0.9-15.2,0.3-19.5-7.8
			c-3.5-4.1-14.5-4.9-6.2-14.2c4.4-2.3,9.1-0.6,13.7-0.9c11.1,3.8,18.5-1.5,24.8-9.8c6.5-2.3,13-4.2,19.3,0.5
			c2.8,0.8,5.5,1.5,8.3,2.3C178.6,84.8,179.3,87.4,179.9,90.1z"/>
		<path class="st75" d="M198.1,70.3c2-0.1,3.9-0.2,5.9-0.3c6.4,1.9,10,7.1,14.1,11.9c-2.3,1.4-3.7,3.4-4.1,6.1
			C211.6,79.5,202.9,76.6,198.1,70.3z"/>
		<path class="st75" d="M202,92c3.3-3.5,9.5,1.9,12-4C213.1,94.9,212,95.3,202,92z"/>
		<path class="st76" d="M169.6,79.8c-5.9,1.4-12.7-0.8-17.9,4c-8.6,6-9.8,5.7-12.1-3.5c0.6-2.8,1.1-5.6,1.7-8.3
			c3.9,1,6.6-0.6,8.6-3.8c4.8,0.6,9.6,1.6,14.2-0.4C171.7,69.2,171,74.4,169.6,79.8z"/>
		<path class="st77" d="M187.9,54.3c-3.1,7.1-7.7,2.1-11.7,1.5c0.1-1.3-6.5-1.9-0.7-3.7C179.6,50.9,183.8,53.1,187.9,54.3z"/>
		<path class="st78" d="M197.2,80.3c4.4-1.2,7.6,0.5,9.7,3.9c0.3,0.5-0.4,2.3-0.8,2.4C201.6,87,199.9,83,197.2,80.3z"/>
		<path class="st79" d="M112.2,167.7c-3.1,2-9,1.9-6.1,8.3c-0.9,1.7-2.4,1.9-4.1,1.9c-2,2.4-1.8,5.3-2,8.1
			c-2.1-3.9-4.2-7.9-6.3-11.8c-2.4-7.5,4-8.1,8.2-10.4C107.1,160.6,111.1,160.4,112.2,167.7z"/>
		<path class="st80" d="M112.2,167.7c-2.5-3.8-6.4-3.9-10.3-4c0-0.7-0.1-1.5-0.1-2.2c4.3-4.4,6.3-9.9,8.3-15.5
			c2-0.8,2.9-2.4,3.4-4.4c-0.1-1.6,0.7-2.6,1.9-3.4c3.6-0.9,7.1-2.2,10.8-0.3c0.7,0.6,1.3,1.3,1.5,2.2c0.1,0.5,0.2,1.1,0.3,1.6
			c-0.8,4.1-1.8,8.1-5.9,10.2c-3.5,9.2,2.6,18.5,0,27.7C121.6,173.4,119.6,168.4,112.2,167.7z"/>
		<path class="st81" d="M118,104.1c6.4,2,12.8,3.9,19.6,3.7c3.7-1.5,7.3-3.1,11.3-3.7c5-0.8,8.7,1.1,9.5,6.3
			c0.7,4.9-2.1,6.9-6.8,7.8c-6.5,1.3-13.1,1-19.7,1.4c-9.7,3.3-19,8.7-29.8,4.4c-2.1-0.4-4.8,0.8-6.2-2c0.5-0.1,1-0.1,1.5-0.1
			c1.8-0.8,2.9-3.3,4.7-3.3c9.2-0.2,12.9-5.7,14.1-13.9C116.8,104.5,117.4,104.3,118,104.1z"/>
		<path class="st82" d="M131.9,119.5c5-3.2,10.6-3.2,16.2-3.5c3.2-0.2,7.4-0.1,6.8-4.9c-0.5-3.9-4.1-4.9-7.6-4.7
			c-3.3,0.2-6.5,0.8-9.7,1.3c1.7-3.6,6-3,8.6-5.3c3.7-2,7.6-4,11.2-6.1c6.6-3.9,9.8-1.5,10.7,5.6c1.6,11.9-0.6,14.3-18.2,20
			c-5.1,3.4-9.6,1.9-13.8-1.8C134.8,119.9,133.3,119.7,131.9,119.5z"/>
		<path class="st83" d="M136.2,120.1c4.6,0.6,9.2,1.2,13.8,1.8c3.1,0.6,6.6-0.9,10.3,2.5c-5.2,1.3-9.8,2.4-14.4,3.5
			c-3.4,3.3-10.3,3.3-9.7,10.4c-2.8,0.6-5.6,1.2-8.4,1.9c-0.5-0.2-1-0.4-1.5-0.6c-5.3-3-5.3-7.1-2.3-11.7
			C126.7,123.2,131.9,122.4,136.2,120.1z"/>
		<path class="st84" d="M124,127.9c-0.2,4.1,0.8,7.9,2.3,11.7c-3.5-1.8-6.9,5.5-10.4,0.1c-1.9-2.7-0.6-4.3,1.9-5.5
			C119.4,131.7,121.1,129.2,124,127.9z"/>
		<path class="st85" d="M117.7,134.2c-0.6,1.8-1.2,3.7-1.9,5.5c-0.8,0.7-1.6,1.3-2.4,2c-3.4,0.3-5.5-0.9-5.2-4.7
			C110.8,133.8,113,129.6,117.7,134.2z"/>
		<path class="st86" d="M139.7,80.3c2.7,5.7,7,6,12.1,3.5c-4.5,8.7-13,9.8-21.3,11.1c-3.1,0.5-3.2-2.5-2.5-4.9
			c-1.3-0.6-1.3-1.1,0.1-1.6c3.5-2.1,9-2.1,9-8C138,80.3,138.8,80.3,139.7,80.3z"/>
		<path class="st87" d="M124.9,61.2c-4.9,4.7-7.6,8.6-12.6,8.4c-1.8-0.1-2.1-2.5-1.2-4C113.7,61,117.9,60.2,124.9,61.2z"/>
		<path class="st88" d="M150,68.1c1.2,4.9-1.6,8.6-5.4,9.7c-2.7,0.8-2.6-3.6-3.2-5.9C143.6,69.3,146.4,67.9,150,68.1z"/>
		<path class="st89" d="M127.9,72.1c-2.3,1.8-4.6,3.5-6.8,5.4c-2.5,2.1-4,1.5-5-1.4C119.1,72.1,121.8,66.9,127.9,72.1z"/>
		<path class="st90" d="M116.2,104.7c2.7,3.8,5.9,7.5,3.3,12.6c-2.6,5.1-7.5,4.7-12.2,4.7c-3.3,0-6.6-0.1-9.9-0.1
			c0.9-3.5,1.6-7,2.7-10.4C103.1,102.6,107,101,116.2,104.7z"/>
		<path class="st38" d="M128,88.3c0,0.5-0.1,1.1-0.1,1.6c-5.4,0-10.7,0-16.1,0c-1.8-3.4,1.4-4.1,3.1-5.5
			C118.7,87.7,123.3,88.3,128,88.3z"/>
		<path class="st91" d="M122.1,152c-1.4-5.3-2.7-10.7,5.9-10.2c1.3,0.7,2.6,1.4,3.9,2.1c0.9,4.4,7.7,7.5,3.8,12.8
			C131.4,162.6,126.1,160.6,122.1,152z"/>
		<path class="st92" d="M136.1,138.3c-9.1-3.2-3.1-6.9-0.1-10.1c2.9-3.1,6.5-1.8,9.8-0.3c0.7,1.3,1.4,2.6,2.1,3.9
			c-0.6,3.9-3.2,4.8-6.7,4.5C139.6,137,137.9,137.6,136.1,138.3z"/>
		<path class="st93" d="M141.4,136.3c2.2-1.5,4.4-3,6.7-4.5c4.5,4,1.2,7.4-1.8,9.1C142.4,143,141.7,139.3,141.4,136.3z"/>
		<path class="st94" d="M102,177.9c1.4-0.6,2.7-1.3,4.1-1.9c2.5,1.2,5.1,1,7.8,0.5c2.3-0.4,5.1-0.4,5.1,2.9c0,3.1-2.2,4.9-5.2,4.8
			C109,184,104.9,182,102,177.9z"/>
		<path class="st95" d="M158.6,75.5c2.4-2.4,4.6-3.5,7.4-2.1c0.4,0.2,0.7,2,0.3,2.4C164.2,78.1,161.8,78.2,158.6,75.5z"/>
	</g>
</g>
</svg>
