<?xml version="1.0" encoding="utf-8"?>
<!-- Generator: Adobe Illustrator 25.2.1, SVG Export Plug-In . SVG Version: 6.00 Build 0)  -->
<svg version="1.1" id="Camada_1" xmlns="http://www.w3.org/2000/svg" xmlns:xlink="http://www.w3.org/1999/xlink" x="0px" y="0px"
	 viewBox="0 0 300 300" style="enable-background:new 0 0 300 300;" xml:space="preserve">
<style type="text/css">
	.st0{fill:#211003;}
	.st1{fill:#281102;}
	.st2{fill:#4E1A04;}
	.st3{fill:#362E04;}
	.st4{fill:#4E220B;}
	.st5{fill:#3C1504;}
	.st6{fill:#391203;}
	.st7{fill:#261B04;}
	.st8{fill:#1B0B02;}
	.st9{fill:#4E250F;}
	.st10{fill:#2F2703;}
	.st11{fill:#391F04;}
	.st12{fill:#693918;}
	.st13{fill:#82280C;}
	.st14{fill:#2D2805;}
	.st15{fill:#512008;}
	.st16{fill:#753B16;}
	.st17{fill:#642103;}
	.st18{fill:#4F2510;}
	.st19{fill:#E9A364;}
	.st20{fill:#613318;}
	.st21{fill:#99270A;}
	.st22{fill:#653B1E;}
	.st23{fill:#562116;}
	.st24{fill:#A33315;}
	.st25{fill:#7E4122;}
	.st26{fill:#433F10;}
	.st27{fill:#93573A;}
	.st28{fill:#86583A;}
	.st29{fill:#462308;}
	.st30{fill:#301406;}
	.st31{fill:#3E1B05;}
	.st32{fill:#5A3011;}
	.st33{fill:#3A1906;}
	.st34{fill:#6A4221;}
	.st35{fill:#7A512A;}
	.st36{fill:#4D2C15;}
	.st37{fill:#9C6937;}
	.st38{fill:#2E1204;}
	.st39{fill:#631E07;}
	.st40{fill:#763F1D;}
	.st41{fill:#8D582E;}
	.st42{fill:#9E7E44;}
	.st43{fill:#D4A864;}
	.st44{fill:#5D2B11;}
	.st45{fill:#F6C374;}
	.st46{fill:#945D36;}
	.st47{fill:#D34D30;}
	.st48{fill:#52270D;}
	.st49{fill:#6E3D21;}
	.st50{fill:#482205;}
	.st51{fill:#4F2808;}
	.st52{fill:#311507;}
	.st53{fill:#632E17;}
	.st54{fill:#471D09;}
	.st55{fill:#552C11;}
	.st56{fill:#7E5223;}
	.st57{fill:#573515;}
	.st58{fill:#6E3B21;}
	.st59{fill:#8E5343;}
	.st60{fill:#5A310B;}
	.st61{fill:#69390F;}
	.st62{fill:#804515;}
	.st63{fill:#523408;}
	.st64{fill:#7A4B12;}
	.st65{fill:#613C0F;}
	.st66{fill:#94591A;}
	.st67{fill:#6E381B;}
	.st68{fill:#844D2A;}
	.st69{fill:#301604;}
	.st70{fill:#BE895D;}
	.st71{fill:#583720;}
	.st72{fill:#441D08;}
	.st73{fill:#602B0A;}
	.st74{fill:#B77C4F;}
	.st75{fill:#482009;}
	.st76{fill:#9B5C34;}
	.st77{fill:#82502F;}
	.st78{fill:#88532E;}
	.st79{fill:#97582B;}
	.st80{fill:#6E3F1D;}
	.st81{fill:#996234;}
	.st82{fill:#905229;}
	.st83{fill:#AB783E;}
	.st84{fill:#A07238;}
	.st85{fill:#622D07;}
	.st86{fill:#502705;}
	.st87{fill:#1F0E07;}
	.st88{fill:#B05125;}
	.st89{fill:#5B2E07;}
	.st90{fill:#764827;}
	.st91{fill:#653615;}
	.st92{fill:#ECC875;}
	.st93{fill:#BF7F44;}
	.st94{fill:#A86B3C;}
	.st95{fill:#9F5A0D;}
	.st96{fill:#6C3506;}
	.st97{fill:#CC8027;}
	.st98{fill:#B66918;}
	.st99{fill:#A86C3A;}
	.st100{fill:#FBCE7B;}
	.st101{fill:#754218;}
	.st102{fill:#DF844B;}
	.st103{fill:#552910;}
	.st104{fill:#90552E;}
	.st105{fill:#C67D44;}
	.st106{fill:#46200B;}
	.st107{fill:#EDC176;}
	.st108{fill:#724119;}
	.st109{fill:#5C320E;}
	.st110{fill:#BF8650;}
	.st111{fill:#E3A579;}
	.st112{fill:#773D13;}
	.st113{fill:#DEA676;}
	.st114{fill:#F1A65B;}
	.st115{fill:#753B19;}
	.st116{fill:#C7713A;}
	.st117{fill:#AA7D51;}
	.st118{fill:#DAAE68;}
	.st119{fill:#7A420C;}
	.st120{fill:#905924;}
	.st121{fill:#985D1D;}
	.st122{fill:#905A25;}
	.st123{fill:#E17F42;}
	.st124{fill:#542A13;}
	.st125{fill:#401A05;}
	.st126{fill:#FBB066;}
	.st127{fill:#A56B34;}
	.st128{fill:#925C31;}
	.st129{fill:#CA9D72;}
	.st130{fill:#B2622C;}
	.st131{fill:#FCCF7E;}
	.st132{fill:#C06A37;}
	.st133{fill:#7E4721;}
	.st134{fill:#9E5C29;}
	.st135{fill:#F2C27A;}
	.st136{fill:#CF8148;}
	.st137{fill:#B16C12;}
	.st138{fill:#B86D27;}
	.st139{fill:#6E482F;}
	.st140{fill:#C59476;}
	.st141{fill:#F8CC8A;}
	.st142{fill:#F9A465;}
	.st143{fill:#FEC583;}
</style>
<g>
	<g>
		<path class="st0" d="M299.9,191.5c0,33.8-0.1,67.7,0.1,101.5c0,5-1.1,6.2-6.1,6.1c-25.9-0.3-51.8-0.1-77.7-0.1
			c-9.1-7.8-13.6-18.3-16.5-29.5c0.2-2.5,1.4-4.6,3.6-5.5c14-5.9,24.6-16.3,35.3-26.6c4.7-6.1,13.1-9.3,13.8-18.4
			c3.3-4,5-9.4,9.9-12.1c2.1-1,5.4-1.5,5.9-3.3c3.6-12.4,16.3-8.4,23.7-13.7C294.5,188,297.6,189,299.9,191.5z"/>
		<path class="st1" d="M1,195.5c0-29.2,0-58.4,0-87.6c0.4-0.5,1.1-1.1,1-1.6C1,90.2,12.3,80.5,20.8,69.2c5.4-7.2,4.1-9-4.8-10.3
			c-5-0.7-12.3,1.4-11.5-7.9c2.2-3.3,6.1-3.9,9.2-5.8c6-1.6,12.2-0.7,18.2-2.5c1.1-0.2,2.1-0.2,3.2,0c12.4,5.4,12.4,5.6,7.1,20.3
			c-0.8,1.9-2.1,3.4-3.1,5.1c-11.2,15-19.7,31.4-23.7,49.9c-6.9,24.8-3.7,49,4,72.9c6,19.5,16.9,35.9,32.1,49.4
			c5.8,6.2,12.7,11.3,18.4,17.7c1.1,2.8,2.2,6.6-0.2,8.4c-7.5,5.7-11.8,15-21,18.6c-9.8,3.7-18.4,9.7-27.7,14.2
			c-6.6,0-15.9,2.6-19.2-0.7C-1.6,295,1,285.8,1,279.1c0-19.2,0-38.5,0-57.7C2.6,212.8,2.6,204.1,1,195.5z"/>
		<path class="st2" d="M248.1,0.4c6.6,0,13.3,0,19.9,0c4.5,4,10.8,1.8,15.7,4.4c1.3,1.1,2,2.5,2.2,4.2c-6.2,12.8-2.7,24.8,2.4,37.1
			c10.3,25.1,11.9,50.8,2.7,76.7c-2.1,6-9.6,10.3-5.7,18.2c-1.6,5.3,1.2,12.4-6.3,15.3c-6.1-2.4-4-7.8-3.9-12
			c0.5-17.2-4.3-33.1-11.2-48.5c-1-2.4-2.1-4.8-2.2-7.5c3.6-4.8,2.8-10.6,3.1-16c0.7-12.6,0.7-25.3-0.1-39.5
			c-7.9,5.5-9.5,12.3-11.7,18.5c-1.7,4.5-3.3,8.7-8.9,9.2c-6.5-2-10.1-7.4-14.1-12.3C233,31.2,236.2,14.2,248.1,0.4z"/>
		<path class="st3" d="M248.1,0.4c-3.6,16.4-9.1,32.1-16,47.5c-0.4,0.3-0.8,0.6-1.2,0.9c-4.7,0.2-7.7-2.9-11-5.6
			C205.1,31,187.4,25.5,169.2,21c-2.1-0.6-3.5-1.8-3.9-4.1c3.3-6.3,6.5-12.8,13-16.5C201.6,0.4,224.8,0.4,248.1,0.4z"/>
		<path class="st4" d="M14.9,50.1c-3.3,0.7-6.6,1.4-9.9,2.1c-1.4,1.1-2.7,1-4-0.1c0-7.3,0-14.6,0-21.9c2.2-2.9,4.5-5.6,8.7-5
			c7.2-0.1,14.2,1.6,21.5,0.8c7.2-0.8,13.8-1.6,18.1-8.4c1.5-2.4,4.1-3.6,6.8-3.4c4.4,0.4,5.4-3,7.3-5.6c3.3-3.3,6.7-6.5,12-5.6
			c4.1,2.3,4.4,6.9,6.4,10.5c2.7,4.6,4.4,9.5,3.7,15c-0.4,2.1-1.5,3.8-3,5.3c-7.2,3.2-13.1,8.3-19.5,12.7c-2.8,2-5.6,4.7-9.5,4.4
			c-5.6-3.8-12.7-1.8-18.5-4.8c-0.7,0-1.3,0-2,0C27.5,50.6,20.7,47.9,14.9,50.1z"/>
		<path class="st5" d="M280,139.8c0-3.3-0.3-6.7,1.5-9.7c17.8-28.1,13-56.5,1-85c-5.2-12.3-7.2-24.7,1.5-36.5c2.2-2.4,4.4-2.1,6.6,0
			c2.6,3.9-1.7,6-2.3,9.1c0,1.6-0.4,3.9,1.4,4.3c6.5,1.6,7.7,7.4,10.1,12.2c0,37.8,0,75.7,0,113.5c-4,4.8-8.3,4.3-11-0.8
			C286.7,143,283.2,141.8,280,139.8z"/>
		<path class="st6" d="M280,139.8c1.3-1,2.6-2,3.9-3c2.2-1.7,4.1-5,7.5-2.9c2.7,1.6,2.2,4.6,1.6,7.2c-1.5,6.1,1.1,7.9,6.8,6.7
			c0,14.6,0,29.2,0,43.8c-4,0.8-7.7,2.3-9.7,6c-4.2,7.7-8.2,11.1-12.1-1c-5.1,5-7.1,11.9-14.2,12.8c-3.7-3.9-0.4-7.4,1-10.7
			c3.6-8.5,6.6-17,7.7-26.2c0.7-5.9,0.1-12.3,5.6-16.6C280.9,150.7,279.6,145.1,280,139.8z"/>
		<path class="st7" d="M20.9,299c5-10.6,16.9-11.4,24.8-17.8c7.9-6.4,16.7-12.1,21-22c5-6.8,11.6-10.8,20.1-9.8
			c6,0.6,9.2,5.3,10.9,10.4c2.4,7.3-2.1,13.3-4.6,19.7c-7.2,4.9-10.2,15-20.3,16.3c-1.5,0.2-3,0.2-4.4-0.4
			c-3.4-5.9-7.6-7.6-14.1-3.9c-6.7,3.6-14.8,3.7-21.5,7.6C28.9,299,24.9,299,20.9,299z"/>
		<path class="st8" d="M1,52.2c1.3,0,2.7,0.1,4,0.1c5.9,3.2,12.3,1.5,18.6,1.9c9.2,0.6,11.8,4.8,6.3,11.9c-5.4,7-9.5,15.3-17.3,20.3
			c-4,2.6-5.6,6.3-5.6,10.9c0,4.7-1.9,8.3-6,10.7C1,89.3,1,70.8,1,52.2z"/>
		<path class="st9" d="M176.3,299c-16.6,0-33.2,0-49.8,0c-13.2-2.8-22.8-11.8-33.2-19.5c-1-2.5,0.4-4.6,1.2-6.7
			c2.5-6.7,7.1-7.8,11.6-2.3c16.1,19.5,51.3,24.7,70,5.7c8-8.1,15.2-4.3,18.4,8.3C190.3,291.7,183,295,176.3,299z"/>
		<path class="st10" d="M202.2,269.2c5.7,9.5,12,18.7,14,29.9c-8,0-15.9,0-23.9,0c-3.8-3.3-4.8-7-1.9-11.4
			c6.3-4.4-1.1-10.1,1.5-14.9C194.6,269.6,197.1,265.7,202.2,269.2z"/>
		<path class="st11" d="M178.3,0.4c-3.1,6,0.1,16.8-12.1,16c-0.7,0.9-1.5,1.5-2.6,1.8c-6.9-0.9-13.9-0.2-20.8-2
			c-5-6.7-2.9-11.8,3.7-15.9C157.1,0.4,167.7,0.4,178.3,0.4z"/>
		<path class="st12" d="M1,22.3c0-4,0-8,0-11.9c4-5.7,10.2-5.9,16.2-6.7c10.8,3.2,22.4,0.8,33,5.3c2.7,3.4,0.5,6.1-2.3,6.8
			c-7.4,1.8-14,4.6-19.6,10.1c-2,1.9-5.6,0.9-8.5,1.2C14.3,22.1,6.1,28.3,1,22.3z"/>
		<path class="st13" d="M82.7,28.8c-1.5-4.7-3-9.4-4.5-14.1c0.2-0.8,0.7-1.6,1.3-2.2c2.3-1.7,6.2-0.4,7.4-4c0.9-2.9,0.8-6.1,3.7-8.1
			c2.7,0,5.3,0,8,0c4.1,2.6,10.4,3.5,8.8,10.7c-1.6,5.4-5.5,9.6-8,14.5C93.9,26.9,89.5,33.9,82.7,28.8z"/>
		<path class="st14" d="M32.8,299c10.2-10.5,24.8-12.6,37.1-19c1.6-0.9,4.2-0.8,5.1,1.4c1,2.5-1.3,3.4-2.9,4.3
			c-2.8,1.7-4.6,3.7-3.4,7.2c-1,4.3-4.5,4-7.7,4.1c-4.8,0-9.6,0.2-14.2,2C42.1,299,37.5,299,32.8,299z"/>
		<path class="st15" d="M146.4,0.4c-2.5,4.1,1.6,10-3.7,13.3c-4.6,6.2-12,2.9-17.7,5.4c-2.4,0.2-4.7,0.3-6.8-1.2
			c-6.1-10,2.7-13,8.3-17.5C133.1,0.4,139.8,0.4,146.4,0.4z"/>
		<path class="st16" d="M74.7,4.5c-3.3,2.1-6.6,4.1-9.8,6.2c-0.5,0-1-0.1-1.6-0.1c-8.4-1.2-16.6-3-25.2-1.4c-4.4,0.8-9.4,0.2-10.5-6
			c0.2-1.1,0.6-2,1.3-2.8c15.9,0,31.9,0,47.8,0C78,2.8,78,4.4,74.7,4.5z"/>
		<path class="st17" d="M126.5,0.4c-1.4,6-7.5,9.6-7.9,16.1c-4.6,8.6-12.3,7.2-19.9,5.8c-3.3-2.2-3.4-2.8-2-3.2
			c3.7-1,4.6-5.1,7.7-6.7c5.2-2.4,1.5-9.4,6.1-12.1C115.9,0.4,121.2,0.4,126.5,0.4z"/>
		<path class="st18" d="M94.6,279.1c1,0.1,2.3-0.3,2.9,0.2c9.1,7.4,20.5,11.4,29,19.7c-4.6,0-9.3,0-13.9,0c-6.6-3.3-13.3-8.4-19.9,0
			c-1.3,0-2.7,0-4,0c-8.4-7.9-1.9-13.5,3-19.3C92.4,278.7,93.4,278.4,94.6,279.1z"/>
		<path class="st14" d="M92.7,279.2c-0.6,6.8-5.1,12.8-4,19.9c-5.3,0-10.6,0-15.9,0c-1.5-2-1.6-4,0-6c6.3-4.2,10.2-11.6,17.9-14
			C91.3,278.4,92,278.5,92.7,279.2z"/>
		<path class="st2" d="M299.9,34.3c-4.1-2.6-7.6-6-12.5-7.7c-4.8-1.6-6.5-5.4-3.3-10.2c5.3-1.5,10.5-5.4,15.8,0
			C299.9,22.3,299.9,28.3,299.9,34.3z"/>
		<path class="st19" d="M28.9,0.4c0.1,0.6,0.1,1.3-0.2,1.9C27.1,8.9,21,6.5,16.9,8.2C11.6,8.9,6.3,9.6,1,10.4
			c-1.8-8.4,1.5-11.3,10-10.1C16.8,1.1,22.9,0.4,28.9,0.4z"/>
		<path class="st20" d="M92.6,299c0.2-4.5-0.8-9.7,4.7-11.7c5.2-1.9,7.2,3.2,10.2,5.8c1.9,1.7,3.4,3.9,5,5.9
			C105.9,299,99.3,299,92.6,299z"/>
		<path class="st21" d="M74.7,4.5c0.7-1.4,1.3-2.7,2-4.1c4.6,0,9.3,0,13.9,0c0.7,4,3.1,8,0.1,12c-4.4-3.8-7.3,0.5-10.8,2
			c-0.6,0.1-1.1,0.2-1.7,0.4C77.1,11.3,75.9,7.9,74.7,4.5z"/>
		<path class="st22" d="M192.4,287c0,4-0.1,8.1-0.1,12.1c-5.3,0-10.6,0-15.9,0c2.6-7.7,9.3-10.7,15.9-13.9c0.7,0.3,0.9,0.7,0.8,1.1
			C192.8,286.7,192.6,287,192.4,287z"/>
		<path class="st23" d="M290.1,10.8c-1.7-1.6-3.8-2.2-6.1-2.2c-0.7-0.8-1.4-1.5-2.2-2.3c-1.7-3.6,0.3-5,3.5-4.9
			c4.9,0.2,9.8-1.2,14.6,0.9c0,3.3,0,6.6,0,10C296.1,14.9,292.8,15.4,290.1,10.8z"/>
		<path class="st24" d="M110.6,0.4c3.7,7,2.3,11.3-6.1,12.1c0.6-5.2-3.3-8.3-5.8-12.1C102.6,0.4,106.6,0.4,110.6,0.4z"/>
		<path class="st25" d="M299.9,2.4c-6,1.5-13.3-3.1-18,3.9c-5.4-0.1-11.1,0.4-13.9-5.9c9.6,0,19.3,0,28.9,0
			C298.1,0.5,300.5-0.8,299.9,2.4z"/>
		<path class="st26" d="M72.7,293.1c0.9,2,0.8,4,0,6c-8.6,0-17.3,0-25.9,0c6.4-5.2,15-2.7,22-6.1C70.1,293,71.4,293,72.7,293.1z"/>
		<path class="st27" d="M1,22.3c5.8,1.7,12.3-4.7,17.6,1.8c-0.7,4.9-5.6,2-7.7,4.2c-3.3,0.7-6.6,1.3-9.9,2C1,27.6,1,25,1,22.3z"/>
		<path class="st28" d="M290.1,10.8c3.1,1.6,6.3,2,9.7,1.5c0,1.3,0,2.7,0,4c-5.3-0.7-10.5,2.8-15.8,0
			C284.1,12.3,287.9,12.5,290.1,10.8z"/>
		<path class="st29" d="M1,195.5c3.2,8.6,3,17.3,0,25.9C1,212.8,1,204.1,1,195.5z"/>
		<path class="st30" d="M202.2,269.2c-2.7,1.3-5.3,2.7-8,4c-6.5-0.5-10.1-6.5-16.4-8c-3.6-0.9-3.6-5-1.3-8.2c1.1-1.5,2.4-2.9,3.8-4
			c7.4-5.5,11.3-12.7,11.2-22c3.3-3.8,1.7-10.9,8.4-12.4c5.8,0.4,10.1-1.7,12.5-7.1c0.9-2.1,2.1-4.1,4.7-4.7
			c9.9-4.1,18.2,2.9,27.3,4.3c6.7,1,8.3,10.6,4.2,17c-2.4,3.7-6.9,6.1-6.8,11.3C230.8,252,219.5,264.5,202.2,269.2z"/>
		<path class="st31" d="M242.1,239.3c-4.5-4.6,1.4-6.7,2.7-9.7c1.9-4,3.7-7.6,1.1-12c-2.6-4.3-6-2.8-9.5-1.7c-3,1-5-0.9-6.7-3
			c-3.1-3.8-7.6-3.4-11.8-3.6c-4.2-3.4-1.9-7.6-1.3-11.6c3.5-5.8,9.3-10.1,9.7-17.8c0.1-2.6,2.7-5.3,5.7-6.4
			c7.4-2.8,14.9-5.6,22.9-6c8.9-0.5,11.6,2.2,12.3,11.3c0.3,3.6,0.9,7.2,1.5,10.8c-0.2,7.7-5.4,13.3-8,19.9c-1.6,3.9-5.2,7-4.7,11.7
			C254.2,229.4,245.9,232.6,242.1,239.3z"/>
		<path class="st32" d="M255.8,221.1c-2.6-6.5,3.1-10.7,4.6-16.1c1.3-4.6,3.6-9,5.5-13.4c0.7-6-1.3-12.6,3.6-17.8c2-1,4-1.4,6-0.3
			c-0.9,12.9-7.2,24.1-11.8,35.8C259.6,212.2,258.5,217.1,255.8,221.1z"/>
		<path class="st33" d="M196.2,233.3c-1.7,11.9-8.9,20.5-18.6,28.7c15-7.8,12.4,6.3,16.6,11.1c-0.2,4.7,0.8,9.5-1.8,13.8
			c-0.1-0.6-0.2-1.2-0.2-1.8c-2.2-6.5-6-12.2-12.6-5.7c-19.6,19.5-41,15.9-63.3,6.7c-4.7-1.9-9.2-3.7-11.5-8.7
			c-1.2-2.6-2-6.6-5.5-6.3c-4.1,0.4-3.5,5-4.6,7.9c-0.6,0-1.3,0-1.9,0c-0.7,0-1.4,0-2.1,0c0.8-2.8,1.5-5.7,2.5-8.5
			c2.1-5.9,1-11.2-3.8-15.1c-4.8-3.9-9.4-1.4-13.4,1.7c-2.9,2.3-5.8,2.7-9.2,1.9c-7.5-3.5-13-9.4-17.9-15.9
			c-3.9-10-12.8-16.5-18.2-25.6c-5.1-8.6-9.1-17.5-12.4-26.8c-0.9-5.8,0.4-11.9-1.6-17.6c-0.8-2.3-0.2-4.7,2-6.1
			c2.5-1.6,5.1-1.1,7.4,0.5c3.5,2.5,6.2,6,9.3,8.8c5.6,5,10.7,3.8,12.5-3.3c2.5-10.1,6.9-19.9,6.5-30.8c-0.2-4.7,0.2-10.6,8-8.7
			c5.7,8.8,2.3,19.2,5.2,28.4c0.6,6.1-0.9,12.7,5.8,16.8c2,1.2,2.1,4,1.3,6.4c-1.8,4.7-0.5,9.1,1,13.5c0.8,2.7,2.6,4.9,4,7.3
			c3.8,3.7,3,10.6,9,12.6c5.5,2.4,9.3,7.2,14.7,9.8c2.9,8.7,10.5,13.1,17,18.5c3.2,4.5,7,8.2,12.8,9.1c3.7,0.3,6.4,2.9,10,3.8
			c14.1,3.5,23.6-4.3,32.8-12.8c1.9-1.7,3.1-4.2,5-6c3-1.5,5.7-3.1,7.7-6C190.4,232.5,193,231.5,196.2,233.3z"/>
		<path class="st34" d="M16.7,193.8c-9.4-25.6-11.3-51.7-4-78.1c3.7,2.4,5,6.3,6.2,10.2c0.6,9.6-1.1,19.1-1.4,28.7
			c-0.4,12.3,1,24.3,2.3,36.4C19.7,192.7,19.1,194.2,16.7,193.8z"/>
		<path class="st35" d="M14.7,125.7c-2-3.1-1.6-6.7-1.9-10.1C16.7,97.1,25.5,81,36.7,66c2.4,0.4,3.8,2,4.6,4.1
			c0.7,2.8,0.1,5.3-1.9,7.5c-7.4,12.3-13.2,25.3-17.2,39.1C21,120.8,20.4,125.4,14.7,125.7z"/>
		<path class="st36" d="M16.7,193.8c0.8-0.8,1.5-1.5,2.3-2.3c0.7-1.4,1.3-1.4,1.9,0c5,16.4,14.3,30.4,25.2,43.4
			c2,2.4,5.4,4.4,2.7,8.4C34.8,228.9,22.8,213.3,16.7,193.8z"/>
		<path class="st37" d="M38.9,70.2c-0.7-1.4-1.5-2.8-2.2-4.2c0.7-1.2,1.5-2.3,2.2-3.5c4.7-4.5,4.5-14.1,14-13.7
			c9.8-4.5,16.4-14.2,27.4-16.7c0.8,0.6,1.4,1.3,1.6,2.3c0.1,1.5-0.3,2.8-1.2,4c-7.6,7.5-15.7,14.5-24.7,20.3
			c-4.4,0.8-6.1,4.3-7.8,7.7C46.3,70.4,43.5,72.5,38.9,70.2z"/>
		<path class="st38" d="M53,48.8c-4.6,4.6-8.4,10.1-14,13.7c2.4-6.4,4.5-12.7-4.1-16.3c3.8-0.5,7.7-0.9,11.5-1.4
			C49.7,44.4,53.1,43.5,53,48.8z"/>
		<path class="st38" d="M14.9,50.1c5.7-2.7,12-2.7,18-3.9C27.9,52.2,21,49.6,14.9,50.1z"/>
		<path class="st39" d="M243.5,58.4c6-7.3,6.3-17.3,11.9-24.7c3.2-4.2,5-12.4,11-10.8c5.6,1.4,3.4,9.1,3.5,14.2
			c0.2,10.9,0.3,21.8,0,32.6c-0.2,6.5-0.4,13.3-5.8,18.3c-2.2,0.1-3.8-0.8-4.9-2.6C253.7,76.6,245.4,69.4,243.5,58.4z"/>
		<path class="st40" d="M275.6,173.5c-1.2,0.7-2.4,1.4-3.6,2.1c-3.9-2-4.5-5.6-3.9-9.4c3.3-20.5-1.1-40.2-6.3-59.8
			c-0.7-2.5-1.8-5-0.6-7.7c1-2.2,2.5-4,5-4.8c8.7,15.5,12.1,32.3,11.9,50c0,3.9,0.1,7.9,0.1,11.8
			C277.3,161.7,276.4,167.6,275.6,173.5z"/>
		<path class="st41" d="M266,93.9c-0.7,1.4-1.5,2.8-2.2,4.1c-3.7,1.3-5.5-1.2-6.9-3.8c-5.9-11.3-14.5-20.8-21.9-31.1
			c-2.6-3.2-7.6-4.9-6.8-10.3c0.4-2.1,1.9-3.2,3.8-4c-0.1-0.3-0.1-0.7,0-1c3.8,3.5,7.6,7.1,11.5,10.6c7.9,9.2,14.1,19.5,20.6,29.6
			C264.7,90,265.4,92,266,93.9z"/>
		<path class="st42" d="M232.1,48.9c-0.6,1.1-1.2,2.1-1.8,3.2c-5.3,3.8-8.7-0.8-12.3-3.1c-8.7-5.6-17.3-11.3-27-15.1
			c-5.2,0.7-8.2-4.8-13.2-4.8c-3.4-0.5-6.9-0.8-8.7-4.3c-1.2-2.5-0.3-4.6,1.4-6.6C194,22.3,214.4,32.9,232.1,48.9z"/>
		<path class="st43" d="M170.4,18.3c0.6,1.4,0.9,2.8-0.2,4.2c-2.1,3.7-5.6,4.1-9.3,4.1c-4.4,0.1-8.3-1-10.7-5.2
			c-1.3-4,1.8-4.7,4.4-5.8c3.2,0,6.5-1,9.6,0.7c0.7,0.1,1.3,0.1,2,0.2C167.6,17.1,169,17.7,170.4,18.3z"/>
		<path class="st44" d="M10.9,28.2c2.6-1.4,5.1-2.8,7.7-4.2c1.9-0.3,5,0,5.5-1c5.7-11.3,17.1-9.9,26.8-12.4c4.3-3.7,9-2.7,13.7-0.8
			c0,0,0.3,0.8,0.3,0.8c-0.1,0.3,0,0.7-0.2,1c-4.1,8.6-22.2,19.6-31.2,18.8C25.9,29.8,18.4,29,10.9,28.2z"/>
		<path class="st45" d="M154.4,16.4c-1.4,1.2-2.7,2.4-4.1,3.6c-1.8,3.7-5.4,2.9-8.5,3.4c-8.6,1.5-17.2,3.4-25.3,6.7
			c-8.7,0.4-17.4,0.7-25.3,5.5c-3.2,1.9-7.5,2.8-10.3-1.7c-0.1-0.7-0.2-1.3-0.5-1.9c0.8-1.1,1.6-2.2,2.3-3.3
			c5.3-2.2,10.7-4.3,16-6.5c6.6-1.9,13.2-3.9,19.9-5.8c2-0.2,4-0.3,5.9-0.5C134.5,15.2,144.5,14.4,154.4,16.4z"/>
		<path class="st17" d="M154.4,16.4c-9.9-1.9-19.9,0.1-29.9-0.5c5.8-2.9,12.2-1,18.2-2.2c7.1,1.1,14.6-1.1,21.5,2.5
			C160.9,16.3,157.7,16.4,154.4,16.4z"/>
		<path class="st46" d="M64.5,9.9c-4.6,0.3-9.1,0.6-13.7,0.8c-11.4,0.4-22.7-0.8-34-2.6c3.9-2,7.8-3.9,11.7-5.9
			c3.2,5.4,8,5.4,13.6,5C49.7,6.9,57.9,3.1,64.5,9.9z"/>
		<path class="st47" d="M80,14.4c0.7-3.3,1.8-6.4,5.8-6.7c3.3-0.3,4.5,1.9,5,4.7C87.2,13.5,83.9,15.7,80,14.4z"/>
		<path class="st48" d="M196.2,233.3c-5,2.8-7.8,8.7-13.9,10c-2.1-1-2.7-2.8-2.8-5c0-1,0.3-2,0.7-2.9c6.6-15.4,15.1-30.1,18.9-46.7
			c0.2-1.5,0.3-3,0.8-4.5c3.4-4.6,3.1-13.8,12.2-11.2c8.1,2.4,3.9,10,5,15.3c-0.8,12.7-0.8,25.8-14.7,32.7
			C198.2,224.1,197.4,228.8,196.2,233.3z"/>
		<path class="st49" d="M202.4,221.1c0.2-1,0-2.4,0.5-2.8c9.4-7.4,7-19.4,11.2-28.8c0.2-3,1.4-5.5,4.8-4.7c4.3,1,4,4.6,3.4,8
			c-0.8,2.2-1,4.6-2.1,6.6c-0.8,3.3-1.6,6.6-2.3,9.8C213.9,214.7,211.9,222.8,202.4,221.1z"/>
		<path class="st50" d="M220.2,199.5c0-1.9,0.1-3.7,0.1-5.6c1.4-3.2,1-6.3-0.1-9.4c-1.4-4.7,3-9.1,0.6-13.8
			c-0.7-2.1-2.7-3.7-2.3-6.2c11.8-14.2,7.3-30.4,5.2-46.2c-0.7-4.8-3.5-9.2-4.6-14c-1.2-5-4.3-7-8.7-8.1c-1.9-1.1-2.8-2.8-3-4.9
			c1.3-4.8-3.6-9.4-0.6-14.3c6.7-6.4,14.9-10.7,22.6-15.6c2.7-1.7,5.3-2.7,8.3-1c11.1,10.9,19.8,23.5,26.1,37.7
			c9.6,25.1,12.6,50.9,8.1,77.5c-4,4.6-2.9,11-6,15.9c-0.5-1.6-1.2-3.1-1.5-4.7c-2.9-17.1-2.7-16.3-19.1-12.5
			c-10.2,2.4-18,5.2-19.6,17.1C225.4,194.3,222.2,196.8,220.2,199.5z"/>
		<path class="st51" d="M20.9,191.6c-0.6,0-1.3,0-1.9,0c-5.7-21.6-8.1-43.5-4.3-65.8c4.3-17.9,10.2-35.2,22-49.8
			c7.6-0.4,7.8,4.7,6.6,9.8c-2.5,10.6-4.2,21.2-5.1,32.1c-0.4,4.2-1,8.3,3.5,10.2c4.5,1.9,5-3.2,7-5.3c2.3-2.4,4.2-5.1,6.4-7.5
			c3.1-3.3,6.3-3.3,9,0.7c0.9,6.4,3.5,13-3.4,17.9c-2.7,13.4-3.2,27.2-7.1,40.5c-1.7,5.9-3.2,10.1-9.6,12.1c-6.7,2-9.8-1.4-12.8-6.1
			c-2.6-4.1-5.8-7.7-10.3-10.5C20.9,177.4,20.9,184.5,20.9,191.6z"/>
		<path class="st52" d="M60.7,133.7c0-6.6,0-13.2,0-19.8C57.4,105.1,63,93.2,73,87.8c4.7-0.6,7.4,1.7,7.8,6.2
			c0.4,3.7,2.7,5.6,5.6,7.2c2.2,1.2,4.5,2.3,5.5,4.8c-0.5,6.9,7.3,9.8,7.8,16.2c0.4,2.7-1.5,4.5-2.6,6.7c-5.4,4.7-6.9,11.1-7.5,17.9
			c1.1,5-2.8,8.4-3.9,12.7c-0.1,5.3-1.7,9.6-7.6,10.9c-2.1,0.3-4-0.6-5.8-1.6c-3.2-0.9-4.6-4.7-8.1-5.1
			C58.9,154.2,61.3,143.8,60.7,133.7z"/>
		<path class="st53" d="M64.3,163.6c3.3-2.3,6.5-3.2,8.7,1.4c0.1,3,2.2,2.5,4.1,2.3c4.6-1.6,2.6-7.1,5.6-9.6
			c5.7,10.1,11.8,20,17.2,30.3c2.4,5.9,6.1,11.3,7.6,17.6c0,6,0.4,12-1.9,17.8c-8.6,1.8-9.5-4.3-8.9-9.9c0.8-7.3-2-12-7.8-15.5
			c-1.7-2.1-2.1-5.3-5.2-6.5c-3.1,1.2-2.5,5-4.8,6.8c-1.7,1.7-3.8,2.7-6.1,3.1C72.5,188.3,64,176.9,64.3,163.6z"/>
		<path class="st54" d="M76.4,197.8c1-5.5,1.9-11,2.8-16.5c0.3-1.7,0.6-3.5,2.6-3.6c1.8-0.1,3.1,1.3,3.7,2.9c1.6,4.7,3.4,9.4,7.1,13
			c5.2,10.6,2.2,23.6,9.8,33.6c0.9,1.2-0.4,3.1-1.9,4.2c-3.8-4.4-10.4-4.7-13.9-9.7c-2.4-4.6-2.1-10.5-6.6-14.2
			C78.6,204.3,73.1,202.7,76.4,197.8z"/>
		<path class="st55" d="M100.5,231.3c-0.4-1.9-0.3-4.2-1.4-5.6c-7.8-9.6-7.2-20.9-6.5-32.2c5,5.9,9.4,11.9,7.6,20.5
			c-0.8,4,1,7.1,4.3,9.3c2.7-0.3,4.7,1,6.3,3c1.9,7,7.1,12.4,9.5,19.2c0,1.6-0.5,2.9-1.8,3.8C111.2,244.6,104.1,239.7,100.5,231.3z"
			/>
		<path class="st56" d="M118.5,249.3c-0.1-1.3-0.1-2.5-0.2-3.8c0.3-0.4,0.5-0.8,0.8-1.2c2.4-1.7,5.4-2.1,7.1,0
			c6.1,7.3,13.7,5.5,21.4,4.2c3.6-0.3,6.9,2,10.6,1.3c6.1-0.9,8-6.5,11.4-10.4c2.9-2.5,4.3-6.3,7.2-8.8c2-1.8,4.1-3.3,6.6-0.7
			c0.8,2.6,0.5,5.1-1.1,7.4l0,0c-5.9,15.2-18.1,23.3-34.4,23.2c-5.8-0.1-11.7,2-17.3-1.2C125.9,256.7,121.1,254.3,118.5,249.3z"/>
		<path class="st57" d="M130.5,259.2c9.2-0.7,18.6-0.9,27.7-2.3c11.6-1.8,16.8-12.2,24-19.7c0,2,0.1,4,0.1,6.1
			C168.2,264,148.6,270,130.5,259.2z"/>
		<path class="st58" d="M82.2,205.9c9.4,3,6.9,9.4,4.5,15.8c-7.1-2.1-8.5-8.2-9.9-14.3C78.2,205.6,80.4,206.5,82.2,205.9z"/>
		<path class="st59" d="M82.2,205.9c-1.3,2.5-3.3,2.2-5.4,1.5c-1.9-1.6-4.1-3-4-5.9c0.6-1.9,0.1-4.9,3.7-3.7
			C77.5,201.1,79.4,203.8,82.2,205.9z"/>
		<path class="st60" d="M74.5,89.8c-8.6,5.7-8.2,16.6-13.9,24.1c-3.6,7-9.8,12.4-11.6,20.5c-0.7,3-3.1,5.1-6.8,3.7
			c-6.1-2.3-10.9-14.1-9.9-20.6c1.8-11.6,3.4-23.1,6.8-34.4c0.8-2.7-0.5-5.1-2.5-7.1c0.7-1.9,1.5-3.8,2.2-5.7
			c5.9-4,8-12.1,15.4-14.6c5.5-0.2,5.8,3.5,4.9,7.3c-1.1,4.4-2,9-4.2,13.1c-1.5,2.8-1.4,5.6,1.1,8.1c2.8,2.9,4.5,0.3,6.8-0.7
			c4.8-2.2,9.5-3.1,13,2.4C76.1,87.4,75.8,88.8,74.5,89.8z"/>
		<path class="st61" d="M74.6,86c-6.5-0.5-11.7,1.2-14.8,7.5c-0.9,1.8-2.3,3.6-4.6,3C52,95.6,54,93.7,54.8,92
			c0.7-1.4,0.4-2.3-1.1-3.1c-6.8-3.4-7.7-7.4-3.9-15c2.9-5.7,7-11.3,4.6-18.4c6.6-8.3,16.4-12.5,24.3-19c3.9,0.6,5,3.3,3.7,6.4
			c-1.3,3.2-0.4,6.7-2,9.5c-4.2,7.4-2.2,13.7,2.7,19.8C81.6,77.8,81.4,83.9,74.6,86z"/>
		<path class="st62" d="M80.8,72.2c-8.2-0.1-11-5.4-7.8-14.5c2.4-6.9,7.4-13.1,5.7-21c0.7-0.9,1.5-1.8,2.2-2.7
			c11.5-1.9,21.6-8.9,33.4-9.8c1.5-0.9,3.4-1.5,4.2,0.3c1.5,3.2-0.8,4.9-3.3,6c-7.2,3.1-12.6,8.2-16.1,14.5c6.5-0.6,9.3,3.4,10,9.7
			c0,2.2-1.3,3.7-2.3,5.4c-2.3,4.4-6,7.5-10.7,7.3C90.1,67.2,86.8,73.6,80.8,72.2z"/>
		<path class="st63" d="M237.7,60.4c-6.1,7.3-16.1,9.5-22,17.2c-1.8,2.4-4.9,0.8-7.4,0.4c-6.3,2.9-7.3-5.2-11.9-5.7
			c-2.9-1.8-5.7-3.7-6.7-7.2c-0.5-3.4-0.8-6.9,2-9.3c6.9-5.9,4.1-10.8-1-15.8c-1.4-1.4-3-2.9-3.3-4.9c-0.6-3.8-0.4-7,5-4.9
			c13.7,5.5,26.7,12.1,37.9,21.8C232.7,54.9,235.2,57.7,237.7,60.4z"/>
		<path class="st64" d="M160.9,22c3.1,0.2,6.2,0.3,9.3,0.5c2.8,1.1,5.7,2.2,8.5,3.3c0.4,2.1,2,3.2,3.4,4.6c9.4,9.4,6.8,22-5.4,27.3
			c-8.7-1.7-17.1-6-26.3-2.4c-6,2.5-11.8,4.3-15-4c0.1-3.6,2.8-4.8,5.7-5.9c3.1-1.2,6.5-2.4,6.5-6.4c0-4.4-2.5-7.3-6.3-9.2
			c-1.5-0.7-3.1-1.1-4.5-1.9c-1.8-1.1-3.2-2.6-2.7-4.8c0.5-2,2.5-1.8,4.1-1.7C145.9,21.7,153.4,20.5,160.9,22z"/>
		<path class="st65" d="M176.2,54.3c7.5-5.8,8.6-12.9,3.6-20.7c-1.8-2.7-3.4-4.9-1.1-7.9c4.6,1.2,9.4,1.9,13.5,4.6
			c-4.2,4.8,1.4,6.1,3.3,8.1C205.9,49.4,206,49.2,195,59c-1.4,1.2-1.8,3.4-2.7,5.1C182.3,67.2,176.8,63.8,176.2,54.3z"/>
		<path class="st66" d="M160.9,22c-7.2,0-14.5,0-21.7,0c15.9,0.4,10.7,17.3,21.1,23.9c-9.4,1.7-16.5,3-23.7,4.3
			c-0.9,1.3-2,2.3-3.6,2.9c-6.5-0.1-13,0.1-19.3,2.4c-2.5,0.9-5.1,1.6-7-1.1c-3.9-9.2-13.6-3.8-20.2-7.5c5.3-1,8-3.4,10.1-7.9
			c3.5-7.5,10.9-10.8,18.5-13.3c0,0,0-0.6-0.1-0.8c-0.2-0.3-0.5-0.4-0.7-0.6c11.7-4.2,23.9-3.6,36.1-4.2
			C153.9,20.7,157.4,21.3,160.9,22z"/>
		<path class="st67" d="M222.1,183.6c0,3.5,0.1,7-1.7,10.2c-0.7-3.3,0.6-9.6-6.2-4.3c-3-1.9-2-4.3-1-7c0.9-2.3,1-4.8-1.9-5.8
			c-2.9-1.1-4,1.1-5.1,3.3c-1,2-2.5,3.8-3.8,5.6c-5-3.4-1.6-7.9-1.5-12c0.3-1.6,0.4-3.3,0.4-4.9c1.1-6.4,0.9-13.1,4.2-19
			c2.4-1.3,4,0,5.4,1.8c2.5,4.9-0.8,11.6,5,15.5c2.3,3.2,6.3,0,8.9,2.3C227.8,174.7,219.6,178.2,222.1,183.6z"/>
		<path class="st57" d="M182.2,237.3c0-2.6,0.1-5.3,0.1-7.9c-3-5.6,0.7-10.1,2.7-14.8c2.5-6.3,3.7-13.1,7.2-19
			c2.5-3.2,4.9-6.8,9.9-5.9c-0.2,2,0.2,4.2-0.6,5.8C194.7,209.3,191.3,224.6,182.2,237.3z"/>
		<path class="st68" d="M202.1,189.6c-1.9,2.6-3.7,5.3-5.6,7.9c-1-0.6-1.7-1.4-2.1-2.4c-0.6-6,2.6-11.2,3.6-16.9
			c0.5-2.9,2.4-5.5,6.2-4.7c-0.6,4-1.2,8.1-1.8,12.1C202.2,187,202.2,188.3,202.1,189.6z"/>
		<path class="st69" d="M213.9,169.5c-6.2-3.7-5.9-9.8-5.8-15.8c2.5-2.8,7.4,0,10.1-4.9c-9-0.1-13-4.8-13.9-13.1
			c-0.4-3.9-4.9-3.7-7.8-4.9c-6.3-3.9-13.7-6.1-18.9-11.7c-3-4-5.7-8,0.4-11.7c11.2-3.9,13.7-7.6,13.6-19.2c0-2.9,0.1-5.9,0.2-8.8
			c1.8-3.3,2.6-7.4,6.5-9.2c4.8,0.8,7,4.9,10,7.9c1.4,3.9,5.1,7.5,1.8,12.1c-2.1,1.5-1.8,3.5-1.2,5.6c1.5,4.6-3.2,7.1-3.6,10.9
			c0-0.2,0.1,0,0.1-0.2c0.9-4.6,5.3-6.9,6.5-11.2c0.1-0.4,0.3-0.9,0.4-1.3c4.8-2.8,6.7,1.1,8.5,4.1c8.6,14.1,11.8,29.4,8.5,45.7
			c-1.6,7.8,0.3,17.1-9.2,21.6C219.8,169.3,217.2,170,213.9,169.5z"/>
		<path class="st70" d="M213.9,169.5c2.1-1.4,4.1-2.7,6.2-4.1c2.3-0.2,4.3,0.1,5.8,2.1c0,1.2-0.6,1.9-1.6,2.4
			C220.8,169.3,217,179.3,213.9,169.5z"/>
		<path class="st48" d="M224.3,169.9c0.5-0.8,1.1-1.6,1.6-2.4c1.9,6.1-1.4,11-3.8,16.1C215.3,177.9,224.6,174.7,224.3,169.9z"/>
		<path class="st71" d="M206.1,94.2c-1-1.4-1.8-2.9-0.5-4.4c1.4-1.4,3-0.3,4.4,0.3c0.7,1.3,1.5,2.6,2.2,3.8c0,0,0,0,0,0
			C210.3,98,210,98,206.1,94.2z"/>
		<path class="st72" d="M132.6,50c1.3,0,2.6,0.1,3.9,0.1c4.2,3.4,8.9,3.8,13.9,2.1c4-1.6,9.2-0.7,5.6,3.8
			c-7.5,9.6-4.6,20.6-6.4,30.8c-0.8,4.9-0.9,9.7-3.7,14c-5,4.9-11,7.6-17.8,8.6c-4.8,0.7-9.1,2.6-13,5.4c-4.2,0.7-7.2,3.7-10.6,5.8
			c-2.4,1.3-4.7,3.5-7.8,1.6c-2.8-4.7-9.5-7.2-8.1-14.3c9.9-4.9,4.6-14.6,7-21.9c-0.3-2.5-2.4-3.3-4.1-4.5c-7.3,1.4-7.7,3-2.7,9.8
			c5.4,7.3,4.5,10.1-4.1,12.6c-6.9-2.2-6.1-9.9-10.3-14.1c0-1.3,0.1-2.5,0.1-3.8c2.1-4.6,4.1-9.2,6.2-13.8c6-7.9,16.4-8.4,23.8-14.1
			c4.4-1.2,6.3,1.1,6.5,5c0.3,7.5,3.5,14.5,3.5,22.1c0,5.4,2.9,7,7.9,4.9c2.6-0.6,5.2-1.1,7.2-2.9c5.1-5.4,4.3-9.9-2-13.6
			c-4.6-1.9-4.2-6.3-4.8-10.1c-0.4-1.5-0.4-3,0.1-4.5C125.6,55.4,123.3,46.5,132.6,50z"/>
		<path class="st73" d="M84.8,103.9c2.3-2.9,5.2-4.6,0.2-9c-6.4-5.7-2.9-13.3,0.8-19.8c1-1.8,3-2.6,5.1-2.1c3.9,0.9,3.4,4.3,3.8,7.1
			c0.8,3.4,2.6,4.2,5.5,2.3c2,7.2,1,14.9,1.1,22.1c0.1,6.4-7.4,5.6-12.7,3.5C87.4,106.6,86.1,105.2,84.8,103.9z"/>
		<path class="st74" d="M86.3,145.4c2.2-6.2,1.3-13.8,8.1-17.9c1.7-0.7,2.9,0.1,3.9,1.4c1.5,10.5-2.4,21.1,0.1,31.7
			c-2.7,3.2-4,8-9.7,7.4C83.1,160.9,85.8,153,86.3,145.4z"/>
		<path class="st75" d="M85.7,124.5c-0.9,3.5-1.3,8.6-5.7,8c-7.3-1-6.1-9.2-9.1-13.9c-1.6-2.5,1.3-3.9,4-3.5
			C80.5,115.9,85.3,117.7,85.7,124.5z"/>
		<path class="st76" d="M86.3,145.4c0.9,7.5,1.1,15.2,4.2,22.3c0.5,0.1,1,0.3,1.5,0.4c5.6,6.1,10.1,12.6,7.3,21.6
			c-0.9,0.7-1.9,0.7-2.8,0.1c-4.1-10.9-13.9-19.4-13.8-32.1C83.9,153.6,85.1,149.5,86.3,145.4z"/>
		<path class="st77" d="M96.8,130c-0.8-0.8-1.6-1.6-2.4-2.5c0.8-1.8,1.6-3.6,2.4-5.3c2-1.4,4-2.8,5.9-4.2c8.3,7,19.4,7.1,28.6,11.9
			c0.3,1.1,0.1,2.2-0.4,3.2c-4.2,4.5-9.7,4.2-14.4,2.2c-5.6-2.5-11.3-2.7-17.1-3.2C98.3,131.6,97.5,130.9,96.8,130z"/>
		<path class="st78" d="M77,167.3c0.6,3,0.3,5.6-3.6,5.1c-2.3-0.3-4.8-1.4-5.2-3.9c-0.5-3.4,2.5-3.1,4.7-3.5
			C74.3,165.8,75.7,166.5,77,167.3z"/>
		<path class="st79" d="M96.5,189.8c0.7-0.1,1.4-0.3,2.1-0.4c9.7,0.5,9.1,11,14.6,15.4c1.7,5.9,6,11,5.3,17.6
			c-2.1,4.4-5.1,5.4-9.2,2.5c-5.7-5.4-1.4-13.3-4.8-19.3C102.5,200,97.6,195.9,96.5,189.8z"/>
		<path class="st80" d="M104.6,205.7c4.2,5.2,3.3,12,5.9,17.7c0,1.8-0.2,3.5-2.2,4.2c-1.3-1.4-2.6-2.8-3.8-4.2
			C102.6,217.5,104.8,211.6,104.6,205.7z"/>
		<path class="st56" d="M108.3,227.6c0.7-1.4,1.5-2.8,2.2-4.2c2.5,1,4.6,0.6,6-1.8c0.9-4,3.6-6.8,6.4-9.5c2-1.1,4-1.3,6.1-0.4
			c2,1.2,3.4,2.8,3.7,5.2c0.2,2.2-0.7,4.1-2.1,5.7c-0.7,0.7-1.5,1.3-2.4,1.6c-7.9,2.7-10.5,7.7-6.7,15.4c0,2.2-1.2,3.7-2.6,5.1
			c-0.3,0.2-0.5,0.5-0.8,0.7C112.7,240.7,109.9,234.5,108.3,227.6z"/>
		<path class="st81" d="M118.3,239.5c-5.6-8.7-1.1-16.8,10-18c0.8,0.5,0.1,2.8,2.1,1.7c0.9-0.5,1.8-1,2.7-1.5
			c0.7-0.5,1.5-0.9,2.3-1.1c6.8-2,13.5-1.3,20.2,0.4c0.9,0.4,1.6,0.9,2.3,1.5c1.1,1.3,1.7,3,3,4.2c1.8,1.8,2.6,4.3,4.5,6
			c1.7,3.4,5.9,4.8,6.9,8.7c-3,5.9-6.3,11.4-13.8,12.1c-3.9-1.8-6.6-4.5-6.9-9c-0.1-0.9-0.2-1.9-0.2-2.8c-4.4-7.4-8.5-7.2-14.1,1
			c-3.4,2.3-6.9,1.6-9.8-0.7C124.6,239.8,121.6,239.3,118.3,239.5z"/>
		<path class="st82" d="M196.1,195.6c0.1,0.7,0.3,1.3,0.4,2c-7,9.6-6.7,22.4-14.2,31.8c-1.4,1.3-2.7,2.6-4.1,3.9
			c-3.6,0.4-6.9-1-10.5-1.3c-1.4-0.4-2.5-1.1-3.3-2.2c-0.8-1.1-1-2.5-1.5-3.7c-0.9-3.4-5.3-5.2-4.5-9.5c0.6-1.9,1.3-3.7,2.9-4.9
			c2.2-1.4,4.6-1.1,6.9-0.6c4.5,0.1,8.8-0.5,11.3-5C186,204,188.7,196.1,196.1,195.6z"/>
		<path class="st83" d="M154.4,241.3c0,0.6,0.1,1.3,0.2,1.9c-0.1,0.4-0.2,0.9-0.3,1.3c-1.4,2.8-6.7,3.1-5.2,7.8
			c-0.2,0.4-0.5,0.8-0.7,1.1c-11.4,2.7-20.9-1.2-29.3-8.7c-0.2-1.8-0.5-3.5-0.7-5.3c0.4-3.7,1.4-7.1,5.9-7.7
			c4.1-0.6,5.7,2.1,6.6,5.5c0.8,3,3.2,3.8,6,3.7C142.8,235.6,148.7,235.1,154.4,241.3z"/>
		<path class="st84" d="M168.2,229.5c3.9-0.2,7.5,0.2,10,3.8c-1.9,2.7-3.9,5.3-5.8,8c-5.4,1.7-8.1-1.4-10.1-5.7
			C162.8,232.2,165.7,231,168.2,229.5z"/>
		<path class="st84" d="M154.6,243.2c4.4,2.2,3.7,6.4,3.9,10.2c-3.4,2.1-6.8,2.2-10.2,0c0.1-0.4,0.2-0.7,0.3-1.1
			c2.1-2.7,3.6-5.7,5.1-8.7L154.6,243.2z"/>
		<path class="st85" d="M132.6,50c-6.8,0.5-2.9,7.6-6.3,10.2c-2,2.2-5.6-0.9-7.2,2.3c-0.9,7.2,5.1,13,4.2,20.1
			c0.4,3.9,1.5,7.8,1.2,11.7c-10.6,3.7-12.6,2.5-13.8-9.4c-0.9-9.3-2-18.4-6.2-26.8c0.7-1.3,1.4-2.6,2.1-3.8
			C115.1,51.6,123.3,47.1,132.6,50z"/>
		<path class="st86" d="M142.4,97.8c6.7-8.6,2.9-19.2,5.3-28.7c1.3-4.9-0.2-9.9,5.1-13.8c3-2.2-0.7-2.7-2.4-3.1
			c9-4.6,17.4-1,25.8,2.1c4.4,4.9,9.8,8.1,16,9.8c2,2,4,4,6,5.9c-0.1,3.8-1.3,7.2-3.9,10c-3.6,0.2-1.6-7-6.5-4.9
			c-1.8,1.7-0.7,3.6-0.6,5.5c0.2,2.2-0.2,4.4-0.6,6.6c-0.3,1.9-0.9,3.7-1.1,5.5c-0.2,3.2-2.8,5.2-4.2,7.8c-1.6,1.3-2.9,3.1-5,3.7
			c-5.2,0.2-9.3-1.5-10.8-7c-2-8.8-0.9-17.5,0.8-26.2c0.7-3.7,1-7.3-3.7-8.7c-0.7,0.3-1.5,0.7-2.1,1.2c-3.6,4.3-6,7.4-2.4,14.3
			c2.9,5.6,4.5,12.6,7.2,18.8c-0.8,6.4-7.5,4.8-10.7,7.9C148.6,105.6,145.1,102.5,142.4,97.8z"/>
		<path class="st87" d="M198,128.1c8-3.7,7.8,3.7,9.5,7.5c2.4,5.5,3,14.9,9.3,2.1c1.2-2.3,3.4-2.5,4.6-0.4
			c3.2,5.6,5.2,12.2,1.4,17.7c-4.8,6.9-10.4,5.5-14.7-1.4c-0.6-1.3-1.3-2.7-1.9-4c-4-4.2-6.3-9.4-8.7-14.6
			C197.3,132.8,196.4,130.4,198,128.1z"/>
		<path class="st88" d="M196.1,195.6c-4.6,4.6-9.2,9.2-13.8,13.9c-2.9-1.6-3-4.2-2.8-7c0.1-1.6,0.2-3.5,1.4-4.6
			c8.9-8,10.8-18.9,12.7-29.9c1.3-2.4,1.7-5.3,4-7c8.8-2.2,3.9,6.1,6.6,8.6c0,1.3-0.1,2.6-0.1,3.9
			C198.7,179.9,199.7,188.6,196.1,195.6z"/>
		<path class="st68" d="M204.2,169.6c-2.1-2.4-1.6-6.8-5.8-7.7c-0.9,0.6-1.8,0.6-2.7,0.1c-2.1-8.9,0.1-17.8,0.5-26.6
			c1-1.2,2.1-2.1,3.8-1.4c2.8,5,6.5,9.6,6.2,15.8C205.6,156.4,204.9,163,204.2,169.6z"/>
		<path class="st89" d="M178.5,98.3c1.4-2.3,2.8-4.6,4.2-6.9c1.7-1.8,1.4-3.4-0.2-5.1c0.6-2,1.2-4,1.8-6c1.6-3.1,1-5.8-1.8-7.9
			c1.9-3,3.7-6.6,8.2-4.3c5.2,2.7,3.9,7.6,3.6,12c0.6,7.9,5.5,15.7-1.9,23.5c-3.7,3.9-6.6,6.8-12,6.2c-2.1-1.5-5.3-2-4.7-5.6
			C176.7,102.3,180.2,101.6,178.5,98.3z"/>
		<path class="st72" d="M176.8,103.4c1.2,2.2,2.4,4.3,3.6,6.4c-5.4,2.6-1.3,5.2,0.1,7.7c-0.4,1-1,1.8-2,2.4c-3.2,1.6-6.2,0-9.2-0.7
			c-7.4-3.6-16.6-5.6-15-17c1.7-4.9,7-3.7,10.2-6.1c0.6-0.6,1.3-0.6,1.9,0c3.4,1.9,6.7,3.8,10.1,5.8
			C177.1,102.3,177.2,102.7,176.8,103.4z"/>
		<path class="st90" d="M178,118.4c0.8-0.3,1.6-0.5,2.4-0.8c6,3.4,12.6,5.6,17.6,10.6c0.7,1.9,1.3,3.9,2,5.8c-0.7,0.7-1.3,1.4-2,2.1
			c-2,1-3.9,0.7-5.8-0.3c-8.4-2.5-16.7-0.2-25,0.7c-1-0.2-1.9-0.6-2.6-1.2c-1.9-2.3-1.3-4.6,1.1-5.7c4.1-1.9,5.9-6.1,9.4-8.5
			C176.4,120.5,177.3,119.6,178,118.4z"/>
		<path class="st50" d="M206.1,94.2c2.1,0.7,4.2,1.5,6.2-0.2c1.7,2.5,2,5.1-0.1,7.3c-3.9,4-3.9,8.6-3.4,13.8
			c0.6,6.3-1.8,7.8-6.5,2.7c1.8-3.2,1.2-5.8-1.9-7.8C201.4,104.4,206.5,100.3,206.1,94.2z"/>
		<path class="st91" d="M200.3,110c2.2-0.8,4.6-1.6,5.4,1.7c0.8,3-0.7,5-3.5,6.1C201.6,115.2,201,112.6,200.3,110z"/>
		<path class="st92" d="M154.2,102.2c3.8,6.4,10.4,9.6,16,13.8c3.2,6,1.8,10-4.8,10.4c-12.8,0.8-25.6,0.9-38.4-0.1
			c-4.2-0.3-8.6-2-10-6.8c-1.4-4.7,2.5-7,5-9.9c1.3-1.5,2.8-2.7,4.6-3.6c5.3-2.8,10.5-5.5,15.8-8.3
			C147.3,96.9,150.4,100.5,154.2,102.2z"/>
		<path class="st93" d="M126.7,106c-0.6,1.9-0.9,3.9-1.8,5.6c-5,9.6-4.6,11,6.2,11.8c10.6,0.7,21.2,0.4,31.8,0.2
			c4.7-0.1,8.8-1.4,7.4-7.6c2.6,0.8,5.2,1.5,7.7,2.3c0.7,1.1,1.5,2.3,2.2,3.4c-4,4.1-9.2,5.9-14.6,7.2c-17.5,4.7-34.4,0.8-51-4.3
			c-7.1-2.2-7.5-6.5-2-14.5C117,107.6,121.7,106.4,126.7,106z"/>
		<path class="st94" d="M112.6,110.2c-2.3,7.8,1.4,11.5,8.6,13.8c14.9,4.7,30,4.7,45.2,2c-0.6,5.3-4.9,6.9-8.9,7.6
			c-9.3,1.5-18.8,3.2-27.1-3.4c-10.2-1.8-22.4,0.9-27.7-12.1C105.1,114.2,108.2,111.3,112.6,110.2z"/>
		<path class="st95" d="M120.3,83.9c-4.6-7.3-7.4-15.1-6.2-23.9c4.9-1.1,8.7,1,12.2,4.1c2,1.6-0.2,5.9,3.9,6.2
			c2.9,4.4,3.4,8.8,0,13.2C126.9,85.2,123.7,87.2,120.3,83.9z"/>
		<path class="st96" d="M128.6,82c0.5-3.9,1-7.8,1.6-11.7c8.4,7.2,8.7,14.4,0.8,19.9C125.7,88.8,126,85.7,128.6,82z"/>
		<path class="st97" d="M126.3,64c-5.5,2.8-9.4,1.2-12.2-4.1c0.6-2.2-0.6-5.1,3.4-6c5.6-1.2,6.3,3.5,8.8,6.1
			C126.3,61.5,126.3,62.8,126.3,64z"/>
		<path class="st98" d="M128.6,82c0.8,2.7,1.6,5.4,2.4,8.2c-1.6,2.3-4,3.2-6.5,4.2c-5.2-1.9-7-5.3-4.3-10.4
			C123.1,83.3,125.8,82.6,128.6,82z"/>
		<path class="st99" d="M100.2,82.3c-0.9,6.4-5.7,5.8-8.6,3.2c-3.1-2.7,1.5-3.8,3.1-5.5C96.5,80.8,98.4,81.6,100.2,82.3z"/>
		<path class="st100" d="M90.5,167.7c-0.2-4,1.1-6.9,5.5-7.6c2.5-0.8,5-1.3,7.4,0.3c6.1,9,15.2,7.1,24,6.4c9.1,2.7,5.4,9.9,5.5,15.8
			c-0.4,1.1-1,2-1.9,2.8c-7.8,5.4-15.3,6.2-23.1-0.7c-3.1-2.7-7.1-4.6-10.5-7c-3-2.8-5.6-5.9-6.6-9.9L90.5,167.7z"/>
		<path class="st101" d="M101,163.5c-1.6-1.1-3.3-2.3-4.9-3.4c-6.8-10.2-1.9-20.2,0.7-30.2c0.6,0,1.2,0,1.9-0.1c1,0.9,2,1.9,3.3,2.1
			c4,0.5,9.3-0.9,11,4.1c1.7,4.9-4.8,5.5-6.6,9.8c4.3,3.2,11.6,0.3,14.5,6.2c1.3,4.1,5.7,4.1,8.5,6.2c2,2.3,2.2,4.8,1.2,7.5
			c-1.3,2.3-3.4,2.8-5.8,2.8C115.9,171.3,108.1,168.8,101,163.5z"/>
		<path class="st102" d="M128.5,183.6c0.4-0.2,0.9-0.4,1.3-0.6c1.1,0.2,2.1,0.7,2.9,1.4c4.2,6.4,0.6,11.2-3.5,15.8
			c-3.7,2.6-4.3,8.4-9.6,9.4c-4,0.7-5.6-3.7-9-4.3c-5.3-4.4-7.7-11-12.1-16.1c-0.6-7.9-7.1-13.7-7.7-21.6c2,2.6,4,5.2,6,7.7
			c4.8,5.5,11.2,9,16.8,13.7C120.9,195.2,124.5,188.3,128.5,183.6z"/>
		<path class="st103" d="M118.5,154.6c-3.7-4.8-8.4-1.8-12.7-1.6c-3.5,0.1-8.2,1.7-9.9-1.9c-1.9-4.1,1.8-7.2,5.2-9.5
			c2.4-1.6,5-3,8.2-4.9c-4.4-1.5-10-0.6-10.7-6.7c10.8-3.3,21,3.8,31.7,2.1c5.4,0.3,6.6,4.3,7.7,8.5c3.8,19.5,2.6,20.6-17.1,15.8
			C120,155.8,119.2,155.3,118.5,154.6z"/>
		<path class="st104" d="M134.5,141.8c-1.4-3.3-2.7-6.5-4.1-9.8c0-0.6,0-1.3,0-1.9c8.7-0.1,17.5-0.2,26.2-0.4c3.7-0.1,7-1.3,9.8-3.8
			c4.6-1.4,9.2-2.8,13.9-4.2c-3.7,6.2-10.5,8.1-16,11.9c-2,6.8-3.5,14-12.3,15.5C145.9,147.4,139.3,146.7,134.5,141.8z"/>
		<path class="st105" d="M110.6,205.5c3.6-2.5,6.1-0.6,8.2,2.2c3.7,1.3,3.9,5,5.6,7.7c-1.7,3.3-4.4,5.1-7.9,6.1
			C114.3,216.3,111.2,211.3,110.6,205.5z"/>
		<path class="st106" d="M156.3,223.4c-7.2-0.2-14.5,1.6-21.7-0.3c-2.6-1.3-2.5-4.1-3.3-6.3c-0.9-1.1-1.8-2.3-2.7-3.4
			c-0.8-1.3-1.2-2.7-1-4.2c5.6-8.7,18.3-12.7,26.4-7.9c5.3,3.1,5.9,8.3,4.2,13.9c-0.8,2.4,0.9,4.5,1.2,6.7
			C158.7,223.2,158,224.3,156.3,223.4z"/>
		<path class="st107" d="M129.8,211.1c-0.4,0.8-0.8,1.5-1.3,2.3c-1.4,0.7-2.7,1.4-4.1,2c-4.7-0.5-5.7-3.7-5.6-7.7
			c2.4-2.7,4.9-5.3,7.3-8c4,0.1,5.3,2.6,5.4,6.1C131,207.6,132.7,210.1,129.8,211.1z"/>
		<path class="st108" d="M131.2,216.8c3.6,0.8,5.2,2.6,3.3,6.3c-0.1,0.5-0.2,1-0.3,1.5c-1,1.8-2.3,1.9-3.8,0.7c-2.5,0.9-5,1.9-7.9,3
			c0.8-3.9,4.4-4.3,5.8-6.8C129.3,219.9,130.3,218.4,131.2,216.8z"/>
		<path class="st109" d="M154.4,241.3c-5.9-0.1-11.7-0.3-17.6-0.4c-5.8-6.1-3.8-9.3,3.9-9.8c3.9-0.3,8-0.3,11.8,0.7
			C158.3,233.5,160.3,236.8,154.4,241.3z"/>
		<path class="st110" d="M168.2,229.5c1.8,5.7-1,7-6,6.1c-1.3-2.1-2.7-4.3-4-6.4c-1.1-1.4-1-2.8,0-4.2c3.3-1.2,6.1-0.8,7.9,2.6
			C166.8,228.2,167.5,228.9,168.2,229.5z"/>
		<path class="st111" d="M130.5,225.4c1.3-0.2,2.5-0.5,3.8-0.7c2.2,0.3,4.7-0.2,5.8,2.3c0.2,0.4-0.7,2-1.3,2.1
			C135.3,229.8,131.6,230.4,130.5,225.4z"/>
		<path class="st112" d="M166.1,227.6c-2.6-0.6-5.3-1.2-7.9-1.8c-0.8,0.3-1.4,0.1-1.7-0.8c-0.1-0.5-0.2-1.1-0.3-1.6
			c0.6-0.6,1.2-1.1,1.8-1.7c4.4-1.6,7.6,0.2,10.3,3.5C167.6,226,166.9,226.8,166.1,227.6z"/>
		<path class="st113" d="M156.6,225c0.6,0.3,1.1,0.5,1.7,0.8c0,1.1,0,2.3,0,3.4c-2.9,0-7.5,2.5-8.1-1.5
			C149.4,223.6,154,225.2,156.6,225z"/>
		<path class="st114" d="M196.1,161.1c0.8,0.3,1.6,0.5,2.3,0.8c-0.2,2.6-0.3,5.3-0.5,7.9c-2.4,8.5-6.7,16.2-12.7,22.5
			c-4.9,5.2-8.4,10.5-9.2,17.6c-2.6,1.6-1.7,7.8-7.3,5.7c-2.1-0.7-4.1-1.5-6.2-2.2c-0.7-0.7-1.1-1.5-1.1-2.4c2.4-4-1.3-6.9-1.9-10.4
			c-2.9-10.7-8.4-21.2-2.7-32.6c0.7-0.8,1.5-1.2,2.6-1.4c4.5,0.3,3.4,5.1,5.5,7.1c3.8,3.6,7.6,7.1,13.7,4.8c5-1.9,5-5.3,3.9-9.4
			c0.2-2.9,2.3-4.3,4.3-5.8C189.6,161.3,192.1,158.2,196.1,161.1z"/>
		<path class="st115" d="M162.2,211.9c-0.1,0.5,0,1,0.3,1.5c-0.7,1.4-1.3,2.7-2,4.1c-3,0.7-5.8,0.2-8-2.1c1.7-3,4.3-5.7,1.3-9.6
			c-3.1-4-5.1-0.2-7.5,0.4c-0.6,0.2-1.6,0.5-1.9,0.2c-7.9-7.7-10.6,0.4-14.6,4.7c0.1-1.9,0.1-3.7,0.2-5.6
			c-1.4-7.3,2.8-10.7,8.9-12.8c5.4-0.1,10.9,0,16.3-0.4c8.7,0.5,5.1,8.7,8,12.9C163.8,207.5,162.9,209.7,162.2,211.9z"/>
		<path class="st116" d="M168.7,215.6c3.4-1.8,3.5-4.9,3.6-8.1c2.2-4,3.6-9.3,10.1-5.8c0,2.6-0.1,5.2-0.1,7.9
			C178.6,213.5,174.9,217.2,168.7,215.6z"/>
		<path class="st117" d="M152.5,215.3c2.9-0.2,5.6,0.5,8,2.1c1.8,3.4,7.9,2.5,7.9,7.8c-3.4-1.2-6.9-2.3-10.3-3.5
			C156.2,219.7,152.2,219.3,152.5,215.3z"/>
		<path class="st118" d="M153.9,243.7c3.5,6,2.9,9.5-5.1,8.7c-0.6-0.2-1.2-0.5-1.8-0.7c-3.7-1.4-10.8,1.5-10.7-3.4
			c0.1-6.3,7.4-4.2,11.9-4.8C150,243.3,151.9,243.6,153.9,243.7z"/>
		<path class="st119" d="M166.3,96.2l-0.9-0.1c0,0-0.9,0.1-0.9,0.1c-3.4-1.2-7.1-1.9-10.2-3.6c-5-2.6-8.9-5.9-1.4-10.4
			c1.3-0.8,4.1-1.2,2.1-3c-9.6-9,0.9-14.3,3.5-21c0.8,0.9,1.7,1.6,2.7,2.2c-1-0.6-1.9-1.4-2.8-2.2c1-3.6,3.6-4.6,6.9-3.7
			c3.3,0.8,4.8,3.5,4.9,6.6c0.2,5.2,0.2,10.5-0.1,15.7c-0.3,4-2.6,7.3,1.2,11.6C174.5,92.1,167.7,93.2,166.3,96.2z"/>
		<path class="st120" d="M176.8,103.4c-0.1-0.5-0.2-1-0.4-1.4c0.7-1.2,1.4-2.4,2-3.6c3.4,0.3,8.7,0,7.4,4.6
			C184.6,107.3,179.9,103.6,176.8,103.4z"/>
		<path class="st121" d="M182.4,72.4c4,0,7.4,0.7,6.8,5.9c-0.4,3.8-2.8,2.7-5,2.1C181.9,78.1,182.2,75.2,182.4,72.4z"/>
		<path class="st122" d="M182.5,86.3c3.2-0.5,7.8-0.9,7.8,2.9c-0.1,4.8-4.8,2.1-7.6,2.2C182.6,89.7,182.5,88,182.5,86.3z"/>
		<path class="st123" d="M182.3,201.6c-4.2,0.4-6.7,3.9-10.1,5.8c-2.4-7.7,4.3-11.9,8-15.4c7.1-6.7,12.5-14.3,17.6-22.3
			C196.6,182.3,190.6,192.5,182.3,201.6z"/>
		<path class="st124" d="M196.1,161.1c-3.6-0.2-4.9,3.3-7.4,4.8c-2.7,0.7-5.4,2.2-8.2,0.5c-1.9-1.6-1.7-3.8-2-5.9
			c-0.4-1.2-0.8-2.4-0.9-3.6c-0.1-1,0.4-1.9,0.3-2.9c-0.6,1.6-1.7,2.8-3,3.8c-2.8,1.9-5.9,3.2-9.4,2.8c-2.8-0.3-5.3-1.5-8.2-1.9
			c-5.5-0.8-8.8-3.7-6-9.9c0.4-0.3,0.8-0.6,1.2-0.9c2.7-5.8,6.7-10.4,11.8-14.2c0.7,0.2,1.4,0.3,2.2,0.5c9.3,2.1,18.5,0.6,27.8-0.2
			c1.3,0.7,2.6,1.4,3.9,2.2C200.7,144.7,204.1,153.3,196.1,161.1z"/>
		<path class="st125" d="M194.2,133.9c-8.1,7.7-18.4,2.5-27.5,4.4c-1.2,0.2-0.9-2.7-0.3-4.2C175.7,132.5,184.9,129.5,194.2,133.9z"
			/>
		<path class="st126" d="M128.5,183.6c-0.6,2.5-0.9,5.2-2,7.6c-1.8,3.8-3.1,8.7-8.2,8.8c-4.4,0.1-6.7-3.7-8.5-7.3
			c-3.2-6.6-10.7-9.9-13-17.2c5,2.4,10.1,4.5,14.9,7.2C117.3,185.8,122.7,186.3,128.5,183.6z"/>
		<path class="st127" d="M101,163.5c7.9,1.9,15.5,5.5,23.9,4.6c0.8,0.4,1,0.7,0.7,1c-0.3,0.3-0.5,0.4-0.8,0.4
			C115.1,174.5,107.2,172.3,101,163.5z"/>
		<path class="st102" d="M124.8,169.5c0-0.5,0.1-0.9,0.2-1.4c1.3-0.7,2.5-1.5,3.8-2.2c1.4-1.5,3.1-1.7,4.9-1
			c5.4,7.4,4.3,14.6-2.9,18.8c-0.3-0.2-0.6-0.4-0.9-0.7C129.2,178.2,134.8,170.9,124.8,169.5z"/>
		<path class="st128" d="M132.3,165.9c-1.2,0-2.4,0-3.6,0c-0.2-2.4-0.7-4.7-2.6-6.5c-1.9-1.8-8.5,1-5.5-5.7c0.5-0.4,1.2-1.2,1.5-1.1
			c4.3,2,9.7,5,13.2,2.1c3.7-3.1-0.4-8.6-0.7-13c6.1,1.7,14.9-4.5,18,6c0,0,0.1,0.2,0.1,0.2c-0.4,0.2-0.7,0.5-1.1,0.7
			c-0.7,0.5-1.5,0.7-2.4,0.8c-4.3-0.6-4.8,2.1-4.7,5.3C142.4,160.8,142.7,169.2,132.3,165.9z"/>
		<path class="st129" d="M120.6,153.8c0.3,3.4,3.8,3.7,5.5,5.7c-5-0.6-10.4,1.5-15.3-1.5c1.5-4.6,5.6-1.4,7.7-3.4
			C119.2,154.3,119.9,154,120.6,153.8z"/>
		<path class="st130" d="M132.3,165.9c9.7-2.5,4.8-10.8,6.6-16.5c7.1,1.3,4.8,7.4,5.9,11.7c0,8.3-0.5,16.6-1.3,24.8
			c0,1-0.1,2-0.1,2.9c-0.1,1.8-0.1,3.7-1,5.4c-0.6,0.7-1.3,1.2-2.1,1.5c-5.5,1-8.4,4.9-10.3,9.7c-1.3-1.9-2.5-3.9-3.8-5.8
			c4.3-4.5,4.5-10.2,4.6-16C132.6,177.9,134.6,172.1,132.3,165.9z"/>
		<path class="st131" d="M184.9,169.9c3.7,0.3,4.4,2.4,3,5.4c-2.9,6.1-7.9,9.3-14.6,10.2c-6.9,0.9-8.7-4.3-11.1-9.1
			c-1.3-2.7-1.9-5.5-1.8-8.5c7.5-2.5,14.4,3.8,21.9,1.3C183.1,169.5,184,169.7,184.9,169.9z"/>
		<path class="st132" d="M160.8,205.3c1.7-5.8-3.8-5.6-6.5-7.7c-9.4-7.2-7.5-16.9-5.9-26.6c3-2.3,5.7-5.4,10.1-3.3
			c-2.9,11.9,4.2,22.4,4.5,33.9C163.7,203.7,163.5,205.3,160.8,205.3z"/>
		<path class="st133" d="M151.2,147.8c0.5,0,1,0.1,1.4,0.1c0.1,4.6,1.9,7.8,7.1,7.4c2.9-0.2,5.1,0.9,7.2,2.6
			c4.6,1.7,11-1.1,13.6,5.5c2.4,1.9,5.2,2.2,8.2,2.4c-1.2,1.3-2.5,2.6-3.7,4c0,0-0.7-0.3-0.7-0.3c-5.7,2.2-11.1,3.1-16.6-1.5
			c-2.9-2.4-7-3.4-11.1-2.5c-4.7,1.1-7.6-0.8-8.9-5.3C148,155.8,145.7,150.8,151.2,147.8z"/>
		<path class="st134" d="M150.5,161.6c12-0.5,21.9,7.8,33.7,7.9c-8.6,8.8-16,0.4-23.8-1.7c0,0-0.9-0.2-0.9-0.2s-1,0.1-1,0.1
			c-2.3,1.8-4.5,3.9-7.8,3.6C147.1,168.2,147.1,164.9,150.5,161.6z"/>
		<path class="st135" d="M160.8,205.3c0.7-1.2,1.5-2.5,2.2-3.7c4.3,3.8,7.4,7.5-0.8,10.3C159.6,210.2,160.1,207.8,160.8,205.3z"/>
		<path class="st136" d="M150.5,161.6c0.1,3.2,0.1,6.5,0.2,9.7c-0.7,9-0.6,17.9,3.7,26.3c-4.3-3.6-9.7,1.1-14.1-1.8
			c0-0.6-0.1-1.2-0.1-1.8c7.5-9.6,2.8-21,4.9-31.4c0.5-5.3-3.9-12.3,5-14.6c0.4-0.1,0.7-0.1,1.1-0.1
			C149.7,152.4,150.1,157,150.5,161.6z"/>
		<path class="st137" d="M167.7,74.2c-0.7,2-0.3,5.2-3.6,4.9c-3.3-0.3-5.7-2.1-5.3-5.9c0.2-2.6,1.8-4.4,4.5-4.4
			C166.6,68.8,167.8,71,167.7,74.2z"/>
		<path class="st138" d="M158.5,58.3c1.3,0,2.6-0.1,3.9,0c2.4,0.1,4.7,0.7,4.9,3.6c0,0.9-1.1,2.4-2.1,2.8c-2.5,0.9-4.4-0.5-5.6-2.7
			C159,60.8,158.9,59.5,158.5,58.3C158.5,58.2,158.5,58.3,158.5,58.3z"/>
		<path class="st139" d="M172.6,155.6c5.7-3.2,1.6-5.2-1.2-7.2c5.1-3.7,9.6-1.2,16,0.5c-4,2.2-8.7,3.1-6.5,8
			c-0.6,2.6-2.4,3.6-4.9,3.8C172.6,160.4,170.1,159.7,172.6,155.6z"/>
		<path class="st140" d="M172.6,155.6c0.3,2.3,1.5,3.5,4,3.3c3.2,0.3,6.6-2,9.7,0.7c-0.7,3-3.8,2.6-5.7,3.9c-4.9-1-9.5-2.5-13.6-5.5
			C169.7,159.2,169.4,153.4,172.6,155.6z"/>
		<path class="st133" d="M186.2,159.6c-3.2-0.2-6.4-0.4-9.7-0.7c1.4-0.7,2.9-1.4,4.3-2c1.7-1.1,3.2-3.7,5.7-1.6
			C188,156.5,187,158.2,186.2,159.6z"/>
		<path class="st141" d="M150.1,147.9c-3.4,4.9-0.9,10.5-2,15.7c-1,1.9-1.6,4.6-4.3,4.3c-3.8-0.4-1.3-4.3-3-6
			c-1.2-4.1,0.6-8.6-1.8-12.5c-0.5-3.2-0.3-6.1,3.9-5.9C145.8,143.7,150.5,141.8,150.1,147.9z"/>
		<path class="st142" d="M140.7,161.9c1.8,3.2,4,5.3,7.4,1.7c0.2,6.9,0.3,13.9,0.6,20.8c0.3,6.1-2.3,9.3-8.5,9.5
			c-0.8-0.8-1.4-1.6-0.2-2.5c0.6-0.5,2.4-0.9,0.3-1.8C140.5,180.4,140.6,171.1,140.7,161.9z"/>
		<path class="st143" d="M140.3,189.6c1.1-2,2.3-3.9,3.5-6c2,5.4,2,5.4-3.8,7.9C140.1,190.8,140.2,190.2,140.3,189.6z"/>
	</g>
</g>
</svg>
