<?xml version="1.0" encoding="utf-8"?>
<!-- Generator: Adobe Illustrator 25.2.1, SVG Export Plug-In . SVG Version: 6.00 Build 0)  -->
<svg version="1.1" id="Camada_1" xmlns="http://www.w3.org/2000/svg" xmlns:xlink="http://www.w3.org/1999/xlink" x="0px" y="0px"
	 viewBox="0 0 300 300" style="enable-background:new 0 0 300 300;" xml:space="preserve">
<style type="text/css">
	.st0{fill:#3C1C06;}
	.st1{fill:#231204;}
	.st2{fill:#411A06;}
	.st3{fill:#2E2212;}
	.st4{fill:#502010;}
	.st5{fill:#321206;}
	.st6{fill:#3A2D1B;}
	.st7{fill:#493720;}
	.st8{fill:#370F03;}
	.st9{fill:#632E16;}
	.st10{fill:#5F1C06;}
	.st11{fill:#12342D;}
	.st12{fill:#67553F;}
	.st13{fill:#711E05;}
	.st14{fill:#7B674C;}
	.st15{fill:#261202;}
	.st16{fill:#172218;}
	.st17{fill:#8C775D;}
	.st18{fill:#A59173;}
	.st19{fill:#C9B494;}
	.st20{fill:#473622;}
	.st21{fill:#313821;}
	.st22{fill:#574630;}
	.st23{fill:#4F1304;}
	.st24{fill:#4A3A29;}
	.st25{fill:#992D15;}
	.st26{fill:#83210C;}
	.st27{fill:#705E46;}
	.st28{fill:#B2A489;}
	.st29{fill:#462914;}
	.st30{fill:#502809;}
	.st31{fill:#572813;}
	.st32{fill:#52260F;}
	.st33{fill:#502106;}
	.st34{fill:#5C3218;}
	.st35{fill:#5E4527;}
	.st36{fill:#925A34;}
	.st37{fill:#58351A;}
	.st38{fill:#6F4021;}
	.st39{fill:#884F35;}
	.st40{fill:#632B0A;}
	.st41{fill:#EFC672;}
	.st42{fill:#35270D;}
	.st43{fill:#784D29;}
	.st44{fill:#9B6632;}
	.st45{fill:#C89450;}
	.st46{fill:#7A5831;}
	.st47{fill:#5A492F;}
	.st48{fill:#735A3A;}
	.st49{fill:#87765C;}
	.st50{fill:#C29259;}
	.st51{fill:#896C41;}
	.st52{fill:#D5A767;}
	.st53{fill:#E1BD7A;}
	.st54{fill:#67512C;}
	.st55{fill:#553216;}
	.st56{fill:#61320B;}
	.st57{fill:#834F28;}
	.st58{fill:#A1562E;}
	.st59{fill:#3E1805;}
	.st60{fill:#763C1E;}
	.st61{fill:#824A24;}
	.st62{fill:#946249;}
	.st63{fill:#653D22;}
	.st64{fill:#6E2C06;}
	.st65{fill:#F8D17D;}
	.st66{fill:#CA8650;}
	.st67{fill:#884A24;}
	.st68{fill:#502206;}
	.st69{fill:#B06D48;}
	.st70{fill:#BC6C39;}
	.st71{fill:#C87E3E;}
	.st72{fill:#D9843C;}
	.st73{fill:#C08051;}
	.st74{fill:#F19B57;}
	.st75{fill:#FAD186;}
	.st76{fill:#BD6E38;}
	.st77{fill:#AA7D5A;}
	.st78{fill:#501E05;}
	.st79{fill:#9C602B;}
	.st80{fill:#A7643D;}
	.st81{fill:#F9CA85;}
	.st82{fill:#6D3A12;}
	.st83{fill:#844D17;}
	.st84{fill:#9B5F1E;}
	.st85{fill:#936218;}
	.st86{fill:#603915;}
	.st87{fill:#976C3E;}
	.st88{fill:#7F5322;}
	.st89{fill:#9E6730;}
	.st90{fill:#8B5B26;}
	.st91{fill:#A7743D;}
	.st92{fill:#B26D34;}
	.st93{fill:#D67E42;}
	.st94{fill:#74481B;}
	.st95{fill:#A4572D;}
	.st96{fill:#6F4228;}
	.st97{fill:#9F6C2C;}
	.st98{fill:#7A3C12;}
	.st99{fill:#A95D35;}
	.st100{fill:#B75D23;}
	.st101{fill:#B36A41;}
	.st102{fill:#FCEB92;}
	.st103{fill:#4E2707;}
	.st104{fill:#61341A;}
	.st105{fill:#F9BC70;}
	.st106{fill:#D79D62;}
	.st107{fill:#E9A460;}
	.st108{fill:#793A17;}
	.st109{fill:#DB8753;}
	.st110{fill:#F8B36F;}
	.st111{fill:#FABA70;}
	.st112{fill:#FBD684;}
	.st113{fill:#C46D39;}
	.st114{fill:#CC9553;}
	.st115{fill:#C08747;}
	.st116{fill:#613318;}
	.st117{fill:#7C451C;}
	.st118{fill:#ECC178;}
	.st119{fill:#683009;}
	.st120{fill:#EEBF89;}
	.st121{fill:#B2703E;}
	.st122{fill:#E89759;}
	.st123{fill:#D46235;}
	.st124{fill:#A97F57;}
	.st125{fill:#925724;}
	.st126{fill:#352408;}
	.st127{fill:#5A250C;}
	.st128{fill:#C29156;}
	.st129{fill:#DE8248;}
	.st130{fill:#E1AE6A;}
</style>
<g>
	<g>
		<path class="st0" d="M267.1,299.9c-19.2,0-38.5,0-57.7,0c-5.2-7.2-2.4-15.2-2.1-22.8c0.3-9.6-2.8-12.4-11.5-8.2
			c-13.2,6.3-28,7.4-41.5,12.8c-4.2,1.7-8.4-0.2-12.3-2.2c-3.1-1.6-7.5-2.9-9.2,0c-4.8,8.2-16.2,8.7-19.9,17.8
			c-0.4,1.1-2,1.7-2.9,2.7c-6.6,0-13.3,0-19.9,0c-2.2-1.9-2.8-4.3-2.3-7.1c1.5-8.7-3.6-14.1-10.9-14.9
			c-14.5-1.5-20.4-13.3-27.1-22.5c-6.2-8.6-13.4-17.1-17.2-27.5c-0.9-2.5-2.1-4.8-1.8-7.6c2.1-6,0.1-11.5-1.8-17.1
			c-5.3-15.2-7.9-30.8-7.1-46.9c1.7-3.8,1.9-9,7.6-9.1c5,0,7.2,4.1,9.4,7.7c0.7,1.1-0.2-0.3,0.5,0.9c3.5,5.9,6.3,13.5,14.9,12.1
			c8.8-1.4,10.5-9.4,11.7-16.6c1.5-9.4,3.1-18.8,5.1-28.1c2.2-4.7,2.4-10.1,5.6-14.6c2.2-2.9,4.1-5,8-3.9c0.9,0.4,1.6,1.1,2.2,1.9
			c0.9,2.6-1.6,4.8-0.8,6.9c-0.1-1.2,0.2-2.8,1.3-4.2c1.2-1.9,3-2.9,5.2-2.8c3.1,0.4,4.9,2.4,5.9,5.2c0.4,1.6,0.4,3.2,0.4,4.9
			c-2.3,8-3.1,16.5-5.8,24.4c-1.9,5.4-3.1,11.1-1.5,16.4c2.7,9.3,0.8,17.4-4,25.2c-9.9,11.1,0.5,18.6,4.8,27.2
			c2.6,2.1,3,5.6,4.9,8.1c0.9,1.1,1.9,2.1,3,3c27.5,14.6,55.6,18.4,84.6,4.5c9.9-1.6,19.1-4.1,25.8-12.5c2.5-3.1,6.3-3.2,9.8-1
			c3,5.4,3.5,11.7,2.7,17.1c-2.1,14.2,4.5,22.2,16.2,27.8c1.6,1.2,3.5,2,5.2,3.1c5.9,10.6,13.1,20.2,21.1,29.2
			C268.7,292.5,269.9,295.9,267.1,299.9z"/>
		<path class="st1" d="M34.5,220.1c7.5,18.4,20.5,33.1,32.4,48.6c2,2.6,4.9,2.9,7.9,3.4c17.5,3.5,21.9,11.4,15.3,27.8
			c-27.8,0-55.7-0.1-83.5,0.1c-5,0-6.1-1.1-6.1-6.1c0.2-49.1,0.1-98.3,0.1-147.4c8.8-3.6,15.8,0.7,16.8,11.5
			c0.6,7.3,3.2,13.7,6.2,20.2c2.1,11.8,5.9,23.2,10,34.4C34.4,215,35.8,217.4,34.5,220.1z"/>
		<path class="st2" d="M0.6,86.7c0-6,0-12,0-17.9c1.4-1.4,3.1-3,2.7-5C1.1,52.9,8.9,47.4,15.4,41.3c3.6-3.4,8.5-5.9,12.6-3.4
			c8.7,5,9.8-0.2,11-6.6c0.2-1.3,0.6-2.6,1.2-3.8c1.9-3.2,3.8-6.3,8.3-5.9c7,5.8,13.7,5.9,21.4,0.7c8.1-5.5,17.4-5.4,26.4-1.8
			c2.5,1,5.1,1.3,7.6,1.6c4.2,0.7,8.4-0.2,12.6,0.1c5.3,0.4,8.1,2.5,5.1,8.2C107,36.1,92.2,41.8,79.2,51c-7.3,5.1-14,10.9-20.4,17.1
			c-3.7,3-5.4,7.5-8.4,11C41.5,87.9,38.8,100.5,31,110c-0.9,0.4-1.8,0.6-2.8,0.5c-5.2-1.3-6.1-5.3-5.8-9.8c0.2-4.8-1.9-6.8-6.6-5.4
			C7.7,97.7,3.7,93,0.6,86.7z"/>
		<path class="st3" d="M267.1,299.9c-3.9-8.8-11.1-15.4-17.5-22c-5-5.2-6.6-9.8-6.5-16.2c-0.8-1.7-0.7-3.4,0.6-4.6
			c9.1-8.6,16.2-18.9,24.1-28.5c3-2.6,5.6-5.8,7.4-9.3c2.2-4.3,5-7.2,10.1-6.1c4.8,1,7.1,4.5,8,9.1c2.8,13,3.2,26.1,2.3,39.5
			c-0.5,7.3-4.4,15.9,3.4,22.2c0,15.9,0,15.9-15.9,15.9C277.7,299.9,272.4,299.9,267.1,299.9z"/>
		<path class="st4" d="M110,299.9c-0.2-14.4,14.4-17.2,21-26.3c2.6-3.6,8.8-1.6,12.8,1.2c4.6,3.2,9.1,2.5,14.1,0.9
			c15-4.9,30.3-8.9,45.1-14.3c9.3-3.4,10.8,1.3,10.2,8.1c-0.8,10.2-2.5,20.3-3.8,30.5c-1.3,0-2.7,0-4,0c-5.7-7.4-12.3-9-22.2-8.1
			c-13.8,1.3-28.2,5.1-42.1-0.4c-0.9-0.4-2.3-0.7-2.9-0.1c-6.9,6.3-16.4,5.2-24.3,8.6C112.6,299.9,111.3,299.9,110,299.9z"/>
		<path class="st5" d="M0.6,86.7c6.2,3.8,12.1,5.7,19.3,1.7c5.8-3.3,8.4,0.4,8.4,6.4c0,4.7-3.4,9.7,0.8,14.2
			c1.9,2.3,1.8,4.7,0.9,7.3c-4.3,13.4-6.9,27.1-7.4,41.2c-1.8,7.5,3,15.5-1.8,22.8c-5.6-2.1-4.5-7.2-5.1-11.5
			c-1.3-9.9-3.1-19.6-15.1-22.2C0.6,126.6,0.6,106.6,0.6,86.7z"/>
		<path class="st6" d="M298.9,283.9c-6.8,2.8-9.5-0.1-9-6.7c0.4-5.6,0.7-11.3,2.1-16.7c3.5-13.5-0.8-26.1-3.9-38.8
			c-0.6-2.3-1.9-4.3-4.6-4.6c-2.9-0.3-3.8,2-5.2,3.9c-2.9,3.9-3.9,9.4-9.3,11.2c-4.4-5.2,0.2-9.4,2.1-13.4
			c5.7-11.9,10.9-23.8,12.9-37c0.1-1.6,0.5-3.2,1.5-4.6c7.5-6,10.8-1.5,13.4,5.2C298.9,216.2,298.9,250.1,298.9,283.9z"/>
		<path class="st7" d="M298.9,182.3c-3.3-3.1-6.6-6.4-11.8-3.9c-2.3-1.4-3-3.6-2.5-6c3.2-17.3-0.3-34.2-2.6-51.1
			c-0.5-6.6,0.6-13,1.9-19.4c2.3-11.1,4.3-22.2,5.2-33.6c2.1-4,2.8-9.9,9.8-7.5C298.9,101.3,298.9,141.8,298.9,182.3z"/>
		<path class="st8" d="M103.9,24.9c-14.2-2.8-27.5-2.9-40.5,5.9c-8,5.4-12.6,2.1-15.1-7.8C43.7,10.1,46.8,4.5,59.7,2.6
			c1.7-0.2,3.2-0.3,4.5-1.5c9.3,0,18.6,0,27.8,0c5.4,6.5,11.3,12.8,13.4,21.5C105.2,23.5,104.7,24.3,103.9,24.9z"/>
		<path class="st9" d="M113.9,299.9c0.8-1.4,1.6-4,2.4-4c8.1,0.2,13.4-3.7,17.5-10.4c2-3.1,5.1-1.7,7.9-0.2
			c14.5,7.9,29.9,3.1,44.4,1c12.3-1.8,17.4-0.4,19.3,13.6C174.9,299.9,144.4,299.9,113.9,299.9z"/>
		<path class="st10" d="M42.4,29c-0.1,6,0.2,11.9-0.5,17.8c-0.6,4.9-3.6,6.3-7.5,2.6c-3.4-3.2-5.7-10.5-11.3-7
			c-6.6,4.2-14.6,8.3-16.3,17.4c-0.8,4.1-1.3,7.9-6.2,9c0-12.6,0-25.2,0-37.8c3.7-4.3,8.6-7.4,13.3-10c6.6-3.5,14.1-6.8,20.5,0.9
			c2.3,2.7,6.5,1.4,8.4,4.6C43.2,27.4,43.1,28.2,42.4,29z"/>
		<path class="st11" d="M157.7,1.1c14.6,0,29.2,0,43.8,0c6.8,6.8,5.1,15.2,2,22.3c-3.4,7.7-11.8,5.6-17.5,3.4
			c-5.2-2-10-2.7-15.2-2.7c-4.8-0.3-9.7,0.6-14.3-1C150.8,15.3,154,8.2,157.7,1.1z"/>
		<path class="st12" d="M275.1,1.1c0.7,0,1.3,0,2,0c2.7,2.7,5.5,5.4,6.7,9.2c0.5,1.9,0.7,4-0.1,5.8c-3.1,7-1.1,11.1,6.4,12.8
			c3.9,0.9,5.2,3.9,5.8,8c1.5,10-0.8,19.6-2.1,29.3c-2.8,3.4-1.7,7.5-1.9,11.4c-0.1,3.8-1.8,6.5-5.6,7c-4.3,0.5-6.7-2.1-7.5-6.2
			c-1-5.2-0.4-10.5-0.9-15.8c-2.6,3.7-2.3,11-10.2,8.1c-1.5-1.7-2.1-3.8-2.7-5.9c1.6-5.6,1.1-11.3,1.6-17
			c3.4-11.8,3.6-24.1,4.3-36.2C271.3,7.5,271.6,3.8,275.1,1.1z"/>
		<path class="st13" d="M42.2,26.9c-2.6,0.5-5.4,1.4-7.5-0.9c-7.1-7.7-14.2-3.4-20.4,0.6c-4.4,2.9-8.6,4.6-13.7,4.3
			c0-6,0.8-12.1-0.2-17.9C-1.3,2.7,2.3-1.2,12.5,1.1c4.9,5,11.9,2.5,17.5,5.1c4.4,5.3,8.8,10.4,13.9,15.1
			C44.3,23.4,43.7,25.3,42.2,26.9z"/>
		<path class="st14" d="M255.2,1.1c4,0,8,0,11.9,0c5.5,4.5,4.4,10.4,3.2,16.1c-1.4,6.4-2.5,12.7-2.4,19.2c-0.4,6.2-0.5,12.4-4,17.9
			c-4.9,4.1-9.9,8.2-16.6,9c-4.5-2.5-3.8-6.6-3.2-10.7c3.3-13.3,2.4-27.1,5.6-40.4C250.7,8.1,251.5,3.9,255.2,1.1z"/>
		<path class="st15" d="M103.9,22.9c-6.5-5.9-12.6-12-11.8-21.9c11.9,0,23.9,0,35.8,0c6.3,6.3,5.2,12.6,0.2,19
			C120.3,23.5,112.4,26,103.9,22.9z"/>
		<path class="st16" d="M125.9,19c1.8-5.8,2.3-11.8,2-17.9c9.9,0,19.9,0,29.8,0c2.5,6.9,2.1,13.5-1.9,19.8
			C146.3,26.2,131.2,25.2,125.9,19z"/>
		<path class="st17" d="M227.3,1.1c5.3,0,10.6,0,15.9,0c3.1,2.5,4.4,5.8,4.4,9.7c-0.1,9.2,0.5,18.6-6.1,26.3
			c-8.9-0.8-3.9-7-4.3-10.9c-1.8,15-0.8,14.1-15.3,15.8c-2.3,0.3-4.3-0.4-5.9-2.1c-2.7-4.5-1.1-9.1-0.6-13.7
			c1.5-8.5,0.9-17.5,6-25.1c0.7,0,1.3,0,2,0c4.3,6.2,1.3,12.6,0.2,18.1C227.2,14.1,223.1,6.8,227.3,1.1z"/>
		<path class="st18" d="M262.8,37c-1-12.3,5.3-23.6,4.3-35.9c2.7,0,5.3,0,8,0c0.6,16.1,1.4,32.2-3.9,47.8c-1.5,1.5-0.7,3.7-1.5,5.5
			c-0.7,1.6-1.8,2.8-3.6,2.7c-2.2-0.1-3.6-1.6-3.7-3.8C262.2,47.9,261.5,42.4,262.8,37z"/>
		<path class="st19" d="M242.7,11.5c0.2-3.5,0.3-7,0.5-10.5c4,0,8,0,11.9,0c0.4,17.8-5.7,34.5-8.1,51.9c-2.2,3.2-4.3,2.6-5.8-0.5
			c-1.2-2.3-1.5-5.1-0.8-7.6C243.1,33.8,241.7,22.6,242.7,11.5z"/>
		<path class="st20" d="M279.1,11c-0.7-3.3-1.3-6.6-2-10c7.3,0,17.4-2.9,21.1,0.8c3.6,3.7,0.8,13.8,0.8,21.1c0,1.3,0,2.7,0,4
			c-11.3,4.1-18.3-0.1-18.9-11.2C280,14.1,280.2,12.4,279.1,11z"/>
		<path class="st21" d="M169.5,21c6.3-0.2,12.2,0.3,18.4,2.8c9.3,3.8,13.3,0.5,13.6-9.8c0.1-4.3,0-8.6,0-12.9c2.7,0,5.3,0,8,0
			c7.6,14.8,1.7,26.8-13,32.5c-10.8-0.8-20.9-6.4-32-5.6c-8.1-1.3-16.7,2.5-24.5-2.4c-0.8-4.6,2.8-3.4,5-3.6
			C153.1,21.4,161.4,23.1,169.5,21z"/>
		<path class="st22" d="M279.1,11c1.7,11.4,11.8,12.5,19.9,15.9c0,11.3,0,22.6,0,33.9c-4,1.2-3.8,5.5-5.9,8.1
			c-0.7-0.4-0.9-0.9-0.7-1.4c0.2-0.5,0.4-0.8,0.6-0.8c0.1-6.2,0.1-12.5,0.4-18.7c0.4-7.3,2.2-14.5-9.3-15.3c-4.5-0.3-6.5-5.9-6.1-11
			C278.3,18.2,278.7,14.6,279.1,11z"/>
		<path class="st23" d="M42.2,26.9c0-2,0-4-0.1-6c-6.5-6.7-3.3-13.2,0.2-19.8c7.3,0,14.6,0,21.9,0c-9.7,4.1-14.9,11.5-15.9,22
			c-2,2-3.9,4-5.9,6C42.3,28.3,42.3,27.6,42.2,26.9z"/>
		<path class="st24" d="M195.5,30.6c14.7-5.1,14.8-17.1,14-29.6c2.7,0,5.3,0,8,0c3.5,7.2-1.3,14.3-0.2,21.4c-4,5-5.6,12.5-13.8,13.3
			C199.7,35.7,196.7,34.5,195.5,30.6z"/>
		<path class="st25" d="M28.4,9c-6.2-0.8-13.3,0-15.9-8c8.6,0,17.2,0,25.9,0C39.8,10.5,37.9,12,28.4,9z"/>
		<path class="st26" d="M28.4,9c5.7,0.3,9.1-2.2,9.9-8c1.3,0,2.7,0,4,0c-0.1,6.6-0.1,13.2-0.2,19.8C33,22.2,32.2,13.9,28.4,9z"/>
		<path class="st27" d="M215.1,22.9c0.4-7.3,0-14.7,2.3-21.9c1.3,0,2.7,0,4,0c-0.8,8.6-1.6,17.2-2.3,25.8c-0.7,0.7-1.4,0.9-2.3,0.6
			C215.1,26.3,214.4,24.9,215.1,22.9z"/>
		<path class="st28" d="M227.3,1.1c0.9,8.7-1.4,16.9-3.3,27.5c-3.4-10.6-0.2-19.1-0.7-27.5C224.7,1.1,226,1.1,227.3,1.1z"/>
		<path class="st29" d="M237.4,262c-18-5.8-20.1-19.6-18.1-35.7c0.6-4.6,0.1-9.2,0-13.9c0.4-0.2,0.8-0.4,1.3-0.6
			c3.7,0.5,4.5,3.4,5.4,6.3c0-12.9,7.9-22.8,20.1-26.7c10.5-3.3,13.7-14.2,20-21.8c0.8-0.9,0.8-2.5,1.3-3.7c1.6-3.8,3.4-7.4,8.2-7.6
			c5.4-0.3,6.9,4.1,9.1,7.8c1.7,2.9,0.7,5.8,0.5,8.7c0,2.4,0,4.8,0,7.3C278.4,214.3,264.5,242,237.4,262z"/>
		<path class="st30" d="M74.2,124.6c-2.2,11-1.1,22.4-4.4,33.2c-2.5,8.2-6.3,15.6-16.2,16.3c-9.2,0.7-13.1-6.2-16.8-12.9
			c-1-1.7-1.9-3.5-2.8-5.2c-3.5-6.8-6.6-6.3-9.2,0.6c-0.4-0.3-0.9-0.6-1.3-1c-3.2-16.1,3.7-30.3,8.3-44.9c0.8-1.9,1.5-3.8,3.5-4.7
			c4.3-0.9,6,1.7,6.8,5.2c0.7,3.2,1.9,6.3,3.1,9.4c3.6,9.1,8,10.8,17,7c3.5-1.5,6.4-4.9,10.9-3.8C73.5,124,73.8,124.3,74.2,124.6z"
			/>
		<path class="st31" d="M79.9,180c9.3-4.5,9.2-12.4,8.3-21.2c-0.6-6.1-1.2-12.5,1.4-18.5c0.5,0.2,0.9,0.4,1.4,0.5
			c3.1,6.3,3.8,13.1,3.1,19.8c-0.4,4.7,0.3,8.9,3.5,11.6c7.8,6.5,11.2,15.9,16.9,23.8c0.5,25.1,20.2,35.5,40.4,32.6
			c10.1-1.5,20.1-6.9,30.8-3.1c0.7,0.9,0.7,1.9-0.1,2.8c-28.1,14.5-56.1,10.3-84-0.8c-2.6-1-4.2-3.1-5.5-5.5c0.8-2-0.1-2.4-1.9-2.1
			c-2.5-2-3.6-4.7-4.2-7.8c-2.5-8.8-8.9-16.7-6.3-26.9C84.3,183.3,81.4,181.7,79.9,180z"/>
		<path class="st32" d="M185.6,228.3c0-0.6,0-1.2,0-1.8c-0.2-2.2,0.7-4,2.4-5.3c2.8-2.1,6.6-2.3,9.3-4.6c5.7-3.8,7.6-8.8,7-15.9
			c-1.3-17.3,1.3-34,10.3-49.2c0.8-1.4,1.6-2.8,3.1-3.7c7.2-1.3,9.1,3.2,9.2,9c0,3.2-1,6.4,1.8,9c1.4,3.1,4.1,4.6,6.8,6.4
			c4.9,8.7-0.8,16.6-2.2,24.8c-0.4,2.5-2.2,5.3-3.7,7.8c-2.2,2.8-6.2,3-8.3,6c-0.6,0.5-1.3,1.1-1.9,1.6c0,0-0.1,0.2-0.1,0.2
			C208.3,218,199.8,229.1,185.6,228.3z"/>
		<path class="st33" d="M96.3,113.1c-1.6-1.6-3.2-3.1-4.8-4.7c-5.5-6,2.6-9.8,2.3-14.9c1.4-2.6,4.4-3.5,6-5.8
			c1.5-1.9,3.1-3.7,5.8-3.9c3.5,0.3,6.3-2.4,9.8-2.2c7.7,0.1,13.9-5.1,21.3-6c1.7-0.8,2.8-2.5,4.6-3.3c0.9-0.3,1.9-0.4,2.8-0.4
			c4.8,1.9,9.9,2,14.9,3.2c1.5,0.2,2.9,0.3,4.4,0.4c5.2-0.2,10.3,0.6,15.3,2.1c7.8,1.5,18.1-1.9,20.2,10.5c-0.3,1.8-1.3,3.2-2.8,4.3
			c-5.9,2.3-12.2,0.4-18.2,1.3c-2.5-1.2-5.1-1.4-7.9-1.1c-5.5-1.3-11-2.8-16.3,0.6c-12.1-0.4-24.2-1.3-35.1,5.8
			c-3.8,0.7-6.4,3.6-9.6,5.4c-3,1-5.9,2.2-6.7,5.8C100.6,112.2,99,114,96.3,113.1z"/>
		<path class="st34" d="M89.6,140.3c0.6-8.3,3.1-16.1,6.1-23.8c4.8,1.2,3.8,8.2,9,9c10.3,1.2,18.5-6.3,28.4-7.1
			c6,2.4,12.5,4.2,14,11.9c-0.4,4.4-0.9,8.7-4.7,11.7c-3.7,1.8-7.9,0-11.6,1.5c-2.9,1.7-7.6-2-8.5,6c-0.7,6.2-10.3,5.9-16.8,5.6
			c-0.9-0.4-1.8-0.8-2.6-1.3c-4.1-1.6-8.8-2.4-10.4-7.5c-0.4-1.9-0.5-3.9-2-5.5L89.6,140.3z"/>
		<path class="st35" d="M237.4,262c11.2-13.3,24.2-24.9,32.1-40.9c6.1-12.5,10.8-25.3,13.8-38.8c1.2-1.1,2.5-1,3.7,0
			c-0.6,13.2-6.5,24.7-11.9,36.3c-2.1,4.5-4,9-5.9,13.5c-7.6,10.7-17,20-25.9,29.6C241.2,261.8,239.3,261.9,237.4,262z"/>
		<path class="st36" d="M102.2,129c-4.5-3-5.8-7.6-6.5-12.6c0.2-1.1,0.4-2.3,0.6-3.4c1.3-1.4,2.6-2.8,3.9-4.2
			c3.6,1.2,6.3,5.1,10.8,3.8c4.5,0.7,8.3-3.3,12.9-1.6c2.6,0.4,5.1,0.6,7.7,0.8c2.6,0.5,5,1.6,7.5,2.3c4.1,1.7,8.1,3.4,7.9,8.9
			c0.4,2.1,0.4,4.2-0.9,6.1c-0.7,0.8-1.6,1.4-2.6,1.6c-2-5.4-6.5-8.1-11.5-10.1C121.6,122,112.4,127.2,102.2,129z"/>
		<path class="st37" d="M20.7,180.2c0-8-0.1-15.9-0.1-23.9c1.1-1,2.3-1.1,3.4,0c0,0,0.7,0.2,0.7,0.2c-0.6,20.5,4.3,39.9,12.3,58.7
			c1.2,2.8,5,6.8-2.6,4.8C28.6,207.2,24.9,193.7,20.7,180.2z"/>
		<path class="st38" d="M79.9,180c13-0.7,13.5-0.3,8.1,10.6c-2,4.1-0.7,7.6,0.3,11.4c0.8,3.4,4,6.3,1.8,10.2
			C82.1,202.9,78.9,192.1,79.9,180z"/>
		<path class="st30" d="M86,106.7c-10,2-6.6,12.7-11.8,17.9c0,0-0.1-0.1-0.1-0.1c-1.4-0.9-2.3-2.3-2.7-3.9
			c-0.9-10.5,2.2-19.5,9.9-26.9c4.1-2,8.2-4.5,12,0.4C94.2,100.2,91.5,104.3,86,106.7z"/>
		<path class="st39" d="M86,106.7c3-3.5,5.1-7.4,6.3-11.8c1.2-1.1,2.4-1.1,3.6-0.1c4,6.3-5.4,8.3-4.4,13.6c-1.1,0.9-2.2,1.7-3.4,2.6
			c-1.7,0.2-2.7-0.4-2.2-2.3C85.9,108,86,107.3,86,106.7z"/>
		<path class="st40" d="M85.9,108.7c0.7,0.8,1.4,1.5,2.2,2.3c-0.4,4.4-0.2,9.1-4.8,12.9C80.6,117.8,84.5,113.4,85.9,108.7z"/>
		<path class="st38" d="M94.3,220c0.8-2,1.9-3.6,4.3-3.2c0.7,0.1,1.8,1.3,1.8,1.9c-0.1,2.5-2.3,2.8-4.2,3.3
			C95.5,221.4,94.9,220.7,94.3,220z"/>
		<path class="st41" d="M140,24.7c8.6,0.4,17.3-1.2,25.8,0.6c1.4,1,4.4,0.5,3.8,3.2c-0.6,3.2-3.6,3.1-6.1,3.4
			c-9.5-1.4-18,4-27.4,3.7c-11.1-1.1-20,5.9-30.2,8.2C93.8,49,83.2,56.6,72.4,64c-3.7,3.4-6.5,8.4-12.7,7.5c-2.1-0.8-4-1.7-3.4-4.6
			C73.8,47.8,95.4,35.6,120,28.4C126,23.4,132.5,21.7,140,24.7z"/>
		<path class="st42" d="M140,24.7c-6.6,1.2-13.3,2.5-19.9,3.7c-0.5-5.4-4.3-3.3-6.4-2.2c-3.8,2-6.8,1.8-9.7-1.2c0-0.7,0-1.3,0-2
			c7.6,0.4,14.7-2.3,22-4c9.8,3.6,19.9,1.5,29.9,1.9c4.6,0.1,9.2,0.1,13.7,0.2C160.1,25.5,149.4,20.2,140,24.7z"/>
		<path class="st43" d="M24.1,156.3c-1.1,0-2.3,0-3.4,0c-1.8-16.6,4-31.9,8.5-47.4c0.5-0.1,0.9-0.1,1.4-0.2c1.5,0,2.6,0.8,3.6,1.8
			C29.8,125.6,24,140.3,24.1,156.3z"/>
		<path class="st44" d="M34.1,110.6c-1.9,0.7-3.1,0.1-3.6-1.8c3.8-11.9,9.7-22.6,17.6-32.2c2.3-0.4,4.6-2.2,6.8,0
			c1.6,3.1,0.8,5.8-1.7,8.1c-3,3.1-5.9,6.1-6.9,10.6c-1.1,5.6-4.9,9.2-9.9,11.6C35.7,108.1,34.9,109.3,34.1,110.6z"/>
		<path class="st45" d="M54.2,76.7c-2,0.1-4.1,2-6.1-0.2c2.8-3.2,5.5-6.4,8.3-9.7c1.4,0.7,2.8,1.4,4.2,2.1
			C61.8,74.4,59.3,76.6,54.2,76.7z"/>
		<path class="st46" d="M286.9,182.2c-1.2,0-2.4,0-3.7,0c0-2.6-0.1-5.1-0.1-7.7c2.7-8.2-4.1-15.2-3-23.3c2.3-4.4,0.1-8.3-1.3-12.3
			c-1.3-3.8-2.3-7.7-1.6-11.7c0.4-3,2.6-4.8,4.6-6.7c1-0.6,2.1-0.6,3.1,0.1c3.8,19.2,6.1,38.4,2.4,57.8
			C287.1,179.7,287,181,286.9,182.2z"/>
		<path class="st47" d="M284.8,120.6c-0.6,0-1.1-0.1-1.7-0.1c-4.7-1.3-5.2-5.6-6.5-9.2c-3.3-9-9.1-16.7-11.6-26
			c-1-5.5-2-11,4.1-14.4c3.7-5.1,3.7-11.1,4.2-17.1c0.3-3.3,1.1-7.2,5.4-6.9c3.7,0.3,3.9,4.1,4,7c0.3,6.9,0.1,13.9,0.3,20.9
			c0.1,2.5-0.6,6,3.2,6.2c3.3,0.2,4.1-2.8,4.5-5.5c0.4-3,0.4-6,2.1-8.6c0,0.7,0.1,1.4,0.1,2.2C294,86.7,287.3,103.3,284.8,120.6z"/>
		<path class="st48" d="M269.1,70.9c-0.3,4.7-2.6,9.3-0.4,14c-1.4,1.2-3.6,1.8-4.4,0.4C260,77.7,251.6,73,249,64.1
			c0-0.5,0-1,0.1-1.4c1.4-6.4,5.7-8.5,11.8-7.7c3.9,2.3,3.8,8,8.2,9.8C269.1,66.9,269.1,68.9,269.1,70.9z"/>
		<path class="st49" d="M269.1,64.9c-3.4,4.6-6.4,6-7.7-1.2c-0.5-2.8-0.3-5.8-0.5-8.6c0.8-6-1-12.3,1.9-18.1
			c0.1,3.2,0.1,6.4,0.3,9.6c0.2,2.8-0.8,6.7,2.4,7.7c3.8,1.2,3.4-3.9,5.7-5.4C271.7,54.4,270.4,59.6,269.1,64.9z"/>
		<path class="st50" d="M242.7,11.5c0.2,11.3,0.2,22.6,0.6,33.8c0.1,2.8-1.9,7.2,3.7,7.5c0.5,3.3-0.7,6.9,2,9.8c0,0-0.1,0.2-0.1,0.2
			c2,2.1,1.1,3.7-0.7,5.2c-5.9,2.6-8.9-2.2-12.6-4.9c-4.5-3.3-8.6-6.9-11.8-11.4c-0.3-1-0.4-2-0.2-3.1c0.4-1.5,1.3-2.7,2.5-3.6
			c5.2-1.2,8.4-5.8,13-7.9C243.6,29,239.2,19.7,242.7,11.5z"/>
		<path class="st51" d="M239.2,37.1c-0.7,4.7-1.4,9.4-2.2,14.7c-3.6-1.9-6.6-3.5-9.7-5.1c-5.4-0.6-6.9-3.1-4.1-7.9
			c5.5-2.1,5.5-2.1,13.9-29.8C240.4,18.1,238.6,27.8,239.2,37.1z"/>
		<path class="st52" d="M223.3,38.9c-0.4,3.5,1.7,5.8,4.1,7.9c-0.8,0.8-1.6,1.6-2.4,2.4c-5.6,4.8-9.2-1.5-13.7-2.6
			c-3.5-1.3-7.1-2.5-6.9-7.3c0.6-2.3,2.4-3.3,4.2-4.4c1.4-0.7,2.9-0.9,4.4-0.4c2,0.7,2.9,2.7,4.5,3.8
			C219.4,38.5,221.3,38.7,223.3,38.9z"/>
		<path class="st51" d="M217.4,38.2c-1.4-0.4-2.8-0.7-4.2-1.1c-2.6-4.9-3.1-9,3.9-10.3c0.7,0,1.3,0,1.9-0.1
			C218.5,30.6,218,34.4,217.4,38.2z"/>
		<path class="st53" d="M209.5,36.6c-1.3,0.8-2.6,1.5-3.9,2.3c-1,1.4-2.3,2.4-4,2.7c-2.8,0.4-5.5,0.2-8.1-1
			c-6.7-5.5-15.6-3.3-23-6.3c-2.8-1.1-6.9-0.2-7-5c2.3-0.5,5.4-0.5,2.4-4c10.4-1.3,19.7,3.9,29.6,5.4c2.7,0.7,4.9,2.9,8,2.3
			C204.8,35.2,209.5,31.9,209.5,36.6z"/>
		<path class="st54" d="M209.5,36.6c-2-1.2-4.1-2.4-6.1-3.7c3.9-3.3,7.8-6.7,11.7-10c0.7,1.3,1.3,2.7,2,4c-1.3,3.4-2.6,6.8-3.9,10.3
			C212,37,210.8,36.8,209.5,36.6z"/>
		<path class="st55" d="M284.9,150.5c-0.5,8,2.1,16.2-1.7,24c-0.7-2.5-1.1-5.2-2.1-7.6c-1-2.3-2.4-5.2-5.7-4.6
			c-2.7,0.5-3.2,3.4-3.5,5.5c-1.3,11-12.6,15.7-15.8,25.7c-0.9,2.7-5.1,2.4-8.1,2.8c-10.9,1.6-17.6,9.6-17.1,20.3
			c0.1,1.6,0.4,3.5-0.1,4.9c-1.6,4.4-1,12-6.7,11.6c-4.5-0.3-2.2-7.3-2.6-11.4c-0.3-3.3-0.1-6.7-2-9.6c0-0.7,0-1.3,0-2
			c1-4.2,5.8-3.3,7.9-5.9c-0.8-2.1-7.3-2.9-2.1-6.1c8.6-5.3,5.7-11,1.7-16.3c0.8-4.3,11,0.4,6-7.9c-1.2-3.7-4.6-6.1-6.2-9.6
			c1.6-10.3-2-20.9,1.5-31.1c6.1-5.2,16-5.5,23,0c5,4,9.5,6.3,16,3.3c4.4-2.1,8.1,0.8,11.2,4C281.3,143.5,282.1,147.6,284.9,150.5z"
			/>
		<path class="st56" d="M36.5,106.8c2.9-9,7.6-16.9,13.9-23.9c6.6,0,6.2,4.8,5.5,8.9c-1.6,10.3-1.5,19.1,11.5,21.7
			c3.2,0.6,4.1,4.9,6.6,7c0,1.3,0,2.6,0,4c-2.2,2-4.2,4.3-6.6,5.9c-13,9-22.5,5.7-27.5-9.5C38.5,116.4,37.7,111.5,36.5,106.8z"/>
		<path class="st57" d="M189.5,224.2c-1.3,0.8-2.6,1.6-4,2.3c-12.1,5-25,5.6-37.8,5.7c-22.3,0.1-35.6-13.4-35.8-35.8
			c2.9-1.6,4.6,0.5,6.6,2c3.7,2.4,3.2,6.9,5.2,10.2c8.6,11,18.4,19.1,33.8,14.8c0.6-0.2,1.4-0.2,2,0c14.1,5.2,21.5-5.1,29.8-13.1
			c2.7-2.7,4.5-7.1,9.4-3.6C200.4,214.9,197.6,221,189.5,224.2z"/>
		<path class="st58" d="M116,200.2c-1.3-1.3-2.6-2.6-4-3.9c-6.2-7.1-10.7-15.5-17.7-22.2c-6.1-5.9-2.6-15-3.8-22.7
			c-0.6-3.5-0.1-7.2-0.1-10.8c2.2,0.6,3.4,1.9,3.3,4.2c4.5,6.7,3.4,15.8,9.2,22c7,7.7,13.4,15.8,16.1,26.2
			C118.8,195.9,118.8,198.7,116,200.2z"/>
		<path class="st59" d="M231.2,132.6c-0.7,11.2,2.3,22.6-2,33.5c-0.1,1.4-0.8,2.1-2.2,2.2c-5.5-0.6-6-4.5-5.3-8.8
			c0.7-4.1,1.1-7.9-2.2-11.1c-5.5-3.3-5.5-11-11.2-14.1c-3.3-3.1-2.4-7.6-3.7-11.3c-0.2-4-0.4-8.1-1.8-11.9c-0.2-1.9,0.1-3.8,1-5.6
			c2.2-3.3,2.4-7.5,4.4-11c4.2-3.7,7.9-0.5,11.6,1c1.8,1.4,3,3.1,3.7,5.3c0.9,4.6,3.6,8.3,5.9,12.3
			C232.7,119.2,235.1,125.6,231.2,132.6z"/>
		<path class="st60" d="M211.4,132.6c6.6,3.3,8.1,9.2,8.2,15.8c-9.1,17-13.7,35-12.2,54.5c0.5,7.5-0.9,14.8-9.7,17.5
			c-0.7-7.4,3.4-14.7,0.9-22.2c-0.6-13.2,0.4-25.9,6.7-38.1C209.5,151.6,207.1,141.2,211.4,132.6z"/>
		<path class="st61" d="M201.4,198.1c0.8,7.7-0.4,15.1-3.8,22.2c-2,2.7-4.7,3.9-8,3.9c5.6-4.7,6.6-11.5,7.8-18.1
			c-2-1.6-2.2-3.5-1.4-5.8C197.2,198.3,198.9,197.2,201.4,198.1z"/>
		<path class="st62" d="M227,168.3c0.7-0.7,1.5-1.5,2.2-2.2c2.9,0.7,7.2-1.8,8.4,2.5c0.9,3-3.1,3.6-4.7,5.4
			C229,174.1,227.4,171.8,227,168.3z"/>
		<path class="st63" d="M227.3,204.3c-1.2,3.9-4.3,5.2-7.9,5.9C217.7,202.5,223.7,205,227.3,204.3z"/>
		<path class="st64" d="M139.7,78.9c-7.9,2.2-15.4,6.3-24,5.7c-4-4.4-6.5-0.5-9.4,1.6c-1.4,1.5-2.8,3-4.3,4.5
			c-5.4,3.5-8.2-0.2-11.1-3.9C90.4,86,90.1,85,89.9,84c-0.1-5.4,3.9-8.1,7.3-11.1c6-2.7,12.4-4,18.8-5c3.6,0.5,7.1,0.4,10.5-1.1
			c3.1-1.1,5.5-3.8,9-4c6.3,1.1,12.7,0.6,19,1.8c0.8-0.1,1.6-0.1,2.4-0.2c2.2-0.2,3.7-1.5,5.1-3c5.1-6.7,11.1-3.6,17-1.5
			c9.6,1.8,17.9,6.1,23.9,14.1c2.7,3.7,8.2,6.1,5.4,12.2c-3,3.6-6.1,7-11.1,2.6c-4.9-6.8-13.4-4.8-19.7-8c-4.5-5.7-9.7-6.6-15.7-2.5
			c-1.5-0.1-3.1-0.2-4.6-0.3c-3.8-5.6-9.9-1.6-14.6-3.3l0.2,0C141.1,75.6,138.2,75.5,139.7,78.9z"/>
		<path class="st65" d="M153.5,88.4c5.4-3.2,10.8-2.4,16.1,0.1c3.3,2.6,7.2,4.5,9.7,8.3c7,10.9,4.1,18.4-8.7,18.5
			c-12.1,0.1-24.4,1.4-36.4-0.9c-1-0.3-1.9-0.8-2.7-1.3c0.9-8.6,4.6-12.4,14.7-12.9c7.5-0.4,10.6-2.8,7.5-10.4
			C153.7,89.3,153.6,88.9,153.5,88.4z"/>
		<path class="st65" d="M131.7,114.6c-2.7,0.1-5.3,0.1-8,0.2c-4.8,0.3-11.6,4-13.2-2.8c-1.1-4.7-3.7-12.8,5.3-15.2
			c10.6-11.5,24.5-8,37.6-8.4c0.2,0.3,0.3,0.6,0.5,0.9c0.1,4.4-3.7,4.3-6.2,6.1c-6.5,4.4-15.3,6.8-16.2,16.8
			c0.2,0.3,0.4,0.5,0.6,0.8C132.5,113.7,132.4,114.2,131.7,114.6z"/>
		<path class="st66" d="M131.7,114.6c0.1-0.6,0.2-1.1,0.5-1.6c11.9-0.1,23.6-3,35.6-1c4.2,0.7,9.3,0.2,11.6-3.8
			c2.2-3.7-2.2-6.4-3.8-9.5c-1.8-3.5-4-6.9-6-10.3c2.6,0.1,5.3,0.2,7.9,0.3c11.9,2.2,16,12.7,11.3,28.8c-0.9,0.8-1.9,1.4-3,1.7
			c-6.9-0.5-13.8-0.1-20.6-1c-9.3,1.3-18.4,0.4-27.5-1.5C135.8,116.1,133.8,115.3,131.7,114.6z"/>
		<path class="st67" d="M187.6,116.5c-1.1-7.2-2.6-14.3-3.2-21.5c-0.4-4.7-4.6-4.1-6.8-6.2c6.1-0.1,12.2-1.2,17.9,2
			c4.1,0.9,5.1,3.7,4.8,7.4c-4.6,5.6-2.3,12-2.1,18.2c-0.4,1.8-1.3,3.2-2.9,4.1C191.7,121.1,188.1,122,187.6,116.5z"/>
		<path class="st68" d="M197.5,98.7c0.2-2.9-0.7-5.5-2-8c0.6-0.6,1.2-1.3,1.8-1.9c4,0.3,6.5-3,10-4.1c5.7-0.8,8.1,3.3,10.8,7.1
			c1.4,2.5,1.7,4.9-1,6.9c-2.4-1.4-4.5-4.5-7.9-1.7c-1.4,3.1,0.6,6.7-1.7,9.6c-0.7,1.4-1.4,2.8-2.1,4.2
			C197.3,110.8,196.3,109.2,197.5,98.7z"/>
		<path class="st66" d="M115.9,96.8c-1.2,4.7,0.7,9.2-1.1,14.4c-1.7,4.9,6,1.7,9,3.6c-4.3,2.5-9.1,1.5-13.7,2.1
			c-7.9-1.9-8.8-5.6-4.1-16.2C109,98.6,111.6,95.7,115.9,96.8z"/>
		<path class="st40" d="M92.2,84.7c4.4,0.2,6.2,4.7,9.9,6c-1,2.9-3.4,3.8-6.2,4c-1.2,0-2.4,0.1-3.6,0.1c-3.2-1.6-5.7,0.3-8.2,1.9
			C80.3,88.4,86.5,86.7,92.2,84.7z"/>
		<path class="st69" d="M106,100.7c0.9,5.5-2.6,12.1,4.1,16.2c-3.8,4.8-6.9,6-8.5-1.6c-0.4-2.2-1-4.3-1.5-6.5
			C101,105.4,102.2,102.1,106,100.7z"/>
		<path class="st70" d="M161.9,78.4c-0.3-2.3-0.6-5,2.6-5.2c5.6-0.3,11.3,1,15.5,4.3c3.6,2.8-0.4,3-2.4,3.4
			C172.4,79.5,167.3,77.9,161.9,78.4z"/>
		<path class="st71" d="M106.3,86.2c0.3-4.4,3.2-6.8,6.9-7.3c6.1-0.8,4.6,2.5,2.5,5.7C112.7,85.7,109.6,86.8,106.3,86.2z"/>
		<path class="st72" d="M142.7,74.8c5.4-1.3,12-8,14.6,3.3C152.4,76.8,146.8,79.3,142.7,74.8z"/>
		<path class="st73" d="M139.7,78.9c-2.3-0.9-5.2,0.7-7.3-1.8c2.7-4.6,6.7-2.9,10.4-2.4C141.8,76.1,140.8,77.5,139.7,78.9z"/>
		<path class="st74" d="M100.1,168.4c-5.3-6.9-6.8-14.9-6.4-23.3c1.9,4.8,7.6,2.2,10.3,5.3c-1,3.7,2.6,5.9,2.8,9.2
			c0.6,3.8,2.5,6.4,6.6,5.5c9.5-1.9,14.1,3.5,17.1,11.2c1.6,4.2,5.5,7.5,5.3,12.6c-0.8,3.7-3.7,5-6.9,5.9
			c-6.4,0.1-10.7-3.7-12.7-8.9C113,177.8,107.2,172.6,100.1,168.4z"/>
		<path class="st75" d="M102.2,160.3c-0.6-3.5-3.9-7.6,1.8-9.9c0.7,0.1,1.4,0.2,2.1,0.3c8.5,3.2,15.4-1,22.3-4.9
			c5.6-0.6,8.2,2.8,9.9,7.4c0.9,3-1.2,5.3-1.9,7.9c-3.4,6.3-7.1,9.4-14.7,4.9C115.9,162.6,107.4,167,102.2,160.3z"/>
		<path class="st76" d="M134.1,160.3c0.6-1.9,1.3-3.8,1.9-5.7c1.1-4.5-2.6-8.6-1.2-13.2c1.4-1.9,3.2-2.3,5.3-1.2
			c2.8-2.6,3.7-5.8,3.3-9.5c0.4-0.1,0.7-0.1,1.1-0.2c1.6-0.1,2.7,0.7,3.5,2c1.2,3.5,0.9,7.2,0.7,10.8c-0.4,5.1,1.7,8.2,6.5,9.5
			c1.1,1.2,1.6,2.5,1.3,4.1c-5.3,6-12.8,5.8-19.8,7.1C135.1,163.3,134.2,162.1,134.1,160.3z"/>
		<path class="st77" d="M127.6,148.2c-6.7,4.9-13.7,6.8-21.4,2.4c4.9-0.3,10.4,1.8,14.8-3c-2.9-1.2-6.1,0.8-8.4-1.9
			c4.5-6,10.1-8.4,17.4-5.4c1.7,2.2,0.9,4.2-0.4,6.2C129,147.1,128.3,147.7,127.6,148.2z"/>
		<path class="st78" d="M102.2,129c9-6,18.7-9.6,29.7-8.4c-7.6,6.5-18.8,5.5-26.4,12.3C104.3,133.9,102.7,130.9,102.2,129z"/>
		<path class="st79" d="M127.9,146.8c-2-3,1.4-4.3,2.1-6.5c3.3-1.3,6.7-2.8,10-0.1c-1.4,0.8-2.8,1.5-4.3,2.3
			C135.6,148.2,131,146.2,127.9,146.8z"/>
		<path class="st80" d="M137.8,116.8c9.3-2.3,18.7-2.2,28.2-1.9c0.3,0.4,0.5,0.8,0.8,1.1c0.1,0.4,0.3,0.9,0.4,1.3
			c-1.3,7.2-4.3,14.6,1.9,21.2c0.3,2.2-0.5,4-2.1,5.6c-0.9,0.6-1.8,1.1-2.9,1.4c-2.5,0.8-4.9,2.2-7.6,1.2
			c-5.9-3.2-2.7-10.3-6.3-14.5c-1.4-2.9-2.7-5.8-6-6.9C144,120.9,141,118.8,137.8,116.8z"/>
		<path class="st81" d="M144.3,125.2c5-3.9,7.9-1.7,9.8,3.4c0.5,0.8,0.6,1.7,0.2,2.6c-1.2,2.5-1.7,5.9-5.3,5.7
			c-2.4-0.1-1.8-2.9-2.9-4.3c-0.5-0.7-1-1.4-1.5-2.1C144.4,128.7,144.3,126.9,144.3,125.2z"/>
		<path class="st82" d="M92.2,84.7c-2.5,4.1-7.2,6.7-8,12c-6.6,6.6-7.1,15.7-10.1,23.8c-5.8-0.4-10.7-4.8-17.1-3.4
			c-3,0.7-4-2.7-4.8-5.3c-1.9-6.4-2.5-12.9-1.2-19.5c0.6-3.2,1.6-6.4-0.5-9.5c1.2-2.1,2.5-4.1,3.7-6.2c2.1-2.6,4.3-5.1,6.4-7.7
			c3.3-2.7,6.7-5.4,10-8.1c4.4-2.6,8.3,0.1,7.9,3.6c-1.2,11,5.8,15.6,13.4,20.2L92.2,84.7z"/>
		<path class="st83" d="M91.9,84.7c-12.5,2.7-17.6-1.5-17.7-14.2c0-3.6,2.1-8.1-3.7-9.5c9.7-9,20.7-15.8,33.1-20.3
			c4.9-0.9,5.8,2.9,5.9,5.9c0.2,7,2.6,13.6,2.9,20.6c-2.9,4.9-8.5,6.2-12.5,9.5C97.2,79.3,94.6,82,91.9,84.7z"/>
		<path class="st84" d="M110,67.1c-5.1-8.1-7.3-16.9-6.4-26.4c9.4-5.5,19.9-7.1,30.3-9.3c1.3,0.5,2.6,1,3.2,2.5
			c0.2,0.6,0.4,1.6,0.1,1.9c-9.5,6.3-5.8,16-6.3,24.7c0.9,4.4-1,7.3-4.8,9.2c-1.3,0.3-2.7,0.8-4.1,0.6
			C118.5,67.1,113.5,69.7,110,67.1z"/>
		<path class="st85" d="M135.9,33.1c-0.7-0.6-1.3-1.2-2-1.8c9.8-0.7,19.7-1.3,29.5-2c10.9,2.4,22.4,1.9,32.6,7.3
			c-1.2,8.7-9.2,6.6-14.3,9c-13.7-3.3-26.6-9.9-41.2-9.1C138.6,36.6,137.3,34.4,135.9,33.1z"/>
		<path class="st86" d="M231.2,132.6c-3.9-10-7.8-20-11.7-30c1.3-2.2,3.2-3.5,5.6-3.4c11.1,0.7,18.5-5.5,25-13.4
			c2.6-3.2,5.3-6,9.9-4.6c11.6,12.9,20.2,27.3,21.2,45.2c0.3,8.2,4.6,15.7,3.7,24.1c-3-0.7-5.4-2.4-7.3-4.6c-4-4.6-7.8-7.9-13.5-1.8
			c-2.7,2.9-6.5,2.2-8.6-0.7C249.3,135,240,134.4,231.2,132.6z"/>
		<path class="st87" d="M281.1,126.4c-4.3-16-10.7-31-22.2-43.4c-4.7-1.2-8.5-3.7-10.7-8.1c-1.8-2.4-3.1-4.9-1-7.9
			c0.6-1.4,1.2-2.7,1.9-4.1c6.6,7.3,13.1,14.6,19.7,22c3.4,12.4,12.2,22.7,14.3,35.6C282.5,122.5,281.8,124.4,281.1,126.4z"/>
		<path class="st88" d="M247.2,67c1.3,2,2.5,4,3.8,6c-2.4,12.6-4.7,15.1-17.8,16.5c-6.1,0.6-11.4,5.5-18,3.5
			c-2.8-2.6-6.3-4.5-7.9-8.2c-2.5-2.7-5.1-5.5-7.6-8.2c-1.2-5.3-0.4-9.3,6.4-8.6c12.1,1.1,13,0.3,14.5-11.4c0.2-1.6,0.2-3.3,1.2-4.8
			c1-1.1,2.2-1.8,3.7-0.9C233.7,54.8,240.2,61.3,247.2,67z"/>
		<path class="st89" d="M225.4,50.8c-0.7,0.7-1.4,1.4-2.1,2c-0.7,3.8-0.6,9.4-6,8.5c-5.9-1-9.6-5.5-8.7-12.4
			c0.3-2.9,2.6-4.1,4.6-5.5c3.9,1.9,7.8,3.8,11.7,5.7C225.1,49.7,225.3,50.3,225.4,50.8z"/>
		<path class="st85" d="M213.3,43.5c-0.6,1.8-1.2,3.6-1.8,5.4c-3.5,3.1-7.2,3.2-10.4-0.2c-2.8-3-2.8-6.5,0.3-9.6
			c1.4,0,2.8-0.1,4.2-0.1C208.2,40.4,210.7,41.9,213.3,43.5z"/>
		<path class="st90" d="M201.4,39c-0.3,7,3.1,10.3,10.1,9.9c5.7,10.9,6.7,11.2,11.8,4c1.9,7.4-0.7,14.4-2.8,21.1
			c-2.2,7.2-7.1,3.2-11,0.9c-3.8-2.3-7.9-6.6-9.9,1.7c-5.3-7.9-15-8.8-22.2-13.6c-4.4-8.4,3.2-14.6,4-22c5.2-0.3,9.9-2.2,14.5-4.3
			C197.8,37.4,199.6,38.2,201.4,39z"/>
		<path class="st91" d="M197.6,200.2c-0.1,1.9-0.1,3.9-0.2,5.8c-3.3,3.7-6.3,7.7-9.9,11c-20.7,18.8-50,15.7-67.4-6.8
			c1.2-2,3-2.7,5.3-2.6c6.1,2.2,11.1,6.3,16.8,9.2c4.9,2.5,9,2.7,13.6,1.8c-2.1-0.7-4.1,0.3-6-0.6c-7.7-1.8-14.6-4.5-16.5-13.4
			c0.8-4.3,3.2-7,7.6-7.7c2.3,0.2,3.5,1.9,4.8,3.5c1.5,4.8,5,6.6,9.9,6.5c-2.9-1.2-6.5-1.6-6.7-5.8c1.3-4.2,4.8-4,8.1-3.9
			c4.1,0.1,7.8-0.6,11.1-3.1c3.3-1,6.1,0.9,9.2,1.6c0.9,0.5,1.7,1.2,2.3,2c0.5,0.9,0.8,1.8,0.9,2.8c1.3,2.3-0.2,6.6,3.8,6.8
			c3.1,0.2,4.2-2.6,4.5-5.4c2.4-2.9,3.6-7.5,9-6.1C198.8,197.5,198.6,198.9,197.6,200.2z"/>
		<path class="st92" d="M125.6,210.2c-1.8,0-3.7,0-5.5,0c-1.4-3.3-2.8-6.7-4.1-10c0-2.6-0.1-5.2-0.1-7.8c5.2-2.9,9.3,4.3,14.5,1.8
			c2,0.2,3.5,1.3,4.5,3.1c1.3,3-1.3,5.4-1.4,8.2C131.9,208.9,129.2,210.2,125.6,210.2z"/>
		<path class="st93" d="M129.8,196.3c-5.9,3.3-9.5-1.7-13.9-3.9c-6.7-7.1-8.5-17.4-15.8-24c9.7,1.9,16.6,7.3,20.4,16.5
			c1.4,3.6,4.1,5.8,7.5,7.4C129.5,193.1,131,194.1,129.8,196.3z"/>
		<path class="st94" d="M215.2,92.9c3.1-3.4,6.8-7.2,11.3-7.1c10.9,0.3,18.2-5,24.5-12.8c3.3,2.8,7,5.3,8,10
			c-6,5-9.2,12.8-16.2,16.8c-7.3,4.1-15,6.5-23.3,2.8c-0.8-1.3-1.6-2.6-2.4-3.9C216.5,96.8,215.8,94.9,215.2,92.9z"/>
		<path class="st95" d="M197.6,200.2c-0.1-1.3-0.2-2.6-0.2-3.9c-4.6-4.1-3.8-9.9-4.6-15.1c7.3-10.7,11.7-22.4,11.4-35.6
			c0.1-4.1-0.8-7.8-4.8-10c-3.1-3.4-2.3-6.9-0.1-10.3c2.1-2.5,4.1-5.6,8-2.6c1.4,3.3,2.7,6.6,4.1,9.9c2.1,12.4,0.2,24.9-4.8,35.8
			c-4.5,9.9-5.1,19.6-5.2,29.8C200.1,198.8,198.9,199.5,197.6,200.2z"/>
		<path class="st60" d="M207.3,122.7c-2.5,0.5-4.1,2.3-5.6,4.1c-3.1-1.1-3.2-3.7-2.9-6.3c0.3-2.8-0.3-5.1-3.3-6
			c-2.8-5.7-3.4-11.2,2-15.9c2.8,3.9,2.9,9.6,7.8,12.1C207.4,114.5,207.7,118.6,207.3,122.7z"/>
		<path class="st96" d="M207.5,106.7c0.1-2.9-1.3-5.3-2-8c-1.7-5.7,1.9-2.3,3.8-1.7c1.3,4.3,1.2,8.9,4.6,12.6
			C209.3,111.1,208.9,108,207.5,106.7z"/>
		<path class="st97" d="M181.5,40.9c9,9.2-2.1,14.8-4,22c-4.7-1.1-9.5-3.7-13.3,1.8c-0.9,1.3-2.2,1.8-3.8,1.8
			c-8.1-2.9-16.2-5.9-25-3.8c-3,0.7-5.8,1.2-7.4-2.3c-1.1-2-1.8-4.1-1.3-6.5c0.3-1.3,0.8-2.9,0.3-3.8c-5.5-9.8-5.3-10.2,8.5-16.1
			c0.2-0.1,0.3-0.5,0.5-0.8c5.6,0,11.2-0.2,16.8-0.1c8,0.1,16.5-1.7,22.3,6.5C176,40.8,179.3,40.5,181.5,40.9z"/>
		<path class="st98" d="M128,60.3c9.5-3.4,19.3,0.4,28.9-1c4.2-0.6,3.3,2.9,3,5.5c0,1.5-0.7,2.6-1.7,3.6c-0.9,0-1.8,0.1-2.7,0.1
			c-6.5-1.6-13.1-2.6-19.9-1.7c-2.7,1.2-5.5,2.5-8.2,3.7c-0.8-0.4-1.3-0.9-1.5-1.8C126.6,65.9,127.3,63.1,128,60.3z"/>
		<path class="st40" d="M110,67.1c2.7-1,5.4-2.1,8.1-3.1c5.5-1.9,4,1.9,3.7,4.7c-1.6,2.4-3.5,3.9-6.4,2.1c-5.2,2-10.3,3.9-15.5,5.9
			C103.2,73.4,106.6,70.2,110,67.1z"/>
		<path class="st99" d="M185.7,74.4c-4.8-1.5-9.6-3-15.2-4.8C176.9,66.9,176.9,66.9,185.7,74.4z"/>
		<path class="st100" d="M135.5,66.8c6.9-2.1,13.6-3.4,19.9,1.7C148.7,68.7,142.1,68.5,135.5,66.8z"/>
		<path class="st101" d="M115.4,70.7c2.1-0.7,4.3-1.4,6.4-2.1c1.4,0,2.7,0,4.1,0.1c0.5,0.6,1,1.2,1.5,1.8
			C123.3,69.8,119.5,78,115.4,70.7z"/>
		<path class="st100" d="M158.1,68.4c0.6-1.2,1.1-2.4,1.7-3.6c1.5-0.1,2.9-0.1,4.4-0.2c0.8,0.8,2.4,2.1,2.3,2.3
			C164.2,70.3,161,68.5,158.1,68.4z"/>
		<path class="st102" d="M131.6,112.2c-2.4-0.2-5.2-0.5-4-3.8c1.8-4.9,7.7-7,8.8-12.7c1.5-8.1,8.5-3.7,12.9-5.1
			c1.5-0.5,3.2-0.8,4.7-1.2c5.2,3.5,5.2,3.5,6.7,16.3C150.2,104.4,139.4,102.3,131.6,112.2z"/>
		<path class="st103" d="M187.6,116.5c2.2,2.2,5.1,1.9,7.9,2.1c2.9,0.3,5.3,1.3,4.6,4.9c-0.5,2.6-2.7,4.1-5.1,3.8
			c-7.7-0.7-15.3-0.2-23-0.9c-5.5-0.5-8.1-4-6.4-9.8l0.1-0.1c6.7-1.6,13.4-1.4,20.1-0.1C186.4,116.4,187,116.4,187.6,116.5z"/>
		<path class="st104" d="M185.8,116.4c-6.7,0-13.4,0.1-20.1,0.1c0-0.6,0.1-1.1,0.3-1.7C172.6,115,179.4,113.9,185.8,116.4z"/>
		<path class="st104" d="M165.6,116.6c0.9,3.1,2.5,5.7,6.1,5.4c7.7-0.7,15.2,0.9,22.8,1.1c6.4,0.1,1.8-2.8,0.9-4.6c0-1.3,0-2.7,0-4
			c7.3,0.1,7.3,0.1,6.2,12.3c-0.5,2.5-1.7,5-0.3,7.5c0.1,1.6-0.6,2.8-1.7,3.8c-1.2,0.8-2.6,1-4,0.9c-3.9-1.5-7.5-4.5-12.2-3.1
			c-4.9,0.1-8.8,3.6-13.6,3.9c-0.9-0.3-1.6-0.7-2.1-1.5c-9.1-1.2-11.8-6.3-7.3-13.6C162.1,122.1,163.9,119.4,165.6,116.6z"/>
		<path class="st105" d="M134.1,160.3c0.8,0.8,1.7,1.6,2.5,2.4c1.8,5.3,3.3,10.7,6.4,15.4c0.1,1.1,0.2,2.1,0.3,3.2
			c-0.7,8.9-1.9,9.8-9.7,7.3c-1.8-1.9-4.4-3.5-5.1-5.8c-3.3-9.4-7.8-16.2-19.4-15.2c-3.9,0.3-5.6-4-6.9-7.4c8.1,2.1,17-1.1,24.8,4.1
			C130.1,166.3,131.9,161.9,134.1,160.3z"/>
		<path class="st106" d="M133.7,188.6c5.7-0.2,7.6-3.1,6.3-8.5c3.2-2.8,6.4-2.4,9.5,0.2c4.4,6.8,3.3,11.9-4.9,14.1
			c-3.7,1-6.2,5.2-10.7,3.8c-1.3-0.7-2.7-1.3-4-2c-0.6-1.3-1.3-2.7-1.9-4C129.8,191,131.7,189.8,133.7,188.6z"/>
		<path class="st107" d="M127.9,146.8c2.6-1.4,5.2-2.9,7.9-4.3c3.7,4,2.6,8,0.2,12.1c-1.7-3.6-4-6.4-8.5-6.4
			C127.7,147.7,127.8,147.2,127.9,146.8z"/>
		<path class="st108" d="M139.4,178.4c-6.6-4.2-6.3-9.7-2.7-15.7c5.9-3.5,11.4-8.2,19.1-6.4c7.7-0.6,10.6,5.8,15,10.2
			c1.4,4.9-0.1,8.7-4.4,11.4C157.4,178.9,148.3,176.7,139.4,178.4z"/>
		<path class="st109" d="M167.3,166.8c-3.8-3.5-7.7-7-11.5-10.5c-0.8-0.8-1.6-1.6-2.5-2.5c-8.9-7.7-3.1-15.5-0.1-23.3
			c0.3-0.7,0.5-1.3,0.8-2c1.1,5.4,2.1,10.9,3.2,16.3c4.4,3.7,7.8,8.6,12.8,11.8C171.9,160.8,171.7,164.4,167.3,166.8z"/>
		<path class="st110" d="M153.2,130.5c-1.3,7.8-1.4,15.5,0.1,23.3c-5.9,1.5-8.6-0.5-8-6.8c0.5-4.8,0.4-9.6,0.6-14.5
			C149.7,136.4,151,131.9,153.2,130.5z"/>
		<path class="st111" d="M167.3,166.8c0.4-3.6,0.8-7.3-1.3-10.6c-3.7-4.1-7.4-8.2-2-13.6c0.6-0.1,1.1-0.2,1.7-0.3
			c3.8,0.2,5,3.9,7.4,5.9c8.4,6.8,21,2.7,23.3-7.5c1-1.4,2.4-2,4-2.1c8.8,3.4,6.5,11.7,3.3,15.4c-7.1,8.3-12.1,17.5-17.8,26.6
			c-6.4,10.3-7.2,9.8-23,5c-1.7-1.9-2-4.1-1.2-6.5c0.5-1.1,1.3-1.9,2.4-2.4C166.6,173.9,168.2,170.8,167.3,166.8z"/>
		<path class="st112" d="M197.4,142.5c2.9,2,4.2,4.4,1.4,7.3c-6,6.2-13.4,7.7-21.6,6.4c-7.7-1.3-10.9-6.4-11.5-13.7
			c0.7-1.3,1.4-2.6,2.1-3.9c0.6-0.1,1.2-0.2,1.8-0.4c3.9,0.4,7.8-1.4,11.7,0.2C185.8,142.7,192.3,139.8,197.4,142.5z"/>
		<path class="st113" d="M163.9,142.6c0.7,4.5,1.3,9.1,2,13.6c-7.9,0.1-6.6-6.9-8.7-11.3C159.5,144.1,161.7,143.4,163.9,142.6z"/>
		<path class="st114" d="M125.6,210.2c0.9-3.5,3.1-5.6,6.6-6.4c1.2-0.9,2.5-0.9,3.7,0.1c4.1,5.5,9.5,9,16.1,10.7
			c1.5,3.6,4.8,3.2,7.8,4c2.7,0.7,6.6-0.2,7.9,3.7C150.6,227.4,132.8,222.3,125.6,210.2z"/>
		<path class="st115" d="M191.7,204.2c-0.6,1.5-0.9,3.3-1.8,4.6c-2.7,3.9-6.9,6.3-11,3.8c-4.8-2.9-3.7-7.9-1.5-12.4
			c1,0.8-0.5-0.2,0.6,0.5c0.2,0.1,0.1-0.1-0.4-0.7c0.1-0.5,0.1-0.9,0.2-1.4c-1.1-2.6-6.8-2.8-4.1-7.5c6.5-0.7,8.3-8.7,14.7-9.4
			c1.7,0.1,3.1,0.7,4.3,1.9C196.2,190.6,192.4,197.3,191.7,204.2z"/>
		<path class="st116" d="M149.6,202.1c4.9,0,9.8-0.1,14.7-0.1c1.9,0,4.2-0.3,5,2c0.9,2.8-1.4,4-3.3,5.3c-9,6.1-19.9,2.7-22-6.8
			C145.7,200.6,147.6,200.4,149.6,202.1z"/>
		<path class="st117" d="M135.9,203.9c-1.2,0-2.5,0-3.7-0.1c-1.8-2.6,0.5-3.9,1.6-5.5c3.7-2.5,7-5.9,11.1-7.4c5.4-2,3.4-5,2.4-8.3
			c3.3-3.8,7-2.4,10.8-1.1c2.1,1.1,2.8,3.9,5.3,4.7c1.9,0.6,3.2,1.8,3.1,3.9c-0.3,4.2-6.6,2.1-6.8,6.5c-5.8,1.8-11.5,3.7-17.6,1.9
			C140,200.3,138,202.1,135.9,203.9z"/>
		<path class="st118" d="M167.7,222.2c-4.2,0-8.5-0.1-12.7-0.1c-7.4,0-6.5-3.3-3-7.6c5.6-1.1,10.7,1.5,16.1,1.9
			c1.6,0.1,3.5,0.5,3.6,2.4C171.8,221.3,169.4,221.6,167.7,222.2z"/>
		<path class="st119" d="M159.9,194.4c-2.9-0.2-5.7-0.5-10-0.9c5.5-4.9,11.6-0.6,16-3.4c3.5-2.6,5.9-1.8,7.4,2.2
			c0.8,2.5,6.8,1.3,4.4,6.1c-2.8-0.6-5.6-1.3-8.4-1.9C165.6,198.2,162.3,198.1,159.9,194.4z"/>
		<path class="st120" d="M159.9,194.4c3.1,0.7,6.2,1.5,9.4,2.2c-5.1,6.9-13.7,1.4-19.6,5.4c-1.9,0.2-3.8,0.3-5.7,0.5
			c-1.3-1-2-2.3-1.8-4C147.6,195.3,154.2,196.9,159.9,194.4z"/>
		<path class="st121" d="M191.7,204.2c-1.9-6.6-1.7-13.2-0.1-19.8c-1.6-2.1-1-3.7,1.2-4.8c1.1-0.2,2,0.1,2.8,0.8
			c0.6,5.3,1.3,10.6,1.9,15.9C195.5,198.9,193.6,201.5,191.7,204.2z"/>
		<path class="st122" d="M173.3,192.4c-2.5-0.7-5-1.5-7.4-2.2c-1.3-0.7-2.6-1.4-4-2.1c-1-2.2,0.1-3.2,2-3.7
			c17.4,1.2,17.5,1.3,24-15.5c2.2-5.6,7-8.6,10.7-12.7c4.5-4.9,8.2-10.2,0.6-15.7c-1.1-1.3-1-2.6,0.1-3.8c0.7-0.7,1.3-1.4,2-2.1
			c7.5,0.4,5.5,6.1,5.9,10.5c-0.8,7.8-2.2,15.4-6.4,22.2c-5.9,4.6-8.2,12-13.4,17.2C183.4,187.9,180.2,193.4,173.3,192.4z"/>
		<path class="st123" d="M197.5,164.6c6.7-4.9,7.7-12.6,9.8-19.7c0.8,13.5-2.4,25.5-11.9,35.6c-0.7,0-1.4-0.1-2.1-0.2
			C191,174,195.4,169.6,197.5,164.6z"/>
		<path class="st124" d="M179.4,142.6c-3.9-0.1-6.7-2.8-9.9-4.5c4.6-1.5,7.1-8.3,13.5-5.4c1,0.2,2,0.4,3,0.7c3.7,1.6,10,2.1,8.9,6.9
			c-0.9,4-6.9,1.7-10.7,2.2C182.7,142.7,181,142.5,179.4,142.6z"/>
		<path class="st125" d="M179.4,142.6c3.7-2.5,8.2-1.5,12.4-2.7c-1.7-3.3-5.4-2.9-7.8-4.8c4.2-4.7,7.6-0.5,11.2,1.1
			c1.4,0.1,2.8,0.2,4.3,0.3c0,1.3-0.1,2.6-0.1,3.8c-0.6,0.7-1.3,1.4-1.9,2.1C191.4,145,185.4,146.8,179.4,142.6z"/>
		<path class="st126" d="M195.2,136.2c-3.7-0.4-7.4-0.7-11.2-1.1c-0.3-0.8-0.7-1.6-1-2.4C188.4,129.1,191.9,132.4,195.2,136.2z"/>
		<path class="st127" d="M157.4,184.3c-3.8,2.3-6.9-0.2-10.1-1.7c-2.4-0.8-4.9-1.7-7.3-2.5c-0.3-0.5-0.4-1.1-0.6-1.7
			c0.1-2.6,0-5.2,0.4-7.8c0.3-1.7,3.2-3.2,3.3-2.7c3.1,10.6,12.5,2.7,17.9,6.3c1.1,0.7,2,1.6,3,2.5c0,0.5-0.1,1.1-0.4,1.6
			C161.7,180.5,161.7,184.6,157.4,184.3z"/>
		<path class="st128" d="M157.4,184.3c2-2.1,3.1-5.1,6.3-6c0.1,2,0.2,4,0.3,6c-0.7,1.2-1.3,2.5-2,3.7
			C159.2,188.2,158,186.6,157.4,184.3z"/>
		<path class="st129" d="M197.5,164.6c-1.4,5.2-2.7,10.4-4.1,15.7c-0.6,1.4-1.2,2.8-1.9,4.1c-1.3,0-2.6-0.1-3.9-0.1
			C190.5,177.5,190.6,169.3,197.5,164.6z"/>
		<path class="st130" d="M177.5,200c3.2,0.1,7-0.4,7.4,4.3c0.2,1.9-1.2,3.2-3,3.1c-4.7-0.3-4.3-4-4.6-7.3
			C177.3,200.2,177.5,200,177.5,200z"/>
	</g>
</g>
</svg>
