<?xml version="1.0" encoding="utf-8"?>
<!-- Generator: Adobe Illustrator 25.2.1, SVG Export Plug-In . SVG Version: 6.00 Build 0)  -->
<svg version="1.1" id="Camada_1" xmlns="http://www.w3.org/2000/svg" xmlns:xlink="http://www.w3.org/1999/xlink" x="0px" y="0px"
	 viewBox="0 0 300 300" style="enable-background:new 0 0 300 300;" xml:space="preserve">
<style type="text/css">
	.st0{fill:#654220;}
	.st1{fill:#101D14;}
	.st2{fill:#3E2515;}
	.st3{fill:#4A3A25;}
	.st4{fill:#3C2D1B;}
	.st5{fill:#442706;}
	.st6{fill:#332716;}
	.st7{fill:#3D2207;}
	.st8{fill:#0A2A21;}
	.st9{fill:#3F2E19;}
	.st10{fill:#195B56;}
	.st11{fill:#182F21;}
	.st12{fill:#1A3227;}
	.st13{fill:#0B4B46;}
	.st14{fill:#583319;}
	.st15{fill:#04403B;}
	.st16{fill:#11443E;}
	.st17{fill:#292D16;}
	.st18{fill:#6F5228;}
	.st19{fill:#814D1E;}
	.st20{fill:#482E15;}
	.st21{fill:#21423C;}
	.st22{fill:#312511;}
	.st23{fill:#724518;}
	.st24{fill:#258488;}
	.st25{fill:#683A1F;}
	.st26{fill:#876E47;}
	.st27{fill:#684111;}
	.st28{fill:#552E15;}
	.st29{fill:#583C24;}
	.st30{fill:#207A77;}
	.st31{fill:#298B8B;}
	.st32{fill:#DBAA6C;}
	.st33{fill:#6F4818;}
	.st34{fill:#5B391E;}
	.st35{fill:#664F37;}
	.st36{fill:#845724;}
	.st37{fill:#533315;}
	.st38{fill:#8A6336;}
	.st39{fill:#59432D;}
	.st40{fill:#BC8A52;}
	.st41{fill:#EDDEC6;}
	.st42{fill:#A99881;}
	.st43{fill:#756047;}
	.st44{fill:#F3DBC1;}
	.st45{fill:#4D391F;}
	.st46{fill:#654F2A;}
	.st47{fill:#412B12;}
	.st48{fill:#65533F;}
	.st49{fill:#5D4A35;}
	.st50{fill:#4B3725;}
	.st51{fill:#453523;}
	.st52{fill:#AE9C87;}
	.st53{fill:#594934;}
	.st54{fill:#F6D77D;}
	.st55{fill:#DFAB65;}
	.st56{fill:#EDCE8C;}
	.st57{fill:#5B432E;}
	.st58{fill:#36432C;}
	.st59{fill:#2E766F;}
	.st60{fill:#DBB365;}
	.st61{fill:#197470;}
	.st62{fill:#B59761;}
	.st63{fill:#76482D;}
	.st64{fill:#6C5846;}
	.st65{fill:#AA8A74;}
	.st66{fill:#54280B;}
	.st67{fill:#A78E7B;}
	.st68{fill:#5F3920;}
	.st69{fill:#724221;}
	.st70{fill:#766451;}
	.st71{fill:#DBCBB4;}
	.st72{fill:#824820;}
	.st73{fill:#8D7763;}
	.st74{fill:#EADFCA;}
	.st75{fill:#A76638;}
	.st76{fill:#C9834B;}
	.st77{fill:#B87240;}
	.st78{fill:#CD814A;}
	.st79{fill:#7B6A57;}
	.st80{fill:#7F6E5A;}
	.st81{fill:#8A5029;}
	.st82{fill:#A99D8C;}
	.st83{fill:#897864;}
	.st84{fill:#918470;}
	.st85{fill:#E9D9C5;}
	.st86{fill:#F6F1DE;}
	.st87{fill:#92806B;}
	.st88{fill:#F4E8D7;}
	.st89{fill:#84755D;}
	.st90{fill:#8A7B65;}
	.st91{fill:#ECA960;}
	.st92{fill:#E6DECD;}
	.st93{fill:#9A6A31;}
	.st94{fill:#EEDABC;}
	.st95{fill:#AC9A86;}
	.st96{fill:#483015;}
	.st97{fill:#633A21;}
	.st98{fill:#AB6D48;}
	.st99{fill:#7F4221;}
	.st100{fill:#928069;}
	.st101{fill:#847159;}
	.st102{fill:#E1CEB3;}
	.st103{fill:#C3B19B;}
	.st104{fill:#A18D74;}
	.st105{fill:#F3E4CB;}
	.st106{fill:#D6C6AF;}
	.st107{fill:#DECDB8;}
	.st108{fill:#C3B19D;}
	.st109{fill:#FCEDD2;}
	.st110{fill:#816954;}
	.st111{fill:#5F4630;}
	.st112{fill:#F3E2CD;}
	.st113{fill:#A69380;}
	.st114{fill:#A18D73;}
	.st115{fill:#705C40;}
	.st116{fill:#B0742E;}
	.st117{fill:#8C622B;}
	.st118{fill:#7D5A0F;}
	.st119{fill:#A08A75;}
	.st120{fill:#594422;}
	.st121{fill:#6B5122;}
	.st122{fill:#613D0D;}
	.st123{fill:#844222;}
	.st124{fill:#6A3C25;}
	.st125{fill:#EAAC83;}
	.st126{fill:#966B48;}
	.st127{fill:#D2B8A0;}
	.st128{fill:#834D27;}
	.st129{fill:#C37545;}
	.st130{fill:#DC8E4F;}
	.st131{fill:#A3673A;}
	.st132{fill:#9F683F;}
	.st133{fill:#3F2812;}
	.st134{fill:#DEB58F;}
	.st135{fill:#C4916D;}
	.st136{fill:#61523F;}
	.st137{fill:#59311A;}
	.st138{fill:#58321A;}
	.st139{fill:#DCCAB3;}
	.st140{fill:#85532A;}
	.st141{fill:#9F8166;}
	.st142{fill:#785A44;}
	.st143{fill:#A08F76;}
	.st144{fill:#AB9C7E;}
	.st145{fill:#F3E6D5;}
	.st146{fill:#E5DAB6;}
	.st147{fill:#A47138;}
	.st148{fill:#C1AE98;}
	.st149{fill:#A78050;}
	.st150{fill:#EADBBF;}
	.st151{fill:#D1C6AA;}
	.st152{fill:#B7A98C;}
	.st153{fill:#7C715E;}
	.st154{fill:#FAF3DB;}
	.st155{fill:#888172;}
	.st156{fill:#E09D59;}
	.st157{fill:#DAAF8C;}
	.st158{fill:#FCDB8C;}
	.st159{fill:#E49D55;}
	.st160{fill:#F8B364;}
	.st161{fill:#FBF0D8;}
	.st162{fill:#9F8C72;}
	.st163{fill:#F5C171;}
	.st164{fill:#FCEE94;}
	.st165{fill:#50381D;}
	.st166{fill:#574328;}
	.st167{fill:#DEBC94;}
	.st168{fill:#A9967E;}
	.st169{fill:#BBA287;}
	.st170{fill:#967D60;}
	.st171{fill:#715032;}
	.st172{fill:#512A09;}
	.st173{fill:#7A401E;}
	.st174{fill:#D7C7B2;}
	.st175{fill:#C4AF99;}
	.st176{fill:#EBD9BD;}
	.st177{fill:#462312;}
	.st178{fill:#75351A;}
	.st179{fill:#E1B28F;}
	.st180{fill:#EEB881;}
	.st181{fill:#7C5927;}
	.st182{fill:#BE6432;}
	.st183{fill:#F2E5C2;}
	.st184{fill:#F2C787;}
	.st185{fill:#F8D28B;}
	.st186{fill:#FABE76;}
	.st187{fill:#D47D45;}
	.st188{fill:#F79D5D;}
	.st189{fill:#F8B972;}
	.st190{fill:#752909;}
	.st191{fill:#F2A868;}
	.st192{fill:#FDD291;}
	.st193{fill:#F9D69D;}
	.st194{fill:#806C57;}
	.st195{fill:#B55D32;}
	.st196{fill:#3E2919;}
	.st197{fill:#B88961;}
	.st198{fill:#F4E0C3;}
	.st199{fill:#FDE088;}
	.st200{fill:#8D5933;}
	.st201{fill:#BC9677;}
	.st202{fill:#E09268;}
	.st203{fill:#F9C981;}
	.st204{fill:#E78540;}
</style>
<g>
	<g>
		<path class="st0" d="M298.7,112.7c0,19.2,0,38.4,0,57.7c-4.9,4.9-2.6,11.4-3.2,17c-0.4,3.6-1.5,7.2-1.4,10.9
			c-3.8,12.9-7.3,25.8-18.1,35.2c-2.5,2.2-4.2,4.5-7.8,3c-4.2-3.6-2.4-7.3-0.4-11.4c5.2-10.6,9.9-21.5,13.9-32.7
			c1.1-3.1,1.9-6,0.9-9.3c-1.5-2.5,0.6-5.1-0.2-9.1c-3.8,14-16.4,10.4-25,14.4c-3.8,1.8-7.9-3.5-7.9-7.2c0-12.6-6.4-23.1-9.7-34.6
			c-0.1-10.2,0.3-20.5-5.2-29.7c-3.1-3.9-9.1-5.2-10.1-11.1c0.3-3.5,3.4-6.6,1.2-10.3c-0.6-2.2-2-3.9-3.3-5.7
			c-1.1-2.6-2.1-5.1-3.2-7.7c-0.5-1.8-1.1-3.7-1-5.6c0.2-1.3,0.5-2.7,1.5-3.6c6.8-6.9,14.4-13.2,14.8-24.1c0-1.3,2.4-2.1,4.1-2.5
			c6.9-0.5,9.7,5.5,13.8,9.2c6.6,5.9,11.1,13.6,16.1,20.8c14.9,22,22.5,46.4,24.5,72.7c-1.9-26.1-9.5-50.3-24.1-72.2
			c-2.8-5.8-9.3-9.7-9.1-17.1c7.6-6.5,16.1-4.5,20.9,5.6c2.8,5.9,5.7,11.8,9.3,17.3C290.3,93.3,295.9,102.6,298.7,112.7z"/>
		<path class="st1" d="M59.8,299.6c-17.9,0-35.8-0.2-53.7,0.1c-5,0.1-6.1-1.1-6.1-6.1c0.2-47.1,0.1-94.1,0.1-141.2
			c8-1.6,6.6,5.5,8.7,9.3c-0.5,13.4,4,25.9,7.8,38.5c3.6,18.3,13.4,33.2,25.7,46.7c9.9,10.9,20.6,21,32.3,30.1
			c4.6,8.4,2.4,14.3-7.1,18.5C64.8,296.7,62.1,297.6,59.8,299.6z"/>
		<path class="st2" d="M213.1,299.6c-35.8,0-71.6,0-107.5,0c-1.8-1.9-4.3-3.5-4.2-6.3c0.5-9.1-3.8-16.9-6.7-25
			c-0.2-5.1,1.9-9.8,2.7-14.7c2.5-5.9,9.1-5.2,13.4-8.3c9.1-0.8,15.8,4.2,22.2,9.7c0.9,0.2,1.8,0.5,2.8,0.7
			c6.9,4,11.8,11.8,21.3,10.9c4.8,3.3,10.3,5.6,15.4,8.5c9,5.1,13.3,4.1,18.1-5.4c3.4-6.8,8.2-10.2,16-8c8.9,6.4,13.9,14.3,7.8,25
			C211.8,291.1,217.2,295.7,213.1,299.6z"/>
		<path class="st3" d="M286.5,84.9c-4.5-3.7-7.2-8.4-8.8-13.9c-2.5-8.6-7.9-12.7-17.1-10.1c-7.7,0.2-9-6.7-12.5-11.3
			c-1-5.9,1.1-9.6,7.1-11c5.8-1.3,8.7-5.3,7.5-10.9c-2.3-10.5,1.8-18.7,8-26.5c9.3,0,22.2-3.6,26.8,1c4.6,4.6,1,17.5,1,26.8
			c0,21.9,0,43.7,0,65.6C290.5,96.6,289.1,90.1,286.5,84.9z"/>
		<path class="st4" d="M270.8,1.3c1.5,3.3,0.9,6.4-0.8,9.4c-2.9,5.1-3,10.4-2,16.2c2,11.3-0.2,14.4-11.5,17.1
			c-3.5,0.8-5.1,2.6-5.8,5.7c-6.5,1.7-9.8-4-14.3-6.5c-2.8-1.6-5.2-3.9-8.3-5.3c-2.8-1.9-5.5-3.8-9-4.2c-6.7-5-14.9-7.9-20.6-14.2
			C197.4,10.2,204.5,7.3,211,5c3.9-1.3,8.2-1.8,12-3.7C238.9,1.3,254.9,1.3,270.8,1.3z"/>
		<path class="st5" d="M213.1,299.6c-2.4-5.4-4-10.5-1.2-16.6c3.7-8.1-4.3-12.8-6.8-19.1c-3.2-4.1,0.2-7.4,1.2-11
			c3-3.9,4.1-8.7,6.7-12.8c8.3-2.7,15.6-2.6,22.2,4.7c4.6,5.1,11.5,5.8,18.2,5.5c4.1,0.7,6.7-4.5,11.1-2.9c4.8,3.4,8.4,7.1,3,12.8
			c-8.7,2.4-11,8.1-8.5,16.4c1.1,3.7,2.4,7.5,3,11.4c1.4,4,2.9,8-1.2,11.4c-4.6,0-9.3,0-13.9,0c-2.9-3-7.6-4.1-9.2-8.9
			c0.7,3.7,0.3,6.7-2.7,8.9c-2,0-4,0-6,0c-4-4.1-8-5.6-11.9,0C215.7,299.6,214.4,299.6,213.1,299.6z"/>
		<path class="st6" d="M298.7,232c0,19.6-0.4,39.1,0.2,58.7c0.2,7.5-1.7,10.4-9.2,9c-1.6-0.3-3.3,0-5,0
			c-11.1-5.3-11.1-17.6-16.5-26.4c-0.4-2.8-0.6-5.5,0-8.3c1.2-4.4,2.6-8.3,0.7-13.3c-3.3-8.5,4.3-20.4,13.4-21.6
			C287.7,229.4,293.5,228.7,298.7,232z"/>
		<path class="st7" d="M97.6,267.8c10.8,8.6,8,20.5,8,31.8c-4.6,0-9.3,0-13.9,0c-2.7-3.1-5.3-2.9-8,0c-8,0-15.9,0-23.9,0
			c0.9-4.5,4.5-6.8,7.9-9.3c4.2-3.1,6.9-6.8,4-12.3c0.4-3.4,2.7-5.7,4.8-8.1C83.4,267.7,89.8,260.2,97.6,267.8z"/>
		<path class="st8" d="M0.1,144.5c0-31.2,0-62.3,0-93.5c7.2,0.2,14.6,6.7,17.2,15c1.7,5.4,1.1,11.4,3.6,16.6
			c0.4,2.3,0.1,4.5-0.1,6.7c-3.2,9.6-6.2,19-12,27.7c-3.3,5.1-2.7,12.5-3.4,18.9C5,139.1,6.7,144.8,0.1,144.5z"/>
		<path class="st9" d="M298.7,232c-4.1,2.2-8.2,3.3-13.2,2.9c-9.2-0.8-15.3,6.3-13.9,15.5c0.8,5.2,2.1,10.4-0.7,15.4
			c-2,0.3-3.5-0.4-4.8-1.8c-1.8-1.7-2.8-3.6-1.4-6c4.7-3.7,0.5-5.8-1.6-8.2c-3.3-6,0.8-9.7,4.3-13.5c0.5-0.1,0.9-0.2,1.4-0.3
			c8.5-6.9,12.1-16.9,16.4-26.4c1.7-3.9,2.4-8.2,5.4-11.5c2.7-2.2,5.4-2.2,8.1,0.1C298.7,209.5,298.7,220.7,298.7,232z"/>
		<path class="st10" d="M47.9,1.3c0.7,0,1.3,0,2,0c4.2,3.2,4.7,7.7,4.3,12.5c-1,13.9-1.2,28-4.3,41.7c-1.6,2.2-3.3,4.3-5.8,5.7
			c-5.4,0.6-10.7-0.9-16.1-0.8c-4.6,0.1-9.6-3-6.4-9.8c6.4-11.2,8.4-23,5.8-35.7c-0.9-4.6-2.7-9.9,2.5-13.6c2.7,0,5.3,0,8,0
			C41.3,5.9,44.6,6.1,47.9,1.3z"/>
		<path class="st11" d="M45.4,55.2c4.2-17.7,2.3-36,4.5-53.9c4,0,8,0,11.9,0c10.2,5.5,6.9,16.3,9.4,24.7c0.9,3,1.4,6.4,1,9.7
			c-2.9,4-6.9,6.9-10.6,10c-3.4,1.5-5.9,4.4-8.5,6.9C50.7,55.1,48.8,57,45.4,55.2z"/>
		<path class="st12" d="M73.8,1.3c6.6,0,13.3,0,19.9,0c6.7,6.2,6.9,13.2,2.8,20.9c-5.2,6.4-12.1,9.3-20.2,9.7
			C67.5,22.2,66.6,10.7,73.8,1.3z"/>
		<path class="st13" d="M30,1.3c3.1,14.4,2.3,28.7,0.1,43.1c-0.7,4.9-2.4,8.1-7.7,8.4c-5.3,1-6.7-3.4-9.2-6.4
			c-2.8-2.5-4.9-5.2-3.3-9.2c1.7-3.8,6.8-4.1,8.5-8c2.1-2.1,3.2-5.1,1.5-7.1c-4.4-5.4-2.9-10.9-1.9-16.7c1.2-1.5,2.7-2.8,4-4.1
			C24.7,1.3,27.3,1.3,30,1.3z"/>
		<path class="st14" d="M223,1.3c-3.7,5.1-9.5,7-14.6,9.9c-3.6,2.1-5.9,5.2-7.6,8.9c-6.5,2.6-12.1,0.5-17.4-3.3
			c-2.9-4.9-8.2-9.4-2.1-15.5C195.2,1.3,209.1,1.3,223,1.3z"/>
		<path class="st15" d="M22.1,31c-0.5,12.1-0.5,12.1-10.5,6.4c-4,1.7-6.3,0.2-7.8-3.8c-1.1-2.8-1.7-5.9-3.7-8.4c0-7.3,0-14.6,0-21.9
			c4.3-0.5,7.7,1.3,10.6,4.1c1.6,5.4,6.1,8.9,8.6,13.6C21,23.9,24.2,26.9,22.1,31z"/>
		<path class="st16" d="M18.1,82.8c-5.5-10.9-5-25.1-17.9-31.7c0-3.3,0-6.6,0-9.9c6.6-3.8,8.8,2.9,12.8,5.3c5.4,7,9.8,15.2,20.7,15
			c2.4,0,4.4,2.7,4.5,5.7c-0.1,1.6-0.8,2.9-2,4c-4.5,3.9-10.9,5.4-13.6,11.5C21.8,84.1,19.6,83.8,18.1,82.8z"/>
		<path class="st17" d="M0.1,144.5c0.5-1.2,1.5-2.4,1.4-3.6c-0.5-19.3,9.7-35.1,16.5-52c2.9-0.6,3.9,1.3,4.6,3.6
			c-1.6,13-9.2,24.5-10.2,37.7c-0.2,3.2-1.2,6.4-1.6,9.7c-3.1,7.3,1.4,16.2-5,22.7c-1.9-3.3-2-7.7-5.7-10.1
			C0.1,149.8,0.1,147.2,0.1,144.5z"/>
		<path class="st18" d="M181.2,1.3c0.3,4.8,2.1,9.2,4,13.5c-2,3.3-5.4,2-7.9,1.7c-11.5-1.4-23.1-2-34.7-3.2
			c-3.9-4.1-1.5-6.5,2.6-7.6c3.2-0.8,6-1.8,8.1-4.4C162.7,1.3,171.9,1.3,181.2,1.3z"/>
		<path class="st19" d="M268.6,262c0.8,1.3,1.5,2.6,2.3,3.9c0.6,2,1.3,4,1.9,6c2.7,6.8,1,14.3,3,21.2c0.9,3.2-1.3,4.7-2.9,6.6
			c-2,0-4,0-6,0c-6.1-4.3-3.5-12.7-8.3-17.6C255.1,268.9,257.8,263.5,268.6,262z"/>
		<path class="st20" d="M111.6,1.3c5.3,0,10.6,0,15.9,0c1.8,1.7,4,1.8,6.3,2.1c5.9,0.6,6.8,4,4.6,8.9c-10.1,4.4-20.4,7.3-31.6,6.5
			C101,11,106.6,6.2,111.6,1.3z"/>
		<path class="st21" d="M73.8,1.3c-1.3,9.5,1.5,18.7,2.1,28.1c0.5,4.3-1,6.3-5.6,5.1c-6.9-10-4.8-22.4-8.5-33.2
			C65.8,1.3,69.8,1.3,73.8,1.3z"/>
		<path class="st22" d="M111.6,1.3c-1.3,5.3-2.7,10.5-4,15.8c-3.1,6.4-7.6,8.5-14.1,4.6c2.2-6.8-0.3-13.6,0.2-20.4
			C99.6,1.3,105.6,1.3,111.6,1.3z"/>
		<path class="st23" d="M235,299.6c-2.2-5.1-4.4-10.3-6.5-15.4c-0.9-2.2-1.8-4.7,0.5-6.3c2.3-1.5,4.5,0.1,6.2,1.6
			c6.2,5.4,9.5,12.4,11.7,20.1C242.9,299.6,238.9,299.6,235,299.6z"/>
		<path class="st24" d="M10.2,49.3c-3.4-2.7-6.7-5.5-10.1-8.2c0-5.3,0-10.6,0-15.9c3.8,4.1,7.7,8.1,11.5,12.2c1.5,2.7,3,5.3,4.6,8
			C17.5,51.7,14,50.7,10.2,49.3z"/>
		<path class="st25" d="M272.8,299.6c-3.1-9.3-0.9-18.5,0-27.8c5.2,8.8,6.1,19.4,12,27.8C280.7,299.6,276.8,299.6,272.8,299.6z"/>
		<path class="st26" d="M286.5,84.9c4,3.3,8.1,6.6,12.1,9.9c0,6,0,11.9,0,17.9c-8.3-6.3-8.3-17.3-14.3-25
			C283.6,86.7,285.3,85.5,286.5,84.9z"/>
		<path class="st27" d="M217.1,299.6c-0.2-3.6-0.3-7.2-0.7-10.7c-0.3-3.1-0.9-6.2,3.2-7c3.4-0.6,4.4,2.1,5.2,4.7
			c1.4,4.3,2.9,8.7,4.3,13C225,299.6,221,299.6,217.1,299.6z"/>
		<path class="st28" d="M298.7,198.2c-2.7,0-5.4-0.1-8.1-0.1c0.7-6.5,1.6-13,2.2-19.6c0.4-4,1.9-6.9,5.9-8.1
			C298.7,179.6,298.7,188.9,298.7,198.2z"/>
		<path class="st29" d="M137.5,11c-0.3-6.3-8.3-4.8-10-9.6c8.6,0,17.2,0,25.9,0c0.6,9-7.6,7-12.1,9.6C140,12.3,138.8,12.3,137.5,11z
			"/>
		<path class="st30" d="M47.9,1.3c-0.5,3.9-0.9,7.8-1.6,11.7c-0.5,2.4-0.6,6.1-3.9,6c-3.9-0.1-3.8-4-4.1-6.8C37.9,8.6,38,5,37.9,1.3
			C41.3,1.3,44.6,1.3,47.9,1.3z"/>
		<path class="st31" d="M7.6,9.7c-2.5-2.1-5-4.2-7.5-6.3c7-4.5,14.6-0.8,21.9-2c-0.1,2-0.2,3.9-0.2,5.9C18.5,16.1,13.2,13.7,7.6,9.7
			z"/>
		<path class="st32" d="M260.6,282c5.1,4.8,4.2,11.7,6.2,17.6c-2,0-4,0-6,0c1.2-4.3-1.9-8-1.9-12.2
			C259.8,285.8,258.4,283.3,260.6,282z"/>
		<path class="st33" d="M83.7,299.6c0.6-2.4,1.6-4.6,4.3-4.8c3.3-0.2,3.4,2.5,3.7,4.8C89,299.6,86.4,299.6,83.7,299.6z"/>
		<path class="st34" d="M254.9,256c-9.4,4.6-16.2-2.4-22.3-6.7c-5.6-3.9-10.6-7.2-17.5-7.2c-3.1-3.1,1.2-6.1,0-9.2
			c0-4.1-2.3-7.9-1.6-12c1.8-3.7,1.2-8,3-11.6c1.3-1.8,2.3-3.9,4.4-5.1c2.1-1.1,5.3-0.9,5.2-4.6c0.3-1.4,0.7-2.7,1.3-3.9
			c0.9-1.7,2.6-2.6,3.8-3.9c6.4-7.5,7.8-16.5,7.8-25.9c0.4-3.6-0.7-6.5-3.5-8.8c-5.4-4.5-5.5-9.3-0.5-14.2c3.8-1.3,6.1,0.6,7.9,3.8
			c4.1,9.9,9.9,19.3,10.2,30.6c0.1,2.7,1.5,7.1,4.7,6.7c6-0.8,12.8-0.7,17-6.3c2.9-4,5.3-8.3,8.1-12.4c0.7-1,2.1-1.9,3.2-1.9
			c2,0.1,2.3,1.9,2.5,3.6c0.5,5.3-0.5,10.5-1.9,15.6c-5.7,13.9-12.9,26.9-21.8,39.2c-4.1,5.7-1.8,13.5-1.6,20.3
			C262.2,247.6,255.8,250.1,254.9,256z"/>
		<path class="st35" d="M227.1,105c3.3,3.2,6.5,6.5,9.8,9.7c0,6.5,3.5,13.3-1.6,19.4c-2.6,2.3-6,2.8-9,4.2c-0.9,0.2-1.9,0.2-2.8,0
			c-5.9-3.8-4.1-10-4.8-15.3c-0.1,0.2-0.4-0.1-0.5,0.1c-9.7,5-9.3-4-12-8.6c-1.9-3.9-3.3-8.2-7.7-10.4c-4.2-1.8-5.5-7-9.7-8.8
			c-5.3-8.9-12.9-13.3-23.5-11.5c-4.5-0.2-8.9,0.2-13.3,1c-10.7-1-21.3-1.5-29.6,7.4c-3.3,1.5-8.2-0.7-10.1,4.2
			c-3.1,3.3-8.4,3.9-10.4,8.5c-3.7,2.5-4.8,6.7-7.1,10.2c-3.2,2.7-6.6,1-9.9,0.7c-7.6-2.5-9.2-6.3-5.1-12.4c2.2-3.2,4.9-6.2,8.3-8.1
			c3.2-1.7,4.8-4.1,5.5-7.4c2.9-2.7,6.6-4.5,8.2-8.5c2.1-2,4.8-3.4,4.8-6.9c0.3-2.4,0.8-4.8,3.2-6c6.2-2.7,12.5-3.4,18.9-1
			c0.9,0.2,2.2,1,2.8,0.7c7.3-4.6,15.2-2.6,22.9-2.2c2.7-0.7,4.2-3.4,7-4c1.4-0.2,2.8,0,4.2,0.3c5.7,2.2,11.1,4.9,16.4,7.7
			c0.9,0.2,1.8,0.6,2.6,1.2c1.5,4.1,4.3,6.8,8.6,8c2.7,2.3,5.4,4.6,9,5.5c1.8,1.4,2.8,3.6,4.6,5.1c6.6,5.3,11.6,12.6,19.7,15.9
			C226.7,104.1,226.9,104.5,227.1,105z"/>
		<path class="st36" d="M239.3,48.9c-2.6,7,1.1,16.2-7.6,21c-3.7,2-7.2,4.5-10.7,6.8c-6,1.7-8.7-4.1-13.2-5.7
			c-0.6-0.7-1.1-1.5-1.4-2.4c-0.4-1.8-0.8-3.6-1.3-5.4c-3.5-9.7-2.8-20.2-6.1-30.1c-1.6-4.6,3.6-6.9,8.5-7c4.2,0.1,6.5,3.8,9.9,5.2
			c3.6,2.3,7.9,3.3,11.3,6C232.7,40.7,239.2,41.8,239.3,48.9z"/>
		<path class="st37" d="M260.8,241.9c-4.6-11.2-4.8-21.3,4.5-30.9c6.1-6.3,12-13.3,14.2-22.5c0.8-3.5,3.7-5.3,7.2-6.2
			c-0.2,16.3-7.6,30.4-14.2,44.7c-1.4,3-3.4,5.6-3.6,9c0,0,0.1-0.1,0.1-0.1C266.5,238.4,265.6,242.9,260.8,241.9z"/>
		<path class="st38" d="M270.6,75.1c17.4,27.4,26.7,56.9,22.5,89.6c-4.1-5.9-1.8-12.8-2.6-19.2c-2.8-21.8-7.9-42.8-20.3-61.5
			c-1.4-2.2-2.3-4.7-3.4-7.1C267.7,75.4,269.6,76.1,270.6,75.1z"/>
		<path class="st39" d="M232.9,132.7c2.5-5.7-3.7-13.4,4-18c7.8,9.5,9,20.3,6,31.9c-2.6-0.6-5.1-1.2-7.7-1.8c-0.5-0.2-1-0.4-1.5-0.6
			C230.4,140.6,230.2,136.7,232.9,132.7z"/>
		<path class="st40" d="M270.6,75.1c-0.5,2.2-2.1,2.2-3.8,1.9c-7.7-10.8-16.2-20.8-27.5-28c-4.1-3.2-8.3-6.4-12.4-9.6
			c0.1-1.7,0.2-3.4,2.1-4.3c8.4,3.1,14.1,10.2,21.6,14.7c3.3,3.7,6.7,7.5,10,11.2C264,65.6,267.3,70.3,270.6,75.1z"/>
		<path class="st41" d="M209.2,68.7c5.3,0.6,8.8,3.9,11.7,8c0.8,1.3,1.6,2.7,2.4,4c1.3,4.1-0.2,6.5-4.1,3.8c-3.9-2.8-8.2-2-12.2-3.2
			c-3.8-1.9-8.4-3.2-7.9-8.9C201.2,67.5,205,67.4,209.2,68.7z"/>
		<path class="st42" d="M209,79.4c4.4,0.1,6.2-1.5,3.1-5.8c6.4-0.6,4.2,9.9,11.2,7.1c2.2,2.3,1.6,5.2,1.9,7.9c0.2,1.5,0.4,3-0.2,4.4
			c-0.5,0.9-1.2,1.6-2.2,2.1c-1.5,0.5-2.9,0.6-4.4,0.1c-1.8-0.9-2.9-2.5-4-4.1c-1.1-2-2.6-3.7-3.9-5.6
			C209.6,83.6,207.6,81.9,209,79.4z"/>
		<path class="st43" d="M230.8,94.6c-0.1,3.9-1.1,7.4-3.8,10.4c0,0-0.2-0.4-0.2-0.4c-5.1-2.4-9.4-5.1-3.7-11.1
			c0.2-0.4,0.1-0.7-0.2-1C226.5,90.2,228.7,92.3,230.8,94.6z"/>
		<path class="st44" d="M230.8,94.6c-2.6-0.7-5.2-1.4-7.8-2.2c0.2-1.6,0.5-3.1,2.1-3.8c1.5,0.4,3.1,1,4.6,1.2
			c1.5,0.2,3.5-1.2,4.2,0.7C234.9,93,231.5,92.9,230.8,94.6z"/>
		<path class="st45" d="M77.6,273.8c-1,2.8-3.2,3.8-5.9,4.2c-20.5-16.3-39.7-33.7-51.6-57.7c-2.8-5.6-5.4-11.3-6.3-17.6
			c0.3-1.9,0.3-4,2.2-5.3c5.3-1.5,7.2,2.2,8.6,5.9c9.8,26,26.3,46.8,48.4,63.4C75.4,268.5,77.5,270.5,77.6,273.8z"/>
		<path class="st46" d="M16.1,198.2c-0.8,1.5-1.6,3-2.4,4.4c-4.6-13-7.5-26.3-7.9-40.1c1.1-8.1-1.6-16.4,1.9-24.3
			c2-0.4,3.5-4.3,6.2-1.1c2.5,9.1,2.7,18.4,2.6,27.8c-1.9,5.7-1,11.1,0.8,16.7C19,187.2,22.6,193.1,16.1,198.2z"/>
		<path class="st47" d="M16.1,198.2c-2.1-11.2-5.1-22.2-4-33.8c5.3-3.8,8-0.4,9.8,3.9c2.1,5.2,5.5,9.8,7.4,15.1
			c1.6,4.3,4.9,7,9.2,8.4c5.8,1.8,9.1-0.1,9-6.4c0-2.6-0.5-5.3-0.4-7.9c0.2-4.7,0.3-9.8,5.9-11.3c5.8-1.5,9.3,1.8,11.4,6.9
			c1.8,4.4,1.6,9.4,3.7,13.8c0.8,1.8,1.8,3.4,2.5,5.3c-0.3,12.5,9.4,18.5,16.7,26c0.7,0.7,1.7,1.3,1.9,2.2
			c2.7,11.7,8.1,22.4,12.2,33.6c0.1,5.1,0.2,10.1-4,14c-6.7,2-13.4,4-20,6c-4.3-0.9-7.9-2.9-11.3-5.7c-20.4-17-36.9-36.7-46-62
			C19.3,203.3,17.5,200.8,16.1,198.2z"/>
		<path class="st48" d="M153.4,272.1c-7.2-4.1-14.5-8.3-21.7-12.4c4.1-5.3,10-1.3,14.9-2.8c1.8,0,3.6,0.2,5.4,0.5
			c1.4,0,2.6-0.3,2.1-2.2c-1.6-2.5-4.6-2-6.7-3.2c-5.6-4-3.2-7.7,0.4-11.4c0.8-0.6,1.7-1,2.8-1.1c5.2,2.7,10,2,14.3-2
			c0.9-0.3,1.9-0.4,2.9-0.3c4.3,1.3,7.7,4.4,11.9,6c0.9,0.5,1.6,1.2,2.2,2c1.5,2.1,2.1,4.5,2.3,7c0.8,3.8,2.4,7.3,4.1,10.8
			c1.2,15-3.3,17.9-17.1,12.5C165.6,273.3,158.9,274.9,153.4,272.1z"/>
		<path class="st49" d="M131.1,257.9c-6.9-2.5-11.8-9-19.5-10.1c-3.9-0.4-7.6,0.8-11.6-2.2c-10-7.6-10-11.5,1.8-23
			c6.1-0.5,12.1-0.4,18.1-2.7c4-1.6,7.5,1.1,9.8,4.7c1.5,2.6,0.7,5.4,0.6,8.1c-0.3,2.3-2.2,4-2.6,6.2c0.3,0.4,0.5,0.9,0.9,1.3
			c1.9,0.1,3.7-0.3,5.4,0.4c3.1,0.5,6.3,0.9,7.3,4.8C140.2,251.3,139.7,258,131.1,257.9z"/>
		<path class="st50" d="M153.4,272.1c5.6-1.3,12.1,3.5,17.1-2.6c0.8-1,3.4-1.1,4.3,0.7c1.1,2.2-0.4,6.8,4.8,4.9
			c4.4-1.6,3.2-4.9,2.7-8.2c-0.2-1.1,0.9-2.3,1.4-3.5c3.9-4.1-2.5-8.2-0.1-12.3c2.2-3.4,5.9-3,9.1-3.8c2.1-0.2,4.1,1,6.3,0.7
			c2.5-0.1,4.7-2,7.4-1.3c3.5,1.5,2.5,4.6,2.8,7.3c-0.2,3.7-2,6.8-4.1,9.8c-3.5,0.9-7.1,1.7-8.5,5.7c-3.3,9.2-9.7,13.7-18.6,11.4
			C169.6,278.7,161.6,275.1,153.4,272.1z"/>
		<path class="st51" d="M103.7,224c-11.6,12.7-2.8,18.5,7.9,23.7c-1.4,5.3-6.3,4.7-10,6c-7-7.4-12.6-15.6-13.8-26.1
			c-0.4-3-2-5.4-3.8-7.7c1.8-2.3,2.8-5.1,4.1-7.6c1.4-1.5,3-2.6,5.2-2.3c5,2.5,8.7,6.2,11.2,11.2C104.5,222.3,104.2,223.2,103.7,224
			z"/>
		<path class="st52" d="M131.1,257.9c3.1-3.7,4.3-8.8,8.5-11.7c3.4-0.3,4.5,2.5,6.1,4.6c0.8,2.9,3.8,5.3,1.7,8.8
			c-5.2,2.6-10.5,1.3-15.8,0.1C131.4,259.1,131.2,258.5,131.1,257.9z"/>
		<path class="st53" d="M283.8,16.5c-1.7,3.6,0.5,10.3-5.4,11c-5.2,0.6-5.4-4.8-5.3-8.7c0.1-4.2,0.4-9.3,5.9-9.7
			C283.1,8.8,283.9,12.6,283.8,16.5z"/>
		<path class="st54" d="M217,33.2c-3.2-1.4-6.5-2.7-9.7-4.1c-9,0.5-17.7-1.8-26.3-3.9c-11.1-1.3-22.1-3.5-33.4-3.1
			c-9,0.3-17.7,1.3-26.1,4.7c-6.6-0.6-12.5,3.2-19,3.2c-12,4.7-23.1,11.3-34.8,16.7c-1.8,0.8-3.3,2.2-5.4,1.8
			c-2.1-0.9-3.1-2.4-2.3-4.7c3.4-3.1,6.8-6.1,10.2-9.2c1.9-1.7,3.7-3.4,5.6-5.1c6.9-0.1,11.9-4.7,17.6-7.7c4.9-0.9,9.7-2.1,14.1-4.6
			c10-2.1,20-4.1,29.9-6.2c1.3,0,2.5,0,3.8,0c14.8,0,29.5,1.1,44,3.9c5.2,1.8,10.3,3.6,15.5,5.4c7.9,1.5,13.7,6.8,20,11.1
			C221,34.8,219.3,34.5,217,33.2z"/>
		<path class="st55" d="M217,33.2c1.3-0.6,2.5-1.3,3.8-1.9c3.8-1,5.6,2.3,8.2,3.8c0.5,2,0.2,3.6-2.1,4.3
			C223.6,37.3,220.3,35.2,217,33.2z"/>
		<path class="st56" d="M260.6,282c-0.6,1.8-1.2,3.6-1.7,5.4c-3.5-6.4-5.7-13-3.8-20.3c1.3-5,3.5-9.1,9.6-9.1
			c0.7,1.9,4.1,1.1,3.9,3.9C263.4,267.6,255.5,272.3,260.6,282z"/>
		<path class="st57" d="M209.2,254c-1-2-2.1-4.1-3.1-6.1c-1.1,0.1-1.9-0.4-2.3-1.5c0.1-6.3,0.3-12.4,7.4-15.2
			c3.4-1.4,6.1-0.8,7.8,2.7c2.9,4.7-1.6,5.9-3.8,8.2C214.9,246.9,212.5,250.7,209.2,254z"/>
		<path class="st0" d="M260.8,241.9c2.7-2,5.4-4,8.1-5.9c-1.9,4.6-3.8,9.3-5.7,13.9c-2.7,2-5.4,4.1-8.2,6.1
			C252.2,249.3,258.7,246.5,260.8,241.9z"/>
		<path class="st58" d="M20.1,92.6c-0.7-1.3-1.4-2.5-2.1-3.8c0-2,0-4,0-6.1c4.1-6.3,8.8-12,16.6-14c1.9,2,1.9,4.3,0.3,6.1
			c-4.9,5.6-6.1,13.6-12.1,18.5C21.8,93.7,20.9,93.5,20.1,92.6z"/>
		<path class="st59" d="M10.2,49.3c2.6-0.5,4.8-1.4,5.9-4c2.1,2.5,4.1,5,6.2,7.6c3.2,3.8,6.8,3.6,10.6,1.1c8.2-5.4,9.4-1.4,8.2,6
			c1.6,2.7,1.2,5.1-1.4,6.8c-1.1,0.7-3.1,2-3.3-1C23.3,67.2,17.2,57.6,10.2,49.3z"/>
		<path class="st60" d="M36.4,65.7c2.8-1,3.6-3.5,4.7-5.8c1.4-1.6,2.8-3.2,4.2-4.7c4.9-3.8,9.8-7.6,14.7-11.5
			c0.6,1.3,1.2,2.6,1.9,3.8c0.8,0.7,1.2,1.6,1.3,2.7c-0.3,4.6-4.5,6.3-7.1,9.2c-8.1,9.1-16.4,17.9-23,28.3c-2.4,3.7-4.5,8.3-10.3,8
			c-1.3-0.8-2.3-1.8-1.4-3.5c2.3-9,9.1-15.4,13.1-23.4C35.2,67.7,35.8,66.7,36.4,65.7z"/>
		<path class="st61" d="M7.6,9.7c4.9,0,10,1.7,14.2-2.4c-0.4,4.6-0.3,8.9,1.7,13.4c1.5,3.2,3.7,7.6-1.5,10.4
			C17.2,24,11,17.8,7.6,9.7z"/>
		<path class="st62" d="M21.5,92.2c0.7,0.9,1.5,1.7,2.2,2.6c0.9,0.6,1.5,1.4,1.8,2.4c-0.4,10.7-8.2,19.4-8.6,30.1
			c-1.8,2.9-0.8,7.4-5.1,8.9c-0.9,2.6-1.9,5.1-2.9,8c-0.4-2.3-0.8-4.2-1.2-6.1c0.9-16.1,6.6-30.9,12.4-45.6
			C20.6,92.5,21.1,92.3,21.5,92.2z"/>
		<path class="st39" d="M235.3,144.8c0,2.7,0.1,5.6,2.8,7c6.9,3.6,7.9,10.1,8.8,16.7c-6.3,2.1-12.9,3.6-17.3,9.3
			c-6.6,4.5-8.5-1.2-11.2-5.2c-0.5-2.8-0.3-5.6-0.4-8.5c0.3-7.8-1.2-15.6,0.4-23.3c0.8-3.5,3.6-3.5,6.4-3.7l0.3-0.6
			c6.5-1.4,5.6,6.2,9.6,7.9L235.3,144.8z"/>
		<path class="st63" d="M221,172.5c2.2,0.1,2.8,5,6,1.9c0.9-0.7,1.8-0.9,2.9-0.7c2.2,0.6,3.4,2.2,4.6,4c3.1,5.4,2.1,11,0.5,16.6
			c-0.7,1.8-1.9,3.1-3.7,3.9c-1.5,0.1-2.3,0.9-2.4,2.5c3.3,2.6,5,6.3,1.7,9.3c-4.8,4.5-5.2-4.7-9.3-3.7c-4.1-0.2-6-3.3-7.8-6.3
			C214.1,190.2,212.3,179.9,221,172.5z"/>
		<path class="st64" d="M219,233.9c-1.9-0.7-3.9-0.8-5.8,0.2c-4-2.7-8.5-2.9-13.1-3.3c-2.4-0.7-4.7-1.6-7.1-2.5
			c-1.9-1.3-2.9-3.1-3-5.4c0.2-2.6,1.8-4.9,1.6-7.6c2.5-6.7,6.7-8.6,12.9-4.4c3.5,2.3,7.7,1.4,11.3,2.9c2.6,1.9,3,4.1,1.2,6.8
			C217.7,225,218.4,229.4,219,233.9z"/>
		<path class="st0" d="M235,194.2c-1.3-5.7-2.5-11.5-3.8-17.2c-0.1-1.3-0.8-2.2-2-2.6c-0.7,0-1.5,0-2.2-0.1c4.6-8.9,12.9-5.1,19.9-6
			C240.3,175.8,241.5,186.8,235,194.2z"/>
		<path class="st65" d="M217.1,220.5c-0.5-2.1-1.4-3.8-3.7-4.2c-4.5-0.8-12,1.1-7.2-8c1.4-2.3,3.2-4.1,6-4.5c2.2,0,3.8,1.2,5.5,2.3
			c1.1,1.2,1.4,2.6,1.5,4.1C219.4,213.9,222.2,218,217.1,220.5z"/>
		<path class="st66" d="M228.9,200.5c-4.2-0.9-6.1-3.3-4.8-7.6c0.5-1.5,1.4-3.3,3.3-2.8c4.1,1.1,3.3,4.9,3.8,7.9
			C230.5,198.9,229.7,199.7,228.9,200.5z"/>
		<path class="st0" d="M265.3,194.1c-0.4-0.5-1.3-1.2-1.3-1.9c0.1-1.8,1.4-2.9,3.2-2.8c0.6,0,1.8,1.1,1.7,1.7
			C268.8,192.9,267.4,193.8,265.3,194.1z"/>
		<path class="st67" d="M219.2,210.3c-0.8-0.8-1.6-1.6-2.4-2.5c-3.9-2.7-4.6-5.3,0.2-7.8c1.4,2.1,2.9,4.1,4.3,6.2
			C221.7,208.1,222.7,210.4,219.2,210.3z"/>
		<path class="st68" d="M224.8,137c-0.8,1.9-2.3,2-4.1,1.6c-1.4,0.9-2.6,2.1-3.8,3.2c-0.9,0.9-2,1.7-3.2,2.2c-1.7,1-4.5,0.9-5.4,2.2
			c-4.7,7.3-10.5,4.6-16.3,2.3c-3.8-1.1-6.6,1.7-9.9,2.6c-3.9-0.8-6.9,2.6-10.7,2.2c-5.4-0.4-8.7-3.4-10.7-8.2
			c-1.4-6.8,3.1-11.3,6.3-16.3c2.9-4.2,6-8.2,12-7c4,2.3,9.5,0.3,12.9,4.4c0.9,3.8,1,8.8,7,4.3c1.9-4,1.1-8.3,1.5-12.4
			c0.6-5.9,3.1-8,8.7-5.3c1.6,2.7,2.5,6,5.5,7.9c3.2-2.3,0.4-6,2.7-8.2c4.4-0.4,6.5,1.5,5.9,6.1C225.4,124.6,221.5,131.1,224.8,137z
			"/>
		<path class="st69" d="M85.7,112.7c2.6,0,5.2-0.1,7.9-0.1c4.5-3.1,7-0.1,8,3.4c1.5,5.1,4.9,8.2,9.1,10.8c0.7,0.8,1.1,1.8,1.3,2.8
			c0.2,4.7-3.5,5.8-6.7,7.4c-5.6-0.5-6.1,4.4-8.1,7.8c-5,3.8-0.1,11.2-5.4,14.9c-3.6,1.2-5.6-1.3-7.7-3.4c-1.3-3.7-3-7.3-3.5-11.3
			c-0.1-4.2,0.1-8.3,0-12.5c-0.6-6-0.4-11.9,2.9-17.3C84.3,114.3,85,113.4,85.7,112.7z"/>
		<path class="st70" d="M85.7,112.7c-0.1,0.8-0.2,1.6-0.2,2.3c-4.3,5.6-8.9,3.3-13.6,0.6c-3.5-1.4-6.5-3.7-9.5-5.8
			c-6.7-8.5-4.8-16.2,4.9-19.8c3.7-0.5,7.8,2.3,11.1-1.3c0.9-0.4,1.8-0.6,2.7-0.7c4.2,0.2,8.3-0.4,12.4-1c0.9,0.4,1.6,1,2.1,1.8
			c3.1,4.5-0.3,6.3-3.2,8.7c-3.3,2.8-6.4,5.7-9.2,9C80.8,109.5,81.4,112,85.7,112.7z"/>
		<path class="st71" d="M161.5,63.2c-0.3,2.7-2.1,4.2-4.3,5.4c-9.2,2.6-13-5.9-19.2-9.4c-3.6-3.1-8.2-5.2-10.5-9.7
			c-0.1-4.3,1.9-6.9,6-4.6c7.2,4,13.2,1,19.5-2c6.3,3,12.1-2,18.3-1.2c0.9,0.6,1.5,1.4,1.8,2.4c-0.4,3.9-0.2,7.8,0.6,11.7
			c-0.2,1-0.5,1.8-1.1,2.6C170,62.1,163.3,57.2,161.5,63.2z"/>
		<path class="st72" d="M209.1,112.9c-8,4.6-6.2,11.1-3.4,17.7c0.8,2,5.3,3.1,1.3,6.1c-3.8,0.5-6.8-2.4-10.5-2.6
			c-2.8-1.8-2.2-5-3.3-7.5c1.1-4.4-0.6-8.3-2.3-12.2c1.2-6,3.8-10.9,10-13.2C205.7,103.5,208.9,107.2,209.1,112.9z"/>
		<path class="st73" d="M209,79.4c0.9,1.6,4.4,0.8,3.7,3.9c-2.2,2.6-5.1,3.1-7.8,1.6c-5.1-2.8-10.5-2.1-15.9-1.9
			c-3-3.5-11-4.5-5.9-11.9c2.3-3.7,6.1-2.9,9.6-3c3.8-0.1,7.1,0.8,8.6,4.8C203.3,75.8,205.6,78.2,209,79.4z"/>
		<path class="st74" d="M129.5,68.9c-6.6-0.4-13.3-2.9-19.9,0.1c-1.8,2.7-4.8,4.1-6.6,6.7c-1.9,1.5-3.7,3-6.3,3.3
			c-2,0.4-4,0.9-6,0.5c-2.9-1.2-6.1-2-6.2-6.1c2.8-3.5,5.1-7.3,9.5-9.2c4-0.1,6.4-4,10.4-4.1c2.7-0.1,5.4-0.1,8.2-0.4
			c3.6-0.3,7.1-1.3,10.7-1.6c6-0.3,7.1,3.8,7.6,8.4C130.7,67.4,130.2,68.2,129.5,68.9z"/>
		<path class="st75" d="M99.7,102.9c2.7-3.9,5.2-8.1,9.9-10.1c2.4,1.7,2.9,3.8,2,6.7c-1.5,5.1,0.2,9.7,2.7,14.2
			c-1.5,5.4,2.3,9.2,4.4,13.5c0.6,1.3,1,2.7,0.8,4.2c-0.3,1-0.8,1.8-1.6,2.5c-5.9,3.2-6.5-1.9-8.3-5.2l0-0.1
			C103,121.3,95.3,114.4,99.7,102.9z"/>
		<path class="st76" d="M167.2,80.6c11.9-3.7,17.9,4.3,24,12.1c1.8,7.3,5.5,15-3.4,20.5c-3.3,1.7-6.2-0.2-9.2-1.2
			c-2.5-2.4-4.8-6.1-1.9-8.2c9.7-7.1,1.1-11.1-2.1-16.1c-0.6-0.6-1.3-1.2-2-1.8C170.8,84.2,167.7,83.8,167.2,80.6z"/>
		<path class="st77" d="M186.9,111.4c3.4-5.7,0.2-13,4.4-18.6c4.4,1.4,7.1,4.7,9.6,8.3c-1.3,4.9-2.8,9.7-7.1,13
			c-0.3,0.9-0.9,1.6-1.8,2C188.5,116.5,186.6,115.1,186.9,111.4z"/>
		<path class="st78" d="M111.3,114.5c-7.8-6.7-5.3-14.1-1.7-21.7c3-1.8,5.7-4.4,9.5-4.5c0.5,0.3,0.9,0.6,1.4,0.9
			c1.8,2.4,1.7,5.2,1.7,8c0.3,4.5-1.8,8.4-3,12.5C118,113.3,116.1,116.6,111.3,114.5z"/>
		<path class="st79" d="M129.5,68.9c0.1-0.6,0-1.2-0.2-1.8c-1.5-5.3,2.5-6.5,6.1-8.1c0.7-0.3,1.4-0.7,2.2-1c0.7-0.2,1.5-0.4,2.3-0.6
			c2.1,0.6,6.1,0.1,6,2.3c-0.2,8.6,7.3,6.5,11.4,9c-2.6,2.4-5.4,1.4-8.2,0.7c-4-1.1-8.1-6.3-11.5,1.8
			C136.1,74.4,131.9,70.9,129.5,68.9z"/>
		<path class="st80" d="M223.2,93.5c-0.5,4.3,1.6,7.7,3.7,11.1c-12.2,2.8-16.1-8.5-23.5-13.9c6.2-6.1,10.7-0.8,15.6,2.2
			C220.4,93.1,221.8,93.3,223.2,93.5z"/>
		<path class="st81" d="M99.7,102.9c-0.1,9.8,6.5,17.1,9.8,25.7c-5-0.4-7.4-3.9-9.2-7.9c-1.6-3.3-2.9-6.7-6.6-8.1
			C93.9,108.3,95.8,105,99.7,102.9z"/>
		<path class="st82" d="M95.7,74.8c1-3,3.4-2.3,5.6-2c2-1.1,3.8-0.7,5.4,0.8c2.5,3.4-0.4,6.5-0.7,9.8c-2.3,4-6.5,4.3-10.4,5.4
			c-0.7,0-1.4,0-2,0c-2.3-2.4-1.1-5.1-0.8-7.7C93.3,78.8,94.3,76.7,95.7,74.8z"/>
		<path class="st83" d="M234.7,144.3c-8.6,3.9-6.5-5.1-9.6-7.9c-1.4-9.6,4.5-3.9,7.8-3.7C235.2,136.3,234.9,140.3,234.7,144.3z"/>
		<path class="st84" d="M181.5,70.8c-6.3-0.5-11.2-4.3-16.3-7.4c0.2-1,0.7-1.8,1.5-2.5c3.9-1,7.1-3.9,11.2-4.4
			c2.6,0.5,4.6,2.2,6.7,3.8C186.9,64.7,188.4,69,181.5,70.8z"/>
		<path class="st78" d="M119.1,88.3c9.3-8.7,20.8-7.3,32-7.2c0.8,0.9,1,1.9,0.6,3c-3.2,4.3-8.2,4.7-12.9,5.9c-3-1-6-0.3-8.8,0.7
			c-3.4,0-7.1,2.3-10-1.4C119.7,89,119.4,88.7,119.1,88.3z"/>
		<path class="st85" d="M189,82.9c8-5.7,15.8-0.1,23.7,0.3c1.5,1.9,7.1,1,4.3,6c-5.5-0.6-11.4,0.2-16-4.2
			C196.9,85,192.8,84.8,189,82.9z"/>
		<path class="st86" d="M167.3,62.7c-0.7,0.2-1.4,0.5-2.2,0.7c-1.2-0.1-2.4-0.1-3.6-0.2c-2.5,0-5,0-7.9,0c3.7-9.7,11.5-5.1,17.6-5.8
			C172.3,60.9,168.5,60.9,167.3,62.7z"/>
		<path class="st87" d="M201,85.1c5.6,0.2,11.2,0.8,16,4.2c0.7,1.2,1.3,2.4,2,3.6c-5.2-0.7-10.4-1.4-15.6-2.2
			C202.6,88.8,201.8,87,201,85.1z"/>
		<path class="st88" d="M181.5,70.8c3.5-2.5,0.7-5,0.1-7.6c6-4.9,11,1.1,16.5,1.5c0.9,0.6,1.5,1.3,1.8,2.3c-0.3,4.7-5,1.7-6.7,3.8
			c-3.3,0.1-6.6,0.1-9.9,0.2C182.6,70.8,182.1,70.7,181.5,70.8z"/>
		<path class="st89" d="M106,75.3c-1.6-0.8-3.2-1.6-4.8-2.4c1.9-3.2,4.6-4.7,8.4-3.9c0.8,2.2,7.4,0.8,3.7,5.8
			C110.8,73.8,108.6,77.9,106,75.3z"/>
		<path class="st90" d="M223.2,118.6c-2-2-3.9-4-5.9-6.1c-0.8-4.1,1.7-4.1,3.5-2.1C222.6,112.5,229.7,114,223.2,118.6z"/>
		<path class="st91" d="M151.5,82.4c-0.1-0.4-0.2-0.9-0.4-1.3c5.4-0.2,10.7-0.4,16.1-0.6c2.7,0.7,5.4,1.5,8.1,2.2
			c-1.1,2.5-3.6,2.9-5.8,3.9c-3,0.4-5.9,1.8-9,1.5C156.9,87.2,152.7,87.1,151.5,82.4z"/>
		<path class="st92" d="M106,75.3c2.4-0.1,4.6-3.4,7.2-0.5c-2.4,2.9-4.8,5.8-7.3,8.7C102.3,80.7,107.3,78,106,75.3z"/>
		<path class="st93" d="M183.6,21.1c7.8,3,16.8,2.6,23.8,7.9c-4,3.5-2.8,12.8,2.4,17.5c1.2,1,2.7,1.7,5.2,3.2
			c-7.6,3.3-10.3,7.5-4,13.4c-6.6,6.9-12.8-0.2-19.2-0.6c-7.7-1.3-9.2-7.7-11.5-13.6c-0.4-1.8,0-3.7,0-5.6c-1-5.4-0.9-11-2.8-16.4
			C175.9,22.6,177.6,19.1,183.6,21.1z"/>
		<path class="st94" d="M192.6,58.7c1.1-1.4,2-5.7,4.1-1.7c3.3,6.5,8.4,6.8,14.3,6.1c-0.7,1.2-1.4,2.4-2.1,3.7
			c-3.2,2.2-6.5,3-9.8,0.1l0.2,0.1C196.6,64.7,190.9,64.7,192.6,58.7z"/>
		<path class="st95" d="M199.1,66.9c3.3,0,6.5-0.1,9.8-0.1c0.1,0.6,0.2,1.3,0.4,1.9c-2.6,1.4-5.3,2.7-7.9,4.1
			c-2.8-0.7-5.5-1.3-8.3-2C195.1,69.5,197.1,68.2,199.1,66.9z"/>
		<path class="st96" d="M11.8,136.2c0.4-3.3,0.2-6.7,2.4-9.5c1.1-1.1,2.4-1.7,3.9-1.5c3,0.8,4.3,3.2,4.3,5.9c0,5.7,3.7,9.6,6.1,14.2
			c2.4,4.7,6.2,6.5,10.5,3.5c9.1-6.4,14.9-2.9,19.8,5.3c0.7,1.1,2,1.7,3.1,2.4c3.9,0.8,6.9,2.9,8.6,6.6c2.1,4.5,10.2,5.4,7.9,12.6
			c-0.4,1-1,1.8-1.7,2.4c-4.6,2.2-8.5-0.7-12.6-2c-0.8-0.5-1.5-1.2-2.2-1.9c-1.9-2.3-3.5-5.5-7.1-3.8c-3.1,1.5-2.9,5-2.6,8
			c0.4,4.6,1.3,9.2,1.6,13.8c0.2,3.5-0.7,6.5-4.8,7.6c-6.5,1.6-22-7-24.6-13.3c-3.2-7.7-4.9-16.4-12.1-22
			C8.5,155.1,13.8,145.6,11.8,136.2z"/>
		<path class="st97" d="M93.4,212.2c-1.1,0.6-2.1,1.2-3.2,1.9c-7,2.3-13.8-2.4-17.3-12.2c-1.2-3.4-2.2-7-5-9.6
			c-0.7-1.3-1.4-2.6-2.1-3.9c1-6.1,2.1-12.2,10.8-9.4c6.6-0.2,8.7,5.3,11.3,9.5c1.8,2.9,3.9,5.6,5.9,8.4c1.5,4.4,3.8,8.6,1.9,13.4
			C95.2,211.3,94.4,211.9,93.4,212.2z"/>
		<path class="st98" d="M67.9,192.3c6.2-2.3,13.6-6.1,8.2,6.5c-0.5,1.2,0.2,4.2,1,4.5c5.6,2.2,6.3,10.2,13.1,10.8
			c-0.5,3.7-2.3,6-6.3,5.9C77.5,211.4,65.6,205.9,67.9,192.3z"/>
		<path class="st99" d="M76.2,182.4c-6.2-2.8-6.4,4.9-10.4,6c-2.6-4.4-4.4-9-4-14.2c0.5,0,1,0,1.6,0c4.9-0.3,8.8,2.8,13.1,4.2
			C77.2,179.8,77,181.1,76.2,182.4z"/>
		<path class="st100" d="M143.6,251.7c-1.3-1.8-2.6-3.7-4-5.5c-2.6-0.7-5.3-1.4-7.9-2.1c-2-0.9-3.3-2.9-5.4-3.4
			c-1.1-0.7-1.9-1.7-2.8-2.7c1.5-1.9,2.9-3.8,4.4-5.7c0.4-0.8,1.1-1.4,1.9-1.7c1.8-0.4,3.5,0.4,5.2,0.7c3.5,0.9,6.6,2.6,9.2,5.2
			c1.3,2.3,7.3,0.6,5.2,5.9c1.8,2.6-4.9,5.2,0.1,7.7c2.2,1.4,3.4,3.4,0.6,4.9C146.9,256.6,144.8,254.7,143.6,251.7z"/>
		<path class="st101" d="M193.5,250.4c-2.4,1.7-4.5,4.3-7.7,1.4c-2,1.2-3.6,3.7-6.5,2.1c-0.1-2.5-0.1-5-0.2-7.5
			c-0.7-4,3-6.1,4.1-9.4c0.8-1.7,1.3-3.6,2.6-5c2.8-2.5,5.6-2.2,8.4-0.1C199,238.3,199.4,244.5,193.5,250.4z"/>
		<path class="st102" d="M165.5,240.1c-3.9,7-8.7,7.2-14.4,2.1c0.4-2.4-1-4.8-0.1-7.3c0.9-2.1,2.6-3.3,4.9-3.6
			C160.9,232.2,165.8,233.3,165.5,240.1z"/>
		<path class="st103" d="M143.6,251.7c2.4,0.8,5.9,5.5,5.9-1.7c4.1-0.3,8.7-3.6,12,1.8c-0.5,6.2-7.4,6-10.1,10
			c-1.3-0.8-2.6-1.5-4-2.3C145.6,257.2,141.2,256.1,143.6,251.7z"/>
		<path class="st104" d="M165.5,240.1c-3.1-2.6-5.9-5.7-10.2-6.5c-1.3-1.2-1.4-2.6-0.9-4.1c0.5-0.9,1.3-1.6,2.2-2
			c0.9-0.3,1.9-0.7,2.8-1c6.6,0.4,12.9,2.8,19.5,3.7c0.7,0.7,1.2,1.5,1.5,2.5c0,2.2-1.1,3.6-3,4.5c-3.1,2.3-6.9,2.3-10.4,3.1l-0.7,0
			L165.5,240.1z"/>
		<path class="st105" d="M175.3,234.1c1.5-0.4,3-0.8,4.5-1.2c6.5-2,6.2,3.7,7.8,7.1c-2.4,2.8-5,5.2-8.5,6.4
			c-0.5-0.4-1.1-0.7-1.8-0.8C175,242.1,172.1,238.6,175.3,234.1z"/>
		<path class="st106" d="M175.3,234.1c0,3.9,6.7,6.7,2,11.5c-4.9,0.9-6.8-4-10.5-5.4C168.7,236.8,171.1,234.1,175.3,234.1z"/>
		<path class="st107" d="M151.4,261.8c-0.4-7.2,5.8-7.6,10.1-10C163.7,260.8,158.3,262,151.4,261.8z"/>
		<path class="st108" d="M179.3,253.9c2.2-0.7,4.4-1.4,6.5-2.1c3.3,4.6,3.9,8.6-2.1,11.5C182.3,260.2,180.8,257.1,179.3,253.9z"/>
		<path class="st109" d="M152.9,237.6c1.2,2.3-0.4,3.4-1.9,4.5c0,0-0.9,0-0.9,0l-0.9,0.1c-2.7-0.3-5.5-0.4-7.6-2.4
			c-1.2-3.2,0.3-5,3.1-6.2C148.7,232.6,150.8,235.3,152.9,237.6z"/>
		<path class="st110" d="M103.7,224c-0.2-0.7-0.4-1.3-0.7-2c0.1-0.5,0.3-0.9,0.4-1.4c3.6-4.5-3.9-10.5,2-14.7
			c6.5-2.4,12.4-0.4,18.1,2.6c3.9,2,8.6-2.7,12.2,1.7c1,3,2,6,2.9,9c-1.5,5.8-4.6,9.1-11.1,6.9c-2.2-0.3-4.8-2.8-6.4-0.8
			C114.5,233.5,109.3,226.9,103.7,224z"/>
		<path class="st111" d="M127.5,226.1c3-2.2,7.4-3,8-7.6c0.1-8.1,6.6-14,7.2-21.9c0.4-0.9,1-1.6,1.8-2.3c0.9-0.4,1.8-0.7,2.8-0.9
			c7.2-0.9,12.1,1.1,12.2,9.4c0.1,4.5,6.9,6.5,4.5,12c-2.6,3.5-7.6,1.2-10.3,4.4c-7.9,4.9-14,13.1-24.6,13.1c-0.4,0-0.9,0-1.3,0
			C127.7,230.2,127.6,228.1,127.5,226.1z"/>
		<path class="st112" d="M127.8,238.1c2.2-3.3,4.3-2,6.3,0.2c3.3,3.6-2,3.7-2.4,5.8c-2.1,2.6-4.1,1.2-6.1-0.2
			C123,240.7,125.5,239.4,127.8,238.1z"/>
		<path class="st113" d="M127.8,238.1c-0.7,1.9-1.5,3.8-2.2,5.7c-2.6,1.2-5,1.3-6-2c-1-3.4,2-3.1,3.8-3.9
			C124.9,238,126.3,238,127.8,238.1z"/>
		<path class="st114" d="M193.5,250.4c-1.5-5.5,1.1-11.4-1.5-16.9c0.3-3-0.6-6.4,3.2-7.9c2,0.8,3.9,1.6,5.9,2.4
			c2.6,1.8,2.4,4.1,1.3,6.6c-4.3,5.9,0.2,12.8-1.9,18.9c-1.6,1.9-1.8,5.2-5.4,5C192.9,256.2,196.8,252.6,193.5,250.4z"/>
		<path class="st115" d="M200.5,253.6c-2.6-6.2-5.1-12.5-1.3-19.1c4.9-3.2,6.3-0.1,6.6,3.9c0.2,3.2-1.5,6.3-0.6,9.6c0,0,0.9,0,0.9,0
			C204.2,249.8,202.4,251.7,200.5,253.6z"/>
		<path class="st49" d="M103,222c-4.3-2.2-6.8-6.1-9.7-9.8c0,0,0.8-0.6,0.8-0.6c3.1-5.7-2.4-11.2-0.3-16.9c0.5-1,1.2-1.7,2.2-2.3
			c7.1-1.7,8.5,3.5,10.1,8.4c0.2,1.1,0.1,2.2-0.1,3.2c-5.4,5.4,1.1,12.1-1.9,17.7C103.8,221.8,103.4,221.9,103,222z"/>
		<path class="st116" d="M183.6,21.1c-1.5,0.8-3.3,2.2-1.4,3.6c7.6,5.4,0.8,13.3,3.8,19.4c-0.9-0.3-1.7-0.6-2.6-0.9
			c-4,1.6-6.4,12.7-12.3,1.9c-0.1-0.6-0.3-1.2-0.4-1.7c-6-1.3-11.8,1.4-17.8,0.5c-6.5,3.5-12.9,6.3-20,0.9
			c-4.1-3.1-7.5,0.3-10.6,2.4c-5.5,3.7-11,6.4-17.8,4.3c-4.3-2.4-4-6-2.6-9.9c4.9-5,8.8-10.7,12-16.8c0.9-2.4,3.9-1.9,5.3-3.7
			C140.6,15,162.1,15.4,183.6,21.1z"/>
		<path class="st117" d="M119.1,21.1c0.2,2.5-2.5,2.7-3.6,4.2c-4.4,4.6-9.1,8.9-9.9,15.7c0,2.7,0,5.4,0,8c2.2,3.9-1.9,5.5-3,8.3
			c-2.5,3.1-3.7,7.3-7.5,9.3c-2.2,3.3-4,7.3-9.1,6.6c-0.7,1.3-1.2,2.6-2.6,3.3c-5.1,1.1-7.6-1.5-7.7-6.3c-0.1-7.8-1.8-15.9,3.5-22.8
			c1.9-2.5,2.2-5.4,2-8.4c2.6-4.7,7.4-6.2,12-7.7c3-1,6.6-0.9,7.9-4.7C106.9,23.9,112.7,21.5,119.1,21.1z"/>
		<path class="st118" d="M101.2,26.7c1.3,5.2-2.2,6-5.9,6.4c-4.7,0.5-8.7,2.1-11.5,6.1c-2.5,8.1-9.4,10.5-16.4,12.8
			c-2.4,0.1-4.2-0.7-5.3-2.9c0.1-0.5,0.1-1,0-1.5C73.8,38.4,86.7,31,101.2,26.7z"/>
		<path class="st119" d="M205.2,248c-5.1-3.2,3-12.1-6-13.5c0.6-2.1,1.3-4.3,1.9-6.4c7.1-4,10.3-0.3,12.1,6.1
			C206.7,236.5,208.2,243.5,205.2,248z"/>
		<path class="st120" d="M69.4,92.6c-9.7,3.8-6.4,10.2-3.2,16.6c3.1,6.1,2.5,12.8,2.6,19.3c0,3.5-1.5,5.7-5.2,5.9
			c-1.5-0.1-2.8-0.8-3.8-1.9c-3.4-5.8-9.5-9.5-12.3-16.2c-1.6-3.8-6.6-3.5-10.6-3.2c-7.9,0.6-12.4-2.8-12.9-11
			c0.1-1.8,0.1-3.7,0.2-5.5c-0.1-0.7-0.2-1.3-0.4-1.9c7.6-14.4,17-27.5,29.4-38.2c7.4-1.3,9.6,2.8,8.5,9c-1.1,6.5,0.5,12.1,3.5,17.7
			C65.9,86.6,71.5,87.9,69.4,92.6z"/>
		<path class="st121" d="M61.8,86.8c-5-6.1-8.2-12.8-5.5-20.9c1.4-4.1,0.3-7.1-3.2-9.4c2.4-3.2,5.3-5.8,8.9-7.5c2,0,3.9,0,5.9-0.1
			c4.5-1,5.9,2.1,6.2,5.4c1,10.1,4.7,20.7-4.9,29c-0.5,0.8-1.1,1.6-1.8,2.3C65.7,87,63.5,85.8,61.8,86.8z"/>
		<path class="st122" d="M24.1,96.7c0.6,1.3,1.2,2.7,1.9,4c-2,3.5-0.2,6.7,0.8,10.1c2.6,8.2-0.7,13.9-8.7,15.9c-1.3,0-2.6,0-3.9,0
			C15.5,116,18.6,105.9,24.1,96.7z"/>
		<path class="st123" d="M215.1,138.3c2.1-4.2,3.8-1.3,5.6,0.3c0.1,8.6,0.1,17.1,0.2,25.7c-1.3,4.2-2.6,8.4-4.1,12.6
			c-3.4,9-7.1,18.3-4,28.4c-1.3,1.6-2.5,3.3-3.8,4.9c-4.7,1.3-8.2-2.2-12.4-3.2c-3.5-1.3-6.2-3.2-6.3-7.5c1.2-7.2,2.8-13.6,10.8-17
			c5.6-2.4,6.3-9.3,9-14.3C211.6,158.3,215.5,148.7,215.1,138.3z"/>
		<path class="st124" d="M212.8,205.3c-13.4-5.9-9.9-13.4-2.8-22.3c4.5-5.5,7.3-12.4,10.9-18.7c0,2.7,0,5.4,0.1,8.1
			c-1.3,9.2-2.7,18.4-4,27.6c-1.6,2.6-1,5.2-0.2,7.8C215.5,207,214.1,206.2,212.8,205.3z"/>
		<path class="st125" d="M229.2,174.4c2.8-2.5,5.5-5.5,10.5-1.3c-3.3,1.5-5.9,2.7-8.5,3.9C230.6,176.2,229.9,175.3,229.2,174.4z"/>
		<path class="st111" d="M197.9,217.6c-1.5,1.4-3.1,2.8-4.6,4.2c-3.1,3.4-6.1,1.4-9.1-0.2c-2.9-1.5-6.3-1.8-9.2-3.2
			c-2.5-1.3-5.6-0.7-7.8-2.9c-1.5-11.8,1.7-19.6,9.5-23.2c3.1,0.5,4.4,3.3,6.7,4.9c3.2,3.8,8.8,4.4,11.7,8.6
			C196.8,209.6,195.8,214,197.9,217.6z"/>
		<path class="st126" d="M185.2,218.1c2.7,1.2,5.3,2.5,8,3.7c0.7,1.3,1.3,2.5,2,3.8c-0.5,2.9-1.1,5.7-3.2,7.9
			c-1.7,0.2-3.4,0.4-5.2,0.6c-5.2-1-7.2-4.8-8.5-9.4C178.7,220.5,178.6,215.8,185.2,218.1z"/>
		<path class="st127" d="M197.9,217.6c-1.5-3.8-3-7.6-4.5-11.4c1.6-1.5,4.2,0.2,5.7-1.8c3.3,1.9,6.7,3.8,10,5.7
			c-3.8,5.7,4.2,3.1,4.3,6.1c-5.8,1.9-5.8,1.9-14.8-4.9C198.3,213.6,198.1,215.6,197.9,217.6z"/>
		<path class="st128" d="M172.9,150.7c-0.3-6.9,5.5-4.4,8.9-5.7c3.4,3.2,6.7,3.8,9.8-0.4c8.2,4.2,14.6-1.1,21.4-4.1
			c6.2,5.2,0.1,9-1.6,13.4c-9,11.6-13.3,12.6-30.6,7.5c-3.1-2.1-6.7-3.7-8.3-7.6C172.2,152.7,172.4,151.7,172.9,150.7z"/>
		<path class="st129" d="M178.8,124.9c-4.1,0.3-6.1,4.2-9.5,5.8c-11.8,5.3-23.8,3-31.5-6.1c0-1.1,0.2-2.2,0.8-3.1
			c7.2-4.1,14.3-8.6,23.3-5.2c4.4,1.7,8-2.1,12.1-2.4c3.3,0.2,5.7,2,7.4,4.7C182,121.2,181.4,123.5,178.8,124.9z"/>
		<path class="st130" d="M172.9,150.7c0.2,0.5,0.3,1,0.4,1.5c0.6,3.9,0.9,7.9,4.5,10.6c2.1,3,4.2,6,5.2,9.6
			c-0.1,0.9-0.4,1.8-0.9,2.6c-2.3,2.6-5.6,2.9-8.6,4c-1.4,0.2-2.8,0.6-4.3,0.1c-1.9-0.6-3.3-2.1-5.2-2.7c-5.8-0.1-9.8-2.4-10.8-8.5
			c0.1-1,0.4-1.9,1-2.8c1.9-1.8,5.3-2.4,4.9-6.1c0.5-4.7-1.5-9.7,1.3-14.2c0.9-0.7,1.8-0.8,2.8-0.4
			C165.5,148.2,169,149.8,172.9,150.7z"/>
		<path class="st131" d="M163.3,144.5c-0.5,0-0.9,0-1.4-0.2c-0.4,0-0.9-0.1-1.3-0.1c-3.4-1-3.6-6.1-7.9-6c-6.6-0.5-11.6-4.4-17-7.6
			c-0.6-0.7-1.1-1.5-1.3-2.4c0.4-3,2.3-3.9,5.1-3.5c9.5,4.2,19.3,6.7,29.8,5.9C167.2,135.2,162.8,138.8,163.3,144.5z"/>
		<path class="st132" d="M209,152.3c1.3-3.9,2.6-7.8,4-11.7c0.7-0.7,1.4-1.5,2.1-2.2c6.6,11.1,1.1,21.5-2,32
			c-2.3-0.9-2.8-2.8-3.1-4.9c-0.3-2-0.6-4-0.9-5.9C209.4,157,210.1,154.6,209,152.3z"/>
		<path class="st133" d="M197.1,132c3.3,1.6,6.6,3.1,9.9,4.7c0.4,2.4-0.6,2.9-2.6,2c-7.2-3.2-15.8-2.9-22.8-8
			c3.2-3.2,6.9-0.3,9.7-2.1C195.4,126,196.1,129.2,197.1,132z"/>
		<path class="st134" d="M197.1,132c-1.9-1.2-3-3.9-5.9-3.4c-3.4-3.7-8.9-0.2-12.4-3.6c0.4-2.4,0.8-4.7,1.2-7.1
			c2.3-5.3,5.2-2,7.9-0.5c3.4,2.1,6.3,4.6,7.2,8.7C198.4,127.1,197.9,129.5,197.1,132z"/>
		<path class="st135" d="M191.6,144.6c0.8,1.7,4.1,1.8,3.5,4.1c-0.6,2.5-3.2,1.8-5,1.7c-3.8-0.2-7-1.3-8.3-5.4
			C185.1,144.9,188.3,144.8,191.6,144.6z"/>
		<path class="st136" d="M61.8,130.4c0.7,0.8,1.4,1.6,2.2,2.4c4.6,0.4,9.7-7.8,13.9,0.8c0.1,0.9,0,1.9-0.3,2.8
			c-0.6,1-1.3,1.9-2.1,2.8c-0.2,0.3-0.4,0.5-0.4,0.8c0.2-0.4,0.5-0.7,0.8-1.2c2.8-2,2.3-7.6,7.6-6.7c0.1,4.7,0.1,9.3,0.2,14
			c0.2,5.1-0.9,10.5,3.6,14.5c0.2,8.3,2.3,16,7,22.9c2.2,3.2,4.4,6.7,1.4,10.7c-0.1,0.6-0.1,1.2-0.2,1.7c-1.2,1.3-2.3,2.6-4.3,2.4
			c-6.3-4.1-6.5-14.1-15.1-16c-0.2-1.6-0.3-3.1-0.5-4.7l-0.1-0.8c-0.1-0.3-0.1-0.7,0.1-1c2.8-7.5-1.8-9.9-7.9-11.2
			c-2.2-4-9.9,4.6-9.9-4.4c1-5.6-1.3-9.8-5.3-13.5c-4.8-4.4-2.7-9.5-0.4-14.1C54.2,128.7,57.7,127.5,61.8,130.4z"/>
		<path class="st137" d="M95.8,194.2c-6.9-10.4-15.8-20-12.5-34.2c-0.1-2.4,0.1-4.7,2.9-5.5c1.8,1.3,3.6,2.6,5.4,3.9
			c1.6-0.2,2.9,0.3,4,1.4c3.2,8.9,9.4,15.3,16.7,21.1c5.2,5.6,8.9,10.7,3.7,19c-4.1,6.5-7,7.5-12.1,1.9
			C101.5,199,99.6,195.6,95.8,194.2z"/>
		<path class="st138" d="M93.5,142.6c0.3-1.2,0.7-2.5,1-3.7c0.7-3-3.1-7,0.4-8.8c3.5-1.8,5.7,3.2,8.9,4.4c1,0.9,2.1,1.5,3.4,2
			c6.6,3.3,12.2-0.6,17.7-2.8c3.2-1.3,6.3-3.1,9.8-3.9c1,0,2,0.1,2.9,0.4c3.4,1.4,6.4,3.4,9.5,5.1c3.5,1.9,6.1,4.3,4.5,8.6
			c-1.4,3.6-4,6.1-8.3,5.2c-2.7-0.5-5.2,0.6-7.8,0.4c-6,0.2-12.3-1.8-17.6,2.7c-4.4,3.6-9.5,4.2-15,3.2c-0.9-0.1-1.9-0.3-2.8-0.6
			c-2.6-1.2-4.4-3.3-6.2-5.4C93.6,147.2,92.1,145,93.5,142.6z"/>
		<path class="st139" d="M83.5,132.1c-1.9,2.8-3.9,5.7-5.8,8.5c-3.5,0.2-3.2-1.8-2.2-4.1c0.3-0.5,0.6-1.1,0.7-1.7
			c0.4-1.4,0-2.7-1.5-2.9c-4.3-0.5-7.9-2.6-7.7-7c0.3-4.7-0.6-10.8,6.4-12.4c4.2-0.2,7.6,3.7,12,2.6
			C86.6,120.9,84.4,126.4,83.5,132.1z"/>
		<path class="st140" d="M93.5,142.6c0.8,1.8,1.6,3.7,2.5,5.5c0.7,0.9,1.2,1.8,1.6,2.8c-0.2,3.7-0.3,7.4-4.1,9.6
			c-0.6-0.7-1.2-1.4-1.9-2.1C92.3,153.2,87.1,147.2,93.5,142.6z"/>
		<path class="st141" d="M86.2,154.6c-1,1.8-1.9,3.7-2.9,5.5c-5-4.8-2.6-9.4,0.4-14C86.1,148.4,86.3,151.5,86.2,154.6z"/>
		<path class="st142" d="M103.8,138.9c-1.2-1.5-0.6-2.9,0.1-4.3c2.6-1.3,4.7-3,5.7-5.9c2.7,0.6,4,4.5,7.5,3.4c0.3,0.4,0.6,0.8,1,1.3
			C115,139.6,109.4,139.4,103.8,138.9z"/>
		<path class="st143" d="M73.5,112.4c-5.1,7.1-4.2,13,3.2,18c1.6,1.1,0.7,3-0.4,4.3c-2.2-2.2-4.7-1.7-7-0.4
			c-2.5,1.5-4.2,1.1-5.2-1.6c3-3.4,3.1-8.1,1.1-11.1c-3.3-5-0.7-8.5,1-12.5C68.6,110.3,71,111.3,73.5,112.4z"/>
		<path class="st144" d="M61.8,86.8c0.1-2.8,1.8-2.7,3.7-2.1c3.1-1.5,6.5-1.1,9.7-0.7c4.2,0.5,6.9,2.3,4.5,7.2
			c0.3,2.8-0.2,5-3.7,5.5c-3.5,0.5-5.4-1.3-6.7-4.2C66.9,90.7,64.3,88.8,61.8,86.8z"/>
		<path class="st145" d="M95.5,82.6c7.7,4.7-3.3,3.5-1.9,6.1c-3.5,3-7.4,4.2-11.9,2.1c-1.7-2.9-1.2-5.5,1-7.8
			C87,81.4,91.1,78.5,95.5,82.6z"/>
		<path class="st146" d="M83.9,84.4c-0.7,2.1-1.5,4.3-2.2,6.4c-0.7,0.1-1.3,0.2-2,0.4c-2.4-7.2-10.5-2.1-14.2-6.5
			c0.2-0.6,0.3-1.3,0.5-1.9c4-2,6.9-6.3,12.1-6c2.8,0.8,6.3-0.6,8.2,2.9C87.2,82.2,86,83.6,83.9,84.4z"/>
		<path class="st147" d="M99.7,54.3c2-1.8,4-3.5,5.9-5.3c13.1-2.6,25.3-11.3,39.6-4.8c1.9,0.8,5.4-1.9,8.1-3.1
			c1.2,1.2,1.2,2.3,0,3.5c-5.4,7-12.2,7.7-19.6,3.8c-1.8-1-3.5-4.1-4.5,0.5c-0.4,1.5-1.4,2.3-2.8,2.8c-6.8,2.3-12.5,7.4-20.1,7.8
			c-2.5,0.2-4.3-0.9-5.9-2.7C100,56.1,99.7,55.2,99.7,54.3z"/>
		<path class="st148" d="M125.4,49.3c1.3-0.1,2.6-0.2,3.9-0.3c3.5,2.8,7,5.6,10.5,8.3c0,0-0.1-0.3-0.1-0.3c-2,1.6,0,3,0.1,4.5
			c-3.1,2.6-8.1,1.6-10.5,5.5c-3.9-0.2-2.9-5.1-5.8-6.2c-1.6-0.7-3.8,0-4.8-2.1C117.9,53.5,124.4,53.3,125.4,49.3z"/>
		<path class="st149" d="M171.1,45.1c4.7,2.9,7.8-4.1,12.3-1.9c0,2,0,3.9,0,5.9c0,1.5-0.3,2.9-1.4,4c-3.3,1.5-6.1,5.6-10.5,2.2
			C167.8,52,167.7,48.6,171.1,45.1z"/>
		<path class="st149" d="M153.4,44.7c0-1.2,0-2.3,0-3.5c6-1.2,12.1-1.6,18,0.5c0.1,0,0,0.6-0.1,0.9c-0.1,0.3-0.4,0.5-0.6,0.7
			C165,45.9,159.6,49.7,153.4,44.7z"/>
		<path class="st150" d="M171.4,55.3c3.3-1.4,6.6-2.9,9.9-4.3c3.7,5.2,0.6,7-4,8.1c-3.3,1.2-6.7,2.4-10,3.6c1.3-1.8,2.6-3.6,3.8-5.3
			C171.2,56.6,171.3,56,171.4,55.3z"/>
		<path class="st77" d="M195.2,126c-3.2-1.7-6.5-3.4-9.7-5.1c0.6-4.1,5.3-3.2,7.2-5.7c0.4-0.3,0.7-0.7,1.1-1
			C197.5,117.7,197.8,121.7,195.2,126z"/>
		<path class="st151" d="M95.1,66.7c-1.4-5.2,2.3-8.5,4.6-12.3c0.2,0.4,0.1,0.8-0.1,1.2c1.2,3,7.4,2.2,5.6,7.4
			C102.3,65.3,99.3,67.5,95.1,66.7z"/>
		<path class="st152" d="M85.6,80.9c-2-0.1-4-0.1-6.1-0.2c-2.3-2.4-1.9-4.7,0.1-7c2.1-0.1,4.3-0.3,6.4-0.4c1.9,1.3,3.8,2.5,5.7,3.8
			C91.6,81.5,89.7,83,85.6,80.9z"/>
		<path class="st153" d="M85.6,80.9c2.8-0.1,4.8-1.5,6.2-3.8c1.3-0.8,2.6-1.5,3.9-2.3c0,2.6-0.1,5.2-0.1,7.8
			c-3.9,0.6-7.7,1.2-11.6,1.8C84.5,83.3,85,82.1,85.6,80.9z"/>
		<path class="st154" d="M105.2,62.9c-2-2.4-5.9-3.4-5.6-7.4c2,0.4,4,0.9,5.9,1.3c1.5,0.1,2.9,0.5,4.2,1.2c2.4,1.5,3.8,3.3,1.7,6
			C109.4,63.6,107.3,63.3,105.2,62.9z"/>
		<path class="st155" d="M111.5,64c-1.3-1.6-2.6-3.3-3.9-4.9c4.2-4.6,8.3-1.4,12.3,0.2c1.2,0.5,2.4,1.1,3.5,1.6
			C120.1,64.3,115,61.1,111.5,64z"/>
		<path class="st156" d="M111.3,114.5c7.4-4.9,1.9-13.8,6.2-19.7c5.1,2.2,7.7,10.8,15.5,5.9c2.8,0.1,4.8,1.3,6.2,3.7
			c1.7,4.6-0.3,7.6-4.4,9.5c-2.2,1-4.5,1.7-2.4,4.8c0.5,0.9,0.8,1.9,0.8,2.9c-3.6,7.7-9.2,9.9-17.1,6.6
			C112.9,124.2,107.3,121.1,111.3,114.5z"/>
		<path class="st157" d="M116.1,128.2c5.8-1.3,11.6-2.4,15.3-7.7c3-2.3,5.7-3.8,7.2,1.4c0.3,0.9,0.6,1.8,0.9,2.7
			c-1.3,1.3-2.7,2.7-4,4c-5.9,2.9-11.7,6.3-18.5,2.7C116.7,130.4,116.4,129.3,116.1,128.2z"/>
		<path class="st142" d="M117,131.5c6-1.8,12-4.4,18.5-2.7c0,0,0.2,0.6,0.2,0.6c-0.1,0.3-0.2,0.6-0.3,1l-0.1,0.6
			c-5.8,1.1-10.9,8-17.5,2.1c-0.2-0.3-0.5-0.5-0.7-0.8C117.1,132.1,117,131.5,117,131.5z"/>
		<path class="st158" d="M192.7,115.2c-0.1,4.8-3.6,5.3-7.2,5.7c-1.8-1-2.6-3.9-5.4-3c-2.4,1.1-4.5,0.1-6.7-0.9
			c-1.6-0.2-3.2-0.4-4.8-0.1c-3.8,0.7-7.6,0.8-8.7-3.8c-1.2-5.1,2.3-6.9,6.7-7.3c4.5-0.5,8.8,0.1,12.7,2.6c2.5,1,5.1,1.9,7.6,2.9
			C188.8,112.6,190.7,113.9,192.7,115.2z"/>
		<path class="st159" d="M179.3,108.5c-4,0-7.9,0.1-11.9,0.1c-3.5-1.5-10.9-1.1-4.1-7.9c7.9-0.5,12.6-3.7,11.1-12.6
			c-0.3-2.1,1.2-3.5,2.6-4.9C184.9,91,187,99.3,179.3,108.5z"/>
		<path class="st160" d="M177.1,83.2c0.1,1.6,0.2,3.3,0.3,4.9c1.1,12.5,0.6,13.1-12.1,14.7c-0.9-1.1-1.5-2.8-0.5-3.5
			c5.8-4.3,4.2-10.5,4.5-16.3c2,0,4-0.1,6.1-0.1C175.9,82.9,176.5,83.1,177.1,83.2z"/>
		<path class="st91" d="M131.5,104.8c-11.1,3.1-12.9,1.8-14-10c0.8-1.8,1.6-3.6,2.4-5.4c3.2-0.8,6.3-1.7,9.5-2.5
			C134,92.4,132.4,98.6,131.5,104.8z"/>
		<path class="st161" d="M139.8,61.5c-2.8-0.4-5.9,0.7-9.4-3.2c3.6-0.5,6.4-0.9,9.2-1.2C139.3,58.6,146.6,59.8,139.8,61.5z"/>
		<path class="st162" d="M177.3,59.1c2.1-2.3,4.8-4.3,4-8.1c0.7-0.7,1.4-1.3,2-2c3.7,2.7,4.3,8.3,9.3,9.7c2.2,2.8,4.4,5.5,6.6,8.3
			c-6.3,0.5-12-1.8-17.7-3.8C180.1,61.8,178.7,60.4,177.3,59.1z"/>
		<path class="st163" d="M131.5,104.8c-6.1-5.4-3.2-11.7-2.1-17.9c2.5-1.4,5.1-2.2,7.9-1.8c1.2,1.1,2.6,2,3.4,3.5
			c2.4,4.9,6,7.5,11.7,6.9c6.7-0.6,6.7-6,7.8-10.6c0.2-0.6,0.6-1.1,1-1.7c2.7-0.1,5.4-0.1,8.1-0.2c7.6,8.4,0.6,13.9-4,19.8
			c-4.2,3.7,0.8,4.1,2.1,5.8c-1.7,0.6-4.1,0.6-4.3,3c-0.1,1.9,1.7,2.3,3.2,2.8c2.4,0.8,4.7,1.7,7,2.6c-11,5.2-23.4,1.4-34.7,5.1
			c-2.4-0.5-4.8-1-7.2-1.4c-0.6-0.1-1.2-0.1-1.8-0.2c-1.6-4.1,1.4-4.9,4.2-6c3.3-1.3,5.9-3.2,3.8-7.4
			C135.7,106.2,133.6,105.5,131.5,104.8z"/>
		<path class="st164" d="M161.2,83.2c3.9,3.1,6.8,6.6,3.7,11.7c-4.6,7.7-12.5,6.6-19.5,6c-5.1-0.4-8.9-4.2-9.1-10
			c-0.1-1.9,0.7-3.9,1-5.8c4.7-0.9,9.4-1.8,14.1-2.6C154.7,82.7,158,82.9,161.2,83.2z"/>
		<path class="st165" d="M61.8,130.4c-7,3.6-9.6,8.3-4.4,15.6c3.1,4.5,4.7,9.4,0.4,14.3c-7.3-12.6-9.5-13.2-20.5-3.3
			c-3.6,3.3-5.3,3.6-8.3-0.4c-6.8-8.9-15.2-17.1-10.9-30c3.1-4.5,4.9-9.4,4.4-14.9c-0.4-4.2,0.7-7.9,3.5-11c1.6,5.6,5.1,7.7,11,7.3
			c8.6-0.5,18.3-2.2,18.9,11.6C56,123.3,62,125.6,61.8,130.4z"/>
		<path class="st166" d="M67.7,164.8c1.9-2.3,4.2-3.6,6.6-1.1c3.4,3.6,4.4,7.8,1.4,12.3C75.7,170.3,69.4,169.2,67.7,164.8z"/>
		<path class="st167" d="M75.5,176.9c0,0,0.1,0.9,0.1,0.8c-3.9-1.8-9.7,3.1-12.3-3.5C68.8,168.7,71.2,177.5,75.5,176.9z"/>
		<path class="st168" d="M91.3,198.4c0.5-2.5,1.7-3.7,4.3-2.4c-2.2,5.1,5.6,11.1-1.4,15.7C93.2,207.2,92.2,202.8,91.3,198.4z"/>
		<path class="st49" d="M129.1,232.2c7.4-5.4,14.8-10.7,22.2-16.1c3.1,2.3,7.6-0.3,10.5,2.7c2.7,5.3-2.5,7.3-4.4,10.7
			c-0.6,0.3-1.3,0.6-1.9,0.9c-3.4,2.6-7.6,0.3-11.2,1.8c-3.6,1.8-7.6,0.5-11.3,1.6C131.7,233.3,130.4,232.8,129.1,232.2z"/>
		<path class="st169" d="M133,233.9c3.3-2.1,6.1-5.3,10.4-5.5c3.6,1.8,4.8,4.2,2.1,7.6c-1.2,1.3-2.4,2.5-3.6,3.8
			C138.8,237.8,135.9,235.9,133,233.9z"/>
		<path class="st104" d="M181.1,226c1.9,2.7,3.8,5.4,5.8,8.2c1,1.9,2.4,3.6,0.8,5.8c-4-0.8-5.1-4.8-7.8-7.1c-0.2-0.3-0.5-0.7-0.7-1
			c-1.3-0.8-2.8-1.7-2.3-3.6C177.4,226.3,178.8,225.3,181.1,226z"/>
		<path class="st170" d="M145.4,236c-0.7-2.5-1.4-5.1-2.1-7.6c4.6-2.7,8.3,0.6,12.2,2.1c-0.1,1-0.2,2.1-0.3,3.1
			c-0.8,1.3-1.6,2.7-2.3,4C150.3,237.8,147.7,237.4,145.4,236z"/>
		<path class="st171" d="M181.1,226c-3.1,1.2-1.8,3.8-2,5.9c-6.6-1-13.5,2.2-19.9-1.8c0.4-3.5,1.6-6.3,5.7-6.8
			c2.8-0.3,5-1.3,5.6-4.4c1.1-3,4.7-2.6,6.4-4.7c2.8,1.3,5.6,2.6,8.4,3.8C181.6,219.6,181.3,222.7,181.1,226z"/>
		<path class="st172" d="M173.3,219.9c3.1,3.7,1.9,5.4-2.5,6.2c-4,0.7-8.2,1.2-11.6,4c-0.6-0.2-1.2-0.4-1.8-0.6
			c-2.7-4.6-1.5-7.7,3.6-9.3C165.1,216.2,169.2,216.1,173.3,219.9z"/>
		<path class="st173" d="M103.8,201.9c4.1,0.5,7.1-0.2,9.4-4.6c3.3-6.5-0.2-10.5-3.7-14.8c7.5-5.3,10.5,2.9,15.5,5.1
			c3.5,3.7,6.8,7.4,2,12.6c-2.6,2.8,0.3,5.5,0.6,8.3c-0.6,2.5-1.9,4.5-4.4,5.6c-5-4.1-10.6-6.5-17.3-6.1c-2-0.7-3.7-1.4-2.2-4
			C103.7,203.3,103.8,202.6,103.8,201.9z"/>
		<path class="st174" d="M146.1,197.8c1.2,9.3-5.9,14.3-10.6,20.7c-3.5-2-1.4-5.5-2.1-8.2c-2.2-1.4-2.7-3.4-2.2-5.8
			c1.9-3.6,5.9-4.6,8.8-7C142.1,196.3,144.1,197,146.1,197.8z"/>
		<path class="st175" d="M103.7,204c0.7,1.3,1.5,2.7,2.2,4c-0.2,4.7,4.2,9.9-1.7,13.9C103.2,215.9,98.2,210.1,103.7,204z"/>
		<path class="st176" d="M133.5,204.3c0,2,0,4,0,6c-2.8,0.8-4.9,2.4-6.7,4.7c-1.6,1.9-3,2.1-3.5-0.8c0.8-2,1.6-3.9,2.5-5.9
			c-0.3-3,1-4.9,3.9-5.7C131.2,202.3,132.5,202.8,133.5,204.3z"/>
		<path class="st177" d="M177.2,194.1c-3.8,3.1-5.6,9.1-4.6,11.9c2.4,6.6-2.7,6-5.3,7.9c-1.4,1.2-2.8,1.2-4.1-0.1
			c-7.1-1.7-12.3-4.8-10.1-13.5c1.1-4.1-2-4.1-4.6-4.6c-3.1-5,0-8.9,2.8-12.2c2.6-3,6.2-1.9,8.6,0.9c2.7,3.1,5.6-0.1,8.3,0.7
			c3.8,1.1,7.6,2.3,9.6,6.3C178.1,192.5,177.9,193.4,177.2,194.1z"/>
		<path class="st178" d="M177.8,192.3c-6.3-0.8-13.5,0.1-18.7-2.7c-8.8-4.8-7.8,3-10.5,6.2c-0.9,0.1-1.9,0.1-2.8,0.2
			c-1.1-0.3-1.9-1-2.5-1.9c-1.1-3.6-1.4-7.2,0.9-10.5c0.7-1.3,1.6-2.5,2.8-3.4c7.2-3.7,15-3.9,22.8-4.4c1.1,0.5,2.3,1,3.4,1.4
			c7.4,0.5,11,4.4,10.6,11.9C182.7,191.9,181.4,194.2,177.8,192.3z"/>
		<path class="st179" d="M163.3,213.8c1.4,0,2.8,0.1,4.1,0.1c3.2,0.1,6.3,0.2,9.5,0.3c1.4,3.5-1.8,4.1-3.5,5.7
			c-4.1,0.1-8.2,0.2-12.3,0.3c-3.1-1.7-8.5,2.2-9.7-4.1C155.1,214,159.3,214.4,163.3,213.8z"/>
		<path class="st180" d="M144.8,194c0.3,0.7,0.6,1.3,1,2c0,0.6,0.2,1.2,0.4,1.8c-1.9,0.7-3.8,1.3-5.7,2c-3.3,0.1-5.2-1.5-5.8-4.7
			c-0.4-4.1,0.9-7.5,5.3-8C145.3,186.5,144,191.1,144.8,194z"/>
		<path class="st147" d="M105.6,41c-2.9-10.3-1.1-13.1,9.9-15.7C115.8,32.8,111,37.1,105.6,41z"/>
		<path class="st181" d="M79.6,73.7c3.1,2.4,0.3,4.7-0.1,7c-4.3,1.6-8.8,2.5-13.5,2.1C74.2,72,69.3,60.4,67.9,49
			c4-5.3,10-7.5,15.9-9.8c2.6,3.2,2.3,6.5,0.4,10c-3,5.5-5.8,10.9-0.8,17.1C86.7,70.4,78.7,70.1,79.6,73.7z"/>
		<path class="st182" d="M180.9,188.2c-1-4.8-5.7-6.9-7.7-11c0.7-6.5,4.4-3.6,7.5-2.4c1.3-0.2,2.5-1.2,3.8-0.6
			c11.1,5.1,18.6,0.6,24.3-9c1.1-1.1,2.4-1.6,4-1.1c0.1,2.1,0.2,4.1,0.4,6.2c-3.4,11.5-14.9,17.2-19.7,27.8
			c-0.5-0.1-0.9-0.2-1.4-0.3C188.4,194.6,185.3,190.7,180.9,188.2z"/>
		<path class="st183" d="M199,204.5c-1.1,3.1-3.4,2.3-5.7,1.8c-5.8,1-7.9-4.9-12.3-6.7c1.9-8,4-8.3,11.6-1.5c0,0,0.8,0.1,0.8,0.1
			C192.8,202.4,195.5,203.7,199,204.5z"/>
		<path class="st184" d="M192.7,198c-3.9,0.3-8.4-4.1-11.6,1.5c-3.1-0.5-3-3.3-3.8-5.4c0.2-0.6,0.4-1.2,0.6-1.9
			c2.3-0.4,3.2-1.8,3.2-4.1C190.2,185.1,191.6,191.4,192.7,198z"/>
		<path class="st185" d="M209,152.3c3.2,0.9,5,2.6,4.2,6.2c-8.4,15.6-26,18.4-36.7,6c-2.4-5-0.2-7.3,4.7-7.9
			C191.4,161,201.2,163.2,209,152.3z"/>
		<path class="st186" d="M181.2,156.6c-2.4,2.1-3.9,4.5-3.8,7.8c-0.7,1-1.3,0.9-2.1,0.1c-4.1-3.5-5.2-7.5-1.9-12.2
			C176,153.7,178.6,155.1,181.2,156.6z"/>
		<path class="st187" d="M155.3,167.3c2.7,4.5,8.6,2,11.9,5.3c-2.7,4.7-7.6,3.6-11.7,4.6c-3.5,0.6-6,2.9-8.9,4.7
			c-3.1,3.2-6.4,4.9-10.5,1.5c-3.1-5.7,2.6-10.9,0.8-16.5c1.6-5,2.7-10.1,1.1-15.4c5.2-4.1,10.9-5.6,17.4-4.2
			C159.1,154,155.9,160.6,155.3,167.3z"/>
		<path class="st188" d="M210.6,166.6c-7.1,15.3-15,17.5-29.8,8.3c0.1-0.7,0.2-1.4,0.3-2.2c2.3-3.4,6-2.6,9-2.4
			C197.3,170.9,204.2,170.2,210.6,166.6z"/>
		<path class="st189" d="M210.6,166.6c-8.4,8.8-19.5,4.8-29.5,6.1c-2.7-2.2-4.4-5.1-5.7-8.3c0.7,0,1.4,0,2.1-0.1
			c13,7.4,24.6,5.5,35.9-5.9c-0.1,1.9-0.3,3.8-0.4,5.6C212.1,164.9,211.3,165.7,210.6,166.6z"/>
		<path class="st190" d="M153.5,174.6c4.2-3.1,9-2.2,13.7-2c0.9,1,1.7,2.1,2.6,3.1c-4.7,9-13.1,5.8-20.5,6.3
			C148.8,178.5,149.7,175.8,153.5,174.6z"/>
		<path class="st191" d="M155.3,167.3c-3.1-6.7-1.4-13.9-2.5-20.9c-0.3-1-0.1-1.9,0.5-2.7c2.9-2.3,5.5-0.9,8,0.7
			c0,0,0.5-0.1,0.5-0.1c0.4,5.4,0.9,10.8,1.3,16.2c-2.4,2-4.7,4.3-7.7,5.4C155.5,166.4,155.4,166.9,155.3,167.3z"/>
		<path class="st192" d="M155.5,166c0.5-4.7,1.9-8.2,7.7-5.4c0.8,2.4,2.4,5.1-0.7,6.9C159.9,169.1,157.5,168,155.5,166z"/>
		<path class="st140" d="M153.6,144.6c-0.3,0.6-0.5,1.2-0.7,1.8c-1.8,8.3-9.2,2.6-13.3,5.3c-3.7,15.6-23.2,20.4-36,8.9
			c-1.1-2.5-3.4-4.7-2-7.8c5.7,0.1,10.5-2.9,15.8-4.2c5.3-1.1,11.1,1.7,16.1-2c4.9-1.8,12.9,2.3,14.6-4.4c1.8-7-7.2-7.2-11-10.7
			c-0.5-0.4-1.1-0.8-1.6-1.1c0.1-0.3,0.2-0.7,0.3-1c7.1-1.5,11.5,5.5,18,5.8C156.9,138.4,157.1,141.5,153.6,144.6z"/>
		<path class="st193" d="M153.6,144.6c0.1-3.1,0.1-6.3,0.2-9.4c7.4-0.9,6.6,4.9,7.6,9.2C158.8,146.2,156.2,147.7,153.6,144.6z"/>
		<path class="st194" d="M75.5,136.5c0.3,1.6,0,3.6,2.2,4.1c-0.7,2.5-1.1,5.2-2.3,7.6c-1.4,3-3.7,6.7-7.4,4.3
			c-3.5-2.3-2.9-6.6-0.2-9.6C70.1,140.4,73,138.6,75.5,136.5z"/>
		<path class="st195" d="M101.6,152.8c1.2,1.2,2.4,2.5,3.6,3.7c-3.9,6,4.2,8.1,4.2,12.9c3,9.3,12.3,7.8,18.9,11
			c2.8,1.3,6.4-0.1,9.2,1.9c2.9-0.7,5.7-1.4,8.6-2c1.3,1.1,0.3,2.8,1.2,4c-0.8,3.3-1.6,6.5-2.4,9.8c-1-1.5-2.4-4.5-3.1-4.4
			c-3.4,0.6-3.6,4.1-4.5,6.8c-0.7,2.3-1.3,4.7-4.3,5c-6.5-0.8-2.7-10.2-9.2-11c-4.6-3.1-8.3-7.7-14.3-8c-6.8-6.2-14.1-12-16-21.8
			c0.1-3.6,0.6-7.1,2.3-10.4c2.8-1.5,4.6-0.5,5.8,2.3L101.6,152.8z"/>
		<path class="st196" d="M117.8,132.9c5.8-0.7,11.7-1.4,17.5-2.1c-6.4,7-15.5,8.2-24,10.6c-2.6,0.8-6.1,1.2-7.6-2.6
			C108.5,136.9,113.1,134.9,117.8,132.9z"/>
		<path class="st197" d="M133.5,146.5c-4.5,7.4-10.2,5.8-16.1,2C122.3,143.8,127.9,145.1,133.5,146.5z"/>
		<path class="st69" d="M101.5,152.5c-1.9-0.8-3.8-1.5-5.8-2.3c0.1-0.7,0.2-1.4,0.2-2.1c2.8-0.7,5.6-1.5,8.5-2.3
			C105.7,149.2,102.3,150.3,101.5,152.5z"/>
		<path class="st198" d="M119.9,59.3c-4.2,4.6-8.2-2-12.3-0.2c-0.7-0.8-1.4-1.5-2.1-2.3c6.6-2.5,13.3-5,19.9-7.4
			C130.8,56.6,120.9,55.5,119.9,59.3z"/>
		<path class="st199" d="M137.7,107c3.1,0.9,7.4,1.3,7.5,5.1c0.1,3.7-4.4,4.4-7.2,5.6c-2.6,1.2-5.6,1.8-8.4,2.7
			c-1.3,0.2-2.6,0.4-3.9,0.6c-2.7,0.5-5.7,0.7-6.6-2.5c-1.1-3.9,2.4-4.8,5-6.1C128.6,110.2,134,110.8,137.7,107z"/>
		<path class="st200" d="M123.8,190.5c5.9,0.5,7.3,5.6,9.6,9.7c1.5,3.8-3,2.4-3.8,4.2c-1.3,1.3-2.7,2.6-4,3.9c-5-3.1-7.4-6.9-2-11.6
			C126.2,194.3,124.7,192.5,123.8,190.5z"/>
		<path class="st201" d="M129.6,204.3c1.3-1.4,2.5-2.8,3.8-4.2c1.3-1.2,2.6-2.5,3.9-3.7c1.1,1.1,2.1,2.2,3.2,3.3
			c-1.9,2.1-3.8,4.3-7,4.5C132.2,204.3,130.9,204.3,129.6,204.3z"/>
		<path class="st202" d="M147.2,184.2c-0.4-1.3-0.8-2.6-1.2-4c2.5-1.9,2.1-7.7,7.5-5.6c-1.4,2.5-2.8,5-4.1,7.5
			C148.6,182.8,147.9,183.5,147.2,184.2z"/>
		<path class="st203" d="M105.4,170.6c-1.9-4.6-12.8-9.2-0.2-14c7.3,7.5,15.1,8.2,23.6,2c3.4-2.5,7.1-4.6,10.7-6.9
			c8.3,3,2.6,9.5,3.7,14.4c-7,17.4-12.8,18.8-33,7.7C108.6,172.8,106.7,172,105.4,170.6z"/>
		<path class="st204" d="M105.4,170.6c4.5,0.8,9.7,0.6,13.5,2.7c11,6,18.6,3.2,24.3-7.2c1.3,6.6-4.3,10.7-5.8,16.2
			C124.6,186.6,112.4,182.1,105.4,170.6z"/>
	</g>
</g>
</svg>
