<svg width="191" height="46" viewBox="0 0 191 46" fill="none" xmlns="http://www.w3.org/2000/svg">
<path d="M19.9421 6H9.06207V34H15.3821V23.64H19.9421C27.4621 23.64 30.3821 19.84 30.3821 14.64C30.3821 9.56 27.4621 6 19.9421 6ZM20.2621 18.16H15.3821V11.48H20.2621C22.9821 11.48 24.0621 12.64 24.0621 14.8C24.0621 17.2 22.9821 18.16 20.2621 18.16ZM47.8174 34H55.1774L50.4174 25.36L48.1374 22.92C52.2574 21.88 54.6174 18.88 54.6174 14.64C54.6174 9.44 50.8974 6 44.6174 6H32.6574V34H38.9774V23.32H43.3374L47.8174 34ZM38.9774 11.48H44.1774C47.1374 11.48 48.2974 12.4 48.2974 14.72C48.2974 17.12 47.1374 18.04 44.1774 18.04H38.9774V11.48ZM70.3018 5.6C62.2618 5.6 55.7418 11.36 55.7418 20.04C55.7418 28.64 62.2618 34.4 70.3018 34.4C78.3418 34.4 84.8618 28.64 84.8618 20.04C84.8618 11.36 78.3418 5.6 70.3018 5.6ZM70.3018 28.64C64.8618 28.64 62.3018 25.84 62.3018 20C62.3018 14.16 64.8618 11.36 70.3018 11.36C75.7418 11.36 78.3018 14.16 78.3018 20C78.3018 25.84 75.7418 28.64 70.3018 28.64ZM92.6958 22.88L86.4158 23.8C86.8158 32.6 91.4958 34.4 96.7358 34.4C102.536 34.4 107.216 31.12 107.216 23.16V6H100.896V23.68C100.896 27.72 99.8158 28.64 96.7358 28.64C93.6158 28.64 92.4958 27.04 92.6958 22.88ZM111.764 34H118.244V6H111.764V34ZM142.534 6V25.8L140.614 21.88L131.574 6H123.054V34H129.334V13.4L130.934 16.96L140.614 34H148.814V6H142.534ZM166.603 18.8V24.12H174.243C173.563 27.4 170.443 29 166.963 29C161.123 29 158.323 26.24 158.323 20C158.323 14.48 161.363 11.36 166.803 11.36C170.643 11.36 173.003 13.16 174.203 16.96L180.043 14.36C178.643 8.96 173.483 5.6 166.963 5.6C158.323 5.6 151.803 11.6 151.803 20.04C151.803 28.64 158.123 34.4 165.403 34.4C168.403 34.4 173.123 33.68 175.003 28.08L174.963 34H180.443V18.8H166.603Z" fill="#FF8C32"/>
</svg>
