<svg width="56" height="58" viewBox="0 0 56 58" fill="none" xmlns="http://www.w3.org/2000/svg">
<path fill-rule="evenodd" clip-rule="evenodd" d="M14.625 31.5C14.625 30.9477 15.0727 30.5 15.625 30.5H31.375C31.9273 30.5 32.375 30.9477 32.375 31.5C32.375 32.0523 31.9273 32.5 31.375 32.5H15.625C15.0727 32.5 14.625 32.0523 14.625 31.5Z" fill="white"/>
<path fill-rule="evenodd" clip-rule="evenodd" d="M24.2071 22.9179C24.5976 23.3084 24.5976 23.9416 24.2071 24.3321L17.0392 31.5L24.2071 38.6679C24.5976 39.0584 24.5976 39.6916 24.2071 40.0821C23.8166 40.4726 23.1834 40.4726 22.7929 40.0821L14.9179 32.2071C14.5274 31.8166 14.5274 31.1834 14.9179 30.7929L22.7929 22.9179C23.1834 22.5274 23.8166 22.5274 24.2071 22.9179Z" fill="white"/>
</svg>
